<svg width="110" height="84" viewBox="0 0 110 84" fill="none" xmlns="http://www.w3.org/2000/svg">
<g id="camera_icon" filter="url(#filter0_ii_64_2149)">
<path d="M36.2 0L34.8854 1.7052L29.9 8.4H0.5V84H109.7V8.4H80.3L75.3104 1.7052L74 0H36.2ZM40.4 8.4H69.8L74.7896 15.0948L76.1 16.8H101.3V75.6H8.9V16.8H34.1L35.4146 15.0948L40.4 8.4ZM21.5 21C19.19 21 17.3 22.89 17.3 25.2C17.3 27.51 19.19 29.4 21.5 29.4C23.81 29.4 25.7 27.51 25.7 25.2C25.7 22.89 23.81 21 21.5 21ZM55.1 21C41.24 21 29.9 32.34 29.9 46.2C29.9 60.06 41.24 71.4 55.1 71.4C68.96 71.4 80.3 60.06 80.3 46.2C80.3 32.34 68.96 21 55.1 21ZM55.1 29.4C64.4366 29.4 71.9 36.8634 71.9 46.2C71.9 55.5366 64.4366 63 55.1 63C45.7634 63 38.3 55.5366 38.3 46.2C38.3 36.8634 45.7634 29.4 55.1 29.4Z" fill="#D4EAEE"/>
</g>
<defs>
<filter id="filter0_ii_64_2149" x="-0.5" y="-1" width="111.2" height="86" filterUnits="userSpaceOnUse" color-interpolation-filters="sRGB">
<feFlood flood-opacity="0" result="BackgroundImageFix"/>
<feBlend mode="normal" in="SourceGraphic" in2="BackgroundImageFix" result="shape"/>
<feColorMatrix in="SourceAlpha" type="matrix" values="0 0 0 0 0 0 0 0 0 0 0 0 0 0 0 0 0 0 127 0" result="hardAlpha"/>
<feOffset dx="-1" dy="-1"/>
<feGaussianBlur stdDeviation="1.5"/>
<feComposite in2="hardAlpha" operator="arithmetic" k2="-1" k3="1"/>
<feColorMatrix type="matrix" values="0 0 0 0 0.984314 0 0 0 0 0.984314 0 0 0 0 0.984314 0 0 0 1 0"/>
<feBlend mode="normal" in2="shape" result="effect1_innerShadow_64_2149"/>
<feColorMatrix in="SourceAlpha" type="matrix" values="0 0 0 0 0 0 0 0 0 0 0 0 0 0 0 0 0 0 127 0" result="hardAlpha"/>
<feOffset dx="1" dy="1"/>
<feGaussianBlur stdDeviation="1.5"/>
<feComposite in2="hardAlpha" operator="arithmetic" k2="-1" k3="1"/>
<feColorMatrix type="matrix" values="0 0 0 0 0.772549 0 0 0 0 0.772549 0 0 0 0 0.772549 0 0 0 1 0"/>
<feBlend mode="normal" in2="effect1_innerShadow_64_2149" result="effect2_innerShadow_64_2149"/>
</filter>
</defs>
</svg>
