<svg width="198" height="45" viewBox="0 0 198 45" fill="none" xmlns="http://www.w3.org/2000/svg">
<mask id="path-1-outside-1_127_2788" maskUnits="userSpaceOnUse" x="0.37793" y="0.28125" width="198" height="45" fill="black">
<rect fill="white" x="0.37793" y="0.28125" width="198" height="45"/>
<path d="M10.3545 43.4688C8.35449 43.4688 6.69043 43.0078 5.3623 42.0859C4.03418 41.1641 3.03418 39.8203 2.3623 38.0547C1.70605 36.2734 1.37793 34.125 1.37793 31.6094V13.6328C1.37793 11.7422 1.53418 10.0391 1.84668 8.52344C2.15918 7.00781 2.66699 5.71094 3.37012 4.63281C4.07324 3.55469 5.01074 2.72656 6.18262 2.14844C7.35449 1.57031 8.7998 1.28125 10.5186 1.28125C12.0811 1.28125 13.4092 1.53906 14.5029 2.05469C15.6123 2.55469 16.5107 3.28125 17.1982 4.23438C17.9014 5.1875 18.4092 6.34375 18.7217 7.70312C19.0498 9.04688 19.2139 10.5625 19.2139 12.25V17.9219H13.1436V12.6484C13.1436 10.6172 12.9717 9.125 12.6279 8.17188C12.2842 7.20312 11.5967 6.71875 10.5654 6.71875C9.4248 6.71875 8.65918 7.24219 8.26855 8.28906C7.89355 9.32031 7.70605 10.7656 7.70605 12.625V31.8906C7.70605 33.3281 7.78418 34.5078 7.94043 35.4297C8.1123 36.3359 8.39355 37.0078 8.78418 37.4453C9.1748 37.8672 9.72168 38.0781 10.4248 38.0781C11.4873 38.0781 12.2061 37.5781 12.5811 36.5781C12.9561 35.5781 13.1436 33.9922 13.1436 31.8203V25.9141H19.3076V31.75C19.3076 34.3594 19.0029 36.5391 18.3936 38.2891C17.7842 40.0234 16.8154 41.3203 15.4873 42.1797C14.1748 43.0391 12.4639 43.4688 10.3545 43.4688Z"/>
<path d="M32.9248 43.4219C31.2373 43.4219 29.8232 43.1641 28.6826 42.6484C27.542 42.1172 26.6357 41.3594 25.9639 40.375C25.3076 39.375 24.8311 38.1641 24.5342 36.7422C24.2529 35.3047 24.1123 33.6719 24.1123 31.8438V18.6953C24.1123 16.4922 24.3936 14.5469 24.9561 12.8594C25.5342 11.1562 26.4717 9.82812 27.7686 8.875C29.0654 7.90625 30.7842 7.42188 32.9248 7.42188C34.5498 7.42188 35.917 7.69531 37.0264 8.24219C38.1514 8.78906 39.0498 9.57031 39.7217 10.5859C40.4092 11.5859 40.9092 12.7734 41.2217 14.1484C41.5342 15.5234 41.6904 17.0391 41.6904 18.6953V31.8438C41.6904 33.6406 41.5498 35.25 41.2686 36.6719C41.0029 38.0938 40.5342 39.3125 39.8623 40.3281C39.2061 41.3281 38.3154 42.0938 37.1904 42.625C36.0654 43.1562 34.6436 43.4219 32.9248 43.4219ZM32.9248 38.4062C33.6279 38.4062 34.1592 38.1953 34.5186 37.7734C34.8779 37.3359 35.1201 36.7344 35.2451 35.9688C35.3701 35.2031 35.4326 34.3203 35.4326 33.3203V17.5938C35.4326 16.5312 35.3623 15.6172 35.2217 14.8516C35.0811 14.0859 34.8311 13.4922 34.4717 13.0703C34.1123 12.6484 33.5967 12.4375 32.9248 12.4375C32.2217 12.4375 31.6826 12.6484 31.3076 13.0703C30.9482 13.4922 30.6982 14.0859 30.5576 14.8516C30.4326 15.6172 30.3701 16.5312 30.3701 17.5938V33.3203C30.3701 34.3203 30.4326 35.2031 30.5576 35.9688C30.6982 36.7344 30.9482 37.3359 31.3076 37.7734C31.6826 38.1953 32.2217 38.4062 32.9248 38.4062Z"/>
<path d="M47.3623 43V1.39844H53.5498V43H47.3623Z"/>
<path d="M68.1279 43.4219C66.4404 43.4219 65.0264 43.1641 63.8857 42.6484C62.7451 42.1172 61.8389 41.3594 61.167 40.375C60.5107 39.375 60.0342 38.1641 59.7373 36.7422C59.4561 35.3047 59.3154 33.6719 59.3154 31.8438V18.6953C59.3154 16.4922 59.5967 14.5469 60.1592 12.8594C60.7373 11.1562 61.6748 9.82812 62.9717 8.875C64.2686 7.90625 65.9873 7.42188 68.1279 7.42188C69.7529 7.42188 71.1201 7.69531 72.2295 8.24219C73.3545 8.78906 74.2529 9.57031 74.9248 10.5859C75.6123 11.5859 76.1123 12.7734 76.4248 14.1484C76.7373 15.5234 76.8936 17.0391 76.8936 18.6953V31.8438C76.8936 33.6406 76.7529 35.25 76.4717 36.6719C76.2061 38.0938 75.7373 39.3125 75.0654 40.3281C74.4092 41.3281 73.5186 42.0938 72.3936 42.625C71.2686 43.1562 69.8467 43.4219 68.1279 43.4219ZM68.1279 38.4062C68.8311 38.4062 69.3623 38.1953 69.7217 37.7734C70.0811 37.3359 70.3232 36.7344 70.4482 35.9688C70.5732 35.2031 70.6357 34.3203 70.6357 33.3203V17.5938C70.6357 16.5312 70.5654 15.6172 70.4248 14.8516C70.2842 14.0859 70.0342 13.4922 69.6748 13.0703C69.3154 12.6484 68.7998 12.4375 68.1279 12.4375C67.4248 12.4375 66.8857 12.6484 66.5107 13.0703C66.1514 13.4922 65.9014 14.0859 65.7607 14.8516C65.6357 15.6172 65.5732 16.5312 65.5732 17.5938V33.3203C65.5732 34.3203 65.6357 35.2031 65.7607 35.9688C65.9014 36.7344 66.1514 37.3359 66.5107 37.7734C66.8857 38.1953 67.4248 38.4062 68.1279 38.4062Z"/>
<path d="M82.5654 43V7.84375H88.8232V11.7578C89.2295 10.3984 89.9326 9.33594 90.9326 8.57031C91.9482 7.80469 93.2373 7.42188 94.7998 7.42188C94.8311 7.42188 94.8467 7.6875 94.8467 8.21875C94.8623 8.75 94.8701 9.35938 94.8701 10.0469C94.8701 10.7344 94.8701 11.3438 94.8701 11.875C94.8701 12.4062 94.8701 12.6719 94.8701 12.6719C94.1514 12.6719 93.3701 12.7578 92.5264 12.9297C91.6982 13.1016 90.9404 13.3672 90.2529 13.7266C89.5811 14.0703 89.1045 14.5312 88.8232 15.1094V43H82.5654Z"/>
<path d="M109.706 43V7.1875H104.878V1.75H120.604V7.1875H115.964V43H109.706Z"/>
<path d="M131.269 43.4219C129.581 43.4219 128.167 43.1641 127.026 42.6484C125.886 42.1172 124.979 41.3594 124.308 40.375C123.651 39.375 123.175 38.1641 122.878 36.7422C122.597 35.3047 122.456 33.6719 122.456 31.8438V18.6953C122.456 16.4922 122.737 14.5469 123.3 12.8594C123.878 11.1562 124.815 9.82812 126.112 8.875C127.409 7.90625 129.128 7.42188 131.269 7.42188C132.894 7.42188 134.261 7.69531 135.37 8.24219C136.495 8.78906 137.394 9.57031 138.065 10.5859C138.753 11.5859 139.253 12.7734 139.565 14.1484C139.878 15.5234 140.034 17.0391 140.034 18.6953V31.8438C140.034 33.6406 139.894 35.25 139.612 36.6719C139.347 38.0938 138.878 39.3125 138.206 40.3281C137.55 41.3281 136.659 42.0938 135.534 42.625C134.409 43.1562 132.987 43.4219 131.269 43.4219ZM131.269 38.4062C131.972 38.4062 132.503 38.1953 132.862 37.7734C133.222 37.3359 133.464 36.7344 133.589 35.9688C133.714 35.2031 133.776 34.3203 133.776 33.3203V17.5938C133.776 16.5312 133.706 15.6172 133.565 14.8516C133.425 14.0859 133.175 13.4922 132.815 13.0703C132.456 12.6484 131.94 12.4375 131.269 12.4375C130.565 12.4375 130.026 12.6484 129.651 13.0703C129.292 13.4922 129.042 14.0859 128.901 14.8516C128.776 15.6172 128.714 16.5312 128.714 17.5938V33.3203C128.714 34.3203 128.776 35.2031 128.901 35.9688C129.042 36.7344 129.292 37.3359 129.651 37.7734C130.026 38.1953 130.565 38.4062 131.269 38.4062Z"/>
<path d="M154.003 43.4219C152.315 43.4219 150.901 43.1641 149.761 42.6484C148.62 42.1172 147.714 41.3594 147.042 40.375C146.386 39.375 145.909 38.1641 145.612 36.7422C145.331 35.3047 145.19 33.6719 145.19 31.8438V18.6953C145.19 16.4922 145.472 14.5469 146.034 12.8594C146.612 11.1562 147.55 9.82812 148.847 8.875C150.144 7.90625 151.862 7.42188 154.003 7.42188C155.628 7.42188 156.995 7.69531 158.104 8.24219C159.229 8.78906 160.128 9.57031 160.8 10.5859C161.487 11.5859 161.987 12.7734 162.3 14.1484C162.612 15.5234 162.769 17.0391 162.769 18.6953V31.8438C162.769 33.6406 162.628 35.25 162.347 36.6719C162.081 38.0938 161.612 39.3125 160.94 40.3281C160.284 41.3281 159.394 42.0938 158.269 42.625C157.144 43.1562 155.722 43.4219 154.003 43.4219ZM154.003 38.4062C154.706 38.4062 155.237 38.1953 155.597 37.7734C155.956 37.3359 156.198 36.7344 156.323 35.9688C156.448 35.2031 156.511 34.3203 156.511 33.3203V17.5938C156.511 16.5312 156.44 15.6172 156.3 14.8516C156.159 14.0859 155.909 13.4922 155.55 13.0703C155.19 12.6484 154.675 12.4375 154.003 12.4375C153.3 12.4375 152.761 12.6484 152.386 13.0703C152.026 13.4922 151.776 14.0859 151.636 14.8516C151.511 15.6172 151.448 16.5312 151.448 17.5938V33.3203C151.448 34.3203 151.511 35.2031 151.636 35.9688C151.776 36.7344 152.026 37.3359 152.386 37.7734C152.761 38.1953 153.3 38.4062 154.003 38.4062Z"/>
<path d="M168.44 43V1.39844H174.628V43H168.44Z"/>
<path d="M188.175 43.4453C185.347 43.4453 183.245 42.6406 181.87 41.0312C180.495 39.4219 179.808 36.7891 179.808 33.1328V30.8594H185.644V33.6953C185.644 35.2266 185.831 36.3906 186.206 37.1875C186.581 37.9844 187.19 38.3828 188.034 38.3828C188.847 38.3828 189.448 38.1094 189.839 37.5625C190.229 37.0156 190.425 36.0703 190.425 34.7266C190.425 33.9453 190.308 33.1875 190.073 32.4531C189.854 31.7188 189.503 31 189.019 30.2969C188.55 29.5781 187.94 28.8828 187.19 28.2109L184.026 25.3516C182.573 24.0391 181.487 22.625 180.769 21.1094C180.05 19.5781 179.69 17.8906 179.69 16.0469C179.69 13.0625 180.386 10.8828 181.776 9.50781C183.183 8.11719 185.261 7.42188 188.011 7.42188C189.792 7.42188 191.269 7.75781 192.44 8.42969C193.612 9.08594 194.487 10.1562 195.065 11.6406C195.644 13.125 195.933 15.1172 195.933 17.6172V19.5391H190.378V17.2188C190.378 15.6719 190.198 14.5 189.839 13.7031C189.495 12.9062 188.901 12.5078 188.058 12.5078C187.229 12.5078 186.62 12.7422 186.229 13.2109C185.839 13.6641 185.628 14.4688 185.597 15.625C185.581 16.25 185.659 16.8672 185.831 17.4766C186.003 18.0703 186.269 18.6562 186.628 19.2344C187.003 19.7969 187.487 20.3516 188.081 20.8984L191.409 23.9219C193.159 25.5 194.448 27.1484 195.276 28.8672C196.12 30.5859 196.542 32.4453 196.542 34.4453C196.542 37.3984 195.87 39.6406 194.526 41.1719C193.183 42.6875 191.065 43.4453 188.175 43.4453Z"/>
</mask>
<g filter="url(#filter0_ii_127_2788)">
<path d="M10.3545 43.4688C8.35449 43.4688 6.69043 43.0078 5.3623 42.0859C4.03418 41.1641 3.03418 39.8203 2.3623 38.0547C1.70605 36.2734 1.37793 34.125 1.37793 31.6094V13.6328C1.37793 11.7422 1.53418 10.0391 1.84668 8.52344C2.15918 7.00781 2.66699 5.71094 3.37012 4.63281C4.07324 3.55469 5.01074 2.72656 6.18262 2.14844C7.35449 1.57031 8.7998 1.28125 10.5186 1.28125C12.0811 1.28125 13.4092 1.53906 14.5029 2.05469C15.6123 2.55469 16.5107 3.28125 17.1982 4.23438C17.9014 5.1875 18.4092 6.34375 18.7217 7.70312C19.0498 9.04688 19.2139 10.5625 19.2139 12.25V17.9219H13.1436V12.6484C13.1436 10.6172 12.9717 9.125 12.6279 8.17188C12.2842 7.20312 11.5967 6.71875 10.5654 6.71875C9.4248 6.71875 8.65918 7.24219 8.26855 8.28906C7.89355 9.32031 7.70605 10.7656 7.70605 12.625V31.8906C7.70605 33.3281 7.78418 34.5078 7.94043 35.4297C8.1123 36.3359 8.39355 37.0078 8.78418 37.4453C9.1748 37.8672 9.72168 38.0781 10.4248 38.0781C11.4873 38.0781 12.2061 37.5781 12.5811 36.5781C12.9561 35.5781 13.1436 33.9922 13.1436 31.8203V25.9141H19.3076V31.75C19.3076 34.3594 19.0029 36.5391 18.3936 38.2891C17.7842 40.0234 16.8154 41.3203 15.4873 42.1797C14.1748 43.0391 12.4639 43.4688 10.3545 43.4688Z" fill="#D1DADB"/>
<path d="M32.9248 43.4219C31.2373 43.4219 29.8232 43.1641 28.6826 42.6484C27.542 42.1172 26.6357 41.3594 25.9639 40.375C25.3076 39.375 24.8311 38.1641 24.5342 36.7422C24.2529 35.3047 24.1123 33.6719 24.1123 31.8438V18.6953C24.1123 16.4922 24.3936 14.5469 24.9561 12.8594C25.5342 11.1562 26.4717 9.82812 27.7686 8.875C29.0654 7.90625 30.7842 7.42188 32.9248 7.42188C34.5498 7.42188 35.917 7.69531 37.0264 8.24219C38.1514 8.78906 39.0498 9.57031 39.7217 10.5859C40.4092 11.5859 40.9092 12.7734 41.2217 14.1484C41.5342 15.5234 41.6904 17.0391 41.6904 18.6953V31.8438C41.6904 33.6406 41.5498 35.25 41.2686 36.6719C41.0029 38.0938 40.5342 39.3125 39.8623 40.3281C39.2061 41.3281 38.3154 42.0938 37.1904 42.625C36.0654 43.1562 34.6436 43.4219 32.9248 43.4219ZM32.9248 38.4062C33.6279 38.4062 34.1592 38.1953 34.5186 37.7734C34.8779 37.3359 35.1201 36.7344 35.2451 35.9688C35.3701 35.2031 35.4326 34.3203 35.4326 33.3203V17.5938C35.4326 16.5312 35.3623 15.6172 35.2217 14.8516C35.0811 14.0859 34.8311 13.4922 34.4717 13.0703C34.1123 12.6484 33.5967 12.4375 32.9248 12.4375C32.2217 12.4375 31.6826 12.6484 31.3076 13.0703C30.9482 13.4922 30.6982 14.0859 30.5576 14.8516C30.4326 15.6172 30.3701 16.5312 30.3701 17.5938V33.3203C30.3701 34.3203 30.4326 35.2031 30.5576 35.9688C30.6982 36.7344 30.9482 37.3359 31.3076 37.7734C31.6826 38.1953 32.2217 38.4062 32.9248 38.4062Z" fill="#D1DADB"/>
<path d="M47.3623 43V1.39844H53.5498V43H47.3623Z" fill="#D1DADB"/>
<path d="M68.1279 43.4219C66.4404 43.4219 65.0264 43.1641 63.8857 42.6484C62.7451 42.1172 61.8389 41.3594 61.167 40.375C60.5107 39.375 60.0342 38.1641 59.7373 36.7422C59.4561 35.3047 59.3154 33.6719 59.3154 31.8438V18.6953C59.3154 16.4922 59.5967 14.5469 60.1592 12.8594C60.7373 11.1562 61.6748 9.82812 62.9717 8.875C64.2686 7.90625 65.9873 7.42188 68.1279 7.42188C69.7529 7.42188 71.1201 7.69531 72.2295 8.24219C73.3545 8.78906 74.2529 9.57031 74.9248 10.5859C75.6123 11.5859 76.1123 12.7734 76.4248 14.1484C76.7373 15.5234 76.8936 17.0391 76.8936 18.6953V31.8438C76.8936 33.6406 76.7529 35.25 76.4717 36.6719C76.2061 38.0938 75.7373 39.3125 75.0654 40.3281C74.4092 41.3281 73.5186 42.0938 72.3936 42.625C71.2686 43.1562 69.8467 43.4219 68.1279 43.4219ZM68.1279 38.4062C68.8311 38.4062 69.3623 38.1953 69.7217 37.7734C70.0811 37.3359 70.3232 36.7344 70.4482 35.9688C70.5732 35.2031 70.6357 34.3203 70.6357 33.3203V17.5938C70.6357 16.5312 70.5654 15.6172 70.4248 14.8516C70.2842 14.0859 70.0342 13.4922 69.6748 13.0703C69.3154 12.6484 68.7998 12.4375 68.1279 12.4375C67.4248 12.4375 66.8857 12.6484 66.5107 13.0703C66.1514 13.4922 65.9014 14.0859 65.7607 14.8516C65.6357 15.6172 65.5732 16.5312 65.5732 17.5938V33.3203C65.5732 34.3203 65.6357 35.2031 65.7607 35.9688C65.9014 36.7344 66.1514 37.3359 66.5107 37.7734C66.8857 38.1953 67.4248 38.4062 68.1279 38.4062Z" fill="#D1DADB"/>
<path d="M82.5654 43V7.84375H88.8232V11.7578C89.2295 10.3984 89.9326 9.33594 90.9326 8.57031C91.9482 7.80469 93.2373 7.42188 94.7998 7.42188C94.8311 7.42188 94.8467 7.6875 94.8467 8.21875C94.8623 8.75 94.8701 9.35938 94.8701 10.0469C94.8701 10.7344 94.8701 11.3438 94.8701 11.875C94.8701 12.4062 94.8701 12.6719 94.8701 12.6719C94.1514 12.6719 93.3701 12.7578 92.5264 12.9297C91.6982 13.1016 90.9404 13.3672 90.2529 13.7266C89.5811 14.0703 89.1045 14.5312 88.8232 15.1094V43H82.5654Z" fill="#D1DADB"/>
<path d="M109.706 43V7.1875H104.878V1.75H120.604V7.1875H115.964V43H109.706Z" fill="#D1DADB"/>
<path d="M131.269 43.4219C129.581 43.4219 128.167 43.1641 127.026 42.6484C125.886 42.1172 124.979 41.3594 124.308 40.375C123.651 39.375 123.175 38.1641 122.878 36.7422C122.597 35.3047 122.456 33.6719 122.456 31.8438V18.6953C122.456 16.4922 122.737 14.5469 123.3 12.8594C123.878 11.1562 124.815 9.82812 126.112 8.875C127.409 7.90625 129.128 7.42188 131.269 7.42188C132.894 7.42188 134.261 7.69531 135.37 8.24219C136.495 8.78906 137.394 9.57031 138.065 10.5859C138.753 11.5859 139.253 12.7734 139.565 14.1484C139.878 15.5234 140.034 17.0391 140.034 18.6953V31.8438C140.034 33.6406 139.894 35.25 139.612 36.6719C139.347 38.0938 138.878 39.3125 138.206 40.3281C137.55 41.3281 136.659 42.0938 135.534 42.625C134.409 43.1562 132.987 43.4219 131.269 43.4219ZM131.269 38.4062C131.972 38.4062 132.503 38.1953 132.862 37.7734C133.222 37.3359 133.464 36.7344 133.589 35.9688C133.714 35.2031 133.776 34.3203 133.776 33.3203V17.5938C133.776 16.5312 133.706 15.6172 133.565 14.8516C133.425 14.0859 133.175 13.4922 132.815 13.0703C132.456 12.6484 131.94 12.4375 131.269 12.4375C130.565 12.4375 130.026 12.6484 129.651 13.0703C129.292 13.4922 129.042 14.0859 128.901 14.8516C128.776 15.6172 128.714 16.5312 128.714 17.5938V33.3203C128.714 34.3203 128.776 35.2031 128.901 35.9688C129.042 36.7344 129.292 37.3359 129.651 37.7734C130.026 38.1953 130.565 38.4062 131.269 38.4062Z" fill="#D1DADB"/>
<path d="M154.003 43.4219C152.315 43.4219 150.901 43.1641 149.761 42.6484C148.62 42.1172 147.714 41.3594 147.042 40.375C146.386 39.375 145.909 38.1641 145.612 36.7422C145.331 35.3047 145.19 33.6719 145.19 31.8438V18.6953C145.19 16.4922 145.472 14.5469 146.034 12.8594C146.612 11.1562 147.55 9.82812 148.847 8.875C150.144 7.90625 151.862 7.42188 154.003 7.42188C155.628 7.42188 156.995 7.69531 158.104 8.24219C159.229 8.78906 160.128 9.57031 160.8 10.5859C161.487 11.5859 161.987 12.7734 162.3 14.1484C162.612 15.5234 162.769 17.0391 162.769 18.6953V31.8438C162.769 33.6406 162.628 35.25 162.347 36.6719C162.081 38.0938 161.612 39.3125 160.94 40.3281C160.284 41.3281 159.394 42.0938 158.269 42.625C157.144 43.1562 155.722 43.4219 154.003 43.4219ZM154.003 38.4062C154.706 38.4062 155.237 38.1953 155.597 37.7734C155.956 37.3359 156.198 36.7344 156.323 35.9688C156.448 35.2031 156.511 34.3203 156.511 33.3203V17.5938C156.511 16.5312 156.44 15.6172 156.3 14.8516C156.159 14.0859 155.909 13.4922 155.55 13.0703C155.19 12.6484 154.675 12.4375 154.003 12.4375C153.3 12.4375 152.761 12.6484 152.386 13.0703C152.026 13.4922 151.776 14.0859 151.636 14.8516C151.511 15.6172 151.448 16.5312 151.448 17.5938V33.3203C151.448 34.3203 151.511 35.2031 151.636 35.9688C151.776 36.7344 152.026 37.3359 152.386 37.7734C152.761 38.1953 153.3 38.4062 154.003 38.4062Z" fill="#D1DADB"/>
<path d="M168.44 43V1.39844H174.628V43H168.44Z" fill="#D1DADB"/>
<path d="M188.175 43.4453C185.347 43.4453 183.245 42.6406 181.87 41.0312C180.495 39.4219 179.808 36.7891 179.808 33.1328V30.8594H185.644V33.6953C185.644 35.2266 185.831 36.3906 186.206 37.1875C186.581 37.9844 187.19 38.3828 188.034 38.3828C188.847 38.3828 189.448 38.1094 189.839 37.5625C190.229 37.0156 190.425 36.0703 190.425 34.7266C190.425 33.9453 190.308 33.1875 190.073 32.4531C189.854 31.7188 189.503 31 189.019 30.2969C188.55 29.5781 187.94 28.8828 187.19 28.2109L184.026 25.3516C182.573 24.0391 181.487 22.625 180.769 21.1094C180.05 19.5781 179.69 17.8906 179.69 16.0469C179.69 13.0625 180.386 10.8828 181.776 9.50781C183.183 8.11719 185.261 7.42188 188.011 7.42188C189.792 7.42188 191.269 7.75781 192.44 8.42969C193.612 9.08594 194.487 10.1562 195.065 11.6406C195.644 13.125 195.933 15.1172 195.933 17.6172V19.5391H190.378V17.2188C190.378 15.6719 190.198 14.5 189.839 13.7031C189.495 12.9062 188.901 12.5078 188.058 12.5078C187.229 12.5078 186.62 12.7422 186.229 13.2109C185.839 13.6641 185.628 14.4688 185.597 15.625C185.581 16.25 185.659 16.8672 185.831 17.4766C186.003 18.0703 186.269 18.6562 186.628 19.2344C187.003 19.7969 187.487 20.3516 188.081 20.8984L191.409 23.9219C193.159 25.5 194.448 27.1484 195.276 28.8672C196.12 30.5859 196.542 32.4453 196.542 34.4453C196.542 37.3984 195.87 39.6406 194.526 41.1719C193.183 42.6875 191.065 43.4453 188.175 43.4453Z" fill="#D1DADB"/>
</g>
<path d="M10.3545 43.4688C8.35449 43.4688 6.69043 43.0078 5.3623 42.0859C4.03418 41.1641 3.03418 39.8203 2.3623 38.0547C1.70605 36.2734 1.37793 34.125 1.37793 31.6094V13.6328C1.37793 11.7422 1.53418 10.0391 1.84668 8.52344C2.15918 7.00781 2.66699 5.71094 3.37012 4.63281C4.07324 3.55469 5.01074 2.72656 6.18262 2.14844C7.35449 1.57031 8.7998 1.28125 10.5186 1.28125C12.0811 1.28125 13.4092 1.53906 14.5029 2.05469C15.6123 2.55469 16.5107 3.28125 17.1982 4.23438C17.9014 5.1875 18.4092 6.34375 18.7217 7.70312C19.0498 9.04688 19.2139 10.5625 19.2139 12.25V17.9219H13.1436V12.6484C13.1436 10.6172 12.9717 9.125 12.6279 8.17188C12.2842 7.20312 11.5967 6.71875 10.5654 6.71875C9.4248 6.71875 8.65918 7.24219 8.26855 8.28906C7.89355 9.32031 7.70605 10.7656 7.70605 12.625V31.8906C7.70605 33.3281 7.78418 34.5078 7.94043 35.4297C8.1123 36.3359 8.39355 37.0078 8.78418 37.4453C9.1748 37.8672 9.72168 38.0781 10.4248 38.0781C11.4873 38.0781 12.2061 37.5781 12.5811 36.5781C12.9561 35.5781 13.1436 33.9922 13.1436 31.8203V25.9141H19.3076V31.75C19.3076 34.3594 19.0029 36.5391 18.3936 38.2891C17.7842 40.0234 16.8154 41.3203 15.4873 42.1797C14.1748 43.0391 12.4639 43.4688 10.3545 43.4688Z" stroke="#D9E6E7" stroke-width="2" mask="url(#path-1-outside-1_127_2788)"/>
<path d="M32.9248 43.4219C31.2373 43.4219 29.8232 43.1641 28.6826 42.6484C27.542 42.1172 26.6357 41.3594 25.9639 40.375C25.3076 39.375 24.8311 38.1641 24.5342 36.7422C24.2529 35.3047 24.1123 33.6719 24.1123 31.8438V18.6953C24.1123 16.4922 24.3936 14.5469 24.9561 12.8594C25.5342 11.1562 26.4717 9.82812 27.7686 8.875C29.0654 7.90625 30.7842 7.42188 32.9248 7.42188C34.5498 7.42188 35.917 7.69531 37.0264 8.24219C38.1514 8.78906 39.0498 9.57031 39.7217 10.5859C40.4092 11.5859 40.9092 12.7734 41.2217 14.1484C41.5342 15.5234 41.6904 17.0391 41.6904 18.6953V31.8438C41.6904 33.6406 41.5498 35.25 41.2686 36.6719C41.0029 38.0938 40.5342 39.3125 39.8623 40.3281C39.2061 41.3281 38.3154 42.0938 37.1904 42.625C36.0654 43.1562 34.6436 43.4219 32.9248 43.4219ZM32.9248 38.4062C33.6279 38.4062 34.1592 38.1953 34.5186 37.7734C34.8779 37.3359 35.1201 36.7344 35.2451 35.9688C35.3701 35.2031 35.4326 34.3203 35.4326 33.3203V17.5938C35.4326 16.5312 35.3623 15.6172 35.2217 14.8516C35.0811 14.0859 34.8311 13.4922 34.4717 13.0703C34.1123 12.6484 33.5967 12.4375 32.9248 12.4375C32.2217 12.4375 31.6826 12.6484 31.3076 13.0703C30.9482 13.4922 30.6982 14.0859 30.5576 14.8516C30.4326 15.6172 30.3701 16.5312 30.3701 17.5938V33.3203C30.3701 34.3203 30.4326 35.2031 30.5576 35.9688C30.6982 36.7344 30.9482 37.3359 31.3076 37.7734C31.6826 38.1953 32.2217 38.4062 32.9248 38.4062Z" stroke="#D9E6E7" stroke-width="2" mask="url(#path-1-outside-1_127_2788)"/>
<path d="M47.3623 43V1.39844H53.5498V43H47.3623Z" stroke="#D9E6E7" stroke-width="2" mask="url(#path-1-outside-1_127_2788)"/>
<path d="M68.1279 43.4219C66.4404 43.4219 65.0264 43.1641 63.8857 42.6484C62.7451 42.1172 61.8389 41.3594 61.167 40.375C60.5107 39.375 60.0342 38.1641 59.7373 36.7422C59.4561 35.3047 59.3154 33.6719 59.3154 31.8438V18.6953C59.3154 16.4922 59.5967 14.5469 60.1592 12.8594C60.7373 11.1562 61.6748 9.82812 62.9717 8.875C64.2686 7.90625 65.9873 7.42188 68.1279 7.42188C69.7529 7.42188 71.1201 7.69531 72.2295 8.24219C73.3545 8.78906 74.2529 9.57031 74.9248 10.5859C75.6123 11.5859 76.1123 12.7734 76.4248 14.1484C76.7373 15.5234 76.8936 17.0391 76.8936 18.6953V31.8438C76.8936 33.6406 76.7529 35.25 76.4717 36.6719C76.2061 38.0938 75.7373 39.3125 75.0654 40.3281C74.4092 41.3281 73.5186 42.0938 72.3936 42.625C71.2686 43.1562 69.8467 43.4219 68.1279 43.4219ZM68.1279 38.4062C68.8311 38.4062 69.3623 38.1953 69.7217 37.7734C70.0811 37.3359 70.3232 36.7344 70.4482 35.9688C70.5732 35.2031 70.6357 34.3203 70.6357 33.3203V17.5938C70.6357 16.5312 70.5654 15.6172 70.4248 14.8516C70.2842 14.0859 70.0342 13.4922 69.6748 13.0703C69.3154 12.6484 68.7998 12.4375 68.1279 12.4375C67.4248 12.4375 66.8857 12.6484 66.5107 13.0703C66.1514 13.4922 65.9014 14.0859 65.7607 14.8516C65.6357 15.6172 65.5732 16.5312 65.5732 17.5938V33.3203C65.5732 34.3203 65.6357 35.2031 65.7607 35.9688C65.9014 36.7344 66.1514 37.3359 66.5107 37.7734C66.8857 38.1953 67.4248 38.4062 68.1279 38.4062Z" stroke="#D9E6E7" stroke-width="2" mask="url(#path-1-outside-1_127_2788)"/>
<path d="M82.5654 43V7.84375H88.8232V11.7578C89.2295 10.3984 89.9326 9.33594 90.9326 8.57031C91.9482 7.80469 93.2373 7.42188 94.7998 7.42188C94.8311 7.42188 94.8467 7.6875 94.8467 8.21875C94.8623 8.75 94.8701 9.35938 94.8701 10.0469C94.8701 10.7344 94.8701 11.3438 94.8701 11.875C94.8701 12.4062 94.8701 12.6719 94.8701 12.6719C94.1514 12.6719 93.3701 12.7578 92.5264 12.9297C91.6982 13.1016 90.9404 13.3672 90.2529 13.7266C89.5811 14.0703 89.1045 14.5312 88.8232 15.1094V43H82.5654Z" stroke="#D9E6E7" stroke-width="2" mask="url(#path-1-outside-1_127_2788)"/>
<path d="M109.706 43V7.1875H104.878V1.75H120.604V7.1875H115.964V43H109.706Z" stroke="#D9E6E7" stroke-width="2" mask="url(#path-1-outside-1_127_2788)"/>
<path d="M131.269 43.4219C129.581 43.4219 128.167 43.1641 127.026 42.6484C125.886 42.1172 124.979 41.3594 124.308 40.375C123.651 39.375 123.175 38.1641 122.878 36.7422C122.597 35.3047 122.456 33.6719 122.456 31.8438V18.6953C122.456 16.4922 122.737 14.5469 123.3 12.8594C123.878 11.1562 124.815 9.82812 126.112 8.875C127.409 7.90625 129.128 7.42188 131.269 7.42188C132.894 7.42188 134.261 7.69531 135.37 8.24219C136.495 8.78906 137.394 9.57031 138.065 10.5859C138.753 11.5859 139.253 12.7734 139.565 14.1484C139.878 15.5234 140.034 17.0391 140.034 18.6953V31.8438C140.034 33.6406 139.894 35.25 139.612 36.6719C139.347 38.0938 138.878 39.3125 138.206 40.3281C137.55 41.3281 136.659 42.0938 135.534 42.625C134.409 43.1562 132.987 43.4219 131.269 43.4219ZM131.269 38.4062C131.972 38.4062 132.503 38.1953 132.862 37.7734C133.222 37.3359 133.464 36.7344 133.589 35.9688C133.714 35.2031 133.776 34.3203 133.776 33.3203V17.5938C133.776 16.5312 133.706 15.6172 133.565 14.8516C133.425 14.0859 133.175 13.4922 132.815 13.0703C132.456 12.6484 131.94 12.4375 131.269 12.4375C130.565 12.4375 130.026 12.6484 129.651 13.0703C129.292 13.4922 129.042 14.0859 128.901 14.8516C128.776 15.6172 128.714 16.5312 128.714 17.5938V33.3203C128.714 34.3203 128.776 35.2031 128.901 35.9688C129.042 36.7344 129.292 37.3359 129.651 37.7734C130.026 38.1953 130.565 38.4062 131.269 38.4062Z" stroke="#D9E6E7" stroke-width="2" mask="url(#path-1-outside-1_127_2788)"/>
<path d="M154.003 43.4219C152.315 43.4219 150.901 43.1641 149.761 42.6484C148.62 42.1172 147.714 41.3594 147.042 40.375C146.386 39.375 145.909 38.1641 145.612 36.7422C145.331 35.3047 145.19 33.6719 145.19 31.8438V18.6953C145.19 16.4922 145.472 14.5469 146.034 12.8594C146.612 11.1562 147.55 9.82812 148.847 8.875C150.144 7.90625 151.862 7.42188 154.003 7.42188C155.628 7.42188 156.995 7.69531 158.104 8.24219C159.229 8.78906 160.128 9.57031 160.8 10.5859C161.487 11.5859 161.987 12.7734 162.3 14.1484C162.612 15.5234 162.769 17.0391 162.769 18.6953V31.8438C162.769 33.6406 162.628 35.25 162.347 36.6719C162.081 38.0938 161.612 39.3125 160.94 40.3281C160.284 41.3281 159.394 42.0938 158.269 42.625C157.144 43.1562 155.722 43.4219 154.003 43.4219ZM154.003 38.4062C154.706 38.4062 155.237 38.1953 155.597 37.7734C155.956 37.3359 156.198 36.7344 156.323 35.9688C156.448 35.2031 156.511 34.3203 156.511 33.3203V17.5938C156.511 16.5312 156.44 15.6172 156.3 14.8516C156.159 14.0859 155.909 13.4922 155.55 13.0703C155.19 12.6484 154.675 12.4375 154.003 12.4375C153.3 12.4375 152.761 12.6484 152.386 13.0703C152.026 13.4922 151.776 14.0859 151.636 14.8516C151.511 15.6172 151.448 16.5312 151.448 17.5938V33.3203C151.448 34.3203 151.511 35.2031 151.636 35.9688C151.776 36.7344 152.026 37.3359 152.386 37.7734C152.761 38.1953 153.3 38.4062 154.003 38.4062Z" stroke="#D9E6E7" stroke-width="2" mask="url(#path-1-outside-1_127_2788)"/>
<path d="M168.44 43V1.39844H174.628V43H168.44Z" stroke="#D9E6E7" stroke-width="2" mask="url(#path-1-outside-1_127_2788)"/>
<path d="M188.175 43.4453C185.347 43.4453 183.245 42.6406 181.87 41.0312C180.495 39.4219 179.808 36.7891 179.808 33.1328V30.8594H185.644V33.6953C185.644 35.2266 185.831 36.3906 186.206 37.1875C186.581 37.9844 187.19 38.3828 188.034 38.3828C188.847 38.3828 189.448 38.1094 189.839 37.5625C190.229 37.0156 190.425 36.0703 190.425 34.7266C190.425 33.9453 190.308 33.1875 190.073 32.4531C189.854 31.7188 189.503 31 189.019 30.2969C188.55 29.5781 187.94 28.8828 187.19 28.2109L184.026 25.3516C182.573 24.0391 181.487 22.625 180.769 21.1094C180.05 19.5781 179.69 17.8906 179.69 16.0469C179.69 13.0625 180.386 10.8828 181.776 9.50781C183.183 8.11719 185.261 7.42188 188.011 7.42188C189.792 7.42188 191.269 7.75781 192.44 8.42969C193.612 9.08594 194.487 10.1562 195.065 11.6406C195.644 13.125 195.933 15.1172 195.933 17.6172V19.5391H190.378V17.2188C190.378 15.6719 190.198 14.5 189.839 13.7031C189.495 12.9062 188.901 12.5078 188.058 12.5078C187.229 12.5078 186.62 12.7422 186.229 13.2109C185.839 13.6641 185.628 14.4688 185.597 15.625C185.581 16.25 185.659 16.8672 185.831 17.4766C186.003 18.0703 186.269 18.6562 186.628 19.2344C187.003 19.7969 187.487 20.3516 188.081 20.8984L191.409 23.9219C193.159 25.5 194.448 27.1484 195.276 28.8672C196.12 30.5859 196.542 32.4453 196.542 34.4453C196.542 37.3984 195.87 39.6406 194.526 41.1719C193.183 42.6875 191.065 43.4453 188.175 43.4453Z" stroke="#D9E6E7" stroke-width="2" mask="url(#path-1-outside-1_127_2788)"/>
<defs>
<filter id="filter0_ii_127_2788" x="-0.62207" y="-0.71875" width="201.164" height="48.1875" filterUnits="userSpaceOnUse" color-interpolation-filters="sRGB">
<feFlood flood-opacity="0" result="BackgroundImageFix"/>
<feBlend mode="normal" in="SourceGraphic" in2="BackgroundImageFix" result="shape"/>
<feColorMatrix in="SourceAlpha" type="matrix" values="0 0 0 0 0 0 0 0 0 0 0 0 0 0 0 0 0 0 127 0" result="hardAlpha"/>
<feOffset dx="-1" dy="-1"/>
<feGaussianBlur stdDeviation="1.5"/>
<feComposite in2="hardAlpha" operator="arithmetic" k2="-1" k3="1"/>
<feColorMatrix type="matrix" values="0 0 0 0 0.984314 0 0 0 0 0.984314 0 0 0 0 0.984314 0 0 0 1 0"/>
<feBlend mode="normal" in2="shape" result="effect1_innerShadow_127_2788"/>
<feColorMatrix in="SourceAlpha" type="matrix" values="0 0 0 0 0 0 0 0 0 0 0 0 0 0 0 0 0 0 127 0" result="hardAlpha"/>
<feOffset dx="3" dy="3"/>
<feGaussianBlur stdDeviation="4.5"/>
<feComposite in2="hardAlpha" operator="arithmetic" k2="-1" k3="1"/>
<feColorMatrix type="matrix" values="0 0 0 0 0.772549 0 0 0 0 0.772549 0 0 0 0 0.772549 0 0 0 1 0"/>
<feBlend mode="normal" in2="effect1_innerShadow_127_2788" result="effect2_innerShadow_127_2788"/>
</filter>
</defs>
</svg>
