<svg width="85" height="84" viewBox="0 0 85 84" fill="none" xmlns="http://www.w3.org/2000/svg">
<g id="color_icon" filter="url(#filter0_ii_64_2151)">
<path d="M41.2079 0.0117014C39.4964 0.0600487 37.7334 0.250214 35.9703 0.514513H35.8704C18.7071 3.32188 4.80562 16.843 1.31494 33.9547C0.273863 38.8281 0.335104 43.3728 1.01519 47.8562C1.04097 47.8659 1.01519 47.9303 1.01519 47.9529C2.07238 55.5209 11.8933 58.8343 17.4339 53.2937C21.3984 49.3292 27.2646 49.3292 31.2323 53.2937C35.1967 57.2581 35.1967 63.1243 31.2323 67.092C25.6917 72.6326 29.0051 82.4535 36.5698 83.5107C36.5956 83.5107 36.66 83.4849 36.6697 83.5107C41.1177 84.1876 45.6365 84.2295 50.4713 83.2077H50.5712C67.7313 80.0104 81.2169 65.7834 84.0114 48.662V48.5588C87.6632 23.934 69.6587 2.42907 46.2393 0.211536C44.5671 0.0374544 42.8887 -0.0292935 41.2079 0.0117014ZM41.3078 6.45801C42.7525 6.40272 44.1992 6.43609 45.6398 6.55793C50.5002 7.00865 55.2169 8.44983 59.4992 10.7927C63.7815 13.1355 67.5387 16.3304 70.5394 20.1805C73.54 24.0306 75.7206 28.4543 76.9466 33.1791C78.1726 37.904 78.4182 42.8298 77.6682 47.6531C75.3153 62.0832 63.7442 74.2184 49.3657 76.8646H49.2658C45.3896 77.697 41.3922 77.7986 37.4787 77.1643C34.8357 76.8388 33.6142 73.8767 35.7705 71.7269C37.2792 70.2194 38.476 68.4294 39.2926 66.4592C40.1092 64.489 40.5295 62.3771 40.5295 60.2444C40.5295 58.1116 40.1092 55.9998 39.2926 54.0296C38.476 52.0593 37.2792 50.2693 35.7705 48.7619C34.263 47.2527 32.4728 46.0554 30.5022 45.2386C28.5317 44.4217 26.4195 44.0012 24.2864 44.0012C22.1532 44.0012 20.041 44.4217 18.0705 45.2386C16.1 46.0554 14.3098 47.2527 12.8023 48.7619C10.6492 50.915 7.69034 49.6934 7.3648 47.0472C6.73091 43.1348 6.83256 39.1385 7.66456 35.2633C10.6234 20.7978 22.4459 9.2138 36.876 6.8609C38.3877 6.63528 39.8477 6.50636 41.3078 6.45801ZM36.0702 13.0042C34.3605 13.0042 32.7209 13.6834 31.512 14.8923C30.3031 16.1012 29.6239 17.7409 29.6239 19.4505C29.6239 21.1602 30.3031 22.7999 31.512 24.0088C32.7209 25.2177 34.3605 25.8969 36.0702 25.8969C37.7799 25.8969 39.4195 25.2177 40.6284 24.0088C41.8374 22.7999 42.5165 21.1602 42.5165 19.4505C42.5165 17.7409 41.8374 16.1012 40.6284 14.8923C39.4195 13.6834 37.7799 13.0042 36.0702 13.0042ZM58.6323 19.4505C56.9226 19.4505 55.283 20.1297 54.0741 21.3386C52.8652 22.5475 52.186 24.1872 52.186 25.8969C52.186 27.6065 52.8652 29.2462 54.0741 30.4551C55.283 31.664 56.9226 32.3432 58.6323 32.3432C60.342 32.3432 61.9816 31.664 63.1905 30.4551C64.3994 29.2462 65.0786 27.6065 65.0786 25.8969C65.0786 24.1872 64.3994 22.5475 63.1905 21.3386C61.9816 20.1297 60.342 19.4505 58.6323 19.4505ZM19.9544 25.8969C18.2448 25.8969 16.6051 26.576 15.3962 27.7849C14.1873 28.9938 13.5081 30.6335 13.5081 32.3432C13.5081 34.0528 14.1873 35.6925 15.3962 36.9014C16.6051 38.1103 18.2448 38.7895 19.9544 38.7895C21.6641 38.7895 23.3038 38.1103 24.5127 36.9014C25.7216 35.6925 26.4008 34.0528 26.4008 32.3432C26.4008 30.6335 25.7216 28.9938 24.5127 27.7849C23.3038 26.576 21.6641 25.8969 19.9544 25.8969ZM65.0786 42.0126C63.3689 42.0126 61.7293 42.6918 60.5204 43.9007C59.3115 45.1096 58.6323 46.7493 58.6323 48.4589C58.6323 50.1686 59.3115 51.8082 60.5204 53.0172C61.7293 54.2261 63.3689 54.9052 65.0786 54.9052C66.7883 54.9052 68.4279 54.2261 69.6368 53.0172C70.8457 51.8082 71.5249 50.1686 71.5249 48.4589C71.5249 46.7493 70.8457 45.1096 69.6368 43.9007C68.4279 42.6918 66.7883 42.0126 65.0786 42.0126ZM52.186 58.1284C50.4763 58.1284 48.8367 58.8076 47.6278 60.0165C46.4188 61.2254 45.7397 62.865 45.7397 64.5747C45.7397 66.2844 46.4188 67.924 47.6278 69.1329C48.8367 70.3418 50.4763 71.021 52.186 71.021C53.8956 71.021 55.5353 70.3418 56.7442 69.1329C57.9531 67.924 58.6323 66.2844 58.6323 64.5747C58.6323 62.865 57.9531 61.2254 56.7442 60.0165C55.5353 58.8076 53.8956 58.1284 52.186 58.1284Z" fill="#E0E0E0"/>
</g>
<defs>
<filter id="filter0_ii_64_2151" x="-0.48349" y="-1" width="85.967" height="86" filterUnits="userSpaceOnUse" color-interpolation-filters="sRGB">
<feFlood flood-opacity="0" result="BackgroundImageFix"/>
<feBlend mode="normal" in="SourceGraphic" in2="BackgroundImageFix" result="shape"/>
<feColorMatrix in="SourceAlpha" type="matrix" values="0 0 0 0 0 0 0 0 0 0 0 0 0 0 0 0 0 0 127 0" result="hardAlpha"/>
<feOffset dx="-1" dy="-1"/>
<feGaussianBlur stdDeviation="1.5"/>
<feComposite in2="hardAlpha" operator="arithmetic" k2="-1" k3="1"/>
<feColorMatrix type="matrix" values="0 0 0 0 0.984314 0 0 0 0 0.984314 0 0 0 0 0.984314 0 0 0 1 0"/>
<feBlend mode="normal" in2="shape" result="effect1_innerShadow_64_2151"/>
<feColorMatrix in="SourceAlpha" type="matrix" values="0 0 0 0 0 0 0 0 0 0 0 0 0 0 0 0 0 0 127 0" result="hardAlpha"/>
<feOffset dx="1" dy="1"/>
<feGaussianBlur stdDeviation="1.5"/>
<feComposite in2="hardAlpha" operator="arithmetic" k2="-1" k3="1"/>
<feColorMatrix type="matrix" values="0 0 0 0 0.772549 0 0 0 0 0.772549 0 0 0 0 0.772549 0 0 0 1 0"/>
<feBlend mode="normal" in2="effect1_innerShadow_64_2151" result="effect2_innerShadow_64_2151"/>
</filter>
</defs>
</svg>
