<svg width="383" height="53" viewBox="0 0 383 53" fill="none" xmlns="http://www.w3.org/2000/svg">
<mask id="path-1-outside-1_127_2794" maskUnits="userSpaceOnUse" x="0.12793" y="0.21875" width="383" height="52" fill="black">
<rect fill="white" x="0.12793" y="0.21875" width="383" height="52"/>
<path d="M1.12793 45V3.75H10.3857C12.4795 3.75 14.1592 4.17188 15.4248 5.01562C16.6904 5.84375 17.6045 7.04688 18.167 8.625C18.7451 10.2031 19.0342 12.1094 19.0342 14.3438L19.0576 32.9531C19.0576 35.6562 18.7607 37.9062 18.167 39.7031C17.5889 41.4844 16.6514 42.8125 15.3545 43.6875C14.0576 44.5625 12.3311 45 10.1748 45H1.12793ZM7.40918 40.125H9.47168C10.2061 40.125 10.8154 39.9766 11.2998 39.6797C11.7998 39.3828 12.167 38.8594 12.4014 38.1094C12.6514 37.3438 12.7764 36.2656 12.7764 34.875L12.7529 14.5078C12.7529 12.3984 12.4951 10.8828 11.9795 9.96094C11.4639 9.03906 10.5576 8.57812 9.26074 8.57812H7.40918V40.125Z"/>
<path d="M32.9326 45.4219C31.167 45.4219 29.7139 45.1406 28.5732 44.5781C27.4482 44.0156 26.5654 43.2031 25.9248 42.1406C25.2998 41.0781 24.8623 39.8047 24.6123 38.3203C24.3623 36.8203 24.2373 35.1484 24.2373 33.3047V20.2031C24.2373 18.5625 24.4014 17.0781 24.7295 15.75C25.0732 14.4219 25.5967 13.2891 26.2998 12.3516C27.0186 11.4141 27.9482 10.6953 29.0889 10.1953C30.2295 9.67969 31.6045 9.42188 33.2139 9.42188C34.8545 9.42188 36.2217 9.67188 37.3154 10.1719C38.4092 10.6719 39.2686 11.3984 39.8936 12.3516C40.5342 13.3047 40.9873 14.4531 41.2529 15.7969C41.5342 17.125 41.6748 18.6328 41.6748 20.3203V27.8438H30.4951V34.7578C30.4951 36.4609 30.6279 37.8281 30.8936 38.8594C31.1592 39.8906 31.8857 40.4062 33.0732 40.4062C33.8701 40.4062 34.4326 40.1641 34.7607 39.6797C35.1045 39.1953 35.3076 38.5312 35.3701 37.6875C35.4482 36.8281 35.4873 35.8516 35.4873 34.7578V31.6641H41.6279V33.5391C41.6279 35.4297 41.5107 37.1094 41.2764 38.5781C41.0576 40.0469 40.6357 41.2891 40.0107 42.3047C39.4014 43.3203 38.5264 44.0938 37.3857 44.625C36.2451 45.1562 34.7607 45.4219 32.9326 45.4219ZM30.4717 24.2109H35.4873V19.7109C35.4873 18.5391 35.4326 17.5547 35.3232 16.7578C35.2139 15.9453 34.9951 15.3359 34.667 14.9297C34.3389 14.5234 33.8389 14.3203 33.167 14.3203C32.3389 14.3203 31.7295 14.5625 31.3389 15.0469C30.9639 15.5312 30.7217 16.1953 30.6123 17.0391C30.5186 17.8672 30.4717 18.8125 30.4717 19.875V24.2109Z"/>
<path d="M50.0186 45L44.9326 9.84375H50.792L53.0654 28.5469L53.8389 36.9609H54.3076L54.9639 28.5234L56.9092 9.84375H62.7217L57.6357 45H50.0186Z"/>
<path d="M83.9795 45.4688C81.9795 45.4688 80.3154 45.0078 78.9873 44.0859C77.6592 43.1641 76.6592 41.8203 75.9873 40.0547C75.3311 38.2734 75.0029 36.125 75.0029 33.6094V15.6328C75.0029 13.7422 75.1592 12.0391 75.4717 10.5234C75.7842 9.00781 76.292 7.71094 76.9951 6.63281C77.6982 5.55469 78.6357 4.72656 79.8076 4.14844C80.9795 3.57031 82.4248 3.28125 84.1436 3.28125C85.7061 3.28125 87.0342 3.53906 88.1279 4.05469C89.2373 4.55469 90.1357 5.28125 90.8232 6.23438C91.5264 7.1875 92.0342 8.34375 92.3467 9.70312C92.6748 11.0469 92.8389 12.5625 92.8389 14.25V19.9219H86.7686V14.6484C86.7686 12.6172 86.5967 11.125 86.2529 10.1719C85.9092 9.20312 85.2217 8.71875 84.1904 8.71875C83.0498 8.71875 82.2842 9.24219 81.8936 10.2891C81.5186 11.3203 81.3311 12.7656 81.3311 14.625V33.8906C81.3311 35.3281 81.4092 36.5078 81.5654 37.4297C81.7373 38.3359 82.0186 39.0078 82.4092 39.4453C82.7998 39.8672 83.3467 40.0781 84.0498 40.0781C85.1123 40.0781 85.8311 39.5781 86.2061 38.5781C86.5811 37.5781 86.7686 35.9922 86.7686 33.8203V27.9141H92.9326V33.75C92.9326 36.3594 92.6279 38.5391 92.0186 40.2891C91.4092 42.0234 90.4404 43.3203 89.1123 44.1797C87.7998 45.0391 86.0889 45.4688 83.9795 45.4688Z"/>
<path d="M106.55 45.4219C104.862 45.4219 103.448 45.1641 102.308 44.6484C101.167 44.1172 100.261 43.3594 99.5889 42.375C98.9326 41.375 98.4561 40.1641 98.1592 38.7422C97.8779 37.3047 97.7373 35.6719 97.7373 33.8438V20.6953C97.7373 18.4922 98.0186 16.5469 98.5811 14.8594C99.1592 13.1562 100.097 11.8281 101.394 10.875C102.69 9.90625 104.409 9.42188 106.55 9.42188C108.175 9.42188 109.542 9.69531 110.651 10.2422C111.776 10.7891 112.675 11.5703 113.347 12.5859C114.034 13.5859 114.534 14.7734 114.847 16.1484C115.159 17.5234 115.315 19.0391 115.315 20.6953V33.8438C115.315 35.6406 115.175 37.25 114.894 38.6719C114.628 40.0938 114.159 41.3125 113.487 42.3281C112.831 43.3281 111.94 44.0938 110.815 44.625C109.69 45.1562 108.269 45.4219 106.55 45.4219ZM106.55 40.4062C107.253 40.4062 107.784 40.1953 108.144 39.7734C108.503 39.3359 108.745 38.7344 108.87 37.9688C108.995 37.2031 109.058 36.3203 109.058 35.3203V19.5938C109.058 18.5312 108.987 17.6172 108.847 16.8516C108.706 16.0859 108.456 15.4922 108.097 15.0703C107.737 14.6484 107.222 14.4375 106.55 14.4375C105.847 14.4375 105.308 14.6484 104.933 15.0703C104.573 15.4922 104.323 16.0859 104.183 16.8516C104.058 17.6172 103.995 18.5312 103.995 19.5938V35.3203C103.995 36.3203 104.058 37.2031 104.183 37.9688C104.323 38.7344 104.573 39.3359 104.933 39.7734C105.308 40.1953 105.847 40.4062 106.55 40.4062Z"/>
<path d="M120.964 45V9.84375H127.175V13.6641C127.519 12.4141 128.144 11.3984 129.05 10.6172C129.972 9.82031 131.222 9.42188 132.8 9.42188C134.003 9.42188 135.05 9.6875 135.94 10.2188C136.831 10.75 137.519 11.6641 138.003 12.9609C138.597 11.8672 139.378 11.0078 140.347 10.3828C141.315 9.74219 142.526 9.42188 143.979 9.42188C146.261 9.42188 147.878 10.1875 148.831 11.7188C149.784 13.25 150.261 15.3672 150.261 18.0703V45H144.073V18C144.073 16.75 143.862 15.8594 143.44 15.3281C143.019 14.7812 142.44 14.5078 141.706 14.5078C140.769 14.5078 140.034 14.8359 139.503 15.4922C138.987 16.1328 138.729 17.0781 138.729 18.3281V45H132.519V17.9531C132.519 16.9062 132.339 16.0703 131.979 15.4453C131.636 14.8203 131.05 14.5078 130.222 14.5078C129.144 14.5078 128.362 14.9219 127.878 15.75C127.409 16.5625 127.175 17.5312 127.175 18.6562V45H120.964Z"/>
<path d="M156.214 45V9.84375H162.425V13.6641C162.769 12.4141 163.394 11.3984 164.3 10.6172C165.222 9.82031 166.472 9.42188 168.05 9.42188C169.253 9.42188 170.3 9.6875 171.19 10.2188C172.081 10.75 172.769 11.6641 173.253 12.9609C173.847 11.8672 174.628 11.0078 175.597 10.3828C176.565 9.74219 177.776 9.42188 179.229 9.42188C181.511 9.42188 183.128 10.1875 184.081 11.7188C185.034 13.25 185.511 15.3672 185.511 18.0703V45H179.323V18C179.323 16.75 179.112 15.8594 178.69 15.3281C178.269 14.7812 177.69 14.5078 176.956 14.5078C176.019 14.5078 175.284 14.8359 174.753 15.4922C174.237 16.1328 173.979 17.0781 173.979 18.3281V45H167.769V17.9531C167.769 16.9062 167.589 16.0703 167.229 15.4453C166.886 14.8203 166.3 14.5078 165.472 14.5078C164.394 14.5078 163.612 14.9219 163.128 15.75C162.659 16.5625 162.425 17.5312 162.425 18.6562V45H156.214Z"/>
<path d="M197.511 45.4453C196.12 45.4453 194.956 45.1328 194.019 44.5078C193.097 43.8828 192.401 42.9531 191.933 41.7188C191.479 40.4688 191.253 38.9062 191.253 37.0312V9.84375H197.487V36.0703C197.487 37.4141 197.651 38.4609 197.979 39.2109C198.308 39.9609 198.995 40.3359 200.042 40.3359C201.136 40.3359 201.878 39.9141 202.269 39.0703C202.675 38.2109 202.878 37.2266 202.878 36.1172L202.901 9.84375H209.089V45H202.878V41.3438C202.44 42.5312 201.808 43.5156 200.979 44.2969C200.151 45.0625 198.995 45.4453 197.511 45.4453Z"/>
<path d="M215.136 45V9.84375H221.347V13.875C221.659 12.6719 222.315 11.6328 223.315 10.7578C224.315 9.86719 225.542 9.42188 226.995 9.42188C229.026 9.42188 230.55 10.1016 231.565 11.4609C232.581 12.8047 233.089 14.7578 233.089 17.3203V45H226.878V17.6953C226.878 16.6797 226.644 15.8828 226.175 15.3047C225.722 14.7266 225.097 14.4375 224.3 14.4375C223.659 14.4375 223.112 14.6172 222.659 14.9766C222.222 15.3203 221.894 15.8047 221.675 16.4297C221.456 17.0391 221.347 17.7578 221.347 18.5859V45H215.136Z"/>
<path d="M239.159 45V9.84375H245.37V45H239.159ZM239.136 6.60938V1.21875H245.394V6.60938H239.136Z"/>
<path d="M258.003 45.2344C256.503 45.2344 255.354 45.0469 254.558 44.6719C253.761 44.2812 253.214 43.6719 252.917 42.8438C252.62 42.0156 252.472 40.9453 252.472 39.6328V15.0703H249.612V10.5703H252.472V3.75H258.683V10.5703H262.104V15.0703H258.683V38.5547C258.683 39.1016 258.769 39.5156 258.94 39.7969C259.112 40.0781 259.448 40.2656 259.948 40.3594C260.464 40.4531 261.222 40.5 262.222 40.5V45.2344H258.003Z"/>
<path d="M265.62 51.2109V46.9219H267.659C268.347 46.9219 268.925 46.8594 269.394 46.7344C269.862 46.625 270.128 46.375 270.19 45.9844C270.3 45.7812 270.339 45.4219 270.308 44.9062C270.276 44.375 270.229 43.875 270.167 43.4062L264.542 9.84375H270.448L272.698 27.8203L273.636 37.2891H274.151L274.995 27.8203L277.058 9.84375H282.94L276.847 46.5C276.675 47.6094 276.433 48.5078 276.12 49.1953C275.823 49.8984 275.37 50.4062 274.761 50.7188C274.151 51.0469 273.308 51.2109 272.229 51.2109H265.62Z"/>
<path d="M302.933 45.4688C301.214 45.4688 299.776 45.2031 298.62 44.6719C297.479 44.125 296.573 43.3359 295.901 42.3047C295.245 41.2578 294.776 39.9922 294.495 38.5078C294.214 37.0078 294.073 35.3047 294.073 33.3984V29.7188H300.026V33.8672C300.026 36.0859 300.214 37.6797 300.589 38.6484C300.964 39.6172 301.706 40.1016 302.815 40.1016C303.565 40.1016 304.128 39.9297 304.503 39.5859C304.894 39.2266 305.151 38.6641 305.276 37.8984C305.417 37.1172 305.487 36.1016 305.487 34.8516C305.487 33.3047 305.159 31.8906 304.503 30.6094C303.862 29.3281 302.886 28 301.573 26.625L298.526 23.4844C297.683 22.6094 296.917 21.6797 296.229 20.6953C295.558 19.7109 295.019 18.6172 294.612 17.4141C294.222 16.1953 294.026 14.8359 294.026 13.3359C294.026 11.1641 294.292 9.32812 294.823 7.82812C295.354 6.32812 296.253 5.19531 297.519 4.42969C298.784 3.64844 300.519 3.25781 302.722 3.25781C304.378 3.25781 305.737 3.51562 306.8 4.03125C307.878 4.53125 308.714 5.27344 309.308 6.25781C309.917 7.22656 310.347 8.41406 310.597 9.82031C310.847 11.2109 310.972 12.8047 310.972 14.6016V17.1562H305.183V14.2031C305.183 12.9531 305.112 11.9141 304.972 11.0859C304.847 10.2578 304.604 9.64062 304.245 9.23438C303.886 8.8125 303.362 8.60156 302.675 8.60156C302.019 8.60156 301.487 8.75 301.081 9.04688C300.675 9.32812 300.378 9.77344 300.19 10.3828C300.019 10.9766 299.933 11.75 299.933 12.7031C299.933 13.5625 300.042 14.3047 300.261 14.9297C300.479 15.5547 300.815 16.1562 301.269 16.7344C301.722 17.3125 302.284 17.9609 302.956 18.6797L306.354 22.3594C307.979 24.1094 309.245 25.9297 310.151 27.8203C311.058 29.7109 311.511 31.8203 311.511 34.1484C311.511 36.6172 311.245 38.6953 310.714 40.3828C310.183 42.0547 309.292 43.3203 308.042 44.1797C306.792 45.0391 305.089 45.4688 302.933 45.4688Z"/>
<path d="M316.034 45V9.84375H322.245V45H316.034ZM316.011 6.60938V1.21875H322.269V6.60938H316.011Z"/>
<path d="M334.878 45.2344C333.378 45.2344 332.229 45.0469 331.433 44.6719C330.636 44.2812 330.089 43.6719 329.792 42.8438C329.495 42.0156 329.347 40.9453 329.347 39.6328V15.0703H326.487V10.5703H329.347V3.75H335.558V10.5703H338.979V15.0703H335.558V38.5547C335.558 39.1016 335.644 39.5156 335.815 39.7969C335.987 40.0781 336.323 40.2656 336.823 40.3594C337.339 40.4531 338.097 40.5 339.097 40.5V45.2344H334.878Z"/>
<path d="M351.683 45.4219C349.917 45.4219 348.464 45.1406 347.323 44.5781C346.198 44.0156 345.315 43.2031 344.675 42.1406C344.05 41.0781 343.612 39.8047 343.362 38.3203C343.112 36.8203 342.987 35.1484 342.987 33.3047V20.2031C342.987 18.5625 343.151 17.0781 343.479 15.75C343.823 14.4219 344.347 13.2891 345.05 12.3516C345.769 11.4141 346.698 10.6953 347.839 10.1953C348.979 9.67969 350.354 9.42188 351.964 9.42188C353.604 9.42188 354.972 9.67188 356.065 10.1719C357.159 10.6719 358.019 11.3984 358.644 12.3516C359.284 13.3047 359.737 14.4531 360.003 15.7969C360.284 17.125 360.425 18.6328 360.425 20.3203V27.8438H349.245V34.7578C349.245 36.4609 349.378 37.8281 349.644 38.8594C349.909 39.8906 350.636 40.4062 351.823 40.4062C352.62 40.4062 353.183 40.1641 353.511 39.6797C353.854 39.1953 354.058 38.5312 354.12 37.6875C354.198 36.8281 354.237 35.8516 354.237 34.7578V31.6641H360.378V33.5391C360.378 35.4297 360.261 37.1094 360.026 38.5781C359.808 40.0469 359.386 41.2891 358.761 42.3047C358.151 43.3203 357.276 44.0938 356.136 44.625C354.995 45.1562 353.511 45.4219 351.683 45.4219ZM349.222 24.2109H354.237V19.7109C354.237 18.5391 354.183 17.5547 354.073 16.7578C353.964 15.9453 353.745 15.3359 353.417 14.9297C353.089 14.5234 352.589 14.3203 351.917 14.3203C351.089 14.3203 350.479 14.5625 350.089 15.0469C349.714 15.5312 349.472 16.1953 349.362 17.0391C349.269 17.8672 349.222 18.8125 349.222 19.875V24.2109Z"/>
<path d="M372.94 45.4453C370.112 45.4453 368.011 44.6406 366.636 43.0312C365.261 41.4219 364.573 38.7891 364.573 35.1328V32.8594H370.409V35.6953C370.409 37.2266 370.597 38.3906 370.972 39.1875C371.347 39.9844 371.956 40.3828 372.8 40.3828C373.612 40.3828 374.214 40.1094 374.604 39.5625C374.995 39.0156 375.19 38.0703 375.19 36.7266C375.19 35.9453 375.073 35.1875 374.839 34.4531C374.62 33.7188 374.269 33 373.784 32.2969C373.315 31.5781 372.706 30.8828 371.956 30.2109L368.792 27.3516C367.339 26.0391 366.253 24.625 365.534 23.1094C364.815 21.5781 364.456 19.8906 364.456 18.0469C364.456 15.0625 365.151 12.8828 366.542 11.5078C367.948 10.1172 370.026 9.42188 372.776 9.42188C374.558 9.42188 376.034 9.75781 377.206 10.4297C378.378 11.0859 379.253 12.1562 379.831 13.6406C380.409 15.125 380.698 17.1172 380.698 19.6172V21.5391H375.144V19.2188C375.144 17.6719 374.964 16.5 374.604 15.7031C374.261 14.9062 373.667 14.5078 372.823 14.5078C371.995 14.5078 371.386 14.7422 370.995 15.2109C370.604 15.6641 370.394 16.4688 370.362 17.625C370.347 18.25 370.425 18.8672 370.597 19.4766C370.769 20.0703 371.034 20.6562 371.394 21.2344C371.769 21.7969 372.253 22.3516 372.847 22.8984L376.175 25.9219C377.925 27.5 379.214 29.1484 380.042 30.8672C380.886 32.5859 381.308 34.4453 381.308 36.4453C381.308 39.3984 380.636 41.6406 379.292 43.1719C377.948 44.6875 375.831 45.4453 372.94 45.4453Z"/>
</mask>
<g filter="url(#filter0_ii_127_2794)">
<path d="M1.12793 45V3.75H10.3857C12.4795 3.75 14.1592 4.17188 15.4248 5.01562C16.6904 5.84375 17.6045 7.04688 18.167 8.625C18.7451 10.2031 19.0342 12.1094 19.0342 14.3438L19.0576 32.9531C19.0576 35.6562 18.7607 37.9062 18.167 39.7031C17.5889 41.4844 16.6514 42.8125 15.3545 43.6875C14.0576 44.5625 12.3311 45 10.1748 45H1.12793ZM7.40918 40.125H9.47168C10.2061 40.125 10.8154 39.9766 11.2998 39.6797C11.7998 39.3828 12.167 38.8594 12.4014 38.1094C12.6514 37.3438 12.7764 36.2656 12.7764 34.875L12.7529 14.5078C12.7529 12.3984 12.4951 10.8828 11.9795 9.96094C11.4639 9.03906 10.5576 8.57812 9.26074 8.57812H7.40918V40.125Z" fill="#D1DADB"/>
<path d="M32.9326 45.4219C31.167 45.4219 29.7139 45.1406 28.5732 44.5781C27.4482 44.0156 26.5654 43.2031 25.9248 42.1406C25.2998 41.0781 24.8623 39.8047 24.6123 38.3203C24.3623 36.8203 24.2373 35.1484 24.2373 33.3047V20.2031C24.2373 18.5625 24.4014 17.0781 24.7295 15.75C25.0732 14.4219 25.5967 13.2891 26.2998 12.3516C27.0186 11.4141 27.9482 10.6953 29.0889 10.1953C30.2295 9.67969 31.6045 9.42188 33.2139 9.42188C34.8545 9.42188 36.2217 9.67188 37.3154 10.1719C38.4092 10.6719 39.2686 11.3984 39.8936 12.3516C40.5342 13.3047 40.9873 14.4531 41.2529 15.7969C41.5342 17.125 41.6748 18.6328 41.6748 20.3203V27.8438H30.4951V34.7578C30.4951 36.4609 30.6279 37.8281 30.8936 38.8594C31.1592 39.8906 31.8857 40.4062 33.0732 40.4062C33.8701 40.4062 34.4326 40.1641 34.7607 39.6797C35.1045 39.1953 35.3076 38.5312 35.3701 37.6875C35.4482 36.8281 35.4873 35.8516 35.4873 34.7578V31.6641H41.6279V33.5391C41.6279 35.4297 41.5107 37.1094 41.2764 38.5781C41.0576 40.0469 40.6357 41.2891 40.0107 42.3047C39.4014 43.3203 38.5264 44.0938 37.3857 44.625C36.2451 45.1562 34.7607 45.4219 32.9326 45.4219ZM30.4717 24.2109H35.4873V19.7109C35.4873 18.5391 35.4326 17.5547 35.3232 16.7578C35.2139 15.9453 34.9951 15.3359 34.667 14.9297C34.3389 14.5234 33.8389 14.3203 33.167 14.3203C32.3389 14.3203 31.7295 14.5625 31.3389 15.0469C30.9639 15.5312 30.7217 16.1953 30.6123 17.0391C30.5186 17.8672 30.4717 18.8125 30.4717 19.875V24.2109Z" fill="#D1DADB"/>
<path d="M50.0186 45L44.9326 9.84375H50.792L53.0654 28.5469L53.8389 36.9609H54.3076L54.9639 28.5234L56.9092 9.84375H62.7217L57.6357 45H50.0186Z" fill="#D1DADB"/>
<path d="M83.9795 45.4688C81.9795 45.4688 80.3154 45.0078 78.9873 44.0859C77.6592 43.1641 76.6592 41.8203 75.9873 40.0547C75.3311 38.2734 75.0029 36.125 75.0029 33.6094V15.6328C75.0029 13.7422 75.1592 12.0391 75.4717 10.5234C75.7842 9.00781 76.292 7.71094 76.9951 6.63281C77.6982 5.55469 78.6357 4.72656 79.8076 4.14844C80.9795 3.57031 82.4248 3.28125 84.1436 3.28125C85.7061 3.28125 87.0342 3.53906 88.1279 4.05469C89.2373 4.55469 90.1357 5.28125 90.8232 6.23438C91.5264 7.1875 92.0342 8.34375 92.3467 9.70312C92.6748 11.0469 92.8389 12.5625 92.8389 14.25V19.9219H86.7686V14.6484C86.7686 12.6172 86.5967 11.125 86.2529 10.1719C85.9092 9.20312 85.2217 8.71875 84.1904 8.71875C83.0498 8.71875 82.2842 9.24219 81.8936 10.2891C81.5186 11.3203 81.3311 12.7656 81.3311 14.625V33.8906C81.3311 35.3281 81.4092 36.5078 81.5654 37.4297C81.7373 38.3359 82.0186 39.0078 82.4092 39.4453C82.7998 39.8672 83.3467 40.0781 84.0498 40.0781C85.1123 40.0781 85.8311 39.5781 86.2061 38.5781C86.5811 37.5781 86.7686 35.9922 86.7686 33.8203V27.9141H92.9326V33.75C92.9326 36.3594 92.6279 38.5391 92.0186 40.2891C91.4092 42.0234 90.4404 43.3203 89.1123 44.1797C87.7998 45.0391 86.0889 45.4688 83.9795 45.4688Z" fill="#D1DADB"/>
<path d="M106.55 45.4219C104.862 45.4219 103.448 45.1641 102.308 44.6484C101.167 44.1172 100.261 43.3594 99.5889 42.375C98.9326 41.375 98.4561 40.1641 98.1592 38.7422C97.8779 37.3047 97.7373 35.6719 97.7373 33.8438V20.6953C97.7373 18.4922 98.0186 16.5469 98.5811 14.8594C99.1592 13.1562 100.097 11.8281 101.394 10.875C102.69 9.90625 104.409 9.42188 106.55 9.42188C108.175 9.42188 109.542 9.69531 110.651 10.2422C111.776 10.7891 112.675 11.5703 113.347 12.5859C114.034 13.5859 114.534 14.7734 114.847 16.1484C115.159 17.5234 115.315 19.0391 115.315 20.6953V33.8438C115.315 35.6406 115.175 37.25 114.894 38.6719C114.628 40.0938 114.159 41.3125 113.487 42.3281C112.831 43.3281 111.94 44.0938 110.815 44.625C109.69 45.1562 108.269 45.4219 106.55 45.4219ZM106.55 40.4062C107.253 40.4062 107.784 40.1953 108.144 39.7734C108.503 39.3359 108.745 38.7344 108.87 37.9688C108.995 37.2031 109.058 36.3203 109.058 35.3203V19.5938C109.058 18.5312 108.987 17.6172 108.847 16.8516C108.706 16.0859 108.456 15.4922 108.097 15.0703C107.737 14.6484 107.222 14.4375 106.55 14.4375C105.847 14.4375 105.308 14.6484 104.933 15.0703C104.573 15.4922 104.323 16.0859 104.183 16.8516C104.058 17.6172 103.995 18.5312 103.995 19.5938V35.3203C103.995 36.3203 104.058 37.2031 104.183 37.9688C104.323 38.7344 104.573 39.3359 104.933 39.7734C105.308 40.1953 105.847 40.4062 106.55 40.4062Z" fill="#D1DADB"/>
<path d="M120.964 45V9.84375H127.175V13.6641C127.519 12.4141 128.144 11.3984 129.05 10.6172C129.972 9.82031 131.222 9.42188 132.8 9.42188C134.003 9.42188 135.05 9.6875 135.94 10.2188C136.831 10.75 137.519 11.6641 138.003 12.9609C138.597 11.8672 139.378 11.0078 140.347 10.3828C141.315 9.74219 142.526 9.42188 143.979 9.42188C146.261 9.42188 147.878 10.1875 148.831 11.7188C149.784 13.25 150.261 15.3672 150.261 18.0703V45H144.073V18C144.073 16.75 143.862 15.8594 143.44 15.3281C143.019 14.7812 142.44 14.5078 141.706 14.5078C140.769 14.5078 140.034 14.8359 139.503 15.4922C138.987 16.1328 138.729 17.0781 138.729 18.3281V45H132.519V17.9531C132.519 16.9062 132.339 16.0703 131.979 15.4453C131.636 14.8203 131.05 14.5078 130.222 14.5078C129.144 14.5078 128.362 14.9219 127.878 15.75C127.409 16.5625 127.175 17.5312 127.175 18.6562V45H120.964Z" fill="#D1DADB"/>
<path d="M156.214 45V9.84375H162.425V13.6641C162.769 12.4141 163.394 11.3984 164.3 10.6172C165.222 9.82031 166.472 9.42188 168.05 9.42188C169.253 9.42188 170.3 9.6875 171.19 10.2188C172.081 10.75 172.769 11.6641 173.253 12.9609C173.847 11.8672 174.628 11.0078 175.597 10.3828C176.565 9.74219 177.776 9.42188 179.229 9.42188C181.511 9.42188 183.128 10.1875 184.081 11.7188C185.034 13.25 185.511 15.3672 185.511 18.0703V45H179.323V18C179.323 16.75 179.112 15.8594 178.69 15.3281C178.269 14.7812 177.69 14.5078 176.956 14.5078C176.019 14.5078 175.284 14.8359 174.753 15.4922C174.237 16.1328 173.979 17.0781 173.979 18.3281V45H167.769V17.9531C167.769 16.9062 167.589 16.0703 167.229 15.4453C166.886 14.8203 166.3 14.5078 165.472 14.5078C164.394 14.5078 163.612 14.9219 163.128 15.75C162.659 16.5625 162.425 17.5312 162.425 18.6562V45H156.214Z" fill="#D1DADB"/>
<path d="M197.511 45.4453C196.12 45.4453 194.956 45.1328 194.019 44.5078C193.097 43.8828 192.401 42.9531 191.933 41.7188C191.479 40.4688 191.253 38.9062 191.253 37.0312V9.84375H197.487V36.0703C197.487 37.4141 197.651 38.4609 197.979 39.2109C198.308 39.9609 198.995 40.3359 200.042 40.3359C201.136 40.3359 201.878 39.9141 202.269 39.0703C202.675 38.2109 202.878 37.2266 202.878 36.1172L202.901 9.84375H209.089V45H202.878V41.3438C202.44 42.5312 201.808 43.5156 200.979 44.2969C200.151 45.0625 198.995 45.4453 197.511 45.4453Z" fill="#D1DADB"/>
<path d="M215.136 45V9.84375H221.347V13.875C221.659 12.6719 222.315 11.6328 223.315 10.7578C224.315 9.86719 225.542 9.42188 226.995 9.42188C229.026 9.42188 230.55 10.1016 231.565 11.4609C232.581 12.8047 233.089 14.7578 233.089 17.3203V45H226.878V17.6953C226.878 16.6797 226.644 15.8828 226.175 15.3047C225.722 14.7266 225.097 14.4375 224.3 14.4375C223.659 14.4375 223.112 14.6172 222.659 14.9766C222.222 15.3203 221.894 15.8047 221.675 16.4297C221.456 17.0391 221.347 17.7578 221.347 18.5859V45H215.136Z" fill="#D1DADB"/>
<path d="M239.159 45V9.84375H245.37V45H239.159ZM239.136 6.60938V1.21875H245.394V6.60938H239.136Z" fill="#D1DADB"/>
<path d="M258.003 45.2344C256.503 45.2344 255.354 45.0469 254.558 44.6719C253.761 44.2812 253.214 43.6719 252.917 42.8438C252.62 42.0156 252.472 40.9453 252.472 39.6328V15.0703H249.612V10.5703H252.472V3.75H258.683V10.5703H262.104V15.0703H258.683V38.5547C258.683 39.1016 258.769 39.5156 258.94 39.7969C259.112 40.0781 259.448 40.2656 259.948 40.3594C260.464 40.4531 261.222 40.5 262.222 40.5V45.2344H258.003Z" fill="#D1DADB"/>
<path d="M265.62 51.2109V46.9219H267.659C268.347 46.9219 268.925 46.8594 269.394 46.7344C269.862 46.625 270.128 46.375 270.19 45.9844C270.3 45.7812 270.339 45.4219 270.308 44.9062C270.276 44.375 270.229 43.875 270.167 43.4062L264.542 9.84375H270.448L272.698 27.8203L273.636 37.2891H274.151L274.995 27.8203L277.058 9.84375H282.94L276.847 46.5C276.675 47.6094 276.433 48.5078 276.12 49.1953C275.823 49.8984 275.37 50.4062 274.761 50.7188C274.151 51.0469 273.308 51.2109 272.229 51.2109H265.62Z" fill="#D1DADB"/>
<path d="M302.933 45.4688C301.214 45.4688 299.776 45.2031 298.62 44.6719C297.479 44.125 296.573 43.3359 295.901 42.3047C295.245 41.2578 294.776 39.9922 294.495 38.5078C294.214 37.0078 294.073 35.3047 294.073 33.3984V29.7188H300.026V33.8672C300.026 36.0859 300.214 37.6797 300.589 38.6484C300.964 39.6172 301.706 40.1016 302.815 40.1016C303.565 40.1016 304.128 39.9297 304.503 39.5859C304.894 39.2266 305.151 38.6641 305.276 37.8984C305.417 37.1172 305.487 36.1016 305.487 34.8516C305.487 33.3047 305.159 31.8906 304.503 30.6094C303.862 29.3281 302.886 28 301.573 26.625L298.526 23.4844C297.683 22.6094 296.917 21.6797 296.229 20.6953C295.558 19.7109 295.019 18.6172 294.612 17.4141C294.222 16.1953 294.026 14.8359 294.026 13.3359C294.026 11.1641 294.292 9.32812 294.823 7.82812C295.354 6.32812 296.253 5.19531 297.519 4.42969C298.784 3.64844 300.519 3.25781 302.722 3.25781C304.378 3.25781 305.737 3.51562 306.8 4.03125C307.878 4.53125 308.714 5.27344 309.308 6.25781C309.917 7.22656 310.347 8.41406 310.597 9.82031C310.847 11.2109 310.972 12.8047 310.972 14.6016V17.1562H305.183V14.2031C305.183 12.9531 305.112 11.9141 304.972 11.0859C304.847 10.2578 304.604 9.64062 304.245 9.23438C303.886 8.8125 303.362 8.60156 302.675 8.60156C302.019 8.60156 301.487 8.75 301.081 9.04688C300.675 9.32812 300.378 9.77344 300.19 10.3828C300.019 10.9766 299.933 11.75 299.933 12.7031C299.933 13.5625 300.042 14.3047 300.261 14.9297C300.479 15.5547 300.815 16.1562 301.269 16.7344C301.722 17.3125 302.284 17.9609 302.956 18.6797L306.354 22.3594C307.979 24.1094 309.245 25.9297 310.151 27.8203C311.058 29.7109 311.511 31.8203 311.511 34.1484C311.511 36.6172 311.245 38.6953 310.714 40.3828C310.183 42.0547 309.292 43.3203 308.042 44.1797C306.792 45.0391 305.089 45.4688 302.933 45.4688Z" fill="#D1DADB"/>
<path d="M316.034 45V9.84375H322.245V45H316.034ZM316.011 6.60938V1.21875H322.269V6.60938H316.011Z" fill="#D1DADB"/>
<path d="M334.878 45.2344C333.378 45.2344 332.229 45.0469 331.433 44.6719C330.636 44.2812 330.089 43.6719 329.792 42.8438C329.495 42.0156 329.347 40.9453 329.347 39.6328V15.0703H326.487V10.5703H329.347V3.75H335.558V10.5703H338.979V15.0703H335.558V38.5547C335.558 39.1016 335.644 39.5156 335.815 39.7969C335.987 40.0781 336.323 40.2656 336.823 40.3594C337.339 40.4531 338.097 40.5 339.097 40.5V45.2344H334.878Z" fill="#D1DADB"/>
<path d="M351.683 45.4219C349.917 45.4219 348.464 45.1406 347.323 44.5781C346.198 44.0156 345.315 43.2031 344.675 42.1406C344.05 41.0781 343.612 39.8047 343.362 38.3203C343.112 36.8203 342.987 35.1484 342.987 33.3047V20.2031C342.987 18.5625 343.151 17.0781 343.479 15.75C343.823 14.4219 344.347 13.2891 345.05 12.3516C345.769 11.4141 346.698 10.6953 347.839 10.1953C348.979 9.67969 350.354 9.42188 351.964 9.42188C353.604 9.42188 354.972 9.67188 356.065 10.1719C357.159 10.6719 358.019 11.3984 358.644 12.3516C359.284 13.3047 359.737 14.4531 360.003 15.7969C360.284 17.125 360.425 18.6328 360.425 20.3203V27.8438H349.245V34.7578C349.245 36.4609 349.378 37.8281 349.644 38.8594C349.909 39.8906 350.636 40.4062 351.823 40.4062C352.62 40.4062 353.183 40.1641 353.511 39.6797C353.854 39.1953 354.058 38.5312 354.12 37.6875C354.198 36.8281 354.237 35.8516 354.237 34.7578V31.6641H360.378V33.5391C360.378 35.4297 360.261 37.1094 360.026 38.5781C359.808 40.0469 359.386 41.2891 358.761 42.3047C358.151 43.3203 357.276 44.0938 356.136 44.625C354.995 45.1562 353.511 45.4219 351.683 45.4219ZM349.222 24.2109H354.237V19.7109C354.237 18.5391 354.183 17.5547 354.073 16.7578C353.964 15.9453 353.745 15.3359 353.417 14.9297C353.089 14.5234 352.589 14.3203 351.917 14.3203C351.089 14.3203 350.479 14.5625 350.089 15.0469C349.714 15.5312 349.472 16.1953 349.362 17.0391C349.269 17.8672 349.222 18.8125 349.222 19.875V24.2109Z" fill="#D1DADB"/>
<path d="M372.94 45.4453C370.112 45.4453 368.011 44.6406 366.636 43.0312C365.261 41.4219 364.573 38.7891 364.573 35.1328V32.8594H370.409V35.6953C370.409 37.2266 370.597 38.3906 370.972 39.1875C371.347 39.9844 371.956 40.3828 372.8 40.3828C373.612 40.3828 374.214 40.1094 374.604 39.5625C374.995 39.0156 375.19 38.0703 375.19 36.7266C375.19 35.9453 375.073 35.1875 374.839 34.4531C374.62 33.7188 374.269 33 373.784 32.2969C373.315 31.5781 372.706 30.8828 371.956 30.2109L368.792 27.3516C367.339 26.0391 366.253 24.625 365.534 23.1094C364.815 21.5781 364.456 19.8906 364.456 18.0469C364.456 15.0625 365.151 12.8828 366.542 11.5078C367.948 10.1172 370.026 9.42188 372.776 9.42188C374.558 9.42188 376.034 9.75781 377.206 10.4297C378.378 11.0859 379.253 12.1562 379.831 13.6406C380.409 15.125 380.698 17.1172 380.698 19.6172V21.5391H375.144V19.2188C375.144 17.6719 374.964 16.5 374.604 15.7031C374.261 14.9062 373.667 14.5078 372.823 14.5078C371.995 14.5078 371.386 14.7422 370.995 15.2109C370.604 15.6641 370.394 16.4688 370.362 17.625C370.347 18.25 370.425 18.8672 370.597 19.4766C370.769 20.0703 371.034 20.6562 371.394 21.2344C371.769 21.7969 372.253 22.3516 372.847 22.8984L376.175 25.9219C377.925 27.5 379.214 29.1484 380.042 30.8672C380.886 32.5859 381.308 34.4453 381.308 36.4453C381.308 39.3984 380.636 41.6406 379.292 43.1719C377.948 44.6875 375.831 45.4453 372.94 45.4453Z" fill="#D1DADB"/>
</g>
<path d="M1.12793 45V3.75H10.3857C12.4795 3.75 14.1592 4.17188 15.4248 5.01562C16.6904 5.84375 17.6045 7.04688 18.167 8.625C18.7451 10.2031 19.0342 12.1094 19.0342 14.3438L19.0576 32.9531C19.0576 35.6562 18.7607 37.9062 18.167 39.7031C17.5889 41.4844 16.6514 42.8125 15.3545 43.6875C14.0576 44.5625 12.3311 45 10.1748 45H1.12793ZM7.40918 40.125H9.47168C10.2061 40.125 10.8154 39.9766 11.2998 39.6797C11.7998 39.3828 12.167 38.8594 12.4014 38.1094C12.6514 37.3438 12.7764 36.2656 12.7764 34.875L12.7529 14.5078C12.7529 12.3984 12.4951 10.8828 11.9795 9.96094C11.4639 9.03906 10.5576 8.57812 9.26074 8.57812H7.40918V40.125Z" stroke="#D9E6E7" stroke-width="2" mask="url(#path-1-outside-1_127_2794)"/>
<path d="M32.9326 45.4219C31.167 45.4219 29.7139 45.1406 28.5732 44.5781C27.4482 44.0156 26.5654 43.2031 25.9248 42.1406C25.2998 41.0781 24.8623 39.8047 24.6123 38.3203C24.3623 36.8203 24.2373 35.1484 24.2373 33.3047V20.2031C24.2373 18.5625 24.4014 17.0781 24.7295 15.75C25.0732 14.4219 25.5967 13.2891 26.2998 12.3516C27.0186 11.4141 27.9482 10.6953 29.0889 10.1953C30.2295 9.67969 31.6045 9.42188 33.2139 9.42188C34.8545 9.42188 36.2217 9.67188 37.3154 10.1719C38.4092 10.6719 39.2686 11.3984 39.8936 12.3516C40.5342 13.3047 40.9873 14.4531 41.2529 15.7969C41.5342 17.125 41.6748 18.6328 41.6748 20.3203V27.8438H30.4951V34.7578C30.4951 36.4609 30.6279 37.8281 30.8936 38.8594C31.1592 39.8906 31.8857 40.4062 33.0732 40.4062C33.8701 40.4062 34.4326 40.1641 34.7607 39.6797C35.1045 39.1953 35.3076 38.5312 35.3701 37.6875C35.4482 36.8281 35.4873 35.8516 35.4873 34.7578V31.6641H41.6279V33.5391C41.6279 35.4297 41.5107 37.1094 41.2764 38.5781C41.0576 40.0469 40.6357 41.2891 40.0107 42.3047C39.4014 43.3203 38.5264 44.0938 37.3857 44.625C36.2451 45.1562 34.7607 45.4219 32.9326 45.4219ZM30.4717 24.2109H35.4873V19.7109C35.4873 18.5391 35.4326 17.5547 35.3232 16.7578C35.2139 15.9453 34.9951 15.3359 34.667 14.9297C34.3389 14.5234 33.8389 14.3203 33.167 14.3203C32.3389 14.3203 31.7295 14.5625 31.3389 15.0469C30.9639 15.5312 30.7217 16.1953 30.6123 17.0391C30.5186 17.8672 30.4717 18.8125 30.4717 19.875V24.2109Z" stroke="#D9E6E7" stroke-width="2" mask="url(#path-1-outside-1_127_2794)"/>
<path d="M50.0186 45L44.9326 9.84375H50.792L53.0654 28.5469L53.8389 36.9609H54.3076L54.9639 28.5234L56.9092 9.84375H62.7217L57.6357 45H50.0186Z" stroke="#D9E6E7" stroke-width="2" mask="url(#path-1-outside-1_127_2794)"/>
<path d="M83.9795 45.4688C81.9795 45.4688 80.3154 45.0078 78.9873 44.0859C77.6592 43.1641 76.6592 41.8203 75.9873 40.0547C75.3311 38.2734 75.0029 36.125 75.0029 33.6094V15.6328C75.0029 13.7422 75.1592 12.0391 75.4717 10.5234C75.7842 9.00781 76.292 7.71094 76.9951 6.63281C77.6982 5.55469 78.6357 4.72656 79.8076 4.14844C80.9795 3.57031 82.4248 3.28125 84.1436 3.28125C85.7061 3.28125 87.0342 3.53906 88.1279 4.05469C89.2373 4.55469 90.1357 5.28125 90.8232 6.23438C91.5264 7.1875 92.0342 8.34375 92.3467 9.70312C92.6748 11.0469 92.8389 12.5625 92.8389 14.25V19.9219H86.7686V14.6484C86.7686 12.6172 86.5967 11.125 86.2529 10.1719C85.9092 9.20312 85.2217 8.71875 84.1904 8.71875C83.0498 8.71875 82.2842 9.24219 81.8936 10.2891C81.5186 11.3203 81.3311 12.7656 81.3311 14.625V33.8906C81.3311 35.3281 81.4092 36.5078 81.5654 37.4297C81.7373 38.3359 82.0186 39.0078 82.4092 39.4453C82.7998 39.8672 83.3467 40.0781 84.0498 40.0781C85.1123 40.0781 85.8311 39.5781 86.2061 38.5781C86.5811 37.5781 86.7686 35.9922 86.7686 33.8203V27.9141H92.9326V33.75C92.9326 36.3594 92.6279 38.5391 92.0186 40.2891C91.4092 42.0234 90.4404 43.3203 89.1123 44.1797C87.7998 45.0391 86.0889 45.4688 83.9795 45.4688Z" stroke="#D9E6E7" stroke-width="2" mask="url(#path-1-outside-1_127_2794)"/>
<path d="M106.55 45.4219C104.862 45.4219 103.448 45.1641 102.308 44.6484C101.167 44.1172 100.261 43.3594 99.5889 42.375C98.9326 41.375 98.4561 40.1641 98.1592 38.7422C97.8779 37.3047 97.7373 35.6719 97.7373 33.8438V20.6953C97.7373 18.4922 98.0186 16.5469 98.5811 14.8594C99.1592 13.1562 100.097 11.8281 101.394 10.875C102.69 9.90625 104.409 9.42188 106.55 9.42188C108.175 9.42188 109.542 9.69531 110.651 10.2422C111.776 10.7891 112.675 11.5703 113.347 12.5859C114.034 13.5859 114.534 14.7734 114.847 16.1484C115.159 17.5234 115.315 19.0391 115.315 20.6953V33.8438C115.315 35.6406 115.175 37.25 114.894 38.6719C114.628 40.0938 114.159 41.3125 113.487 42.3281C112.831 43.3281 111.94 44.0938 110.815 44.625C109.69 45.1562 108.269 45.4219 106.55 45.4219ZM106.55 40.4062C107.253 40.4062 107.784 40.1953 108.144 39.7734C108.503 39.3359 108.745 38.7344 108.87 37.9688C108.995 37.2031 109.058 36.3203 109.058 35.3203V19.5938C109.058 18.5312 108.987 17.6172 108.847 16.8516C108.706 16.0859 108.456 15.4922 108.097 15.0703C107.737 14.6484 107.222 14.4375 106.55 14.4375C105.847 14.4375 105.308 14.6484 104.933 15.0703C104.573 15.4922 104.323 16.0859 104.183 16.8516C104.058 17.6172 103.995 18.5312 103.995 19.5938V35.3203C103.995 36.3203 104.058 37.2031 104.183 37.9688C104.323 38.7344 104.573 39.3359 104.933 39.7734C105.308 40.1953 105.847 40.4062 106.55 40.4062Z" stroke="#D9E6E7" stroke-width="2" mask="url(#path-1-outside-1_127_2794)"/>
<path d="M120.964 45V9.84375H127.175V13.6641C127.519 12.4141 128.144 11.3984 129.05 10.6172C129.972 9.82031 131.222 9.42188 132.8 9.42188C134.003 9.42188 135.05 9.6875 135.94 10.2188C136.831 10.75 137.519 11.6641 138.003 12.9609C138.597 11.8672 139.378 11.0078 140.347 10.3828C141.315 9.74219 142.526 9.42188 143.979 9.42188C146.261 9.42188 147.878 10.1875 148.831 11.7188C149.784 13.25 150.261 15.3672 150.261 18.0703V45H144.073V18C144.073 16.75 143.862 15.8594 143.44 15.3281C143.019 14.7812 142.44 14.5078 141.706 14.5078C140.769 14.5078 140.034 14.8359 139.503 15.4922C138.987 16.1328 138.729 17.0781 138.729 18.3281V45H132.519V17.9531C132.519 16.9062 132.339 16.0703 131.979 15.4453C131.636 14.8203 131.05 14.5078 130.222 14.5078C129.144 14.5078 128.362 14.9219 127.878 15.75C127.409 16.5625 127.175 17.5312 127.175 18.6562V45H120.964Z" stroke="#D9E6E7" stroke-width="2" mask="url(#path-1-outside-1_127_2794)"/>
<path d="M156.214 45V9.84375H162.425V13.6641C162.769 12.4141 163.394 11.3984 164.3 10.6172C165.222 9.82031 166.472 9.42188 168.05 9.42188C169.253 9.42188 170.3 9.6875 171.19 10.2188C172.081 10.75 172.769 11.6641 173.253 12.9609C173.847 11.8672 174.628 11.0078 175.597 10.3828C176.565 9.74219 177.776 9.42188 179.229 9.42188C181.511 9.42188 183.128 10.1875 184.081 11.7188C185.034 13.25 185.511 15.3672 185.511 18.0703V45H179.323V18C179.323 16.75 179.112 15.8594 178.69 15.3281C178.269 14.7812 177.69 14.5078 176.956 14.5078C176.019 14.5078 175.284 14.8359 174.753 15.4922C174.237 16.1328 173.979 17.0781 173.979 18.3281V45H167.769V17.9531C167.769 16.9062 167.589 16.0703 167.229 15.4453C166.886 14.8203 166.3 14.5078 165.472 14.5078C164.394 14.5078 163.612 14.9219 163.128 15.75C162.659 16.5625 162.425 17.5312 162.425 18.6562V45H156.214Z" stroke="#D9E6E7" stroke-width="2" mask="url(#path-1-outside-1_127_2794)"/>
<path d="M197.511 45.4453C196.12 45.4453 194.956 45.1328 194.019 44.5078C193.097 43.8828 192.401 42.9531 191.933 41.7188C191.479 40.4688 191.253 38.9062 191.253 37.0312V9.84375H197.487V36.0703C197.487 37.4141 197.651 38.4609 197.979 39.2109C198.308 39.9609 198.995 40.3359 200.042 40.3359C201.136 40.3359 201.878 39.9141 202.269 39.0703C202.675 38.2109 202.878 37.2266 202.878 36.1172L202.901 9.84375H209.089V45H202.878V41.3438C202.44 42.5312 201.808 43.5156 200.979 44.2969C200.151 45.0625 198.995 45.4453 197.511 45.4453Z" stroke="#D9E6E7" stroke-width="2" mask="url(#path-1-outside-1_127_2794)"/>
<path d="M215.136 45V9.84375H221.347V13.875C221.659 12.6719 222.315 11.6328 223.315 10.7578C224.315 9.86719 225.542 9.42188 226.995 9.42188C229.026 9.42188 230.55 10.1016 231.565 11.4609C232.581 12.8047 233.089 14.7578 233.089 17.3203V45H226.878V17.6953C226.878 16.6797 226.644 15.8828 226.175 15.3047C225.722 14.7266 225.097 14.4375 224.3 14.4375C223.659 14.4375 223.112 14.6172 222.659 14.9766C222.222 15.3203 221.894 15.8047 221.675 16.4297C221.456 17.0391 221.347 17.7578 221.347 18.5859V45H215.136Z" stroke="#D9E6E7" stroke-width="2" mask="url(#path-1-outside-1_127_2794)"/>
<path d="M239.159 45V9.84375H245.37V45H239.159ZM239.136 6.60938V1.21875H245.394V6.60938H239.136Z" stroke="#D9E6E7" stroke-width="2" mask="url(#path-1-outside-1_127_2794)"/>
<path d="M258.003 45.2344C256.503 45.2344 255.354 45.0469 254.558 44.6719C253.761 44.2812 253.214 43.6719 252.917 42.8438C252.62 42.0156 252.472 40.9453 252.472 39.6328V15.0703H249.612V10.5703H252.472V3.75H258.683V10.5703H262.104V15.0703H258.683V38.5547C258.683 39.1016 258.769 39.5156 258.94 39.7969C259.112 40.0781 259.448 40.2656 259.948 40.3594C260.464 40.4531 261.222 40.5 262.222 40.5V45.2344H258.003Z" stroke="#D9E6E7" stroke-width="2" mask="url(#path-1-outside-1_127_2794)"/>
<path d="M265.62 51.2109V46.9219H267.659C268.347 46.9219 268.925 46.8594 269.394 46.7344C269.862 46.625 270.128 46.375 270.19 45.9844C270.3 45.7812 270.339 45.4219 270.308 44.9062C270.276 44.375 270.229 43.875 270.167 43.4062L264.542 9.84375H270.448L272.698 27.8203L273.636 37.2891H274.151L274.995 27.8203L277.058 9.84375H282.94L276.847 46.5C276.675 47.6094 276.433 48.5078 276.12 49.1953C275.823 49.8984 275.37 50.4062 274.761 50.7188C274.151 51.0469 273.308 51.2109 272.229 51.2109H265.62Z" stroke="#D9E6E7" stroke-width="2" mask="url(#path-1-outside-1_127_2794)"/>
<path d="M302.933 45.4688C301.214 45.4688 299.776 45.2031 298.62 44.6719C297.479 44.125 296.573 43.3359 295.901 42.3047C295.245 41.2578 294.776 39.9922 294.495 38.5078C294.214 37.0078 294.073 35.3047 294.073 33.3984V29.7188H300.026V33.8672C300.026 36.0859 300.214 37.6797 300.589 38.6484C300.964 39.6172 301.706 40.1016 302.815 40.1016C303.565 40.1016 304.128 39.9297 304.503 39.5859C304.894 39.2266 305.151 38.6641 305.276 37.8984C305.417 37.1172 305.487 36.1016 305.487 34.8516C305.487 33.3047 305.159 31.8906 304.503 30.6094C303.862 29.3281 302.886 28 301.573 26.625L298.526 23.4844C297.683 22.6094 296.917 21.6797 296.229 20.6953C295.558 19.7109 295.019 18.6172 294.612 17.4141C294.222 16.1953 294.026 14.8359 294.026 13.3359C294.026 11.1641 294.292 9.32812 294.823 7.82812C295.354 6.32812 296.253 5.19531 297.519 4.42969C298.784 3.64844 300.519 3.25781 302.722 3.25781C304.378 3.25781 305.737 3.51562 306.8 4.03125C307.878 4.53125 308.714 5.27344 309.308 6.25781C309.917 7.22656 310.347 8.41406 310.597 9.82031C310.847 11.2109 310.972 12.8047 310.972 14.6016V17.1562H305.183V14.2031C305.183 12.9531 305.112 11.9141 304.972 11.0859C304.847 10.2578 304.604 9.64062 304.245 9.23438C303.886 8.8125 303.362 8.60156 302.675 8.60156C302.019 8.60156 301.487 8.75 301.081 9.04688C300.675 9.32812 300.378 9.77344 300.19 10.3828C300.019 10.9766 299.933 11.75 299.933 12.7031C299.933 13.5625 300.042 14.3047 300.261 14.9297C300.479 15.5547 300.815 16.1562 301.269 16.7344C301.722 17.3125 302.284 17.9609 302.956 18.6797L306.354 22.3594C307.979 24.1094 309.245 25.9297 310.151 27.8203C311.058 29.7109 311.511 31.8203 311.511 34.1484C311.511 36.6172 311.245 38.6953 310.714 40.3828C310.183 42.0547 309.292 43.3203 308.042 44.1797C306.792 45.0391 305.089 45.4688 302.933 45.4688Z" stroke="#D9E6E7" stroke-width="2" mask="url(#path-1-outside-1_127_2794)"/>
<path d="M316.034 45V9.84375H322.245V45H316.034ZM316.011 6.60938V1.21875H322.269V6.60938H316.011Z" stroke="#D9E6E7" stroke-width="2" mask="url(#path-1-outside-1_127_2794)"/>
<path d="M334.878 45.2344C333.378 45.2344 332.229 45.0469 331.433 44.6719C330.636 44.2812 330.089 43.6719 329.792 42.8438C329.495 42.0156 329.347 40.9453 329.347 39.6328V15.0703H326.487V10.5703H329.347V3.75H335.558V10.5703H338.979V15.0703H335.558V38.5547C335.558 39.1016 335.644 39.5156 335.815 39.7969C335.987 40.0781 336.323 40.2656 336.823 40.3594C337.339 40.4531 338.097 40.5 339.097 40.5V45.2344H334.878Z" stroke="#D9E6E7" stroke-width="2" mask="url(#path-1-outside-1_127_2794)"/>
<path d="M351.683 45.4219C349.917 45.4219 348.464 45.1406 347.323 44.5781C346.198 44.0156 345.315 43.2031 344.675 42.1406C344.05 41.0781 343.612 39.8047 343.362 38.3203C343.112 36.8203 342.987 35.1484 342.987 33.3047V20.2031C342.987 18.5625 343.151 17.0781 343.479 15.75C343.823 14.4219 344.347 13.2891 345.05 12.3516C345.769 11.4141 346.698 10.6953 347.839 10.1953C348.979 9.67969 350.354 9.42188 351.964 9.42188C353.604 9.42188 354.972 9.67188 356.065 10.1719C357.159 10.6719 358.019 11.3984 358.644 12.3516C359.284 13.3047 359.737 14.4531 360.003 15.7969C360.284 17.125 360.425 18.6328 360.425 20.3203V27.8438H349.245V34.7578C349.245 36.4609 349.378 37.8281 349.644 38.8594C349.909 39.8906 350.636 40.4062 351.823 40.4062C352.62 40.4062 353.183 40.1641 353.511 39.6797C353.854 39.1953 354.058 38.5312 354.12 37.6875C354.198 36.8281 354.237 35.8516 354.237 34.7578V31.6641H360.378V33.5391C360.378 35.4297 360.261 37.1094 360.026 38.5781C359.808 40.0469 359.386 41.2891 358.761 42.3047C358.151 43.3203 357.276 44.0938 356.136 44.625C354.995 45.1562 353.511 45.4219 351.683 45.4219ZM349.222 24.2109H354.237V19.7109C354.237 18.5391 354.183 17.5547 354.073 16.7578C353.964 15.9453 353.745 15.3359 353.417 14.9297C353.089 14.5234 352.589 14.3203 351.917 14.3203C351.089 14.3203 350.479 14.5625 350.089 15.0469C349.714 15.5312 349.472 16.1953 349.362 17.0391C349.269 17.8672 349.222 18.8125 349.222 19.875V24.2109Z" stroke="#D9E6E7" stroke-width="2" mask="url(#path-1-outside-1_127_2794)"/>
<path d="M372.94 45.4453C370.112 45.4453 368.011 44.6406 366.636 43.0312C365.261 41.4219 364.573 38.7891 364.573 35.1328V32.8594H370.409V35.6953C370.409 37.2266 370.597 38.3906 370.972 39.1875C371.347 39.9844 371.956 40.3828 372.8 40.3828C373.612 40.3828 374.214 40.1094 374.604 39.5625C374.995 39.0156 375.19 38.0703 375.19 36.7266C375.19 35.9453 375.073 35.1875 374.839 34.4531C374.62 33.7188 374.269 33 373.784 32.2969C373.315 31.5781 372.706 30.8828 371.956 30.2109L368.792 27.3516C367.339 26.0391 366.253 24.625 365.534 23.1094C364.815 21.5781 364.456 19.8906 364.456 18.0469C364.456 15.0625 365.151 12.8828 366.542 11.5078C367.948 10.1172 370.026 9.42188 372.776 9.42188C374.558 9.42188 376.034 9.75781 377.206 10.4297C378.378 11.0859 379.253 12.1562 379.831 13.6406C380.409 15.125 380.698 17.1172 380.698 19.6172V21.5391H375.144V19.2188C375.144 17.6719 374.964 16.5 374.604 15.7031C374.261 14.9062 373.667 14.5078 372.823 14.5078C371.995 14.5078 371.386 14.7422 370.995 15.2109C370.604 15.6641 370.394 16.4688 370.362 17.625C370.347 18.25 370.425 18.8672 370.597 19.4766C370.769 20.0703 371.034 20.6562 371.394 21.2344C371.769 21.7969 372.253 22.3516 372.847 22.8984L376.175 25.9219C377.925 27.5 379.214 29.1484 380.042 30.8672C380.886 32.5859 381.308 34.4453 381.308 36.4453C381.308 39.3984 380.636 41.6406 379.292 43.1719C377.948 44.6875 375.831 45.4453 372.94 45.4453Z" stroke="#D9E6E7" stroke-width="2" mask="url(#path-1-outside-1_127_2794)"/>
<defs>
<filter id="filter0_ii_127_2794" x="-0.87207" y="-0.78125" width="386.18" height="55.9922" filterUnits="userSpaceOnUse" color-interpolation-filters="sRGB">
<feFlood flood-opacity="0" result="BackgroundImageFix"/>
<feBlend mode="normal" in="SourceGraphic" in2="BackgroundImageFix" result="shape"/>
<feColorMatrix in="SourceAlpha" type="matrix" values="0 0 0 0 0 0 0 0 0 0 0 0 0 0 0 0 0 0 127 0" result="hardAlpha"/>
<feOffset dx="-1" dy="-1"/>
<feGaussianBlur stdDeviation="1.5"/>
<feComposite in2="hardAlpha" operator="arithmetic" k2="-1" k3="1"/>
<feColorMatrix type="matrix" values="0 0 0 0 0.984314 0 0 0 0 0.984314 0 0 0 0 0.984314 0 0 0 1 0"/>
<feBlend mode="normal" in2="shape" result="effect1_innerShadow_127_2794"/>
<feColorMatrix in="SourceAlpha" type="matrix" values="0 0 0 0 0 0 0 0 0 0 0 0 0 0 0 0 0 0 127 0" result="hardAlpha"/>
<feOffset dx="3" dy="3"/>
<feGaussianBlur stdDeviation="4.5"/>
<feComposite in2="hardAlpha" operator="arithmetic" k2="-1" k3="1"/>
<feColorMatrix type="matrix" values="0 0 0 0 0.772549 0 0 0 0 0.772549 0 0 0 0 0.772549 0 0 0 1 0"/>
<feBlend mode="normal" in2="effect1_innerShadow_127_2794" result="effect2_innerShadow_127_2794"/>
</filter>
</defs>
</svg>
