<svg width="92" height="84" viewBox="0 0 92 84" fill="none" xmlns="http://www.w3.org/2000/svg">
<g id="components_icon" filter="url(#filter0_ii_72_1728)">
<path d="M25 0V38.5H67V0H25ZM32 7H39V21L46 14L53 21V7H60V31.5H32V7ZM0.5 45.5V84H42.5V45.5H0.5ZM49.5 45.5V84H91.5V45.5H49.5ZM7.5 52.5H14.5V66.5L21.5 59.5L28.5 66.5V52.5H35.5V77H7.5V52.5ZM56.5 52.5H63.5V66.5L70.5 59.5L77.5 66.5V52.5H84.5V77H56.5V52.5Z" fill="#D4EAEE"/>
</g>
<defs>
<filter id="filter0_ii_72_1728" x="-0.5" y="-1" width="93" height="86" filterUnits="userSpaceOnUse" color-interpolation-filters="sRGB">
<feFlood flood-opacity="0" result="BackgroundImageFix"/>
<feBlend mode="normal" in="SourceGraphic" in2="BackgroundImageFix" result="shape"/>
<feColorMatrix in="SourceAlpha" type="matrix" values="0 0 0 0 0 0 0 0 0 0 0 0 0 0 0 0 0 0 127 0" result="hardAlpha"/>
<feOffset dx="-1" dy="-1"/>
<feGaussianBlur stdDeviation="1.5"/>
<feComposite in2="hardAlpha" operator="arithmetic" k2="-1" k3="1"/>
<feColorMatrix type="matrix" values="0 0 0 0 0.984314 0 0 0 0 0.984314 0 0 0 0 0.984314 0 0 0 1 0"/>
<feBlend mode="normal" in2="shape" result="effect1_innerShadow_72_1728"/>
<feColorMatrix in="SourceAlpha" type="matrix" values="0 0 0 0 0 0 0 0 0 0 0 0 0 0 0 0 0 0 127 0" result="hardAlpha"/>
<feOffset dx="1" dy="1"/>
<feGaussianBlur stdDeviation="1.5"/>
<feComposite in2="hardAlpha" operator="arithmetic" k2="-1" k3="1"/>
<feColorMatrix type="matrix" values="0 0 0 0 0.772549 0 0 0 0 0.772549 0 0 0 0 0.772549 0 0 0 1 0"/>
<feBlend mode="normal" in2="effect1_innerShadow_72_1728" result="effect2_innerShadow_72_1728"/>
</filter>
</defs>
</svg>
