<svg width="344" height="53" viewBox="0 0 344 53" fill="none" xmlns="http://www.w3.org/2000/svg">
<mask id="path-1-outside-1_127_2791" maskUnits="userSpaceOnUse" x="0.924805" y="0.21875" width="343" height="53" fill="black">
<rect fill="white" x="0.924805" y="0.21875" width="343" height="53"/>
<path d="M10.9014 45.4688C8.90137 45.4688 7.2373 45.0078 5.90918 44.0859C4.58105 43.1641 3.58105 41.8203 2.90918 40.0547C2.25293 38.2734 1.9248 36.125 1.9248 33.6094V15.6328C1.9248 13.7422 2.08105 12.0391 2.39355 10.5234C2.70605 9.00781 3.21387 7.71094 3.91699 6.63281C4.62012 5.55469 5.55762 4.72656 6.72949 4.14844C7.90137 3.57031 9.34668 3.28125 11.0654 3.28125C12.6279 3.28125 13.9561 3.53906 15.0498 4.05469C16.1592 4.55469 17.0576 5.28125 17.7451 6.23438C18.4482 7.1875 18.9561 8.34375 19.2686 9.70312C19.5967 11.0469 19.7607 12.5625 19.7607 14.25V19.9219H13.6904V14.6484C13.6904 12.6172 13.5186 11.125 13.1748 10.1719C12.8311 9.20312 12.1436 8.71875 11.1123 8.71875C9.97168 8.71875 9.20605 9.24219 8.81543 10.2891C8.44043 11.3203 8.25293 12.7656 8.25293 14.625V33.8906C8.25293 35.3281 8.33105 36.5078 8.4873 37.4297C8.65918 38.3359 8.94043 39.0078 9.33105 39.4453C9.72168 39.8672 10.2686 40.0781 10.9717 40.0781C12.0342 40.0781 12.7529 39.5781 13.1279 38.5781C13.5029 37.5781 13.6904 35.9922 13.6904 33.8203V27.9141H19.8545V33.75C19.8545 36.3594 19.5498 38.5391 18.9404 40.2891C18.3311 42.0234 17.3623 43.3203 16.0342 44.1797C14.7217 45.0391 13.0107 45.4688 10.9014 45.4688Z"/>
<path d="M33.4717 45.4219C31.7842 45.4219 30.3701 45.1641 29.2295 44.6484C28.0889 44.1172 27.1826 43.3594 26.5107 42.375C25.8545 41.375 25.3779 40.1641 25.0811 38.7422C24.7998 37.3047 24.6592 35.6719 24.6592 33.8438V20.6953C24.6592 18.4922 24.9404 16.5469 25.5029 14.8594C26.0811 13.1562 27.0186 11.8281 28.3154 10.875C29.6123 9.90625 31.3311 9.42188 33.4717 9.42188C35.0967 9.42188 36.4639 9.69531 37.5732 10.2422C38.6982 10.7891 39.5967 11.5703 40.2686 12.5859C40.9561 13.5859 41.4561 14.7734 41.7686 16.1484C42.0811 17.5234 42.2373 19.0391 42.2373 20.6953V33.8438C42.2373 35.6406 42.0967 37.25 41.8154 38.6719C41.5498 40.0938 41.0811 41.3125 40.4092 42.3281C39.7529 43.3281 38.8623 44.0938 37.7373 44.625C36.6123 45.1562 35.1904 45.4219 33.4717 45.4219ZM33.4717 40.4062C34.1748 40.4062 34.7061 40.1953 35.0654 39.7734C35.4248 39.3359 35.667 38.7344 35.792 37.9688C35.917 37.2031 35.9795 36.3203 35.9795 35.3203V19.5938C35.9795 18.5312 35.9092 17.6172 35.7686 16.8516C35.6279 16.0859 35.3779 15.4922 35.0186 15.0703C34.6592 14.6484 34.1436 14.4375 33.4717 14.4375C32.7686 14.4375 32.2295 14.6484 31.8545 15.0703C31.4951 15.4922 31.2451 16.0859 31.1045 16.8516C30.9795 17.6172 30.917 18.5312 30.917 19.5938V35.3203C30.917 36.3203 30.9795 37.2031 31.1045 37.9688C31.2451 38.7344 31.4951 39.3359 31.8545 39.7734C32.2295 40.1953 32.7686 40.4062 33.4717 40.4062Z"/>
<path d="M47.8857 45V9.84375H54.0967V13.6641C54.4404 12.4141 55.0654 11.3984 55.9717 10.6172C56.8936 9.82031 58.1436 9.42188 59.7217 9.42188C60.9248 9.42188 61.9717 9.6875 62.8623 10.2188C63.7529 10.75 64.4404 11.6641 64.9248 12.9609C65.5186 11.8672 66.2998 11.0078 67.2686 10.3828C68.2373 9.74219 69.4482 9.42188 70.9014 9.42188C73.1826 9.42188 74.7998 10.1875 75.7529 11.7188C76.7061 13.25 77.1826 15.3672 77.1826 18.0703V45H70.9951V18C70.9951 16.75 70.7842 15.8594 70.3623 15.3281C69.9404 14.7812 69.3623 14.5078 68.6279 14.5078C67.6904 14.5078 66.9561 14.8359 66.4248 15.4922C65.9092 16.1328 65.6514 17.0781 65.6514 18.3281V45H59.4404V17.9531C59.4404 16.9062 59.2607 16.0703 58.9014 15.4453C58.5576 14.8203 57.9717 14.5078 57.1436 14.5078C56.0654 14.5078 55.2842 14.9219 54.7998 15.75C54.3311 16.5625 54.0967 17.5312 54.0967 18.6562V45H47.8857Z"/>
<path d="M83.1592 51.6797V9.84375H89.3701V13.0078C89.8232 11.8516 90.5342 10.9766 91.5029 10.3828C92.4717 9.78906 93.4482 9.49219 94.4326 9.49219C96.2295 9.49219 97.5889 9.97656 98.5107 10.9453C99.4326 11.8984 100.058 13.2031 100.386 14.8594C100.714 16.5156 100.878 18.375 100.878 20.4375V33.2578C100.878 35.5078 100.722 37.5547 100.409 39.3984C100.097 41.2422 99.4326 42.7109 98.417 43.8047C97.417 44.8828 95.8857 45.4219 93.8232 45.4219C92.8701 45.4219 92.0029 45.1641 91.2217 44.6484C90.4404 44.1328 89.8232 43.5391 89.3701 42.8672V51.6797H83.1592ZM92.1123 40.3828C93.1592 40.3828 93.8389 39.875 94.1514 38.8594C94.4639 37.8281 94.6201 36.3594 94.6201 34.4531V19.875C94.6201 18.8594 94.5654 17.9453 94.4561 17.1328C94.3623 16.3047 94.1436 15.6484 93.7998 15.1641C93.4561 14.6797 92.9092 14.4375 92.1592 14.4375C91.5811 14.4375 91.0811 14.5859 90.6592 14.8828C90.2529 15.1797 89.9326 15.7188 89.6982 16.5C89.4795 17.2812 89.3701 18.3984 89.3701 19.8516V34.7109C89.3701 36.5078 89.542 37.9062 89.8857 38.9062C90.2295 39.8906 90.9717 40.3828 92.1123 40.3828Z"/>
<path d="M114.847 45.4219C113.159 45.4219 111.745 45.1641 110.604 44.6484C109.464 44.1172 108.558 43.3594 107.886 42.375C107.229 41.375 106.753 40.1641 106.456 38.7422C106.175 37.3047 106.034 35.6719 106.034 33.8438V20.6953C106.034 18.4922 106.315 16.5469 106.878 14.8594C107.456 13.1562 108.394 11.8281 109.69 10.875C110.987 9.90625 112.706 9.42188 114.847 9.42188C116.472 9.42188 117.839 9.69531 118.948 10.2422C120.073 10.7891 120.972 11.5703 121.644 12.5859C122.331 13.5859 122.831 14.7734 123.144 16.1484C123.456 17.5234 123.612 19.0391 123.612 20.6953V33.8438C123.612 35.6406 123.472 37.25 123.19 38.6719C122.925 40.0938 122.456 41.3125 121.784 42.3281C121.128 43.3281 120.237 44.0938 119.112 44.625C117.987 45.1562 116.565 45.4219 114.847 45.4219ZM114.847 40.4062C115.55 40.4062 116.081 40.1953 116.44 39.7734C116.8 39.3359 117.042 38.7344 117.167 37.9688C117.292 37.2031 117.354 36.3203 117.354 35.3203V19.5938C117.354 18.5312 117.284 17.6172 117.144 16.8516C117.003 16.0859 116.753 15.4922 116.394 15.0703C116.034 14.6484 115.519 14.4375 114.847 14.4375C114.144 14.4375 113.604 14.6484 113.229 15.0703C112.87 15.4922 112.62 16.0859 112.479 16.8516C112.354 17.6172 112.292 18.5312 112.292 19.5938V35.3203C112.292 36.3203 112.354 37.2031 112.479 37.9688C112.62 38.7344 112.87 39.3359 113.229 39.7734C113.604 40.1953 114.144 40.4062 114.847 40.4062Z"/>
<path d="M129.261 45V9.84375H135.472V13.875C135.784 12.6719 136.44 11.6328 137.44 10.7578C138.44 9.86719 139.667 9.42188 141.12 9.42188C143.151 9.42188 144.675 10.1016 145.69 11.4609C146.706 12.8047 147.214 14.7578 147.214 17.3203V45H141.003V17.6953C141.003 16.6797 140.769 15.8828 140.3 15.3047C139.847 14.7266 139.222 14.4375 138.425 14.4375C137.784 14.4375 137.237 14.6172 136.784 14.9766C136.347 15.3203 136.019 15.8047 135.8 16.4297C135.581 17.0391 135.472 17.7578 135.472 18.5859V45H129.261Z"/>
<path d="M161.37 45.4219C159.604 45.4219 158.151 45.1406 157.011 44.5781C155.886 44.0156 155.003 43.2031 154.362 42.1406C153.737 41.0781 153.3 39.8047 153.05 38.3203C152.8 36.8203 152.675 35.1484 152.675 33.3047V20.2031C152.675 18.5625 152.839 17.0781 153.167 15.75C153.511 14.4219 154.034 13.2891 154.737 12.3516C155.456 11.4141 156.386 10.6953 157.526 10.1953C158.667 9.67969 160.042 9.42188 161.651 9.42188C163.292 9.42188 164.659 9.67188 165.753 10.1719C166.847 10.6719 167.706 11.3984 168.331 12.3516C168.972 13.3047 169.425 14.4531 169.69 15.7969C169.972 17.125 170.112 18.6328 170.112 20.3203V27.8438H158.933V34.7578C158.933 36.4609 159.065 37.8281 159.331 38.8594C159.597 39.8906 160.323 40.4062 161.511 40.4062C162.308 40.4062 162.87 40.1641 163.198 39.6797C163.542 39.1953 163.745 38.5312 163.808 37.6875C163.886 36.8281 163.925 35.8516 163.925 34.7578V31.6641H170.065V33.5391C170.065 35.4297 169.948 37.1094 169.714 38.5781C169.495 40.0469 169.073 41.2891 168.448 42.3047C167.839 43.3203 166.964 44.0938 165.823 44.625C164.683 45.1562 163.198 45.4219 161.37 45.4219ZM158.909 24.2109H163.925V19.7109C163.925 18.5391 163.87 17.5547 163.761 16.7578C163.651 15.9453 163.433 15.3359 163.104 14.9297C162.776 14.5234 162.276 14.3203 161.604 14.3203C160.776 14.3203 160.167 14.5625 159.776 15.0469C159.401 15.5312 159.159 16.1953 159.05 17.0391C158.956 17.8672 158.909 18.8125 158.909 19.875V24.2109Z"/>
<path d="M175.339 45V9.84375H181.55V13.875C181.862 12.6719 182.519 11.6328 183.519 10.7578C184.519 9.86719 185.745 9.42188 187.198 9.42188C189.229 9.42188 190.753 10.1016 191.769 11.4609C192.784 12.8047 193.292 14.7578 193.292 17.3203V45H187.081V17.6953C187.081 16.6797 186.847 15.8828 186.378 15.3047C185.925 14.7266 185.3 14.4375 184.503 14.4375C183.862 14.4375 183.315 14.6172 182.862 14.9766C182.425 15.3203 182.097 15.8047 181.878 16.4297C181.659 17.0391 181.55 17.7578 181.55 18.5859V45H175.339Z"/>
<path d="M205.597 45.2344C204.097 45.2344 202.948 45.0469 202.151 44.6719C201.354 44.2812 200.808 43.6719 200.511 42.8438C200.214 42.0156 200.065 40.9453 200.065 39.6328V15.0703H197.206V10.5703H200.065V3.75H206.276V10.5703H209.698V15.0703H206.276V38.5547C206.276 39.1016 206.362 39.5156 206.534 39.7969C206.706 40.0781 207.042 40.2656 207.542 40.3594C208.058 40.4531 208.815 40.5 209.815 40.5V45.2344H205.597Z"/>
<path d="M222.847 45V3.75H232.104C234.198 3.75 235.878 4.17188 237.144 5.01562C238.409 5.84375 239.323 7.04688 239.886 8.625C240.464 10.2031 240.753 12.1094 240.753 14.3438L240.776 32.9531C240.776 35.6562 240.479 37.9062 239.886 39.7031C239.308 41.4844 238.37 42.8125 237.073 43.6875C235.776 44.5625 234.05 45 231.894 45H222.847ZM229.128 40.125H231.19C231.925 40.125 232.534 39.9766 233.019 39.6797C233.519 39.3828 233.886 38.8594 234.12 38.1094C234.37 37.3438 234.495 36.2656 234.495 34.875L234.472 14.5078C234.472 12.3984 234.214 10.8828 233.698 9.96094C233.183 9.03906 232.276 8.57812 230.979 8.57812H229.128V40.125Z"/>
<path d="M254.651 45.4219C252.886 45.4219 251.433 45.1406 250.292 44.5781C249.167 44.0156 248.284 43.2031 247.644 42.1406C247.019 41.0781 246.581 39.8047 246.331 38.3203C246.081 36.8203 245.956 35.1484 245.956 33.3047V20.2031C245.956 18.5625 246.12 17.0781 246.448 15.75C246.792 14.4219 247.315 13.2891 248.019 12.3516C248.737 11.4141 249.667 10.6953 250.808 10.1953C251.948 9.67969 253.323 9.42188 254.933 9.42188C256.573 9.42188 257.94 9.67188 259.034 10.1719C260.128 10.6719 260.987 11.3984 261.612 12.3516C262.253 13.3047 262.706 14.4531 262.972 15.7969C263.253 17.125 263.394 18.6328 263.394 20.3203V27.8438H252.214V34.7578C252.214 36.4609 252.347 37.8281 252.612 38.8594C252.878 39.8906 253.604 40.4062 254.792 40.4062C255.589 40.4062 256.151 40.1641 256.479 39.6797C256.823 39.1953 257.026 38.5312 257.089 37.6875C257.167 36.8281 257.206 35.8516 257.206 34.7578V31.6641H263.347V33.5391C263.347 35.4297 263.229 37.1094 262.995 38.5781C262.776 40.0469 262.354 41.2891 261.729 42.3047C261.12 43.3203 260.245 44.0938 259.104 44.625C257.964 45.1562 256.479 45.4219 254.651 45.4219ZM252.19 24.2109H257.206V19.7109C257.206 18.5391 257.151 17.5547 257.042 16.7578C256.933 15.9453 256.714 15.3359 256.386 14.9297C256.058 14.5234 255.558 14.3203 254.886 14.3203C254.058 14.3203 253.448 14.5625 253.058 15.0469C252.683 15.5312 252.44 16.1953 252.331 17.0391C252.237 17.8672 252.19 18.8125 252.19 19.875V24.2109Z"/>
<path d="M275.909 45.4453C273.081 45.4453 270.979 44.6406 269.604 43.0312C268.229 41.4219 267.542 38.7891 267.542 35.1328V32.8594H273.378V35.6953C273.378 37.2266 273.565 38.3906 273.94 39.1875C274.315 39.9844 274.925 40.3828 275.769 40.3828C276.581 40.3828 277.183 40.1094 277.573 39.5625C277.964 39.0156 278.159 38.0703 278.159 36.7266C278.159 35.9453 278.042 35.1875 277.808 34.4531C277.589 33.7188 277.237 33 276.753 32.2969C276.284 31.5781 275.675 30.8828 274.925 30.2109L271.761 27.3516C270.308 26.0391 269.222 24.625 268.503 23.1094C267.784 21.5781 267.425 19.8906 267.425 18.0469C267.425 15.0625 268.12 12.8828 269.511 11.5078C270.917 10.1172 272.995 9.42188 275.745 9.42188C277.526 9.42188 279.003 9.75781 280.175 10.4297C281.347 11.0859 282.222 12.1562 282.8 13.6406C283.378 15.125 283.667 17.1172 283.667 19.6172V21.5391H278.112V19.2188C278.112 17.6719 277.933 16.5 277.573 15.7031C277.229 14.9062 276.636 14.5078 275.792 14.5078C274.964 14.5078 274.354 14.7422 273.964 15.2109C273.573 15.6641 273.362 16.4688 273.331 17.625C273.315 18.25 273.394 18.8672 273.565 19.4766C273.737 20.0703 274.003 20.6562 274.362 21.2344C274.737 21.7969 275.222 22.3516 275.815 22.8984L279.144 25.9219C280.894 27.5 282.183 29.1484 283.011 30.8672C283.854 32.5859 284.276 34.4453 284.276 36.4453C284.276 39.3984 283.604 41.6406 282.261 43.1719C280.917 44.6875 278.8 45.4453 275.909 45.4453Z"/>
<path d="M288.94 45V9.84375H295.151V45H288.94ZM288.917 6.60938V1.21875H295.175V6.60938H288.917Z"/>
<path d="M309.354 50.2734C307.417 50.3047 305.769 50.1172 304.409 49.7109C303.05 49.3203 301.815 48.6719 300.706 47.7656L302.886 43.8516C303.714 44.3828 304.612 44.8125 305.581 45.1406C306.565 45.4844 307.628 45.6484 308.769 45.6328C309.956 45.6172 310.862 45.2031 311.487 44.3906C312.112 43.5781 312.425 42.4922 312.425 41.1328V38.3438C312.019 39.5156 311.394 40.3203 310.55 40.7578C309.722 41.1953 308.714 41.4141 307.526 41.4141C305.87 41.4141 304.565 40.9766 303.612 40.1016C302.675 39.2266 302.011 38.0312 301.62 36.5156C301.229 35 301.034 33.2812 301.034 31.3594V20.0391C301.034 17.9922 301.237 16.1719 301.644 14.5781C302.05 12.9688 302.745 11.7031 303.729 10.7812C304.714 9.85938 306.065 9.40625 307.784 9.42188C308.987 9.42188 309.979 9.72656 310.761 10.3359C311.558 10.9453 312.112 11.8203 312.425 12.9609V9.84375H318.636V40.6641C318.636 42.0547 318.479 43.3359 318.167 44.5078C317.854 45.6641 317.339 46.6641 316.62 47.5078C315.901 48.3672 314.948 49.0312 313.761 49.5C312.573 49.9844 311.104 50.2422 309.354 50.2734ZM309.987 36.7031C310.55 36.7031 311.011 36.5391 311.37 36.2109C311.729 35.8672 311.995 35.2891 312.167 34.4766C312.339 33.6484 312.425 32.5 312.425 31.0312V19.5234C312.425 17.9766 312.237 16.7422 311.862 15.8203C311.487 14.8984 310.808 14.4375 309.823 14.4375C309.073 14.4375 308.519 14.6562 308.159 15.0938C307.8 15.5312 307.565 16.1328 307.456 16.8984C307.347 17.6484 307.292 18.5156 307.292 19.5V31.0781C307.292 32.8125 307.456 34.1875 307.784 35.2031C308.112 36.2031 308.847 36.7031 309.987 36.7031Z"/>
<path d="M324.636 45V9.84375H330.847V13.875C331.159 12.6719 331.815 11.6328 332.815 10.7578C333.815 9.86719 335.042 9.42188 336.495 9.42188C338.526 9.42188 340.05 10.1016 341.065 11.4609C342.081 12.8047 342.589 14.7578 342.589 17.3203V45H336.378V17.6953C336.378 16.6797 336.144 15.8828 335.675 15.3047C335.222 14.7266 334.597 14.4375 333.8 14.4375C333.159 14.4375 332.612 14.6172 332.159 14.9766C331.722 15.3203 331.394 15.8047 331.175 16.4297C330.956 17.0391 330.847 17.7578 330.847 18.5859V45H324.636Z"/>
</mask>
<g filter="url(#filter0_ii_127_2791)">
<path d="M10.9014 45.4688C8.90137 45.4688 7.2373 45.0078 5.90918 44.0859C4.58105 43.1641 3.58105 41.8203 2.90918 40.0547C2.25293 38.2734 1.9248 36.125 1.9248 33.6094V15.6328C1.9248 13.7422 2.08105 12.0391 2.39355 10.5234C2.70605 9.00781 3.21387 7.71094 3.91699 6.63281C4.62012 5.55469 5.55762 4.72656 6.72949 4.14844C7.90137 3.57031 9.34668 3.28125 11.0654 3.28125C12.6279 3.28125 13.9561 3.53906 15.0498 4.05469C16.1592 4.55469 17.0576 5.28125 17.7451 6.23438C18.4482 7.1875 18.9561 8.34375 19.2686 9.70312C19.5967 11.0469 19.7607 12.5625 19.7607 14.25V19.9219H13.6904V14.6484C13.6904 12.6172 13.5186 11.125 13.1748 10.1719C12.8311 9.20312 12.1436 8.71875 11.1123 8.71875C9.97168 8.71875 9.20605 9.24219 8.81543 10.2891C8.44043 11.3203 8.25293 12.7656 8.25293 14.625V33.8906C8.25293 35.3281 8.33105 36.5078 8.4873 37.4297C8.65918 38.3359 8.94043 39.0078 9.33105 39.4453C9.72168 39.8672 10.2686 40.0781 10.9717 40.0781C12.0342 40.0781 12.7529 39.5781 13.1279 38.5781C13.5029 37.5781 13.6904 35.9922 13.6904 33.8203V27.9141H19.8545V33.75C19.8545 36.3594 19.5498 38.5391 18.9404 40.2891C18.3311 42.0234 17.3623 43.3203 16.0342 44.1797C14.7217 45.0391 13.0107 45.4688 10.9014 45.4688Z" fill="#E0E0E0"/>
<path d="M33.4717 45.4219C31.7842 45.4219 30.3701 45.1641 29.2295 44.6484C28.0889 44.1172 27.1826 43.3594 26.5107 42.375C25.8545 41.375 25.3779 40.1641 25.0811 38.7422C24.7998 37.3047 24.6592 35.6719 24.6592 33.8438V20.6953C24.6592 18.4922 24.9404 16.5469 25.5029 14.8594C26.0811 13.1562 27.0186 11.8281 28.3154 10.875C29.6123 9.90625 31.3311 9.42188 33.4717 9.42188C35.0967 9.42188 36.4639 9.69531 37.5732 10.2422C38.6982 10.7891 39.5967 11.5703 40.2686 12.5859C40.9561 13.5859 41.4561 14.7734 41.7686 16.1484C42.0811 17.5234 42.2373 19.0391 42.2373 20.6953V33.8438C42.2373 35.6406 42.0967 37.25 41.8154 38.6719C41.5498 40.0938 41.0811 41.3125 40.4092 42.3281C39.7529 43.3281 38.8623 44.0938 37.7373 44.625C36.6123 45.1562 35.1904 45.4219 33.4717 45.4219ZM33.4717 40.4062C34.1748 40.4062 34.7061 40.1953 35.0654 39.7734C35.4248 39.3359 35.667 38.7344 35.792 37.9688C35.917 37.2031 35.9795 36.3203 35.9795 35.3203V19.5938C35.9795 18.5312 35.9092 17.6172 35.7686 16.8516C35.6279 16.0859 35.3779 15.4922 35.0186 15.0703C34.6592 14.6484 34.1436 14.4375 33.4717 14.4375C32.7686 14.4375 32.2295 14.6484 31.8545 15.0703C31.4951 15.4922 31.2451 16.0859 31.1045 16.8516C30.9795 17.6172 30.917 18.5312 30.917 19.5938V35.3203C30.917 36.3203 30.9795 37.2031 31.1045 37.9688C31.2451 38.7344 31.4951 39.3359 31.8545 39.7734C32.2295 40.1953 32.7686 40.4062 33.4717 40.4062Z" fill="#E0E0E0"/>
<path d="M47.8857 45V9.84375H54.0967V13.6641C54.4404 12.4141 55.0654 11.3984 55.9717 10.6172C56.8936 9.82031 58.1436 9.42188 59.7217 9.42188C60.9248 9.42188 61.9717 9.6875 62.8623 10.2188C63.7529 10.75 64.4404 11.6641 64.9248 12.9609C65.5186 11.8672 66.2998 11.0078 67.2686 10.3828C68.2373 9.74219 69.4482 9.42188 70.9014 9.42188C73.1826 9.42188 74.7998 10.1875 75.7529 11.7188C76.7061 13.25 77.1826 15.3672 77.1826 18.0703V45H70.9951V18C70.9951 16.75 70.7842 15.8594 70.3623 15.3281C69.9404 14.7812 69.3623 14.5078 68.6279 14.5078C67.6904 14.5078 66.9561 14.8359 66.4248 15.4922C65.9092 16.1328 65.6514 17.0781 65.6514 18.3281V45H59.4404V17.9531C59.4404 16.9062 59.2607 16.0703 58.9014 15.4453C58.5576 14.8203 57.9717 14.5078 57.1436 14.5078C56.0654 14.5078 55.2842 14.9219 54.7998 15.75C54.3311 16.5625 54.0967 17.5312 54.0967 18.6562V45H47.8857Z" fill="#E0E0E0"/>
<path d="M83.1592 51.6797V9.84375H89.3701V13.0078C89.8232 11.8516 90.5342 10.9766 91.5029 10.3828C92.4717 9.78906 93.4482 9.49219 94.4326 9.49219C96.2295 9.49219 97.5889 9.97656 98.5107 10.9453C99.4326 11.8984 100.058 13.2031 100.386 14.8594C100.714 16.5156 100.878 18.375 100.878 20.4375V33.2578C100.878 35.5078 100.722 37.5547 100.409 39.3984C100.097 41.2422 99.4326 42.7109 98.417 43.8047C97.417 44.8828 95.8857 45.4219 93.8232 45.4219C92.8701 45.4219 92.0029 45.1641 91.2217 44.6484C90.4404 44.1328 89.8232 43.5391 89.3701 42.8672V51.6797H83.1592ZM92.1123 40.3828C93.1592 40.3828 93.8389 39.875 94.1514 38.8594C94.4639 37.8281 94.6201 36.3594 94.6201 34.4531V19.875C94.6201 18.8594 94.5654 17.9453 94.4561 17.1328C94.3623 16.3047 94.1436 15.6484 93.7998 15.1641C93.4561 14.6797 92.9092 14.4375 92.1592 14.4375C91.5811 14.4375 91.0811 14.5859 90.6592 14.8828C90.2529 15.1797 89.9326 15.7188 89.6982 16.5C89.4795 17.2812 89.3701 18.3984 89.3701 19.8516V34.7109C89.3701 36.5078 89.542 37.9062 89.8857 38.9062C90.2295 39.8906 90.9717 40.3828 92.1123 40.3828Z" fill="#E0E0E0"/>
<path d="M114.847 45.4219C113.159 45.4219 111.745 45.1641 110.604 44.6484C109.464 44.1172 108.558 43.3594 107.886 42.375C107.229 41.375 106.753 40.1641 106.456 38.7422C106.175 37.3047 106.034 35.6719 106.034 33.8438V20.6953C106.034 18.4922 106.315 16.5469 106.878 14.8594C107.456 13.1562 108.394 11.8281 109.69 10.875C110.987 9.90625 112.706 9.42188 114.847 9.42188C116.472 9.42188 117.839 9.69531 118.948 10.2422C120.073 10.7891 120.972 11.5703 121.644 12.5859C122.331 13.5859 122.831 14.7734 123.144 16.1484C123.456 17.5234 123.612 19.0391 123.612 20.6953V33.8438C123.612 35.6406 123.472 37.25 123.19 38.6719C122.925 40.0938 122.456 41.3125 121.784 42.3281C121.128 43.3281 120.237 44.0938 119.112 44.625C117.987 45.1562 116.565 45.4219 114.847 45.4219ZM114.847 40.4062C115.55 40.4062 116.081 40.1953 116.44 39.7734C116.8 39.3359 117.042 38.7344 117.167 37.9688C117.292 37.2031 117.354 36.3203 117.354 35.3203V19.5938C117.354 18.5312 117.284 17.6172 117.144 16.8516C117.003 16.0859 116.753 15.4922 116.394 15.0703C116.034 14.6484 115.519 14.4375 114.847 14.4375C114.144 14.4375 113.604 14.6484 113.229 15.0703C112.87 15.4922 112.62 16.0859 112.479 16.8516C112.354 17.6172 112.292 18.5312 112.292 19.5938V35.3203C112.292 36.3203 112.354 37.2031 112.479 37.9688C112.62 38.7344 112.87 39.3359 113.229 39.7734C113.604 40.1953 114.144 40.4062 114.847 40.4062Z" fill="#E0E0E0"/>
<path d="M129.261 45V9.84375H135.472V13.875C135.784 12.6719 136.44 11.6328 137.44 10.7578C138.44 9.86719 139.667 9.42188 141.12 9.42188C143.151 9.42188 144.675 10.1016 145.69 11.4609C146.706 12.8047 147.214 14.7578 147.214 17.3203V45H141.003V17.6953C141.003 16.6797 140.769 15.8828 140.3 15.3047C139.847 14.7266 139.222 14.4375 138.425 14.4375C137.784 14.4375 137.237 14.6172 136.784 14.9766C136.347 15.3203 136.019 15.8047 135.8 16.4297C135.581 17.0391 135.472 17.7578 135.472 18.5859V45H129.261Z" fill="#E0E0E0"/>
<path d="M161.37 45.4219C159.604 45.4219 158.151 45.1406 157.011 44.5781C155.886 44.0156 155.003 43.2031 154.362 42.1406C153.737 41.0781 153.3 39.8047 153.05 38.3203C152.8 36.8203 152.675 35.1484 152.675 33.3047V20.2031C152.675 18.5625 152.839 17.0781 153.167 15.75C153.511 14.4219 154.034 13.2891 154.737 12.3516C155.456 11.4141 156.386 10.6953 157.526 10.1953C158.667 9.67969 160.042 9.42188 161.651 9.42188C163.292 9.42188 164.659 9.67188 165.753 10.1719C166.847 10.6719 167.706 11.3984 168.331 12.3516C168.972 13.3047 169.425 14.4531 169.69 15.7969C169.972 17.125 170.112 18.6328 170.112 20.3203V27.8438H158.933V34.7578C158.933 36.4609 159.065 37.8281 159.331 38.8594C159.597 39.8906 160.323 40.4062 161.511 40.4062C162.308 40.4062 162.87 40.1641 163.198 39.6797C163.542 39.1953 163.745 38.5312 163.808 37.6875C163.886 36.8281 163.925 35.8516 163.925 34.7578V31.6641H170.065V33.5391C170.065 35.4297 169.948 37.1094 169.714 38.5781C169.495 40.0469 169.073 41.2891 168.448 42.3047C167.839 43.3203 166.964 44.0938 165.823 44.625C164.683 45.1562 163.198 45.4219 161.37 45.4219ZM158.909 24.2109H163.925V19.7109C163.925 18.5391 163.87 17.5547 163.761 16.7578C163.651 15.9453 163.433 15.3359 163.104 14.9297C162.776 14.5234 162.276 14.3203 161.604 14.3203C160.776 14.3203 160.167 14.5625 159.776 15.0469C159.401 15.5312 159.159 16.1953 159.05 17.0391C158.956 17.8672 158.909 18.8125 158.909 19.875V24.2109Z" fill="#E0E0E0"/>
<path d="M175.339 45V9.84375H181.55V13.875C181.862 12.6719 182.519 11.6328 183.519 10.7578C184.519 9.86719 185.745 9.42188 187.198 9.42188C189.229 9.42188 190.753 10.1016 191.769 11.4609C192.784 12.8047 193.292 14.7578 193.292 17.3203V45H187.081V17.6953C187.081 16.6797 186.847 15.8828 186.378 15.3047C185.925 14.7266 185.3 14.4375 184.503 14.4375C183.862 14.4375 183.315 14.6172 182.862 14.9766C182.425 15.3203 182.097 15.8047 181.878 16.4297C181.659 17.0391 181.55 17.7578 181.55 18.5859V45H175.339Z" fill="#E0E0E0"/>
<path d="M205.597 45.2344C204.097 45.2344 202.948 45.0469 202.151 44.6719C201.354 44.2812 200.808 43.6719 200.511 42.8438C200.214 42.0156 200.065 40.9453 200.065 39.6328V15.0703H197.206V10.5703H200.065V3.75H206.276V10.5703H209.698V15.0703H206.276V38.5547C206.276 39.1016 206.362 39.5156 206.534 39.7969C206.706 40.0781 207.042 40.2656 207.542 40.3594C208.058 40.4531 208.815 40.5 209.815 40.5V45.2344H205.597Z" fill="#E0E0E0"/>
<path d="M222.847 45V3.75H232.104C234.198 3.75 235.878 4.17188 237.144 5.01562C238.409 5.84375 239.323 7.04688 239.886 8.625C240.464 10.2031 240.753 12.1094 240.753 14.3438L240.776 32.9531C240.776 35.6562 240.479 37.9062 239.886 39.7031C239.308 41.4844 238.37 42.8125 237.073 43.6875C235.776 44.5625 234.05 45 231.894 45H222.847ZM229.128 40.125H231.19C231.925 40.125 232.534 39.9766 233.019 39.6797C233.519 39.3828 233.886 38.8594 234.12 38.1094C234.37 37.3438 234.495 36.2656 234.495 34.875L234.472 14.5078C234.472 12.3984 234.214 10.8828 233.698 9.96094C233.183 9.03906 232.276 8.57812 230.979 8.57812H229.128V40.125Z" fill="#E0E0E0"/>
<path d="M254.651 45.4219C252.886 45.4219 251.433 45.1406 250.292 44.5781C249.167 44.0156 248.284 43.2031 247.644 42.1406C247.019 41.0781 246.581 39.8047 246.331 38.3203C246.081 36.8203 245.956 35.1484 245.956 33.3047V20.2031C245.956 18.5625 246.12 17.0781 246.448 15.75C246.792 14.4219 247.315 13.2891 248.019 12.3516C248.737 11.4141 249.667 10.6953 250.808 10.1953C251.948 9.67969 253.323 9.42188 254.933 9.42188C256.573 9.42188 257.94 9.67188 259.034 10.1719C260.128 10.6719 260.987 11.3984 261.612 12.3516C262.253 13.3047 262.706 14.4531 262.972 15.7969C263.253 17.125 263.394 18.6328 263.394 20.3203V27.8438H252.214V34.7578C252.214 36.4609 252.347 37.8281 252.612 38.8594C252.878 39.8906 253.604 40.4062 254.792 40.4062C255.589 40.4062 256.151 40.1641 256.479 39.6797C256.823 39.1953 257.026 38.5312 257.089 37.6875C257.167 36.8281 257.206 35.8516 257.206 34.7578V31.6641H263.347V33.5391C263.347 35.4297 263.229 37.1094 262.995 38.5781C262.776 40.0469 262.354 41.2891 261.729 42.3047C261.12 43.3203 260.245 44.0938 259.104 44.625C257.964 45.1562 256.479 45.4219 254.651 45.4219ZM252.19 24.2109H257.206V19.7109C257.206 18.5391 257.151 17.5547 257.042 16.7578C256.933 15.9453 256.714 15.3359 256.386 14.9297C256.058 14.5234 255.558 14.3203 254.886 14.3203C254.058 14.3203 253.448 14.5625 253.058 15.0469C252.683 15.5312 252.44 16.1953 252.331 17.0391C252.237 17.8672 252.19 18.8125 252.19 19.875V24.2109Z" fill="#E0E0E0"/>
<path d="M275.909 45.4453C273.081 45.4453 270.979 44.6406 269.604 43.0312C268.229 41.4219 267.542 38.7891 267.542 35.1328V32.8594H273.378V35.6953C273.378 37.2266 273.565 38.3906 273.94 39.1875C274.315 39.9844 274.925 40.3828 275.769 40.3828C276.581 40.3828 277.183 40.1094 277.573 39.5625C277.964 39.0156 278.159 38.0703 278.159 36.7266C278.159 35.9453 278.042 35.1875 277.808 34.4531C277.589 33.7188 277.237 33 276.753 32.2969C276.284 31.5781 275.675 30.8828 274.925 30.2109L271.761 27.3516C270.308 26.0391 269.222 24.625 268.503 23.1094C267.784 21.5781 267.425 19.8906 267.425 18.0469C267.425 15.0625 268.12 12.8828 269.511 11.5078C270.917 10.1172 272.995 9.42188 275.745 9.42188C277.526 9.42188 279.003 9.75781 280.175 10.4297C281.347 11.0859 282.222 12.1562 282.8 13.6406C283.378 15.125 283.667 17.1172 283.667 19.6172V21.5391H278.112V19.2188C278.112 17.6719 277.933 16.5 277.573 15.7031C277.229 14.9062 276.636 14.5078 275.792 14.5078C274.964 14.5078 274.354 14.7422 273.964 15.2109C273.573 15.6641 273.362 16.4688 273.331 17.625C273.315 18.25 273.394 18.8672 273.565 19.4766C273.737 20.0703 274.003 20.6562 274.362 21.2344C274.737 21.7969 275.222 22.3516 275.815 22.8984L279.144 25.9219C280.894 27.5 282.183 29.1484 283.011 30.8672C283.854 32.5859 284.276 34.4453 284.276 36.4453C284.276 39.3984 283.604 41.6406 282.261 43.1719C280.917 44.6875 278.8 45.4453 275.909 45.4453Z" fill="#E0E0E0"/>
<path d="M288.94 45V9.84375H295.151V45H288.94ZM288.917 6.60938V1.21875H295.175V6.60938H288.917Z" fill="#E0E0E0"/>
<path d="M309.354 50.2734C307.417 50.3047 305.769 50.1172 304.409 49.7109C303.05 49.3203 301.815 48.6719 300.706 47.7656L302.886 43.8516C303.714 44.3828 304.612 44.8125 305.581 45.1406C306.565 45.4844 307.628 45.6484 308.769 45.6328C309.956 45.6172 310.862 45.2031 311.487 44.3906C312.112 43.5781 312.425 42.4922 312.425 41.1328V38.3438C312.019 39.5156 311.394 40.3203 310.55 40.7578C309.722 41.1953 308.714 41.4141 307.526 41.4141C305.87 41.4141 304.565 40.9766 303.612 40.1016C302.675 39.2266 302.011 38.0312 301.62 36.5156C301.229 35 301.034 33.2812 301.034 31.3594V20.0391C301.034 17.9922 301.237 16.1719 301.644 14.5781C302.05 12.9688 302.745 11.7031 303.729 10.7812C304.714 9.85938 306.065 9.40625 307.784 9.42188C308.987 9.42188 309.979 9.72656 310.761 10.3359C311.558 10.9453 312.112 11.8203 312.425 12.9609V9.84375H318.636V40.6641C318.636 42.0547 318.479 43.3359 318.167 44.5078C317.854 45.6641 317.339 46.6641 316.62 47.5078C315.901 48.3672 314.948 49.0312 313.761 49.5C312.573 49.9844 311.104 50.2422 309.354 50.2734ZM309.987 36.7031C310.55 36.7031 311.011 36.5391 311.37 36.2109C311.729 35.8672 311.995 35.2891 312.167 34.4766C312.339 33.6484 312.425 32.5 312.425 31.0312V19.5234C312.425 17.9766 312.237 16.7422 311.862 15.8203C311.487 14.8984 310.808 14.4375 309.823 14.4375C309.073 14.4375 308.519 14.6562 308.159 15.0938C307.8 15.5312 307.565 16.1328 307.456 16.8984C307.347 17.6484 307.292 18.5156 307.292 19.5V31.0781C307.292 32.8125 307.456 34.1875 307.784 35.2031C308.112 36.2031 308.847 36.7031 309.987 36.7031Z" fill="#E0E0E0"/>
<path d="M324.636 45V9.84375H330.847V13.875C331.159 12.6719 331.815 11.6328 332.815 10.7578C333.815 9.86719 335.042 9.42188 336.495 9.42188C338.526 9.42188 340.05 10.1016 341.065 11.4609C342.081 12.8047 342.589 14.7578 342.589 17.3203V45H336.378V17.6953C336.378 16.6797 336.144 15.8828 335.675 15.3047C335.222 14.7266 334.597 14.4375 333.8 14.4375C333.159 14.4375 332.612 14.6172 332.159 14.9766C331.722 15.3203 331.394 15.8047 331.175 16.4297C330.956 17.0391 330.847 17.7578 330.847 18.5859V45H324.636Z" fill="#E0E0E0"/>
</g>
<path d="M10.9014 45.4688C8.90137 45.4688 7.2373 45.0078 5.90918 44.0859C4.58105 43.1641 3.58105 41.8203 2.90918 40.0547C2.25293 38.2734 1.9248 36.125 1.9248 33.6094V15.6328C1.9248 13.7422 2.08105 12.0391 2.39355 10.5234C2.70605 9.00781 3.21387 7.71094 3.91699 6.63281C4.62012 5.55469 5.55762 4.72656 6.72949 4.14844C7.90137 3.57031 9.34668 3.28125 11.0654 3.28125C12.6279 3.28125 13.9561 3.53906 15.0498 4.05469C16.1592 4.55469 17.0576 5.28125 17.7451 6.23438C18.4482 7.1875 18.9561 8.34375 19.2686 9.70312C19.5967 11.0469 19.7607 12.5625 19.7607 14.25V19.9219H13.6904V14.6484C13.6904 12.6172 13.5186 11.125 13.1748 10.1719C12.8311 9.20312 12.1436 8.71875 11.1123 8.71875C9.97168 8.71875 9.20605 9.24219 8.81543 10.2891C8.44043 11.3203 8.25293 12.7656 8.25293 14.625V33.8906C8.25293 35.3281 8.33105 36.5078 8.4873 37.4297C8.65918 38.3359 8.94043 39.0078 9.33105 39.4453C9.72168 39.8672 10.2686 40.0781 10.9717 40.0781C12.0342 40.0781 12.7529 39.5781 13.1279 38.5781C13.5029 37.5781 13.6904 35.9922 13.6904 33.8203V27.9141H19.8545V33.75C19.8545 36.3594 19.5498 38.5391 18.9404 40.2891C18.3311 42.0234 17.3623 43.3203 16.0342 44.1797C14.7217 45.0391 13.0107 45.4688 10.9014 45.4688Z" stroke="#EAEAEA" stroke-width="2" mask="url(#path-1-outside-1_127_2791)"/>
<path d="M33.4717 45.4219C31.7842 45.4219 30.3701 45.1641 29.2295 44.6484C28.0889 44.1172 27.1826 43.3594 26.5107 42.375C25.8545 41.375 25.3779 40.1641 25.0811 38.7422C24.7998 37.3047 24.6592 35.6719 24.6592 33.8438V20.6953C24.6592 18.4922 24.9404 16.5469 25.5029 14.8594C26.0811 13.1562 27.0186 11.8281 28.3154 10.875C29.6123 9.90625 31.3311 9.42188 33.4717 9.42188C35.0967 9.42188 36.4639 9.69531 37.5732 10.2422C38.6982 10.7891 39.5967 11.5703 40.2686 12.5859C40.9561 13.5859 41.4561 14.7734 41.7686 16.1484C42.0811 17.5234 42.2373 19.0391 42.2373 20.6953V33.8438C42.2373 35.6406 42.0967 37.25 41.8154 38.6719C41.5498 40.0938 41.0811 41.3125 40.4092 42.3281C39.7529 43.3281 38.8623 44.0938 37.7373 44.625C36.6123 45.1562 35.1904 45.4219 33.4717 45.4219ZM33.4717 40.4062C34.1748 40.4062 34.7061 40.1953 35.0654 39.7734C35.4248 39.3359 35.667 38.7344 35.792 37.9688C35.917 37.2031 35.9795 36.3203 35.9795 35.3203V19.5938C35.9795 18.5312 35.9092 17.6172 35.7686 16.8516C35.6279 16.0859 35.3779 15.4922 35.0186 15.0703C34.6592 14.6484 34.1436 14.4375 33.4717 14.4375C32.7686 14.4375 32.2295 14.6484 31.8545 15.0703C31.4951 15.4922 31.2451 16.0859 31.1045 16.8516C30.9795 17.6172 30.917 18.5312 30.917 19.5938V35.3203C30.917 36.3203 30.9795 37.2031 31.1045 37.9688C31.2451 38.7344 31.4951 39.3359 31.8545 39.7734C32.2295 40.1953 32.7686 40.4062 33.4717 40.4062Z" stroke="#EAEAEA" stroke-width="2" mask="url(#path-1-outside-1_127_2791)"/>
<path d="M47.8857 45V9.84375H54.0967V13.6641C54.4404 12.4141 55.0654 11.3984 55.9717 10.6172C56.8936 9.82031 58.1436 9.42188 59.7217 9.42188C60.9248 9.42188 61.9717 9.6875 62.8623 10.2188C63.7529 10.75 64.4404 11.6641 64.9248 12.9609C65.5186 11.8672 66.2998 11.0078 67.2686 10.3828C68.2373 9.74219 69.4482 9.42188 70.9014 9.42188C73.1826 9.42188 74.7998 10.1875 75.7529 11.7188C76.7061 13.25 77.1826 15.3672 77.1826 18.0703V45H70.9951V18C70.9951 16.75 70.7842 15.8594 70.3623 15.3281C69.9404 14.7812 69.3623 14.5078 68.6279 14.5078C67.6904 14.5078 66.9561 14.8359 66.4248 15.4922C65.9092 16.1328 65.6514 17.0781 65.6514 18.3281V45H59.4404V17.9531C59.4404 16.9062 59.2607 16.0703 58.9014 15.4453C58.5576 14.8203 57.9717 14.5078 57.1436 14.5078C56.0654 14.5078 55.2842 14.9219 54.7998 15.75C54.3311 16.5625 54.0967 17.5312 54.0967 18.6562V45H47.8857Z" stroke="#EAEAEA" stroke-width="2" mask="url(#path-1-outside-1_127_2791)"/>
<path d="M83.1592 51.6797V9.84375H89.3701V13.0078C89.8232 11.8516 90.5342 10.9766 91.5029 10.3828C92.4717 9.78906 93.4482 9.49219 94.4326 9.49219C96.2295 9.49219 97.5889 9.97656 98.5107 10.9453C99.4326 11.8984 100.058 13.2031 100.386 14.8594C100.714 16.5156 100.878 18.375 100.878 20.4375V33.2578C100.878 35.5078 100.722 37.5547 100.409 39.3984C100.097 41.2422 99.4326 42.7109 98.417 43.8047C97.417 44.8828 95.8857 45.4219 93.8232 45.4219C92.8701 45.4219 92.0029 45.1641 91.2217 44.6484C90.4404 44.1328 89.8232 43.5391 89.3701 42.8672V51.6797H83.1592ZM92.1123 40.3828C93.1592 40.3828 93.8389 39.875 94.1514 38.8594C94.4639 37.8281 94.6201 36.3594 94.6201 34.4531V19.875C94.6201 18.8594 94.5654 17.9453 94.4561 17.1328C94.3623 16.3047 94.1436 15.6484 93.7998 15.1641C93.4561 14.6797 92.9092 14.4375 92.1592 14.4375C91.5811 14.4375 91.0811 14.5859 90.6592 14.8828C90.2529 15.1797 89.9326 15.7188 89.6982 16.5C89.4795 17.2812 89.3701 18.3984 89.3701 19.8516V34.7109C89.3701 36.5078 89.542 37.9062 89.8857 38.9062C90.2295 39.8906 90.9717 40.3828 92.1123 40.3828Z" stroke="#EAEAEA" stroke-width="2" mask="url(#path-1-outside-1_127_2791)"/>
<path d="M114.847 45.4219C113.159 45.4219 111.745 45.1641 110.604 44.6484C109.464 44.1172 108.558 43.3594 107.886 42.375C107.229 41.375 106.753 40.1641 106.456 38.7422C106.175 37.3047 106.034 35.6719 106.034 33.8438V20.6953C106.034 18.4922 106.315 16.5469 106.878 14.8594C107.456 13.1562 108.394 11.8281 109.69 10.875C110.987 9.90625 112.706 9.42188 114.847 9.42188C116.472 9.42188 117.839 9.69531 118.948 10.2422C120.073 10.7891 120.972 11.5703 121.644 12.5859C122.331 13.5859 122.831 14.7734 123.144 16.1484C123.456 17.5234 123.612 19.0391 123.612 20.6953V33.8438C123.612 35.6406 123.472 37.25 123.19 38.6719C122.925 40.0938 122.456 41.3125 121.784 42.3281C121.128 43.3281 120.237 44.0938 119.112 44.625C117.987 45.1562 116.565 45.4219 114.847 45.4219ZM114.847 40.4062C115.55 40.4062 116.081 40.1953 116.44 39.7734C116.8 39.3359 117.042 38.7344 117.167 37.9688C117.292 37.2031 117.354 36.3203 117.354 35.3203V19.5938C117.354 18.5312 117.284 17.6172 117.144 16.8516C117.003 16.0859 116.753 15.4922 116.394 15.0703C116.034 14.6484 115.519 14.4375 114.847 14.4375C114.144 14.4375 113.604 14.6484 113.229 15.0703C112.87 15.4922 112.62 16.0859 112.479 16.8516C112.354 17.6172 112.292 18.5312 112.292 19.5938V35.3203C112.292 36.3203 112.354 37.2031 112.479 37.9688C112.62 38.7344 112.87 39.3359 113.229 39.7734C113.604 40.1953 114.144 40.4062 114.847 40.4062Z" stroke="#EAEAEA" stroke-width="2" mask="url(#path-1-outside-1_127_2791)"/>
<path d="M129.261 45V9.84375H135.472V13.875C135.784 12.6719 136.44 11.6328 137.44 10.7578C138.44 9.86719 139.667 9.42188 141.12 9.42188C143.151 9.42188 144.675 10.1016 145.69 11.4609C146.706 12.8047 147.214 14.7578 147.214 17.3203V45H141.003V17.6953C141.003 16.6797 140.769 15.8828 140.3 15.3047C139.847 14.7266 139.222 14.4375 138.425 14.4375C137.784 14.4375 137.237 14.6172 136.784 14.9766C136.347 15.3203 136.019 15.8047 135.8 16.4297C135.581 17.0391 135.472 17.7578 135.472 18.5859V45H129.261Z" stroke="#EAEAEA" stroke-width="2" mask="url(#path-1-outside-1_127_2791)"/>
<path d="M161.37 45.4219C159.604 45.4219 158.151 45.1406 157.011 44.5781C155.886 44.0156 155.003 43.2031 154.362 42.1406C153.737 41.0781 153.3 39.8047 153.05 38.3203C152.8 36.8203 152.675 35.1484 152.675 33.3047V20.2031C152.675 18.5625 152.839 17.0781 153.167 15.75C153.511 14.4219 154.034 13.2891 154.737 12.3516C155.456 11.4141 156.386 10.6953 157.526 10.1953C158.667 9.67969 160.042 9.42188 161.651 9.42188C163.292 9.42188 164.659 9.67188 165.753 10.1719C166.847 10.6719 167.706 11.3984 168.331 12.3516C168.972 13.3047 169.425 14.4531 169.69 15.7969C169.972 17.125 170.112 18.6328 170.112 20.3203V27.8438H158.933V34.7578C158.933 36.4609 159.065 37.8281 159.331 38.8594C159.597 39.8906 160.323 40.4062 161.511 40.4062C162.308 40.4062 162.87 40.1641 163.198 39.6797C163.542 39.1953 163.745 38.5312 163.808 37.6875C163.886 36.8281 163.925 35.8516 163.925 34.7578V31.6641H170.065V33.5391C170.065 35.4297 169.948 37.1094 169.714 38.5781C169.495 40.0469 169.073 41.2891 168.448 42.3047C167.839 43.3203 166.964 44.0938 165.823 44.625C164.683 45.1562 163.198 45.4219 161.37 45.4219ZM158.909 24.2109H163.925V19.7109C163.925 18.5391 163.87 17.5547 163.761 16.7578C163.651 15.9453 163.433 15.3359 163.104 14.9297C162.776 14.5234 162.276 14.3203 161.604 14.3203C160.776 14.3203 160.167 14.5625 159.776 15.0469C159.401 15.5312 159.159 16.1953 159.05 17.0391C158.956 17.8672 158.909 18.8125 158.909 19.875V24.2109Z" stroke="#EAEAEA" stroke-width="2" mask="url(#path-1-outside-1_127_2791)"/>
<path d="M175.339 45V9.84375H181.55V13.875C181.862 12.6719 182.519 11.6328 183.519 10.7578C184.519 9.86719 185.745 9.42188 187.198 9.42188C189.229 9.42188 190.753 10.1016 191.769 11.4609C192.784 12.8047 193.292 14.7578 193.292 17.3203V45H187.081V17.6953C187.081 16.6797 186.847 15.8828 186.378 15.3047C185.925 14.7266 185.3 14.4375 184.503 14.4375C183.862 14.4375 183.315 14.6172 182.862 14.9766C182.425 15.3203 182.097 15.8047 181.878 16.4297C181.659 17.0391 181.55 17.7578 181.55 18.5859V45H175.339Z" stroke="#EAEAEA" stroke-width="2" mask="url(#path-1-outside-1_127_2791)"/>
<path d="M205.597 45.2344C204.097 45.2344 202.948 45.0469 202.151 44.6719C201.354 44.2812 200.808 43.6719 200.511 42.8438C200.214 42.0156 200.065 40.9453 200.065 39.6328V15.0703H197.206V10.5703H200.065V3.75H206.276V10.5703H209.698V15.0703H206.276V38.5547C206.276 39.1016 206.362 39.5156 206.534 39.7969C206.706 40.0781 207.042 40.2656 207.542 40.3594C208.058 40.4531 208.815 40.5 209.815 40.5V45.2344H205.597Z" stroke="#EAEAEA" stroke-width="2" mask="url(#path-1-outside-1_127_2791)"/>
<path d="M222.847 45V3.75H232.104C234.198 3.75 235.878 4.17188 237.144 5.01562C238.409 5.84375 239.323 7.04688 239.886 8.625C240.464 10.2031 240.753 12.1094 240.753 14.3438L240.776 32.9531C240.776 35.6562 240.479 37.9062 239.886 39.7031C239.308 41.4844 238.37 42.8125 237.073 43.6875C235.776 44.5625 234.05 45 231.894 45H222.847ZM229.128 40.125H231.19C231.925 40.125 232.534 39.9766 233.019 39.6797C233.519 39.3828 233.886 38.8594 234.12 38.1094C234.37 37.3438 234.495 36.2656 234.495 34.875L234.472 14.5078C234.472 12.3984 234.214 10.8828 233.698 9.96094C233.183 9.03906 232.276 8.57812 230.979 8.57812H229.128V40.125Z" stroke="#EAEAEA" stroke-width="2" mask="url(#path-1-outside-1_127_2791)"/>
<path d="M254.651 45.4219C252.886 45.4219 251.433 45.1406 250.292 44.5781C249.167 44.0156 248.284 43.2031 247.644 42.1406C247.019 41.0781 246.581 39.8047 246.331 38.3203C246.081 36.8203 245.956 35.1484 245.956 33.3047V20.2031C245.956 18.5625 246.12 17.0781 246.448 15.75C246.792 14.4219 247.315 13.2891 248.019 12.3516C248.737 11.4141 249.667 10.6953 250.808 10.1953C251.948 9.67969 253.323 9.42188 254.933 9.42188C256.573 9.42188 257.94 9.67188 259.034 10.1719C260.128 10.6719 260.987 11.3984 261.612 12.3516C262.253 13.3047 262.706 14.4531 262.972 15.7969C263.253 17.125 263.394 18.6328 263.394 20.3203V27.8438H252.214V34.7578C252.214 36.4609 252.347 37.8281 252.612 38.8594C252.878 39.8906 253.604 40.4062 254.792 40.4062C255.589 40.4062 256.151 40.1641 256.479 39.6797C256.823 39.1953 257.026 38.5312 257.089 37.6875C257.167 36.8281 257.206 35.8516 257.206 34.7578V31.6641H263.347V33.5391C263.347 35.4297 263.229 37.1094 262.995 38.5781C262.776 40.0469 262.354 41.2891 261.729 42.3047C261.12 43.3203 260.245 44.0938 259.104 44.625C257.964 45.1562 256.479 45.4219 254.651 45.4219ZM252.19 24.2109H257.206V19.7109C257.206 18.5391 257.151 17.5547 257.042 16.7578C256.933 15.9453 256.714 15.3359 256.386 14.9297C256.058 14.5234 255.558 14.3203 254.886 14.3203C254.058 14.3203 253.448 14.5625 253.058 15.0469C252.683 15.5312 252.44 16.1953 252.331 17.0391C252.237 17.8672 252.19 18.8125 252.19 19.875V24.2109Z" stroke="#EAEAEA" stroke-width="2" mask="url(#path-1-outside-1_127_2791)"/>
<path d="M275.909 45.4453C273.081 45.4453 270.979 44.6406 269.604 43.0312C268.229 41.4219 267.542 38.7891 267.542 35.1328V32.8594H273.378V35.6953C273.378 37.2266 273.565 38.3906 273.94 39.1875C274.315 39.9844 274.925 40.3828 275.769 40.3828C276.581 40.3828 277.183 40.1094 277.573 39.5625C277.964 39.0156 278.159 38.0703 278.159 36.7266C278.159 35.9453 278.042 35.1875 277.808 34.4531C277.589 33.7188 277.237 33 276.753 32.2969C276.284 31.5781 275.675 30.8828 274.925 30.2109L271.761 27.3516C270.308 26.0391 269.222 24.625 268.503 23.1094C267.784 21.5781 267.425 19.8906 267.425 18.0469C267.425 15.0625 268.12 12.8828 269.511 11.5078C270.917 10.1172 272.995 9.42188 275.745 9.42188C277.526 9.42188 279.003 9.75781 280.175 10.4297C281.347 11.0859 282.222 12.1562 282.8 13.6406C283.378 15.125 283.667 17.1172 283.667 19.6172V21.5391H278.112V19.2188C278.112 17.6719 277.933 16.5 277.573 15.7031C277.229 14.9062 276.636 14.5078 275.792 14.5078C274.964 14.5078 274.354 14.7422 273.964 15.2109C273.573 15.6641 273.362 16.4688 273.331 17.625C273.315 18.25 273.394 18.8672 273.565 19.4766C273.737 20.0703 274.003 20.6562 274.362 21.2344C274.737 21.7969 275.222 22.3516 275.815 22.8984L279.144 25.9219C280.894 27.5 282.183 29.1484 283.011 30.8672C283.854 32.5859 284.276 34.4453 284.276 36.4453C284.276 39.3984 283.604 41.6406 282.261 43.1719C280.917 44.6875 278.8 45.4453 275.909 45.4453Z" stroke="#EAEAEA" stroke-width="2" mask="url(#path-1-outside-1_127_2791)"/>
<path d="M288.94 45V9.84375H295.151V45H288.94ZM288.917 6.60938V1.21875H295.175V6.60938H288.917Z" stroke="#EAEAEA" stroke-width="2" mask="url(#path-1-outside-1_127_2791)"/>
<path d="M309.354 50.2734C307.417 50.3047 305.769 50.1172 304.409 49.7109C303.05 49.3203 301.815 48.6719 300.706 47.7656L302.886 43.8516C303.714 44.3828 304.612 44.8125 305.581 45.1406C306.565 45.4844 307.628 45.6484 308.769 45.6328C309.956 45.6172 310.862 45.2031 311.487 44.3906C312.112 43.5781 312.425 42.4922 312.425 41.1328V38.3438C312.019 39.5156 311.394 40.3203 310.55 40.7578C309.722 41.1953 308.714 41.4141 307.526 41.4141C305.87 41.4141 304.565 40.9766 303.612 40.1016C302.675 39.2266 302.011 38.0312 301.62 36.5156C301.229 35 301.034 33.2812 301.034 31.3594V20.0391C301.034 17.9922 301.237 16.1719 301.644 14.5781C302.05 12.9688 302.745 11.7031 303.729 10.7812C304.714 9.85938 306.065 9.40625 307.784 9.42188C308.987 9.42188 309.979 9.72656 310.761 10.3359C311.558 10.9453 312.112 11.8203 312.425 12.9609V9.84375H318.636V40.6641C318.636 42.0547 318.479 43.3359 318.167 44.5078C317.854 45.6641 317.339 46.6641 316.62 47.5078C315.901 48.3672 314.948 49.0312 313.761 49.5C312.573 49.9844 311.104 50.2422 309.354 50.2734ZM309.987 36.7031C310.55 36.7031 311.011 36.5391 311.37 36.2109C311.729 35.8672 311.995 35.2891 312.167 34.4766C312.339 33.6484 312.425 32.5 312.425 31.0312V19.5234C312.425 17.9766 312.237 16.7422 311.862 15.8203C311.487 14.8984 310.808 14.4375 309.823 14.4375C309.073 14.4375 308.519 14.6562 308.159 15.0938C307.8 15.5312 307.565 16.1328 307.456 16.8984C307.347 17.6484 307.292 18.5156 307.292 19.5V31.0781C307.292 32.8125 307.456 34.1875 307.784 35.2031C308.112 36.2031 308.847 36.7031 309.987 36.7031Z" stroke="#EAEAEA" stroke-width="2" mask="url(#path-1-outside-1_127_2791)"/>
<path d="M324.636 45V9.84375H330.847V13.875C331.159 12.6719 331.815 11.6328 332.815 10.7578C333.815 9.86719 335.042 9.42188 336.495 9.42188C338.526 9.42188 340.05 10.1016 341.065 11.4609C342.081 12.8047 342.589 14.7578 342.589 17.3203V45H336.378V17.6953C336.378 16.6797 336.144 15.8828 335.675 15.3047C335.222 14.7266 334.597 14.4375 333.8 14.4375C333.159 14.4375 332.612 14.6172 332.159 14.9766C331.722 15.3203 331.394 15.8047 331.175 16.4297C330.956 17.0391 330.847 17.7578 330.847 18.5859V45H324.636Z" stroke="#EAEAEA" stroke-width="2" mask="url(#path-1-outside-1_127_2791)"/>
<defs>
<filter id="filter0_ii_127_2791" x="-0.0751953" y="-0.78125" width="346.664" height="56.4609" filterUnits="userSpaceOnUse" color-interpolation-filters="sRGB">
<feFlood flood-opacity="0" result="BackgroundImageFix"/>
<feBlend mode="normal" in="SourceGraphic" in2="BackgroundImageFix" result="shape"/>
<feColorMatrix in="SourceAlpha" type="matrix" values="0 0 0 0 0 0 0 0 0 0 0 0 0 0 0 0 0 0 127 0" result="hardAlpha"/>
<feOffset dx="-1" dy="-1"/>
<feGaussianBlur stdDeviation="1.5"/>
<feComposite in2="hardAlpha" operator="arithmetic" k2="-1" k3="1"/>
<feColorMatrix type="matrix" values="0 0 0 0 0.984314 0 0 0 0 0.984314 0 0 0 0 0.984314 0 0 0 1 0"/>
<feBlend mode="normal" in2="shape" result="effect1_innerShadow_127_2791"/>
<feColorMatrix in="SourceAlpha" type="matrix" values="0 0 0 0 0 0 0 0 0 0 0 0 0 0 0 0 0 0 127 0" result="hardAlpha"/>
<feOffset dx="3" dy="3"/>
<feGaussianBlur stdDeviation="4.5"/>
<feComposite in2="hardAlpha" operator="arithmetic" k2="-1" k3="1"/>
<feColorMatrix type="matrix" values="0 0 0 0 0.772549 0 0 0 0 0.772549 0 0 0 0 0.772549 0 0 0 1 0"/>
<feBlend mode="normal" in2="effect1_innerShadow_127_2791" result="effect2_innerShadow_127_2791"/>
</filter>
</defs>
</svg>
