<svg width="264" height="45" viewBox="0 0 264 45" fill="none" xmlns="http://www.w3.org/2000/svg">
<mask id="path-1-outside-1_127_2783" maskUnits="userSpaceOnUse" x="0.401367" y="0.257812" width="264" height="45" fill="black">
<rect fill="white" x="0.401367" y="0.257812" width="264" height="45"/>
<path d="M10.3779 43.4688C8.37793 43.4688 6.71387 43.0078 5.38574 42.0859C4.05762 41.1641 3.05762 39.8203 2.38574 38.0547C1.72949 36.2734 1.40137 34.125 1.40137 31.6094V13.6328C1.40137 11.7422 1.55762 10.0391 1.87012 8.52344C2.18262 7.00781 2.69043 5.71094 3.39355 4.63281C4.09668 3.55469 5.03418 2.72656 6.20605 2.14844C7.37793 1.57031 8.82324 1.28125 10.542 1.28125C12.1045 1.28125 13.4326 1.53906 14.5264 2.05469C15.6357 2.55469 16.5342 3.28125 17.2217 4.23438C17.9248 5.1875 18.4326 6.34375 18.7451 7.70312C19.0732 9.04688 19.2373 10.5625 19.2373 12.25V17.9219H13.167V12.6484C13.167 10.6172 12.9951 9.125 12.6514 8.17188C12.3076 7.20312 11.6201 6.71875 10.5889 6.71875C9.44824 6.71875 8.68262 7.24219 8.29199 8.28906C7.91699 9.32031 7.72949 10.7656 7.72949 12.625V31.8906C7.72949 33.3281 7.80762 34.5078 7.96387 35.4297C8.13574 36.3359 8.41699 37.0078 8.80762 37.4453C9.19824 37.8672 9.74512 38.0781 10.4482 38.0781C11.5107 38.0781 12.2295 37.5781 12.6045 36.5781C12.9795 35.5781 13.167 33.9922 13.167 31.8203V25.9141H19.3311V31.75C19.3311 34.3594 19.0264 36.5391 18.417 38.2891C17.8076 40.0234 16.8389 41.3203 15.5107 42.1797C14.1982 43.0391 12.4873 43.4688 10.3779 43.4688Z"/>
<path d="M32.1748 43.4688C30.4561 43.4688 29.0186 43.2031 27.8623 42.6719C26.7217 42.125 25.8154 41.3359 25.1436 40.3047C24.4873 39.2578 24.0186 37.9922 23.7373 36.5078C23.4561 35.0078 23.3154 33.3047 23.3154 31.3984V27.7188H29.2686V31.8672C29.2686 34.0859 29.4561 35.6797 29.8311 36.6484C30.2061 37.6172 30.9482 38.1016 32.0576 38.1016C32.8076 38.1016 33.3701 37.9297 33.7451 37.5859C34.1357 37.2266 34.3936 36.6641 34.5186 35.8984C34.6592 35.1172 34.7295 34.1016 34.7295 32.8516C34.7295 31.3047 34.4014 29.8906 33.7451 28.6094C33.1045 27.3281 32.1279 26 30.8154 24.625L27.7686 21.4844C26.9248 20.6094 26.1592 19.6797 25.4717 18.6953C24.7998 17.7109 24.2607 16.6172 23.8545 15.4141C23.4639 14.1953 23.2686 12.8359 23.2686 11.3359C23.2686 9.16406 23.5342 7.32812 24.0654 5.82812C24.5967 4.32812 25.4951 3.19531 26.7607 2.42969C28.0264 1.64844 29.7607 1.25781 31.9639 1.25781C33.6201 1.25781 34.9795 1.51562 36.042 2.03125C37.1201 2.53125 37.9561 3.27344 38.5498 4.25781C39.1592 5.22656 39.5889 6.41406 39.8389 7.82031C40.0889 9.21094 40.2139 10.8047 40.2139 12.6016V15.1562H34.4248V12.2031C34.4248 10.9531 34.3545 9.91406 34.2139 9.08594C34.0889 8.25781 33.8467 7.64062 33.4873 7.23438C33.1279 6.8125 32.6045 6.60156 31.917 6.60156C31.2607 6.60156 30.7295 6.75 30.3232 7.04688C29.917 7.32812 29.6201 7.77344 29.4326 8.38281C29.2607 8.97656 29.1748 9.75 29.1748 10.7031C29.1748 11.5625 29.2842 12.3047 29.5029 12.9297C29.7217 13.5547 30.0576 14.1562 30.5107 14.7344C30.9639 15.3125 31.5264 15.9609 32.1982 16.6797L35.5967 20.3594C37.2217 22.1094 38.4873 23.9297 39.3936 25.8203C40.2998 27.7109 40.7529 29.8203 40.7529 32.1484C40.7529 34.6172 40.4873 36.6953 39.9561 38.3828C39.4248 40.0547 38.5342 41.3203 37.2842 42.1797C36.0342 43.0391 34.3311 43.4688 32.1748 43.4688Z"/>
<path d="M52.7061 43.4688C50.9873 43.4688 49.5498 43.2031 48.3936 42.6719C47.2529 42.125 46.3467 41.3359 45.6748 40.3047C45.0186 39.2578 44.5498 37.9922 44.2686 36.5078C43.9873 35.0078 43.8467 33.3047 43.8467 31.3984V27.7188H49.7998V31.8672C49.7998 34.0859 49.9873 35.6797 50.3623 36.6484C50.7373 37.6172 51.4795 38.1016 52.5889 38.1016C53.3389 38.1016 53.9014 37.9297 54.2764 37.5859C54.667 37.2266 54.9248 36.6641 55.0498 35.8984C55.1904 35.1172 55.2607 34.1016 55.2607 32.8516C55.2607 31.3047 54.9326 29.8906 54.2764 28.6094C53.6357 27.3281 52.6592 26 51.3467 24.625L48.2998 21.4844C47.4561 20.6094 46.6904 19.6797 46.0029 18.6953C45.3311 17.7109 44.792 16.6172 44.3857 15.4141C43.9951 14.1953 43.7998 12.8359 43.7998 11.3359C43.7998 9.16406 44.0654 7.32812 44.5967 5.82812C45.1279 4.32812 46.0264 3.19531 47.292 2.42969C48.5576 1.64844 50.292 1.25781 52.4951 1.25781C54.1514 1.25781 55.5107 1.51562 56.5732 2.03125C57.6514 2.53125 58.4873 3.27344 59.0811 4.25781C59.6904 5.22656 60.1201 6.41406 60.3701 7.82031C60.6201 9.21094 60.7451 10.8047 60.7451 12.6016V15.1562H54.9561V12.2031C54.9561 10.9531 54.8857 9.91406 54.7451 9.08594C54.6201 8.25781 54.3779 7.64062 54.0186 7.23438C53.6592 6.8125 53.1357 6.60156 52.4482 6.60156C51.792 6.60156 51.2607 6.75 50.8545 7.04688C50.4482 7.32812 50.1514 7.77344 49.9639 8.38281C49.792 8.97656 49.7061 9.75 49.7061 10.7031C49.7061 11.5625 49.8154 12.3047 50.0342 12.9297C50.2529 13.5547 50.5889 14.1562 51.042 14.7344C51.4951 15.3125 52.0576 15.9609 52.7295 16.6797L56.1279 20.3594C57.7529 22.1094 59.0186 23.9297 59.9248 25.8203C60.8311 27.7109 61.2842 29.8203 61.2842 32.1484C61.2842 34.6172 61.0186 36.6953 60.4873 38.3828C59.9561 40.0547 59.0654 41.3203 57.8154 42.1797C56.5654 43.0391 54.8623 43.4688 52.7061 43.4688Z"/>
<path d="M74.3389 43V1.75H84.7217C86.8779 1.75 88.4873 2.17188 89.5498 3.01562C90.6123 3.85938 91.3076 5.09375 91.6357 6.71875C91.9795 8.34375 92.1514 10.3281 92.1514 12.6719C92.1514 15.0938 91.9014 17 91.4014 18.3906C90.917 19.7656 89.917 20.6875 88.4014 21.1562C89.1201 21.2812 89.7217 21.5781 90.2061 22.0469C90.6904 22.5 91.0811 23.1719 91.3779 24.0625C91.6748 24.9375 91.8857 26.0703 92.0107 27.4609C92.1514 28.8359 92.2217 30.5234 92.2217 32.5234C92.2217 32.6797 92.2217 33.1172 92.2217 33.8359C92.2217 34.5547 92.2217 35.4062 92.2217 36.3906C92.2373 37.3594 92.2529 38.3281 92.2686 39.2969C92.2842 40.2656 92.3076 41.0938 92.3389 41.7812C92.3701 42.4688 92.4092 42.875 92.4561 43H86.1748C86.1279 42.9219 86.0889 42.5234 86.0576 41.8047C86.042 41.0703 86.0186 40.1406 85.9873 39.0156C85.9717 37.8906 85.9561 36.6797 85.9404 35.3828C85.9404 34.0859 85.9404 32.8125 85.9404 31.5625C85.9404 30.2969 85.9404 29.1797 85.9404 28.2109C85.9404 26.9766 85.8467 26.0469 85.6592 25.4219C85.4873 24.7812 85.1592 24.3359 84.6748 24.0859C84.2061 23.8359 83.5264 23.6875 82.6357 23.6406L80.6201 23.5234V43H74.3389ZM80.6436 18.6484H83.1514C83.917 18.6484 84.4951 18.4766 84.8857 18.1328C85.292 17.7891 85.5654 17.1562 85.7061 16.2344C85.8623 15.3125 85.9404 13.9844 85.9404 12.25V11.9922C85.9404 10.5391 85.8701 9.42188 85.7295 8.64062C85.5889 7.85938 85.292 7.32031 84.8389 7.02344C84.4014 6.72656 83.7139 6.57812 82.7764 6.57812H80.6436V18.6484Z"/>
<path d="M105.769 43.4219C104.003 43.4219 102.55 43.1406 101.409 42.5781C100.284 42.0156 99.4014 41.2031 98.7607 40.1406C98.1357 39.0781 97.6982 37.8047 97.4482 36.3203C97.1982 34.8203 97.0732 33.1484 97.0732 31.3047V18.2031C97.0732 16.5625 97.2373 15.0781 97.5654 13.75C97.9092 12.4219 98.4326 11.2891 99.1357 10.3516C99.8545 9.41406 100.784 8.69531 101.925 8.19531C103.065 7.67969 104.44 7.42188 106.05 7.42188C107.69 7.42188 109.058 7.67188 110.151 8.17188C111.245 8.67188 112.104 9.39844 112.729 10.3516C113.37 11.3047 113.823 12.4531 114.089 13.7969C114.37 15.125 114.511 16.6328 114.511 18.3203V25.8438H103.331V32.7578C103.331 34.4609 103.464 35.8281 103.729 36.8594C103.995 37.8906 104.722 38.4062 105.909 38.4062C106.706 38.4062 107.269 38.1641 107.597 37.6797C107.94 37.1953 108.144 36.5312 108.206 35.6875C108.284 34.8281 108.323 33.8516 108.323 32.7578V29.6641H114.464V31.5391C114.464 33.4297 114.347 35.1094 114.112 36.5781C113.894 38.0469 113.472 39.2891 112.847 40.3047C112.237 41.3203 111.362 42.0938 110.222 42.625C109.081 43.1562 107.597 43.4219 105.769 43.4219ZM103.308 22.2109H108.323V17.7109C108.323 16.5391 108.269 15.5547 108.159 14.7578C108.05 13.9453 107.831 13.3359 107.503 12.9297C107.175 12.5234 106.675 12.3203 106.003 12.3203C105.175 12.3203 104.565 12.5625 104.175 13.0469C103.8 13.5312 103.558 14.1953 103.448 15.0391C103.354 15.8672 103.308 16.8125 103.308 17.875V22.2109Z"/>
<path d="M127.026 43.4453C124.198 43.4453 122.097 42.6406 120.722 41.0312C119.347 39.4219 118.659 36.7891 118.659 33.1328V30.8594H124.495V33.6953C124.495 35.2266 124.683 36.3906 125.058 37.1875C125.433 37.9844 126.042 38.3828 126.886 38.3828C127.698 38.3828 128.3 38.1094 128.69 37.5625C129.081 37.0156 129.276 36.0703 129.276 34.7266C129.276 33.9453 129.159 33.1875 128.925 32.4531C128.706 31.7188 128.354 31 127.87 30.2969C127.401 29.5781 126.792 28.8828 126.042 28.2109L122.878 25.3516C121.425 24.0391 120.339 22.625 119.62 21.1094C118.901 19.5781 118.542 17.8906 118.542 16.0469C118.542 13.0625 119.237 10.8828 120.628 9.50781C122.034 8.11719 124.112 7.42188 126.862 7.42188C128.644 7.42188 130.12 7.75781 131.292 8.42969C132.464 9.08594 133.339 10.1562 133.917 11.6406C134.495 13.125 134.784 15.1172 134.784 17.6172V19.5391H129.229V17.2188C129.229 15.6719 129.05 14.5 128.69 13.7031C128.347 12.9062 127.753 12.5078 126.909 12.5078C126.081 12.5078 125.472 12.7422 125.081 13.2109C124.69 13.6641 124.479 14.4688 124.448 15.625C124.433 16.25 124.511 16.8672 124.683 17.4766C124.854 18.0703 125.12 18.6562 125.479 19.2344C125.854 19.7969 126.339 20.3516 126.933 20.8984L130.261 23.9219C132.011 25.5 133.3 27.1484 134.128 28.8672C134.972 30.5859 135.394 32.4453 135.394 34.4453C135.394 37.3984 134.722 39.6406 133.378 41.1719C132.034 42.6875 129.917 43.4453 127.026 43.4453Z"/>
<path d="M148.261 43.4219C146.573 43.4219 145.159 43.1641 144.019 42.6484C142.878 42.1172 141.972 41.3594 141.3 40.375C140.644 39.375 140.167 38.1641 139.87 36.7422C139.589 35.3047 139.448 33.6719 139.448 31.8438V18.6953C139.448 16.4922 139.729 14.5469 140.292 12.8594C140.87 11.1562 141.808 9.82812 143.104 8.875C144.401 7.90625 146.12 7.42188 148.261 7.42188C149.886 7.42188 151.253 7.69531 152.362 8.24219C153.487 8.78906 154.386 9.57031 155.058 10.5859C155.745 11.5859 156.245 12.7734 156.558 14.1484C156.87 15.5234 157.026 17.0391 157.026 18.6953V31.8438C157.026 33.6406 156.886 35.25 156.604 36.6719C156.339 38.0938 155.87 39.3125 155.198 40.3281C154.542 41.3281 153.651 42.0938 152.526 42.625C151.401 43.1562 149.979 43.4219 148.261 43.4219ZM148.261 38.4062C148.964 38.4062 149.495 38.1953 149.854 37.7734C150.214 37.3359 150.456 36.7344 150.581 35.9688C150.706 35.2031 150.769 34.3203 150.769 33.3203V17.5938C150.769 16.5312 150.698 15.6172 150.558 14.8516C150.417 14.0859 150.167 13.4922 149.808 13.0703C149.448 12.6484 148.933 12.4375 148.261 12.4375C147.558 12.4375 147.019 12.6484 146.644 13.0703C146.284 13.4922 146.034 14.0859 145.894 14.8516C145.769 15.6172 145.706 16.5312 145.706 17.5938V33.3203C145.706 34.3203 145.769 35.2031 145.894 35.9688C146.034 36.7344 146.284 37.3359 146.644 37.7734C147.019 38.1953 147.558 38.4062 148.261 38.4062Z"/>
<path d="M168.722 43.4453C167.331 43.4453 166.167 43.1328 165.229 42.5078C164.308 41.8828 163.612 40.9531 163.144 39.7188C162.69 38.4688 162.464 36.9062 162.464 35.0312V7.84375H168.698V34.0703C168.698 35.4141 168.862 36.4609 169.19 37.2109C169.519 37.9609 170.206 38.3359 171.253 38.3359C172.347 38.3359 173.089 37.9141 173.479 37.0703C173.886 36.2109 174.089 35.2266 174.089 34.1172L174.112 7.84375H180.3V43H174.089V39.3438C173.651 40.5312 173.019 41.5156 172.19 42.2969C171.362 43.0625 170.206 43.4453 168.722 43.4453Z"/>
<path d="M186.37 43V7.84375H192.628V11.7578C193.034 10.3984 193.737 9.33594 194.737 8.57031C195.753 7.80469 197.042 7.42188 198.604 7.42188C198.636 7.42188 198.651 7.6875 198.651 8.21875C198.667 8.75 198.675 9.35938 198.675 10.0469C198.675 10.7344 198.675 11.3438 198.675 11.875C198.675 12.4062 198.675 12.6719 198.675 12.6719C197.956 12.6719 197.175 12.7578 196.331 12.9297C195.503 13.1016 194.745 13.3672 194.058 13.7266C193.386 14.0703 192.909 14.5312 192.628 15.1094V43H186.37Z"/>
<path d="M211.214 43.4219C209.417 43.4219 207.933 43.1484 206.761 42.6016C205.589 42.0391 204.667 41.2344 203.995 40.1875C203.339 39.1406 202.878 37.8672 202.612 36.3672C202.347 34.8672 202.214 33.1719 202.214 31.2812V19.8906C202.214 17.2969 202.456 15.0703 202.94 13.2109C203.425 11.3516 204.315 9.92188 205.612 8.92188C206.925 7.92188 208.815 7.42188 211.284 7.42188C212.8 7.42188 214.081 7.65625 215.128 8.125C216.175 8.59375 217.019 9.27344 217.659 10.1641C218.3 11.0391 218.761 12.1016 219.042 13.3516C219.339 14.6016 219.487 16.0078 219.487 17.5703V21.4375H213.487V17.3594C213.487 16.3438 213.44 15.4766 213.347 14.7578C213.253 14.0234 213.042 13.4688 212.714 13.0938C212.386 12.7031 211.862 12.5078 211.144 12.5078C210.44 12.5078 209.894 12.7031 209.503 13.0938C209.112 13.4844 208.839 14.0547 208.683 14.8047C208.542 15.5391 208.472 16.4219 208.472 17.4531V33.2969C208.472 34.3594 208.534 35.2656 208.659 36.0156C208.8 36.7656 209.05 37.3438 209.409 37.75C209.784 38.1406 210.331 38.3359 211.05 38.3359C211.753 38.3359 212.276 38.1328 212.62 37.7266C212.979 37.3047 213.214 36.7188 213.323 35.9688C213.433 35.2188 213.487 34.3359 213.487 33.3203V29.1484H219.487V32.7109C219.487 34.3203 219.347 35.7891 219.065 37.1172C218.784 38.4297 218.323 39.5547 217.683 40.4922C217.042 41.4297 216.19 42.1562 215.128 42.6719C214.065 43.1719 212.761 43.4219 211.214 43.4219Z"/>
<path d="M232.894 43.4219C231.128 43.4219 229.675 43.1406 228.534 42.5781C227.409 42.0156 226.526 41.2031 225.886 40.1406C225.261 39.0781 224.823 37.8047 224.573 36.3203C224.323 34.8203 224.198 33.1484 224.198 31.3047V18.2031C224.198 16.5625 224.362 15.0781 224.69 13.75C225.034 12.4219 225.558 11.2891 226.261 10.3516C226.979 9.41406 227.909 8.69531 229.05 8.19531C230.19 7.67969 231.565 7.42188 233.175 7.42188C234.815 7.42188 236.183 7.67188 237.276 8.17188C238.37 8.67188 239.229 9.39844 239.854 10.3516C240.495 11.3047 240.948 12.4531 241.214 13.7969C241.495 15.125 241.636 16.6328 241.636 18.3203V25.8438H230.456V32.7578C230.456 34.4609 230.589 35.8281 230.854 36.8594C231.12 37.8906 231.847 38.4062 233.034 38.4062C233.831 38.4062 234.394 38.1641 234.722 37.6797C235.065 37.1953 235.269 36.5312 235.331 35.6875C235.409 34.8281 235.448 33.8516 235.448 32.7578V29.6641H241.589V31.5391C241.589 33.4297 241.472 35.1094 241.237 36.5781C241.019 38.0469 240.597 39.2891 239.972 40.3047C239.362 41.3203 238.487 42.0938 237.347 42.625C236.206 43.1562 234.722 43.4219 232.894 43.4219ZM230.433 22.2109H235.448V17.7109C235.448 16.5391 235.394 15.5547 235.284 14.7578C235.175 13.9453 234.956 13.3359 234.628 12.9297C234.3 12.5234 233.8 12.3203 233.128 12.3203C232.3 12.3203 231.69 12.5625 231.3 13.0469C230.925 13.5312 230.683 14.1953 230.573 15.0391C230.479 15.8672 230.433 16.8125 230.433 17.875V22.2109Z"/>
<path d="M254.151 43.4453C251.323 43.4453 249.222 42.6406 247.847 41.0312C246.472 39.4219 245.784 36.7891 245.784 33.1328V30.8594H251.62V33.6953C251.62 35.2266 251.808 36.3906 252.183 37.1875C252.558 37.9844 253.167 38.3828 254.011 38.3828C254.823 38.3828 255.425 38.1094 255.815 37.5625C256.206 37.0156 256.401 36.0703 256.401 34.7266C256.401 33.9453 256.284 33.1875 256.05 32.4531C255.831 31.7188 255.479 31 254.995 30.2969C254.526 29.5781 253.917 28.8828 253.167 28.2109L250.003 25.3516C248.55 24.0391 247.464 22.625 246.745 21.1094C246.026 19.5781 245.667 17.8906 245.667 16.0469C245.667 13.0625 246.362 10.8828 247.753 9.50781C249.159 8.11719 251.237 7.42188 253.987 7.42188C255.769 7.42188 257.245 7.75781 258.417 8.42969C259.589 9.08594 260.464 10.1562 261.042 11.6406C261.62 13.125 261.909 15.1172 261.909 17.6172V19.5391H256.354V17.2188C256.354 15.6719 256.175 14.5 255.815 13.7031C255.472 12.9062 254.878 12.5078 254.034 12.5078C253.206 12.5078 252.597 12.7422 252.206 13.2109C251.815 13.6641 251.604 14.4688 251.573 15.625C251.558 16.25 251.636 16.8672 251.808 17.4766C251.979 18.0703 252.245 18.6562 252.604 19.2344C252.979 19.7969 253.464 20.3516 254.058 20.8984L257.386 23.9219C259.136 25.5 260.425 27.1484 261.253 28.8672C262.097 30.5859 262.519 32.4453 262.519 34.4453C262.519 37.3984 261.847 39.6406 260.503 41.1719C259.159 42.6875 257.042 43.4453 254.151 43.4453Z"/>
</mask>
<g filter="url(#filter0_ii_127_2783)">
<path d="M10.3779 43.4688C8.37793 43.4688 6.71387 43.0078 5.38574 42.0859C4.05762 41.1641 3.05762 39.8203 2.38574 38.0547C1.72949 36.2734 1.40137 34.125 1.40137 31.6094V13.6328C1.40137 11.7422 1.55762 10.0391 1.87012 8.52344C2.18262 7.00781 2.69043 5.71094 3.39355 4.63281C4.09668 3.55469 5.03418 2.72656 6.20605 2.14844C7.37793 1.57031 8.82324 1.28125 10.542 1.28125C12.1045 1.28125 13.4326 1.53906 14.5264 2.05469C15.6357 2.55469 16.5342 3.28125 17.2217 4.23438C17.9248 5.1875 18.4326 6.34375 18.7451 7.70312C19.0732 9.04688 19.2373 10.5625 19.2373 12.25V17.9219H13.167V12.6484C13.167 10.6172 12.9951 9.125 12.6514 8.17188C12.3076 7.20312 11.6201 6.71875 10.5889 6.71875C9.44824 6.71875 8.68262 7.24219 8.29199 8.28906C7.91699 9.32031 7.72949 10.7656 7.72949 12.625V31.8906C7.72949 33.3281 7.80762 34.5078 7.96387 35.4297C8.13574 36.3359 8.41699 37.0078 8.80762 37.4453C9.19824 37.8672 9.74512 38.0781 10.4482 38.0781C11.5107 38.0781 12.2295 37.5781 12.6045 36.5781C12.9795 35.5781 13.167 33.9922 13.167 31.8203V25.9141H19.3311V31.75C19.3311 34.3594 19.0264 36.5391 18.417 38.2891C17.8076 40.0234 16.8389 41.3203 15.5107 42.1797C14.1982 43.0391 12.4873 43.4688 10.3779 43.4688Z" fill="#E0E0E0"/>
<path d="M32.1748 43.4688C30.4561 43.4688 29.0186 43.2031 27.8623 42.6719C26.7217 42.125 25.8154 41.3359 25.1436 40.3047C24.4873 39.2578 24.0186 37.9922 23.7373 36.5078C23.4561 35.0078 23.3154 33.3047 23.3154 31.3984V27.7188H29.2686V31.8672C29.2686 34.0859 29.4561 35.6797 29.8311 36.6484C30.2061 37.6172 30.9482 38.1016 32.0576 38.1016C32.8076 38.1016 33.3701 37.9297 33.7451 37.5859C34.1357 37.2266 34.3936 36.6641 34.5186 35.8984C34.6592 35.1172 34.7295 34.1016 34.7295 32.8516C34.7295 31.3047 34.4014 29.8906 33.7451 28.6094C33.1045 27.3281 32.1279 26 30.8154 24.625L27.7686 21.4844C26.9248 20.6094 26.1592 19.6797 25.4717 18.6953C24.7998 17.7109 24.2607 16.6172 23.8545 15.4141C23.4639 14.1953 23.2686 12.8359 23.2686 11.3359C23.2686 9.16406 23.5342 7.32812 24.0654 5.82812C24.5967 4.32812 25.4951 3.19531 26.7607 2.42969C28.0264 1.64844 29.7607 1.25781 31.9639 1.25781C33.6201 1.25781 34.9795 1.51562 36.042 2.03125C37.1201 2.53125 37.9561 3.27344 38.5498 4.25781C39.1592 5.22656 39.5889 6.41406 39.8389 7.82031C40.0889 9.21094 40.2139 10.8047 40.2139 12.6016V15.1562H34.4248V12.2031C34.4248 10.9531 34.3545 9.91406 34.2139 9.08594C34.0889 8.25781 33.8467 7.64062 33.4873 7.23438C33.1279 6.8125 32.6045 6.60156 31.917 6.60156C31.2607 6.60156 30.7295 6.75 30.3232 7.04688C29.917 7.32812 29.6201 7.77344 29.4326 8.38281C29.2607 8.97656 29.1748 9.75 29.1748 10.7031C29.1748 11.5625 29.2842 12.3047 29.5029 12.9297C29.7217 13.5547 30.0576 14.1562 30.5107 14.7344C30.9639 15.3125 31.5264 15.9609 32.1982 16.6797L35.5967 20.3594C37.2217 22.1094 38.4873 23.9297 39.3936 25.8203C40.2998 27.7109 40.7529 29.8203 40.7529 32.1484C40.7529 34.6172 40.4873 36.6953 39.9561 38.3828C39.4248 40.0547 38.5342 41.3203 37.2842 42.1797C36.0342 43.0391 34.3311 43.4688 32.1748 43.4688Z" fill="#E0E0E0"/>
<path d="M52.7061 43.4688C50.9873 43.4688 49.5498 43.2031 48.3936 42.6719C47.2529 42.125 46.3467 41.3359 45.6748 40.3047C45.0186 39.2578 44.5498 37.9922 44.2686 36.5078C43.9873 35.0078 43.8467 33.3047 43.8467 31.3984V27.7188H49.7998V31.8672C49.7998 34.0859 49.9873 35.6797 50.3623 36.6484C50.7373 37.6172 51.4795 38.1016 52.5889 38.1016C53.3389 38.1016 53.9014 37.9297 54.2764 37.5859C54.667 37.2266 54.9248 36.6641 55.0498 35.8984C55.1904 35.1172 55.2607 34.1016 55.2607 32.8516C55.2607 31.3047 54.9326 29.8906 54.2764 28.6094C53.6357 27.3281 52.6592 26 51.3467 24.625L48.2998 21.4844C47.4561 20.6094 46.6904 19.6797 46.0029 18.6953C45.3311 17.7109 44.792 16.6172 44.3857 15.4141C43.9951 14.1953 43.7998 12.8359 43.7998 11.3359C43.7998 9.16406 44.0654 7.32812 44.5967 5.82812C45.1279 4.32812 46.0264 3.19531 47.292 2.42969C48.5576 1.64844 50.292 1.25781 52.4951 1.25781C54.1514 1.25781 55.5107 1.51562 56.5732 2.03125C57.6514 2.53125 58.4873 3.27344 59.0811 4.25781C59.6904 5.22656 60.1201 6.41406 60.3701 7.82031C60.6201 9.21094 60.7451 10.8047 60.7451 12.6016V15.1562H54.9561V12.2031C54.9561 10.9531 54.8857 9.91406 54.7451 9.08594C54.6201 8.25781 54.3779 7.64062 54.0186 7.23438C53.6592 6.8125 53.1357 6.60156 52.4482 6.60156C51.792 6.60156 51.2607 6.75 50.8545 7.04688C50.4482 7.32812 50.1514 7.77344 49.9639 8.38281C49.792 8.97656 49.7061 9.75 49.7061 10.7031C49.7061 11.5625 49.8154 12.3047 50.0342 12.9297C50.2529 13.5547 50.5889 14.1562 51.042 14.7344C51.4951 15.3125 52.0576 15.9609 52.7295 16.6797L56.1279 20.3594C57.7529 22.1094 59.0186 23.9297 59.9248 25.8203C60.8311 27.7109 61.2842 29.8203 61.2842 32.1484C61.2842 34.6172 61.0186 36.6953 60.4873 38.3828C59.9561 40.0547 59.0654 41.3203 57.8154 42.1797C56.5654 43.0391 54.8623 43.4688 52.7061 43.4688Z" fill="#E0E0E0"/>
<path d="M74.3389 43V1.75H84.7217C86.8779 1.75 88.4873 2.17188 89.5498 3.01562C90.6123 3.85938 91.3076 5.09375 91.6357 6.71875C91.9795 8.34375 92.1514 10.3281 92.1514 12.6719C92.1514 15.0938 91.9014 17 91.4014 18.3906C90.917 19.7656 89.917 20.6875 88.4014 21.1562C89.1201 21.2812 89.7217 21.5781 90.2061 22.0469C90.6904 22.5 91.0811 23.1719 91.3779 24.0625C91.6748 24.9375 91.8857 26.0703 92.0107 27.4609C92.1514 28.8359 92.2217 30.5234 92.2217 32.5234C92.2217 32.6797 92.2217 33.1172 92.2217 33.8359C92.2217 34.5547 92.2217 35.4062 92.2217 36.3906C92.2373 37.3594 92.2529 38.3281 92.2686 39.2969C92.2842 40.2656 92.3076 41.0938 92.3389 41.7812C92.3701 42.4688 92.4092 42.875 92.4561 43H86.1748C86.1279 42.9219 86.0889 42.5234 86.0576 41.8047C86.042 41.0703 86.0186 40.1406 85.9873 39.0156C85.9717 37.8906 85.9561 36.6797 85.9404 35.3828C85.9404 34.0859 85.9404 32.8125 85.9404 31.5625C85.9404 30.2969 85.9404 29.1797 85.9404 28.2109C85.9404 26.9766 85.8467 26.0469 85.6592 25.4219C85.4873 24.7812 85.1592 24.3359 84.6748 24.0859C84.2061 23.8359 83.5264 23.6875 82.6357 23.6406L80.6201 23.5234V43H74.3389ZM80.6436 18.6484H83.1514C83.917 18.6484 84.4951 18.4766 84.8857 18.1328C85.292 17.7891 85.5654 17.1562 85.7061 16.2344C85.8623 15.3125 85.9404 13.9844 85.9404 12.25V11.9922C85.9404 10.5391 85.8701 9.42188 85.7295 8.64062C85.5889 7.85938 85.292 7.32031 84.8389 7.02344C84.4014 6.72656 83.7139 6.57812 82.7764 6.57812H80.6436V18.6484Z" fill="#E0E0E0"/>
<path d="M105.769 43.4219C104.003 43.4219 102.55 43.1406 101.409 42.5781C100.284 42.0156 99.4014 41.2031 98.7607 40.1406C98.1357 39.0781 97.6982 37.8047 97.4482 36.3203C97.1982 34.8203 97.0732 33.1484 97.0732 31.3047V18.2031C97.0732 16.5625 97.2373 15.0781 97.5654 13.75C97.9092 12.4219 98.4326 11.2891 99.1357 10.3516C99.8545 9.41406 100.784 8.69531 101.925 8.19531C103.065 7.67969 104.44 7.42188 106.05 7.42188C107.69 7.42188 109.058 7.67188 110.151 8.17188C111.245 8.67188 112.104 9.39844 112.729 10.3516C113.37 11.3047 113.823 12.4531 114.089 13.7969C114.37 15.125 114.511 16.6328 114.511 18.3203V25.8438H103.331V32.7578C103.331 34.4609 103.464 35.8281 103.729 36.8594C103.995 37.8906 104.722 38.4062 105.909 38.4062C106.706 38.4062 107.269 38.1641 107.597 37.6797C107.94 37.1953 108.144 36.5312 108.206 35.6875C108.284 34.8281 108.323 33.8516 108.323 32.7578V29.6641H114.464V31.5391C114.464 33.4297 114.347 35.1094 114.112 36.5781C113.894 38.0469 113.472 39.2891 112.847 40.3047C112.237 41.3203 111.362 42.0938 110.222 42.625C109.081 43.1562 107.597 43.4219 105.769 43.4219ZM103.308 22.2109H108.323V17.7109C108.323 16.5391 108.269 15.5547 108.159 14.7578C108.05 13.9453 107.831 13.3359 107.503 12.9297C107.175 12.5234 106.675 12.3203 106.003 12.3203C105.175 12.3203 104.565 12.5625 104.175 13.0469C103.8 13.5312 103.558 14.1953 103.448 15.0391C103.354 15.8672 103.308 16.8125 103.308 17.875V22.2109Z" fill="#E0E0E0"/>
<path d="M127.026 43.4453C124.198 43.4453 122.097 42.6406 120.722 41.0312C119.347 39.4219 118.659 36.7891 118.659 33.1328V30.8594H124.495V33.6953C124.495 35.2266 124.683 36.3906 125.058 37.1875C125.433 37.9844 126.042 38.3828 126.886 38.3828C127.698 38.3828 128.3 38.1094 128.69 37.5625C129.081 37.0156 129.276 36.0703 129.276 34.7266C129.276 33.9453 129.159 33.1875 128.925 32.4531C128.706 31.7188 128.354 31 127.87 30.2969C127.401 29.5781 126.792 28.8828 126.042 28.2109L122.878 25.3516C121.425 24.0391 120.339 22.625 119.62 21.1094C118.901 19.5781 118.542 17.8906 118.542 16.0469C118.542 13.0625 119.237 10.8828 120.628 9.50781C122.034 8.11719 124.112 7.42188 126.862 7.42188C128.644 7.42188 130.12 7.75781 131.292 8.42969C132.464 9.08594 133.339 10.1562 133.917 11.6406C134.495 13.125 134.784 15.1172 134.784 17.6172V19.5391H129.229V17.2188C129.229 15.6719 129.05 14.5 128.69 13.7031C128.347 12.9062 127.753 12.5078 126.909 12.5078C126.081 12.5078 125.472 12.7422 125.081 13.2109C124.69 13.6641 124.479 14.4688 124.448 15.625C124.433 16.25 124.511 16.8672 124.683 17.4766C124.854 18.0703 125.12 18.6562 125.479 19.2344C125.854 19.7969 126.339 20.3516 126.933 20.8984L130.261 23.9219C132.011 25.5 133.3 27.1484 134.128 28.8672C134.972 30.5859 135.394 32.4453 135.394 34.4453C135.394 37.3984 134.722 39.6406 133.378 41.1719C132.034 42.6875 129.917 43.4453 127.026 43.4453Z" fill="#E0E0E0"/>
<path d="M148.261 43.4219C146.573 43.4219 145.159 43.1641 144.019 42.6484C142.878 42.1172 141.972 41.3594 141.3 40.375C140.644 39.375 140.167 38.1641 139.87 36.7422C139.589 35.3047 139.448 33.6719 139.448 31.8438V18.6953C139.448 16.4922 139.729 14.5469 140.292 12.8594C140.87 11.1562 141.808 9.82812 143.104 8.875C144.401 7.90625 146.12 7.42188 148.261 7.42188C149.886 7.42188 151.253 7.69531 152.362 8.24219C153.487 8.78906 154.386 9.57031 155.058 10.5859C155.745 11.5859 156.245 12.7734 156.558 14.1484C156.87 15.5234 157.026 17.0391 157.026 18.6953V31.8438C157.026 33.6406 156.886 35.25 156.604 36.6719C156.339 38.0938 155.87 39.3125 155.198 40.3281C154.542 41.3281 153.651 42.0938 152.526 42.625C151.401 43.1562 149.979 43.4219 148.261 43.4219ZM148.261 38.4062C148.964 38.4062 149.495 38.1953 149.854 37.7734C150.214 37.3359 150.456 36.7344 150.581 35.9688C150.706 35.2031 150.769 34.3203 150.769 33.3203V17.5938C150.769 16.5312 150.698 15.6172 150.558 14.8516C150.417 14.0859 150.167 13.4922 149.808 13.0703C149.448 12.6484 148.933 12.4375 148.261 12.4375C147.558 12.4375 147.019 12.6484 146.644 13.0703C146.284 13.4922 146.034 14.0859 145.894 14.8516C145.769 15.6172 145.706 16.5312 145.706 17.5938V33.3203C145.706 34.3203 145.769 35.2031 145.894 35.9688C146.034 36.7344 146.284 37.3359 146.644 37.7734C147.019 38.1953 147.558 38.4062 148.261 38.4062Z" fill="#E0E0E0"/>
<path d="M168.722 43.4453C167.331 43.4453 166.167 43.1328 165.229 42.5078C164.308 41.8828 163.612 40.9531 163.144 39.7188C162.69 38.4688 162.464 36.9062 162.464 35.0312V7.84375H168.698V34.0703C168.698 35.4141 168.862 36.4609 169.19 37.2109C169.519 37.9609 170.206 38.3359 171.253 38.3359C172.347 38.3359 173.089 37.9141 173.479 37.0703C173.886 36.2109 174.089 35.2266 174.089 34.1172L174.112 7.84375H180.3V43H174.089V39.3438C173.651 40.5312 173.019 41.5156 172.19 42.2969C171.362 43.0625 170.206 43.4453 168.722 43.4453Z" fill="#E0E0E0"/>
<path d="M186.37 43V7.84375H192.628V11.7578C193.034 10.3984 193.737 9.33594 194.737 8.57031C195.753 7.80469 197.042 7.42188 198.604 7.42188C198.636 7.42188 198.651 7.6875 198.651 8.21875C198.667 8.75 198.675 9.35938 198.675 10.0469C198.675 10.7344 198.675 11.3438 198.675 11.875C198.675 12.4062 198.675 12.6719 198.675 12.6719C197.956 12.6719 197.175 12.7578 196.331 12.9297C195.503 13.1016 194.745 13.3672 194.058 13.7266C193.386 14.0703 192.909 14.5312 192.628 15.1094V43H186.37Z" fill="#E0E0E0"/>
<path d="M211.214 43.4219C209.417 43.4219 207.933 43.1484 206.761 42.6016C205.589 42.0391 204.667 41.2344 203.995 40.1875C203.339 39.1406 202.878 37.8672 202.612 36.3672C202.347 34.8672 202.214 33.1719 202.214 31.2812V19.8906C202.214 17.2969 202.456 15.0703 202.94 13.2109C203.425 11.3516 204.315 9.92188 205.612 8.92188C206.925 7.92188 208.815 7.42188 211.284 7.42188C212.8 7.42188 214.081 7.65625 215.128 8.125C216.175 8.59375 217.019 9.27344 217.659 10.1641C218.3 11.0391 218.761 12.1016 219.042 13.3516C219.339 14.6016 219.487 16.0078 219.487 17.5703V21.4375H213.487V17.3594C213.487 16.3438 213.44 15.4766 213.347 14.7578C213.253 14.0234 213.042 13.4688 212.714 13.0938C212.386 12.7031 211.862 12.5078 211.144 12.5078C210.44 12.5078 209.894 12.7031 209.503 13.0938C209.112 13.4844 208.839 14.0547 208.683 14.8047C208.542 15.5391 208.472 16.4219 208.472 17.4531V33.2969C208.472 34.3594 208.534 35.2656 208.659 36.0156C208.8 36.7656 209.05 37.3438 209.409 37.75C209.784 38.1406 210.331 38.3359 211.05 38.3359C211.753 38.3359 212.276 38.1328 212.62 37.7266C212.979 37.3047 213.214 36.7188 213.323 35.9688C213.433 35.2188 213.487 34.3359 213.487 33.3203V29.1484H219.487V32.7109C219.487 34.3203 219.347 35.7891 219.065 37.1172C218.784 38.4297 218.323 39.5547 217.683 40.4922C217.042 41.4297 216.19 42.1562 215.128 42.6719C214.065 43.1719 212.761 43.4219 211.214 43.4219Z" fill="#E0E0E0"/>
<path d="M232.894 43.4219C231.128 43.4219 229.675 43.1406 228.534 42.5781C227.409 42.0156 226.526 41.2031 225.886 40.1406C225.261 39.0781 224.823 37.8047 224.573 36.3203C224.323 34.8203 224.198 33.1484 224.198 31.3047V18.2031C224.198 16.5625 224.362 15.0781 224.69 13.75C225.034 12.4219 225.558 11.2891 226.261 10.3516C226.979 9.41406 227.909 8.69531 229.05 8.19531C230.19 7.67969 231.565 7.42188 233.175 7.42188C234.815 7.42188 236.183 7.67188 237.276 8.17188C238.37 8.67188 239.229 9.39844 239.854 10.3516C240.495 11.3047 240.948 12.4531 241.214 13.7969C241.495 15.125 241.636 16.6328 241.636 18.3203V25.8438H230.456V32.7578C230.456 34.4609 230.589 35.8281 230.854 36.8594C231.12 37.8906 231.847 38.4062 233.034 38.4062C233.831 38.4062 234.394 38.1641 234.722 37.6797C235.065 37.1953 235.269 36.5312 235.331 35.6875C235.409 34.8281 235.448 33.8516 235.448 32.7578V29.6641H241.589V31.5391C241.589 33.4297 241.472 35.1094 241.237 36.5781C241.019 38.0469 240.597 39.2891 239.972 40.3047C239.362 41.3203 238.487 42.0938 237.347 42.625C236.206 43.1562 234.722 43.4219 232.894 43.4219ZM230.433 22.2109H235.448V17.7109C235.448 16.5391 235.394 15.5547 235.284 14.7578C235.175 13.9453 234.956 13.3359 234.628 12.9297C234.3 12.5234 233.8 12.3203 233.128 12.3203C232.3 12.3203 231.69 12.5625 231.3 13.0469C230.925 13.5312 230.683 14.1953 230.573 15.0391C230.479 15.8672 230.433 16.8125 230.433 17.875V22.2109Z" fill="#E0E0E0"/>
<path d="M254.151 43.4453C251.323 43.4453 249.222 42.6406 247.847 41.0312C246.472 39.4219 245.784 36.7891 245.784 33.1328V30.8594H251.62V33.6953C251.62 35.2266 251.808 36.3906 252.183 37.1875C252.558 37.9844 253.167 38.3828 254.011 38.3828C254.823 38.3828 255.425 38.1094 255.815 37.5625C256.206 37.0156 256.401 36.0703 256.401 34.7266C256.401 33.9453 256.284 33.1875 256.05 32.4531C255.831 31.7188 255.479 31 254.995 30.2969C254.526 29.5781 253.917 28.8828 253.167 28.2109L250.003 25.3516C248.55 24.0391 247.464 22.625 246.745 21.1094C246.026 19.5781 245.667 17.8906 245.667 16.0469C245.667 13.0625 246.362 10.8828 247.753 9.50781C249.159 8.11719 251.237 7.42188 253.987 7.42188C255.769 7.42188 257.245 7.75781 258.417 8.42969C259.589 9.08594 260.464 10.1562 261.042 11.6406C261.62 13.125 261.909 15.1172 261.909 17.6172V19.5391H256.354V17.2188C256.354 15.6719 256.175 14.5 255.815 13.7031C255.472 12.9062 254.878 12.5078 254.034 12.5078C253.206 12.5078 252.597 12.7422 252.206 13.2109C251.815 13.6641 251.604 14.4688 251.573 15.625C251.558 16.25 251.636 16.8672 251.808 17.4766C251.979 18.0703 252.245 18.6562 252.604 19.2344C252.979 19.7969 253.464 20.3516 254.058 20.8984L257.386 23.9219C259.136 25.5 260.425 27.1484 261.253 28.8672C262.097 30.5859 262.519 32.4453 262.519 34.4453C262.519 37.3984 261.847 39.6406 260.503 41.1719C259.159 42.6875 257.042 43.4453 254.151 43.4453Z" fill="#E0E0E0"/>
</g>
<path d="M10.3779 43.4688C8.37793 43.4688 6.71387 43.0078 5.38574 42.0859C4.05762 41.1641 3.05762 39.8203 2.38574 38.0547C1.72949 36.2734 1.40137 34.125 1.40137 31.6094V13.6328C1.40137 11.7422 1.55762 10.0391 1.87012 8.52344C2.18262 7.00781 2.69043 5.71094 3.39355 4.63281C4.09668 3.55469 5.03418 2.72656 6.20605 2.14844C7.37793 1.57031 8.82324 1.28125 10.542 1.28125C12.1045 1.28125 13.4326 1.53906 14.5264 2.05469C15.6357 2.55469 16.5342 3.28125 17.2217 4.23438C17.9248 5.1875 18.4326 6.34375 18.7451 7.70312C19.0732 9.04688 19.2373 10.5625 19.2373 12.25V17.9219H13.167V12.6484C13.167 10.6172 12.9951 9.125 12.6514 8.17188C12.3076 7.20312 11.6201 6.71875 10.5889 6.71875C9.44824 6.71875 8.68262 7.24219 8.29199 8.28906C7.91699 9.32031 7.72949 10.7656 7.72949 12.625V31.8906C7.72949 33.3281 7.80762 34.5078 7.96387 35.4297C8.13574 36.3359 8.41699 37.0078 8.80762 37.4453C9.19824 37.8672 9.74512 38.0781 10.4482 38.0781C11.5107 38.0781 12.2295 37.5781 12.6045 36.5781C12.9795 35.5781 13.167 33.9922 13.167 31.8203V25.9141H19.3311V31.75C19.3311 34.3594 19.0264 36.5391 18.417 38.2891C17.8076 40.0234 16.8389 41.3203 15.5107 42.1797C14.1982 43.0391 12.4873 43.4688 10.3779 43.4688Z" stroke="#EAEAEA" stroke-width="2" mask="url(#path-1-outside-1_127_2783)"/>
<path d="M32.1748 43.4688C30.4561 43.4688 29.0186 43.2031 27.8623 42.6719C26.7217 42.125 25.8154 41.3359 25.1436 40.3047C24.4873 39.2578 24.0186 37.9922 23.7373 36.5078C23.4561 35.0078 23.3154 33.3047 23.3154 31.3984V27.7188H29.2686V31.8672C29.2686 34.0859 29.4561 35.6797 29.8311 36.6484C30.2061 37.6172 30.9482 38.1016 32.0576 38.1016C32.8076 38.1016 33.3701 37.9297 33.7451 37.5859C34.1357 37.2266 34.3936 36.6641 34.5186 35.8984C34.6592 35.1172 34.7295 34.1016 34.7295 32.8516C34.7295 31.3047 34.4014 29.8906 33.7451 28.6094C33.1045 27.3281 32.1279 26 30.8154 24.625L27.7686 21.4844C26.9248 20.6094 26.1592 19.6797 25.4717 18.6953C24.7998 17.7109 24.2607 16.6172 23.8545 15.4141C23.4639 14.1953 23.2686 12.8359 23.2686 11.3359C23.2686 9.16406 23.5342 7.32812 24.0654 5.82812C24.5967 4.32812 25.4951 3.19531 26.7607 2.42969C28.0264 1.64844 29.7607 1.25781 31.9639 1.25781C33.6201 1.25781 34.9795 1.51562 36.042 2.03125C37.1201 2.53125 37.9561 3.27344 38.5498 4.25781C39.1592 5.22656 39.5889 6.41406 39.8389 7.82031C40.0889 9.21094 40.2139 10.8047 40.2139 12.6016V15.1562H34.4248V12.2031C34.4248 10.9531 34.3545 9.91406 34.2139 9.08594C34.0889 8.25781 33.8467 7.64062 33.4873 7.23438C33.1279 6.8125 32.6045 6.60156 31.917 6.60156C31.2607 6.60156 30.7295 6.75 30.3232 7.04688C29.917 7.32812 29.6201 7.77344 29.4326 8.38281C29.2607 8.97656 29.1748 9.75 29.1748 10.7031C29.1748 11.5625 29.2842 12.3047 29.5029 12.9297C29.7217 13.5547 30.0576 14.1562 30.5107 14.7344C30.9639 15.3125 31.5264 15.9609 32.1982 16.6797L35.5967 20.3594C37.2217 22.1094 38.4873 23.9297 39.3936 25.8203C40.2998 27.7109 40.7529 29.8203 40.7529 32.1484C40.7529 34.6172 40.4873 36.6953 39.9561 38.3828C39.4248 40.0547 38.5342 41.3203 37.2842 42.1797C36.0342 43.0391 34.3311 43.4688 32.1748 43.4688Z" stroke="#EAEAEA" stroke-width="2" mask="url(#path-1-outside-1_127_2783)"/>
<path d="M52.7061 43.4688C50.9873 43.4688 49.5498 43.2031 48.3936 42.6719C47.2529 42.125 46.3467 41.3359 45.6748 40.3047C45.0186 39.2578 44.5498 37.9922 44.2686 36.5078C43.9873 35.0078 43.8467 33.3047 43.8467 31.3984V27.7188H49.7998V31.8672C49.7998 34.0859 49.9873 35.6797 50.3623 36.6484C50.7373 37.6172 51.4795 38.1016 52.5889 38.1016C53.3389 38.1016 53.9014 37.9297 54.2764 37.5859C54.667 37.2266 54.9248 36.6641 55.0498 35.8984C55.1904 35.1172 55.2607 34.1016 55.2607 32.8516C55.2607 31.3047 54.9326 29.8906 54.2764 28.6094C53.6357 27.3281 52.6592 26 51.3467 24.625L48.2998 21.4844C47.4561 20.6094 46.6904 19.6797 46.0029 18.6953C45.3311 17.7109 44.792 16.6172 44.3857 15.4141C43.9951 14.1953 43.7998 12.8359 43.7998 11.3359C43.7998 9.16406 44.0654 7.32812 44.5967 5.82812C45.1279 4.32812 46.0264 3.19531 47.292 2.42969C48.5576 1.64844 50.292 1.25781 52.4951 1.25781C54.1514 1.25781 55.5107 1.51562 56.5732 2.03125C57.6514 2.53125 58.4873 3.27344 59.0811 4.25781C59.6904 5.22656 60.1201 6.41406 60.3701 7.82031C60.6201 9.21094 60.7451 10.8047 60.7451 12.6016V15.1562H54.9561V12.2031C54.9561 10.9531 54.8857 9.91406 54.7451 9.08594C54.6201 8.25781 54.3779 7.64062 54.0186 7.23438C53.6592 6.8125 53.1357 6.60156 52.4482 6.60156C51.792 6.60156 51.2607 6.75 50.8545 7.04688C50.4482 7.32812 50.1514 7.77344 49.9639 8.38281C49.792 8.97656 49.7061 9.75 49.7061 10.7031C49.7061 11.5625 49.8154 12.3047 50.0342 12.9297C50.2529 13.5547 50.5889 14.1562 51.042 14.7344C51.4951 15.3125 52.0576 15.9609 52.7295 16.6797L56.1279 20.3594C57.7529 22.1094 59.0186 23.9297 59.9248 25.8203C60.8311 27.7109 61.2842 29.8203 61.2842 32.1484C61.2842 34.6172 61.0186 36.6953 60.4873 38.3828C59.9561 40.0547 59.0654 41.3203 57.8154 42.1797C56.5654 43.0391 54.8623 43.4688 52.7061 43.4688Z" stroke="#EAEAEA" stroke-width="2" mask="url(#path-1-outside-1_127_2783)"/>
<path d="M74.3389 43V1.75H84.7217C86.8779 1.75 88.4873 2.17188 89.5498 3.01562C90.6123 3.85938 91.3076 5.09375 91.6357 6.71875C91.9795 8.34375 92.1514 10.3281 92.1514 12.6719C92.1514 15.0938 91.9014 17 91.4014 18.3906C90.917 19.7656 89.917 20.6875 88.4014 21.1562C89.1201 21.2812 89.7217 21.5781 90.2061 22.0469C90.6904 22.5 91.0811 23.1719 91.3779 24.0625C91.6748 24.9375 91.8857 26.0703 92.0107 27.4609C92.1514 28.8359 92.2217 30.5234 92.2217 32.5234C92.2217 32.6797 92.2217 33.1172 92.2217 33.8359C92.2217 34.5547 92.2217 35.4062 92.2217 36.3906C92.2373 37.3594 92.2529 38.3281 92.2686 39.2969C92.2842 40.2656 92.3076 41.0938 92.3389 41.7812C92.3701 42.4688 92.4092 42.875 92.4561 43H86.1748C86.1279 42.9219 86.0889 42.5234 86.0576 41.8047C86.042 41.0703 86.0186 40.1406 85.9873 39.0156C85.9717 37.8906 85.9561 36.6797 85.9404 35.3828C85.9404 34.0859 85.9404 32.8125 85.9404 31.5625C85.9404 30.2969 85.9404 29.1797 85.9404 28.2109C85.9404 26.9766 85.8467 26.0469 85.6592 25.4219C85.4873 24.7812 85.1592 24.3359 84.6748 24.0859C84.2061 23.8359 83.5264 23.6875 82.6357 23.6406L80.6201 23.5234V43H74.3389ZM80.6436 18.6484H83.1514C83.917 18.6484 84.4951 18.4766 84.8857 18.1328C85.292 17.7891 85.5654 17.1562 85.7061 16.2344C85.8623 15.3125 85.9404 13.9844 85.9404 12.25V11.9922C85.9404 10.5391 85.8701 9.42188 85.7295 8.64062C85.5889 7.85938 85.292 7.32031 84.8389 7.02344C84.4014 6.72656 83.7139 6.57812 82.7764 6.57812H80.6436V18.6484Z" stroke="#EAEAEA" stroke-width="2" mask="url(#path-1-outside-1_127_2783)"/>
<path d="M105.769 43.4219C104.003 43.4219 102.55 43.1406 101.409 42.5781C100.284 42.0156 99.4014 41.2031 98.7607 40.1406C98.1357 39.0781 97.6982 37.8047 97.4482 36.3203C97.1982 34.8203 97.0732 33.1484 97.0732 31.3047V18.2031C97.0732 16.5625 97.2373 15.0781 97.5654 13.75C97.9092 12.4219 98.4326 11.2891 99.1357 10.3516C99.8545 9.41406 100.784 8.69531 101.925 8.19531C103.065 7.67969 104.44 7.42188 106.05 7.42188C107.69 7.42188 109.058 7.67188 110.151 8.17188C111.245 8.67188 112.104 9.39844 112.729 10.3516C113.37 11.3047 113.823 12.4531 114.089 13.7969C114.37 15.125 114.511 16.6328 114.511 18.3203V25.8438H103.331V32.7578C103.331 34.4609 103.464 35.8281 103.729 36.8594C103.995 37.8906 104.722 38.4062 105.909 38.4062C106.706 38.4062 107.269 38.1641 107.597 37.6797C107.94 37.1953 108.144 36.5312 108.206 35.6875C108.284 34.8281 108.323 33.8516 108.323 32.7578V29.6641H114.464V31.5391C114.464 33.4297 114.347 35.1094 114.112 36.5781C113.894 38.0469 113.472 39.2891 112.847 40.3047C112.237 41.3203 111.362 42.0938 110.222 42.625C109.081 43.1562 107.597 43.4219 105.769 43.4219ZM103.308 22.2109H108.323V17.7109C108.323 16.5391 108.269 15.5547 108.159 14.7578C108.05 13.9453 107.831 13.3359 107.503 12.9297C107.175 12.5234 106.675 12.3203 106.003 12.3203C105.175 12.3203 104.565 12.5625 104.175 13.0469C103.8 13.5312 103.558 14.1953 103.448 15.0391C103.354 15.8672 103.308 16.8125 103.308 17.875V22.2109Z" stroke="#EAEAEA" stroke-width="2" mask="url(#path-1-outside-1_127_2783)"/>
<path d="M127.026 43.4453C124.198 43.4453 122.097 42.6406 120.722 41.0312C119.347 39.4219 118.659 36.7891 118.659 33.1328V30.8594H124.495V33.6953C124.495 35.2266 124.683 36.3906 125.058 37.1875C125.433 37.9844 126.042 38.3828 126.886 38.3828C127.698 38.3828 128.3 38.1094 128.69 37.5625C129.081 37.0156 129.276 36.0703 129.276 34.7266C129.276 33.9453 129.159 33.1875 128.925 32.4531C128.706 31.7188 128.354 31 127.87 30.2969C127.401 29.5781 126.792 28.8828 126.042 28.2109L122.878 25.3516C121.425 24.0391 120.339 22.625 119.62 21.1094C118.901 19.5781 118.542 17.8906 118.542 16.0469C118.542 13.0625 119.237 10.8828 120.628 9.50781C122.034 8.11719 124.112 7.42188 126.862 7.42188C128.644 7.42188 130.12 7.75781 131.292 8.42969C132.464 9.08594 133.339 10.1562 133.917 11.6406C134.495 13.125 134.784 15.1172 134.784 17.6172V19.5391H129.229V17.2188C129.229 15.6719 129.05 14.5 128.69 13.7031C128.347 12.9062 127.753 12.5078 126.909 12.5078C126.081 12.5078 125.472 12.7422 125.081 13.2109C124.69 13.6641 124.479 14.4688 124.448 15.625C124.433 16.25 124.511 16.8672 124.683 17.4766C124.854 18.0703 125.12 18.6562 125.479 19.2344C125.854 19.7969 126.339 20.3516 126.933 20.8984L130.261 23.9219C132.011 25.5 133.3 27.1484 134.128 28.8672C134.972 30.5859 135.394 32.4453 135.394 34.4453C135.394 37.3984 134.722 39.6406 133.378 41.1719C132.034 42.6875 129.917 43.4453 127.026 43.4453Z" stroke="#EAEAEA" stroke-width="2" mask="url(#path-1-outside-1_127_2783)"/>
<path d="M148.261 43.4219C146.573 43.4219 145.159 43.1641 144.019 42.6484C142.878 42.1172 141.972 41.3594 141.3 40.375C140.644 39.375 140.167 38.1641 139.87 36.7422C139.589 35.3047 139.448 33.6719 139.448 31.8438V18.6953C139.448 16.4922 139.729 14.5469 140.292 12.8594C140.87 11.1562 141.808 9.82812 143.104 8.875C144.401 7.90625 146.12 7.42188 148.261 7.42188C149.886 7.42188 151.253 7.69531 152.362 8.24219C153.487 8.78906 154.386 9.57031 155.058 10.5859C155.745 11.5859 156.245 12.7734 156.558 14.1484C156.87 15.5234 157.026 17.0391 157.026 18.6953V31.8438C157.026 33.6406 156.886 35.25 156.604 36.6719C156.339 38.0938 155.87 39.3125 155.198 40.3281C154.542 41.3281 153.651 42.0938 152.526 42.625C151.401 43.1562 149.979 43.4219 148.261 43.4219ZM148.261 38.4062C148.964 38.4062 149.495 38.1953 149.854 37.7734C150.214 37.3359 150.456 36.7344 150.581 35.9688C150.706 35.2031 150.769 34.3203 150.769 33.3203V17.5938C150.769 16.5312 150.698 15.6172 150.558 14.8516C150.417 14.0859 150.167 13.4922 149.808 13.0703C149.448 12.6484 148.933 12.4375 148.261 12.4375C147.558 12.4375 147.019 12.6484 146.644 13.0703C146.284 13.4922 146.034 14.0859 145.894 14.8516C145.769 15.6172 145.706 16.5312 145.706 17.5938V33.3203C145.706 34.3203 145.769 35.2031 145.894 35.9688C146.034 36.7344 146.284 37.3359 146.644 37.7734C147.019 38.1953 147.558 38.4062 148.261 38.4062Z" stroke="#EAEAEA" stroke-width="2" mask="url(#path-1-outside-1_127_2783)"/>
<path d="M168.722 43.4453C167.331 43.4453 166.167 43.1328 165.229 42.5078C164.308 41.8828 163.612 40.9531 163.144 39.7188C162.69 38.4688 162.464 36.9062 162.464 35.0312V7.84375H168.698V34.0703C168.698 35.4141 168.862 36.4609 169.19 37.2109C169.519 37.9609 170.206 38.3359 171.253 38.3359C172.347 38.3359 173.089 37.9141 173.479 37.0703C173.886 36.2109 174.089 35.2266 174.089 34.1172L174.112 7.84375H180.3V43H174.089V39.3438C173.651 40.5312 173.019 41.5156 172.19 42.2969C171.362 43.0625 170.206 43.4453 168.722 43.4453Z" stroke="#EAEAEA" stroke-width="2" mask="url(#path-1-outside-1_127_2783)"/>
<path d="M186.37 43V7.84375H192.628V11.7578C193.034 10.3984 193.737 9.33594 194.737 8.57031C195.753 7.80469 197.042 7.42188 198.604 7.42188C198.636 7.42188 198.651 7.6875 198.651 8.21875C198.667 8.75 198.675 9.35938 198.675 10.0469C198.675 10.7344 198.675 11.3438 198.675 11.875C198.675 12.4062 198.675 12.6719 198.675 12.6719C197.956 12.6719 197.175 12.7578 196.331 12.9297C195.503 13.1016 194.745 13.3672 194.058 13.7266C193.386 14.0703 192.909 14.5312 192.628 15.1094V43H186.37Z" stroke="#EAEAEA" stroke-width="2" mask="url(#path-1-outside-1_127_2783)"/>
<path d="M211.214 43.4219C209.417 43.4219 207.933 43.1484 206.761 42.6016C205.589 42.0391 204.667 41.2344 203.995 40.1875C203.339 39.1406 202.878 37.8672 202.612 36.3672C202.347 34.8672 202.214 33.1719 202.214 31.2812V19.8906C202.214 17.2969 202.456 15.0703 202.94 13.2109C203.425 11.3516 204.315 9.92188 205.612 8.92188C206.925 7.92188 208.815 7.42188 211.284 7.42188C212.8 7.42188 214.081 7.65625 215.128 8.125C216.175 8.59375 217.019 9.27344 217.659 10.1641C218.3 11.0391 218.761 12.1016 219.042 13.3516C219.339 14.6016 219.487 16.0078 219.487 17.5703V21.4375H213.487V17.3594C213.487 16.3438 213.44 15.4766 213.347 14.7578C213.253 14.0234 213.042 13.4688 212.714 13.0938C212.386 12.7031 211.862 12.5078 211.144 12.5078C210.44 12.5078 209.894 12.7031 209.503 13.0938C209.112 13.4844 208.839 14.0547 208.683 14.8047C208.542 15.5391 208.472 16.4219 208.472 17.4531V33.2969C208.472 34.3594 208.534 35.2656 208.659 36.0156C208.8 36.7656 209.05 37.3438 209.409 37.75C209.784 38.1406 210.331 38.3359 211.05 38.3359C211.753 38.3359 212.276 38.1328 212.62 37.7266C212.979 37.3047 213.214 36.7188 213.323 35.9688C213.433 35.2188 213.487 34.3359 213.487 33.3203V29.1484H219.487V32.7109C219.487 34.3203 219.347 35.7891 219.065 37.1172C218.784 38.4297 218.323 39.5547 217.683 40.4922C217.042 41.4297 216.19 42.1562 215.128 42.6719C214.065 43.1719 212.761 43.4219 211.214 43.4219Z" stroke="#EAEAEA" stroke-width="2" mask="url(#path-1-outside-1_127_2783)"/>
<path d="M232.894 43.4219C231.128 43.4219 229.675 43.1406 228.534 42.5781C227.409 42.0156 226.526 41.2031 225.886 40.1406C225.261 39.0781 224.823 37.8047 224.573 36.3203C224.323 34.8203 224.198 33.1484 224.198 31.3047V18.2031C224.198 16.5625 224.362 15.0781 224.69 13.75C225.034 12.4219 225.558 11.2891 226.261 10.3516C226.979 9.41406 227.909 8.69531 229.05 8.19531C230.19 7.67969 231.565 7.42188 233.175 7.42188C234.815 7.42188 236.183 7.67188 237.276 8.17188C238.37 8.67188 239.229 9.39844 239.854 10.3516C240.495 11.3047 240.948 12.4531 241.214 13.7969C241.495 15.125 241.636 16.6328 241.636 18.3203V25.8438H230.456V32.7578C230.456 34.4609 230.589 35.8281 230.854 36.8594C231.12 37.8906 231.847 38.4062 233.034 38.4062C233.831 38.4062 234.394 38.1641 234.722 37.6797C235.065 37.1953 235.269 36.5312 235.331 35.6875C235.409 34.8281 235.448 33.8516 235.448 32.7578V29.6641H241.589V31.5391C241.589 33.4297 241.472 35.1094 241.237 36.5781C241.019 38.0469 240.597 39.2891 239.972 40.3047C239.362 41.3203 238.487 42.0938 237.347 42.625C236.206 43.1562 234.722 43.4219 232.894 43.4219ZM230.433 22.2109H235.448V17.7109C235.448 16.5391 235.394 15.5547 235.284 14.7578C235.175 13.9453 234.956 13.3359 234.628 12.9297C234.3 12.5234 233.8 12.3203 233.128 12.3203C232.3 12.3203 231.69 12.5625 231.3 13.0469C230.925 13.5312 230.683 14.1953 230.573 15.0391C230.479 15.8672 230.433 16.8125 230.433 17.875V22.2109Z" stroke="#EAEAEA" stroke-width="2" mask="url(#path-1-outside-1_127_2783)"/>
<path d="M254.151 43.4453C251.323 43.4453 249.222 42.6406 247.847 41.0312C246.472 39.4219 245.784 36.7891 245.784 33.1328V30.8594H251.62V33.6953C251.62 35.2266 251.808 36.3906 252.183 37.1875C252.558 37.9844 253.167 38.3828 254.011 38.3828C254.823 38.3828 255.425 38.1094 255.815 37.5625C256.206 37.0156 256.401 36.0703 256.401 34.7266C256.401 33.9453 256.284 33.1875 256.05 32.4531C255.831 31.7188 255.479 31 254.995 30.2969C254.526 29.5781 253.917 28.8828 253.167 28.2109L250.003 25.3516C248.55 24.0391 247.464 22.625 246.745 21.1094C246.026 19.5781 245.667 17.8906 245.667 16.0469C245.667 13.0625 246.362 10.8828 247.753 9.50781C249.159 8.11719 251.237 7.42188 253.987 7.42188C255.769 7.42188 257.245 7.75781 258.417 8.42969C259.589 9.08594 260.464 10.1562 261.042 11.6406C261.62 13.125 261.909 15.1172 261.909 17.6172V19.5391H256.354V17.2188C256.354 15.6719 256.175 14.5 255.815 13.7031C255.472 12.9062 254.878 12.5078 254.034 12.5078C253.206 12.5078 252.597 12.7422 252.206 13.2109C251.815 13.6641 251.604 14.4688 251.573 15.625C251.558 16.25 251.636 16.8672 251.808 17.4766C251.979 18.0703 252.245 18.6562 252.604 19.2344C252.979 19.7969 253.464 20.3516 254.058 20.8984L257.386 23.9219C259.136 25.5 260.425 27.1484 261.253 28.8672C262.097 30.5859 262.519 32.4453 262.519 34.4453C262.519 37.3984 261.847 39.6406 260.503 41.1719C259.159 42.6875 257.042 43.4453 254.151 43.4453Z" stroke="#EAEAEA" stroke-width="2" mask="url(#path-1-outside-1_127_2783)"/>
<defs>
<filter id="filter0_ii_127_2783" x="-0.598633" y="-0.742188" width="267.117" height="48.2109" filterUnits="userSpaceOnUse" color-interpolation-filters="sRGB">
<feFlood flood-opacity="0" result="BackgroundImageFix"/>
<feBlend mode="normal" in="SourceGraphic" in2="BackgroundImageFix" result="shape"/>
<feColorMatrix in="SourceAlpha" type="matrix" values="0 0 0 0 0 0 0 0 0 0 0 0 0 0 0 0 0 0 127 0" result="hardAlpha"/>
<feOffset dx="-1" dy="-1"/>
<feGaussianBlur stdDeviation="1.5"/>
<feComposite in2="hardAlpha" operator="arithmetic" k2="-1" k3="1"/>
<feColorMatrix type="matrix" values="0 0 0 0 0.984314 0 0 0 0 0.984314 0 0 0 0 0.984314 0 0 0 1 0"/>
<feBlend mode="normal" in2="shape" result="effect1_innerShadow_127_2783"/>
<feColorMatrix in="SourceAlpha" type="matrix" values="0 0 0 0 0 0 0 0 0 0 0 0 0 0 0 0 0 0 127 0" result="hardAlpha"/>
<feOffset dx="3" dy="3"/>
<feGaussianBlur stdDeviation="4.5"/>
<feComposite in2="hardAlpha" operator="arithmetic" k2="-1" k3="1"/>
<feColorMatrix type="matrix" values="0 0 0 0 0.772549 0 0 0 0 0.772549 0 0 0 0 0.772549 0 0 0 1 0"/>
<feBlend mode="normal" in2="effect1_innerShadow_127_2783" result="effect2_innerShadow_127_2783"/>
</filter>
</defs>
</svg>
