<svg width="573" height="54" viewBox="0 0 573 54" fill="none" xmlns="http://www.w3.org/2000/svg">
<mask id="path-1-outside-1_127_2793" maskUnits="userSpaceOnUse" x="0.135742" y="0.21875" width="573" height="54" fill="black">
<rect fill="white" x="0.135742" y="0.21875" width="573" height="54"/>
<path d="M1.13574 45V3.75H10.3936C12.4873 3.75 14.167 4.17188 15.4326 5.01562C16.6982 5.84375 17.6123 7.04688 18.1748 8.625C18.7529 10.2031 19.042 12.1094 19.042 14.3438L19.0654 32.9531C19.0654 35.6562 18.7686 37.9062 18.1748 39.7031C17.5967 41.4844 16.6592 42.8125 15.3623 43.6875C14.0654 44.5625 12.3389 45 10.1826 45H1.13574ZM7.41699 40.125H9.47949C10.2139 40.125 10.8232 39.9766 11.3076 39.6797C11.8076 39.3828 12.1748 38.8594 12.4092 38.1094C12.6592 37.3438 12.7842 36.2656 12.7842 34.875L12.7607 14.5078C12.7607 12.3984 12.5029 10.8828 11.9873 9.96094C11.4717 9.03906 10.5654 8.57812 9.26855 8.57812H7.41699V40.125Z"/>
<path d="M32.9404 45.4219C31.1748 45.4219 29.7217 45.1406 28.5811 44.5781C27.4561 44.0156 26.5732 43.2031 25.9326 42.1406C25.3076 41.0781 24.8701 39.8047 24.6201 38.3203C24.3701 36.8203 24.2451 35.1484 24.2451 33.3047V20.2031C24.2451 18.5625 24.4092 17.0781 24.7373 15.75C25.0811 14.4219 25.6045 13.2891 26.3076 12.3516C27.0264 11.4141 27.9561 10.6953 29.0967 10.1953C30.2373 9.67969 31.6123 9.42188 33.2217 9.42188C34.8623 9.42188 36.2295 9.67188 37.3232 10.1719C38.417 10.6719 39.2764 11.3984 39.9014 12.3516C40.542 13.3047 40.9951 14.4531 41.2607 15.7969C41.542 17.125 41.6826 18.6328 41.6826 20.3203V27.8438H30.5029V34.7578C30.5029 36.4609 30.6357 37.8281 30.9014 38.8594C31.167 39.8906 31.8936 40.4062 33.0811 40.4062C33.8779 40.4062 34.4404 40.1641 34.7686 39.6797C35.1123 39.1953 35.3154 38.5312 35.3779 37.6875C35.4561 36.8281 35.4951 35.8516 35.4951 34.7578V31.6641H41.6357V33.5391C41.6357 35.4297 41.5186 37.1094 41.2842 38.5781C41.0654 40.0469 40.6436 41.2891 40.0186 42.3047C39.4092 43.3203 38.5342 44.0938 37.3936 44.625C36.2529 45.1562 34.7686 45.4219 32.9404 45.4219ZM30.4795 24.2109H35.4951V19.7109C35.4951 18.5391 35.4404 17.5547 35.3311 16.7578C35.2217 15.9453 35.0029 15.3359 34.6748 14.9297C34.3467 14.5234 33.8467 14.3203 33.1748 14.3203C32.3467 14.3203 31.7373 14.5625 31.3467 15.0469C30.9717 15.5312 30.7295 16.1953 30.6201 17.0391C30.5264 17.8672 30.4795 18.8125 30.4795 19.875V24.2109Z"/>
<path d="M46.9326 51.6797V9.84375H53.1436V13.0078C53.5967 11.8516 54.3076 10.9766 55.2764 10.3828C56.2451 9.78906 57.2217 9.49219 58.2061 9.49219C60.0029 9.49219 61.3623 9.97656 62.2842 10.9453C63.2061 11.8984 63.8311 13.2031 64.1592 14.8594C64.4873 16.5156 64.6514 18.375 64.6514 20.4375V33.2578C64.6514 35.5078 64.4951 37.5547 64.1826 39.3984C63.8701 41.2422 63.2061 42.7109 62.1904 43.8047C61.1904 44.8828 59.6592 45.4219 57.5967 45.4219C56.6436 45.4219 55.7764 45.1641 54.9951 44.6484C54.2139 44.1328 53.5967 43.5391 53.1436 42.8672V51.6797H46.9326ZM55.8857 40.3828C56.9326 40.3828 57.6123 39.875 57.9248 38.8594C58.2373 37.8281 58.3936 36.3594 58.3936 34.4531V19.875C58.3936 18.8594 58.3389 17.9453 58.2295 17.1328C58.1357 16.3047 57.917 15.6484 57.5732 15.1641C57.2295 14.6797 56.6826 14.4375 55.9326 14.4375C55.3545 14.4375 54.8545 14.5859 54.4326 14.8828C54.0264 15.1797 53.7061 15.7188 53.4717 16.5C53.2529 17.2812 53.1436 18.3984 53.1436 19.8516V34.7109C53.1436 36.5078 53.3154 37.9062 53.6592 38.9062C54.0029 39.8906 54.7451 40.3828 55.8857 40.3828Z"/>
<path d="M70.3232 45V3.39844H76.5107V45H70.3232Z"/>
<path d="M91.0889 45.4219C89.4014 45.4219 87.9873 45.1641 86.8467 44.6484C85.7061 44.1172 84.7998 43.3594 84.1279 42.375C83.4717 41.375 82.9951 40.1641 82.6982 38.7422C82.417 37.3047 82.2764 35.6719 82.2764 33.8438V20.6953C82.2764 18.4922 82.5576 16.5469 83.1201 14.8594C83.6982 13.1562 84.6357 11.8281 85.9326 10.875C87.2295 9.90625 88.9482 9.42188 91.0889 9.42188C92.7139 9.42188 94.0811 9.69531 95.1904 10.2422C96.3154 10.7891 97.2139 11.5703 97.8857 12.5859C98.5732 13.5859 99.0732 14.7734 99.3857 16.1484C99.6982 17.5234 99.8545 19.0391 99.8545 20.6953V33.8438C99.8545 35.6406 99.7139 37.25 99.4326 38.6719C99.167 40.0938 98.6982 41.3125 98.0264 42.3281C97.3701 43.3281 96.4795 44.0938 95.3545 44.625C94.2295 45.1562 92.8076 45.4219 91.0889 45.4219ZM91.0889 40.4062C91.792 40.4062 92.3232 40.1953 92.6826 39.7734C93.042 39.3359 93.2842 38.7344 93.4092 37.9688C93.5342 37.2031 93.5967 36.3203 93.5967 35.3203V19.5938C93.5967 18.5312 93.5264 17.6172 93.3857 16.8516C93.2451 16.0859 92.9951 15.4922 92.6357 15.0703C92.2764 14.6484 91.7607 14.4375 91.0889 14.4375C90.3857 14.4375 89.8467 14.6484 89.4717 15.0703C89.1123 15.4922 88.8623 16.0859 88.7217 16.8516C88.5967 17.6172 88.5342 18.5312 88.5342 19.5938V35.3203C88.5342 36.3203 88.5967 37.2031 88.7217 37.9688C88.8623 38.7344 89.1123 39.3359 89.4717 39.7734C89.8467 40.1953 90.3857 40.4062 91.0889 40.4062Z"/>
<path d="M104.519 51.2109V46.9219H106.558C107.245 46.9219 107.823 46.8594 108.292 46.7344C108.761 46.625 109.026 46.375 109.089 45.9844C109.198 45.7812 109.237 45.4219 109.206 44.9062C109.175 44.375 109.128 43.875 109.065 43.4062L103.44 9.84375H109.347L111.597 27.8203L112.534 37.2891H113.05L113.894 27.8203L115.956 9.84375H121.839L115.745 46.5C115.573 47.6094 115.331 48.5078 115.019 49.1953C114.722 49.8984 114.269 50.4062 113.659 50.7188C113.05 51.0469 112.206 51.2109 111.128 51.2109H104.519Z"/>
<path d="M125.659 45V9.84375H131.87V13.6641C132.214 12.4141 132.839 11.3984 133.745 10.6172C134.667 9.82031 135.917 9.42188 137.495 9.42188C138.698 9.42188 139.745 9.6875 140.636 10.2188C141.526 10.75 142.214 11.6641 142.698 12.9609C143.292 11.8672 144.073 11.0078 145.042 10.3828C146.011 9.74219 147.222 9.42188 148.675 9.42188C150.956 9.42188 152.573 10.1875 153.526 11.7188C154.479 13.25 154.956 15.3672 154.956 18.0703V45H148.769V18C148.769 16.75 148.558 15.8594 148.136 15.3281C147.714 14.7812 147.136 14.5078 146.401 14.5078C145.464 14.5078 144.729 14.8359 144.198 15.4922C143.683 16.1328 143.425 17.0781 143.425 18.3281V45H137.214V17.9531C137.214 16.9062 137.034 16.0703 136.675 15.4453C136.331 14.8203 135.745 14.5078 134.917 14.5078C133.839 14.5078 133.058 14.9219 132.573 15.75C132.104 16.5625 131.87 17.5312 131.87 18.6562V45H125.659Z"/>
<path d="M169.112 45.4219C167.347 45.4219 165.894 45.1406 164.753 44.5781C163.628 44.0156 162.745 43.2031 162.104 42.1406C161.479 41.0781 161.042 39.8047 160.792 38.3203C160.542 36.8203 160.417 35.1484 160.417 33.3047V20.2031C160.417 18.5625 160.581 17.0781 160.909 15.75C161.253 14.4219 161.776 13.2891 162.479 12.3516C163.198 11.4141 164.128 10.6953 165.269 10.1953C166.409 9.67969 167.784 9.42188 169.394 9.42188C171.034 9.42188 172.401 9.67188 173.495 10.1719C174.589 10.6719 175.448 11.3984 176.073 12.3516C176.714 13.3047 177.167 14.4531 177.433 15.7969C177.714 17.125 177.854 18.6328 177.854 20.3203V27.8438H166.675V34.7578C166.675 36.4609 166.808 37.8281 167.073 38.8594C167.339 39.8906 168.065 40.4062 169.253 40.4062C170.05 40.4062 170.612 40.1641 170.94 39.6797C171.284 39.1953 171.487 38.5312 171.55 37.6875C171.628 36.8281 171.667 35.8516 171.667 34.7578V31.6641H177.808V33.5391C177.808 35.4297 177.69 37.1094 177.456 38.5781C177.237 40.0469 176.815 41.2891 176.19 42.3047C175.581 43.3203 174.706 44.0938 173.565 44.625C172.425 45.1562 170.94 45.4219 169.112 45.4219ZM166.651 24.2109H171.667V19.7109C171.667 18.5391 171.612 17.5547 171.503 16.7578C171.394 15.9453 171.175 15.3359 170.847 14.9297C170.519 14.5234 170.019 14.3203 169.347 14.3203C168.519 14.3203 167.909 14.5625 167.519 15.0469C167.144 15.5312 166.901 16.1953 166.792 17.0391C166.698 17.8672 166.651 18.8125 166.651 19.875V24.2109Z"/>
<path d="M183.081 45V9.84375H189.292V13.875C189.604 12.6719 190.261 11.6328 191.261 10.7578C192.261 9.86719 193.487 9.42188 194.94 9.42188C196.972 9.42188 198.495 10.1016 199.511 11.4609C200.526 12.8047 201.034 14.7578 201.034 17.3203V45H194.823V17.6953C194.823 16.6797 194.589 15.8828 194.12 15.3047C193.667 14.7266 193.042 14.4375 192.245 14.4375C191.604 14.4375 191.058 14.6172 190.604 14.9766C190.167 15.3203 189.839 15.8047 189.62 16.4297C189.401 17.0391 189.292 17.7578 189.292 18.5859V45H183.081Z"/>
<path d="M213.339 45.2344C211.839 45.2344 210.69 45.0469 209.894 44.6719C209.097 44.2812 208.55 43.6719 208.253 42.8438C207.956 42.0156 207.808 40.9453 207.808 39.6328V15.0703H204.948V10.5703H207.808V3.75H214.019V10.5703H217.44V15.0703H214.019V38.5547C214.019 39.1016 214.104 39.5156 214.276 39.7969C214.448 40.0781 214.784 40.2656 215.284 40.3594C215.8 40.4531 216.558 40.5 217.558 40.5V45.2344H213.339Z"/>
<path d="M222.901 52.9219L224.542 45H221.612V38.7188H228.362V44.7891L225.972 52.9219H222.901Z"/>
<path d="M244.183 45V9.1875H239.354V3.75H255.081V9.1875H250.44V45H244.183Z"/>
<path d="M265.628 45.4219C263.862 45.4219 262.409 45.1406 261.269 44.5781C260.144 44.0156 259.261 43.2031 258.62 42.1406C257.995 41.0781 257.558 39.8047 257.308 38.3203C257.058 36.8203 256.933 35.1484 256.933 33.3047V20.2031C256.933 18.5625 257.097 17.0781 257.425 15.75C257.769 14.4219 258.292 13.2891 258.995 12.3516C259.714 11.4141 260.644 10.6953 261.784 10.1953C262.925 9.67969 264.3 9.42188 265.909 9.42188C267.55 9.42188 268.917 9.67188 270.011 10.1719C271.104 10.6719 271.964 11.3984 272.589 12.3516C273.229 13.3047 273.683 14.4531 273.948 15.7969C274.229 17.125 274.37 18.6328 274.37 20.3203V27.8438H263.19V34.7578C263.19 36.4609 263.323 37.8281 263.589 38.8594C263.854 39.8906 264.581 40.4062 265.769 40.4062C266.565 40.4062 267.128 40.1641 267.456 39.6797C267.8 39.1953 268.003 38.5312 268.065 37.6875C268.144 36.8281 268.183 35.8516 268.183 34.7578V31.6641H274.323V33.5391C274.323 35.4297 274.206 37.1094 273.972 38.5781C273.753 40.0469 273.331 41.2891 272.706 42.3047C272.097 43.3203 271.222 44.0938 270.081 44.625C268.94 45.1562 267.456 45.4219 265.628 45.4219ZM263.167 24.2109H268.183V19.7109C268.183 18.5391 268.128 17.5547 268.019 16.7578C267.909 15.9453 267.69 15.3359 267.362 14.9297C267.034 14.5234 266.534 14.3203 265.862 14.3203C265.034 14.3203 264.425 14.5625 264.034 15.0469C263.659 15.5312 263.417 16.1953 263.308 17.0391C263.214 17.8672 263.167 18.8125 263.167 19.875V24.2109Z"/>
<path d="M286.886 45.4453C284.058 45.4453 281.956 44.6406 280.581 43.0312C279.206 41.4219 278.519 38.7891 278.519 35.1328V32.8594H284.354V35.6953C284.354 37.2266 284.542 38.3906 284.917 39.1875C285.292 39.9844 285.901 40.3828 286.745 40.3828C287.558 40.3828 288.159 40.1094 288.55 39.5625C288.94 39.0156 289.136 38.0703 289.136 36.7266C289.136 35.9453 289.019 35.1875 288.784 34.4531C288.565 33.7188 288.214 33 287.729 32.2969C287.261 31.5781 286.651 30.8828 285.901 30.2109L282.737 27.3516C281.284 26.0391 280.198 24.625 279.479 23.1094C278.761 21.5781 278.401 19.8906 278.401 18.0469C278.401 15.0625 279.097 12.8828 280.487 11.5078C281.894 10.1172 283.972 9.42188 286.722 9.42188C288.503 9.42188 289.979 9.75781 291.151 10.4297C292.323 11.0859 293.198 12.1562 293.776 13.6406C294.354 15.125 294.644 17.1172 294.644 19.6172V21.5391H289.089V19.2188C289.089 17.6719 288.909 16.5 288.55 15.7031C288.206 14.9062 287.612 14.5078 286.769 14.5078C285.94 14.5078 285.331 14.7422 284.94 15.2109C284.55 15.6641 284.339 16.4688 284.308 17.625C284.292 18.25 284.37 18.8672 284.542 19.4766C284.714 20.0703 284.979 20.6562 285.339 21.2344C285.714 21.7969 286.198 22.3516 286.792 22.8984L290.12 25.9219C291.87 27.5 293.159 29.1484 293.987 30.8672C294.831 32.5859 295.253 34.4453 295.253 36.4453C295.253 39.3984 294.581 41.6406 293.237 43.1719C291.894 44.6875 289.776 45.4453 286.886 45.4453Z"/>
<path d="M306.151 45.2344C304.651 45.2344 303.503 45.0469 302.706 44.6719C301.909 44.2812 301.362 43.6719 301.065 42.8438C300.769 42.0156 300.62 40.9453 300.62 39.6328V15.0703H297.761V10.5703H300.62V3.75H306.831V10.5703H310.253V15.0703H306.831V38.5547C306.831 39.1016 306.917 39.5156 307.089 39.7969C307.261 40.0781 307.597 40.2656 308.097 40.3594C308.612 40.4531 309.37 40.5 310.37 40.5V45.2344H306.151Z"/>
<path d="M314.87 45V9.84375H321.081V45H314.87ZM314.847 6.60938V1.21875H321.104V6.60938H314.847Z"/>
<path d="M327.362 45V9.84375H333.573V13.875C333.886 12.6719 334.542 11.6328 335.542 10.7578C336.542 9.86719 337.769 9.42188 339.222 9.42188C341.253 9.42188 342.776 10.1016 343.792 11.4609C344.808 12.8047 345.315 14.7578 345.315 17.3203V45H339.104V17.6953C339.104 16.6797 338.87 15.8828 338.401 15.3047C337.948 14.7266 337.323 14.4375 336.526 14.4375C335.886 14.4375 335.339 14.6172 334.886 14.9766C334.448 15.3203 334.12 15.8047 333.901 16.4297C333.683 17.0391 333.573 17.7578 333.573 18.5859V45H327.362Z"/>
<path d="M359.19 50.2734C357.253 50.3047 355.604 50.1172 354.245 49.7109C352.886 49.3203 351.651 48.6719 350.542 47.7656L352.722 43.8516C353.55 44.3828 354.448 44.8125 355.417 45.1406C356.401 45.4844 357.464 45.6484 358.604 45.6328C359.792 45.6172 360.698 45.2031 361.323 44.3906C361.948 43.5781 362.261 42.4922 362.261 41.1328V38.3438C361.854 39.5156 361.229 40.3203 360.386 40.7578C359.558 41.1953 358.55 41.4141 357.362 41.4141C355.706 41.4141 354.401 40.9766 353.448 40.1016C352.511 39.2266 351.847 38.0312 351.456 36.5156C351.065 35 350.87 33.2812 350.87 31.3594V20.0391C350.87 17.9922 351.073 16.1719 351.479 14.5781C351.886 12.9688 352.581 11.7031 353.565 10.7812C354.55 9.85938 355.901 9.40625 357.62 9.42188C358.823 9.42188 359.815 9.72656 360.597 10.3359C361.394 10.9453 361.948 11.8203 362.261 12.9609V9.84375H368.472V40.6641C368.472 42.0547 368.315 43.3359 368.003 44.5078C367.69 45.6641 367.175 46.6641 366.456 47.5078C365.737 48.3672 364.784 49.0312 363.597 49.5C362.409 49.9844 360.94 50.2422 359.19 50.2734ZM359.823 36.7031C360.386 36.7031 360.847 36.5391 361.206 36.2109C361.565 35.8672 361.831 35.2891 362.003 34.4766C362.175 33.6484 362.261 32.5 362.261 31.0312V19.5234C362.261 17.9766 362.073 16.7422 361.698 15.8203C361.323 14.8984 360.644 14.4375 359.659 14.4375C358.909 14.4375 358.354 14.6562 357.995 15.0938C357.636 15.5312 357.401 16.1328 357.292 16.8984C357.183 17.6484 357.128 18.5156 357.128 19.5V31.0781C357.128 32.8125 357.292 34.1875 357.62 35.2031C357.948 36.2031 358.683 36.7031 359.823 36.7031Z"/>
<path d="M383.12 45V3.75H393.503C395.659 3.75 397.269 4.17188 398.331 5.01562C399.394 5.85938 400.089 7.09375 400.417 8.71875C400.761 10.3438 400.933 12.3281 400.933 14.6719C400.933 17.0938 400.683 19 400.183 20.3906C399.698 21.7656 398.698 22.6875 397.183 23.1562C397.901 23.2812 398.503 23.5781 398.987 24.0469C399.472 24.5 399.862 25.1719 400.159 26.0625C400.456 26.9375 400.667 28.0703 400.792 29.4609C400.933 30.8359 401.003 32.5234 401.003 34.5234C401.003 34.6797 401.003 35.1172 401.003 35.8359C401.003 36.5547 401.003 37.4062 401.003 38.3906C401.019 39.3594 401.034 40.3281 401.05 41.2969C401.065 42.2656 401.089 43.0938 401.12 43.7812C401.151 44.4688 401.19 44.875 401.237 45H394.956C394.909 44.9219 394.87 44.5234 394.839 43.8047C394.823 43.0703 394.8 42.1406 394.769 41.0156C394.753 39.8906 394.737 38.6797 394.722 37.3828C394.722 36.0859 394.722 34.8125 394.722 33.5625C394.722 32.2969 394.722 31.1797 394.722 30.2109C394.722 28.9766 394.628 28.0469 394.44 27.4219C394.269 26.7812 393.94 26.3359 393.456 26.0859C392.987 25.8359 392.308 25.6875 391.417 25.6406L389.401 25.5234V45H383.12ZM389.425 20.6484H391.933C392.698 20.6484 393.276 20.4766 393.667 20.1328C394.073 19.7891 394.347 19.1562 394.487 18.2344C394.644 17.3125 394.722 15.9844 394.722 14.25V13.9922C394.722 12.5391 394.651 11.4219 394.511 10.6406C394.37 9.85938 394.073 9.32031 393.62 9.02344C393.183 8.72656 392.495 8.57812 391.558 8.57812H389.425V20.6484Z"/>
<path d="M414.55 45.4219C412.784 45.4219 411.331 45.1406 410.19 44.5781C409.065 44.0156 408.183 43.2031 407.542 42.1406C406.917 41.0781 406.479 39.8047 406.229 38.3203C405.979 36.8203 405.854 35.1484 405.854 33.3047V20.2031C405.854 18.5625 406.019 17.0781 406.347 15.75C406.69 14.4219 407.214 13.2891 407.917 12.3516C408.636 11.4141 409.565 10.6953 410.706 10.1953C411.847 9.67969 413.222 9.42188 414.831 9.42188C416.472 9.42188 417.839 9.67188 418.933 10.1719C420.026 10.6719 420.886 11.3984 421.511 12.3516C422.151 13.3047 422.604 14.4531 422.87 15.7969C423.151 17.125 423.292 18.6328 423.292 20.3203V27.8438H412.112V34.7578C412.112 36.4609 412.245 37.8281 412.511 38.8594C412.776 39.8906 413.503 40.4062 414.69 40.4062C415.487 40.4062 416.05 40.1641 416.378 39.6797C416.722 39.1953 416.925 38.5312 416.987 37.6875C417.065 36.8281 417.104 35.8516 417.104 34.7578V31.6641H423.245V33.5391C423.245 35.4297 423.128 37.1094 422.894 38.5781C422.675 40.0469 422.253 41.2891 421.628 42.3047C421.019 43.3203 420.144 44.0938 419.003 44.625C417.862 45.1562 416.378 45.4219 414.55 45.4219ZM412.089 24.2109H417.104V19.7109C417.104 18.5391 417.05 17.5547 416.94 16.7578C416.831 15.9453 416.612 15.3359 416.284 14.9297C415.956 14.5234 415.456 14.3203 414.784 14.3203C413.956 14.3203 413.347 14.5625 412.956 15.0469C412.581 15.5312 412.339 16.1953 412.229 17.0391C412.136 17.8672 412.089 18.8125 412.089 19.875V24.2109Z"/>
<path d="M435.808 45.4453C432.979 45.4453 430.878 44.6406 429.503 43.0312C428.128 41.4219 427.44 38.7891 427.44 35.1328V32.8594H433.276V35.6953C433.276 37.2266 433.464 38.3906 433.839 39.1875C434.214 39.9844 434.823 40.3828 435.667 40.3828C436.479 40.3828 437.081 40.1094 437.472 39.5625C437.862 39.0156 438.058 38.0703 438.058 36.7266C438.058 35.9453 437.94 35.1875 437.706 34.4531C437.487 33.7188 437.136 33 436.651 32.2969C436.183 31.5781 435.573 30.8828 434.823 30.2109L431.659 27.3516C430.206 26.0391 429.12 24.625 428.401 23.1094C427.683 21.5781 427.323 19.8906 427.323 18.0469C427.323 15.0625 428.019 12.8828 429.409 11.5078C430.815 10.1172 432.894 9.42188 435.644 9.42188C437.425 9.42188 438.901 9.75781 440.073 10.4297C441.245 11.0859 442.12 12.1562 442.698 13.6406C443.276 15.125 443.565 17.1172 443.565 19.6172V21.5391H438.011V19.2188C438.011 17.6719 437.831 16.5 437.472 15.7031C437.128 14.9062 436.534 14.5078 435.69 14.5078C434.862 14.5078 434.253 14.7422 433.862 15.2109C433.472 15.6641 433.261 16.4688 433.229 17.625C433.214 18.25 433.292 18.8672 433.464 19.4766C433.636 20.0703 433.901 20.6562 434.261 21.2344C434.636 21.7969 435.12 22.3516 435.714 22.8984L439.042 25.9219C440.792 27.5 442.081 29.1484 442.909 30.8672C443.753 32.5859 444.175 34.4453 444.175 36.4453C444.175 39.3984 443.503 41.6406 442.159 43.1719C440.815 44.6875 438.698 45.4453 435.808 45.4453Z"/>
<path d="M457.042 45.4219C455.354 45.4219 453.94 45.1641 452.8 44.6484C451.659 44.1172 450.753 43.3594 450.081 42.375C449.425 41.375 448.948 40.1641 448.651 38.7422C448.37 37.3047 448.229 35.6719 448.229 33.8438V20.6953C448.229 18.4922 448.511 16.5469 449.073 14.8594C449.651 13.1562 450.589 11.8281 451.886 10.875C453.183 9.90625 454.901 9.42188 457.042 9.42188C458.667 9.42188 460.034 9.69531 461.144 10.2422C462.269 10.7891 463.167 11.5703 463.839 12.5859C464.526 13.5859 465.026 14.7734 465.339 16.1484C465.651 17.5234 465.808 19.0391 465.808 20.6953V33.8438C465.808 35.6406 465.667 37.25 465.386 38.6719C465.12 40.0938 464.651 41.3125 463.979 42.3281C463.323 43.3281 462.433 44.0938 461.308 44.625C460.183 45.1562 458.761 45.4219 457.042 45.4219ZM457.042 40.4062C457.745 40.4062 458.276 40.1953 458.636 39.7734C458.995 39.3359 459.237 38.7344 459.362 37.9688C459.487 37.2031 459.55 36.3203 459.55 35.3203V19.5938C459.55 18.5312 459.479 17.6172 459.339 16.8516C459.198 16.0859 458.948 15.4922 458.589 15.0703C458.229 14.6484 457.714 14.4375 457.042 14.4375C456.339 14.4375 455.8 14.6484 455.425 15.0703C455.065 15.4922 454.815 16.0859 454.675 16.8516C454.55 17.6172 454.487 18.5312 454.487 19.5938V35.3203C454.487 36.3203 454.55 37.2031 454.675 37.9688C454.815 38.7344 455.065 39.3359 455.425 39.7734C455.8 40.1953 456.339 40.4062 457.042 40.4062Z"/>
<path d="M477.503 45.4453C476.112 45.4453 474.948 45.1328 474.011 44.5078C473.089 43.8828 472.394 42.9531 471.925 41.7188C471.472 40.4688 471.245 38.9062 471.245 37.0312V9.84375H477.479V36.0703C477.479 37.4141 477.644 38.4609 477.972 39.2109C478.3 39.9609 478.987 40.3359 480.034 40.3359C481.128 40.3359 481.87 39.9141 482.261 39.0703C482.667 38.2109 482.87 37.2266 482.87 36.1172L482.894 9.84375H489.081V45H482.87V41.3438C482.433 42.5312 481.8 43.5156 480.972 44.2969C480.144 45.0625 478.987 45.4453 477.503 45.4453Z"/>
<path d="M495.151 45V9.84375H501.409V13.7578C501.815 12.3984 502.519 11.3359 503.519 10.5703C504.534 9.80469 505.823 9.42188 507.386 9.42188C507.417 9.42188 507.433 9.6875 507.433 10.2188C507.448 10.75 507.456 11.3594 507.456 12.0469C507.456 12.7344 507.456 13.3438 507.456 13.875C507.456 14.4062 507.456 14.6719 507.456 14.6719C506.737 14.6719 505.956 14.7578 505.112 14.9297C504.284 15.1016 503.526 15.3672 502.839 15.7266C502.167 16.0703 501.69 16.5312 501.409 17.1094V45H495.151Z"/>
<path d="M519.995 45.4219C518.198 45.4219 516.714 45.1484 515.542 44.6016C514.37 44.0391 513.448 43.2344 512.776 42.1875C512.12 41.1406 511.659 39.8672 511.394 38.3672C511.128 36.8672 510.995 35.1719 510.995 33.2812V21.8906C510.995 19.2969 511.237 17.0703 511.722 15.2109C512.206 13.3516 513.097 11.9219 514.394 10.9219C515.706 9.92188 517.597 9.42188 520.065 9.42188C521.581 9.42188 522.862 9.65625 523.909 10.125C524.956 10.5938 525.8 11.2734 526.44 12.1641C527.081 13.0391 527.542 14.1016 527.823 15.3516C528.12 16.6016 528.269 18.0078 528.269 19.5703V23.4375H522.269V19.3594C522.269 18.3438 522.222 17.4766 522.128 16.7578C522.034 16.0234 521.823 15.4688 521.495 15.0938C521.167 14.7031 520.644 14.5078 519.925 14.5078C519.222 14.5078 518.675 14.7031 518.284 15.0938C517.894 15.4844 517.62 16.0547 517.464 16.8047C517.323 17.5391 517.253 18.4219 517.253 19.4531V35.2969C517.253 36.3594 517.315 37.2656 517.44 38.0156C517.581 38.7656 517.831 39.3438 518.19 39.75C518.565 40.1406 519.112 40.3359 519.831 40.3359C520.534 40.3359 521.058 40.1328 521.401 39.7266C521.761 39.3047 521.995 38.7188 522.104 37.9688C522.214 37.2188 522.269 36.3359 522.269 35.3203V31.1484H528.269V34.7109C528.269 36.3203 528.128 37.7891 527.847 39.1172C527.565 40.4297 527.104 41.5547 526.464 42.4922C525.823 43.4297 524.972 44.1562 523.909 44.6719C522.847 45.1719 521.542 45.4219 519.995 45.4219Z"/>
<path d="M541.675 45.4219C539.909 45.4219 538.456 45.1406 537.315 44.5781C536.19 44.0156 535.308 43.2031 534.667 42.1406C534.042 41.0781 533.604 39.8047 533.354 38.3203C533.104 36.8203 532.979 35.1484 532.979 33.3047V20.2031C532.979 18.5625 533.144 17.0781 533.472 15.75C533.815 14.4219 534.339 13.2891 535.042 12.3516C535.761 11.4141 536.69 10.6953 537.831 10.1953C538.972 9.67969 540.347 9.42188 541.956 9.42188C543.597 9.42188 544.964 9.67188 546.058 10.1719C547.151 10.6719 548.011 11.3984 548.636 12.3516C549.276 13.3047 549.729 14.4531 549.995 15.7969C550.276 17.125 550.417 18.6328 550.417 20.3203V27.8438H539.237V34.7578C539.237 36.4609 539.37 37.8281 539.636 38.8594C539.901 39.8906 540.628 40.4062 541.815 40.4062C542.612 40.4062 543.175 40.1641 543.503 39.6797C543.847 39.1953 544.05 38.5312 544.112 37.6875C544.19 36.8281 544.229 35.8516 544.229 34.7578V31.6641H550.37V33.5391C550.37 35.4297 550.253 37.1094 550.019 38.5781C549.8 40.0469 549.378 41.2891 548.753 42.3047C548.144 43.3203 547.269 44.0938 546.128 44.625C544.987 45.1562 543.503 45.4219 541.675 45.4219ZM539.214 24.2109H544.229V19.7109C544.229 18.5391 544.175 17.5547 544.065 16.7578C543.956 15.9453 543.737 15.3359 543.409 14.9297C543.081 14.5234 542.581 14.3203 541.909 14.3203C541.081 14.3203 540.472 14.5625 540.081 15.0469C539.706 15.5312 539.464 16.1953 539.354 17.0391C539.261 17.8672 539.214 18.8125 539.214 19.875V24.2109Z"/>
<path d="M562.933 45.4453C560.104 45.4453 558.003 44.6406 556.628 43.0312C555.253 41.4219 554.565 38.7891 554.565 35.1328V32.8594H560.401V35.6953C560.401 37.2266 560.589 38.3906 560.964 39.1875C561.339 39.9844 561.948 40.3828 562.792 40.3828C563.604 40.3828 564.206 40.1094 564.597 39.5625C564.987 39.0156 565.183 38.0703 565.183 36.7266C565.183 35.9453 565.065 35.1875 564.831 34.4531C564.612 33.7188 564.261 33 563.776 32.2969C563.308 31.5781 562.698 30.8828 561.948 30.2109L558.784 27.3516C557.331 26.0391 556.245 24.625 555.526 23.1094C554.808 21.5781 554.448 19.8906 554.448 18.0469C554.448 15.0625 555.144 12.8828 556.534 11.5078C557.94 10.1172 560.019 9.42188 562.769 9.42188C564.55 9.42188 566.026 9.75781 567.198 10.4297C568.37 11.0859 569.245 12.1562 569.823 13.6406C570.401 15.125 570.69 17.1172 570.69 19.6172V21.5391H565.136V19.2188C565.136 17.6719 564.956 16.5 564.597 15.7031C564.253 14.9062 563.659 14.5078 562.815 14.5078C561.987 14.5078 561.378 14.7422 560.987 15.2109C560.597 15.6641 560.386 16.4688 560.354 17.625C560.339 18.25 560.417 18.8672 560.589 19.4766C560.761 20.0703 561.026 20.6562 561.386 21.2344C561.761 21.7969 562.245 22.3516 562.839 22.8984L566.167 25.9219C567.917 27.5 569.206 29.1484 570.034 30.8672C570.878 32.5859 571.3 34.4453 571.3 36.4453C571.3 39.3984 570.628 41.6406 569.284 43.1719C567.94 44.6875 565.823 45.4453 562.933 45.4453Z"/>
</mask>
<g filter="url(#filter0_ii_127_2793)">
<path d="M1.13574 45V3.75H10.3936C12.4873 3.75 14.167 4.17188 15.4326 5.01562C16.6982 5.84375 17.6123 7.04688 18.1748 8.625C18.7529 10.2031 19.042 12.1094 19.042 14.3438L19.0654 32.9531C19.0654 35.6562 18.7686 37.9062 18.1748 39.7031C17.5967 41.4844 16.6592 42.8125 15.3623 43.6875C14.0654 44.5625 12.3389 45 10.1826 45H1.13574ZM7.41699 40.125H9.47949C10.2139 40.125 10.8232 39.9766 11.3076 39.6797C11.8076 39.3828 12.1748 38.8594 12.4092 38.1094C12.6592 37.3438 12.7842 36.2656 12.7842 34.875L12.7607 14.5078C12.7607 12.3984 12.5029 10.8828 11.9873 9.96094C11.4717 9.03906 10.5654 8.57812 9.26855 8.57812H7.41699V40.125Z" fill="#E0E0E0"/>
<path d="M32.9404 45.4219C31.1748 45.4219 29.7217 45.1406 28.5811 44.5781C27.4561 44.0156 26.5732 43.2031 25.9326 42.1406C25.3076 41.0781 24.8701 39.8047 24.6201 38.3203C24.3701 36.8203 24.2451 35.1484 24.2451 33.3047V20.2031C24.2451 18.5625 24.4092 17.0781 24.7373 15.75C25.0811 14.4219 25.6045 13.2891 26.3076 12.3516C27.0264 11.4141 27.9561 10.6953 29.0967 10.1953C30.2373 9.67969 31.6123 9.42188 33.2217 9.42188C34.8623 9.42188 36.2295 9.67188 37.3232 10.1719C38.417 10.6719 39.2764 11.3984 39.9014 12.3516C40.542 13.3047 40.9951 14.4531 41.2607 15.7969C41.542 17.125 41.6826 18.6328 41.6826 20.3203V27.8438H30.5029V34.7578C30.5029 36.4609 30.6357 37.8281 30.9014 38.8594C31.167 39.8906 31.8936 40.4062 33.0811 40.4062C33.8779 40.4062 34.4404 40.1641 34.7686 39.6797C35.1123 39.1953 35.3154 38.5312 35.3779 37.6875C35.4561 36.8281 35.4951 35.8516 35.4951 34.7578V31.6641H41.6357V33.5391C41.6357 35.4297 41.5186 37.1094 41.2842 38.5781C41.0654 40.0469 40.6436 41.2891 40.0186 42.3047C39.4092 43.3203 38.5342 44.0938 37.3936 44.625C36.2529 45.1562 34.7686 45.4219 32.9404 45.4219ZM30.4795 24.2109H35.4951V19.7109C35.4951 18.5391 35.4404 17.5547 35.3311 16.7578C35.2217 15.9453 35.0029 15.3359 34.6748 14.9297C34.3467 14.5234 33.8467 14.3203 33.1748 14.3203C32.3467 14.3203 31.7373 14.5625 31.3467 15.0469C30.9717 15.5312 30.7295 16.1953 30.6201 17.0391C30.5264 17.8672 30.4795 18.8125 30.4795 19.875V24.2109Z" fill="#E0E0E0"/>
<path d="M46.9326 51.6797V9.84375H53.1436V13.0078C53.5967 11.8516 54.3076 10.9766 55.2764 10.3828C56.2451 9.78906 57.2217 9.49219 58.2061 9.49219C60.0029 9.49219 61.3623 9.97656 62.2842 10.9453C63.2061 11.8984 63.8311 13.2031 64.1592 14.8594C64.4873 16.5156 64.6514 18.375 64.6514 20.4375V33.2578C64.6514 35.5078 64.4951 37.5547 64.1826 39.3984C63.8701 41.2422 63.2061 42.7109 62.1904 43.8047C61.1904 44.8828 59.6592 45.4219 57.5967 45.4219C56.6436 45.4219 55.7764 45.1641 54.9951 44.6484C54.2139 44.1328 53.5967 43.5391 53.1436 42.8672V51.6797H46.9326ZM55.8857 40.3828C56.9326 40.3828 57.6123 39.875 57.9248 38.8594C58.2373 37.8281 58.3936 36.3594 58.3936 34.4531V19.875C58.3936 18.8594 58.3389 17.9453 58.2295 17.1328C58.1357 16.3047 57.917 15.6484 57.5732 15.1641C57.2295 14.6797 56.6826 14.4375 55.9326 14.4375C55.3545 14.4375 54.8545 14.5859 54.4326 14.8828C54.0264 15.1797 53.7061 15.7188 53.4717 16.5C53.2529 17.2812 53.1436 18.3984 53.1436 19.8516V34.7109C53.1436 36.5078 53.3154 37.9062 53.6592 38.9062C54.0029 39.8906 54.7451 40.3828 55.8857 40.3828Z" fill="#E0E0E0"/>
<path d="M70.3232 45V3.39844H76.5107V45H70.3232Z" fill="#E0E0E0"/>
<path d="M91.0889 45.4219C89.4014 45.4219 87.9873 45.1641 86.8467 44.6484C85.7061 44.1172 84.7998 43.3594 84.1279 42.375C83.4717 41.375 82.9951 40.1641 82.6982 38.7422C82.417 37.3047 82.2764 35.6719 82.2764 33.8438V20.6953C82.2764 18.4922 82.5576 16.5469 83.1201 14.8594C83.6982 13.1562 84.6357 11.8281 85.9326 10.875C87.2295 9.90625 88.9482 9.42188 91.0889 9.42188C92.7139 9.42188 94.0811 9.69531 95.1904 10.2422C96.3154 10.7891 97.2139 11.5703 97.8857 12.5859C98.5732 13.5859 99.0732 14.7734 99.3857 16.1484C99.6982 17.5234 99.8545 19.0391 99.8545 20.6953V33.8438C99.8545 35.6406 99.7139 37.25 99.4326 38.6719C99.167 40.0938 98.6982 41.3125 98.0264 42.3281C97.3701 43.3281 96.4795 44.0938 95.3545 44.625C94.2295 45.1562 92.8076 45.4219 91.0889 45.4219ZM91.0889 40.4062C91.792 40.4062 92.3232 40.1953 92.6826 39.7734C93.042 39.3359 93.2842 38.7344 93.4092 37.9688C93.5342 37.2031 93.5967 36.3203 93.5967 35.3203V19.5938C93.5967 18.5312 93.5264 17.6172 93.3857 16.8516C93.2451 16.0859 92.9951 15.4922 92.6357 15.0703C92.2764 14.6484 91.7607 14.4375 91.0889 14.4375C90.3857 14.4375 89.8467 14.6484 89.4717 15.0703C89.1123 15.4922 88.8623 16.0859 88.7217 16.8516C88.5967 17.6172 88.5342 18.5312 88.5342 19.5938V35.3203C88.5342 36.3203 88.5967 37.2031 88.7217 37.9688C88.8623 38.7344 89.1123 39.3359 89.4717 39.7734C89.8467 40.1953 90.3857 40.4062 91.0889 40.4062Z" fill="#E0E0E0"/>
<path d="M104.519 51.2109V46.9219H106.558C107.245 46.9219 107.823 46.8594 108.292 46.7344C108.761 46.625 109.026 46.375 109.089 45.9844C109.198 45.7812 109.237 45.4219 109.206 44.9062C109.175 44.375 109.128 43.875 109.065 43.4062L103.44 9.84375H109.347L111.597 27.8203L112.534 37.2891H113.05L113.894 27.8203L115.956 9.84375H121.839L115.745 46.5C115.573 47.6094 115.331 48.5078 115.019 49.1953C114.722 49.8984 114.269 50.4062 113.659 50.7188C113.05 51.0469 112.206 51.2109 111.128 51.2109H104.519Z" fill="#E0E0E0"/>
<path d="M125.659 45V9.84375H131.87V13.6641C132.214 12.4141 132.839 11.3984 133.745 10.6172C134.667 9.82031 135.917 9.42188 137.495 9.42188C138.698 9.42188 139.745 9.6875 140.636 10.2188C141.526 10.75 142.214 11.6641 142.698 12.9609C143.292 11.8672 144.073 11.0078 145.042 10.3828C146.011 9.74219 147.222 9.42188 148.675 9.42188C150.956 9.42188 152.573 10.1875 153.526 11.7188C154.479 13.25 154.956 15.3672 154.956 18.0703V45H148.769V18C148.769 16.75 148.558 15.8594 148.136 15.3281C147.714 14.7812 147.136 14.5078 146.401 14.5078C145.464 14.5078 144.729 14.8359 144.198 15.4922C143.683 16.1328 143.425 17.0781 143.425 18.3281V45H137.214V17.9531C137.214 16.9062 137.034 16.0703 136.675 15.4453C136.331 14.8203 135.745 14.5078 134.917 14.5078C133.839 14.5078 133.058 14.9219 132.573 15.75C132.104 16.5625 131.87 17.5312 131.87 18.6562V45H125.659Z" fill="#E0E0E0"/>
<path d="M169.112 45.4219C167.347 45.4219 165.894 45.1406 164.753 44.5781C163.628 44.0156 162.745 43.2031 162.104 42.1406C161.479 41.0781 161.042 39.8047 160.792 38.3203C160.542 36.8203 160.417 35.1484 160.417 33.3047V20.2031C160.417 18.5625 160.581 17.0781 160.909 15.75C161.253 14.4219 161.776 13.2891 162.479 12.3516C163.198 11.4141 164.128 10.6953 165.269 10.1953C166.409 9.67969 167.784 9.42188 169.394 9.42188C171.034 9.42188 172.401 9.67188 173.495 10.1719C174.589 10.6719 175.448 11.3984 176.073 12.3516C176.714 13.3047 177.167 14.4531 177.433 15.7969C177.714 17.125 177.854 18.6328 177.854 20.3203V27.8438H166.675V34.7578C166.675 36.4609 166.808 37.8281 167.073 38.8594C167.339 39.8906 168.065 40.4062 169.253 40.4062C170.05 40.4062 170.612 40.1641 170.94 39.6797C171.284 39.1953 171.487 38.5312 171.55 37.6875C171.628 36.8281 171.667 35.8516 171.667 34.7578V31.6641H177.808V33.5391C177.808 35.4297 177.69 37.1094 177.456 38.5781C177.237 40.0469 176.815 41.2891 176.19 42.3047C175.581 43.3203 174.706 44.0938 173.565 44.625C172.425 45.1562 170.94 45.4219 169.112 45.4219ZM166.651 24.2109H171.667V19.7109C171.667 18.5391 171.612 17.5547 171.503 16.7578C171.394 15.9453 171.175 15.3359 170.847 14.9297C170.519 14.5234 170.019 14.3203 169.347 14.3203C168.519 14.3203 167.909 14.5625 167.519 15.0469C167.144 15.5312 166.901 16.1953 166.792 17.0391C166.698 17.8672 166.651 18.8125 166.651 19.875V24.2109Z" fill="#E0E0E0"/>
<path d="M183.081 45V9.84375H189.292V13.875C189.604 12.6719 190.261 11.6328 191.261 10.7578C192.261 9.86719 193.487 9.42188 194.94 9.42188C196.972 9.42188 198.495 10.1016 199.511 11.4609C200.526 12.8047 201.034 14.7578 201.034 17.3203V45H194.823V17.6953C194.823 16.6797 194.589 15.8828 194.12 15.3047C193.667 14.7266 193.042 14.4375 192.245 14.4375C191.604 14.4375 191.058 14.6172 190.604 14.9766C190.167 15.3203 189.839 15.8047 189.62 16.4297C189.401 17.0391 189.292 17.7578 189.292 18.5859V45H183.081Z" fill="#E0E0E0"/>
<path d="M213.339 45.2344C211.839 45.2344 210.69 45.0469 209.894 44.6719C209.097 44.2812 208.55 43.6719 208.253 42.8438C207.956 42.0156 207.808 40.9453 207.808 39.6328V15.0703H204.948V10.5703H207.808V3.75H214.019V10.5703H217.44V15.0703H214.019V38.5547C214.019 39.1016 214.104 39.5156 214.276 39.7969C214.448 40.0781 214.784 40.2656 215.284 40.3594C215.8 40.4531 216.558 40.5 217.558 40.5V45.2344H213.339Z" fill="#E0E0E0"/>
<path d="M222.901 52.9219L224.542 45H221.612V38.7188H228.362V44.7891L225.972 52.9219H222.901Z" fill="#E0E0E0"/>
<path d="M244.183 45V9.1875H239.354V3.75H255.081V9.1875H250.44V45H244.183Z" fill="#E0E0E0"/>
<path d="M265.628 45.4219C263.862 45.4219 262.409 45.1406 261.269 44.5781C260.144 44.0156 259.261 43.2031 258.62 42.1406C257.995 41.0781 257.558 39.8047 257.308 38.3203C257.058 36.8203 256.933 35.1484 256.933 33.3047V20.2031C256.933 18.5625 257.097 17.0781 257.425 15.75C257.769 14.4219 258.292 13.2891 258.995 12.3516C259.714 11.4141 260.644 10.6953 261.784 10.1953C262.925 9.67969 264.3 9.42188 265.909 9.42188C267.55 9.42188 268.917 9.67188 270.011 10.1719C271.104 10.6719 271.964 11.3984 272.589 12.3516C273.229 13.3047 273.683 14.4531 273.948 15.7969C274.229 17.125 274.37 18.6328 274.37 20.3203V27.8438H263.19V34.7578C263.19 36.4609 263.323 37.8281 263.589 38.8594C263.854 39.8906 264.581 40.4062 265.769 40.4062C266.565 40.4062 267.128 40.1641 267.456 39.6797C267.8 39.1953 268.003 38.5312 268.065 37.6875C268.144 36.8281 268.183 35.8516 268.183 34.7578V31.6641H274.323V33.5391C274.323 35.4297 274.206 37.1094 273.972 38.5781C273.753 40.0469 273.331 41.2891 272.706 42.3047C272.097 43.3203 271.222 44.0938 270.081 44.625C268.94 45.1562 267.456 45.4219 265.628 45.4219ZM263.167 24.2109H268.183V19.7109C268.183 18.5391 268.128 17.5547 268.019 16.7578C267.909 15.9453 267.69 15.3359 267.362 14.9297C267.034 14.5234 266.534 14.3203 265.862 14.3203C265.034 14.3203 264.425 14.5625 264.034 15.0469C263.659 15.5312 263.417 16.1953 263.308 17.0391C263.214 17.8672 263.167 18.8125 263.167 19.875V24.2109Z" fill="#E0E0E0"/>
<path d="M286.886 45.4453C284.058 45.4453 281.956 44.6406 280.581 43.0312C279.206 41.4219 278.519 38.7891 278.519 35.1328V32.8594H284.354V35.6953C284.354 37.2266 284.542 38.3906 284.917 39.1875C285.292 39.9844 285.901 40.3828 286.745 40.3828C287.558 40.3828 288.159 40.1094 288.55 39.5625C288.94 39.0156 289.136 38.0703 289.136 36.7266C289.136 35.9453 289.019 35.1875 288.784 34.4531C288.565 33.7188 288.214 33 287.729 32.2969C287.261 31.5781 286.651 30.8828 285.901 30.2109L282.737 27.3516C281.284 26.0391 280.198 24.625 279.479 23.1094C278.761 21.5781 278.401 19.8906 278.401 18.0469C278.401 15.0625 279.097 12.8828 280.487 11.5078C281.894 10.1172 283.972 9.42188 286.722 9.42188C288.503 9.42188 289.979 9.75781 291.151 10.4297C292.323 11.0859 293.198 12.1562 293.776 13.6406C294.354 15.125 294.644 17.1172 294.644 19.6172V21.5391H289.089V19.2188C289.089 17.6719 288.909 16.5 288.55 15.7031C288.206 14.9062 287.612 14.5078 286.769 14.5078C285.94 14.5078 285.331 14.7422 284.94 15.2109C284.55 15.6641 284.339 16.4688 284.308 17.625C284.292 18.25 284.37 18.8672 284.542 19.4766C284.714 20.0703 284.979 20.6562 285.339 21.2344C285.714 21.7969 286.198 22.3516 286.792 22.8984L290.12 25.9219C291.87 27.5 293.159 29.1484 293.987 30.8672C294.831 32.5859 295.253 34.4453 295.253 36.4453C295.253 39.3984 294.581 41.6406 293.237 43.1719C291.894 44.6875 289.776 45.4453 286.886 45.4453Z" fill="#E0E0E0"/>
<path d="M306.151 45.2344C304.651 45.2344 303.503 45.0469 302.706 44.6719C301.909 44.2812 301.362 43.6719 301.065 42.8438C300.769 42.0156 300.62 40.9453 300.62 39.6328V15.0703H297.761V10.5703H300.62V3.75H306.831V10.5703H310.253V15.0703H306.831V38.5547C306.831 39.1016 306.917 39.5156 307.089 39.7969C307.261 40.0781 307.597 40.2656 308.097 40.3594C308.612 40.4531 309.37 40.5 310.37 40.5V45.2344H306.151Z" fill="#E0E0E0"/>
<path d="M314.87 45V9.84375H321.081V45H314.87ZM314.847 6.60938V1.21875H321.104V6.60938H314.847Z" fill="#E0E0E0"/>
<path d="M327.362 45V9.84375H333.573V13.875C333.886 12.6719 334.542 11.6328 335.542 10.7578C336.542 9.86719 337.769 9.42188 339.222 9.42188C341.253 9.42188 342.776 10.1016 343.792 11.4609C344.808 12.8047 345.315 14.7578 345.315 17.3203V45H339.104V17.6953C339.104 16.6797 338.87 15.8828 338.401 15.3047C337.948 14.7266 337.323 14.4375 336.526 14.4375C335.886 14.4375 335.339 14.6172 334.886 14.9766C334.448 15.3203 334.12 15.8047 333.901 16.4297C333.683 17.0391 333.573 17.7578 333.573 18.5859V45H327.362Z" fill="#E0E0E0"/>
<path d="M359.19 50.2734C357.253 50.3047 355.604 50.1172 354.245 49.7109C352.886 49.3203 351.651 48.6719 350.542 47.7656L352.722 43.8516C353.55 44.3828 354.448 44.8125 355.417 45.1406C356.401 45.4844 357.464 45.6484 358.604 45.6328C359.792 45.6172 360.698 45.2031 361.323 44.3906C361.948 43.5781 362.261 42.4922 362.261 41.1328V38.3438C361.854 39.5156 361.229 40.3203 360.386 40.7578C359.558 41.1953 358.55 41.4141 357.362 41.4141C355.706 41.4141 354.401 40.9766 353.448 40.1016C352.511 39.2266 351.847 38.0312 351.456 36.5156C351.065 35 350.87 33.2812 350.87 31.3594V20.0391C350.87 17.9922 351.073 16.1719 351.479 14.5781C351.886 12.9688 352.581 11.7031 353.565 10.7812C354.55 9.85938 355.901 9.40625 357.62 9.42188C358.823 9.42188 359.815 9.72656 360.597 10.3359C361.394 10.9453 361.948 11.8203 362.261 12.9609V9.84375H368.472V40.6641C368.472 42.0547 368.315 43.3359 368.003 44.5078C367.69 45.6641 367.175 46.6641 366.456 47.5078C365.737 48.3672 364.784 49.0312 363.597 49.5C362.409 49.9844 360.94 50.2422 359.19 50.2734ZM359.823 36.7031C360.386 36.7031 360.847 36.5391 361.206 36.2109C361.565 35.8672 361.831 35.2891 362.003 34.4766C362.175 33.6484 362.261 32.5 362.261 31.0312V19.5234C362.261 17.9766 362.073 16.7422 361.698 15.8203C361.323 14.8984 360.644 14.4375 359.659 14.4375C358.909 14.4375 358.354 14.6562 357.995 15.0938C357.636 15.5312 357.401 16.1328 357.292 16.8984C357.183 17.6484 357.128 18.5156 357.128 19.5V31.0781C357.128 32.8125 357.292 34.1875 357.62 35.2031C357.948 36.2031 358.683 36.7031 359.823 36.7031Z" fill="#E0E0E0"/>
<path d="M383.12 45V3.75H393.503C395.659 3.75 397.269 4.17188 398.331 5.01562C399.394 5.85938 400.089 7.09375 400.417 8.71875C400.761 10.3438 400.933 12.3281 400.933 14.6719C400.933 17.0938 400.683 19 400.183 20.3906C399.698 21.7656 398.698 22.6875 397.183 23.1562C397.901 23.2812 398.503 23.5781 398.987 24.0469C399.472 24.5 399.862 25.1719 400.159 26.0625C400.456 26.9375 400.667 28.0703 400.792 29.4609C400.933 30.8359 401.003 32.5234 401.003 34.5234C401.003 34.6797 401.003 35.1172 401.003 35.8359C401.003 36.5547 401.003 37.4062 401.003 38.3906C401.019 39.3594 401.034 40.3281 401.05 41.2969C401.065 42.2656 401.089 43.0938 401.12 43.7812C401.151 44.4688 401.19 44.875 401.237 45H394.956C394.909 44.9219 394.87 44.5234 394.839 43.8047C394.823 43.0703 394.8 42.1406 394.769 41.0156C394.753 39.8906 394.737 38.6797 394.722 37.3828C394.722 36.0859 394.722 34.8125 394.722 33.5625C394.722 32.2969 394.722 31.1797 394.722 30.2109C394.722 28.9766 394.628 28.0469 394.44 27.4219C394.269 26.7812 393.94 26.3359 393.456 26.0859C392.987 25.8359 392.308 25.6875 391.417 25.6406L389.401 25.5234V45H383.12ZM389.425 20.6484H391.933C392.698 20.6484 393.276 20.4766 393.667 20.1328C394.073 19.7891 394.347 19.1562 394.487 18.2344C394.644 17.3125 394.722 15.9844 394.722 14.25V13.9922C394.722 12.5391 394.651 11.4219 394.511 10.6406C394.37 9.85938 394.073 9.32031 393.62 9.02344C393.183 8.72656 392.495 8.57812 391.558 8.57812H389.425V20.6484Z" fill="#E0E0E0"/>
<path d="M414.55 45.4219C412.784 45.4219 411.331 45.1406 410.19 44.5781C409.065 44.0156 408.183 43.2031 407.542 42.1406C406.917 41.0781 406.479 39.8047 406.229 38.3203C405.979 36.8203 405.854 35.1484 405.854 33.3047V20.2031C405.854 18.5625 406.019 17.0781 406.347 15.75C406.69 14.4219 407.214 13.2891 407.917 12.3516C408.636 11.4141 409.565 10.6953 410.706 10.1953C411.847 9.67969 413.222 9.42188 414.831 9.42188C416.472 9.42188 417.839 9.67188 418.933 10.1719C420.026 10.6719 420.886 11.3984 421.511 12.3516C422.151 13.3047 422.604 14.4531 422.87 15.7969C423.151 17.125 423.292 18.6328 423.292 20.3203V27.8438H412.112V34.7578C412.112 36.4609 412.245 37.8281 412.511 38.8594C412.776 39.8906 413.503 40.4062 414.69 40.4062C415.487 40.4062 416.05 40.1641 416.378 39.6797C416.722 39.1953 416.925 38.5312 416.987 37.6875C417.065 36.8281 417.104 35.8516 417.104 34.7578V31.6641H423.245V33.5391C423.245 35.4297 423.128 37.1094 422.894 38.5781C422.675 40.0469 422.253 41.2891 421.628 42.3047C421.019 43.3203 420.144 44.0938 419.003 44.625C417.862 45.1562 416.378 45.4219 414.55 45.4219ZM412.089 24.2109H417.104V19.7109C417.104 18.5391 417.05 17.5547 416.94 16.7578C416.831 15.9453 416.612 15.3359 416.284 14.9297C415.956 14.5234 415.456 14.3203 414.784 14.3203C413.956 14.3203 413.347 14.5625 412.956 15.0469C412.581 15.5312 412.339 16.1953 412.229 17.0391C412.136 17.8672 412.089 18.8125 412.089 19.875V24.2109Z" fill="#E0E0E0"/>
<path d="M435.808 45.4453C432.979 45.4453 430.878 44.6406 429.503 43.0312C428.128 41.4219 427.44 38.7891 427.44 35.1328V32.8594H433.276V35.6953C433.276 37.2266 433.464 38.3906 433.839 39.1875C434.214 39.9844 434.823 40.3828 435.667 40.3828C436.479 40.3828 437.081 40.1094 437.472 39.5625C437.862 39.0156 438.058 38.0703 438.058 36.7266C438.058 35.9453 437.94 35.1875 437.706 34.4531C437.487 33.7188 437.136 33 436.651 32.2969C436.183 31.5781 435.573 30.8828 434.823 30.2109L431.659 27.3516C430.206 26.0391 429.12 24.625 428.401 23.1094C427.683 21.5781 427.323 19.8906 427.323 18.0469C427.323 15.0625 428.019 12.8828 429.409 11.5078C430.815 10.1172 432.894 9.42188 435.644 9.42188C437.425 9.42188 438.901 9.75781 440.073 10.4297C441.245 11.0859 442.12 12.1562 442.698 13.6406C443.276 15.125 443.565 17.1172 443.565 19.6172V21.5391H438.011V19.2188C438.011 17.6719 437.831 16.5 437.472 15.7031C437.128 14.9062 436.534 14.5078 435.69 14.5078C434.862 14.5078 434.253 14.7422 433.862 15.2109C433.472 15.6641 433.261 16.4688 433.229 17.625C433.214 18.25 433.292 18.8672 433.464 19.4766C433.636 20.0703 433.901 20.6562 434.261 21.2344C434.636 21.7969 435.12 22.3516 435.714 22.8984L439.042 25.9219C440.792 27.5 442.081 29.1484 442.909 30.8672C443.753 32.5859 444.175 34.4453 444.175 36.4453C444.175 39.3984 443.503 41.6406 442.159 43.1719C440.815 44.6875 438.698 45.4453 435.808 45.4453Z" fill="#E0E0E0"/>
<path d="M457.042 45.4219C455.354 45.4219 453.94 45.1641 452.8 44.6484C451.659 44.1172 450.753 43.3594 450.081 42.375C449.425 41.375 448.948 40.1641 448.651 38.7422C448.37 37.3047 448.229 35.6719 448.229 33.8438V20.6953C448.229 18.4922 448.511 16.5469 449.073 14.8594C449.651 13.1562 450.589 11.8281 451.886 10.875C453.183 9.90625 454.901 9.42188 457.042 9.42188C458.667 9.42188 460.034 9.69531 461.144 10.2422C462.269 10.7891 463.167 11.5703 463.839 12.5859C464.526 13.5859 465.026 14.7734 465.339 16.1484C465.651 17.5234 465.808 19.0391 465.808 20.6953V33.8438C465.808 35.6406 465.667 37.25 465.386 38.6719C465.12 40.0938 464.651 41.3125 463.979 42.3281C463.323 43.3281 462.433 44.0938 461.308 44.625C460.183 45.1562 458.761 45.4219 457.042 45.4219ZM457.042 40.4062C457.745 40.4062 458.276 40.1953 458.636 39.7734C458.995 39.3359 459.237 38.7344 459.362 37.9688C459.487 37.2031 459.55 36.3203 459.55 35.3203V19.5938C459.55 18.5312 459.479 17.6172 459.339 16.8516C459.198 16.0859 458.948 15.4922 458.589 15.0703C458.229 14.6484 457.714 14.4375 457.042 14.4375C456.339 14.4375 455.8 14.6484 455.425 15.0703C455.065 15.4922 454.815 16.0859 454.675 16.8516C454.55 17.6172 454.487 18.5312 454.487 19.5938V35.3203C454.487 36.3203 454.55 37.2031 454.675 37.9688C454.815 38.7344 455.065 39.3359 455.425 39.7734C455.8 40.1953 456.339 40.4062 457.042 40.4062Z" fill="#E0E0E0"/>
<path d="M477.503 45.4453C476.112 45.4453 474.948 45.1328 474.011 44.5078C473.089 43.8828 472.394 42.9531 471.925 41.7188C471.472 40.4688 471.245 38.9062 471.245 37.0312V9.84375H477.479V36.0703C477.479 37.4141 477.644 38.4609 477.972 39.2109C478.3 39.9609 478.987 40.3359 480.034 40.3359C481.128 40.3359 481.87 39.9141 482.261 39.0703C482.667 38.2109 482.87 37.2266 482.87 36.1172L482.894 9.84375H489.081V45H482.87V41.3438C482.433 42.5312 481.8 43.5156 480.972 44.2969C480.144 45.0625 478.987 45.4453 477.503 45.4453Z" fill="#E0E0E0"/>
<path d="M495.151 45V9.84375H501.409V13.7578C501.815 12.3984 502.519 11.3359 503.519 10.5703C504.534 9.80469 505.823 9.42188 507.386 9.42188C507.417 9.42188 507.433 9.6875 507.433 10.2188C507.448 10.75 507.456 11.3594 507.456 12.0469C507.456 12.7344 507.456 13.3438 507.456 13.875C507.456 14.4062 507.456 14.6719 507.456 14.6719C506.737 14.6719 505.956 14.7578 505.112 14.9297C504.284 15.1016 503.526 15.3672 502.839 15.7266C502.167 16.0703 501.69 16.5312 501.409 17.1094V45H495.151Z" fill="#E0E0E0"/>
<path d="M519.995 45.4219C518.198 45.4219 516.714 45.1484 515.542 44.6016C514.37 44.0391 513.448 43.2344 512.776 42.1875C512.12 41.1406 511.659 39.8672 511.394 38.3672C511.128 36.8672 510.995 35.1719 510.995 33.2812V21.8906C510.995 19.2969 511.237 17.0703 511.722 15.2109C512.206 13.3516 513.097 11.9219 514.394 10.9219C515.706 9.92188 517.597 9.42188 520.065 9.42188C521.581 9.42188 522.862 9.65625 523.909 10.125C524.956 10.5938 525.8 11.2734 526.44 12.1641C527.081 13.0391 527.542 14.1016 527.823 15.3516C528.12 16.6016 528.269 18.0078 528.269 19.5703V23.4375H522.269V19.3594C522.269 18.3438 522.222 17.4766 522.128 16.7578C522.034 16.0234 521.823 15.4688 521.495 15.0938C521.167 14.7031 520.644 14.5078 519.925 14.5078C519.222 14.5078 518.675 14.7031 518.284 15.0938C517.894 15.4844 517.62 16.0547 517.464 16.8047C517.323 17.5391 517.253 18.4219 517.253 19.4531V35.2969C517.253 36.3594 517.315 37.2656 517.44 38.0156C517.581 38.7656 517.831 39.3438 518.19 39.75C518.565 40.1406 519.112 40.3359 519.831 40.3359C520.534 40.3359 521.058 40.1328 521.401 39.7266C521.761 39.3047 521.995 38.7188 522.104 37.9688C522.214 37.2188 522.269 36.3359 522.269 35.3203V31.1484H528.269V34.7109C528.269 36.3203 528.128 37.7891 527.847 39.1172C527.565 40.4297 527.104 41.5547 526.464 42.4922C525.823 43.4297 524.972 44.1562 523.909 44.6719C522.847 45.1719 521.542 45.4219 519.995 45.4219Z" fill="#E0E0E0"/>
<path d="M541.675 45.4219C539.909 45.4219 538.456 45.1406 537.315 44.5781C536.19 44.0156 535.308 43.2031 534.667 42.1406C534.042 41.0781 533.604 39.8047 533.354 38.3203C533.104 36.8203 532.979 35.1484 532.979 33.3047V20.2031C532.979 18.5625 533.144 17.0781 533.472 15.75C533.815 14.4219 534.339 13.2891 535.042 12.3516C535.761 11.4141 536.69 10.6953 537.831 10.1953C538.972 9.67969 540.347 9.42188 541.956 9.42188C543.597 9.42188 544.964 9.67188 546.058 10.1719C547.151 10.6719 548.011 11.3984 548.636 12.3516C549.276 13.3047 549.729 14.4531 549.995 15.7969C550.276 17.125 550.417 18.6328 550.417 20.3203V27.8438H539.237V34.7578C539.237 36.4609 539.37 37.8281 539.636 38.8594C539.901 39.8906 540.628 40.4062 541.815 40.4062C542.612 40.4062 543.175 40.1641 543.503 39.6797C543.847 39.1953 544.05 38.5312 544.112 37.6875C544.19 36.8281 544.229 35.8516 544.229 34.7578V31.6641H550.37V33.5391C550.37 35.4297 550.253 37.1094 550.019 38.5781C549.8 40.0469 549.378 41.2891 548.753 42.3047C548.144 43.3203 547.269 44.0938 546.128 44.625C544.987 45.1562 543.503 45.4219 541.675 45.4219ZM539.214 24.2109H544.229V19.7109C544.229 18.5391 544.175 17.5547 544.065 16.7578C543.956 15.9453 543.737 15.3359 543.409 14.9297C543.081 14.5234 542.581 14.3203 541.909 14.3203C541.081 14.3203 540.472 14.5625 540.081 15.0469C539.706 15.5312 539.464 16.1953 539.354 17.0391C539.261 17.8672 539.214 18.8125 539.214 19.875V24.2109Z" fill="#E0E0E0"/>
<path d="M562.933 45.4453C560.104 45.4453 558.003 44.6406 556.628 43.0312C555.253 41.4219 554.565 38.7891 554.565 35.1328V32.8594H560.401V35.6953C560.401 37.2266 560.589 38.3906 560.964 39.1875C561.339 39.9844 561.948 40.3828 562.792 40.3828C563.604 40.3828 564.206 40.1094 564.597 39.5625C564.987 39.0156 565.183 38.0703 565.183 36.7266C565.183 35.9453 565.065 35.1875 564.831 34.4531C564.612 33.7188 564.261 33 563.776 32.2969C563.308 31.5781 562.698 30.8828 561.948 30.2109L558.784 27.3516C557.331 26.0391 556.245 24.625 555.526 23.1094C554.808 21.5781 554.448 19.8906 554.448 18.0469C554.448 15.0625 555.144 12.8828 556.534 11.5078C557.94 10.1172 560.019 9.42188 562.769 9.42188C564.55 9.42188 566.026 9.75781 567.198 10.4297C568.37 11.0859 569.245 12.1562 569.823 13.6406C570.401 15.125 570.69 17.1172 570.69 19.6172V21.5391H565.136V19.2188C565.136 17.6719 564.956 16.5 564.597 15.7031C564.253 14.9062 563.659 14.5078 562.815 14.5078C561.987 14.5078 561.378 14.7422 560.987 15.2109C560.597 15.6641 560.386 16.4688 560.354 17.625C560.339 18.25 560.417 18.8672 560.589 19.4766C560.761 20.0703 561.026 20.6562 561.386 21.2344C561.761 21.7969 562.245 22.3516 562.839 22.8984L566.167 25.9219C567.917 27.5 569.206 29.1484 570.034 30.8672C570.878 32.5859 571.3 34.4453 571.3 36.4453C571.3 39.3984 570.628 41.6406 569.284 43.1719C567.94 44.6875 565.823 45.4453 562.933 45.4453Z" fill="#E0E0E0"/>
</g>
<path d="M1.13574 45V3.75H10.3936C12.4873 3.75 14.167 4.17188 15.4326 5.01562C16.6982 5.84375 17.6123 7.04688 18.1748 8.625C18.7529 10.2031 19.042 12.1094 19.042 14.3438L19.0654 32.9531C19.0654 35.6562 18.7686 37.9062 18.1748 39.7031C17.5967 41.4844 16.6592 42.8125 15.3623 43.6875C14.0654 44.5625 12.3389 45 10.1826 45H1.13574ZM7.41699 40.125H9.47949C10.2139 40.125 10.8232 39.9766 11.3076 39.6797C11.8076 39.3828 12.1748 38.8594 12.4092 38.1094C12.6592 37.3438 12.7842 36.2656 12.7842 34.875L12.7607 14.5078C12.7607 12.3984 12.5029 10.8828 11.9873 9.96094C11.4717 9.03906 10.5654 8.57812 9.26855 8.57812H7.41699V40.125Z" stroke="#EAEAEA" stroke-width="2" mask="url(#path-1-outside-1_127_2793)"/>
<path d="M32.9404 45.4219C31.1748 45.4219 29.7217 45.1406 28.5811 44.5781C27.4561 44.0156 26.5732 43.2031 25.9326 42.1406C25.3076 41.0781 24.8701 39.8047 24.6201 38.3203C24.3701 36.8203 24.2451 35.1484 24.2451 33.3047V20.2031C24.2451 18.5625 24.4092 17.0781 24.7373 15.75C25.0811 14.4219 25.6045 13.2891 26.3076 12.3516C27.0264 11.4141 27.9561 10.6953 29.0967 10.1953C30.2373 9.67969 31.6123 9.42188 33.2217 9.42188C34.8623 9.42188 36.2295 9.67188 37.3232 10.1719C38.417 10.6719 39.2764 11.3984 39.9014 12.3516C40.542 13.3047 40.9951 14.4531 41.2607 15.7969C41.542 17.125 41.6826 18.6328 41.6826 20.3203V27.8438H30.5029V34.7578C30.5029 36.4609 30.6357 37.8281 30.9014 38.8594C31.167 39.8906 31.8936 40.4062 33.0811 40.4062C33.8779 40.4062 34.4404 40.1641 34.7686 39.6797C35.1123 39.1953 35.3154 38.5312 35.3779 37.6875C35.4561 36.8281 35.4951 35.8516 35.4951 34.7578V31.6641H41.6357V33.5391C41.6357 35.4297 41.5186 37.1094 41.2842 38.5781C41.0654 40.0469 40.6436 41.2891 40.0186 42.3047C39.4092 43.3203 38.5342 44.0938 37.3936 44.625C36.2529 45.1562 34.7686 45.4219 32.9404 45.4219ZM30.4795 24.2109H35.4951V19.7109C35.4951 18.5391 35.4404 17.5547 35.3311 16.7578C35.2217 15.9453 35.0029 15.3359 34.6748 14.9297C34.3467 14.5234 33.8467 14.3203 33.1748 14.3203C32.3467 14.3203 31.7373 14.5625 31.3467 15.0469C30.9717 15.5312 30.7295 16.1953 30.6201 17.0391C30.5264 17.8672 30.4795 18.8125 30.4795 19.875V24.2109Z" stroke="#EAEAEA" stroke-width="2" mask="url(#path-1-outside-1_127_2793)"/>
<path d="M46.9326 51.6797V9.84375H53.1436V13.0078C53.5967 11.8516 54.3076 10.9766 55.2764 10.3828C56.2451 9.78906 57.2217 9.49219 58.2061 9.49219C60.0029 9.49219 61.3623 9.97656 62.2842 10.9453C63.2061 11.8984 63.8311 13.2031 64.1592 14.8594C64.4873 16.5156 64.6514 18.375 64.6514 20.4375V33.2578C64.6514 35.5078 64.4951 37.5547 64.1826 39.3984C63.8701 41.2422 63.2061 42.7109 62.1904 43.8047C61.1904 44.8828 59.6592 45.4219 57.5967 45.4219C56.6436 45.4219 55.7764 45.1641 54.9951 44.6484C54.2139 44.1328 53.5967 43.5391 53.1436 42.8672V51.6797H46.9326ZM55.8857 40.3828C56.9326 40.3828 57.6123 39.875 57.9248 38.8594C58.2373 37.8281 58.3936 36.3594 58.3936 34.4531V19.875C58.3936 18.8594 58.3389 17.9453 58.2295 17.1328C58.1357 16.3047 57.917 15.6484 57.5732 15.1641C57.2295 14.6797 56.6826 14.4375 55.9326 14.4375C55.3545 14.4375 54.8545 14.5859 54.4326 14.8828C54.0264 15.1797 53.7061 15.7188 53.4717 16.5C53.2529 17.2812 53.1436 18.3984 53.1436 19.8516V34.7109C53.1436 36.5078 53.3154 37.9062 53.6592 38.9062C54.0029 39.8906 54.7451 40.3828 55.8857 40.3828Z" stroke="#EAEAEA" stroke-width="2" mask="url(#path-1-outside-1_127_2793)"/>
<path d="M70.3232 45V3.39844H76.5107V45H70.3232Z" stroke="#EAEAEA" stroke-width="2" mask="url(#path-1-outside-1_127_2793)"/>
<path d="M91.0889 45.4219C89.4014 45.4219 87.9873 45.1641 86.8467 44.6484C85.7061 44.1172 84.7998 43.3594 84.1279 42.375C83.4717 41.375 82.9951 40.1641 82.6982 38.7422C82.417 37.3047 82.2764 35.6719 82.2764 33.8438V20.6953C82.2764 18.4922 82.5576 16.5469 83.1201 14.8594C83.6982 13.1562 84.6357 11.8281 85.9326 10.875C87.2295 9.90625 88.9482 9.42188 91.0889 9.42188C92.7139 9.42188 94.0811 9.69531 95.1904 10.2422C96.3154 10.7891 97.2139 11.5703 97.8857 12.5859C98.5732 13.5859 99.0732 14.7734 99.3857 16.1484C99.6982 17.5234 99.8545 19.0391 99.8545 20.6953V33.8438C99.8545 35.6406 99.7139 37.25 99.4326 38.6719C99.167 40.0938 98.6982 41.3125 98.0264 42.3281C97.3701 43.3281 96.4795 44.0938 95.3545 44.625C94.2295 45.1562 92.8076 45.4219 91.0889 45.4219ZM91.0889 40.4062C91.792 40.4062 92.3232 40.1953 92.6826 39.7734C93.042 39.3359 93.2842 38.7344 93.4092 37.9688C93.5342 37.2031 93.5967 36.3203 93.5967 35.3203V19.5938C93.5967 18.5312 93.5264 17.6172 93.3857 16.8516C93.2451 16.0859 92.9951 15.4922 92.6357 15.0703C92.2764 14.6484 91.7607 14.4375 91.0889 14.4375C90.3857 14.4375 89.8467 14.6484 89.4717 15.0703C89.1123 15.4922 88.8623 16.0859 88.7217 16.8516C88.5967 17.6172 88.5342 18.5312 88.5342 19.5938V35.3203C88.5342 36.3203 88.5967 37.2031 88.7217 37.9688C88.8623 38.7344 89.1123 39.3359 89.4717 39.7734C89.8467 40.1953 90.3857 40.4062 91.0889 40.4062Z" stroke="#EAEAEA" stroke-width="2" mask="url(#path-1-outside-1_127_2793)"/>
<path d="M104.519 51.2109V46.9219H106.558C107.245 46.9219 107.823 46.8594 108.292 46.7344C108.761 46.625 109.026 46.375 109.089 45.9844C109.198 45.7812 109.237 45.4219 109.206 44.9062C109.175 44.375 109.128 43.875 109.065 43.4062L103.44 9.84375H109.347L111.597 27.8203L112.534 37.2891H113.05L113.894 27.8203L115.956 9.84375H121.839L115.745 46.5C115.573 47.6094 115.331 48.5078 115.019 49.1953C114.722 49.8984 114.269 50.4062 113.659 50.7188C113.05 51.0469 112.206 51.2109 111.128 51.2109H104.519Z" stroke="#EAEAEA" stroke-width="2" mask="url(#path-1-outside-1_127_2793)"/>
<path d="M125.659 45V9.84375H131.87V13.6641C132.214 12.4141 132.839 11.3984 133.745 10.6172C134.667 9.82031 135.917 9.42188 137.495 9.42188C138.698 9.42188 139.745 9.6875 140.636 10.2188C141.526 10.75 142.214 11.6641 142.698 12.9609C143.292 11.8672 144.073 11.0078 145.042 10.3828C146.011 9.74219 147.222 9.42188 148.675 9.42188C150.956 9.42188 152.573 10.1875 153.526 11.7188C154.479 13.25 154.956 15.3672 154.956 18.0703V45H148.769V18C148.769 16.75 148.558 15.8594 148.136 15.3281C147.714 14.7812 147.136 14.5078 146.401 14.5078C145.464 14.5078 144.729 14.8359 144.198 15.4922C143.683 16.1328 143.425 17.0781 143.425 18.3281V45H137.214V17.9531C137.214 16.9062 137.034 16.0703 136.675 15.4453C136.331 14.8203 135.745 14.5078 134.917 14.5078C133.839 14.5078 133.058 14.9219 132.573 15.75C132.104 16.5625 131.87 17.5312 131.87 18.6562V45H125.659Z" stroke="#EAEAEA" stroke-width="2" mask="url(#path-1-outside-1_127_2793)"/>
<path d="M169.112 45.4219C167.347 45.4219 165.894 45.1406 164.753 44.5781C163.628 44.0156 162.745 43.2031 162.104 42.1406C161.479 41.0781 161.042 39.8047 160.792 38.3203C160.542 36.8203 160.417 35.1484 160.417 33.3047V20.2031C160.417 18.5625 160.581 17.0781 160.909 15.75C161.253 14.4219 161.776 13.2891 162.479 12.3516C163.198 11.4141 164.128 10.6953 165.269 10.1953C166.409 9.67969 167.784 9.42188 169.394 9.42188C171.034 9.42188 172.401 9.67188 173.495 10.1719C174.589 10.6719 175.448 11.3984 176.073 12.3516C176.714 13.3047 177.167 14.4531 177.433 15.7969C177.714 17.125 177.854 18.6328 177.854 20.3203V27.8438H166.675V34.7578C166.675 36.4609 166.808 37.8281 167.073 38.8594C167.339 39.8906 168.065 40.4062 169.253 40.4062C170.05 40.4062 170.612 40.1641 170.94 39.6797C171.284 39.1953 171.487 38.5312 171.55 37.6875C171.628 36.8281 171.667 35.8516 171.667 34.7578V31.6641H177.808V33.5391C177.808 35.4297 177.69 37.1094 177.456 38.5781C177.237 40.0469 176.815 41.2891 176.19 42.3047C175.581 43.3203 174.706 44.0938 173.565 44.625C172.425 45.1562 170.94 45.4219 169.112 45.4219ZM166.651 24.2109H171.667V19.7109C171.667 18.5391 171.612 17.5547 171.503 16.7578C171.394 15.9453 171.175 15.3359 170.847 14.9297C170.519 14.5234 170.019 14.3203 169.347 14.3203C168.519 14.3203 167.909 14.5625 167.519 15.0469C167.144 15.5312 166.901 16.1953 166.792 17.0391C166.698 17.8672 166.651 18.8125 166.651 19.875V24.2109Z" stroke="#EAEAEA" stroke-width="2" mask="url(#path-1-outside-1_127_2793)"/>
<path d="M183.081 45V9.84375H189.292V13.875C189.604 12.6719 190.261 11.6328 191.261 10.7578C192.261 9.86719 193.487 9.42188 194.94 9.42188C196.972 9.42188 198.495 10.1016 199.511 11.4609C200.526 12.8047 201.034 14.7578 201.034 17.3203V45H194.823V17.6953C194.823 16.6797 194.589 15.8828 194.12 15.3047C193.667 14.7266 193.042 14.4375 192.245 14.4375C191.604 14.4375 191.058 14.6172 190.604 14.9766C190.167 15.3203 189.839 15.8047 189.62 16.4297C189.401 17.0391 189.292 17.7578 189.292 18.5859V45H183.081Z" stroke="#EAEAEA" stroke-width="2" mask="url(#path-1-outside-1_127_2793)"/>
<path d="M213.339 45.2344C211.839 45.2344 210.69 45.0469 209.894 44.6719C209.097 44.2812 208.55 43.6719 208.253 42.8438C207.956 42.0156 207.808 40.9453 207.808 39.6328V15.0703H204.948V10.5703H207.808V3.75H214.019V10.5703H217.44V15.0703H214.019V38.5547C214.019 39.1016 214.104 39.5156 214.276 39.7969C214.448 40.0781 214.784 40.2656 215.284 40.3594C215.8 40.4531 216.558 40.5 217.558 40.5V45.2344H213.339Z" stroke="#EAEAEA" stroke-width="2" mask="url(#path-1-outside-1_127_2793)"/>
<path d="M222.901 52.9219L224.542 45H221.612V38.7188H228.362V44.7891L225.972 52.9219H222.901Z" stroke="#EAEAEA" stroke-width="2" mask="url(#path-1-outside-1_127_2793)"/>
<path d="M244.183 45V9.1875H239.354V3.75H255.081V9.1875H250.44V45H244.183Z" stroke="#EAEAEA" stroke-width="2" mask="url(#path-1-outside-1_127_2793)"/>
<path d="M265.628 45.4219C263.862 45.4219 262.409 45.1406 261.269 44.5781C260.144 44.0156 259.261 43.2031 258.62 42.1406C257.995 41.0781 257.558 39.8047 257.308 38.3203C257.058 36.8203 256.933 35.1484 256.933 33.3047V20.2031C256.933 18.5625 257.097 17.0781 257.425 15.75C257.769 14.4219 258.292 13.2891 258.995 12.3516C259.714 11.4141 260.644 10.6953 261.784 10.1953C262.925 9.67969 264.3 9.42188 265.909 9.42188C267.55 9.42188 268.917 9.67188 270.011 10.1719C271.104 10.6719 271.964 11.3984 272.589 12.3516C273.229 13.3047 273.683 14.4531 273.948 15.7969C274.229 17.125 274.37 18.6328 274.37 20.3203V27.8438H263.19V34.7578C263.19 36.4609 263.323 37.8281 263.589 38.8594C263.854 39.8906 264.581 40.4062 265.769 40.4062C266.565 40.4062 267.128 40.1641 267.456 39.6797C267.8 39.1953 268.003 38.5312 268.065 37.6875C268.144 36.8281 268.183 35.8516 268.183 34.7578V31.6641H274.323V33.5391C274.323 35.4297 274.206 37.1094 273.972 38.5781C273.753 40.0469 273.331 41.2891 272.706 42.3047C272.097 43.3203 271.222 44.0938 270.081 44.625C268.94 45.1562 267.456 45.4219 265.628 45.4219ZM263.167 24.2109H268.183V19.7109C268.183 18.5391 268.128 17.5547 268.019 16.7578C267.909 15.9453 267.69 15.3359 267.362 14.9297C267.034 14.5234 266.534 14.3203 265.862 14.3203C265.034 14.3203 264.425 14.5625 264.034 15.0469C263.659 15.5312 263.417 16.1953 263.308 17.0391C263.214 17.8672 263.167 18.8125 263.167 19.875V24.2109Z" stroke="#EAEAEA" stroke-width="2" mask="url(#path-1-outside-1_127_2793)"/>
<path d="M286.886 45.4453C284.058 45.4453 281.956 44.6406 280.581 43.0312C279.206 41.4219 278.519 38.7891 278.519 35.1328V32.8594H284.354V35.6953C284.354 37.2266 284.542 38.3906 284.917 39.1875C285.292 39.9844 285.901 40.3828 286.745 40.3828C287.558 40.3828 288.159 40.1094 288.55 39.5625C288.94 39.0156 289.136 38.0703 289.136 36.7266C289.136 35.9453 289.019 35.1875 288.784 34.4531C288.565 33.7188 288.214 33 287.729 32.2969C287.261 31.5781 286.651 30.8828 285.901 30.2109L282.737 27.3516C281.284 26.0391 280.198 24.625 279.479 23.1094C278.761 21.5781 278.401 19.8906 278.401 18.0469C278.401 15.0625 279.097 12.8828 280.487 11.5078C281.894 10.1172 283.972 9.42188 286.722 9.42188C288.503 9.42188 289.979 9.75781 291.151 10.4297C292.323 11.0859 293.198 12.1562 293.776 13.6406C294.354 15.125 294.644 17.1172 294.644 19.6172V21.5391H289.089V19.2188C289.089 17.6719 288.909 16.5 288.55 15.7031C288.206 14.9062 287.612 14.5078 286.769 14.5078C285.94 14.5078 285.331 14.7422 284.94 15.2109C284.55 15.6641 284.339 16.4688 284.308 17.625C284.292 18.25 284.37 18.8672 284.542 19.4766C284.714 20.0703 284.979 20.6562 285.339 21.2344C285.714 21.7969 286.198 22.3516 286.792 22.8984L290.12 25.9219C291.87 27.5 293.159 29.1484 293.987 30.8672C294.831 32.5859 295.253 34.4453 295.253 36.4453C295.253 39.3984 294.581 41.6406 293.237 43.1719C291.894 44.6875 289.776 45.4453 286.886 45.4453Z" stroke="#EAEAEA" stroke-width="2" mask="url(#path-1-outside-1_127_2793)"/>
<path d="M306.151 45.2344C304.651 45.2344 303.503 45.0469 302.706 44.6719C301.909 44.2812 301.362 43.6719 301.065 42.8438C300.769 42.0156 300.62 40.9453 300.62 39.6328V15.0703H297.761V10.5703H300.62V3.75H306.831V10.5703H310.253V15.0703H306.831V38.5547C306.831 39.1016 306.917 39.5156 307.089 39.7969C307.261 40.0781 307.597 40.2656 308.097 40.3594C308.612 40.4531 309.37 40.5 310.37 40.5V45.2344H306.151Z" stroke="#EAEAEA" stroke-width="2" mask="url(#path-1-outside-1_127_2793)"/>
<path d="M314.87 45V9.84375H321.081V45H314.87ZM314.847 6.60938V1.21875H321.104V6.60938H314.847Z" stroke="#EAEAEA" stroke-width="2" mask="url(#path-1-outside-1_127_2793)"/>
<path d="M327.362 45V9.84375H333.573V13.875C333.886 12.6719 334.542 11.6328 335.542 10.7578C336.542 9.86719 337.769 9.42188 339.222 9.42188C341.253 9.42188 342.776 10.1016 343.792 11.4609C344.808 12.8047 345.315 14.7578 345.315 17.3203V45H339.104V17.6953C339.104 16.6797 338.87 15.8828 338.401 15.3047C337.948 14.7266 337.323 14.4375 336.526 14.4375C335.886 14.4375 335.339 14.6172 334.886 14.9766C334.448 15.3203 334.12 15.8047 333.901 16.4297C333.683 17.0391 333.573 17.7578 333.573 18.5859V45H327.362Z" stroke="#EAEAEA" stroke-width="2" mask="url(#path-1-outside-1_127_2793)"/>
<path d="M359.19 50.2734C357.253 50.3047 355.604 50.1172 354.245 49.7109C352.886 49.3203 351.651 48.6719 350.542 47.7656L352.722 43.8516C353.55 44.3828 354.448 44.8125 355.417 45.1406C356.401 45.4844 357.464 45.6484 358.604 45.6328C359.792 45.6172 360.698 45.2031 361.323 44.3906C361.948 43.5781 362.261 42.4922 362.261 41.1328V38.3438C361.854 39.5156 361.229 40.3203 360.386 40.7578C359.558 41.1953 358.55 41.4141 357.362 41.4141C355.706 41.4141 354.401 40.9766 353.448 40.1016C352.511 39.2266 351.847 38.0312 351.456 36.5156C351.065 35 350.87 33.2812 350.87 31.3594V20.0391C350.87 17.9922 351.073 16.1719 351.479 14.5781C351.886 12.9688 352.581 11.7031 353.565 10.7812C354.55 9.85938 355.901 9.40625 357.62 9.42188C358.823 9.42188 359.815 9.72656 360.597 10.3359C361.394 10.9453 361.948 11.8203 362.261 12.9609V9.84375H368.472V40.6641C368.472 42.0547 368.315 43.3359 368.003 44.5078C367.69 45.6641 367.175 46.6641 366.456 47.5078C365.737 48.3672 364.784 49.0312 363.597 49.5C362.409 49.9844 360.94 50.2422 359.19 50.2734ZM359.823 36.7031C360.386 36.7031 360.847 36.5391 361.206 36.2109C361.565 35.8672 361.831 35.2891 362.003 34.4766C362.175 33.6484 362.261 32.5 362.261 31.0312V19.5234C362.261 17.9766 362.073 16.7422 361.698 15.8203C361.323 14.8984 360.644 14.4375 359.659 14.4375C358.909 14.4375 358.354 14.6562 357.995 15.0938C357.636 15.5312 357.401 16.1328 357.292 16.8984C357.183 17.6484 357.128 18.5156 357.128 19.5V31.0781C357.128 32.8125 357.292 34.1875 357.62 35.2031C357.948 36.2031 358.683 36.7031 359.823 36.7031Z" stroke="#EAEAEA" stroke-width="2" mask="url(#path-1-outside-1_127_2793)"/>
<path d="M383.12 45V3.75H393.503C395.659 3.75 397.269 4.17188 398.331 5.01562C399.394 5.85938 400.089 7.09375 400.417 8.71875C400.761 10.3438 400.933 12.3281 400.933 14.6719C400.933 17.0938 400.683 19 400.183 20.3906C399.698 21.7656 398.698 22.6875 397.183 23.1562C397.901 23.2812 398.503 23.5781 398.987 24.0469C399.472 24.5 399.862 25.1719 400.159 26.0625C400.456 26.9375 400.667 28.0703 400.792 29.4609C400.933 30.8359 401.003 32.5234 401.003 34.5234C401.003 34.6797 401.003 35.1172 401.003 35.8359C401.003 36.5547 401.003 37.4062 401.003 38.3906C401.019 39.3594 401.034 40.3281 401.05 41.2969C401.065 42.2656 401.089 43.0938 401.12 43.7812C401.151 44.4688 401.19 44.875 401.237 45H394.956C394.909 44.9219 394.87 44.5234 394.839 43.8047C394.823 43.0703 394.8 42.1406 394.769 41.0156C394.753 39.8906 394.737 38.6797 394.722 37.3828C394.722 36.0859 394.722 34.8125 394.722 33.5625C394.722 32.2969 394.722 31.1797 394.722 30.2109C394.722 28.9766 394.628 28.0469 394.44 27.4219C394.269 26.7812 393.94 26.3359 393.456 26.0859C392.987 25.8359 392.308 25.6875 391.417 25.6406L389.401 25.5234V45H383.12ZM389.425 20.6484H391.933C392.698 20.6484 393.276 20.4766 393.667 20.1328C394.073 19.7891 394.347 19.1562 394.487 18.2344C394.644 17.3125 394.722 15.9844 394.722 14.25V13.9922C394.722 12.5391 394.651 11.4219 394.511 10.6406C394.37 9.85938 394.073 9.32031 393.62 9.02344C393.183 8.72656 392.495 8.57812 391.558 8.57812H389.425V20.6484Z" stroke="#EAEAEA" stroke-width="2" mask="url(#path-1-outside-1_127_2793)"/>
<path d="M414.55 45.4219C412.784 45.4219 411.331 45.1406 410.19 44.5781C409.065 44.0156 408.183 43.2031 407.542 42.1406C406.917 41.0781 406.479 39.8047 406.229 38.3203C405.979 36.8203 405.854 35.1484 405.854 33.3047V20.2031C405.854 18.5625 406.019 17.0781 406.347 15.75C406.69 14.4219 407.214 13.2891 407.917 12.3516C408.636 11.4141 409.565 10.6953 410.706 10.1953C411.847 9.67969 413.222 9.42188 414.831 9.42188C416.472 9.42188 417.839 9.67188 418.933 10.1719C420.026 10.6719 420.886 11.3984 421.511 12.3516C422.151 13.3047 422.604 14.4531 422.87 15.7969C423.151 17.125 423.292 18.6328 423.292 20.3203V27.8438H412.112V34.7578C412.112 36.4609 412.245 37.8281 412.511 38.8594C412.776 39.8906 413.503 40.4062 414.69 40.4062C415.487 40.4062 416.05 40.1641 416.378 39.6797C416.722 39.1953 416.925 38.5312 416.987 37.6875C417.065 36.8281 417.104 35.8516 417.104 34.7578V31.6641H423.245V33.5391C423.245 35.4297 423.128 37.1094 422.894 38.5781C422.675 40.0469 422.253 41.2891 421.628 42.3047C421.019 43.3203 420.144 44.0938 419.003 44.625C417.862 45.1562 416.378 45.4219 414.55 45.4219ZM412.089 24.2109H417.104V19.7109C417.104 18.5391 417.05 17.5547 416.94 16.7578C416.831 15.9453 416.612 15.3359 416.284 14.9297C415.956 14.5234 415.456 14.3203 414.784 14.3203C413.956 14.3203 413.347 14.5625 412.956 15.0469C412.581 15.5312 412.339 16.1953 412.229 17.0391C412.136 17.8672 412.089 18.8125 412.089 19.875V24.2109Z" stroke="#EAEAEA" stroke-width="2" mask="url(#path-1-outside-1_127_2793)"/>
<path d="M435.808 45.4453C432.979 45.4453 430.878 44.6406 429.503 43.0312C428.128 41.4219 427.44 38.7891 427.44 35.1328V32.8594H433.276V35.6953C433.276 37.2266 433.464 38.3906 433.839 39.1875C434.214 39.9844 434.823 40.3828 435.667 40.3828C436.479 40.3828 437.081 40.1094 437.472 39.5625C437.862 39.0156 438.058 38.0703 438.058 36.7266C438.058 35.9453 437.94 35.1875 437.706 34.4531C437.487 33.7188 437.136 33 436.651 32.2969C436.183 31.5781 435.573 30.8828 434.823 30.2109L431.659 27.3516C430.206 26.0391 429.12 24.625 428.401 23.1094C427.683 21.5781 427.323 19.8906 427.323 18.0469C427.323 15.0625 428.019 12.8828 429.409 11.5078C430.815 10.1172 432.894 9.42188 435.644 9.42188C437.425 9.42188 438.901 9.75781 440.073 10.4297C441.245 11.0859 442.12 12.1562 442.698 13.6406C443.276 15.125 443.565 17.1172 443.565 19.6172V21.5391H438.011V19.2188C438.011 17.6719 437.831 16.5 437.472 15.7031C437.128 14.9062 436.534 14.5078 435.69 14.5078C434.862 14.5078 434.253 14.7422 433.862 15.2109C433.472 15.6641 433.261 16.4688 433.229 17.625C433.214 18.25 433.292 18.8672 433.464 19.4766C433.636 20.0703 433.901 20.6562 434.261 21.2344C434.636 21.7969 435.12 22.3516 435.714 22.8984L439.042 25.9219C440.792 27.5 442.081 29.1484 442.909 30.8672C443.753 32.5859 444.175 34.4453 444.175 36.4453C444.175 39.3984 443.503 41.6406 442.159 43.1719C440.815 44.6875 438.698 45.4453 435.808 45.4453Z" stroke="#EAEAEA" stroke-width="2" mask="url(#path-1-outside-1_127_2793)"/>
<path d="M457.042 45.4219C455.354 45.4219 453.94 45.1641 452.8 44.6484C451.659 44.1172 450.753 43.3594 450.081 42.375C449.425 41.375 448.948 40.1641 448.651 38.7422C448.37 37.3047 448.229 35.6719 448.229 33.8438V20.6953C448.229 18.4922 448.511 16.5469 449.073 14.8594C449.651 13.1562 450.589 11.8281 451.886 10.875C453.183 9.90625 454.901 9.42188 457.042 9.42188C458.667 9.42188 460.034 9.69531 461.144 10.2422C462.269 10.7891 463.167 11.5703 463.839 12.5859C464.526 13.5859 465.026 14.7734 465.339 16.1484C465.651 17.5234 465.808 19.0391 465.808 20.6953V33.8438C465.808 35.6406 465.667 37.25 465.386 38.6719C465.12 40.0938 464.651 41.3125 463.979 42.3281C463.323 43.3281 462.433 44.0938 461.308 44.625C460.183 45.1562 458.761 45.4219 457.042 45.4219ZM457.042 40.4062C457.745 40.4062 458.276 40.1953 458.636 39.7734C458.995 39.3359 459.237 38.7344 459.362 37.9688C459.487 37.2031 459.55 36.3203 459.55 35.3203V19.5938C459.55 18.5312 459.479 17.6172 459.339 16.8516C459.198 16.0859 458.948 15.4922 458.589 15.0703C458.229 14.6484 457.714 14.4375 457.042 14.4375C456.339 14.4375 455.8 14.6484 455.425 15.0703C455.065 15.4922 454.815 16.0859 454.675 16.8516C454.55 17.6172 454.487 18.5312 454.487 19.5938V35.3203C454.487 36.3203 454.55 37.2031 454.675 37.9688C454.815 38.7344 455.065 39.3359 455.425 39.7734C455.8 40.1953 456.339 40.4062 457.042 40.4062Z" stroke="#EAEAEA" stroke-width="2" mask="url(#path-1-outside-1_127_2793)"/>
<path d="M477.503 45.4453C476.112 45.4453 474.948 45.1328 474.011 44.5078C473.089 43.8828 472.394 42.9531 471.925 41.7188C471.472 40.4688 471.245 38.9062 471.245 37.0312V9.84375H477.479V36.0703C477.479 37.4141 477.644 38.4609 477.972 39.2109C478.3 39.9609 478.987 40.3359 480.034 40.3359C481.128 40.3359 481.87 39.9141 482.261 39.0703C482.667 38.2109 482.87 37.2266 482.87 36.1172L482.894 9.84375H489.081V45H482.87V41.3438C482.433 42.5312 481.8 43.5156 480.972 44.2969C480.144 45.0625 478.987 45.4453 477.503 45.4453Z" stroke="#EAEAEA" stroke-width="2" mask="url(#path-1-outside-1_127_2793)"/>
<path d="M495.151 45V9.84375H501.409V13.7578C501.815 12.3984 502.519 11.3359 503.519 10.5703C504.534 9.80469 505.823 9.42188 507.386 9.42188C507.417 9.42188 507.433 9.6875 507.433 10.2188C507.448 10.75 507.456 11.3594 507.456 12.0469C507.456 12.7344 507.456 13.3438 507.456 13.875C507.456 14.4062 507.456 14.6719 507.456 14.6719C506.737 14.6719 505.956 14.7578 505.112 14.9297C504.284 15.1016 503.526 15.3672 502.839 15.7266C502.167 16.0703 501.69 16.5312 501.409 17.1094V45H495.151Z" stroke="#EAEAEA" stroke-width="2" mask="url(#path-1-outside-1_127_2793)"/>
<path d="M519.995 45.4219C518.198 45.4219 516.714 45.1484 515.542 44.6016C514.37 44.0391 513.448 43.2344 512.776 42.1875C512.12 41.1406 511.659 39.8672 511.394 38.3672C511.128 36.8672 510.995 35.1719 510.995 33.2812V21.8906C510.995 19.2969 511.237 17.0703 511.722 15.2109C512.206 13.3516 513.097 11.9219 514.394 10.9219C515.706 9.92188 517.597 9.42188 520.065 9.42188C521.581 9.42188 522.862 9.65625 523.909 10.125C524.956 10.5938 525.8 11.2734 526.44 12.1641C527.081 13.0391 527.542 14.1016 527.823 15.3516C528.12 16.6016 528.269 18.0078 528.269 19.5703V23.4375H522.269V19.3594C522.269 18.3438 522.222 17.4766 522.128 16.7578C522.034 16.0234 521.823 15.4688 521.495 15.0938C521.167 14.7031 520.644 14.5078 519.925 14.5078C519.222 14.5078 518.675 14.7031 518.284 15.0938C517.894 15.4844 517.62 16.0547 517.464 16.8047C517.323 17.5391 517.253 18.4219 517.253 19.4531V35.2969C517.253 36.3594 517.315 37.2656 517.44 38.0156C517.581 38.7656 517.831 39.3438 518.19 39.75C518.565 40.1406 519.112 40.3359 519.831 40.3359C520.534 40.3359 521.058 40.1328 521.401 39.7266C521.761 39.3047 521.995 38.7188 522.104 37.9688C522.214 37.2188 522.269 36.3359 522.269 35.3203V31.1484H528.269V34.7109C528.269 36.3203 528.128 37.7891 527.847 39.1172C527.565 40.4297 527.104 41.5547 526.464 42.4922C525.823 43.4297 524.972 44.1562 523.909 44.6719C522.847 45.1719 521.542 45.4219 519.995 45.4219Z" stroke="#EAEAEA" stroke-width="2" mask="url(#path-1-outside-1_127_2793)"/>
<path d="M541.675 45.4219C539.909 45.4219 538.456 45.1406 537.315 44.5781C536.19 44.0156 535.308 43.2031 534.667 42.1406C534.042 41.0781 533.604 39.8047 533.354 38.3203C533.104 36.8203 532.979 35.1484 532.979 33.3047V20.2031C532.979 18.5625 533.144 17.0781 533.472 15.75C533.815 14.4219 534.339 13.2891 535.042 12.3516C535.761 11.4141 536.69 10.6953 537.831 10.1953C538.972 9.67969 540.347 9.42188 541.956 9.42188C543.597 9.42188 544.964 9.67188 546.058 10.1719C547.151 10.6719 548.011 11.3984 548.636 12.3516C549.276 13.3047 549.729 14.4531 549.995 15.7969C550.276 17.125 550.417 18.6328 550.417 20.3203V27.8438H539.237V34.7578C539.237 36.4609 539.37 37.8281 539.636 38.8594C539.901 39.8906 540.628 40.4062 541.815 40.4062C542.612 40.4062 543.175 40.1641 543.503 39.6797C543.847 39.1953 544.05 38.5312 544.112 37.6875C544.19 36.8281 544.229 35.8516 544.229 34.7578V31.6641H550.37V33.5391C550.37 35.4297 550.253 37.1094 550.019 38.5781C549.8 40.0469 549.378 41.2891 548.753 42.3047C548.144 43.3203 547.269 44.0938 546.128 44.625C544.987 45.1562 543.503 45.4219 541.675 45.4219ZM539.214 24.2109H544.229V19.7109C544.229 18.5391 544.175 17.5547 544.065 16.7578C543.956 15.9453 543.737 15.3359 543.409 14.9297C543.081 14.5234 542.581 14.3203 541.909 14.3203C541.081 14.3203 540.472 14.5625 540.081 15.0469C539.706 15.5312 539.464 16.1953 539.354 17.0391C539.261 17.8672 539.214 18.8125 539.214 19.875V24.2109Z" stroke="#EAEAEA" stroke-width="2" mask="url(#path-1-outside-1_127_2793)"/>
<path d="M562.933 45.4453C560.104 45.4453 558.003 44.6406 556.628 43.0312C555.253 41.4219 554.565 38.7891 554.565 35.1328V32.8594H560.401V35.6953C560.401 37.2266 560.589 38.3906 560.964 39.1875C561.339 39.9844 561.948 40.3828 562.792 40.3828C563.604 40.3828 564.206 40.1094 564.597 39.5625C564.987 39.0156 565.183 38.0703 565.183 36.7266C565.183 35.9453 565.065 35.1875 564.831 34.4531C564.612 33.7188 564.261 33 563.776 32.2969C563.308 31.5781 562.698 30.8828 561.948 30.2109L558.784 27.3516C557.331 26.0391 556.245 24.625 555.526 23.1094C554.808 21.5781 554.448 19.8906 554.448 18.0469C554.448 15.0625 555.144 12.8828 556.534 11.5078C557.94 10.1172 560.019 9.42188 562.769 9.42188C564.55 9.42188 566.026 9.75781 567.198 10.4297C568.37 11.0859 569.245 12.1562 569.823 13.6406C570.401 15.125 570.69 17.1172 570.69 19.6172V21.5391H565.136V19.2188C565.136 17.6719 564.956 16.5 564.597 15.7031C564.253 14.9062 563.659 14.5078 562.815 14.5078C561.987 14.5078 561.378 14.7422 560.987 15.2109C560.597 15.6641 560.386 16.4688 560.354 17.625C560.339 18.25 560.417 18.8672 560.589 19.4766C560.761 20.0703 561.026 20.6562 561.386 21.2344C561.761 21.7969 562.245 22.3516 562.839 22.8984L566.167 25.9219C567.917 27.5 569.206 29.1484 570.034 30.8672C570.878 32.5859 571.3 34.4453 571.3 36.4453C571.3 39.3984 570.628 41.6406 569.284 43.1719C567.94 44.6875 565.823 45.4453 562.933 45.4453Z" stroke="#EAEAEA" stroke-width="2" mask="url(#path-1-outside-1_127_2793)"/>
<defs>
<filter id="filter0_ii_127_2793" x="-0.864258" y="-0.78125" width="576.164" height="57.7031" filterUnits="userSpaceOnUse" color-interpolation-filters="sRGB">
<feFlood flood-opacity="0" result="BackgroundImageFix"/>
<feBlend mode="normal" in="SourceGraphic" in2="BackgroundImageFix" result="shape"/>
<feColorMatrix in="SourceAlpha" type="matrix" values="0 0 0 0 0 0 0 0 0 0 0 0 0 0 0 0 0 0 127 0" result="hardAlpha"/>
<feOffset dx="-1" dy="-1"/>
<feGaussianBlur stdDeviation="1.5"/>
<feComposite in2="hardAlpha" operator="arithmetic" k2="-1" k3="1"/>
<feColorMatrix type="matrix" values="0 0 0 0 0.984314 0 0 0 0 0.984314 0 0 0 0 0.984314 0 0 0 1 0"/>
<feBlend mode="normal" in2="shape" result="effect1_innerShadow_127_2793"/>
<feColorMatrix in="SourceAlpha" type="matrix" values="0 0 0 0 0 0 0 0 0 0 0 0 0 0 0 0 0 0 127 0" result="hardAlpha"/>
<feOffset dx="3" dy="3"/>
<feGaussianBlur stdDeviation="4.5"/>
<feComposite in2="hardAlpha" operator="arithmetic" k2="-1" k3="1"/>
<feColorMatrix type="matrix" values="0 0 0 0 0.772549 0 0 0 0 0.772549 0 0 0 0 0.772549 0 0 0 1 0"/>
<feBlend mode="normal" in2="effect1_innerShadow_127_2793" result="effect2_innerShadow_127_2793"/>
</filter>
</defs>
</svg>
