<svg width="85" height="84" viewBox="0 0 85 84" fill="none" xmlns="http://www.w3.org/2000/svg">
<g id="Group 110">
<g id="design_icon" filter="url(#filter0_ii_72_1703)">
<path d="M32 0C25.315 0 19.9005 4.8545 18.546 11.158C10.384 12.614 4 19.425 4 28C4 28.861 4.0945 29.6275 4.2205 30.408C1.963 33.726 0.5 37.6355 0.5 42C0.5 48.2895 3.6325 53.5815 8.046 57.421C7.731 58.667 7.5 59.9095 7.5 61.25C7.5 69.9055 14.5945 77 23.25 77H23.4705C25.5075 80.9515 29.0355 84 33.75 84C35.3831 83.9963 36.9989 83.6651 38.5019 83.0261C40.0048 82.387 41.3643 81.4531 42.5 80.2795C43.6357 81.4531 44.9952 82.387 46.4981 83.0261C48.0011 83.6651 49.6169 83.9963 51.25 84C55.968 84 59.4925 80.9515 61.533 77H61.75C69.968 77 76.7055 70.602 77.3915 62.5625H77.5C77.5 62.342 77.4055 62.125 77.3915 61.9045C77.4055 61.6875 77.5 61.467 77.5 61.25C77.5 59.9515 77.0345 58.842 76.7335 57.6415C81.273 53.7845 84.5 48.4015 84.5 42C84.5 37.639 83.037 33.7295 80.7795 30.4045C80.9055 29.6275 81 28.8645 81 28C81 19.425 74.616 12.6175 66.454 11.1545C65.0995 4.858 59.685 0 53 0C48.8 0 45.069 1.9565 42.5 4.921C39.931 1.96 36.2 0 32 0ZM32 7C35.9095 7 39 10.0905 39 14V21C39 26.838 34.338 31.5 28.5 31.5V38.5C32.4655 38.5 36.06 37.135 39 34.8915V71.75C39 74.69 36.69 77 33.75 77C32.5255 77.0171 31.3349 76.5969 30.3925 75.8148C29.4501 75.0328 28.8175 73.9402 28.6085 72.7335L27.954 69.3455L24.5625 69.8915C23.3163 70.0883 22.0423 70.0119 20.8285 69.6676C19.6148 69.3232 18.4905 68.7192 17.5333 67.8972C16.5762 67.0752 15.8092 66.055 15.2854 64.9073C14.7617 63.7595 14.4937 62.5116 14.5 61.25C14.5 60.1685 14.675 59.157 15.046 58.1875C15.074 58.107 15.13 58.0475 15.1545 57.967C15.6915 56.6328 16.5532 55.4539 17.6613 54.5371C18.7694 53.6203 20.0889 52.9947 21.5 52.717L20.079 45.829C16.5069 46.5346 13.2946 48.4689 11 51.296C8.72433 48.7365 7.47744 45.4248 7.5 42C7.49402 38.8526 8.57591 35.7998 10.5625 33.3585L11.658 32.046L11.329 30.296C11.1307 29.546 11.0203 28.7755 11 28C11 22.162 15.662 17.5 21.5 17.5H25V14C25 10.0905 28.0905 7 32 7ZM53 7C56.9095 7 60 10.0905 60 14V17.5H63.5C69.338 17.5 74 22.162 74 28C74 28.7525 73.86 29.477 73.671 30.296L73.3455 32.046L74.4375 33.3585C76.4241 35.7998 77.506 38.8526 77.5 42C77.5 46.2 75.708 49.945 72.796 52.5C70.4055 50.3825 67.357 49 63.9375 49C60.63 49 57.648 50.176 55.296 52.171L59.783 57.533C60.9377 56.5378 62.4131 55.9933 63.9375 56C67.315 56 70.0065 58.5305 70.3915 61.796C70.1045 66.4055 66.426 70 61.75 70C61.435 70 61.05 69.986 60.4375 69.8915L57.046 69.342L56.3915 72.737C56.1818 73.9431 55.5489 75.0348 54.6065 75.8162C53.6641 76.5975 52.474 77.0173 51.25 77C48.31 77 46 74.69 46 71.75V34.8915C49.005 37.2218 52.6974 38.4907 56.5 38.5V31.5C50.662 31.5 46 26.838 46 21V14C46 10.0905 49.0905 7 53 7Z" fill="#D4EAEE"/>
</g>
</g>
<defs>
<filter id="filter0_ii_72_1703" x="-0.5" y="-1" width="86" height="86" filterUnits="userSpaceOnUse" color-interpolation-filters="sRGB">
<feFlood flood-opacity="0" result="BackgroundImageFix"/>
<feBlend mode="normal" in="SourceGraphic" in2="BackgroundImageFix" result="shape"/>
<feColorMatrix in="SourceAlpha" type="matrix" values="0 0 0 0 0 0 0 0 0 0 0 0 0 0 0 0 0 0 127 0" result="hardAlpha"/>
<feOffset dx="-1" dy="-1"/>
<feGaussianBlur stdDeviation="1.5"/>
<feComposite in2="hardAlpha" operator="arithmetic" k2="-1" k3="1"/>
<feColorMatrix type="matrix" values="0 0 0 0 0.984314 0 0 0 0 0.984314 0 0 0 0 0.984314 0 0 0 1 0"/>
<feBlend mode="normal" in2="shape" result="effect1_innerShadow_72_1703"/>
<feColorMatrix in="SourceAlpha" type="matrix" values="0 0 0 0 0 0 0 0 0 0 0 0 0 0 0 0 0 0 127 0" result="hardAlpha"/>
<feOffset dx="1" dy="1"/>
<feGaussianBlur stdDeviation="1.5"/>
<feComposite in2="hardAlpha" operator="arithmetic" k2="-1" k3="1"/>
<feColorMatrix type="matrix" values="0 0 0 0 0.772549 0 0 0 0 0.772549 0 0 0 0 0.772549 0 0 0 1 0"/>
<feBlend mode="normal" in2="effect1_innerShadow_72_1703" result="effect2_innerShadow_72_1703"/>
</filter>
</defs>
</svg>
