<svg width="337" height="53" viewBox="0 0 337 53" fill="none" xmlns="http://www.w3.org/2000/svg">
<mask id="path-1-outside-1_127_2789" maskUnits="userSpaceOnUse" x="0.25293" y="0.21875" width="337" height="53" fill="black">
<rect fill="white" x="0.25293" y="0.21875" width="337" height="53"/>
<path d="M1.25293 45V3.75H10.5107C12.6045 3.75 14.2842 4.17188 15.5498 5.01562C16.8154 5.84375 17.7295 7.04688 18.292 8.625C18.8701 10.2031 19.1592 12.1094 19.1592 14.3438L19.1826 32.9531C19.1826 35.6562 18.8857 37.9062 18.292 39.7031C17.7139 41.4844 16.7764 42.8125 15.4795 43.6875C14.1826 44.5625 12.4561 45 10.2998 45H1.25293ZM7.53418 40.125H9.59668C10.3311 40.125 10.9404 39.9766 11.4248 39.6797C11.9248 39.3828 12.292 38.8594 12.5264 38.1094C12.7764 37.3438 12.9014 36.2656 12.9014 34.875L12.8779 14.5078C12.8779 12.3984 12.6201 10.8828 12.1045 9.96094C11.5889 9.03906 10.6826 8.57812 9.38574 8.57812H7.53418V40.125Z"/>
<path d="M33.0576 45.4219C31.292 45.4219 29.8389 45.1406 28.6982 44.5781C27.5732 44.0156 26.6904 43.2031 26.0498 42.1406C25.4248 41.0781 24.9873 39.8047 24.7373 38.3203C24.4873 36.8203 24.3623 35.1484 24.3623 33.3047V20.2031C24.3623 18.5625 24.5264 17.0781 24.8545 15.75C25.1982 14.4219 25.7217 13.2891 26.4248 12.3516C27.1436 11.4141 28.0732 10.6953 29.2139 10.1953C30.3545 9.67969 31.7295 9.42188 33.3389 9.42188C34.9795 9.42188 36.3467 9.67188 37.4404 10.1719C38.5342 10.6719 39.3936 11.3984 40.0186 12.3516C40.6592 13.3047 41.1123 14.4531 41.3779 15.7969C41.6592 17.125 41.7998 18.6328 41.7998 20.3203V27.8438H30.6201V34.7578C30.6201 36.4609 30.7529 37.8281 31.0186 38.8594C31.2842 39.8906 32.0107 40.4062 33.1982 40.4062C33.9951 40.4062 34.5576 40.1641 34.8857 39.6797C35.2295 39.1953 35.4326 38.5312 35.4951 37.6875C35.5732 36.8281 35.6123 35.8516 35.6123 34.7578V31.6641H41.7529V33.5391C41.7529 35.4297 41.6357 37.1094 41.4014 38.5781C41.1826 40.0469 40.7607 41.2891 40.1357 42.3047C39.5264 43.3203 38.6514 44.0938 37.5107 44.625C36.3701 45.1562 34.8857 45.4219 33.0576 45.4219ZM30.5967 24.2109H35.6123V19.7109C35.6123 18.5391 35.5576 17.5547 35.4482 16.7578C35.3389 15.9453 35.1201 15.3359 34.792 14.9297C34.4639 14.5234 33.9639 14.3203 33.292 14.3203C32.4639 14.3203 31.8545 14.5625 31.4639 15.0469C31.0889 15.5312 30.8467 16.1953 30.7373 17.0391C30.6436 17.8672 30.5967 18.8125 30.5967 19.875V24.2109Z"/>
<path d="M54.3154 45.4453C51.4873 45.4453 49.3857 44.6406 48.0107 43.0312C46.6357 41.4219 45.9482 38.7891 45.9482 35.1328V32.8594H51.7842V35.6953C51.7842 37.2266 51.9717 38.3906 52.3467 39.1875C52.7217 39.9844 53.3311 40.3828 54.1748 40.3828C54.9873 40.3828 55.5889 40.1094 55.9795 39.5625C56.3701 39.0156 56.5654 38.0703 56.5654 36.7266C56.5654 35.9453 56.4482 35.1875 56.2139 34.4531C55.9951 33.7188 55.6436 33 55.1592 32.2969C54.6904 31.5781 54.0811 30.8828 53.3311 30.2109L50.167 27.3516C48.7139 26.0391 47.6279 24.625 46.9092 23.1094C46.1904 21.5781 45.8311 19.8906 45.8311 18.0469C45.8311 15.0625 46.5264 12.8828 47.917 11.5078C49.3232 10.1172 51.4014 9.42188 54.1514 9.42188C55.9326 9.42188 57.4092 9.75781 58.5811 10.4297C59.7529 11.0859 60.6279 12.1562 61.2061 13.6406C61.7842 15.125 62.0732 17.1172 62.0732 19.6172V21.5391H56.5186V19.2188C56.5186 17.6719 56.3389 16.5 55.9795 15.7031C55.6357 14.9062 55.042 14.5078 54.1982 14.5078C53.3701 14.5078 52.7607 14.7422 52.3701 15.2109C51.9795 15.6641 51.7686 16.4688 51.7373 17.625C51.7217 18.25 51.7998 18.8672 51.9717 19.4766C52.1436 20.0703 52.4092 20.6562 52.7686 21.2344C53.1436 21.7969 53.6279 22.3516 54.2217 22.8984L57.5498 25.9219C59.2998 27.5 60.5889 29.1484 61.417 30.8672C62.2607 32.5859 62.6826 34.4453 62.6826 36.4453C62.6826 39.3984 62.0107 41.6406 60.667 43.1719C59.3232 44.6875 57.2061 45.4453 54.3154 45.4453Z"/>
<path d="M67.3467 45V9.84375H73.5576V45H67.3467ZM67.3232 6.60938V1.21875H73.5811V6.60938H67.3232Z"/>
<path d="M87.7607 50.2734C85.8232 50.3047 84.1748 50.1172 82.8154 49.7109C81.4561 49.3203 80.2217 48.6719 79.1123 47.7656L81.292 43.8516C82.1201 44.3828 83.0186 44.8125 83.9873 45.1406C84.9717 45.4844 86.0342 45.6484 87.1748 45.6328C88.3623 45.6172 89.2686 45.2031 89.8936 44.3906C90.5186 43.5781 90.8311 42.4922 90.8311 41.1328V38.3438C90.4248 39.5156 89.7998 40.3203 88.9561 40.7578C88.1279 41.1953 87.1201 41.4141 85.9326 41.4141C84.2764 41.4141 82.9717 40.9766 82.0186 40.1016C81.0811 39.2266 80.417 38.0312 80.0264 36.5156C79.6357 35 79.4404 33.2812 79.4404 31.3594V20.0391C79.4404 17.9922 79.6436 16.1719 80.0498 14.5781C80.4561 12.9688 81.1514 11.7031 82.1357 10.7812C83.1201 9.85938 84.4717 9.40625 86.1904 9.42188C87.3936 9.42188 88.3857 9.72656 89.167 10.3359C89.9639 10.9453 90.5186 11.8203 90.8311 12.9609V9.84375H97.042V40.6641C97.042 42.0547 96.8857 43.3359 96.5732 44.5078C96.2607 45.6641 95.7451 46.6641 95.0264 47.5078C94.3076 48.3672 93.3545 49.0312 92.167 49.5C90.9795 49.9844 89.5107 50.2422 87.7607 50.2734ZM88.3936 36.7031C88.9561 36.7031 89.417 36.5391 89.7764 36.2109C90.1357 35.8672 90.4014 35.2891 90.5732 34.4766C90.7451 33.6484 90.8311 32.5 90.8311 31.0312V19.5234C90.8311 17.9766 90.6436 16.7422 90.2686 15.8203C89.8936 14.8984 89.2139 14.4375 88.2295 14.4375C87.4795 14.4375 86.9248 14.6562 86.5654 15.0938C86.2061 15.5312 85.9717 16.1328 85.8623 16.8984C85.7529 17.6484 85.6982 18.5156 85.6982 19.5V31.0781C85.6982 32.8125 85.8623 34.1875 86.1904 35.2031C86.5186 36.2031 87.2529 36.7031 88.3936 36.7031Z"/>
<path d="M103.042 45V9.84375H109.253V13.875C109.565 12.6719 110.222 11.6328 111.222 10.7578C112.222 9.86719 113.448 9.42188 114.901 9.42188C116.933 9.42188 118.456 10.1016 119.472 11.4609C120.487 12.8047 120.995 14.7578 120.995 17.3203V45H114.784V17.6953C114.784 16.6797 114.55 15.8828 114.081 15.3047C113.628 14.7266 113.003 14.4375 112.206 14.4375C111.565 14.4375 111.019 14.6172 110.565 14.9766C110.128 15.3203 109.8 15.8047 109.581 16.4297C109.362 17.0391 109.253 17.7578 109.253 18.5859V45H103.042Z"/>
<path d="M135.737 45V3.75H142.019V45H135.737Z"/>
<path d="M148.323 45V9.84375H154.534V13.875C154.847 12.6719 155.503 11.6328 156.503 10.7578C157.503 9.86719 158.729 9.42188 160.183 9.42188C162.214 9.42188 163.737 10.1016 164.753 11.4609C165.769 12.8047 166.276 14.7578 166.276 17.3203V45H160.065V17.6953C160.065 16.6797 159.831 15.8828 159.362 15.3047C158.909 14.7266 158.284 14.4375 157.487 14.4375C156.847 14.4375 156.3 14.6172 155.847 14.9766C155.409 15.3203 155.081 15.8047 154.862 16.4297C154.644 17.0391 154.534 17.7578 154.534 18.5859V45H148.323Z"/>
<path d="M179.519 45.4453C176.69 45.4453 174.589 44.6406 173.214 43.0312C171.839 41.4219 171.151 38.7891 171.151 35.1328V32.8594H176.987V35.6953C176.987 37.2266 177.175 38.3906 177.55 39.1875C177.925 39.9844 178.534 40.3828 179.378 40.3828C180.19 40.3828 180.792 40.1094 181.183 39.5625C181.573 39.0156 181.769 38.0703 181.769 36.7266C181.769 35.9453 181.651 35.1875 181.417 34.4531C181.198 33.7188 180.847 33 180.362 32.2969C179.894 31.5781 179.284 30.8828 178.534 30.2109L175.37 27.3516C173.917 26.0391 172.831 24.625 172.112 23.1094C171.394 21.5781 171.034 19.8906 171.034 18.0469C171.034 15.0625 171.729 12.8828 173.12 11.5078C174.526 10.1172 176.604 9.42188 179.354 9.42188C181.136 9.42188 182.612 9.75781 183.784 10.4297C184.956 11.0859 185.831 12.1562 186.409 13.6406C186.987 15.125 187.276 17.1172 187.276 19.6172V21.5391H181.722V19.2188C181.722 17.6719 181.542 16.5 181.183 15.7031C180.839 14.9062 180.245 14.5078 179.401 14.5078C178.573 14.5078 177.964 14.7422 177.573 15.2109C177.183 15.6641 176.972 16.4688 176.94 17.625C176.925 18.25 177.003 18.8672 177.175 19.4766C177.347 20.0703 177.612 20.6562 177.972 21.2344C178.347 21.7969 178.831 22.3516 179.425 22.8984L182.753 25.9219C184.503 27.5 185.792 29.1484 186.62 30.8672C187.464 32.5859 187.886 34.4453 187.886 36.4453C187.886 39.3984 187.214 41.6406 185.87 43.1719C184.526 44.6875 182.409 45.4453 179.519 45.4453Z"/>
<path d="M192.456 51.6797V9.84375H198.667V13.0078C199.12 11.8516 199.831 10.9766 200.8 10.3828C201.769 9.78906 202.745 9.49219 203.729 9.49219C205.526 9.49219 206.886 9.97656 207.808 10.9453C208.729 11.8984 209.354 13.2031 209.683 14.8594C210.011 16.5156 210.175 18.375 210.175 20.4375V33.2578C210.175 35.5078 210.019 37.5547 209.706 39.3984C209.394 41.2422 208.729 42.7109 207.714 43.8047C206.714 44.8828 205.183 45.4219 203.12 45.4219C202.167 45.4219 201.3 45.1641 200.519 44.6484C199.737 44.1328 199.12 43.5391 198.667 42.8672V51.6797H192.456ZM201.409 40.3828C202.456 40.3828 203.136 39.875 203.448 38.8594C203.761 37.8281 203.917 36.3594 203.917 34.4531V19.875C203.917 18.8594 203.862 17.9453 203.753 17.1328C203.659 16.3047 203.44 15.6484 203.097 15.1641C202.753 14.6797 202.206 14.4375 201.456 14.4375C200.878 14.4375 200.378 14.5859 199.956 14.8828C199.55 15.1797 199.229 15.7188 198.995 16.5C198.776 17.2812 198.667 18.3984 198.667 19.8516V34.7109C198.667 36.5078 198.839 37.9062 199.183 38.9062C199.526 39.8906 200.269 40.3828 201.409 40.3828Z"/>
<path d="M215.94 45V9.84375H222.151V45H215.94ZM215.917 6.60938V1.21875H222.175V6.60938H215.917Z"/>
<path d="M228.456 45V9.84375H234.714V13.7578C235.12 12.3984 235.823 11.3359 236.823 10.5703C237.839 9.80469 239.128 9.42188 240.69 9.42188C240.722 9.42188 240.737 9.6875 240.737 10.2188C240.753 10.75 240.761 11.3594 240.761 12.0469C240.761 12.7344 240.761 13.3438 240.761 13.875C240.761 14.4062 240.761 14.6719 240.761 14.6719C240.042 14.6719 239.261 14.7578 238.417 14.9297C237.589 15.1016 236.831 15.3672 236.144 15.7266C235.472 16.0703 234.995 16.5312 234.714 17.1094V45H228.456Z"/>
<path d="M250.534 45.3516C248.128 45.3516 246.456 44.4766 245.519 42.7266C244.597 40.9766 244.12 38.6562 244.089 35.7656V33.5156C244.089 31.6406 244.354 30.1172 244.886 28.9453C245.433 27.7734 246.206 26.8203 247.206 26.0859C248.206 25.3516 249.401 24.7109 250.792 24.1641C252.183 23.6172 253.729 23.0312 255.433 22.4062V19.3359C255.433 18.1484 255.386 17.2031 255.292 16.5C255.198 15.7812 254.987 15.2578 254.659 14.9297C254.331 14.6016 253.823 14.4375 253.136 14.4375C252.464 14.4375 251.948 14.6094 251.589 14.9531C251.245 15.2812 251.011 15.7969 250.886 16.5C250.761 17.1875 250.698 18.0703 250.698 19.1484V20.7188H244.558V19.6641C244.558 18.0547 244.69 16.6172 244.956 15.3516C245.237 14.0859 245.706 13.0156 246.362 12.1406C247.019 11.25 247.909 10.5781 249.034 10.125C250.175 9.65625 251.604 9.42188 253.323 9.42188C254.839 9.42188 256.136 9.64062 257.214 10.0781C258.292 10.5 259.167 11.1406 259.839 12C260.511 12.8438 261.003 13.9062 261.315 15.1875C261.628 16.4688 261.784 17.9609 261.784 19.6641V45H255.526V41.5078C255.339 42.1797 255.019 42.8125 254.565 43.4062C254.112 43.9844 253.542 44.4531 252.854 44.8125C252.183 45.1719 251.409 45.3516 250.534 45.3516ZM252.69 40.5703C253.472 40.5703 254.097 40.2891 254.565 39.7266C255.034 39.1641 255.323 38.5938 255.433 38.0156V25.9219C254.495 26.3438 253.706 26.7422 253.065 27.1172C252.425 27.4766 251.909 27.875 251.519 28.3125C251.128 28.75 250.847 29.2656 250.675 29.8594C250.503 30.4531 250.417 31.1797 250.417 32.0391V35.9766C250.417 37.5859 250.581 38.7578 250.909 39.4922C251.253 40.2109 251.847 40.5703 252.69 40.5703Z"/>
<path d="M273.878 45.2344C272.378 45.2344 271.229 45.0469 270.433 44.6719C269.636 44.2812 269.089 43.6719 268.792 42.8438C268.495 42.0156 268.347 40.9453 268.347 39.6328V15.0703H265.487V10.5703H268.347V3.75H274.558V10.5703H277.979V15.0703H274.558V38.5547C274.558 39.1016 274.644 39.5156 274.815 39.7969C274.987 40.0781 275.323 40.2656 275.823 40.3594C276.339 40.4531 277.097 40.5 278.097 40.5V45.2344H273.878Z"/>
<path d="M282.597 45V9.84375H288.808V45H282.597ZM282.573 6.60938V1.21875H288.831V6.60938H282.573Z"/>
<path d="M303.409 45.4219C301.722 45.4219 300.308 45.1641 299.167 44.6484C298.026 44.1172 297.12 43.3594 296.448 42.375C295.792 41.375 295.315 40.1641 295.019 38.7422C294.737 37.3047 294.597 35.6719 294.597 33.8438V20.6953C294.597 18.4922 294.878 16.5469 295.44 14.8594C296.019 13.1562 296.956 11.8281 298.253 10.875C299.55 9.90625 301.269 9.42188 303.409 9.42188C305.034 9.42188 306.401 9.69531 307.511 10.2422C308.636 10.7891 309.534 11.5703 310.206 12.5859C310.894 13.5859 311.394 14.7734 311.706 16.1484C312.019 17.5234 312.175 19.0391 312.175 20.6953V33.8438C312.175 35.6406 312.034 37.25 311.753 38.6719C311.487 40.0938 311.019 41.3125 310.347 42.3281C309.69 43.3281 308.8 44.0938 307.675 44.625C306.55 45.1562 305.128 45.4219 303.409 45.4219ZM303.409 40.4062C304.112 40.4062 304.644 40.1953 305.003 39.7734C305.362 39.3359 305.604 38.7344 305.729 37.9688C305.854 37.2031 305.917 36.3203 305.917 35.3203V19.5938C305.917 18.5312 305.847 17.6172 305.706 16.8516C305.565 16.0859 305.315 15.4922 304.956 15.0703C304.597 14.6484 304.081 14.4375 303.409 14.4375C302.706 14.4375 302.167 14.6484 301.792 15.0703C301.433 15.4922 301.183 16.0859 301.042 16.8516C300.917 17.6172 300.854 18.5312 300.854 19.5938V35.3203C300.854 36.3203 300.917 37.2031 301.042 37.9688C301.183 38.7344 301.433 39.3359 301.792 39.7734C302.167 40.1953 302.706 40.4062 303.409 40.4062Z"/>
<path d="M317.823 45V9.84375H324.034V13.875C324.347 12.6719 325.003 11.6328 326.003 10.7578C327.003 9.86719 328.229 9.42188 329.683 9.42188C331.714 9.42188 333.237 10.1016 334.253 11.4609C335.269 12.8047 335.776 14.7578 335.776 17.3203V45H329.565V17.6953C329.565 16.6797 329.331 15.8828 328.862 15.3047C328.409 14.7266 327.784 14.4375 326.987 14.4375C326.347 14.4375 325.8 14.6172 325.347 14.9766C324.909 15.3203 324.581 15.8047 324.362 16.4297C324.144 17.0391 324.034 17.7578 324.034 18.5859V45H317.823Z"/>
</mask>
<g filter="url(#filter0_ii_127_2789)">
<path d="M1.25293 45V3.75H10.5107C12.6045 3.75 14.2842 4.17188 15.5498 5.01562C16.8154 5.84375 17.7295 7.04688 18.292 8.625C18.8701 10.2031 19.1592 12.1094 19.1592 14.3438L19.1826 32.9531C19.1826 35.6562 18.8857 37.9062 18.292 39.7031C17.7139 41.4844 16.7764 42.8125 15.4795 43.6875C14.1826 44.5625 12.4561 45 10.2998 45H1.25293ZM7.53418 40.125H9.59668C10.3311 40.125 10.9404 39.9766 11.4248 39.6797C11.9248 39.3828 12.292 38.8594 12.5264 38.1094C12.7764 37.3438 12.9014 36.2656 12.9014 34.875L12.8779 14.5078C12.8779 12.3984 12.6201 10.8828 12.1045 9.96094C11.5889 9.03906 10.6826 8.57812 9.38574 8.57812H7.53418V40.125Z" fill="#E0E0E0"/>
<path d="M33.0576 45.4219C31.292 45.4219 29.8389 45.1406 28.6982 44.5781C27.5732 44.0156 26.6904 43.2031 26.0498 42.1406C25.4248 41.0781 24.9873 39.8047 24.7373 38.3203C24.4873 36.8203 24.3623 35.1484 24.3623 33.3047V20.2031C24.3623 18.5625 24.5264 17.0781 24.8545 15.75C25.1982 14.4219 25.7217 13.2891 26.4248 12.3516C27.1436 11.4141 28.0732 10.6953 29.2139 10.1953C30.3545 9.67969 31.7295 9.42188 33.3389 9.42188C34.9795 9.42188 36.3467 9.67188 37.4404 10.1719C38.5342 10.6719 39.3936 11.3984 40.0186 12.3516C40.6592 13.3047 41.1123 14.4531 41.3779 15.7969C41.6592 17.125 41.7998 18.6328 41.7998 20.3203V27.8438H30.6201V34.7578C30.6201 36.4609 30.7529 37.8281 31.0186 38.8594C31.2842 39.8906 32.0107 40.4062 33.1982 40.4062C33.9951 40.4062 34.5576 40.1641 34.8857 39.6797C35.2295 39.1953 35.4326 38.5312 35.4951 37.6875C35.5732 36.8281 35.6123 35.8516 35.6123 34.7578V31.6641H41.7529V33.5391C41.7529 35.4297 41.6357 37.1094 41.4014 38.5781C41.1826 40.0469 40.7607 41.2891 40.1357 42.3047C39.5264 43.3203 38.6514 44.0938 37.5107 44.625C36.3701 45.1562 34.8857 45.4219 33.0576 45.4219ZM30.5967 24.2109H35.6123V19.7109C35.6123 18.5391 35.5576 17.5547 35.4482 16.7578C35.3389 15.9453 35.1201 15.3359 34.792 14.9297C34.4639 14.5234 33.9639 14.3203 33.292 14.3203C32.4639 14.3203 31.8545 14.5625 31.4639 15.0469C31.0889 15.5312 30.8467 16.1953 30.7373 17.0391C30.6436 17.8672 30.5967 18.8125 30.5967 19.875V24.2109Z" fill="#E0E0E0"/>
<path d="M54.3154 45.4453C51.4873 45.4453 49.3857 44.6406 48.0107 43.0312C46.6357 41.4219 45.9482 38.7891 45.9482 35.1328V32.8594H51.7842V35.6953C51.7842 37.2266 51.9717 38.3906 52.3467 39.1875C52.7217 39.9844 53.3311 40.3828 54.1748 40.3828C54.9873 40.3828 55.5889 40.1094 55.9795 39.5625C56.3701 39.0156 56.5654 38.0703 56.5654 36.7266C56.5654 35.9453 56.4482 35.1875 56.2139 34.4531C55.9951 33.7188 55.6436 33 55.1592 32.2969C54.6904 31.5781 54.0811 30.8828 53.3311 30.2109L50.167 27.3516C48.7139 26.0391 47.6279 24.625 46.9092 23.1094C46.1904 21.5781 45.8311 19.8906 45.8311 18.0469C45.8311 15.0625 46.5264 12.8828 47.917 11.5078C49.3232 10.1172 51.4014 9.42188 54.1514 9.42188C55.9326 9.42188 57.4092 9.75781 58.5811 10.4297C59.7529 11.0859 60.6279 12.1562 61.2061 13.6406C61.7842 15.125 62.0732 17.1172 62.0732 19.6172V21.5391H56.5186V19.2188C56.5186 17.6719 56.3389 16.5 55.9795 15.7031C55.6357 14.9062 55.042 14.5078 54.1982 14.5078C53.3701 14.5078 52.7607 14.7422 52.3701 15.2109C51.9795 15.6641 51.7686 16.4688 51.7373 17.625C51.7217 18.25 51.7998 18.8672 51.9717 19.4766C52.1436 20.0703 52.4092 20.6562 52.7686 21.2344C53.1436 21.7969 53.6279 22.3516 54.2217 22.8984L57.5498 25.9219C59.2998 27.5 60.5889 29.1484 61.417 30.8672C62.2607 32.5859 62.6826 34.4453 62.6826 36.4453C62.6826 39.3984 62.0107 41.6406 60.667 43.1719C59.3232 44.6875 57.2061 45.4453 54.3154 45.4453Z" fill="#E0E0E0"/>
<path d="M67.3467 45V9.84375H73.5576V45H67.3467ZM67.3232 6.60938V1.21875H73.5811V6.60938H67.3232Z" fill="#E0E0E0"/>
<path d="M87.7607 50.2734C85.8232 50.3047 84.1748 50.1172 82.8154 49.7109C81.4561 49.3203 80.2217 48.6719 79.1123 47.7656L81.292 43.8516C82.1201 44.3828 83.0186 44.8125 83.9873 45.1406C84.9717 45.4844 86.0342 45.6484 87.1748 45.6328C88.3623 45.6172 89.2686 45.2031 89.8936 44.3906C90.5186 43.5781 90.8311 42.4922 90.8311 41.1328V38.3438C90.4248 39.5156 89.7998 40.3203 88.9561 40.7578C88.1279 41.1953 87.1201 41.4141 85.9326 41.4141C84.2764 41.4141 82.9717 40.9766 82.0186 40.1016C81.0811 39.2266 80.417 38.0312 80.0264 36.5156C79.6357 35 79.4404 33.2812 79.4404 31.3594V20.0391C79.4404 17.9922 79.6436 16.1719 80.0498 14.5781C80.4561 12.9688 81.1514 11.7031 82.1357 10.7812C83.1201 9.85938 84.4717 9.40625 86.1904 9.42188C87.3936 9.42188 88.3857 9.72656 89.167 10.3359C89.9639 10.9453 90.5186 11.8203 90.8311 12.9609V9.84375H97.042V40.6641C97.042 42.0547 96.8857 43.3359 96.5732 44.5078C96.2607 45.6641 95.7451 46.6641 95.0264 47.5078C94.3076 48.3672 93.3545 49.0312 92.167 49.5C90.9795 49.9844 89.5107 50.2422 87.7607 50.2734ZM88.3936 36.7031C88.9561 36.7031 89.417 36.5391 89.7764 36.2109C90.1357 35.8672 90.4014 35.2891 90.5732 34.4766C90.7451 33.6484 90.8311 32.5 90.8311 31.0312V19.5234C90.8311 17.9766 90.6436 16.7422 90.2686 15.8203C89.8936 14.8984 89.2139 14.4375 88.2295 14.4375C87.4795 14.4375 86.9248 14.6562 86.5654 15.0938C86.2061 15.5312 85.9717 16.1328 85.8623 16.8984C85.7529 17.6484 85.6982 18.5156 85.6982 19.5V31.0781C85.6982 32.8125 85.8623 34.1875 86.1904 35.2031C86.5186 36.2031 87.2529 36.7031 88.3936 36.7031Z" fill="#E0E0E0"/>
<path d="M103.042 45V9.84375H109.253V13.875C109.565 12.6719 110.222 11.6328 111.222 10.7578C112.222 9.86719 113.448 9.42188 114.901 9.42188C116.933 9.42188 118.456 10.1016 119.472 11.4609C120.487 12.8047 120.995 14.7578 120.995 17.3203V45H114.784V17.6953C114.784 16.6797 114.55 15.8828 114.081 15.3047C113.628 14.7266 113.003 14.4375 112.206 14.4375C111.565 14.4375 111.019 14.6172 110.565 14.9766C110.128 15.3203 109.8 15.8047 109.581 16.4297C109.362 17.0391 109.253 17.7578 109.253 18.5859V45H103.042Z" fill="#E0E0E0"/>
<path d="M135.737 45V3.75H142.019V45H135.737Z" fill="#E0E0E0"/>
<path d="M148.323 45V9.84375H154.534V13.875C154.847 12.6719 155.503 11.6328 156.503 10.7578C157.503 9.86719 158.729 9.42188 160.183 9.42188C162.214 9.42188 163.737 10.1016 164.753 11.4609C165.769 12.8047 166.276 14.7578 166.276 17.3203V45H160.065V17.6953C160.065 16.6797 159.831 15.8828 159.362 15.3047C158.909 14.7266 158.284 14.4375 157.487 14.4375C156.847 14.4375 156.3 14.6172 155.847 14.9766C155.409 15.3203 155.081 15.8047 154.862 16.4297C154.644 17.0391 154.534 17.7578 154.534 18.5859V45H148.323Z" fill="#E0E0E0"/>
<path d="M179.519 45.4453C176.69 45.4453 174.589 44.6406 173.214 43.0312C171.839 41.4219 171.151 38.7891 171.151 35.1328V32.8594H176.987V35.6953C176.987 37.2266 177.175 38.3906 177.55 39.1875C177.925 39.9844 178.534 40.3828 179.378 40.3828C180.19 40.3828 180.792 40.1094 181.183 39.5625C181.573 39.0156 181.769 38.0703 181.769 36.7266C181.769 35.9453 181.651 35.1875 181.417 34.4531C181.198 33.7188 180.847 33 180.362 32.2969C179.894 31.5781 179.284 30.8828 178.534 30.2109L175.37 27.3516C173.917 26.0391 172.831 24.625 172.112 23.1094C171.394 21.5781 171.034 19.8906 171.034 18.0469C171.034 15.0625 171.729 12.8828 173.12 11.5078C174.526 10.1172 176.604 9.42188 179.354 9.42188C181.136 9.42188 182.612 9.75781 183.784 10.4297C184.956 11.0859 185.831 12.1562 186.409 13.6406C186.987 15.125 187.276 17.1172 187.276 19.6172V21.5391H181.722V19.2188C181.722 17.6719 181.542 16.5 181.183 15.7031C180.839 14.9062 180.245 14.5078 179.401 14.5078C178.573 14.5078 177.964 14.7422 177.573 15.2109C177.183 15.6641 176.972 16.4688 176.94 17.625C176.925 18.25 177.003 18.8672 177.175 19.4766C177.347 20.0703 177.612 20.6562 177.972 21.2344C178.347 21.7969 178.831 22.3516 179.425 22.8984L182.753 25.9219C184.503 27.5 185.792 29.1484 186.62 30.8672C187.464 32.5859 187.886 34.4453 187.886 36.4453C187.886 39.3984 187.214 41.6406 185.87 43.1719C184.526 44.6875 182.409 45.4453 179.519 45.4453Z" fill="#E0E0E0"/>
<path d="M192.456 51.6797V9.84375H198.667V13.0078C199.12 11.8516 199.831 10.9766 200.8 10.3828C201.769 9.78906 202.745 9.49219 203.729 9.49219C205.526 9.49219 206.886 9.97656 207.808 10.9453C208.729 11.8984 209.354 13.2031 209.683 14.8594C210.011 16.5156 210.175 18.375 210.175 20.4375V33.2578C210.175 35.5078 210.019 37.5547 209.706 39.3984C209.394 41.2422 208.729 42.7109 207.714 43.8047C206.714 44.8828 205.183 45.4219 203.12 45.4219C202.167 45.4219 201.3 45.1641 200.519 44.6484C199.737 44.1328 199.12 43.5391 198.667 42.8672V51.6797H192.456ZM201.409 40.3828C202.456 40.3828 203.136 39.875 203.448 38.8594C203.761 37.8281 203.917 36.3594 203.917 34.4531V19.875C203.917 18.8594 203.862 17.9453 203.753 17.1328C203.659 16.3047 203.44 15.6484 203.097 15.1641C202.753 14.6797 202.206 14.4375 201.456 14.4375C200.878 14.4375 200.378 14.5859 199.956 14.8828C199.55 15.1797 199.229 15.7188 198.995 16.5C198.776 17.2812 198.667 18.3984 198.667 19.8516V34.7109C198.667 36.5078 198.839 37.9062 199.183 38.9062C199.526 39.8906 200.269 40.3828 201.409 40.3828Z" fill="#E0E0E0"/>
<path d="M215.94 45V9.84375H222.151V45H215.94ZM215.917 6.60938V1.21875H222.175V6.60938H215.917Z" fill="#E0E0E0"/>
<path d="M228.456 45V9.84375H234.714V13.7578C235.12 12.3984 235.823 11.3359 236.823 10.5703C237.839 9.80469 239.128 9.42188 240.69 9.42188C240.722 9.42188 240.737 9.6875 240.737 10.2188C240.753 10.75 240.761 11.3594 240.761 12.0469C240.761 12.7344 240.761 13.3438 240.761 13.875C240.761 14.4062 240.761 14.6719 240.761 14.6719C240.042 14.6719 239.261 14.7578 238.417 14.9297C237.589 15.1016 236.831 15.3672 236.144 15.7266C235.472 16.0703 234.995 16.5312 234.714 17.1094V45H228.456Z" fill="#E0E0E0"/>
<path d="M250.534 45.3516C248.128 45.3516 246.456 44.4766 245.519 42.7266C244.597 40.9766 244.12 38.6562 244.089 35.7656V33.5156C244.089 31.6406 244.354 30.1172 244.886 28.9453C245.433 27.7734 246.206 26.8203 247.206 26.0859C248.206 25.3516 249.401 24.7109 250.792 24.1641C252.183 23.6172 253.729 23.0312 255.433 22.4062V19.3359C255.433 18.1484 255.386 17.2031 255.292 16.5C255.198 15.7812 254.987 15.2578 254.659 14.9297C254.331 14.6016 253.823 14.4375 253.136 14.4375C252.464 14.4375 251.948 14.6094 251.589 14.9531C251.245 15.2812 251.011 15.7969 250.886 16.5C250.761 17.1875 250.698 18.0703 250.698 19.1484V20.7188H244.558V19.6641C244.558 18.0547 244.69 16.6172 244.956 15.3516C245.237 14.0859 245.706 13.0156 246.362 12.1406C247.019 11.25 247.909 10.5781 249.034 10.125C250.175 9.65625 251.604 9.42188 253.323 9.42188C254.839 9.42188 256.136 9.64062 257.214 10.0781C258.292 10.5 259.167 11.1406 259.839 12C260.511 12.8438 261.003 13.9062 261.315 15.1875C261.628 16.4688 261.784 17.9609 261.784 19.6641V45H255.526V41.5078C255.339 42.1797 255.019 42.8125 254.565 43.4062C254.112 43.9844 253.542 44.4531 252.854 44.8125C252.183 45.1719 251.409 45.3516 250.534 45.3516ZM252.69 40.5703C253.472 40.5703 254.097 40.2891 254.565 39.7266C255.034 39.1641 255.323 38.5938 255.433 38.0156V25.9219C254.495 26.3438 253.706 26.7422 253.065 27.1172C252.425 27.4766 251.909 27.875 251.519 28.3125C251.128 28.75 250.847 29.2656 250.675 29.8594C250.503 30.4531 250.417 31.1797 250.417 32.0391V35.9766C250.417 37.5859 250.581 38.7578 250.909 39.4922C251.253 40.2109 251.847 40.5703 252.69 40.5703Z" fill="#E0E0E0"/>
<path d="M273.878 45.2344C272.378 45.2344 271.229 45.0469 270.433 44.6719C269.636 44.2812 269.089 43.6719 268.792 42.8438C268.495 42.0156 268.347 40.9453 268.347 39.6328V15.0703H265.487V10.5703H268.347V3.75H274.558V10.5703H277.979V15.0703H274.558V38.5547C274.558 39.1016 274.644 39.5156 274.815 39.7969C274.987 40.0781 275.323 40.2656 275.823 40.3594C276.339 40.4531 277.097 40.5 278.097 40.5V45.2344H273.878Z" fill="#E0E0E0"/>
<path d="M282.597 45V9.84375H288.808V45H282.597ZM282.573 6.60938V1.21875H288.831V6.60938H282.573Z" fill="#E0E0E0"/>
<path d="M303.409 45.4219C301.722 45.4219 300.308 45.1641 299.167 44.6484C298.026 44.1172 297.12 43.3594 296.448 42.375C295.792 41.375 295.315 40.1641 295.019 38.7422C294.737 37.3047 294.597 35.6719 294.597 33.8438V20.6953C294.597 18.4922 294.878 16.5469 295.44 14.8594C296.019 13.1562 296.956 11.8281 298.253 10.875C299.55 9.90625 301.269 9.42188 303.409 9.42188C305.034 9.42188 306.401 9.69531 307.511 10.2422C308.636 10.7891 309.534 11.5703 310.206 12.5859C310.894 13.5859 311.394 14.7734 311.706 16.1484C312.019 17.5234 312.175 19.0391 312.175 20.6953V33.8438C312.175 35.6406 312.034 37.25 311.753 38.6719C311.487 40.0938 311.019 41.3125 310.347 42.3281C309.69 43.3281 308.8 44.0938 307.675 44.625C306.55 45.1562 305.128 45.4219 303.409 45.4219ZM303.409 40.4062C304.112 40.4062 304.644 40.1953 305.003 39.7734C305.362 39.3359 305.604 38.7344 305.729 37.9688C305.854 37.2031 305.917 36.3203 305.917 35.3203V19.5938C305.917 18.5312 305.847 17.6172 305.706 16.8516C305.565 16.0859 305.315 15.4922 304.956 15.0703C304.597 14.6484 304.081 14.4375 303.409 14.4375C302.706 14.4375 302.167 14.6484 301.792 15.0703C301.433 15.4922 301.183 16.0859 301.042 16.8516C300.917 17.6172 300.854 18.5312 300.854 19.5938V35.3203C300.854 36.3203 300.917 37.2031 301.042 37.9688C301.183 38.7344 301.433 39.3359 301.792 39.7734C302.167 40.1953 302.706 40.4062 303.409 40.4062Z" fill="#E0E0E0"/>
<path d="M317.823 45V9.84375H324.034V13.875C324.347 12.6719 325.003 11.6328 326.003 10.7578C327.003 9.86719 328.229 9.42188 329.683 9.42188C331.714 9.42188 333.237 10.1016 334.253 11.4609C335.269 12.8047 335.776 14.7578 335.776 17.3203V45H329.565V17.6953C329.565 16.6797 329.331 15.8828 328.862 15.3047C328.409 14.7266 327.784 14.4375 326.987 14.4375C326.347 14.4375 325.8 14.6172 325.347 14.9766C324.909 15.3203 324.581 15.8047 324.362 16.4297C324.144 17.0391 324.034 17.7578 324.034 18.5859V45H317.823Z" fill="#E0E0E0"/>
</g>
<path d="M1.25293 45V3.75H10.5107C12.6045 3.75 14.2842 4.17188 15.5498 5.01562C16.8154 5.84375 17.7295 7.04688 18.292 8.625C18.8701 10.2031 19.1592 12.1094 19.1592 14.3438L19.1826 32.9531C19.1826 35.6562 18.8857 37.9062 18.292 39.7031C17.7139 41.4844 16.7764 42.8125 15.4795 43.6875C14.1826 44.5625 12.4561 45 10.2998 45H1.25293ZM7.53418 40.125H9.59668C10.3311 40.125 10.9404 39.9766 11.4248 39.6797C11.9248 39.3828 12.292 38.8594 12.5264 38.1094C12.7764 37.3438 12.9014 36.2656 12.9014 34.875L12.8779 14.5078C12.8779 12.3984 12.6201 10.8828 12.1045 9.96094C11.5889 9.03906 10.6826 8.57812 9.38574 8.57812H7.53418V40.125Z" stroke="#EAEAEA" stroke-width="2" mask="url(#path-1-outside-1_127_2789)"/>
<path d="M33.0576 45.4219C31.292 45.4219 29.8389 45.1406 28.6982 44.5781C27.5732 44.0156 26.6904 43.2031 26.0498 42.1406C25.4248 41.0781 24.9873 39.8047 24.7373 38.3203C24.4873 36.8203 24.3623 35.1484 24.3623 33.3047V20.2031C24.3623 18.5625 24.5264 17.0781 24.8545 15.75C25.1982 14.4219 25.7217 13.2891 26.4248 12.3516C27.1436 11.4141 28.0732 10.6953 29.2139 10.1953C30.3545 9.67969 31.7295 9.42188 33.3389 9.42188C34.9795 9.42188 36.3467 9.67188 37.4404 10.1719C38.5342 10.6719 39.3936 11.3984 40.0186 12.3516C40.6592 13.3047 41.1123 14.4531 41.3779 15.7969C41.6592 17.125 41.7998 18.6328 41.7998 20.3203V27.8438H30.6201V34.7578C30.6201 36.4609 30.7529 37.8281 31.0186 38.8594C31.2842 39.8906 32.0107 40.4062 33.1982 40.4062C33.9951 40.4062 34.5576 40.1641 34.8857 39.6797C35.2295 39.1953 35.4326 38.5312 35.4951 37.6875C35.5732 36.8281 35.6123 35.8516 35.6123 34.7578V31.6641H41.7529V33.5391C41.7529 35.4297 41.6357 37.1094 41.4014 38.5781C41.1826 40.0469 40.7607 41.2891 40.1357 42.3047C39.5264 43.3203 38.6514 44.0938 37.5107 44.625C36.3701 45.1562 34.8857 45.4219 33.0576 45.4219ZM30.5967 24.2109H35.6123V19.7109C35.6123 18.5391 35.5576 17.5547 35.4482 16.7578C35.3389 15.9453 35.1201 15.3359 34.792 14.9297C34.4639 14.5234 33.9639 14.3203 33.292 14.3203C32.4639 14.3203 31.8545 14.5625 31.4639 15.0469C31.0889 15.5312 30.8467 16.1953 30.7373 17.0391C30.6436 17.8672 30.5967 18.8125 30.5967 19.875V24.2109Z" stroke="#EAEAEA" stroke-width="2" mask="url(#path-1-outside-1_127_2789)"/>
<path d="M54.3154 45.4453C51.4873 45.4453 49.3857 44.6406 48.0107 43.0312C46.6357 41.4219 45.9482 38.7891 45.9482 35.1328V32.8594H51.7842V35.6953C51.7842 37.2266 51.9717 38.3906 52.3467 39.1875C52.7217 39.9844 53.3311 40.3828 54.1748 40.3828C54.9873 40.3828 55.5889 40.1094 55.9795 39.5625C56.3701 39.0156 56.5654 38.0703 56.5654 36.7266C56.5654 35.9453 56.4482 35.1875 56.2139 34.4531C55.9951 33.7188 55.6436 33 55.1592 32.2969C54.6904 31.5781 54.0811 30.8828 53.3311 30.2109L50.167 27.3516C48.7139 26.0391 47.6279 24.625 46.9092 23.1094C46.1904 21.5781 45.8311 19.8906 45.8311 18.0469C45.8311 15.0625 46.5264 12.8828 47.917 11.5078C49.3232 10.1172 51.4014 9.42188 54.1514 9.42188C55.9326 9.42188 57.4092 9.75781 58.5811 10.4297C59.7529 11.0859 60.6279 12.1562 61.2061 13.6406C61.7842 15.125 62.0732 17.1172 62.0732 19.6172V21.5391H56.5186V19.2188C56.5186 17.6719 56.3389 16.5 55.9795 15.7031C55.6357 14.9062 55.042 14.5078 54.1982 14.5078C53.3701 14.5078 52.7607 14.7422 52.3701 15.2109C51.9795 15.6641 51.7686 16.4688 51.7373 17.625C51.7217 18.25 51.7998 18.8672 51.9717 19.4766C52.1436 20.0703 52.4092 20.6562 52.7686 21.2344C53.1436 21.7969 53.6279 22.3516 54.2217 22.8984L57.5498 25.9219C59.2998 27.5 60.5889 29.1484 61.417 30.8672C62.2607 32.5859 62.6826 34.4453 62.6826 36.4453C62.6826 39.3984 62.0107 41.6406 60.667 43.1719C59.3232 44.6875 57.2061 45.4453 54.3154 45.4453Z" stroke="#EAEAEA" stroke-width="2" mask="url(#path-1-outside-1_127_2789)"/>
<path d="M67.3467 45V9.84375H73.5576V45H67.3467ZM67.3232 6.60938V1.21875H73.5811V6.60938H67.3232Z" stroke="#EAEAEA" stroke-width="2" mask="url(#path-1-outside-1_127_2789)"/>
<path d="M87.7607 50.2734C85.8232 50.3047 84.1748 50.1172 82.8154 49.7109C81.4561 49.3203 80.2217 48.6719 79.1123 47.7656L81.292 43.8516C82.1201 44.3828 83.0186 44.8125 83.9873 45.1406C84.9717 45.4844 86.0342 45.6484 87.1748 45.6328C88.3623 45.6172 89.2686 45.2031 89.8936 44.3906C90.5186 43.5781 90.8311 42.4922 90.8311 41.1328V38.3438C90.4248 39.5156 89.7998 40.3203 88.9561 40.7578C88.1279 41.1953 87.1201 41.4141 85.9326 41.4141C84.2764 41.4141 82.9717 40.9766 82.0186 40.1016C81.0811 39.2266 80.417 38.0312 80.0264 36.5156C79.6357 35 79.4404 33.2812 79.4404 31.3594V20.0391C79.4404 17.9922 79.6436 16.1719 80.0498 14.5781C80.4561 12.9688 81.1514 11.7031 82.1357 10.7812C83.1201 9.85938 84.4717 9.40625 86.1904 9.42188C87.3936 9.42188 88.3857 9.72656 89.167 10.3359C89.9639 10.9453 90.5186 11.8203 90.8311 12.9609V9.84375H97.042V40.6641C97.042 42.0547 96.8857 43.3359 96.5732 44.5078C96.2607 45.6641 95.7451 46.6641 95.0264 47.5078C94.3076 48.3672 93.3545 49.0312 92.167 49.5C90.9795 49.9844 89.5107 50.2422 87.7607 50.2734ZM88.3936 36.7031C88.9561 36.7031 89.417 36.5391 89.7764 36.2109C90.1357 35.8672 90.4014 35.2891 90.5732 34.4766C90.7451 33.6484 90.8311 32.5 90.8311 31.0312V19.5234C90.8311 17.9766 90.6436 16.7422 90.2686 15.8203C89.8936 14.8984 89.2139 14.4375 88.2295 14.4375C87.4795 14.4375 86.9248 14.6562 86.5654 15.0938C86.2061 15.5312 85.9717 16.1328 85.8623 16.8984C85.7529 17.6484 85.6982 18.5156 85.6982 19.5V31.0781C85.6982 32.8125 85.8623 34.1875 86.1904 35.2031C86.5186 36.2031 87.2529 36.7031 88.3936 36.7031Z" stroke="#EAEAEA" stroke-width="2" mask="url(#path-1-outside-1_127_2789)"/>
<path d="M103.042 45V9.84375H109.253V13.875C109.565 12.6719 110.222 11.6328 111.222 10.7578C112.222 9.86719 113.448 9.42188 114.901 9.42188C116.933 9.42188 118.456 10.1016 119.472 11.4609C120.487 12.8047 120.995 14.7578 120.995 17.3203V45H114.784V17.6953C114.784 16.6797 114.55 15.8828 114.081 15.3047C113.628 14.7266 113.003 14.4375 112.206 14.4375C111.565 14.4375 111.019 14.6172 110.565 14.9766C110.128 15.3203 109.8 15.8047 109.581 16.4297C109.362 17.0391 109.253 17.7578 109.253 18.5859V45H103.042Z" stroke="#EAEAEA" stroke-width="2" mask="url(#path-1-outside-1_127_2789)"/>
<path d="M135.737 45V3.75H142.019V45H135.737Z" stroke="#EAEAEA" stroke-width="2" mask="url(#path-1-outside-1_127_2789)"/>
<path d="M148.323 45V9.84375H154.534V13.875C154.847 12.6719 155.503 11.6328 156.503 10.7578C157.503 9.86719 158.729 9.42188 160.183 9.42188C162.214 9.42188 163.737 10.1016 164.753 11.4609C165.769 12.8047 166.276 14.7578 166.276 17.3203V45H160.065V17.6953C160.065 16.6797 159.831 15.8828 159.362 15.3047C158.909 14.7266 158.284 14.4375 157.487 14.4375C156.847 14.4375 156.3 14.6172 155.847 14.9766C155.409 15.3203 155.081 15.8047 154.862 16.4297C154.644 17.0391 154.534 17.7578 154.534 18.5859V45H148.323Z" stroke="#EAEAEA" stroke-width="2" mask="url(#path-1-outside-1_127_2789)"/>
<path d="M179.519 45.4453C176.69 45.4453 174.589 44.6406 173.214 43.0312C171.839 41.4219 171.151 38.7891 171.151 35.1328V32.8594H176.987V35.6953C176.987 37.2266 177.175 38.3906 177.55 39.1875C177.925 39.9844 178.534 40.3828 179.378 40.3828C180.19 40.3828 180.792 40.1094 181.183 39.5625C181.573 39.0156 181.769 38.0703 181.769 36.7266C181.769 35.9453 181.651 35.1875 181.417 34.4531C181.198 33.7188 180.847 33 180.362 32.2969C179.894 31.5781 179.284 30.8828 178.534 30.2109L175.37 27.3516C173.917 26.0391 172.831 24.625 172.112 23.1094C171.394 21.5781 171.034 19.8906 171.034 18.0469C171.034 15.0625 171.729 12.8828 173.12 11.5078C174.526 10.1172 176.604 9.42188 179.354 9.42188C181.136 9.42188 182.612 9.75781 183.784 10.4297C184.956 11.0859 185.831 12.1562 186.409 13.6406C186.987 15.125 187.276 17.1172 187.276 19.6172V21.5391H181.722V19.2188C181.722 17.6719 181.542 16.5 181.183 15.7031C180.839 14.9062 180.245 14.5078 179.401 14.5078C178.573 14.5078 177.964 14.7422 177.573 15.2109C177.183 15.6641 176.972 16.4688 176.94 17.625C176.925 18.25 177.003 18.8672 177.175 19.4766C177.347 20.0703 177.612 20.6562 177.972 21.2344C178.347 21.7969 178.831 22.3516 179.425 22.8984L182.753 25.9219C184.503 27.5 185.792 29.1484 186.62 30.8672C187.464 32.5859 187.886 34.4453 187.886 36.4453C187.886 39.3984 187.214 41.6406 185.87 43.1719C184.526 44.6875 182.409 45.4453 179.519 45.4453Z" stroke="#EAEAEA" stroke-width="2" mask="url(#path-1-outside-1_127_2789)"/>
<path d="M192.456 51.6797V9.84375H198.667V13.0078C199.12 11.8516 199.831 10.9766 200.8 10.3828C201.769 9.78906 202.745 9.49219 203.729 9.49219C205.526 9.49219 206.886 9.97656 207.808 10.9453C208.729 11.8984 209.354 13.2031 209.683 14.8594C210.011 16.5156 210.175 18.375 210.175 20.4375V33.2578C210.175 35.5078 210.019 37.5547 209.706 39.3984C209.394 41.2422 208.729 42.7109 207.714 43.8047C206.714 44.8828 205.183 45.4219 203.12 45.4219C202.167 45.4219 201.3 45.1641 200.519 44.6484C199.737 44.1328 199.12 43.5391 198.667 42.8672V51.6797H192.456ZM201.409 40.3828C202.456 40.3828 203.136 39.875 203.448 38.8594C203.761 37.8281 203.917 36.3594 203.917 34.4531V19.875C203.917 18.8594 203.862 17.9453 203.753 17.1328C203.659 16.3047 203.44 15.6484 203.097 15.1641C202.753 14.6797 202.206 14.4375 201.456 14.4375C200.878 14.4375 200.378 14.5859 199.956 14.8828C199.55 15.1797 199.229 15.7188 198.995 16.5C198.776 17.2812 198.667 18.3984 198.667 19.8516V34.7109C198.667 36.5078 198.839 37.9062 199.183 38.9062C199.526 39.8906 200.269 40.3828 201.409 40.3828Z" stroke="#EAEAEA" stroke-width="2" mask="url(#path-1-outside-1_127_2789)"/>
<path d="M215.94 45V9.84375H222.151V45H215.94ZM215.917 6.60938V1.21875H222.175V6.60938H215.917Z" stroke="#EAEAEA" stroke-width="2" mask="url(#path-1-outside-1_127_2789)"/>
<path d="M228.456 45V9.84375H234.714V13.7578C235.12 12.3984 235.823 11.3359 236.823 10.5703C237.839 9.80469 239.128 9.42188 240.69 9.42188C240.722 9.42188 240.737 9.6875 240.737 10.2188C240.753 10.75 240.761 11.3594 240.761 12.0469C240.761 12.7344 240.761 13.3438 240.761 13.875C240.761 14.4062 240.761 14.6719 240.761 14.6719C240.042 14.6719 239.261 14.7578 238.417 14.9297C237.589 15.1016 236.831 15.3672 236.144 15.7266C235.472 16.0703 234.995 16.5312 234.714 17.1094V45H228.456Z" stroke="#EAEAEA" stroke-width="2" mask="url(#path-1-outside-1_127_2789)"/>
<path d="M250.534 45.3516C248.128 45.3516 246.456 44.4766 245.519 42.7266C244.597 40.9766 244.12 38.6562 244.089 35.7656V33.5156C244.089 31.6406 244.354 30.1172 244.886 28.9453C245.433 27.7734 246.206 26.8203 247.206 26.0859C248.206 25.3516 249.401 24.7109 250.792 24.1641C252.183 23.6172 253.729 23.0312 255.433 22.4062V19.3359C255.433 18.1484 255.386 17.2031 255.292 16.5C255.198 15.7812 254.987 15.2578 254.659 14.9297C254.331 14.6016 253.823 14.4375 253.136 14.4375C252.464 14.4375 251.948 14.6094 251.589 14.9531C251.245 15.2812 251.011 15.7969 250.886 16.5C250.761 17.1875 250.698 18.0703 250.698 19.1484V20.7188H244.558V19.6641C244.558 18.0547 244.69 16.6172 244.956 15.3516C245.237 14.0859 245.706 13.0156 246.362 12.1406C247.019 11.25 247.909 10.5781 249.034 10.125C250.175 9.65625 251.604 9.42188 253.323 9.42188C254.839 9.42188 256.136 9.64062 257.214 10.0781C258.292 10.5 259.167 11.1406 259.839 12C260.511 12.8438 261.003 13.9062 261.315 15.1875C261.628 16.4688 261.784 17.9609 261.784 19.6641V45H255.526V41.5078C255.339 42.1797 255.019 42.8125 254.565 43.4062C254.112 43.9844 253.542 44.4531 252.854 44.8125C252.183 45.1719 251.409 45.3516 250.534 45.3516ZM252.69 40.5703C253.472 40.5703 254.097 40.2891 254.565 39.7266C255.034 39.1641 255.323 38.5938 255.433 38.0156V25.9219C254.495 26.3438 253.706 26.7422 253.065 27.1172C252.425 27.4766 251.909 27.875 251.519 28.3125C251.128 28.75 250.847 29.2656 250.675 29.8594C250.503 30.4531 250.417 31.1797 250.417 32.0391V35.9766C250.417 37.5859 250.581 38.7578 250.909 39.4922C251.253 40.2109 251.847 40.5703 252.69 40.5703Z" stroke="#EAEAEA" stroke-width="2" mask="url(#path-1-outside-1_127_2789)"/>
<path d="M273.878 45.2344C272.378 45.2344 271.229 45.0469 270.433 44.6719C269.636 44.2812 269.089 43.6719 268.792 42.8438C268.495 42.0156 268.347 40.9453 268.347 39.6328V15.0703H265.487V10.5703H268.347V3.75H274.558V10.5703H277.979V15.0703H274.558V38.5547C274.558 39.1016 274.644 39.5156 274.815 39.7969C274.987 40.0781 275.323 40.2656 275.823 40.3594C276.339 40.4531 277.097 40.5 278.097 40.5V45.2344H273.878Z" stroke="#EAEAEA" stroke-width="2" mask="url(#path-1-outside-1_127_2789)"/>
<path d="M282.597 45V9.84375H288.808V45H282.597ZM282.573 6.60938V1.21875H288.831V6.60938H282.573Z" stroke="#EAEAEA" stroke-width="2" mask="url(#path-1-outside-1_127_2789)"/>
<path d="M303.409 45.4219C301.722 45.4219 300.308 45.1641 299.167 44.6484C298.026 44.1172 297.12 43.3594 296.448 42.375C295.792 41.375 295.315 40.1641 295.019 38.7422C294.737 37.3047 294.597 35.6719 294.597 33.8438V20.6953C294.597 18.4922 294.878 16.5469 295.44 14.8594C296.019 13.1562 296.956 11.8281 298.253 10.875C299.55 9.90625 301.269 9.42188 303.409 9.42188C305.034 9.42188 306.401 9.69531 307.511 10.2422C308.636 10.7891 309.534 11.5703 310.206 12.5859C310.894 13.5859 311.394 14.7734 311.706 16.1484C312.019 17.5234 312.175 19.0391 312.175 20.6953V33.8438C312.175 35.6406 312.034 37.25 311.753 38.6719C311.487 40.0938 311.019 41.3125 310.347 42.3281C309.69 43.3281 308.8 44.0938 307.675 44.625C306.55 45.1562 305.128 45.4219 303.409 45.4219ZM303.409 40.4062C304.112 40.4062 304.644 40.1953 305.003 39.7734C305.362 39.3359 305.604 38.7344 305.729 37.9688C305.854 37.2031 305.917 36.3203 305.917 35.3203V19.5938C305.917 18.5312 305.847 17.6172 305.706 16.8516C305.565 16.0859 305.315 15.4922 304.956 15.0703C304.597 14.6484 304.081 14.4375 303.409 14.4375C302.706 14.4375 302.167 14.6484 301.792 15.0703C301.433 15.4922 301.183 16.0859 301.042 16.8516C300.917 17.6172 300.854 18.5312 300.854 19.5938V35.3203C300.854 36.3203 300.917 37.2031 301.042 37.9688C301.183 38.7344 301.433 39.3359 301.792 39.7734C302.167 40.1953 302.706 40.4062 303.409 40.4062Z" stroke="#EAEAEA" stroke-width="2" mask="url(#path-1-outside-1_127_2789)"/>
<path d="M317.823 45V9.84375H324.034V13.875C324.347 12.6719 325.003 11.6328 326.003 10.7578C327.003 9.86719 328.229 9.42188 329.683 9.42188C331.714 9.42188 333.237 10.1016 334.253 11.4609C335.269 12.8047 335.776 14.7578 335.776 17.3203V45H329.565V17.6953C329.565 16.6797 329.331 15.8828 328.862 15.3047C328.409 14.7266 327.784 14.4375 326.987 14.4375C326.347 14.4375 325.8 14.6172 325.347 14.9766C324.909 15.3203 324.581 15.8047 324.362 16.4297C324.144 17.0391 324.034 17.7578 324.034 18.5859V45H317.823Z" stroke="#EAEAEA" stroke-width="2" mask="url(#path-1-outside-1_127_2789)"/>
<defs>
<filter id="filter0_ii_127_2789" x="-0.74707" y="-0.78125" width="340.523" height="56.4609" filterUnits="userSpaceOnUse" color-interpolation-filters="sRGB">
<feFlood flood-opacity="0" result="BackgroundImageFix"/>
<feBlend mode="normal" in="SourceGraphic" in2="BackgroundImageFix" result="shape"/>
<feColorMatrix in="SourceAlpha" type="matrix" values="0 0 0 0 0 0 0 0 0 0 0 0 0 0 0 0 0 0 127 0" result="hardAlpha"/>
<feOffset dx="-1" dy="-1"/>
<feGaussianBlur stdDeviation="1.5"/>
<feComposite in2="hardAlpha" operator="arithmetic" k2="-1" k3="1"/>
<feColorMatrix type="matrix" values="0 0 0 0 0.984314 0 0 0 0 0.984314 0 0 0 0 0.984314 0 0 0 1 0"/>
<feBlend mode="normal" in2="shape" result="effect1_innerShadow_127_2789"/>
<feColorMatrix in="SourceAlpha" type="matrix" values="0 0 0 0 0 0 0 0 0 0 0 0 0 0 0 0 0 0 127 0" result="hardAlpha"/>
<feOffset dx="3" dy="3"/>
<feGaussianBlur stdDeviation="4.5"/>
<feComposite in2="hardAlpha" operator="arithmetic" k2="-1" k3="1"/>
<feColorMatrix type="matrix" values="0 0 0 0 0.772549 0 0 0 0 0.772549 0 0 0 0 0.772549 0 0 0 1 0"/>
<feBlend mode="normal" in2="effect1_innerShadow_127_2789" result="effect2_innerShadow_127_2789"/>
</filter>
</defs>
</svg>
