<svg width="166" height="45" viewBox="0 0 166 45" fill="none" xmlns="http://www.w3.org/2000/svg">
<mask id="path-1-outside-1_127_2781" maskUnits="userSpaceOnUse" x="0.526367" y="0.398438" width="166" height="45" fill="black">
<rect fill="white" x="0.526367" y="0.398438" width="166" height="45"/>
<path d="M1.52637 43V1.75H10.7842C12.8779 1.75 14.5576 2.17188 15.8232 3.01562C17.0889 3.84375 18.0029 5.04688 18.5654 6.625C19.1436 8.20312 19.4326 10.1094 19.4326 12.3438L19.4561 30.9531C19.4561 33.6562 19.1592 35.9062 18.5654 37.7031C17.9873 39.4844 17.0498 40.8125 15.7529 41.6875C14.4561 42.5625 12.7295 43 10.5732 43H1.52637ZM7.80762 38.125H9.87012C10.6045 38.125 11.2139 37.9766 11.6982 37.6797C12.1982 37.3828 12.5654 36.8594 12.7998 36.1094C13.0498 35.3438 13.1748 34.2656 13.1748 32.875L13.1514 12.5078C13.1514 10.3984 12.8936 8.88281 12.3779 7.96094C11.8623 7.03906 10.9561 6.57812 9.65918 6.57812H7.80762V38.125Z"/>
<path d="M33.3311 43.4219C31.5654 43.4219 30.1123 43.1406 28.9717 42.5781C27.8467 42.0156 26.9639 41.2031 26.3232 40.1406C25.6982 39.0781 25.2607 37.8047 25.0107 36.3203C24.7607 34.8203 24.6357 33.1484 24.6357 31.3047V18.2031C24.6357 16.5625 24.7998 15.0781 25.1279 13.75C25.4717 12.4219 25.9951 11.2891 26.6982 10.3516C27.417 9.41406 28.3467 8.69531 29.4873 8.19531C30.6279 7.67969 32.0029 7.42188 33.6123 7.42188C35.2529 7.42188 36.6201 7.67188 37.7139 8.17188C38.8076 8.67188 39.667 9.39844 40.292 10.3516C40.9326 11.3047 41.3857 12.4531 41.6514 13.7969C41.9326 15.125 42.0732 16.6328 42.0732 18.3203V25.8438H30.8936V32.7578C30.8936 34.4609 31.0264 35.8281 31.292 36.8594C31.5576 37.8906 32.2842 38.4062 33.4717 38.4062C34.2686 38.4062 34.8311 38.1641 35.1592 37.6797C35.5029 37.1953 35.7061 36.5312 35.7686 35.6875C35.8467 34.8281 35.8857 33.8516 35.8857 32.7578V29.6641H42.0264V31.5391C42.0264 33.4297 41.9092 35.1094 41.6748 36.5781C41.4561 38.0469 41.0342 39.2891 40.4092 40.3047C39.7998 41.3203 38.9248 42.0938 37.7842 42.625C36.6436 43.1562 35.1592 43.4219 33.3311 43.4219ZM30.8701 22.2109H35.8857V17.7109C35.8857 16.5391 35.8311 15.5547 35.7217 14.7578C35.6123 13.9453 35.3936 13.3359 35.0654 12.9297C34.7373 12.5234 34.2373 12.3203 33.5654 12.3203C32.7373 12.3203 32.1279 12.5625 31.7373 13.0469C31.3623 13.5312 31.1201 14.1953 31.0107 15.0391C30.917 15.8672 30.8701 16.8125 30.8701 17.875V22.2109Z"/>
<path d="M50.417 43L45.3311 7.84375H51.1904L53.4639 26.5469L54.2373 34.9609H54.7061L55.3623 26.5234L57.3076 7.84375H63.1201L58.0342 43H50.417Z"/>
<path d="M78.0732 43V7.1875H73.2451V1.75H88.9717V7.1875H84.3311V43H78.0732Z"/>
<path d="M99.6357 43.4219C97.9482 43.4219 96.5342 43.1641 95.3936 42.6484C94.2529 42.1172 93.3467 41.3594 92.6748 40.375C92.0186 39.375 91.542 38.1641 91.2451 36.7422C90.9639 35.3047 90.8232 33.6719 90.8232 31.8438V18.6953C90.8232 16.4922 91.1045 14.5469 91.667 12.8594C92.2451 11.1562 93.1826 9.82812 94.4795 8.875C95.7764 7.90625 97.4951 7.42188 99.6357 7.42188C101.261 7.42188 102.628 7.69531 103.737 8.24219C104.862 8.78906 105.761 9.57031 106.433 10.5859C107.12 11.5859 107.62 12.7734 107.933 14.1484C108.245 15.5234 108.401 17.0391 108.401 18.6953V31.8438C108.401 33.6406 108.261 35.25 107.979 36.6719C107.714 38.0938 107.245 39.3125 106.573 40.3281C105.917 41.3281 105.026 42.0938 103.901 42.625C102.776 43.1562 101.354 43.4219 99.6357 43.4219ZM99.6357 38.4062C100.339 38.4062 100.87 38.1953 101.229 37.7734C101.589 37.3359 101.831 36.7344 101.956 35.9688C102.081 35.2031 102.144 34.3203 102.144 33.3203V17.5938C102.144 16.5312 102.073 15.6172 101.933 14.8516C101.792 14.0859 101.542 13.4922 101.183 13.0703C100.823 12.6484 100.308 12.4375 99.6357 12.4375C98.9326 12.4375 98.3936 12.6484 98.0186 13.0703C97.6592 13.4922 97.4092 14.0859 97.2686 14.8516C97.1436 15.6172 97.0811 16.5312 97.0811 17.5938V33.3203C97.0811 34.3203 97.1436 35.2031 97.2686 35.9688C97.4092 36.7344 97.6592 37.3359 98.0186 37.7734C98.3936 38.1953 98.9326 38.4062 99.6357 38.4062Z"/>
<path d="M122.37 43.4219C120.683 43.4219 119.269 43.1641 118.128 42.6484C116.987 42.1172 116.081 41.3594 115.409 40.375C114.753 39.375 114.276 38.1641 113.979 36.7422C113.698 35.3047 113.558 33.6719 113.558 31.8438V18.6953C113.558 16.4922 113.839 14.5469 114.401 12.8594C114.979 11.1562 115.917 9.82812 117.214 8.875C118.511 7.90625 120.229 7.42188 122.37 7.42188C123.995 7.42188 125.362 7.69531 126.472 8.24219C127.597 8.78906 128.495 9.57031 129.167 10.5859C129.854 11.5859 130.354 12.7734 130.667 14.1484C130.979 15.5234 131.136 17.0391 131.136 18.6953V31.8438C131.136 33.6406 130.995 35.25 130.714 36.6719C130.448 38.0938 129.979 39.3125 129.308 40.3281C128.651 41.3281 127.761 42.0938 126.636 42.625C125.511 43.1562 124.089 43.4219 122.37 43.4219ZM122.37 38.4062C123.073 38.4062 123.604 38.1953 123.964 37.7734C124.323 37.3359 124.565 36.7344 124.69 35.9688C124.815 35.2031 124.878 34.3203 124.878 33.3203V17.5938C124.878 16.5312 124.808 15.6172 124.667 14.8516C124.526 14.0859 124.276 13.4922 123.917 13.0703C123.558 12.6484 123.042 12.4375 122.37 12.4375C121.667 12.4375 121.128 12.6484 120.753 13.0703C120.394 13.4922 120.144 14.0859 120.003 14.8516C119.878 15.6172 119.815 16.5312 119.815 17.5938V33.3203C119.815 34.3203 119.878 35.2031 120.003 35.9688C120.144 36.7344 120.394 37.3359 120.753 37.7734C121.128 38.1953 121.667 38.4062 122.37 38.4062Z"/>
<path d="M136.808 43V1.39844H142.995V43H136.808Z"/>
<path d="M156.542 43.4453C153.714 43.4453 151.612 42.6406 150.237 41.0312C148.862 39.4219 148.175 36.7891 148.175 33.1328V30.8594H154.011V33.6953C154.011 35.2266 154.198 36.3906 154.573 37.1875C154.948 37.9844 155.558 38.3828 156.401 38.3828C157.214 38.3828 157.815 38.1094 158.206 37.5625C158.597 37.0156 158.792 36.0703 158.792 34.7266C158.792 33.9453 158.675 33.1875 158.44 32.4531C158.222 31.7188 157.87 31 157.386 30.2969C156.917 29.5781 156.308 28.8828 155.558 28.2109L152.394 25.3516C150.94 24.0391 149.854 22.625 149.136 21.1094C148.417 19.5781 148.058 17.8906 148.058 16.0469C148.058 13.0625 148.753 10.8828 150.144 9.50781C151.55 8.11719 153.628 7.42188 156.378 7.42188C158.159 7.42188 159.636 7.75781 160.808 8.42969C161.979 9.08594 162.854 10.1562 163.433 11.6406C164.011 13.125 164.3 15.1172 164.3 17.6172V19.5391H158.745V17.2188C158.745 15.6719 158.565 14.5 158.206 13.7031C157.862 12.9062 157.269 12.5078 156.425 12.5078C155.597 12.5078 154.987 12.7422 154.597 13.2109C154.206 13.6641 153.995 14.4688 153.964 15.625C153.948 16.25 154.026 16.8672 154.198 17.4766C154.37 18.0703 154.636 18.6562 154.995 19.2344C155.37 19.7969 155.854 20.3516 156.448 20.8984L159.776 23.9219C161.526 25.5 162.815 27.1484 163.644 28.8672C164.487 30.5859 164.909 32.4453 164.909 34.4453C164.909 37.3984 164.237 39.6406 162.894 41.1719C161.55 42.6875 159.433 43.4453 156.542 43.4453Z"/>
</mask>
<g filter="url(#filter0_ii_127_2781)">
<path d="M1.52637 43V1.75H10.7842C12.8779 1.75 14.5576 2.17188 15.8232 3.01562C17.0889 3.84375 18.0029 5.04688 18.5654 6.625C19.1436 8.20312 19.4326 10.1094 19.4326 12.3438L19.4561 30.9531C19.4561 33.6562 19.1592 35.9062 18.5654 37.7031C17.9873 39.4844 17.0498 40.8125 15.7529 41.6875C14.4561 42.5625 12.7295 43 10.5732 43H1.52637ZM7.80762 38.125H9.87012C10.6045 38.125 11.2139 37.9766 11.6982 37.6797C12.1982 37.3828 12.5654 36.8594 12.7998 36.1094C13.0498 35.3438 13.1748 34.2656 13.1748 32.875L13.1514 12.5078C13.1514 10.3984 12.8936 8.88281 12.3779 7.96094C11.8623 7.03906 10.9561 6.57812 9.65918 6.57812H7.80762V38.125Z" fill="#E0E0E0"/>
<path d="M33.3311 43.4219C31.5654 43.4219 30.1123 43.1406 28.9717 42.5781C27.8467 42.0156 26.9639 41.2031 26.3232 40.1406C25.6982 39.0781 25.2607 37.8047 25.0107 36.3203C24.7607 34.8203 24.6357 33.1484 24.6357 31.3047V18.2031C24.6357 16.5625 24.7998 15.0781 25.1279 13.75C25.4717 12.4219 25.9951 11.2891 26.6982 10.3516C27.417 9.41406 28.3467 8.69531 29.4873 8.19531C30.6279 7.67969 32.0029 7.42188 33.6123 7.42188C35.2529 7.42188 36.6201 7.67188 37.7139 8.17188C38.8076 8.67188 39.667 9.39844 40.292 10.3516C40.9326 11.3047 41.3857 12.4531 41.6514 13.7969C41.9326 15.125 42.0732 16.6328 42.0732 18.3203V25.8438H30.8936V32.7578C30.8936 34.4609 31.0264 35.8281 31.292 36.8594C31.5576 37.8906 32.2842 38.4062 33.4717 38.4062C34.2686 38.4062 34.8311 38.1641 35.1592 37.6797C35.5029 37.1953 35.7061 36.5312 35.7686 35.6875C35.8467 34.8281 35.8857 33.8516 35.8857 32.7578V29.6641H42.0264V31.5391C42.0264 33.4297 41.9092 35.1094 41.6748 36.5781C41.4561 38.0469 41.0342 39.2891 40.4092 40.3047C39.7998 41.3203 38.9248 42.0938 37.7842 42.625C36.6436 43.1562 35.1592 43.4219 33.3311 43.4219ZM30.8701 22.2109H35.8857V17.7109C35.8857 16.5391 35.8311 15.5547 35.7217 14.7578C35.6123 13.9453 35.3936 13.3359 35.0654 12.9297C34.7373 12.5234 34.2373 12.3203 33.5654 12.3203C32.7373 12.3203 32.1279 12.5625 31.7373 13.0469C31.3623 13.5312 31.1201 14.1953 31.0107 15.0391C30.917 15.8672 30.8701 16.8125 30.8701 17.875V22.2109Z" fill="#E0E0E0"/>
<path d="M50.417 43L45.3311 7.84375H51.1904L53.4639 26.5469L54.2373 34.9609H54.7061L55.3623 26.5234L57.3076 7.84375H63.1201L58.0342 43H50.417Z" fill="#E0E0E0"/>
<path d="M78.0732 43V7.1875H73.2451V1.75H88.9717V7.1875H84.3311V43H78.0732Z" fill="#E0E0E0"/>
<path d="M99.6357 43.4219C97.9482 43.4219 96.5342 43.1641 95.3936 42.6484C94.2529 42.1172 93.3467 41.3594 92.6748 40.375C92.0186 39.375 91.542 38.1641 91.2451 36.7422C90.9639 35.3047 90.8232 33.6719 90.8232 31.8438V18.6953C90.8232 16.4922 91.1045 14.5469 91.667 12.8594C92.2451 11.1562 93.1826 9.82812 94.4795 8.875C95.7764 7.90625 97.4951 7.42188 99.6357 7.42188C101.261 7.42188 102.628 7.69531 103.737 8.24219C104.862 8.78906 105.761 9.57031 106.433 10.5859C107.12 11.5859 107.62 12.7734 107.933 14.1484C108.245 15.5234 108.401 17.0391 108.401 18.6953V31.8438C108.401 33.6406 108.261 35.25 107.979 36.6719C107.714 38.0938 107.245 39.3125 106.573 40.3281C105.917 41.3281 105.026 42.0938 103.901 42.625C102.776 43.1562 101.354 43.4219 99.6357 43.4219ZM99.6357 38.4062C100.339 38.4062 100.87 38.1953 101.229 37.7734C101.589 37.3359 101.831 36.7344 101.956 35.9688C102.081 35.2031 102.144 34.3203 102.144 33.3203V17.5938C102.144 16.5312 102.073 15.6172 101.933 14.8516C101.792 14.0859 101.542 13.4922 101.183 13.0703C100.823 12.6484 100.308 12.4375 99.6357 12.4375C98.9326 12.4375 98.3936 12.6484 98.0186 13.0703C97.6592 13.4922 97.4092 14.0859 97.2686 14.8516C97.1436 15.6172 97.0811 16.5312 97.0811 17.5938V33.3203C97.0811 34.3203 97.1436 35.2031 97.2686 35.9688C97.4092 36.7344 97.6592 37.3359 98.0186 37.7734C98.3936 38.1953 98.9326 38.4062 99.6357 38.4062Z" fill="#E0E0E0"/>
<path d="M122.37 43.4219C120.683 43.4219 119.269 43.1641 118.128 42.6484C116.987 42.1172 116.081 41.3594 115.409 40.375C114.753 39.375 114.276 38.1641 113.979 36.7422C113.698 35.3047 113.558 33.6719 113.558 31.8438V18.6953C113.558 16.4922 113.839 14.5469 114.401 12.8594C114.979 11.1562 115.917 9.82812 117.214 8.875C118.511 7.90625 120.229 7.42188 122.37 7.42188C123.995 7.42188 125.362 7.69531 126.472 8.24219C127.597 8.78906 128.495 9.57031 129.167 10.5859C129.854 11.5859 130.354 12.7734 130.667 14.1484C130.979 15.5234 131.136 17.0391 131.136 18.6953V31.8438C131.136 33.6406 130.995 35.25 130.714 36.6719C130.448 38.0938 129.979 39.3125 129.308 40.3281C128.651 41.3281 127.761 42.0938 126.636 42.625C125.511 43.1562 124.089 43.4219 122.37 43.4219ZM122.37 38.4062C123.073 38.4062 123.604 38.1953 123.964 37.7734C124.323 37.3359 124.565 36.7344 124.69 35.9688C124.815 35.2031 124.878 34.3203 124.878 33.3203V17.5938C124.878 16.5312 124.808 15.6172 124.667 14.8516C124.526 14.0859 124.276 13.4922 123.917 13.0703C123.558 12.6484 123.042 12.4375 122.37 12.4375C121.667 12.4375 121.128 12.6484 120.753 13.0703C120.394 13.4922 120.144 14.0859 120.003 14.8516C119.878 15.6172 119.815 16.5312 119.815 17.5938V33.3203C119.815 34.3203 119.878 35.2031 120.003 35.9688C120.144 36.7344 120.394 37.3359 120.753 37.7734C121.128 38.1953 121.667 38.4062 122.37 38.4062Z" fill="#E0E0E0"/>
<path d="M136.808 43V1.39844H142.995V43H136.808Z" fill="#E0E0E0"/>
<path d="M156.542 43.4453C153.714 43.4453 151.612 42.6406 150.237 41.0312C148.862 39.4219 148.175 36.7891 148.175 33.1328V30.8594H154.011V33.6953C154.011 35.2266 154.198 36.3906 154.573 37.1875C154.948 37.9844 155.558 38.3828 156.401 38.3828C157.214 38.3828 157.815 38.1094 158.206 37.5625C158.597 37.0156 158.792 36.0703 158.792 34.7266C158.792 33.9453 158.675 33.1875 158.44 32.4531C158.222 31.7188 157.87 31 157.386 30.2969C156.917 29.5781 156.308 28.8828 155.558 28.2109L152.394 25.3516C150.94 24.0391 149.854 22.625 149.136 21.1094C148.417 19.5781 148.058 17.8906 148.058 16.0469C148.058 13.0625 148.753 10.8828 150.144 9.50781C151.55 8.11719 153.628 7.42188 156.378 7.42188C158.159 7.42188 159.636 7.75781 160.808 8.42969C161.979 9.08594 162.854 10.1562 163.433 11.6406C164.011 13.125 164.3 15.1172 164.3 17.6172V19.5391H158.745V17.2188C158.745 15.6719 158.565 14.5 158.206 13.7031C157.862 12.9062 157.269 12.5078 156.425 12.5078C155.597 12.5078 154.987 12.7422 154.597 13.2109C154.206 13.6641 153.995 14.4688 153.964 15.625C153.948 16.25 154.026 16.8672 154.198 17.4766C154.37 18.0703 154.636 18.6562 154.995 19.2344C155.37 19.7969 155.854 20.3516 156.448 20.8984L159.776 23.9219C161.526 25.5 162.815 27.1484 163.644 28.8672C164.487 30.5859 164.909 32.4453 164.909 34.4453C164.909 37.3984 164.237 39.6406 162.894 41.1719C161.55 42.6875 159.433 43.4453 156.542 43.4453Z" fill="#E0E0E0"/>
</g>
<path d="M1.52637 43V1.75H10.7842C12.8779 1.75 14.5576 2.17188 15.8232 3.01562C17.0889 3.84375 18.0029 5.04688 18.5654 6.625C19.1436 8.20312 19.4326 10.1094 19.4326 12.3438L19.4561 30.9531C19.4561 33.6562 19.1592 35.9062 18.5654 37.7031C17.9873 39.4844 17.0498 40.8125 15.7529 41.6875C14.4561 42.5625 12.7295 43 10.5732 43H1.52637ZM7.80762 38.125H9.87012C10.6045 38.125 11.2139 37.9766 11.6982 37.6797C12.1982 37.3828 12.5654 36.8594 12.7998 36.1094C13.0498 35.3438 13.1748 34.2656 13.1748 32.875L13.1514 12.5078C13.1514 10.3984 12.8936 8.88281 12.3779 7.96094C11.8623 7.03906 10.9561 6.57812 9.65918 6.57812H7.80762V38.125Z" stroke="#EAEAEA" stroke-width="2" mask="url(#path-1-outside-1_127_2781)"/>
<path d="M33.3311 43.4219C31.5654 43.4219 30.1123 43.1406 28.9717 42.5781C27.8467 42.0156 26.9639 41.2031 26.3232 40.1406C25.6982 39.0781 25.2607 37.8047 25.0107 36.3203C24.7607 34.8203 24.6357 33.1484 24.6357 31.3047V18.2031C24.6357 16.5625 24.7998 15.0781 25.1279 13.75C25.4717 12.4219 25.9951 11.2891 26.6982 10.3516C27.417 9.41406 28.3467 8.69531 29.4873 8.19531C30.6279 7.67969 32.0029 7.42188 33.6123 7.42188C35.2529 7.42188 36.6201 7.67188 37.7139 8.17188C38.8076 8.67188 39.667 9.39844 40.292 10.3516C40.9326 11.3047 41.3857 12.4531 41.6514 13.7969C41.9326 15.125 42.0732 16.6328 42.0732 18.3203V25.8438H30.8936V32.7578C30.8936 34.4609 31.0264 35.8281 31.292 36.8594C31.5576 37.8906 32.2842 38.4062 33.4717 38.4062C34.2686 38.4062 34.8311 38.1641 35.1592 37.6797C35.5029 37.1953 35.7061 36.5312 35.7686 35.6875C35.8467 34.8281 35.8857 33.8516 35.8857 32.7578V29.6641H42.0264V31.5391C42.0264 33.4297 41.9092 35.1094 41.6748 36.5781C41.4561 38.0469 41.0342 39.2891 40.4092 40.3047C39.7998 41.3203 38.9248 42.0938 37.7842 42.625C36.6436 43.1562 35.1592 43.4219 33.3311 43.4219ZM30.8701 22.2109H35.8857V17.7109C35.8857 16.5391 35.8311 15.5547 35.7217 14.7578C35.6123 13.9453 35.3936 13.3359 35.0654 12.9297C34.7373 12.5234 34.2373 12.3203 33.5654 12.3203C32.7373 12.3203 32.1279 12.5625 31.7373 13.0469C31.3623 13.5312 31.1201 14.1953 31.0107 15.0391C30.917 15.8672 30.8701 16.8125 30.8701 17.875V22.2109Z" stroke="#EAEAEA" stroke-width="2" mask="url(#path-1-outside-1_127_2781)"/>
<path d="M50.417 43L45.3311 7.84375H51.1904L53.4639 26.5469L54.2373 34.9609H54.7061L55.3623 26.5234L57.3076 7.84375H63.1201L58.0342 43H50.417Z" stroke="#EAEAEA" stroke-width="2" mask="url(#path-1-outside-1_127_2781)"/>
<path d="M78.0732 43V7.1875H73.2451V1.75H88.9717V7.1875H84.3311V43H78.0732Z" stroke="#EAEAEA" stroke-width="2" mask="url(#path-1-outside-1_127_2781)"/>
<path d="M99.6357 43.4219C97.9482 43.4219 96.5342 43.1641 95.3936 42.6484C94.2529 42.1172 93.3467 41.3594 92.6748 40.375C92.0186 39.375 91.542 38.1641 91.2451 36.7422C90.9639 35.3047 90.8232 33.6719 90.8232 31.8438V18.6953C90.8232 16.4922 91.1045 14.5469 91.667 12.8594C92.2451 11.1562 93.1826 9.82812 94.4795 8.875C95.7764 7.90625 97.4951 7.42188 99.6357 7.42188C101.261 7.42188 102.628 7.69531 103.737 8.24219C104.862 8.78906 105.761 9.57031 106.433 10.5859C107.12 11.5859 107.62 12.7734 107.933 14.1484C108.245 15.5234 108.401 17.0391 108.401 18.6953V31.8438C108.401 33.6406 108.261 35.25 107.979 36.6719C107.714 38.0938 107.245 39.3125 106.573 40.3281C105.917 41.3281 105.026 42.0938 103.901 42.625C102.776 43.1562 101.354 43.4219 99.6357 43.4219ZM99.6357 38.4062C100.339 38.4062 100.87 38.1953 101.229 37.7734C101.589 37.3359 101.831 36.7344 101.956 35.9688C102.081 35.2031 102.144 34.3203 102.144 33.3203V17.5938C102.144 16.5312 102.073 15.6172 101.933 14.8516C101.792 14.0859 101.542 13.4922 101.183 13.0703C100.823 12.6484 100.308 12.4375 99.6357 12.4375C98.9326 12.4375 98.3936 12.6484 98.0186 13.0703C97.6592 13.4922 97.4092 14.0859 97.2686 14.8516C97.1436 15.6172 97.0811 16.5312 97.0811 17.5938V33.3203C97.0811 34.3203 97.1436 35.2031 97.2686 35.9688C97.4092 36.7344 97.6592 37.3359 98.0186 37.7734C98.3936 38.1953 98.9326 38.4062 99.6357 38.4062Z" stroke="#EAEAEA" stroke-width="2" mask="url(#path-1-outside-1_127_2781)"/>
<path d="M122.37 43.4219C120.683 43.4219 119.269 43.1641 118.128 42.6484C116.987 42.1172 116.081 41.3594 115.409 40.375C114.753 39.375 114.276 38.1641 113.979 36.7422C113.698 35.3047 113.558 33.6719 113.558 31.8438V18.6953C113.558 16.4922 113.839 14.5469 114.401 12.8594C114.979 11.1562 115.917 9.82812 117.214 8.875C118.511 7.90625 120.229 7.42188 122.37 7.42188C123.995 7.42188 125.362 7.69531 126.472 8.24219C127.597 8.78906 128.495 9.57031 129.167 10.5859C129.854 11.5859 130.354 12.7734 130.667 14.1484C130.979 15.5234 131.136 17.0391 131.136 18.6953V31.8438C131.136 33.6406 130.995 35.25 130.714 36.6719C130.448 38.0938 129.979 39.3125 129.308 40.3281C128.651 41.3281 127.761 42.0938 126.636 42.625C125.511 43.1562 124.089 43.4219 122.37 43.4219ZM122.37 38.4062C123.073 38.4062 123.604 38.1953 123.964 37.7734C124.323 37.3359 124.565 36.7344 124.69 35.9688C124.815 35.2031 124.878 34.3203 124.878 33.3203V17.5938C124.878 16.5312 124.808 15.6172 124.667 14.8516C124.526 14.0859 124.276 13.4922 123.917 13.0703C123.558 12.6484 123.042 12.4375 122.37 12.4375C121.667 12.4375 121.128 12.6484 120.753 13.0703C120.394 13.4922 120.144 14.0859 120.003 14.8516C119.878 15.6172 119.815 16.5312 119.815 17.5938V33.3203C119.815 34.3203 119.878 35.2031 120.003 35.9688C120.144 36.7344 120.394 37.3359 120.753 37.7734C121.128 38.1953 121.667 38.4062 122.37 38.4062Z" stroke="#EAEAEA" stroke-width="2" mask="url(#path-1-outside-1_127_2781)"/>
<path d="M136.808 43V1.39844H142.995V43H136.808Z" stroke="#EAEAEA" stroke-width="2" mask="url(#path-1-outside-1_127_2781)"/>
<path d="M156.542 43.4453C153.714 43.4453 151.612 42.6406 150.237 41.0312C148.862 39.4219 148.175 36.7891 148.175 33.1328V30.8594H154.011V33.6953C154.011 35.2266 154.198 36.3906 154.573 37.1875C154.948 37.9844 155.558 38.3828 156.401 38.3828C157.214 38.3828 157.815 38.1094 158.206 37.5625C158.597 37.0156 158.792 36.0703 158.792 34.7266C158.792 33.9453 158.675 33.1875 158.44 32.4531C158.222 31.7188 157.87 31 157.386 30.2969C156.917 29.5781 156.308 28.8828 155.558 28.2109L152.394 25.3516C150.94 24.0391 149.854 22.625 149.136 21.1094C148.417 19.5781 148.058 17.8906 148.058 16.0469C148.058 13.0625 148.753 10.8828 150.144 9.50781C151.55 8.11719 153.628 7.42188 156.378 7.42188C158.159 7.42188 159.636 7.75781 160.808 8.42969C161.979 9.08594 162.854 10.1562 163.433 11.6406C164.011 13.125 164.3 15.1172 164.3 17.6172V19.5391H158.745V17.2188C158.745 15.6719 158.565 14.5 158.206 13.7031C157.862 12.9062 157.269 12.5078 156.425 12.5078C155.597 12.5078 154.987 12.7422 154.597 13.2109C154.206 13.6641 153.995 14.4688 153.964 15.625C153.948 16.25 154.026 16.8672 154.198 17.4766C154.37 18.0703 154.636 18.6562 154.995 19.2344C155.37 19.7969 155.854 20.3516 156.448 20.8984L159.776 23.9219C161.526 25.5 162.815 27.1484 163.644 28.8672C164.487 30.5859 164.909 32.4453 164.909 34.4453C164.909 37.3984 164.237 39.6406 162.894 41.1719C161.55 42.6875 159.433 43.4453 156.542 43.4453Z" stroke="#EAEAEA" stroke-width="2" mask="url(#path-1-outside-1_127_2781)"/>
<defs>
<filter id="filter0_ii_127_2781" x="-0.473633" y="-0.601562" width="169.383" height="48.0469" filterUnits="userSpaceOnUse" color-interpolation-filters="sRGB">
<feFlood flood-opacity="0" result="BackgroundImageFix"/>
<feBlend mode="normal" in="SourceGraphic" in2="BackgroundImageFix" result="shape"/>
<feColorMatrix in="SourceAlpha" type="matrix" values="0 0 0 0 0 0 0 0 0 0 0 0 0 0 0 0 0 0 127 0" result="hardAlpha"/>
<feOffset dx="-1" dy="-1"/>
<feGaussianBlur stdDeviation="1.5"/>
<feComposite in2="hardAlpha" operator="arithmetic" k2="-1" k3="1"/>
<feColorMatrix type="matrix" values="0 0 0 0 0.984314 0 0 0 0 0.984314 0 0 0 0 0.984314 0 0 0 1 0"/>
<feBlend mode="normal" in2="shape" result="effect1_innerShadow_127_2781"/>
<feColorMatrix in="SourceAlpha" type="matrix" values="0 0 0 0 0 0 0 0 0 0 0 0 0 0 0 0 0 0 127 0" result="hardAlpha"/>
<feOffset dx="3" dy="3"/>
<feGaussianBlur stdDeviation="4.5"/>
<feComposite in2="hardAlpha" operator="arithmetic" k2="-1" k3="1"/>
<feColorMatrix type="matrix" values="0 0 0 0 0.772549 0 0 0 0 0.772549 0 0 0 0 0.772549 0 0 0 1 0"/>
<feBlend mode="normal" in2="effect1_innerShadow_127_2781" result="effect2_innerShadow_127_2781"/>
</filter>
</defs>
</svg>
