<svg width="71" height="84" viewBox="0 0 71 84" fill="none" xmlns="http://www.w3.org/2000/svg">
<g id="font_icon" filter="url(#filter0_ii_64_2150)">
<path d="M11 0C5.211 0 0.5 4.711 0.5 10.5C0.5 15.057 3.4365 18.907 7.5 20.356V80.5805C7.5 82.4705 9.0295 84 10.9195 84H11.0805C12.9705 84 14.5 82.4705 14.5 80.5805V63.805C15.6725 62.44 18.483 59.668 26.5575 59.668C30.8415 59.668 34.345 61.1625 38.062 62.7445C41.6915 64.2915 45.447 65.8875 49.808 65.8875C58.0645 65.8875 63.6715 61.5475 66.069 59.6925L66.6045 59.29C68.5295 57.89 70.5 55.986 70.5 52.5V23.366C70.5 20.188 67.777 17.5 64.5465 17.5C62.814 17.5 61.54 18.5045 59.7935 19.894C57.4765 21.728 53.9835 24.5 49.808 24.5C46.9555 24.5 44.173 23.17 40.9425 21.623C36.914 19.691 32.343 17.5 26.5505 17.5C22.578 17.5 19.477 18.158 16.9955 19.0995C18.3838 18.1353 19.5185 16.8498 20.3028 15.3524C21.0872 13.8551 21.4979 12.1903 21.5 10.5C21.5 4.711 16.789 0 11 0ZM11 7C11.9012 7.04031 12.7521 7.42667 13.3755 8.07864C13.999 8.7306 14.3469 9.59792 14.3469 10.5C14.3469 11.4021 13.999 12.2694 13.3755 12.9214C12.7521 13.5733 11.9012 13.9597 11 14C10.0988 13.9597 9.24792 13.5733 8.62446 12.9214C8.00101 12.2694 7.65306 11.4021 7.65306 10.5C7.65306 9.59792 8.00101 8.7306 8.62446 8.07864C9.24792 7.42667 10.0988 7.04031 11 7ZM26.5505 24.5C30.7575 24.5 34.233 26.166 37.9185 27.93C41.576 29.687 45.363 31.5 49.808 31.5C55.9505 31.5 60.553 28.189 63.493 25.886V52.731C63.4895 52.745 63.3355 53.011 62.4815 53.627L61.7815 54.1625C59.8005 55.6955 55.6705 58.8875 49.808 58.8875C46.875 58.8875 44.0645 57.6905 40.806 56.2975C36.8055 54.593 32.266 52.6575 26.5505 52.6575C21.1185 52.6575 17.251 53.753 14.5 55.125V29.2635C15.7075 27.6675 18.462 24.5 26.5505 24.5Z" fill="#E0E0E0"/>
</g>
<defs>
<filter id="filter0_ii_64_2150" x="-0.5" y="-1" width="72" height="86" filterUnits="userSpaceOnUse" color-interpolation-filters="sRGB">
<feFlood flood-opacity="0" result="BackgroundImageFix"/>
<feBlend mode="normal" in="SourceGraphic" in2="BackgroundImageFix" result="shape"/>
<feColorMatrix in="SourceAlpha" type="matrix" values="0 0 0 0 0 0 0 0 0 0 0 0 0 0 0 0 0 0 127 0" result="hardAlpha"/>
<feOffset dx="-1" dy="-1"/>
<feGaussianBlur stdDeviation="1.5"/>
<feComposite in2="hardAlpha" operator="arithmetic" k2="-1" k3="1"/>
<feColorMatrix type="matrix" values="0 0 0 0 0.984314 0 0 0 0 0.984314 0 0 0 0 0.984314 0 0 0 1 0"/>
<feBlend mode="normal" in2="shape" result="effect1_innerShadow_64_2150"/>
<feColorMatrix in="SourceAlpha" type="matrix" values="0 0 0 0 0 0 0 0 0 0 0 0 0 0 0 0 0 0 127 0" result="hardAlpha"/>
<feOffset dx="1" dy="1"/>
<feGaussianBlur stdDeviation="1.5"/>
<feComposite in2="hardAlpha" operator="arithmetic" k2="-1" k3="1"/>
<feColorMatrix type="matrix" values="0 0 0 0 0.772549 0 0 0 0 0.772549 0 0 0 0 0.772549 0 0 0 1 0"/>
<feBlend mode="normal" in2="effect1_innerShadow_64_2150" result="effect2_innerShadow_64_2150"/>
</filter>
</defs>
</svg>
