<svg width="455" height="51" viewBox="0 0 455 51" fill="none" xmlns="http://www.w3.org/2000/svg">
<mask id="path-1-outside-1_127_2786" maskUnits="userSpaceOnUse" x="0.198242" y="0.257812" width="455" height="51" fill="black">
<rect fill="white" x="0.198242" y="0.257812" width="455" height="51"/>
<path d="M1.19824 43V1.75H15.3545V7.21094H7.47949V18.1797H14.792V23.6641H7.47949V43H1.19824Z"/>
<path d="M27.5889 43.4219C25.9014 43.4219 24.4873 43.1641 23.3467 42.6484C22.2061 42.1172 21.2998 41.3594 20.6279 40.375C19.9717 39.375 19.4951 38.1641 19.1982 36.7422C18.917 35.3047 18.7764 33.6719 18.7764 31.8438V18.6953C18.7764 16.4922 19.0576 14.5469 19.6201 12.8594C20.1982 11.1562 21.1357 9.82812 22.4326 8.875C23.7295 7.90625 25.4482 7.42188 27.5889 7.42188C29.2139 7.42188 30.5811 7.69531 31.6904 8.24219C32.8154 8.78906 33.7139 9.57031 34.3857 10.5859C35.0732 11.5859 35.5732 12.7734 35.8857 14.1484C36.1982 15.5234 36.3545 17.0391 36.3545 18.6953V31.8438C36.3545 33.6406 36.2139 35.25 35.9326 36.6719C35.667 38.0938 35.1982 39.3125 34.5264 40.3281C33.8701 41.3281 32.9795 42.0938 31.8545 42.625C30.7295 43.1562 29.3076 43.4219 27.5889 43.4219ZM27.5889 38.4062C28.292 38.4062 28.8232 38.1953 29.1826 37.7734C29.542 37.3359 29.7842 36.7344 29.9092 35.9688C30.0342 35.2031 30.0967 34.3203 30.0967 33.3203V17.5938C30.0967 16.5312 30.0264 15.6172 29.8857 14.8516C29.7451 14.0859 29.4951 13.4922 29.1357 13.0703C28.7764 12.6484 28.2607 12.4375 27.5889 12.4375C26.8857 12.4375 26.3467 12.6484 25.9717 13.0703C25.6123 13.4922 25.3623 14.0859 25.2217 14.8516C25.0967 15.6172 25.0342 16.5312 25.0342 17.5938V33.3203C25.0342 34.3203 25.0967 35.2031 25.2217 35.9688C25.3623 36.7344 25.6123 37.3359 25.9717 37.7734C26.3467 38.1953 26.8857 38.4062 27.5889 38.4062Z"/>
<path d="M42.0029 43V7.84375H48.2139V11.875C48.5264 10.6719 49.1826 9.63281 50.1826 8.75781C51.1826 7.86719 52.4092 7.42188 53.8623 7.42188C55.8936 7.42188 57.417 8.10156 58.4326 9.46094C59.4482 10.8047 59.9561 12.7578 59.9561 15.3203V43H53.7451V15.6953C53.7451 14.6797 53.5107 13.8828 53.042 13.3047C52.5889 12.7266 51.9639 12.4375 51.167 12.4375C50.5264 12.4375 49.9795 12.6172 49.5264 12.9766C49.0889 13.3203 48.7607 13.8047 48.542 14.4297C48.3232 15.0391 48.2139 15.7578 48.2139 16.5859V43H42.0029Z"/>
<path d="M72.2607 43.2344C70.7607 43.2344 69.6123 43.0469 68.8154 42.6719C68.0186 42.2812 67.4717 41.6719 67.1748 40.8438C66.8779 40.0156 66.7295 38.9453 66.7295 37.6328V13.0703H63.8701V8.57031H66.7295V1.75H72.9404V8.57031H76.3623V13.0703H72.9404V36.5547C72.9404 37.1016 73.0264 37.5156 73.1982 37.7969C73.3701 38.0781 73.7061 38.2656 74.2061 38.3594C74.7217 38.4531 75.4795 38.5 76.4795 38.5V43.2344H72.2607Z"/>
<path d="M88.1514 43.4453C85.3232 43.4453 83.2217 42.6406 81.8467 41.0312C80.4717 39.4219 79.7842 36.7891 79.7842 33.1328V30.8594H85.6201V33.6953C85.6201 35.2266 85.8076 36.3906 86.1826 37.1875C86.5576 37.9844 87.167 38.3828 88.0107 38.3828C88.8232 38.3828 89.4248 38.1094 89.8154 37.5625C90.2061 37.0156 90.4014 36.0703 90.4014 34.7266C90.4014 33.9453 90.2842 33.1875 90.0498 32.4531C89.8311 31.7188 89.4795 31 88.9951 30.2969C88.5264 29.5781 87.917 28.8828 87.167 28.2109L84.0029 25.3516C82.5498 24.0391 81.4639 22.625 80.7451 21.1094C80.0264 19.5781 79.667 17.8906 79.667 16.0469C79.667 13.0625 80.3623 10.8828 81.7529 9.50781C83.1592 8.11719 85.2373 7.42188 87.9873 7.42188C89.7686 7.42188 91.2451 7.75781 92.417 8.42969C93.5889 9.08594 94.4639 10.1562 95.042 11.6406C95.6201 13.125 95.9092 15.1172 95.9092 17.6172V19.5391H90.3545V17.2188C90.3545 15.6719 90.1748 14.5 89.8154 13.7031C89.4717 12.9062 88.8779 12.5078 88.0342 12.5078C87.2061 12.5078 86.5967 12.7422 86.2061 13.2109C85.8154 13.6641 85.6045 14.4688 85.5732 15.625C85.5576 16.25 85.6357 16.8672 85.8076 17.4766C85.9795 18.0703 86.2451 18.6562 86.6045 19.2344C86.9795 19.7969 87.4639 20.3516 88.0576 20.8984L91.3857 23.9219C93.1357 25.5 94.4248 27.1484 95.2529 28.8672C96.0967 30.5859 96.5186 32.4453 96.5186 34.4453C96.5186 37.3984 95.8467 39.6406 94.5029 41.1719C93.1592 42.6875 91.042 43.4453 88.1514 43.4453Z"/>
<path d="M115.854 43.4688C113.526 43.4688 111.69 42.6719 110.347 41.0781C109.003 39.4688 108.331 37.1562 108.331 34.1406C108.331 32.5312 108.644 30.9922 109.269 29.5234C109.894 28.0391 110.698 26.6094 111.683 25.2344C112.683 23.8438 113.737 22.5 114.847 21.2031C113.894 18.7188 113.097 16.4297 112.456 14.3359C111.815 12.2266 111.495 10.6016 111.495 9.46094C111.495 6.80469 112.183 4.77344 113.558 3.36719C114.948 1.96094 116.784 1.25781 119.065 1.25781C120.722 1.25781 122.097 1.57812 123.19 2.21875C124.284 2.84375 125.104 3.76562 125.651 4.98438C126.198 6.1875 126.472 7.65625 126.472 9.39062C126.472 10.8438 126.214 12.2578 125.698 13.6328C125.183 14.9922 124.511 16.3203 123.683 17.6172C122.854 18.8984 121.956 20.1562 120.987 21.3906L124.011 28.9141C124.62 27.8984 125.284 26.8516 126.003 25.7734C126.737 24.6797 127.558 23.5938 128.464 22.5156L131.019 26.8281C130.05 27.9062 129.19 29.1016 128.44 30.4141C127.706 31.7266 126.995 33.0391 126.308 34.3516L130.011 43H124.198L122.862 39.9531C122.284 40.6406 121.651 41.25 120.964 41.7812C120.292 42.3125 119.534 42.7266 118.69 43.0234C117.847 43.3203 116.901 43.4688 115.854 43.4688ZM116.909 38.1016C117.378 38.1016 117.815 37.9688 118.222 37.7031C118.628 37.4375 119.026 37.0703 119.417 36.6016C119.808 36.1172 120.206 35.5469 120.612 34.8906L116.979 26.4531C116.37 27.2656 115.815 28.0703 115.315 28.8672C114.831 29.6641 114.44 30.4531 114.144 31.2344C113.847 32.0156 113.683 32.7891 113.651 33.5547C113.604 35.0391 113.847 36.1719 114.378 36.9531C114.925 37.7188 115.769 38.1016 116.909 38.1016ZM119.042 16.1875C119.948 15.0156 120.69 13.8594 121.269 12.7188C121.847 11.5781 122.136 10.4375 122.136 9.29688C122.136 7.95312 121.972 6.98438 121.644 6.39062C121.315 5.79688 120.69 5.5 119.769 5.5C119.222 5.5 118.776 5.60938 118.433 5.82812C118.089 6.04688 117.823 6.34375 117.636 6.71875C117.464 7.07812 117.347 7.47656 117.284 7.91406C117.222 8.35156 117.19 8.78906 117.19 9.22656C117.19 9.85156 117.354 10.7734 117.683 11.9922C118.026 13.1953 118.479 14.5938 119.042 16.1875Z"/>
<path d="M145.151 43V7.1875H140.323V1.75H156.05V7.1875H151.409V43H145.151Z"/>
<path d="M158.581 49.2109V44.9219H160.62C161.308 44.9219 161.886 44.8594 162.354 44.7344C162.823 44.625 163.089 44.375 163.151 43.9844C163.261 43.7812 163.3 43.4219 163.269 42.9062C163.237 42.375 163.19 41.875 163.128 41.4062L157.503 7.84375H163.409L165.659 25.8203L166.597 35.2891H167.112L167.956 25.8203L170.019 7.84375H175.901L169.808 44.5C169.636 45.6094 169.394 46.5078 169.081 47.1953C168.784 47.8984 168.331 48.4062 167.722 48.7188C167.112 49.0469 166.269 49.2109 165.19 49.2109H158.581Z"/>
<path d="M179.745 49.6797V7.84375H185.956V11.0078C186.409 9.85156 187.12 8.97656 188.089 8.38281C189.058 7.78906 190.034 7.49219 191.019 7.49219C192.815 7.49219 194.175 7.97656 195.097 8.94531C196.019 9.89844 196.644 11.2031 196.972 12.8594C197.3 14.5156 197.464 16.375 197.464 18.4375V31.2578C197.464 33.5078 197.308 35.5547 196.995 37.3984C196.683 39.2422 196.019 40.7109 195.003 41.8047C194.003 42.8828 192.472 43.4219 190.409 43.4219C189.456 43.4219 188.589 43.1641 187.808 42.6484C187.026 42.1328 186.409 41.5391 185.956 40.8672V49.6797H179.745ZM188.698 38.3828C189.745 38.3828 190.425 37.875 190.737 36.8594C191.05 35.8281 191.206 34.3594 191.206 32.4531V17.875C191.206 16.8594 191.151 15.9453 191.042 15.1328C190.948 14.3047 190.729 13.6484 190.386 13.1641C190.042 12.6797 189.495 12.4375 188.745 12.4375C188.167 12.4375 187.667 12.5859 187.245 12.8828C186.839 13.1797 186.519 13.7188 186.284 14.5C186.065 15.2812 185.956 16.3984 185.956 17.8516V32.7109C185.956 34.5078 186.128 35.9062 186.472 36.9062C186.815 37.8906 187.558 38.3828 188.698 38.3828Z"/>
<path d="M211.433 43.4219C209.745 43.4219 208.331 43.1641 207.19 42.6484C206.05 42.1172 205.144 41.3594 204.472 40.375C203.815 39.375 203.339 38.1641 203.042 36.7422C202.761 35.3047 202.62 33.6719 202.62 31.8438V18.6953C202.62 16.4922 202.901 14.5469 203.464 12.8594C204.042 11.1562 204.979 9.82812 206.276 8.875C207.573 7.90625 209.292 7.42188 211.433 7.42188C213.058 7.42188 214.425 7.69531 215.534 8.24219C216.659 8.78906 217.558 9.57031 218.229 10.5859C218.917 11.5859 219.417 12.7734 219.729 14.1484C220.042 15.5234 220.198 17.0391 220.198 18.6953V31.8438C220.198 33.6406 220.058 35.25 219.776 36.6719C219.511 38.0938 219.042 39.3125 218.37 40.3281C217.714 41.3281 216.823 42.0938 215.698 42.625C214.573 43.1562 213.151 43.4219 211.433 43.4219ZM211.433 38.4062C212.136 38.4062 212.667 38.1953 213.026 37.7734C213.386 37.3359 213.628 36.7344 213.753 35.9688C213.878 35.2031 213.94 34.3203 213.94 33.3203V17.5938C213.94 16.5312 213.87 15.6172 213.729 14.8516C213.589 14.0859 213.339 13.4922 212.979 13.0703C212.62 12.6484 212.104 12.4375 211.433 12.4375C210.729 12.4375 210.19 12.6484 209.815 13.0703C209.456 13.4922 209.206 14.0859 209.065 14.8516C208.94 15.6172 208.878 16.5312 208.878 17.5938V33.3203C208.878 34.3203 208.94 35.2031 209.065 35.9688C209.206 36.7344 209.456 37.3359 209.815 37.7734C210.19 38.1953 210.729 38.4062 211.433 38.4062Z"/>
<path d="M233.769 48.2734C231.831 48.3047 230.183 48.1172 228.823 47.7109C227.464 47.3203 226.229 46.6719 225.12 45.7656L227.3 41.8516C228.128 42.3828 229.026 42.8125 229.995 43.1406C230.979 43.4844 232.042 43.6484 233.183 43.6328C234.37 43.6172 235.276 43.2031 235.901 42.3906C236.526 41.5781 236.839 40.4922 236.839 39.1328V36.3438C236.433 37.5156 235.808 38.3203 234.964 38.7578C234.136 39.1953 233.128 39.4141 231.94 39.4141C230.284 39.4141 228.979 38.9766 228.026 38.1016C227.089 37.2266 226.425 36.0312 226.034 34.5156C225.644 33 225.448 31.2812 225.448 29.3594V18.0391C225.448 15.9922 225.651 14.1719 226.058 12.5781C226.464 10.9688 227.159 9.70312 228.144 8.78125C229.128 7.85938 230.479 7.40625 232.198 7.42188C233.401 7.42188 234.394 7.72656 235.175 8.33594C235.972 8.94531 236.526 9.82031 236.839 10.9609V7.84375H243.05V38.6641C243.05 40.0547 242.894 41.3359 242.581 42.5078C242.269 43.6641 241.753 44.6641 241.034 45.5078C240.315 46.3672 239.362 47.0312 238.175 47.5C236.987 47.9844 235.519 48.2422 233.769 48.2734ZM234.401 34.7031C234.964 34.7031 235.425 34.5391 235.784 34.2109C236.144 33.8672 236.409 33.2891 236.581 32.4766C236.753 31.6484 236.839 30.5 236.839 29.0312V17.5234C236.839 15.9766 236.651 14.7422 236.276 13.8203C235.901 12.8984 235.222 12.4375 234.237 12.4375C233.487 12.4375 232.933 12.6562 232.573 13.0938C232.214 13.5312 231.979 14.1328 231.87 14.8984C231.761 15.6484 231.706 16.5156 231.706 17.5V29.0781C231.706 30.8125 231.87 32.1875 232.198 33.2031C232.526 34.2031 233.261 34.7031 234.401 34.7031Z"/>
<path d="M249.073 43V7.84375H255.331V11.7578C255.737 10.3984 256.44 9.33594 257.44 8.57031C258.456 7.80469 259.745 7.42188 261.308 7.42188C261.339 7.42188 261.354 7.6875 261.354 8.21875C261.37 8.75 261.378 9.35938 261.378 10.0469C261.378 10.7344 261.378 11.3438 261.378 11.875C261.378 12.4062 261.378 12.6719 261.378 12.6719C260.659 12.6719 259.878 12.7578 259.034 12.9297C258.206 13.1016 257.448 13.3672 256.761 13.7266C256.089 14.0703 255.612 14.5312 255.331 15.1094V43H249.073Z"/>
<path d="M271.151 43.3516C268.745 43.3516 267.073 42.4766 266.136 40.7266C265.214 38.9766 264.737 36.6562 264.706 33.7656V31.5156C264.706 29.6406 264.972 28.1172 265.503 26.9453C266.05 25.7734 266.823 24.8203 267.823 24.0859C268.823 23.3516 270.019 22.7109 271.409 22.1641C272.8 21.6172 274.347 21.0312 276.05 20.4062V17.3359C276.05 16.1484 276.003 15.2031 275.909 14.5C275.815 13.7812 275.604 13.2578 275.276 12.9297C274.948 12.6016 274.44 12.4375 273.753 12.4375C273.081 12.4375 272.565 12.6094 272.206 12.9531C271.862 13.2812 271.628 13.7969 271.503 14.5C271.378 15.1875 271.315 16.0703 271.315 17.1484V18.7188H265.175V17.6641C265.175 16.0547 265.308 14.6172 265.573 13.3516C265.854 12.0859 266.323 11.0156 266.979 10.1406C267.636 9.25 268.526 8.57812 269.651 8.125C270.792 7.65625 272.222 7.42188 273.94 7.42188C275.456 7.42188 276.753 7.64062 277.831 8.07812C278.909 8.5 279.784 9.14062 280.456 10C281.128 10.8438 281.62 11.9062 281.933 13.1875C282.245 14.4688 282.401 15.9609 282.401 17.6641V43H276.144V39.5078C275.956 40.1797 275.636 40.8125 275.183 41.4062C274.729 41.9844 274.159 42.4531 273.472 42.8125C272.8 43.1719 272.026 43.3516 271.151 43.3516ZM273.308 38.5703C274.089 38.5703 274.714 38.2891 275.183 37.7266C275.651 37.1641 275.94 36.5938 276.05 36.0156V23.9219C275.112 24.3438 274.323 24.7422 273.683 25.1172C273.042 25.4766 272.526 25.875 272.136 26.3125C271.745 26.75 271.464 27.2656 271.292 27.8594C271.12 28.4531 271.034 29.1797 271.034 30.0391V33.9766C271.034 35.5859 271.198 36.7578 271.526 37.4922C271.87 38.2109 272.464 38.5703 273.308 38.5703Z"/>
<path d="M288.167 49.6797V7.84375H294.378V11.0078C294.831 9.85156 295.542 8.97656 296.511 8.38281C297.479 7.78906 298.456 7.49219 299.44 7.49219C301.237 7.49219 302.597 7.97656 303.519 8.94531C304.44 9.89844 305.065 11.2031 305.394 12.8594C305.722 14.5156 305.886 16.375 305.886 18.4375V31.2578C305.886 33.5078 305.729 35.5547 305.417 37.3984C305.104 39.2422 304.44 40.7109 303.425 41.8047C302.425 42.8828 300.894 43.4219 298.831 43.4219C297.878 43.4219 297.011 43.1641 296.229 42.6484C295.448 42.1328 294.831 41.5391 294.378 40.8672V49.6797H288.167ZM297.12 38.3828C298.167 38.3828 298.847 37.875 299.159 36.8594C299.472 35.8281 299.628 34.3594 299.628 32.4531V17.875C299.628 16.8594 299.573 15.9453 299.464 15.1328C299.37 14.3047 299.151 13.6484 298.808 13.1641C298.464 12.6797 297.917 12.4375 297.167 12.4375C296.589 12.4375 296.089 12.5859 295.667 12.8828C295.261 13.1797 294.94 13.7188 294.706 14.5C294.487 15.2812 294.378 16.3984 294.378 17.8516V32.7109C294.378 34.5078 294.55 35.9062 294.894 36.9062C295.237 37.8906 295.979 38.3828 297.12 38.3828Z"/>
<path d="M311.628 43V1.39844H317.839V11.875C318.151 10.6719 318.776 9.63281 319.714 8.75781C320.667 7.86719 321.862 7.42188 323.3 7.42188C325.347 7.42188 326.886 8.10156 327.917 9.46094C328.964 10.8047 329.487 12.7578 329.487 15.3203V43H323.3V15.9062C323.3 14.7812 323.081 13.9375 322.644 13.375C322.222 12.7969 321.612 12.5078 320.815 12.5078C320.175 12.5078 319.628 12.6875 319.175 13.0469C318.737 13.4062 318.401 13.9141 318.167 14.5703C317.948 15.2266 317.839 15.9922 317.839 16.8672V43H311.628Z"/>
<path d="M334.456 49.2109V44.9219H336.495C337.183 44.9219 337.761 44.8594 338.229 44.7344C338.698 44.625 338.964 44.375 339.026 43.9844C339.136 43.7812 339.175 43.4219 339.144 42.9062C339.112 42.375 339.065 41.875 339.003 41.4062L333.378 7.84375H339.284L341.534 25.8203L342.472 35.2891H342.987L343.831 25.8203L345.894 7.84375H351.776L345.683 44.5C345.511 45.6094 345.269 46.5078 344.956 47.1953C344.659 47.8984 344.206 48.4062 343.597 48.7188C342.987 49.0469 342.144 49.2109 341.065 49.2109H334.456Z"/>
<path d="M366.401 43V7.1875H361.573V1.75H377.3V7.1875H372.659V43H366.401Z"/>
<path d="M387.964 43.4219C386.276 43.4219 384.862 43.1641 383.722 42.6484C382.581 42.1172 381.675 41.3594 381.003 40.375C380.347 39.375 379.87 38.1641 379.573 36.7422C379.292 35.3047 379.151 33.6719 379.151 31.8438V18.6953C379.151 16.4922 379.433 14.5469 379.995 12.8594C380.573 11.1562 381.511 9.82812 382.808 8.875C384.104 7.90625 385.823 7.42188 387.964 7.42188C389.589 7.42188 390.956 7.69531 392.065 8.24219C393.19 8.78906 394.089 9.57031 394.761 10.5859C395.448 11.5859 395.948 12.7734 396.261 14.1484C396.573 15.5234 396.729 17.0391 396.729 18.6953V31.8438C396.729 33.6406 396.589 35.25 396.308 36.6719C396.042 38.0938 395.573 39.3125 394.901 40.3281C394.245 41.3281 393.354 42.0938 392.229 42.625C391.104 43.1562 389.683 43.4219 387.964 43.4219ZM387.964 38.4062C388.667 38.4062 389.198 38.1953 389.558 37.7734C389.917 37.3359 390.159 36.7344 390.284 35.9688C390.409 35.2031 390.472 34.3203 390.472 33.3203V17.5938C390.472 16.5312 390.401 15.6172 390.261 14.8516C390.12 14.0859 389.87 13.4922 389.511 13.0703C389.151 12.6484 388.636 12.4375 387.964 12.4375C387.261 12.4375 386.722 12.6484 386.347 13.0703C385.987 13.4922 385.737 14.0859 385.597 14.8516C385.472 15.6172 385.409 16.5312 385.409 17.5938V33.3203C385.409 34.3203 385.472 35.2031 385.597 35.9688C385.737 36.7344 385.987 37.3359 386.347 37.7734C386.722 38.1953 387.261 38.4062 387.964 38.4062Z"/>
<path d="M410.698 43.4219C409.011 43.4219 407.597 43.1641 406.456 42.6484C405.315 42.1172 404.409 41.3594 403.737 40.375C403.081 39.375 402.604 38.1641 402.308 36.7422C402.026 35.3047 401.886 33.6719 401.886 31.8438V18.6953C401.886 16.4922 402.167 14.5469 402.729 12.8594C403.308 11.1562 404.245 9.82812 405.542 8.875C406.839 7.90625 408.558 7.42188 410.698 7.42188C412.323 7.42188 413.69 7.69531 414.8 8.24219C415.925 8.78906 416.823 9.57031 417.495 10.5859C418.183 11.5859 418.683 12.7734 418.995 14.1484C419.308 15.5234 419.464 17.0391 419.464 18.6953V31.8438C419.464 33.6406 419.323 35.25 419.042 36.6719C418.776 38.0938 418.308 39.3125 417.636 40.3281C416.979 41.3281 416.089 42.0938 414.964 42.625C413.839 43.1562 412.417 43.4219 410.698 43.4219ZM410.698 38.4062C411.401 38.4062 411.933 38.1953 412.292 37.7734C412.651 37.3359 412.894 36.7344 413.019 35.9688C413.144 35.2031 413.206 34.3203 413.206 33.3203V17.5938C413.206 16.5312 413.136 15.6172 412.995 14.8516C412.854 14.0859 412.604 13.4922 412.245 13.0703C411.886 12.6484 411.37 12.4375 410.698 12.4375C409.995 12.4375 409.456 12.6484 409.081 13.0703C408.722 13.4922 408.472 14.0859 408.331 14.8516C408.206 15.6172 408.144 16.5312 408.144 17.5938V33.3203C408.144 34.3203 408.206 35.2031 408.331 35.9688C408.472 36.7344 408.722 37.3359 409.081 37.7734C409.456 38.1953 409.995 38.4062 410.698 38.4062Z"/>
<path d="M425.136 43V1.39844H431.323V43H425.136Z"/>
<path d="M444.87 43.4453C442.042 43.4453 439.94 42.6406 438.565 41.0312C437.19 39.4219 436.503 36.7891 436.503 33.1328V30.8594H442.339V33.6953C442.339 35.2266 442.526 36.3906 442.901 37.1875C443.276 37.9844 443.886 38.3828 444.729 38.3828C445.542 38.3828 446.144 38.1094 446.534 37.5625C446.925 37.0156 447.12 36.0703 447.12 34.7266C447.12 33.9453 447.003 33.1875 446.769 32.4531C446.55 31.7188 446.198 31 445.714 30.2969C445.245 29.5781 444.636 28.8828 443.886 28.2109L440.722 25.3516C439.269 24.0391 438.183 22.625 437.464 21.1094C436.745 19.5781 436.386 17.8906 436.386 16.0469C436.386 13.0625 437.081 10.8828 438.472 9.50781C439.878 8.11719 441.956 7.42188 444.706 7.42188C446.487 7.42188 447.964 7.75781 449.136 8.42969C450.308 9.08594 451.183 10.1562 451.761 11.6406C452.339 13.125 452.628 15.1172 452.628 17.6172V19.5391H447.073V17.2188C447.073 15.6719 446.894 14.5 446.534 13.7031C446.19 12.9062 445.597 12.5078 444.753 12.5078C443.925 12.5078 443.315 12.7422 442.925 13.2109C442.534 13.6641 442.323 14.4688 442.292 15.625C442.276 16.25 442.354 16.8672 442.526 17.4766C442.698 18.0703 442.964 18.6562 443.323 19.2344C443.698 19.7969 444.183 20.3516 444.776 20.8984L448.104 23.9219C449.854 25.5 451.144 27.1484 451.972 28.8672C452.815 30.5859 453.237 32.4453 453.237 34.4453C453.237 37.3984 452.565 39.6406 451.222 41.1719C449.878 42.6875 447.761 43.4453 444.87 43.4453Z"/>
</mask>
<g filter="url(#filter0_ii_127_2786)">
<path d="M1.19824 43V1.75H15.3545V7.21094H7.47949V18.1797H14.792V23.6641H7.47949V43H1.19824Z" fill="#D1DADB"/>
<path d="M27.5889 43.4219C25.9014 43.4219 24.4873 43.1641 23.3467 42.6484C22.2061 42.1172 21.2998 41.3594 20.6279 40.375C19.9717 39.375 19.4951 38.1641 19.1982 36.7422C18.917 35.3047 18.7764 33.6719 18.7764 31.8438V18.6953C18.7764 16.4922 19.0576 14.5469 19.6201 12.8594C20.1982 11.1562 21.1357 9.82812 22.4326 8.875C23.7295 7.90625 25.4482 7.42188 27.5889 7.42188C29.2139 7.42188 30.5811 7.69531 31.6904 8.24219C32.8154 8.78906 33.7139 9.57031 34.3857 10.5859C35.0732 11.5859 35.5732 12.7734 35.8857 14.1484C36.1982 15.5234 36.3545 17.0391 36.3545 18.6953V31.8438C36.3545 33.6406 36.2139 35.25 35.9326 36.6719C35.667 38.0938 35.1982 39.3125 34.5264 40.3281C33.8701 41.3281 32.9795 42.0938 31.8545 42.625C30.7295 43.1562 29.3076 43.4219 27.5889 43.4219ZM27.5889 38.4062C28.292 38.4062 28.8232 38.1953 29.1826 37.7734C29.542 37.3359 29.7842 36.7344 29.9092 35.9688C30.0342 35.2031 30.0967 34.3203 30.0967 33.3203V17.5938C30.0967 16.5312 30.0264 15.6172 29.8857 14.8516C29.7451 14.0859 29.4951 13.4922 29.1357 13.0703C28.7764 12.6484 28.2607 12.4375 27.5889 12.4375C26.8857 12.4375 26.3467 12.6484 25.9717 13.0703C25.6123 13.4922 25.3623 14.0859 25.2217 14.8516C25.0967 15.6172 25.0342 16.5312 25.0342 17.5938V33.3203C25.0342 34.3203 25.0967 35.2031 25.2217 35.9688C25.3623 36.7344 25.6123 37.3359 25.9717 37.7734C26.3467 38.1953 26.8857 38.4062 27.5889 38.4062Z" fill="#D1DADB"/>
<path d="M42.0029 43V7.84375H48.2139V11.875C48.5264 10.6719 49.1826 9.63281 50.1826 8.75781C51.1826 7.86719 52.4092 7.42188 53.8623 7.42188C55.8936 7.42188 57.417 8.10156 58.4326 9.46094C59.4482 10.8047 59.9561 12.7578 59.9561 15.3203V43H53.7451V15.6953C53.7451 14.6797 53.5107 13.8828 53.042 13.3047C52.5889 12.7266 51.9639 12.4375 51.167 12.4375C50.5264 12.4375 49.9795 12.6172 49.5264 12.9766C49.0889 13.3203 48.7607 13.8047 48.542 14.4297C48.3232 15.0391 48.2139 15.7578 48.2139 16.5859V43H42.0029Z" fill="#D1DADB"/>
<path d="M72.2607 43.2344C70.7607 43.2344 69.6123 43.0469 68.8154 42.6719C68.0186 42.2812 67.4717 41.6719 67.1748 40.8438C66.8779 40.0156 66.7295 38.9453 66.7295 37.6328V13.0703H63.8701V8.57031H66.7295V1.75H72.9404V8.57031H76.3623V13.0703H72.9404V36.5547C72.9404 37.1016 73.0264 37.5156 73.1982 37.7969C73.3701 38.0781 73.7061 38.2656 74.2061 38.3594C74.7217 38.4531 75.4795 38.5 76.4795 38.5V43.2344H72.2607Z" fill="#D1DADB"/>
<path d="M88.1514 43.4453C85.3232 43.4453 83.2217 42.6406 81.8467 41.0312C80.4717 39.4219 79.7842 36.7891 79.7842 33.1328V30.8594H85.6201V33.6953C85.6201 35.2266 85.8076 36.3906 86.1826 37.1875C86.5576 37.9844 87.167 38.3828 88.0107 38.3828C88.8232 38.3828 89.4248 38.1094 89.8154 37.5625C90.2061 37.0156 90.4014 36.0703 90.4014 34.7266C90.4014 33.9453 90.2842 33.1875 90.0498 32.4531C89.8311 31.7188 89.4795 31 88.9951 30.2969C88.5264 29.5781 87.917 28.8828 87.167 28.2109L84.0029 25.3516C82.5498 24.0391 81.4639 22.625 80.7451 21.1094C80.0264 19.5781 79.667 17.8906 79.667 16.0469C79.667 13.0625 80.3623 10.8828 81.7529 9.50781C83.1592 8.11719 85.2373 7.42188 87.9873 7.42188C89.7686 7.42188 91.2451 7.75781 92.417 8.42969C93.5889 9.08594 94.4639 10.1562 95.042 11.6406C95.6201 13.125 95.9092 15.1172 95.9092 17.6172V19.5391H90.3545V17.2188C90.3545 15.6719 90.1748 14.5 89.8154 13.7031C89.4717 12.9062 88.8779 12.5078 88.0342 12.5078C87.2061 12.5078 86.5967 12.7422 86.2061 13.2109C85.8154 13.6641 85.6045 14.4688 85.5732 15.625C85.5576 16.25 85.6357 16.8672 85.8076 17.4766C85.9795 18.0703 86.2451 18.6562 86.6045 19.2344C86.9795 19.7969 87.4639 20.3516 88.0576 20.8984L91.3857 23.9219C93.1357 25.5 94.4248 27.1484 95.2529 28.8672C96.0967 30.5859 96.5186 32.4453 96.5186 34.4453C96.5186 37.3984 95.8467 39.6406 94.5029 41.1719C93.1592 42.6875 91.042 43.4453 88.1514 43.4453Z" fill="#D1DADB"/>
<path d="M115.854 43.4688C113.526 43.4688 111.69 42.6719 110.347 41.0781C109.003 39.4688 108.331 37.1562 108.331 34.1406C108.331 32.5312 108.644 30.9922 109.269 29.5234C109.894 28.0391 110.698 26.6094 111.683 25.2344C112.683 23.8438 113.737 22.5 114.847 21.2031C113.894 18.7188 113.097 16.4297 112.456 14.3359C111.815 12.2266 111.495 10.6016 111.495 9.46094C111.495 6.80469 112.183 4.77344 113.558 3.36719C114.948 1.96094 116.784 1.25781 119.065 1.25781C120.722 1.25781 122.097 1.57812 123.19 2.21875C124.284 2.84375 125.104 3.76562 125.651 4.98438C126.198 6.1875 126.472 7.65625 126.472 9.39062C126.472 10.8438 126.214 12.2578 125.698 13.6328C125.183 14.9922 124.511 16.3203 123.683 17.6172C122.854 18.8984 121.956 20.1562 120.987 21.3906L124.011 28.9141C124.62 27.8984 125.284 26.8516 126.003 25.7734C126.737 24.6797 127.558 23.5938 128.464 22.5156L131.019 26.8281C130.05 27.9062 129.19 29.1016 128.44 30.4141C127.706 31.7266 126.995 33.0391 126.308 34.3516L130.011 43H124.198L122.862 39.9531C122.284 40.6406 121.651 41.25 120.964 41.7812C120.292 42.3125 119.534 42.7266 118.69 43.0234C117.847 43.3203 116.901 43.4688 115.854 43.4688ZM116.909 38.1016C117.378 38.1016 117.815 37.9688 118.222 37.7031C118.628 37.4375 119.026 37.0703 119.417 36.6016C119.808 36.1172 120.206 35.5469 120.612 34.8906L116.979 26.4531C116.37 27.2656 115.815 28.0703 115.315 28.8672C114.831 29.6641 114.44 30.4531 114.144 31.2344C113.847 32.0156 113.683 32.7891 113.651 33.5547C113.604 35.0391 113.847 36.1719 114.378 36.9531C114.925 37.7188 115.769 38.1016 116.909 38.1016ZM119.042 16.1875C119.948 15.0156 120.69 13.8594 121.269 12.7188C121.847 11.5781 122.136 10.4375 122.136 9.29688C122.136 7.95312 121.972 6.98438 121.644 6.39062C121.315 5.79688 120.69 5.5 119.769 5.5C119.222 5.5 118.776 5.60938 118.433 5.82812C118.089 6.04688 117.823 6.34375 117.636 6.71875C117.464 7.07812 117.347 7.47656 117.284 7.91406C117.222 8.35156 117.19 8.78906 117.19 9.22656C117.19 9.85156 117.354 10.7734 117.683 11.9922C118.026 13.1953 118.479 14.5938 119.042 16.1875Z" fill="#D1DADB"/>
<path d="M145.151 43V7.1875H140.323V1.75H156.05V7.1875H151.409V43H145.151Z" fill="#D1DADB"/>
<path d="M158.581 49.2109V44.9219H160.62C161.308 44.9219 161.886 44.8594 162.354 44.7344C162.823 44.625 163.089 44.375 163.151 43.9844C163.261 43.7812 163.3 43.4219 163.269 42.9062C163.237 42.375 163.19 41.875 163.128 41.4062L157.503 7.84375H163.409L165.659 25.8203L166.597 35.2891H167.112L167.956 25.8203L170.019 7.84375H175.901L169.808 44.5C169.636 45.6094 169.394 46.5078 169.081 47.1953C168.784 47.8984 168.331 48.4062 167.722 48.7188C167.112 49.0469 166.269 49.2109 165.19 49.2109H158.581Z" fill="#D1DADB"/>
<path d="M179.745 49.6797V7.84375H185.956V11.0078C186.409 9.85156 187.12 8.97656 188.089 8.38281C189.058 7.78906 190.034 7.49219 191.019 7.49219C192.815 7.49219 194.175 7.97656 195.097 8.94531C196.019 9.89844 196.644 11.2031 196.972 12.8594C197.3 14.5156 197.464 16.375 197.464 18.4375V31.2578C197.464 33.5078 197.308 35.5547 196.995 37.3984C196.683 39.2422 196.019 40.7109 195.003 41.8047C194.003 42.8828 192.472 43.4219 190.409 43.4219C189.456 43.4219 188.589 43.1641 187.808 42.6484C187.026 42.1328 186.409 41.5391 185.956 40.8672V49.6797H179.745ZM188.698 38.3828C189.745 38.3828 190.425 37.875 190.737 36.8594C191.05 35.8281 191.206 34.3594 191.206 32.4531V17.875C191.206 16.8594 191.151 15.9453 191.042 15.1328C190.948 14.3047 190.729 13.6484 190.386 13.1641C190.042 12.6797 189.495 12.4375 188.745 12.4375C188.167 12.4375 187.667 12.5859 187.245 12.8828C186.839 13.1797 186.519 13.7188 186.284 14.5C186.065 15.2812 185.956 16.3984 185.956 17.8516V32.7109C185.956 34.5078 186.128 35.9062 186.472 36.9062C186.815 37.8906 187.558 38.3828 188.698 38.3828Z" fill="#D1DADB"/>
<path d="M211.433 43.4219C209.745 43.4219 208.331 43.1641 207.19 42.6484C206.05 42.1172 205.144 41.3594 204.472 40.375C203.815 39.375 203.339 38.1641 203.042 36.7422C202.761 35.3047 202.62 33.6719 202.62 31.8438V18.6953C202.62 16.4922 202.901 14.5469 203.464 12.8594C204.042 11.1562 204.979 9.82812 206.276 8.875C207.573 7.90625 209.292 7.42188 211.433 7.42188C213.058 7.42188 214.425 7.69531 215.534 8.24219C216.659 8.78906 217.558 9.57031 218.229 10.5859C218.917 11.5859 219.417 12.7734 219.729 14.1484C220.042 15.5234 220.198 17.0391 220.198 18.6953V31.8438C220.198 33.6406 220.058 35.25 219.776 36.6719C219.511 38.0938 219.042 39.3125 218.37 40.3281C217.714 41.3281 216.823 42.0938 215.698 42.625C214.573 43.1562 213.151 43.4219 211.433 43.4219ZM211.433 38.4062C212.136 38.4062 212.667 38.1953 213.026 37.7734C213.386 37.3359 213.628 36.7344 213.753 35.9688C213.878 35.2031 213.94 34.3203 213.94 33.3203V17.5938C213.94 16.5312 213.87 15.6172 213.729 14.8516C213.589 14.0859 213.339 13.4922 212.979 13.0703C212.62 12.6484 212.104 12.4375 211.433 12.4375C210.729 12.4375 210.19 12.6484 209.815 13.0703C209.456 13.4922 209.206 14.0859 209.065 14.8516C208.94 15.6172 208.878 16.5312 208.878 17.5938V33.3203C208.878 34.3203 208.94 35.2031 209.065 35.9688C209.206 36.7344 209.456 37.3359 209.815 37.7734C210.19 38.1953 210.729 38.4062 211.433 38.4062Z" fill="#D1DADB"/>
<path d="M233.769 48.2734C231.831 48.3047 230.183 48.1172 228.823 47.7109C227.464 47.3203 226.229 46.6719 225.12 45.7656L227.3 41.8516C228.128 42.3828 229.026 42.8125 229.995 43.1406C230.979 43.4844 232.042 43.6484 233.183 43.6328C234.37 43.6172 235.276 43.2031 235.901 42.3906C236.526 41.5781 236.839 40.4922 236.839 39.1328V36.3438C236.433 37.5156 235.808 38.3203 234.964 38.7578C234.136 39.1953 233.128 39.4141 231.94 39.4141C230.284 39.4141 228.979 38.9766 228.026 38.1016C227.089 37.2266 226.425 36.0312 226.034 34.5156C225.644 33 225.448 31.2812 225.448 29.3594V18.0391C225.448 15.9922 225.651 14.1719 226.058 12.5781C226.464 10.9688 227.159 9.70312 228.144 8.78125C229.128 7.85938 230.479 7.40625 232.198 7.42188C233.401 7.42188 234.394 7.72656 235.175 8.33594C235.972 8.94531 236.526 9.82031 236.839 10.9609V7.84375H243.05V38.6641C243.05 40.0547 242.894 41.3359 242.581 42.5078C242.269 43.6641 241.753 44.6641 241.034 45.5078C240.315 46.3672 239.362 47.0312 238.175 47.5C236.987 47.9844 235.519 48.2422 233.769 48.2734ZM234.401 34.7031C234.964 34.7031 235.425 34.5391 235.784 34.2109C236.144 33.8672 236.409 33.2891 236.581 32.4766C236.753 31.6484 236.839 30.5 236.839 29.0312V17.5234C236.839 15.9766 236.651 14.7422 236.276 13.8203C235.901 12.8984 235.222 12.4375 234.237 12.4375C233.487 12.4375 232.933 12.6562 232.573 13.0938C232.214 13.5312 231.979 14.1328 231.87 14.8984C231.761 15.6484 231.706 16.5156 231.706 17.5V29.0781C231.706 30.8125 231.87 32.1875 232.198 33.2031C232.526 34.2031 233.261 34.7031 234.401 34.7031Z" fill="#D1DADB"/>
<path d="M249.073 43V7.84375H255.331V11.7578C255.737 10.3984 256.44 9.33594 257.44 8.57031C258.456 7.80469 259.745 7.42188 261.308 7.42188C261.339 7.42188 261.354 7.6875 261.354 8.21875C261.37 8.75 261.378 9.35938 261.378 10.0469C261.378 10.7344 261.378 11.3438 261.378 11.875C261.378 12.4062 261.378 12.6719 261.378 12.6719C260.659 12.6719 259.878 12.7578 259.034 12.9297C258.206 13.1016 257.448 13.3672 256.761 13.7266C256.089 14.0703 255.612 14.5312 255.331 15.1094V43H249.073Z" fill="#D1DADB"/>
<path d="M271.151 43.3516C268.745 43.3516 267.073 42.4766 266.136 40.7266C265.214 38.9766 264.737 36.6562 264.706 33.7656V31.5156C264.706 29.6406 264.972 28.1172 265.503 26.9453C266.05 25.7734 266.823 24.8203 267.823 24.0859C268.823 23.3516 270.019 22.7109 271.409 22.1641C272.8 21.6172 274.347 21.0312 276.05 20.4062V17.3359C276.05 16.1484 276.003 15.2031 275.909 14.5C275.815 13.7812 275.604 13.2578 275.276 12.9297C274.948 12.6016 274.44 12.4375 273.753 12.4375C273.081 12.4375 272.565 12.6094 272.206 12.9531C271.862 13.2812 271.628 13.7969 271.503 14.5C271.378 15.1875 271.315 16.0703 271.315 17.1484V18.7188H265.175V17.6641C265.175 16.0547 265.308 14.6172 265.573 13.3516C265.854 12.0859 266.323 11.0156 266.979 10.1406C267.636 9.25 268.526 8.57812 269.651 8.125C270.792 7.65625 272.222 7.42188 273.94 7.42188C275.456 7.42188 276.753 7.64062 277.831 8.07812C278.909 8.5 279.784 9.14062 280.456 10C281.128 10.8438 281.62 11.9062 281.933 13.1875C282.245 14.4688 282.401 15.9609 282.401 17.6641V43H276.144V39.5078C275.956 40.1797 275.636 40.8125 275.183 41.4062C274.729 41.9844 274.159 42.4531 273.472 42.8125C272.8 43.1719 272.026 43.3516 271.151 43.3516ZM273.308 38.5703C274.089 38.5703 274.714 38.2891 275.183 37.7266C275.651 37.1641 275.94 36.5938 276.05 36.0156V23.9219C275.112 24.3438 274.323 24.7422 273.683 25.1172C273.042 25.4766 272.526 25.875 272.136 26.3125C271.745 26.75 271.464 27.2656 271.292 27.8594C271.12 28.4531 271.034 29.1797 271.034 30.0391V33.9766C271.034 35.5859 271.198 36.7578 271.526 37.4922C271.87 38.2109 272.464 38.5703 273.308 38.5703Z" fill="#D1DADB"/>
<path d="M288.167 49.6797V7.84375H294.378V11.0078C294.831 9.85156 295.542 8.97656 296.511 8.38281C297.479 7.78906 298.456 7.49219 299.44 7.49219C301.237 7.49219 302.597 7.97656 303.519 8.94531C304.44 9.89844 305.065 11.2031 305.394 12.8594C305.722 14.5156 305.886 16.375 305.886 18.4375V31.2578C305.886 33.5078 305.729 35.5547 305.417 37.3984C305.104 39.2422 304.44 40.7109 303.425 41.8047C302.425 42.8828 300.894 43.4219 298.831 43.4219C297.878 43.4219 297.011 43.1641 296.229 42.6484C295.448 42.1328 294.831 41.5391 294.378 40.8672V49.6797H288.167ZM297.12 38.3828C298.167 38.3828 298.847 37.875 299.159 36.8594C299.472 35.8281 299.628 34.3594 299.628 32.4531V17.875C299.628 16.8594 299.573 15.9453 299.464 15.1328C299.37 14.3047 299.151 13.6484 298.808 13.1641C298.464 12.6797 297.917 12.4375 297.167 12.4375C296.589 12.4375 296.089 12.5859 295.667 12.8828C295.261 13.1797 294.94 13.7188 294.706 14.5C294.487 15.2812 294.378 16.3984 294.378 17.8516V32.7109C294.378 34.5078 294.55 35.9062 294.894 36.9062C295.237 37.8906 295.979 38.3828 297.12 38.3828Z" fill="#D1DADB"/>
<path d="M311.628 43V1.39844H317.839V11.875C318.151 10.6719 318.776 9.63281 319.714 8.75781C320.667 7.86719 321.862 7.42188 323.3 7.42188C325.347 7.42188 326.886 8.10156 327.917 9.46094C328.964 10.8047 329.487 12.7578 329.487 15.3203V43H323.3V15.9062C323.3 14.7812 323.081 13.9375 322.644 13.375C322.222 12.7969 321.612 12.5078 320.815 12.5078C320.175 12.5078 319.628 12.6875 319.175 13.0469C318.737 13.4062 318.401 13.9141 318.167 14.5703C317.948 15.2266 317.839 15.9922 317.839 16.8672V43H311.628Z" fill="#D1DADB"/>
<path d="M334.456 49.2109V44.9219H336.495C337.183 44.9219 337.761 44.8594 338.229 44.7344C338.698 44.625 338.964 44.375 339.026 43.9844C339.136 43.7812 339.175 43.4219 339.144 42.9062C339.112 42.375 339.065 41.875 339.003 41.4062L333.378 7.84375H339.284L341.534 25.8203L342.472 35.2891H342.987L343.831 25.8203L345.894 7.84375H351.776L345.683 44.5C345.511 45.6094 345.269 46.5078 344.956 47.1953C344.659 47.8984 344.206 48.4062 343.597 48.7188C342.987 49.0469 342.144 49.2109 341.065 49.2109H334.456Z" fill="#D1DADB"/>
<path d="M366.401 43V7.1875H361.573V1.75H377.3V7.1875H372.659V43H366.401Z" fill="#D1DADB"/>
<path d="M387.964 43.4219C386.276 43.4219 384.862 43.1641 383.722 42.6484C382.581 42.1172 381.675 41.3594 381.003 40.375C380.347 39.375 379.87 38.1641 379.573 36.7422C379.292 35.3047 379.151 33.6719 379.151 31.8438V18.6953C379.151 16.4922 379.433 14.5469 379.995 12.8594C380.573 11.1562 381.511 9.82812 382.808 8.875C384.104 7.90625 385.823 7.42188 387.964 7.42188C389.589 7.42188 390.956 7.69531 392.065 8.24219C393.19 8.78906 394.089 9.57031 394.761 10.5859C395.448 11.5859 395.948 12.7734 396.261 14.1484C396.573 15.5234 396.729 17.0391 396.729 18.6953V31.8438C396.729 33.6406 396.589 35.25 396.308 36.6719C396.042 38.0938 395.573 39.3125 394.901 40.3281C394.245 41.3281 393.354 42.0938 392.229 42.625C391.104 43.1562 389.683 43.4219 387.964 43.4219ZM387.964 38.4062C388.667 38.4062 389.198 38.1953 389.558 37.7734C389.917 37.3359 390.159 36.7344 390.284 35.9688C390.409 35.2031 390.472 34.3203 390.472 33.3203V17.5938C390.472 16.5312 390.401 15.6172 390.261 14.8516C390.12 14.0859 389.87 13.4922 389.511 13.0703C389.151 12.6484 388.636 12.4375 387.964 12.4375C387.261 12.4375 386.722 12.6484 386.347 13.0703C385.987 13.4922 385.737 14.0859 385.597 14.8516C385.472 15.6172 385.409 16.5312 385.409 17.5938V33.3203C385.409 34.3203 385.472 35.2031 385.597 35.9688C385.737 36.7344 385.987 37.3359 386.347 37.7734C386.722 38.1953 387.261 38.4062 387.964 38.4062Z" fill="#D1DADB"/>
<path d="M410.698 43.4219C409.011 43.4219 407.597 43.1641 406.456 42.6484C405.315 42.1172 404.409 41.3594 403.737 40.375C403.081 39.375 402.604 38.1641 402.308 36.7422C402.026 35.3047 401.886 33.6719 401.886 31.8438V18.6953C401.886 16.4922 402.167 14.5469 402.729 12.8594C403.308 11.1562 404.245 9.82812 405.542 8.875C406.839 7.90625 408.558 7.42188 410.698 7.42188C412.323 7.42188 413.69 7.69531 414.8 8.24219C415.925 8.78906 416.823 9.57031 417.495 10.5859C418.183 11.5859 418.683 12.7734 418.995 14.1484C419.308 15.5234 419.464 17.0391 419.464 18.6953V31.8438C419.464 33.6406 419.323 35.25 419.042 36.6719C418.776 38.0938 418.308 39.3125 417.636 40.3281C416.979 41.3281 416.089 42.0938 414.964 42.625C413.839 43.1562 412.417 43.4219 410.698 43.4219ZM410.698 38.4062C411.401 38.4062 411.933 38.1953 412.292 37.7734C412.651 37.3359 412.894 36.7344 413.019 35.9688C413.144 35.2031 413.206 34.3203 413.206 33.3203V17.5938C413.206 16.5312 413.136 15.6172 412.995 14.8516C412.854 14.0859 412.604 13.4922 412.245 13.0703C411.886 12.6484 411.37 12.4375 410.698 12.4375C409.995 12.4375 409.456 12.6484 409.081 13.0703C408.722 13.4922 408.472 14.0859 408.331 14.8516C408.206 15.6172 408.144 16.5312 408.144 17.5938V33.3203C408.144 34.3203 408.206 35.2031 408.331 35.9688C408.472 36.7344 408.722 37.3359 409.081 37.7734C409.456 38.1953 409.995 38.4062 410.698 38.4062Z" fill="#D1DADB"/>
<path d="M425.136 43V1.39844H431.323V43H425.136Z" fill="#D1DADB"/>
<path d="M444.87 43.4453C442.042 43.4453 439.94 42.6406 438.565 41.0312C437.19 39.4219 436.503 36.7891 436.503 33.1328V30.8594H442.339V33.6953C442.339 35.2266 442.526 36.3906 442.901 37.1875C443.276 37.9844 443.886 38.3828 444.729 38.3828C445.542 38.3828 446.144 38.1094 446.534 37.5625C446.925 37.0156 447.12 36.0703 447.12 34.7266C447.12 33.9453 447.003 33.1875 446.769 32.4531C446.55 31.7188 446.198 31 445.714 30.2969C445.245 29.5781 444.636 28.8828 443.886 28.2109L440.722 25.3516C439.269 24.0391 438.183 22.625 437.464 21.1094C436.745 19.5781 436.386 17.8906 436.386 16.0469C436.386 13.0625 437.081 10.8828 438.472 9.50781C439.878 8.11719 441.956 7.42188 444.706 7.42188C446.487 7.42188 447.964 7.75781 449.136 8.42969C450.308 9.08594 451.183 10.1562 451.761 11.6406C452.339 13.125 452.628 15.1172 452.628 17.6172V19.5391H447.073V17.2188C447.073 15.6719 446.894 14.5 446.534 13.7031C446.19 12.9062 445.597 12.5078 444.753 12.5078C443.925 12.5078 443.315 12.7422 442.925 13.2109C442.534 13.6641 442.323 14.4688 442.292 15.625C442.276 16.25 442.354 16.8672 442.526 17.4766C442.698 18.0703 442.964 18.6562 443.323 19.2344C443.698 19.7969 444.183 20.3516 444.776 20.8984L448.104 23.9219C449.854 25.5 451.144 27.1484 451.972 28.8672C452.815 30.5859 453.237 32.4453 453.237 34.4453C453.237 37.3984 452.565 39.6406 451.222 41.1719C449.878 42.6875 447.761 43.4453 444.87 43.4453Z" fill="#D1DADB"/>
</g>
<path d="M1.19824 43V1.75H15.3545V7.21094H7.47949V18.1797H14.792V23.6641H7.47949V43H1.19824Z" stroke="#D9E6E7" stroke-width="2" mask="url(#path-1-outside-1_127_2786)"/>
<path d="M27.5889 43.4219C25.9014 43.4219 24.4873 43.1641 23.3467 42.6484C22.2061 42.1172 21.2998 41.3594 20.6279 40.375C19.9717 39.375 19.4951 38.1641 19.1982 36.7422C18.917 35.3047 18.7764 33.6719 18.7764 31.8438V18.6953C18.7764 16.4922 19.0576 14.5469 19.6201 12.8594C20.1982 11.1562 21.1357 9.82812 22.4326 8.875C23.7295 7.90625 25.4482 7.42188 27.5889 7.42188C29.2139 7.42188 30.5811 7.69531 31.6904 8.24219C32.8154 8.78906 33.7139 9.57031 34.3857 10.5859C35.0732 11.5859 35.5732 12.7734 35.8857 14.1484C36.1982 15.5234 36.3545 17.0391 36.3545 18.6953V31.8438C36.3545 33.6406 36.2139 35.25 35.9326 36.6719C35.667 38.0938 35.1982 39.3125 34.5264 40.3281C33.8701 41.3281 32.9795 42.0938 31.8545 42.625C30.7295 43.1562 29.3076 43.4219 27.5889 43.4219ZM27.5889 38.4062C28.292 38.4062 28.8232 38.1953 29.1826 37.7734C29.542 37.3359 29.7842 36.7344 29.9092 35.9688C30.0342 35.2031 30.0967 34.3203 30.0967 33.3203V17.5938C30.0967 16.5312 30.0264 15.6172 29.8857 14.8516C29.7451 14.0859 29.4951 13.4922 29.1357 13.0703C28.7764 12.6484 28.2607 12.4375 27.5889 12.4375C26.8857 12.4375 26.3467 12.6484 25.9717 13.0703C25.6123 13.4922 25.3623 14.0859 25.2217 14.8516C25.0967 15.6172 25.0342 16.5312 25.0342 17.5938V33.3203C25.0342 34.3203 25.0967 35.2031 25.2217 35.9688C25.3623 36.7344 25.6123 37.3359 25.9717 37.7734C26.3467 38.1953 26.8857 38.4062 27.5889 38.4062Z" stroke="#D9E6E7" stroke-width="2" mask="url(#path-1-outside-1_127_2786)"/>
<path d="M42.0029 43V7.84375H48.2139V11.875C48.5264 10.6719 49.1826 9.63281 50.1826 8.75781C51.1826 7.86719 52.4092 7.42188 53.8623 7.42188C55.8936 7.42188 57.417 8.10156 58.4326 9.46094C59.4482 10.8047 59.9561 12.7578 59.9561 15.3203V43H53.7451V15.6953C53.7451 14.6797 53.5107 13.8828 53.042 13.3047C52.5889 12.7266 51.9639 12.4375 51.167 12.4375C50.5264 12.4375 49.9795 12.6172 49.5264 12.9766C49.0889 13.3203 48.7607 13.8047 48.542 14.4297C48.3232 15.0391 48.2139 15.7578 48.2139 16.5859V43H42.0029Z" stroke="#D9E6E7" stroke-width="2" mask="url(#path-1-outside-1_127_2786)"/>
<path d="M72.2607 43.2344C70.7607 43.2344 69.6123 43.0469 68.8154 42.6719C68.0186 42.2812 67.4717 41.6719 67.1748 40.8438C66.8779 40.0156 66.7295 38.9453 66.7295 37.6328V13.0703H63.8701V8.57031H66.7295V1.75H72.9404V8.57031H76.3623V13.0703H72.9404V36.5547C72.9404 37.1016 73.0264 37.5156 73.1982 37.7969C73.3701 38.0781 73.7061 38.2656 74.2061 38.3594C74.7217 38.4531 75.4795 38.5 76.4795 38.5V43.2344H72.2607Z" stroke="#D9E6E7" stroke-width="2" mask="url(#path-1-outside-1_127_2786)"/>
<path d="M88.1514 43.4453C85.3232 43.4453 83.2217 42.6406 81.8467 41.0312C80.4717 39.4219 79.7842 36.7891 79.7842 33.1328V30.8594H85.6201V33.6953C85.6201 35.2266 85.8076 36.3906 86.1826 37.1875C86.5576 37.9844 87.167 38.3828 88.0107 38.3828C88.8232 38.3828 89.4248 38.1094 89.8154 37.5625C90.2061 37.0156 90.4014 36.0703 90.4014 34.7266C90.4014 33.9453 90.2842 33.1875 90.0498 32.4531C89.8311 31.7188 89.4795 31 88.9951 30.2969C88.5264 29.5781 87.917 28.8828 87.167 28.2109L84.0029 25.3516C82.5498 24.0391 81.4639 22.625 80.7451 21.1094C80.0264 19.5781 79.667 17.8906 79.667 16.0469C79.667 13.0625 80.3623 10.8828 81.7529 9.50781C83.1592 8.11719 85.2373 7.42188 87.9873 7.42188C89.7686 7.42188 91.2451 7.75781 92.417 8.42969C93.5889 9.08594 94.4639 10.1562 95.042 11.6406C95.6201 13.125 95.9092 15.1172 95.9092 17.6172V19.5391H90.3545V17.2188C90.3545 15.6719 90.1748 14.5 89.8154 13.7031C89.4717 12.9062 88.8779 12.5078 88.0342 12.5078C87.2061 12.5078 86.5967 12.7422 86.2061 13.2109C85.8154 13.6641 85.6045 14.4688 85.5732 15.625C85.5576 16.25 85.6357 16.8672 85.8076 17.4766C85.9795 18.0703 86.2451 18.6562 86.6045 19.2344C86.9795 19.7969 87.4639 20.3516 88.0576 20.8984L91.3857 23.9219C93.1357 25.5 94.4248 27.1484 95.2529 28.8672C96.0967 30.5859 96.5186 32.4453 96.5186 34.4453C96.5186 37.3984 95.8467 39.6406 94.5029 41.1719C93.1592 42.6875 91.042 43.4453 88.1514 43.4453Z" stroke="#D9E6E7" stroke-width="2" mask="url(#path-1-outside-1_127_2786)"/>
<path d="M115.854 43.4688C113.526 43.4688 111.69 42.6719 110.347 41.0781C109.003 39.4688 108.331 37.1562 108.331 34.1406C108.331 32.5312 108.644 30.9922 109.269 29.5234C109.894 28.0391 110.698 26.6094 111.683 25.2344C112.683 23.8438 113.737 22.5 114.847 21.2031C113.894 18.7188 113.097 16.4297 112.456 14.3359C111.815 12.2266 111.495 10.6016 111.495 9.46094C111.495 6.80469 112.183 4.77344 113.558 3.36719C114.948 1.96094 116.784 1.25781 119.065 1.25781C120.722 1.25781 122.097 1.57812 123.19 2.21875C124.284 2.84375 125.104 3.76562 125.651 4.98438C126.198 6.1875 126.472 7.65625 126.472 9.39062C126.472 10.8438 126.214 12.2578 125.698 13.6328C125.183 14.9922 124.511 16.3203 123.683 17.6172C122.854 18.8984 121.956 20.1562 120.987 21.3906L124.011 28.9141C124.62 27.8984 125.284 26.8516 126.003 25.7734C126.737 24.6797 127.558 23.5938 128.464 22.5156L131.019 26.8281C130.05 27.9062 129.19 29.1016 128.44 30.4141C127.706 31.7266 126.995 33.0391 126.308 34.3516L130.011 43H124.198L122.862 39.9531C122.284 40.6406 121.651 41.25 120.964 41.7812C120.292 42.3125 119.534 42.7266 118.69 43.0234C117.847 43.3203 116.901 43.4688 115.854 43.4688ZM116.909 38.1016C117.378 38.1016 117.815 37.9688 118.222 37.7031C118.628 37.4375 119.026 37.0703 119.417 36.6016C119.808 36.1172 120.206 35.5469 120.612 34.8906L116.979 26.4531C116.37 27.2656 115.815 28.0703 115.315 28.8672C114.831 29.6641 114.44 30.4531 114.144 31.2344C113.847 32.0156 113.683 32.7891 113.651 33.5547C113.604 35.0391 113.847 36.1719 114.378 36.9531C114.925 37.7188 115.769 38.1016 116.909 38.1016ZM119.042 16.1875C119.948 15.0156 120.69 13.8594 121.269 12.7188C121.847 11.5781 122.136 10.4375 122.136 9.29688C122.136 7.95312 121.972 6.98438 121.644 6.39062C121.315 5.79688 120.69 5.5 119.769 5.5C119.222 5.5 118.776 5.60938 118.433 5.82812C118.089 6.04688 117.823 6.34375 117.636 6.71875C117.464 7.07812 117.347 7.47656 117.284 7.91406C117.222 8.35156 117.19 8.78906 117.19 9.22656C117.19 9.85156 117.354 10.7734 117.683 11.9922C118.026 13.1953 118.479 14.5938 119.042 16.1875Z" stroke="#D9E6E7" stroke-width="2" mask="url(#path-1-outside-1_127_2786)"/>
<path d="M145.151 43V7.1875H140.323V1.75H156.05V7.1875H151.409V43H145.151Z" stroke="#D9E6E7" stroke-width="2" mask="url(#path-1-outside-1_127_2786)"/>
<path d="M158.581 49.2109V44.9219H160.62C161.308 44.9219 161.886 44.8594 162.354 44.7344C162.823 44.625 163.089 44.375 163.151 43.9844C163.261 43.7812 163.3 43.4219 163.269 42.9062C163.237 42.375 163.19 41.875 163.128 41.4062L157.503 7.84375H163.409L165.659 25.8203L166.597 35.2891H167.112L167.956 25.8203L170.019 7.84375H175.901L169.808 44.5C169.636 45.6094 169.394 46.5078 169.081 47.1953C168.784 47.8984 168.331 48.4062 167.722 48.7188C167.112 49.0469 166.269 49.2109 165.19 49.2109H158.581Z" stroke="#D9E6E7" stroke-width="2" mask="url(#path-1-outside-1_127_2786)"/>
<path d="M179.745 49.6797V7.84375H185.956V11.0078C186.409 9.85156 187.12 8.97656 188.089 8.38281C189.058 7.78906 190.034 7.49219 191.019 7.49219C192.815 7.49219 194.175 7.97656 195.097 8.94531C196.019 9.89844 196.644 11.2031 196.972 12.8594C197.3 14.5156 197.464 16.375 197.464 18.4375V31.2578C197.464 33.5078 197.308 35.5547 196.995 37.3984C196.683 39.2422 196.019 40.7109 195.003 41.8047C194.003 42.8828 192.472 43.4219 190.409 43.4219C189.456 43.4219 188.589 43.1641 187.808 42.6484C187.026 42.1328 186.409 41.5391 185.956 40.8672V49.6797H179.745ZM188.698 38.3828C189.745 38.3828 190.425 37.875 190.737 36.8594C191.05 35.8281 191.206 34.3594 191.206 32.4531V17.875C191.206 16.8594 191.151 15.9453 191.042 15.1328C190.948 14.3047 190.729 13.6484 190.386 13.1641C190.042 12.6797 189.495 12.4375 188.745 12.4375C188.167 12.4375 187.667 12.5859 187.245 12.8828C186.839 13.1797 186.519 13.7188 186.284 14.5C186.065 15.2812 185.956 16.3984 185.956 17.8516V32.7109C185.956 34.5078 186.128 35.9062 186.472 36.9062C186.815 37.8906 187.558 38.3828 188.698 38.3828Z" stroke="#D9E6E7" stroke-width="2" mask="url(#path-1-outside-1_127_2786)"/>
<path d="M211.433 43.4219C209.745 43.4219 208.331 43.1641 207.19 42.6484C206.05 42.1172 205.144 41.3594 204.472 40.375C203.815 39.375 203.339 38.1641 203.042 36.7422C202.761 35.3047 202.62 33.6719 202.62 31.8438V18.6953C202.62 16.4922 202.901 14.5469 203.464 12.8594C204.042 11.1562 204.979 9.82812 206.276 8.875C207.573 7.90625 209.292 7.42188 211.433 7.42188C213.058 7.42188 214.425 7.69531 215.534 8.24219C216.659 8.78906 217.558 9.57031 218.229 10.5859C218.917 11.5859 219.417 12.7734 219.729 14.1484C220.042 15.5234 220.198 17.0391 220.198 18.6953V31.8438C220.198 33.6406 220.058 35.25 219.776 36.6719C219.511 38.0938 219.042 39.3125 218.37 40.3281C217.714 41.3281 216.823 42.0938 215.698 42.625C214.573 43.1562 213.151 43.4219 211.433 43.4219ZM211.433 38.4062C212.136 38.4062 212.667 38.1953 213.026 37.7734C213.386 37.3359 213.628 36.7344 213.753 35.9688C213.878 35.2031 213.94 34.3203 213.94 33.3203V17.5938C213.94 16.5312 213.87 15.6172 213.729 14.8516C213.589 14.0859 213.339 13.4922 212.979 13.0703C212.62 12.6484 212.104 12.4375 211.433 12.4375C210.729 12.4375 210.19 12.6484 209.815 13.0703C209.456 13.4922 209.206 14.0859 209.065 14.8516C208.94 15.6172 208.878 16.5312 208.878 17.5938V33.3203C208.878 34.3203 208.94 35.2031 209.065 35.9688C209.206 36.7344 209.456 37.3359 209.815 37.7734C210.19 38.1953 210.729 38.4062 211.433 38.4062Z" stroke="#D9E6E7" stroke-width="2" mask="url(#path-1-outside-1_127_2786)"/>
<path d="M233.769 48.2734C231.831 48.3047 230.183 48.1172 228.823 47.7109C227.464 47.3203 226.229 46.6719 225.12 45.7656L227.3 41.8516C228.128 42.3828 229.026 42.8125 229.995 43.1406C230.979 43.4844 232.042 43.6484 233.183 43.6328C234.37 43.6172 235.276 43.2031 235.901 42.3906C236.526 41.5781 236.839 40.4922 236.839 39.1328V36.3438C236.433 37.5156 235.808 38.3203 234.964 38.7578C234.136 39.1953 233.128 39.4141 231.94 39.4141C230.284 39.4141 228.979 38.9766 228.026 38.1016C227.089 37.2266 226.425 36.0312 226.034 34.5156C225.644 33 225.448 31.2812 225.448 29.3594V18.0391C225.448 15.9922 225.651 14.1719 226.058 12.5781C226.464 10.9688 227.159 9.70312 228.144 8.78125C229.128 7.85938 230.479 7.40625 232.198 7.42188C233.401 7.42188 234.394 7.72656 235.175 8.33594C235.972 8.94531 236.526 9.82031 236.839 10.9609V7.84375H243.05V38.6641C243.05 40.0547 242.894 41.3359 242.581 42.5078C242.269 43.6641 241.753 44.6641 241.034 45.5078C240.315 46.3672 239.362 47.0312 238.175 47.5C236.987 47.9844 235.519 48.2422 233.769 48.2734ZM234.401 34.7031C234.964 34.7031 235.425 34.5391 235.784 34.2109C236.144 33.8672 236.409 33.2891 236.581 32.4766C236.753 31.6484 236.839 30.5 236.839 29.0312V17.5234C236.839 15.9766 236.651 14.7422 236.276 13.8203C235.901 12.8984 235.222 12.4375 234.237 12.4375C233.487 12.4375 232.933 12.6562 232.573 13.0938C232.214 13.5312 231.979 14.1328 231.87 14.8984C231.761 15.6484 231.706 16.5156 231.706 17.5V29.0781C231.706 30.8125 231.87 32.1875 232.198 33.2031C232.526 34.2031 233.261 34.7031 234.401 34.7031Z" stroke="#D9E6E7" stroke-width="2" mask="url(#path-1-outside-1_127_2786)"/>
<path d="M249.073 43V7.84375H255.331V11.7578C255.737 10.3984 256.44 9.33594 257.44 8.57031C258.456 7.80469 259.745 7.42188 261.308 7.42188C261.339 7.42188 261.354 7.6875 261.354 8.21875C261.37 8.75 261.378 9.35938 261.378 10.0469C261.378 10.7344 261.378 11.3438 261.378 11.875C261.378 12.4062 261.378 12.6719 261.378 12.6719C260.659 12.6719 259.878 12.7578 259.034 12.9297C258.206 13.1016 257.448 13.3672 256.761 13.7266C256.089 14.0703 255.612 14.5312 255.331 15.1094V43H249.073Z" stroke="#D9E6E7" stroke-width="2" mask="url(#path-1-outside-1_127_2786)"/>
<path d="M271.151 43.3516C268.745 43.3516 267.073 42.4766 266.136 40.7266C265.214 38.9766 264.737 36.6562 264.706 33.7656V31.5156C264.706 29.6406 264.972 28.1172 265.503 26.9453C266.05 25.7734 266.823 24.8203 267.823 24.0859C268.823 23.3516 270.019 22.7109 271.409 22.1641C272.8 21.6172 274.347 21.0312 276.05 20.4062V17.3359C276.05 16.1484 276.003 15.2031 275.909 14.5C275.815 13.7812 275.604 13.2578 275.276 12.9297C274.948 12.6016 274.44 12.4375 273.753 12.4375C273.081 12.4375 272.565 12.6094 272.206 12.9531C271.862 13.2812 271.628 13.7969 271.503 14.5C271.378 15.1875 271.315 16.0703 271.315 17.1484V18.7188H265.175V17.6641C265.175 16.0547 265.308 14.6172 265.573 13.3516C265.854 12.0859 266.323 11.0156 266.979 10.1406C267.636 9.25 268.526 8.57812 269.651 8.125C270.792 7.65625 272.222 7.42188 273.94 7.42188C275.456 7.42188 276.753 7.64062 277.831 8.07812C278.909 8.5 279.784 9.14062 280.456 10C281.128 10.8438 281.62 11.9062 281.933 13.1875C282.245 14.4688 282.401 15.9609 282.401 17.6641V43H276.144V39.5078C275.956 40.1797 275.636 40.8125 275.183 41.4062C274.729 41.9844 274.159 42.4531 273.472 42.8125C272.8 43.1719 272.026 43.3516 271.151 43.3516ZM273.308 38.5703C274.089 38.5703 274.714 38.2891 275.183 37.7266C275.651 37.1641 275.94 36.5938 276.05 36.0156V23.9219C275.112 24.3438 274.323 24.7422 273.683 25.1172C273.042 25.4766 272.526 25.875 272.136 26.3125C271.745 26.75 271.464 27.2656 271.292 27.8594C271.12 28.4531 271.034 29.1797 271.034 30.0391V33.9766C271.034 35.5859 271.198 36.7578 271.526 37.4922C271.87 38.2109 272.464 38.5703 273.308 38.5703Z" stroke="#D9E6E7" stroke-width="2" mask="url(#path-1-outside-1_127_2786)"/>
<path d="M288.167 49.6797V7.84375H294.378V11.0078C294.831 9.85156 295.542 8.97656 296.511 8.38281C297.479 7.78906 298.456 7.49219 299.44 7.49219C301.237 7.49219 302.597 7.97656 303.519 8.94531C304.44 9.89844 305.065 11.2031 305.394 12.8594C305.722 14.5156 305.886 16.375 305.886 18.4375V31.2578C305.886 33.5078 305.729 35.5547 305.417 37.3984C305.104 39.2422 304.44 40.7109 303.425 41.8047C302.425 42.8828 300.894 43.4219 298.831 43.4219C297.878 43.4219 297.011 43.1641 296.229 42.6484C295.448 42.1328 294.831 41.5391 294.378 40.8672V49.6797H288.167ZM297.12 38.3828C298.167 38.3828 298.847 37.875 299.159 36.8594C299.472 35.8281 299.628 34.3594 299.628 32.4531V17.875C299.628 16.8594 299.573 15.9453 299.464 15.1328C299.37 14.3047 299.151 13.6484 298.808 13.1641C298.464 12.6797 297.917 12.4375 297.167 12.4375C296.589 12.4375 296.089 12.5859 295.667 12.8828C295.261 13.1797 294.94 13.7188 294.706 14.5C294.487 15.2812 294.378 16.3984 294.378 17.8516V32.7109C294.378 34.5078 294.55 35.9062 294.894 36.9062C295.237 37.8906 295.979 38.3828 297.12 38.3828Z" stroke="#D9E6E7" stroke-width="2" mask="url(#path-1-outside-1_127_2786)"/>
<path d="M311.628 43V1.39844H317.839V11.875C318.151 10.6719 318.776 9.63281 319.714 8.75781C320.667 7.86719 321.862 7.42188 323.3 7.42188C325.347 7.42188 326.886 8.10156 327.917 9.46094C328.964 10.8047 329.487 12.7578 329.487 15.3203V43H323.3V15.9062C323.3 14.7812 323.081 13.9375 322.644 13.375C322.222 12.7969 321.612 12.5078 320.815 12.5078C320.175 12.5078 319.628 12.6875 319.175 13.0469C318.737 13.4062 318.401 13.9141 318.167 14.5703C317.948 15.2266 317.839 15.9922 317.839 16.8672V43H311.628Z" stroke="#D9E6E7" stroke-width="2" mask="url(#path-1-outside-1_127_2786)"/>
<path d="M334.456 49.2109V44.9219H336.495C337.183 44.9219 337.761 44.8594 338.229 44.7344C338.698 44.625 338.964 44.375 339.026 43.9844C339.136 43.7812 339.175 43.4219 339.144 42.9062C339.112 42.375 339.065 41.875 339.003 41.4062L333.378 7.84375H339.284L341.534 25.8203L342.472 35.2891H342.987L343.831 25.8203L345.894 7.84375H351.776L345.683 44.5C345.511 45.6094 345.269 46.5078 344.956 47.1953C344.659 47.8984 344.206 48.4062 343.597 48.7188C342.987 49.0469 342.144 49.2109 341.065 49.2109H334.456Z" stroke="#D9E6E7" stroke-width="2" mask="url(#path-1-outside-1_127_2786)"/>
<path d="M366.401 43V7.1875H361.573V1.75H377.3V7.1875H372.659V43H366.401Z" stroke="#D9E6E7" stroke-width="2" mask="url(#path-1-outside-1_127_2786)"/>
<path d="M387.964 43.4219C386.276 43.4219 384.862 43.1641 383.722 42.6484C382.581 42.1172 381.675 41.3594 381.003 40.375C380.347 39.375 379.87 38.1641 379.573 36.7422C379.292 35.3047 379.151 33.6719 379.151 31.8438V18.6953C379.151 16.4922 379.433 14.5469 379.995 12.8594C380.573 11.1562 381.511 9.82812 382.808 8.875C384.104 7.90625 385.823 7.42188 387.964 7.42188C389.589 7.42188 390.956 7.69531 392.065 8.24219C393.19 8.78906 394.089 9.57031 394.761 10.5859C395.448 11.5859 395.948 12.7734 396.261 14.1484C396.573 15.5234 396.729 17.0391 396.729 18.6953V31.8438C396.729 33.6406 396.589 35.25 396.308 36.6719C396.042 38.0938 395.573 39.3125 394.901 40.3281C394.245 41.3281 393.354 42.0938 392.229 42.625C391.104 43.1562 389.683 43.4219 387.964 43.4219ZM387.964 38.4062C388.667 38.4062 389.198 38.1953 389.558 37.7734C389.917 37.3359 390.159 36.7344 390.284 35.9688C390.409 35.2031 390.472 34.3203 390.472 33.3203V17.5938C390.472 16.5312 390.401 15.6172 390.261 14.8516C390.12 14.0859 389.87 13.4922 389.511 13.0703C389.151 12.6484 388.636 12.4375 387.964 12.4375C387.261 12.4375 386.722 12.6484 386.347 13.0703C385.987 13.4922 385.737 14.0859 385.597 14.8516C385.472 15.6172 385.409 16.5312 385.409 17.5938V33.3203C385.409 34.3203 385.472 35.2031 385.597 35.9688C385.737 36.7344 385.987 37.3359 386.347 37.7734C386.722 38.1953 387.261 38.4062 387.964 38.4062Z" stroke="#D9E6E7" stroke-width="2" mask="url(#path-1-outside-1_127_2786)"/>
<path d="M410.698 43.4219C409.011 43.4219 407.597 43.1641 406.456 42.6484C405.315 42.1172 404.409 41.3594 403.737 40.375C403.081 39.375 402.604 38.1641 402.308 36.7422C402.026 35.3047 401.886 33.6719 401.886 31.8438V18.6953C401.886 16.4922 402.167 14.5469 402.729 12.8594C403.308 11.1562 404.245 9.82812 405.542 8.875C406.839 7.90625 408.558 7.42188 410.698 7.42188C412.323 7.42188 413.69 7.69531 414.8 8.24219C415.925 8.78906 416.823 9.57031 417.495 10.5859C418.183 11.5859 418.683 12.7734 418.995 14.1484C419.308 15.5234 419.464 17.0391 419.464 18.6953V31.8438C419.464 33.6406 419.323 35.25 419.042 36.6719C418.776 38.0938 418.308 39.3125 417.636 40.3281C416.979 41.3281 416.089 42.0938 414.964 42.625C413.839 43.1562 412.417 43.4219 410.698 43.4219ZM410.698 38.4062C411.401 38.4062 411.933 38.1953 412.292 37.7734C412.651 37.3359 412.894 36.7344 413.019 35.9688C413.144 35.2031 413.206 34.3203 413.206 33.3203V17.5938C413.206 16.5312 413.136 15.6172 412.995 14.8516C412.854 14.0859 412.604 13.4922 412.245 13.0703C411.886 12.6484 411.37 12.4375 410.698 12.4375C409.995 12.4375 409.456 12.6484 409.081 13.0703C408.722 13.4922 408.472 14.0859 408.331 14.8516C408.206 15.6172 408.144 16.5312 408.144 17.5938V33.3203C408.144 34.3203 408.206 35.2031 408.331 35.9688C408.472 36.7344 408.722 37.3359 409.081 37.7734C409.456 38.1953 409.995 38.4062 410.698 38.4062Z" stroke="#D9E6E7" stroke-width="2" mask="url(#path-1-outside-1_127_2786)"/>
<path d="M425.136 43V1.39844H431.323V43H425.136Z" stroke="#D9E6E7" stroke-width="2" mask="url(#path-1-outside-1_127_2786)"/>
<path d="M444.87 43.4453C442.042 43.4453 439.94 42.6406 438.565 41.0312C437.19 39.4219 436.503 36.7891 436.503 33.1328V30.8594H442.339V33.6953C442.339 35.2266 442.526 36.3906 442.901 37.1875C443.276 37.9844 443.886 38.3828 444.729 38.3828C445.542 38.3828 446.144 38.1094 446.534 37.5625C446.925 37.0156 447.12 36.0703 447.12 34.7266C447.12 33.9453 447.003 33.1875 446.769 32.4531C446.55 31.7188 446.198 31 445.714 30.2969C445.245 29.5781 444.636 28.8828 443.886 28.2109L440.722 25.3516C439.269 24.0391 438.183 22.625 437.464 21.1094C436.745 19.5781 436.386 17.8906 436.386 16.0469C436.386 13.0625 437.081 10.8828 438.472 9.50781C439.878 8.11719 441.956 7.42188 444.706 7.42188C446.487 7.42188 447.964 7.75781 449.136 8.42969C450.308 9.08594 451.183 10.1562 451.761 11.6406C452.339 13.125 452.628 15.1172 452.628 17.6172V19.5391H447.073V17.2188C447.073 15.6719 446.894 14.5 446.534 13.7031C446.19 12.9062 445.597 12.5078 444.753 12.5078C443.925 12.5078 443.315 12.7422 442.925 13.2109C442.534 13.6641 442.323 14.4688 442.292 15.625C442.276 16.25 442.354 16.8672 442.526 17.4766C442.698 18.0703 442.964 18.6562 443.323 19.2344C443.698 19.7969 444.183 20.3516 444.776 20.8984L448.104 23.9219C449.854 25.5 451.144 27.1484 451.972 28.8672C452.815 30.5859 453.237 32.4453 453.237 34.4453C453.237 37.3984 452.565 39.6406 451.222 41.1719C449.878 42.6875 447.761 43.4453 444.87 43.4453Z" stroke="#D9E6E7" stroke-width="2" mask="url(#path-1-outside-1_127_2786)"/>
<defs>
<filter id="filter0_ii_127_2786" x="-0.801758" y="-0.742188" width="458.039" height="54.4219" filterUnits="userSpaceOnUse" color-interpolation-filters="sRGB">
<feFlood flood-opacity="0" result="BackgroundImageFix"/>
<feBlend mode="normal" in="SourceGraphic" in2="BackgroundImageFix" result="shape"/>
<feColorMatrix in="SourceAlpha" type="matrix" values="0 0 0 0 0 0 0 0 0 0 0 0 0 0 0 0 0 0 127 0" result="hardAlpha"/>
<feOffset dx="-1" dy="-1"/>
<feGaussianBlur stdDeviation="1.5"/>
<feComposite in2="hardAlpha" operator="arithmetic" k2="-1" k3="1"/>
<feColorMatrix type="matrix" values="0 0 0 0 0.984314 0 0 0 0 0.984314 0 0 0 0 0.984314 0 0 0 1 0"/>
<feBlend mode="normal" in2="shape" result="effect1_innerShadow_127_2786"/>
<feColorMatrix in="SourceAlpha" type="matrix" values="0 0 0 0 0 0 0 0 0 0 0 0 0 0 0 0 0 0 127 0" result="hardAlpha"/>
<feOffset dx="3" dy="3"/>
<feGaussianBlur stdDeviation="4.5"/>
<feComposite in2="hardAlpha" operator="arithmetic" k2="-1" k3="1"/>
<feColorMatrix type="matrix" values="0 0 0 0 0.772549 0 0 0 0 0.772549 0 0 0 0 0.772549 0 0 0 1 0"/>
<feBlend mode="normal" in2="effect1_innerShadow_127_2786" result="effect2_innerShadow_127_2786"/>
</filter>
</defs>
</svg>
