<svg width="314" height="466" viewBox="0 0 314 466" fill="none" xmlns="http://www.w3.org/2000/svg">
<g filter="url(#filter0_dd_79_1987)">
<mask id="path-1-outside-1_79_1987" maskUnits="userSpaceOnUse" x="8" y="8" width="298" height="450" fill="black">
<rect fill="white" x="8" y="8" width="298" height="450"/>
<path d="M13.1369 9H58.0732C83.6881 9 99.0349 25.8112 99.0349 56.048V187.852C99.0349 218.206 83.6881 234.9 58.0732 234.9H13.1369V9ZM68.6725 190.888V52.6624C68.6725 42.3889 63.4833 36.4349 55.6442 36.4349H43.1681V207.349H55.4234C63.2624 207.349 68.6725 201.512 68.6725 190.888Z"/>
<path d="M160.643 36.6684C188.245 36.6684 202.046 51.8452 202.046 82.3155V139.053H147.946V191.822C147.946 204.313 152.362 210.501 161.305 210.501C169.365 210.501 173.34 205.598 173.34 195.908V151.195H202.046V198.126C202.046 209.567 198.403 218.906 191.005 226.145C183.608 233.383 173.671 237.002 161.305 237.002C133.372 237.002 118.136 220.307 118.136 190.888V85.0006C118.136 53.7131 133.593 36.6684 160.643 36.6684ZM160.864 62.4689C152.473 62.4689 147.946 69.7071 147.946 79.9806V114.187H172.788V79.9806C172.898 68.3062 168.924 62.4689 160.864 62.4689Z"/>
<path d="M257.471 185.868H259.348L262.992 144.774L273.591 38.0694H304.064L275.578 234.9H240.8L212.535 38.0694H242.787L253.718 144.073L257.471 185.868Z"/>
<path d="M160.65 277.203H174.16V289.664H160.65V304.516H148.449V289.664H134.76V277.203H148.449V262.477H160.65V277.203Z"/>
<path d="M9 320.464H33.2235C47.0315 320.464 55.3044 329.526 55.3044 345.826V416.877C55.3044 433.239 47.0315 442.238 33.2235 442.238H9V320.464ZM38.9372 418.513V344.001C38.9372 338.463 36.1398 335.253 31.9141 335.253H25.1887V427.386H31.7951C36.0208 427.386 38.9372 424.24 38.9372 418.513Z"/>
<path d="M88.515 335.379C103.394 335.379 110.834 343.56 110.834 359.986V390.571H81.6705V419.016C81.6705 425.75 84.0512 429.086 88.8721 429.086C93.2169 429.086 95.3595 426.442 95.3595 421.219V397.116H110.834V422.415C110.834 428.582 108.87 433.617 104.882 437.519C100.895 441.42 95.538 443.371 88.8721 443.371C73.8142 443.371 65.6009 434.372 65.6009 418.513V361.433C65.6009 344.567 73.9333 335.379 88.515 335.379ZM88.634 349.287C84.1107 349.287 81.6705 353.189 81.6705 358.727V377.166H95.0619V358.727C95.1214 352.434 92.9788 349.287 88.634 349.287Z"/>
<path d="M140.593 377.921L150.71 380.879C160.471 383.963 164.935 390.256 164.935 401.269V422.163C164.935 428.708 162.852 433.868 158.745 437.644C154.639 441.483 149.163 443.371 142.438 443.371C128.153 443.371 119.642 436.637 119.642 421.974V401.144H135.236V422.918C135.236 426.694 138.033 429.086 141.902 429.086C146.128 429.086 148.865 426.631 148.865 423.17V403.346C148.865 399.759 146.782 397.179 142.557 395.605L132.201 392.648C123.094 389.879 119.107 383.774 119.107 373.139V356.021C119.107 349.916 121.13 344.945 125.178 341.106C129.165 337.267 134.7 335.379 141.664 335.379C148.865 335.379 154.341 337.141 158.091 340.665C161.781 344.19 163.626 348.721 163.626 354.196V372.635H148.151V356.021C148.151 351.93 145.413 349.287 141.664 349.287C137.617 349.287 135.117 351.616 135.117 354.825V371.251C135.117 374.838 136.545 376.6 140.593 377.921Z"/>
<path d="M174.279 332.169V319.772H190.17V332.169H174.279ZM174.279 442.238V336.449H190.17V442.238H174.279Z"/>
<path d="M229.571 346.455L231.297 336.323H245.283L245.402 435.693C245.343 442.805 243.498 448.091 239.867 451.427C236.237 454.762 231.594 456.398 225.94 456.398H205.228V442.364H221.655C226.952 442.364 229.571 439.658 229.571 434.246V424.869C227.607 428.834 225.583 431.729 223.5 433.617C221.417 435.505 218.56 436.449 215.049 436.449C210.823 436.386 207.371 434.749 204.693 431.54C201.955 428.33 200.586 423.61 200.586 417.38V354.448C200.586 348.091 201.955 343.309 204.693 340.099C207.371 336.952 210.823 335.379 215.049 335.379C220.822 335.379 225.643 339.092 229.571 346.455ZM222.786 349.728C219.036 349.728 216.537 352.623 216.537 358.475V412.975C216.537 419.079 218.62 422.1 222.786 422.163C227.19 422.163 229.392 418.89 229.333 412.346V359.356C229.392 352.937 227.19 349.728 222.786 349.728Z"/>
<path d="M288.731 335.379C296.349 335.379 301.408 340.665 301.408 351.993V442.238H285.517V356.524C285.517 352.308 283.672 350.231 280.041 350.231C276.173 350.231 273.137 353.315 273.137 358.853V442.238H257.246V336.449H271.292L272.721 346.707C274.209 343.686 276.351 341.043 279.208 338.714C282.065 336.386 285.219 335.316 288.731 335.379Z"/>
</mask>
<path d="M13.1369 9H58.0732C83.6881 9 99.0349 25.8112 99.0349 56.048V187.852C99.0349 218.206 83.6881 234.9 58.0732 234.9H13.1369V9ZM68.6725 190.888V52.6624C68.6725 42.3889 63.4833 36.4349 55.6442 36.4349H43.1681V207.349H55.4234C63.2624 207.349 68.6725 201.512 68.6725 190.888Z" fill="#E0E0E0"/>
<path d="M160.643 36.6684C188.245 36.6684 202.046 51.8452 202.046 82.3155V139.053H147.946V191.822C147.946 204.313 152.362 210.501 161.305 210.501C169.365 210.501 173.34 205.598 173.34 195.908V151.195H202.046V198.126C202.046 209.567 198.403 218.906 191.005 226.145C183.608 233.383 173.671 237.002 161.305 237.002C133.372 237.002 118.136 220.307 118.136 190.888V85.0006C118.136 53.7131 133.593 36.6684 160.643 36.6684ZM160.864 62.4689C152.473 62.4689 147.946 69.7071 147.946 79.9806V114.187H172.788V79.9806C172.898 68.3062 168.924 62.4689 160.864 62.4689Z" fill="#E0E0E0"/>
<path d="M257.471 185.868H259.348L262.992 144.774L273.591 38.0694H304.064L275.578 234.9H240.8L212.535 38.0694H242.787L253.718 144.073L257.471 185.868Z" fill="#E0E0E0"/>
<path d="M160.65 277.203H174.16V289.664H160.65V304.516H148.449V289.664H134.76V277.203H148.449V262.477H160.65V277.203Z" fill="#E0E0E0"/>
<path d="M9 320.464H33.2235C47.0315 320.464 55.3044 329.526 55.3044 345.826V416.877C55.3044 433.239 47.0315 442.238 33.2235 442.238H9V320.464ZM38.9372 418.513V344.001C38.9372 338.463 36.1398 335.253 31.9141 335.253H25.1887V427.386H31.7951C36.0208 427.386 38.9372 424.24 38.9372 418.513Z" fill="#E0E0E0"/>
<path d="M88.515 335.379C103.394 335.379 110.834 343.56 110.834 359.986V390.571H81.6705V419.016C81.6705 425.75 84.0512 429.086 88.8721 429.086C93.2169 429.086 95.3595 426.442 95.3595 421.219V397.116H110.834V422.415C110.834 428.582 108.87 433.617 104.882 437.519C100.895 441.42 95.538 443.371 88.8721 443.371C73.8142 443.371 65.6009 434.372 65.6009 418.513V361.433C65.6009 344.567 73.9333 335.379 88.515 335.379ZM88.634 349.287C84.1107 349.287 81.6705 353.189 81.6705 358.727V377.166H95.0619V358.727C95.1214 352.434 92.9788 349.287 88.634 349.287Z" fill="#E0E0E0"/>
<path d="M140.593 377.921L150.71 380.879C160.471 383.963 164.935 390.256 164.935 401.269V422.163C164.935 428.708 162.852 433.868 158.745 437.644C154.639 441.483 149.163 443.371 142.438 443.371C128.153 443.371 119.642 436.637 119.642 421.974V401.144H135.236V422.918C135.236 426.694 138.033 429.086 141.902 429.086C146.128 429.086 148.865 426.631 148.865 423.17V403.346C148.865 399.759 146.782 397.179 142.557 395.605L132.201 392.648C123.094 389.879 119.107 383.774 119.107 373.139V356.021C119.107 349.916 121.13 344.945 125.178 341.106C129.165 337.267 134.7 335.379 141.664 335.379C148.865 335.379 154.341 337.141 158.091 340.665C161.781 344.19 163.626 348.721 163.626 354.196V372.635H148.151V356.021C148.151 351.93 145.413 349.287 141.664 349.287C137.617 349.287 135.117 351.616 135.117 354.825V371.251C135.117 374.838 136.545 376.6 140.593 377.921Z" fill="#E0E0E0"/>
<path d="M174.279 332.169V319.772H190.17V332.169H174.279ZM174.279 442.238V336.449H190.17V442.238H174.279Z" fill="#E0E0E0"/>
<path d="M229.571 346.455L231.297 336.323H245.283L245.402 435.693C245.343 442.805 243.498 448.091 239.867 451.427C236.237 454.762 231.594 456.398 225.94 456.398H205.228V442.364H221.655C226.952 442.364 229.571 439.658 229.571 434.246V424.869C227.607 428.834 225.583 431.729 223.5 433.617C221.417 435.505 218.56 436.449 215.049 436.449C210.823 436.386 207.371 434.749 204.693 431.54C201.955 428.33 200.586 423.61 200.586 417.38V354.448C200.586 348.091 201.955 343.309 204.693 340.099C207.371 336.952 210.823 335.379 215.049 335.379C220.822 335.379 225.643 339.092 229.571 346.455ZM222.786 349.728C219.036 349.728 216.537 352.623 216.537 358.475V412.975C216.537 419.079 218.62 422.1 222.786 422.163C227.19 422.163 229.392 418.89 229.333 412.346V359.356C229.392 352.937 227.19 349.728 222.786 349.728Z" fill="#E0E0E0"/>
<path d="M288.731 335.379C296.349 335.379 301.408 340.665 301.408 351.993V442.238H285.517V356.524C285.517 352.308 283.672 350.231 280.041 350.231C276.173 350.231 273.137 353.315 273.137 358.853V442.238H257.246V336.449H271.292L272.721 346.707C274.209 343.686 276.351 341.043 279.208 338.714C282.065 336.386 285.219 335.316 288.731 335.379Z" fill="#E0E0E0"/>
<path d="M13.1369 9H58.0732C83.6881 9 99.0349 25.8112 99.0349 56.048V187.852C99.0349 218.206 83.6881 234.9 58.0732 234.9H13.1369V9ZM68.6725 190.888V52.6624C68.6725 42.3889 63.4833 36.4349 55.6442 36.4349H43.1681V207.349H55.4234C63.2624 207.349 68.6725 201.512 68.6725 190.888Z" stroke="#EAEAEA" stroke-width="2" mask="url(#path-1-outside-1_79_1987)"/>
<path d="M160.643 36.6684C188.245 36.6684 202.046 51.8452 202.046 82.3155V139.053H147.946V191.822C147.946 204.313 152.362 210.501 161.305 210.501C169.365 210.501 173.34 205.598 173.34 195.908V151.195H202.046V198.126C202.046 209.567 198.403 218.906 191.005 226.145C183.608 233.383 173.671 237.002 161.305 237.002C133.372 237.002 118.136 220.307 118.136 190.888V85.0006C118.136 53.7131 133.593 36.6684 160.643 36.6684ZM160.864 62.4689C152.473 62.4689 147.946 69.7071 147.946 79.9806V114.187H172.788V79.9806C172.898 68.3062 168.924 62.4689 160.864 62.4689Z" stroke="#EAEAEA" stroke-width="2" mask="url(#path-1-outside-1_79_1987)"/>
<path d="M257.471 185.868H259.348L262.992 144.774L273.591 38.0694H304.064L275.578 234.9H240.8L212.535 38.0694H242.787L253.718 144.073L257.471 185.868Z" stroke="#EAEAEA" stroke-width="2" mask="url(#path-1-outside-1_79_1987)"/>
<path d="M160.65 277.203H174.16V289.664H160.65V304.516H148.449V289.664H134.76V277.203H148.449V262.477H160.65V277.203Z" stroke="#EAEAEA" stroke-width="2" mask="url(#path-1-outside-1_79_1987)"/>
<path d="M9 320.464H33.2235C47.0315 320.464 55.3044 329.526 55.3044 345.826V416.877C55.3044 433.239 47.0315 442.238 33.2235 442.238H9V320.464ZM38.9372 418.513V344.001C38.9372 338.463 36.1398 335.253 31.9141 335.253H25.1887V427.386H31.7951C36.0208 427.386 38.9372 424.24 38.9372 418.513Z" stroke="#EAEAEA" stroke-width="2" mask="url(#path-1-outside-1_79_1987)"/>
<path d="M88.515 335.379C103.394 335.379 110.834 343.56 110.834 359.986V390.571H81.6705V419.016C81.6705 425.75 84.0512 429.086 88.8721 429.086C93.2169 429.086 95.3595 426.442 95.3595 421.219V397.116H110.834V422.415C110.834 428.582 108.87 433.617 104.882 437.519C100.895 441.42 95.538 443.371 88.8721 443.371C73.8142 443.371 65.6009 434.372 65.6009 418.513V361.433C65.6009 344.567 73.9333 335.379 88.515 335.379ZM88.634 349.287C84.1107 349.287 81.6705 353.189 81.6705 358.727V377.166H95.0619V358.727C95.1214 352.434 92.9788 349.287 88.634 349.287Z" stroke="#EAEAEA" stroke-width="2" mask="url(#path-1-outside-1_79_1987)"/>
<path d="M140.593 377.921L150.71 380.879C160.471 383.963 164.935 390.256 164.935 401.269V422.163C164.935 428.708 162.852 433.868 158.745 437.644C154.639 441.483 149.163 443.371 142.438 443.371C128.153 443.371 119.642 436.637 119.642 421.974V401.144H135.236V422.918C135.236 426.694 138.033 429.086 141.902 429.086C146.128 429.086 148.865 426.631 148.865 423.17V403.346C148.865 399.759 146.782 397.179 142.557 395.605L132.201 392.648C123.094 389.879 119.107 383.774 119.107 373.139V356.021C119.107 349.916 121.13 344.945 125.178 341.106C129.165 337.267 134.7 335.379 141.664 335.379C148.865 335.379 154.341 337.141 158.091 340.665C161.781 344.19 163.626 348.721 163.626 354.196V372.635H148.151V356.021C148.151 351.93 145.413 349.287 141.664 349.287C137.617 349.287 135.117 351.616 135.117 354.825V371.251C135.117 374.838 136.545 376.6 140.593 377.921Z" stroke="#EAEAEA" stroke-width="2" mask="url(#path-1-outside-1_79_1987)"/>
<path d="M174.279 332.169V319.772H190.17V332.169H174.279ZM174.279 442.238V336.449H190.17V442.238H174.279Z" stroke="#EAEAEA" stroke-width="2" mask="url(#path-1-outside-1_79_1987)"/>
<path d="M229.571 346.455L231.297 336.323H245.283L245.402 435.693C245.343 442.805 243.498 448.091 239.867 451.427C236.237 454.762 231.594 456.398 225.94 456.398H205.228V442.364H221.655C226.952 442.364 229.571 439.658 229.571 434.246V424.869C227.607 428.834 225.583 431.729 223.5 433.617C221.417 435.505 218.56 436.449 215.049 436.449C210.823 436.386 207.371 434.749 204.693 431.54C201.955 428.33 200.586 423.61 200.586 417.38V354.448C200.586 348.091 201.955 343.309 204.693 340.099C207.371 336.952 210.823 335.379 215.049 335.379C220.822 335.379 225.643 339.092 229.571 346.455ZM222.786 349.728C219.036 349.728 216.537 352.623 216.537 358.475V412.975C216.537 419.079 218.62 422.1 222.786 422.163C227.19 422.163 229.392 418.89 229.333 412.346V359.356C229.392 352.937 227.19 349.728 222.786 349.728Z" stroke="#EAEAEA" stroke-width="2" mask="url(#path-1-outside-1_79_1987)"/>
<path d="M288.731 335.379C296.349 335.379 301.408 340.665 301.408 351.993V442.238H285.517V356.524C285.517 352.308 283.672 350.231 280.041 350.231C276.173 350.231 273.137 353.315 273.137 358.853V442.238H257.246V336.449H271.292L272.721 346.707C274.209 343.686 276.351 341.043 279.208 338.714C282.065 336.386 285.219 335.316 288.731 335.379Z" stroke="#EAEAEA" stroke-width="2" mask="url(#path-1-outside-1_79_1987)"/>
</g>
<defs>
<filter id="filter0_dd_79_1987" x="0" y="0" width="313.219" height="465.398" filterUnits="userSpaceOnUse" color-interpolation-filters="sRGB">
<feFlood flood-opacity="0" result="BackgroundImageFix"/>
<feColorMatrix in="SourceAlpha" type="matrix" values="0 0 0 0 0 0 0 0 0 0 0 0 0 0 0 0 0 0 127 0" result="hardAlpha"/>
<feOffset dx="-3" dy="-3"/>
<feGaussianBlur stdDeviation="2.5"/>
<feColorMatrix type="matrix" values="0 0 0 0 1 0 0 0 0 1 0 0 0 0 1 0 0 0 1 0"/>
<feBlend mode="normal" in2="BackgroundImageFix" result="effect1_dropShadow_79_1987"/>
<feColorMatrix in="SourceAlpha" type="matrix" values="0 0 0 0 0 0 0 0 0 0 0 0 0 0 0 0 0 0 127 0" result="hardAlpha"/>
<feOffset dx="3" dy="3"/>
<feGaussianBlur stdDeviation="2.5"/>
<feColorMatrix type="matrix" values="0 0 0 0 0.745098 0 0 0 0 0.745098 0 0 0 0 0.745098 0 0 0 1 0"/>
<feBlend mode="normal" in2="effect1_dropShadow_79_1987" result="effect2_dropShadow_79_1987"/>
<feBlend mode="normal" in="SourceGraphic" in2="effect2_dropShadow_79_1987" result="shape"/>
</filter>
</defs>
</svg>
