<svg width="292" height="45" viewBox="0 0 292 45" fill="none" xmlns="http://www.w3.org/2000/svg">
<mask id="path-1-outside-1_127_2782" maskUnits="userSpaceOnUse" x="0.901367" y="0.75" width="291" height="44" fill="black">
<rect fill="white" x="0.901367" y="0.75" width="291" height="44"/>
<path d="M1.90137 43V1.75H8.18262V18.4375H13.8076V1.75H20.0889V43H13.8076V23.8281H8.18262V43H1.90137Z"/>
<path d="M28.4326 43V7.1875H23.6045V1.75H39.3311V7.1875H34.6904V43H28.4326Z"/>
<path d="M42.8701 43V1.75H50.6748L56.5342 31.8906L62.042 1.75H69.8936V43H64.292V27.625L64.5264 13.5156L58.9717 42.8125H53.9795L48.1904 13.5156L48.4248 27.625V43H42.8701Z"/>
<path d="M76.1045 43V1.75H82.3857V37.6562H90.3311V43H76.1045Z"/>
<path d="M102.354 43V1.75H112.737C114.894 1.75 116.503 2.17188 117.565 3.01562C118.628 3.85938 119.323 5.09375 119.651 6.71875C119.995 8.34375 120.167 10.3281 120.167 12.6719C120.167 15.0938 119.917 17 119.417 18.3906C118.933 19.7656 117.933 20.6875 116.417 21.1562C117.136 21.2812 117.737 21.5781 118.222 22.0469C118.706 22.5 119.097 23.1719 119.394 24.0625C119.69 24.9375 119.901 26.0703 120.026 27.4609C120.167 28.8359 120.237 30.5234 120.237 32.5234C120.237 32.6797 120.237 33.1172 120.237 33.8359C120.237 34.5547 120.237 35.4062 120.237 36.3906C120.253 37.3594 120.269 38.3281 120.284 39.2969C120.3 40.2656 120.323 41.0938 120.354 41.7812C120.386 42.4688 120.425 42.875 120.472 43H114.19C114.144 42.9219 114.104 42.5234 114.073 41.8047C114.058 41.0703 114.034 40.1406 114.003 39.0156C113.987 37.8906 113.972 36.6797 113.956 35.3828C113.956 34.0859 113.956 32.8125 113.956 31.5625C113.956 30.2969 113.956 29.1797 113.956 28.2109C113.956 26.9766 113.862 26.0469 113.675 25.4219C113.503 24.7812 113.175 24.3359 112.69 24.0859C112.222 23.8359 111.542 23.6875 110.651 23.6406L108.636 23.5234V43H102.354ZM108.659 18.6484H111.167C111.933 18.6484 112.511 18.4766 112.901 18.1328C113.308 17.7891 113.581 17.1562 113.722 16.2344C113.878 15.3125 113.956 13.9844 113.956 12.25V11.9922C113.956 10.5391 113.886 9.42188 113.745 8.64062C113.604 7.85938 113.308 7.32031 112.854 7.02344C112.417 6.72656 111.729 6.57812 110.792 6.57812H108.659V18.6484Z"/>
<path d="M133.784 43.4219C132.019 43.4219 130.565 43.1406 129.425 42.5781C128.3 42.0156 127.417 41.2031 126.776 40.1406C126.151 39.0781 125.714 37.8047 125.464 36.3203C125.214 34.8203 125.089 33.1484 125.089 31.3047V18.2031C125.089 16.5625 125.253 15.0781 125.581 13.75C125.925 12.4219 126.448 11.2891 127.151 10.3516C127.87 9.41406 128.8 8.69531 129.94 8.19531C131.081 7.67969 132.456 7.42188 134.065 7.42188C135.706 7.42188 137.073 7.67188 138.167 8.17188C139.261 8.67188 140.12 9.39844 140.745 10.3516C141.386 11.3047 141.839 12.4531 142.104 13.7969C142.386 15.125 142.526 16.6328 142.526 18.3203V25.8438H131.347V32.7578C131.347 34.4609 131.479 35.8281 131.745 36.8594C132.011 37.8906 132.737 38.4062 133.925 38.4062C134.722 38.4062 135.284 38.1641 135.612 37.6797C135.956 37.1953 136.159 36.5312 136.222 35.6875C136.3 34.8281 136.339 33.8516 136.339 32.7578V29.6641H142.479V31.5391C142.479 33.4297 142.362 35.1094 142.128 36.5781C141.909 38.0469 141.487 39.2891 140.862 40.3047C140.253 41.3203 139.378 42.0938 138.237 42.625C137.097 43.1562 135.612 43.4219 133.784 43.4219ZM131.323 22.2109H136.339V17.7109C136.339 16.5391 136.284 15.5547 136.175 14.7578C136.065 13.9453 135.847 13.3359 135.519 12.9297C135.19 12.5234 134.69 12.3203 134.019 12.3203C133.19 12.3203 132.581 12.5625 132.19 13.0469C131.815 13.5312 131.573 14.1953 131.464 15.0391C131.37 15.8672 131.323 16.8125 131.323 17.875V22.2109Z"/>
<path d="M155.042 43.4453C152.214 43.4453 150.112 42.6406 148.737 41.0312C147.362 39.4219 146.675 36.7891 146.675 33.1328V30.8594H152.511V33.6953C152.511 35.2266 152.698 36.3906 153.073 37.1875C153.448 37.9844 154.058 38.3828 154.901 38.3828C155.714 38.3828 156.315 38.1094 156.706 37.5625C157.097 37.0156 157.292 36.0703 157.292 34.7266C157.292 33.9453 157.175 33.1875 156.94 32.4531C156.722 31.7188 156.37 31 155.886 30.2969C155.417 29.5781 154.808 28.8828 154.058 28.2109L150.894 25.3516C149.44 24.0391 148.354 22.625 147.636 21.1094C146.917 19.5781 146.558 17.8906 146.558 16.0469C146.558 13.0625 147.253 10.8828 148.644 9.50781C150.05 8.11719 152.128 7.42188 154.878 7.42188C156.659 7.42188 158.136 7.75781 159.308 8.42969C160.479 9.08594 161.354 10.1562 161.933 11.6406C162.511 13.125 162.8 15.1172 162.8 17.6172V19.5391H157.245V17.2188C157.245 15.6719 157.065 14.5 156.706 13.7031C156.362 12.9062 155.769 12.5078 154.925 12.5078C154.097 12.5078 153.487 12.7422 153.097 13.2109C152.706 13.6641 152.495 14.4688 152.464 15.625C152.448 16.25 152.526 16.8672 152.698 17.4766C152.87 18.0703 153.136 18.6562 153.495 19.2344C153.87 19.7969 154.354 20.3516 154.948 20.8984L158.276 23.9219C160.026 25.5 161.315 27.1484 162.144 28.8672C162.987 30.5859 163.409 32.4453 163.409 34.4453C163.409 37.3984 162.737 39.6406 161.394 41.1719C160.05 42.6875 157.933 43.4453 155.042 43.4453Z"/>
<path d="M176.276 43.4219C174.589 43.4219 173.175 43.1641 172.034 42.6484C170.894 42.1172 169.987 41.3594 169.315 40.375C168.659 39.375 168.183 38.1641 167.886 36.7422C167.604 35.3047 167.464 33.6719 167.464 31.8438V18.6953C167.464 16.4922 167.745 14.5469 168.308 12.8594C168.886 11.1562 169.823 9.82812 171.12 8.875C172.417 7.90625 174.136 7.42188 176.276 7.42188C177.901 7.42188 179.269 7.69531 180.378 8.24219C181.503 8.78906 182.401 9.57031 183.073 10.5859C183.761 11.5859 184.261 12.7734 184.573 14.1484C184.886 15.5234 185.042 17.0391 185.042 18.6953V31.8438C185.042 33.6406 184.901 35.25 184.62 36.6719C184.354 38.0938 183.886 39.3125 183.214 40.3281C182.558 41.3281 181.667 42.0938 180.542 42.625C179.417 43.1562 177.995 43.4219 176.276 43.4219ZM176.276 38.4062C176.979 38.4062 177.511 38.1953 177.87 37.7734C178.229 37.3359 178.472 36.7344 178.597 35.9688C178.722 35.2031 178.784 34.3203 178.784 33.3203V17.5938C178.784 16.5312 178.714 15.6172 178.573 14.8516C178.433 14.0859 178.183 13.4922 177.823 13.0703C177.464 12.6484 176.948 12.4375 176.276 12.4375C175.573 12.4375 175.034 12.6484 174.659 13.0703C174.3 13.4922 174.05 14.0859 173.909 14.8516C173.784 15.6172 173.722 16.5312 173.722 17.5938V33.3203C173.722 34.3203 173.784 35.2031 173.909 35.9688C174.05 36.7344 174.3 37.3359 174.659 37.7734C175.034 38.1953 175.573 38.4062 176.276 38.4062Z"/>
<path d="M196.737 43.4453C195.347 43.4453 194.183 43.1328 193.245 42.5078C192.323 41.8828 191.628 40.9531 191.159 39.7188C190.706 38.4688 190.479 36.9062 190.479 35.0312V7.84375H196.714V34.0703C196.714 35.4141 196.878 36.4609 197.206 37.2109C197.534 37.9609 198.222 38.3359 199.269 38.3359C200.362 38.3359 201.104 37.9141 201.495 37.0703C201.901 36.2109 202.104 35.2266 202.104 34.1172L202.128 7.84375H208.315V43H202.104V39.3438C201.667 40.5312 201.034 41.5156 200.206 42.2969C199.378 43.0625 198.222 43.4453 196.737 43.4453Z"/>
<path d="M214.386 43V7.84375H220.644V11.7578C221.05 10.3984 221.753 9.33594 222.753 8.57031C223.769 7.80469 225.058 7.42188 226.62 7.42188C226.651 7.42188 226.667 7.6875 226.667 8.21875C226.683 8.75 226.69 9.35938 226.69 10.0469C226.69 10.7344 226.69 11.3438 226.69 11.875C226.69 12.4062 226.69 12.6719 226.69 12.6719C225.972 12.6719 225.19 12.7578 224.347 12.9297C223.519 13.1016 222.761 13.3672 222.073 13.7266C221.401 14.0703 220.925 14.5312 220.644 15.1094V43H214.386Z"/>
<path d="M239.229 43.4219C237.433 43.4219 235.948 43.1484 234.776 42.6016C233.604 42.0391 232.683 41.2344 232.011 40.1875C231.354 39.1406 230.894 37.8672 230.628 36.3672C230.362 34.8672 230.229 33.1719 230.229 31.2812V19.8906C230.229 17.2969 230.472 15.0703 230.956 13.2109C231.44 11.3516 232.331 9.92188 233.628 8.92188C234.94 7.92188 236.831 7.42188 239.3 7.42188C240.815 7.42188 242.097 7.65625 243.144 8.125C244.19 8.59375 245.034 9.27344 245.675 10.1641C246.315 11.0391 246.776 12.1016 247.058 13.3516C247.354 14.6016 247.503 16.0078 247.503 17.5703V21.4375H241.503V17.3594C241.503 16.3438 241.456 15.4766 241.362 14.7578C241.269 14.0234 241.058 13.4688 240.729 13.0938C240.401 12.7031 239.878 12.5078 239.159 12.5078C238.456 12.5078 237.909 12.7031 237.519 13.0938C237.128 13.4844 236.854 14.0547 236.698 14.8047C236.558 15.5391 236.487 16.4219 236.487 17.4531V33.2969C236.487 34.3594 236.55 35.2656 236.675 36.0156C236.815 36.7656 237.065 37.3438 237.425 37.75C237.8 38.1406 238.347 38.3359 239.065 38.3359C239.769 38.3359 240.292 38.1328 240.636 37.7266C240.995 37.3047 241.229 36.7188 241.339 35.9688C241.448 35.2188 241.503 34.3359 241.503 33.3203V29.1484H247.503V32.7109C247.503 34.3203 247.362 35.7891 247.081 37.1172C246.8 38.4297 246.339 39.5547 245.698 40.4922C245.058 41.4297 244.206 42.1562 243.144 42.6719C242.081 43.1719 240.776 43.4219 239.229 43.4219Z"/>
<path d="M260.909 43.4219C259.144 43.4219 257.69 43.1406 256.55 42.5781C255.425 42.0156 254.542 41.2031 253.901 40.1406C253.276 39.0781 252.839 37.8047 252.589 36.3203C252.339 34.8203 252.214 33.1484 252.214 31.3047V18.2031C252.214 16.5625 252.378 15.0781 252.706 13.75C253.05 12.4219 253.573 11.2891 254.276 10.3516C254.995 9.41406 255.925 8.69531 257.065 8.19531C258.206 7.67969 259.581 7.42188 261.19 7.42188C262.831 7.42188 264.198 7.67188 265.292 8.17188C266.386 8.67188 267.245 9.39844 267.87 10.3516C268.511 11.3047 268.964 12.4531 269.229 13.7969C269.511 15.125 269.651 16.6328 269.651 18.3203V25.8438H258.472V32.7578C258.472 34.4609 258.604 35.8281 258.87 36.8594C259.136 37.8906 259.862 38.4062 261.05 38.4062C261.847 38.4062 262.409 38.1641 262.737 37.6797C263.081 37.1953 263.284 36.5312 263.347 35.6875C263.425 34.8281 263.464 33.8516 263.464 32.7578V29.6641H269.604V31.5391C269.604 33.4297 269.487 35.1094 269.253 36.5781C269.034 38.0469 268.612 39.2891 267.987 40.3047C267.378 41.3203 266.503 42.0938 265.362 42.625C264.222 43.1562 262.737 43.4219 260.909 43.4219ZM258.448 22.2109H263.464V17.7109C263.464 16.5391 263.409 15.5547 263.3 14.7578C263.19 13.9453 262.972 13.3359 262.644 12.9297C262.315 12.5234 261.815 12.3203 261.144 12.3203C260.315 12.3203 259.706 12.5625 259.315 13.0469C258.94 13.5312 258.698 14.1953 258.589 15.0391C258.495 15.8672 258.448 16.8125 258.448 17.875V22.2109Z"/>
<path d="M282.167 43.4453C279.339 43.4453 277.237 42.6406 275.862 41.0312C274.487 39.4219 273.8 36.7891 273.8 33.1328V30.8594H279.636V33.6953C279.636 35.2266 279.823 36.3906 280.198 37.1875C280.573 37.9844 281.183 38.3828 282.026 38.3828C282.839 38.3828 283.44 38.1094 283.831 37.5625C284.222 37.0156 284.417 36.0703 284.417 34.7266C284.417 33.9453 284.3 33.1875 284.065 32.4531C283.847 31.7188 283.495 31 283.011 30.2969C282.542 29.5781 281.933 28.8828 281.183 28.2109L278.019 25.3516C276.565 24.0391 275.479 22.625 274.761 21.1094C274.042 19.5781 273.683 17.8906 273.683 16.0469C273.683 13.0625 274.378 10.8828 275.769 9.50781C277.175 8.11719 279.253 7.42188 282.003 7.42188C283.784 7.42188 285.261 7.75781 286.433 8.42969C287.604 9.08594 288.479 10.1562 289.058 11.6406C289.636 13.125 289.925 15.1172 289.925 17.6172V19.5391H284.37V17.2188C284.37 15.6719 284.19 14.5 283.831 13.7031C283.487 12.9062 282.894 12.5078 282.05 12.5078C281.222 12.5078 280.612 12.7422 280.222 13.2109C279.831 13.6641 279.62 14.4688 279.589 15.625C279.573 16.25 279.651 16.8672 279.823 17.4766C279.995 18.0703 280.261 18.6562 280.62 19.2344C280.995 19.7969 281.479 20.3516 282.073 20.8984L285.401 23.9219C287.151 25.5 288.44 27.1484 289.269 28.8672C290.112 30.5859 290.534 32.4453 290.534 34.4453C290.534 37.3984 289.862 39.6406 288.519 41.1719C287.175 42.6875 285.058 43.4453 282.167 43.4453Z"/>
</mask>
<g filter="url(#filter0_ii_127_2782)">
<path d="M1.90137 43V1.75H8.18262V18.4375H13.8076V1.75H20.0889V43H13.8076V23.8281H8.18262V43H1.90137Z" fill="#D1DADB"/>
<path d="M28.4326 43V7.1875H23.6045V1.75H39.3311V7.1875H34.6904V43H28.4326Z" fill="#D1DADB"/>
<path d="M42.8701 43V1.75H50.6748L56.5342 31.8906L62.042 1.75H69.8936V43H64.292V27.625L64.5264 13.5156L58.9717 42.8125H53.9795L48.1904 13.5156L48.4248 27.625V43H42.8701Z" fill="#D1DADB"/>
<path d="M76.1045 43V1.75H82.3857V37.6562H90.3311V43H76.1045Z" fill="#D1DADB"/>
<path d="M102.354 43V1.75H112.737C114.894 1.75 116.503 2.17188 117.565 3.01562C118.628 3.85938 119.323 5.09375 119.651 6.71875C119.995 8.34375 120.167 10.3281 120.167 12.6719C120.167 15.0938 119.917 17 119.417 18.3906C118.933 19.7656 117.933 20.6875 116.417 21.1562C117.136 21.2812 117.737 21.5781 118.222 22.0469C118.706 22.5 119.097 23.1719 119.394 24.0625C119.69 24.9375 119.901 26.0703 120.026 27.4609C120.167 28.8359 120.237 30.5234 120.237 32.5234C120.237 32.6797 120.237 33.1172 120.237 33.8359C120.237 34.5547 120.237 35.4062 120.237 36.3906C120.253 37.3594 120.269 38.3281 120.284 39.2969C120.3 40.2656 120.323 41.0938 120.354 41.7812C120.386 42.4688 120.425 42.875 120.472 43H114.19C114.144 42.9219 114.104 42.5234 114.073 41.8047C114.058 41.0703 114.034 40.1406 114.003 39.0156C113.987 37.8906 113.972 36.6797 113.956 35.3828C113.956 34.0859 113.956 32.8125 113.956 31.5625C113.956 30.2969 113.956 29.1797 113.956 28.2109C113.956 26.9766 113.862 26.0469 113.675 25.4219C113.503 24.7812 113.175 24.3359 112.69 24.0859C112.222 23.8359 111.542 23.6875 110.651 23.6406L108.636 23.5234V43H102.354ZM108.659 18.6484H111.167C111.933 18.6484 112.511 18.4766 112.901 18.1328C113.308 17.7891 113.581 17.1562 113.722 16.2344C113.878 15.3125 113.956 13.9844 113.956 12.25V11.9922C113.956 10.5391 113.886 9.42188 113.745 8.64062C113.604 7.85938 113.308 7.32031 112.854 7.02344C112.417 6.72656 111.729 6.57812 110.792 6.57812H108.659V18.6484Z" fill="#D1DADB"/>
<path d="M133.784 43.4219C132.019 43.4219 130.565 43.1406 129.425 42.5781C128.3 42.0156 127.417 41.2031 126.776 40.1406C126.151 39.0781 125.714 37.8047 125.464 36.3203C125.214 34.8203 125.089 33.1484 125.089 31.3047V18.2031C125.089 16.5625 125.253 15.0781 125.581 13.75C125.925 12.4219 126.448 11.2891 127.151 10.3516C127.87 9.41406 128.8 8.69531 129.94 8.19531C131.081 7.67969 132.456 7.42188 134.065 7.42188C135.706 7.42188 137.073 7.67188 138.167 8.17188C139.261 8.67188 140.12 9.39844 140.745 10.3516C141.386 11.3047 141.839 12.4531 142.104 13.7969C142.386 15.125 142.526 16.6328 142.526 18.3203V25.8438H131.347V32.7578C131.347 34.4609 131.479 35.8281 131.745 36.8594C132.011 37.8906 132.737 38.4062 133.925 38.4062C134.722 38.4062 135.284 38.1641 135.612 37.6797C135.956 37.1953 136.159 36.5312 136.222 35.6875C136.3 34.8281 136.339 33.8516 136.339 32.7578V29.6641H142.479V31.5391C142.479 33.4297 142.362 35.1094 142.128 36.5781C141.909 38.0469 141.487 39.2891 140.862 40.3047C140.253 41.3203 139.378 42.0938 138.237 42.625C137.097 43.1562 135.612 43.4219 133.784 43.4219ZM131.323 22.2109H136.339V17.7109C136.339 16.5391 136.284 15.5547 136.175 14.7578C136.065 13.9453 135.847 13.3359 135.519 12.9297C135.19 12.5234 134.69 12.3203 134.019 12.3203C133.19 12.3203 132.581 12.5625 132.19 13.0469C131.815 13.5312 131.573 14.1953 131.464 15.0391C131.37 15.8672 131.323 16.8125 131.323 17.875V22.2109Z" fill="#D1DADB"/>
<path d="M155.042 43.4453C152.214 43.4453 150.112 42.6406 148.737 41.0312C147.362 39.4219 146.675 36.7891 146.675 33.1328V30.8594H152.511V33.6953C152.511 35.2266 152.698 36.3906 153.073 37.1875C153.448 37.9844 154.058 38.3828 154.901 38.3828C155.714 38.3828 156.315 38.1094 156.706 37.5625C157.097 37.0156 157.292 36.0703 157.292 34.7266C157.292 33.9453 157.175 33.1875 156.94 32.4531C156.722 31.7188 156.37 31 155.886 30.2969C155.417 29.5781 154.808 28.8828 154.058 28.2109L150.894 25.3516C149.44 24.0391 148.354 22.625 147.636 21.1094C146.917 19.5781 146.558 17.8906 146.558 16.0469C146.558 13.0625 147.253 10.8828 148.644 9.50781C150.05 8.11719 152.128 7.42188 154.878 7.42188C156.659 7.42188 158.136 7.75781 159.308 8.42969C160.479 9.08594 161.354 10.1562 161.933 11.6406C162.511 13.125 162.8 15.1172 162.8 17.6172V19.5391H157.245V17.2188C157.245 15.6719 157.065 14.5 156.706 13.7031C156.362 12.9062 155.769 12.5078 154.925 12.5078C154.097 12.5078 153.487 12.7422 153.097 13.2109C152.706 13.6641 152.495 14.4688 152.464 15.625C152.448 16.25 152.526 16.8672 152.698 17.4766C152.87 18.0703 153.136 18.6562 153.495 19.2344C153.87 19.7969 154.354 20.3516 154.948 20.8984L158.276 23.9219C160.026 25.5 161.315 27.1484 162.144 28.8672C162.987 30.5859 163.409 32.4453 163.409 34.4453C163.409 37.3984 162.737 39.6406 161.394 41.1719C160.05 42.6875 157.933 43.4453 155.042 43.4453Z" fill="#D1DADB"/>
<path d="M176.276 43.4219C174.589 43.4219 173.175 43.1641 172.034 42.6484C170.894 42.1172 169.987 41.3594 169.315 40.375C168.659 39.375 168.183 38.1641 167.886 36.7422C167.604 35.3047 167.464 33.6719 167.464 31.8438V18.6953C167.464 16.4922 167.745 14.5469 168.308 12.8594C168.886 11.1562 169.823 9.82812 171.12 8.875C172.417 7.90625 174.136 7.42188 176.276 7.42188C177.901 7.42188 179.269 7.69531 180.378 8.24219C181.503 8.78906 182.401 9.57031 183.073 10.5859C183.761 11.5859 184.261 12.7734 184.573 14.1484C184.886 15.5234 185.042 17.0391 185.042 18.6953V31.8438C185.042 33.6406 184.901 35.25 184.62 36.6719C184.354 38.0938 183.886 39.3125 183.214 40.3281C182.558 41.3281 181.667 42.0938 180.542 42.625C179.417 43.1562 177.995 43.4219 176.276 43.4219ZM176.276 38.4062C176.979 38.4062 177.511 38.1953 177.87 37.7734C178.229 37.3359 178.472 36.7344 178.597 35.9688C178.722 35.2031 178.784 34.3203 178.784 33.3203V17.5938C178.784 16.5312 178.714 15.6172 178.573 14.8516C178.433 14.0859 178.183 13.4922 177.823 13.0703C177.464 12.6484 176.948 12.4375 176.276 12.4375C175.573 12.4375 175.034 12.6484 174.659 13.0703C174.3 13.4922 174.05 14.0859 173.909 14.8516C173.784 15.6172 173.722 16.5312 173.722 17.5938V33.3203C173.722 34.3203 173.784 35.2031 173.909 35.9688C174.05 36.7344 174.3 37.3359 174.659 37.7734C175.034 38.1953 175.573 38.4062 176.276 38.4062Z" fill="#D1DADB"/>
<path d="M196.737 43.4453C195.347 43.4453 194.183 43.1328 193.245 42.5078C192.323 41.8828 191.628 40.9531 191.159 39.7188C190.706 38.4688 190.479 36.9062 190.479 35.0312V7.84375H196.714V34.0703C196.714 35.4141 196.878 36.4609 197.206 37.2109C197.534 37.9609 198.222 38.3359 199.269 38.3359C200.362 38.3359 201.104 37.9141 201.495 37.0703C201.901 36.2109 202.104 35.2266 202.104 34.1172L202.128 7.84375H208.315V43H202.104V39.3438C201.667 40.5312 201.034 41.5156 200.206 42.2969C199.378 43.0625 198.222 43.4453 196.737 43.4453Z" fill="#D1DADB"/>
<path d="M214.386 43V7.84375H220.644V11.7578C221.05 10.3984 221.753 9.33594 222.753 8.57031C223.769 7.80469 225.058 7.42188 226.62 7.42188C226.651 7.42188 226.667 7.6875 226.667 8.21875C226.683 8.75 226.69 9.35938 226.69 10.0469C226.69 10.7344 226.69 11.3438 226.69 11.875C226.69 12.4062 226.69 12.6719 226.69 12.6719C225.972 12.6719 225.19 12.7578 224.347 12.9297C223.519 13.1016 222.761 13.3672 222.073 13.7266C221.401 14.0703 220.925 14.5312 220.644 15.1094V43H214.386Z" fill="#D1DADB"/>
<path d="M239.229 43.4219C237.433 43.4219 235.948 43.1484 234.776 42.6016C233.604 42.0391 232.683 41.2344 232.011 40.1875C231.354 39.1406 230.894 37.8672 230.628 36.3672C230.362 34.8672 230.229 33.1719 230.229 31.2812V19.8906C230.229 17.2969 230.472 15.0703 230.956 13.2109C231.44 11.3516 232.331 9.92188 233.628 8.92188C234.94 7.92188 236.831 7.42188 239.3 7.42188C240.815 7.42188 242.097 7.65625 243.144 8.125C244.19 8.59375 245.034 9.27344 245.675 10.1641C246.315 11.0391 246.776 12.1016 247.058 13.3516C247.354 14.6016 247.503 16.0078 247.503 17.5703V21.4375H241.503V17.3594C241.503 16.3438 241.456 15.4766 241.362 14.7578C241.269 14.0234 241.058 13.4688 240.729 13.0938C240.401 12.7031 239.878 12.5078 239.159 12.5078C238.456 12.5078 237.909 12.7031 237.519 13.0938C237.128 13.4844 236.854 14.0547 236.698 14.8047C236.558 15.5391 236.487 16.4219 236.487 17.4531V33.2969C236.487 34.3594 236.55 35.2656 236.675 36.0156C236.815 36.7656 237.065 37.3438 237.425 37.75C237.8 38.1406 238.347 38.3359 239.065 38.3359C239.769 38.3359 240.292 38.1328 240.636 37.7266C240.995 37.3047 241.229 36.7188 241.339 35.9688C241.448 35.2188 241.503 34.3359 241.503 33.3203V29.1484H247.503V32.7109C247.503 34.3203 247.362 35.7891 247.081 37.1172C246.8 38.4297 246.339 39.5547 245.698 40.4922C245.058 41.4297 244.206 42.1562 243.144 42.6719C242.081 43.1719 240.776 43.4219 239.229 43.4219Z" fill="#D1DADB"/>
<path d="M260.909 43.4219C259.144 43.4219 257.69 43.1406 256.55 42.5781C255.425 42.0156 254.542 41.2031 253.901 40.1406C253.276 39.0781 252.839 37.8047 252.589 36.3203C252.339 34.8203 252.214 33.1484 252.214 31.3047V18.2031C252.214 16.5625 252.378 15.0781 252.706 13.75C253.05 12.4219 253.573 11.2891 254.276 10.3516C254.995 9.41406 255.925 8.69531 257.065 8.19531C258.206 7.67969 259.581 7.42188 261.19 7.42188C262.831 7.42188 264.198 7.67188 265.292 8.17188C266.386 8.67188 267.245 9.39844 267.87 10.3516C268.511 11.3047 268.964 12.4531 269.229 13.7969C269.511 15.125 269.651 16.6328 269.651 18.3203V25.8438H258.472V32.7578C258.472 34.4609 258.604 35.8281 258.87 36.8594C259.136 37.8906 259.862 38.4062 261.05 38.4062C261.847 38.4062 262.409 38.1641 262.737 37.6797C263.081 37.1953 263.284 36.5312 263.347 35.6875C263.425 34.8281 263.464 33.8516 263.464 32.7578V29.6641H269.604V31.5391C269.604 33.4297 269.487 35.1094 269.253 36.5781C269.034 38.0469 268.612 39.2891 267.987 40.3047C267.378 41.3203 266.503 42.0938 265.362 42.625C264.222 43.1562 262.737 43.4219 260.909 43.4219ZM258.448 22.2109H263.464V17.7109C263.464 16.5391 263.409 15.5547 263.3 14.7578C263.19 13.9453 262.972 13.3359 262.644 12.9297C262.315 12.5234 261.815 12.3203 261.144 12.3203C260.315 12.3203 259.706 12.5625 259.315 13.0469C258.94 13.5312 258.698 14.1953 258.589 15.0391C258.495 15.8672 258.448 16.8125 258.448 17.875V22.2109Z" fill="#D1DADB"/>
<path d="M282.167 43.4453C279.339 43.4453 277.237 42.6406 275.862 41.0312C274.487 39.4219 273.8 36.7891 273.8 33.1328V30.8594H279.636V33.6953C279.636 35.2266 279.823 36.3906 280.198 37.1875C280.573 37.9844 281.183 38.3828 282.026 38.3828C282.839 38.3828 283.44 38.1094 283.831 37.5625C284.222 37.0156 284.417 36.0703 284.417 34.7266C284.417 33.9453 284.3 33.1875 284.065 32.4531C283.847 31.7188 283.495 31 283.011 30.2969C282.542 29.5781 281.933 28.8828 281.183 28.2109L278.019 25.3516C276.565 24.0391 275.479 22.625 274.761 21.1094C274.042 19.5781 273.683 17.8906 273.683 16.0469C273.683 13.0625 274.378 10.8828 275.769 9.50781C277.175 8.11719 279.253 7.42188 282.003 7.42188C283.784 7.42188 285.261 7.75781 286.433 8.42969C287.604 9.08594 288.479 10.1562 289.058 11.6406C289.636 13.125 289.925 15.1172 289.925 17.6172V19.5391H284.37V17.2188C284.37 15.6719 284.19 14.5 283.831 13.7031C283.487 12.9062 282.894 12.5078 282.05 12.5078C281.222 12.5078 280.612 12.7422 280.222 13.2109C279.831 13.6641 279.62 14.4688 279.589 15.625C279.573 16.25 279.651 16.8672 279.823 17.4766C279.995 18.0703 280.261 18.6562 280.62 19.2344C280.995 19.7969 281.479 20.3516 282.073 20.8984L285.401 23.9219C287.151 25.5 288.44 27.1484 289.269 28.8672C290.112 30.5859 290.534 32.4453 290.534 34.4453C290.534 37.3984 289.862 39.6406 288.519 41.1719C287.175 42.6875 285.058 43.4453 282.167 43.4453Z" fill="#D1DADB"/>
</g>
<path d="M1.90137 43V1.75H8.18262V18.4375H13.8076V1.75H20.0889V43H13.8076V23.8281H8.18262V43H1.90137Z" stroke="#D9E6E7" stroke-width="2" mask="url(#path-1-outside-1_127_2782)"/>
<path d="M28.4326 43V7.1875H23.6045V1.75H39.3311V7.1875H34.6904V43H28.4326Z" stroke="#D9E6E7" stroke-width="2" mask="url(#path-1-outside-1_127_2782)"/>
<path d="M42.8701 43V1.75H50.6748L56.5342 31.8906L62.042 1.75H69.8936V43H64.292V27.625L64.5264 13.5156L58.9717 42.8125H53.9795L48.1904 13.5156L48.4248 27.625V43H42.8701Z" stroke="#D9E6E7" stroke-width="2" mask="url(#path-1-outside-1_127_2782)"/>
<path d="M76.1045 43V1.75H82.3857V37.6562H90.3311V43H76.1045Z" stroke="#D9E6E7" stroke-width="2" mask="url(#path-1-outside-1_127_2782)"/>
<path d="M102.354 43V1.75H112.737C114.894 1.75 116.503 2.17188 117.565 3.01562C118.628 3.85938 119.323 5.09375 119.651 6.71875C119.995 8.34375 120.167 10.3281 120.167 12.6719C120.167 15.0938 119.917 17 119.417 18.3906C118.933 19.7656 117.933 20.6875 116.417 21.1562C117.136 21.2812 117.737 21.5781 118.222 22.0469C118.706 22.5 119.097 23.1719 119.394 24.0625C119.69 24.9375 119.901 26.0703 120.026 27.4609C120.167 28.8359 120.237 30.5234 120.237 32.5234C120.237 32.6797 120.237 33.1172 120.237 33.8359C120.237 34.5547 120.237 35.4062 120.237 36.3906C120.253 37.3594 120.269 38.3281 120.284 39.2969C120.3 40.2656 120.323 41.0938 120.354 41.7812C120.386 42.4688 120.425 42.875 120.472 43H114.19C114.144 42.9219 114.104 42.5234 114.073 41.8047C114.058 41.0703 114.034 40.1406 114.003 39.0156C113.987 37.8906 113.972 36.6797 113.956 35.3828C113.956 34.0859 113.956 32.8125 113.956 31.5625C113.956 30.2969 113.956 29.1797 113.956 28.2109C113.956 26.9766 113.862 26.0469 113.675 25.4219C113.503 24.7812 113.175 24.3359 112.69 24.0859C112.222 23.8359 111.542 23.6875 110.651 23.6406L108.636 23.5234V43H102.354ZM108.659 18.6484H111.167C111.933 18.6484 112.511 18.4766 112.901 18.1328C113.308 17.7891 113.581 17.1562 113.722 16.2344C113.878 15.3125 113.956 13.9844 113.956 12.25V11.9922C113.956 10.5391 113.886 9.42188 113.745 8.64062C113.604 7.85938 113.308 7.32031 112.854 7.02344C112.417 6.72656 111.729 6.57812 110.792 6.57812H108.659V18.6484Z" stroke="#D9E6E7" stroke-width="2" mask="url(#path-1-outside-1_127_2782)"/>
<path d="M133.784 43.4219C132.019 43.4219 130.565 43.1406 129.425 42.5781C128.3 42.0156 127.417 41.2031 126.776 40.1406C126.151 39.0781 125.714 37.8047 125.464 36.3203C125.214 34.8203 125.089 33.1484 125.089 31.3047V18.2031C125.089 16.5625 125.253 15.0781 125.581 13.75C125.925 12.4219 126.448 11.2891 127.151 10.3516C127.87 9.41406 128.8 8.69531 129.94 8.19531C131.081 7.67969 132.456 7.42188 134.065 7.42188C135.706 7.42188 137.073 7.67188 138.167 8.17188C139.261 8.67188 140.12 9.39844 140.745 10.3516C141.386 11.3047 141.839 12.4531 142.104 13.7969C142.386 15.125 142.526 16.6328 142.526 18.3203V25.8438H131.347V32.7578C131.347 34.4609 131.479 35.8281 131.745 36.8594C132.011 37.8906 132.737 38.4062 133.925 38.4062C134.722 38.4062 135.284 38.1641 135.612 37.6797C135.956 37.1953 136.159 36.5312 136.222 35.6875C136.3 34.8281 136.339 33.8516 136.339 32.7578V29.6641H142.479V31.5391C142.479 33.4297 142.362 35.1094 142.128 36.5781C141.909 38.0469 141.487 39.2891 140.862 40.3047C140.253 41.3203 139.378 42.0938 138.237 42.625C137.097 43.1562 135.612 43.4219 133.784 43.4219ZM131.323 22.2109H136.339V17.7109C136.339 16.5391 136.284 15.5547 136.175 14.7578C136.065 13.9453 135.847 13.3359 135.519 12.9297C135.19 12.5234 134.69 12.3203 134.019 12.3203C133.19 12.3203 132.581 12.5625 132.19 13.0469C131.815 13.5312 131.573 14.1953 131.464 15.0391C131.37 15.8672 131.323 16.8125 131.323 17.875V22.2109Z" stroke="#D9E6E7" stroke-width="2" mask="url(#path-1-outside-1_127_2782)"/>
<path d="M155.042 43.4453C152.214 43.4453 150.112 42.6406 148.737 41.0312C147.362 39.4219 146.675 36.7891 146.675 33.1328V30.8594H152.511V33.6953C152.511 35.2266 152.698 36.3906 153.073 37.1875C153.448 37.9844 154.058 38.3828 154.901 38.3828C155.714 38.3828 156.315 38.1094 156.706 37.5625C157.097 37.0156 157.292 36.0703 157.292 34.7266C157.292 33.9453 157.175 33.1875 156.94 32.4531C156.722 31.7188 156.37 31 155.886 30.2969C155.417 29.5781 154.808 28.8828 154.058 28.2109L150.894 25.3516C149.44 24.0391 148.354 22.625 147.636 21.1094C146.917 19.5781 146.558 17.8906 146.558 16.0469C146.558 13.0625 147.253 10.8828 148.644 9.50781C150.05 8.11719 152.128 7.42188 154.878 7.42188C156.659 7.42188 158.136 7.75781 159.308 8.42969C160.479 9.08594 161.354 10.1562 161.933 11.6406C162.511 13.125 162.8 15.1172 162.8 17.6172V19.5391H157.245V17.2188C157.245 15.6719 157.065 14.5 156.706 13.7031C156.362 12.9062 155.769 12.5078 154.925 12.5078C154.097 12.5078 153.487 12.7422 153.097 13.2109C152.706 13.6641 152.495 14.4688 152.464 15.625C152.448 16.25 152.526 16.8672 152.698 17.4766C152.87 18.0703 153.136 18.6562 153.495 19.2344C153.87 19.7969 154.354 20.3516 154.948 20.8984L158.276 23.9219C160.026 25.5 161.315 27.1484 162.144 28.8672C162.987 30.5859 163.409 32.4453 163.409 34.4453C163.409 37.3984 162.737 39.6406 161.394 41.1719C160.05 42.6875 157.933 43.4453 155.042 43.4453Z" stroke="#D9E6E7" stroke-width="2" mask="url(#path-1-outside-1_127_2782)"/>
<path d="M176.276 43.4219C174.589 43.4219 173.175 43.1641 172.034 42.6484C170.894 42.1172 169.987 41.3594 169.315 40.375C168.659 39.375 168.183 38.1641 167.886 36.7422C167.604 35.3047 167.464 33.6719 167.464 31.8438V18.6953C167.464 16.4922 167.745 14.5469 168.308 12.8594C168.886 11.1562 169.823 9.82812 171.12 8.875C172.417 7.90625 174.136 7.42188 176.276 7.42188C177.901 7.42188 179.269 7.69531 180.378 8.24219C181.503 8.78906 182.401 9.57031 183.073 10.5859C183.761 11.5859 184.261 12.7734 184.573 14.1484C184.886 15.5234 185.042 17.0391 185.042 18.6953V31.8438C185.042 33.6406 184.901 35.25 184.62 36.6719C184.354 38.0938 183.886 39.3125 183.214 40.3281C182.558 41.3281 181.667 42.0938 180.542 42.625C179.417 43.1562 177.995 43.4219 176.276 43.4219ZM176.276 38.4062C176.979 38.4062 177.511 38.1953 177.87 37.7734C178.229 37.3359 178.472 36.7344 178.597 35.9688C178.722 35.2031 178.784 34.3203 178.784 33.3203V17.5938C178.784 16.5312 178.714 15.6172 178.573 14.8516C178.433 14.0859 178.183 13.4922 177.823 13.0703C177.464 12.6484 176.948 12.4375 176.276 12.4375C175.573 12.4375 175.034 12.6484 174.659 13.0703C174.3 13.4922 174.05 14.0859 173.909 14.8516C173.784 15.6172 173.722 16.5312 173.722 17.5938V33.3203C173.722 34.3203 173.784 35.2031 173.909 35.9688C174.05 36.7344 174.3 37.3359 174.659 37.7734C175.034 38.1953 175.573 38.4062 176.276 38.4062Z" stroke="#D9E6E7" stroke-width="2" mask="url(#path-1-outside-1_127_2782)"/>
<path d="M196.737 43.4453C195.347 43.4453 194.183 43.1328 193.245 42.5078C192.323 41.8828 191.628 40.9531 191.159 39.7188C190.706 38.4688 190.479 36.9062 190.479 35.0312V7.84375H196.714V34.0703C196.714 35.4141 196.878 36.4609 197.206 37.2109C197.534 37.9609 198.222 38.3359 199.269 38.3359C200.362 38.3359 201.104 37.9141 201.495 37.0703C201.901 36.2109 202.104 35.2266 202.104 34.1172L202.128 7.84375H208.315V43H202.104V39.3438C201.667 40.5312 201.034 41.5156 200.206 42.2969C199.378 43.0625 198.222 43.4453 196.737 43.4453Z" stroke="#D9E6E7" stroke-width="2" mask="url(#path-1-outside-1_127_2782)"/>
<path d="M214.386 43V7.84375H220.644V11.7578C221.05 10.3984 221.753 9.33594 222.753 8.57031C223.769 7.80469 225.058 7.42188 226.62 7.42188C226.651 7.42188 226.667 7.6875 226.667 8.21875C226.683 8.75 226.69 9.35938 226.69 10.0469C226.69 10.7344 226.69 11.3438 226.69 11.875C226.69 12.4062 226.69 12.6719 226.69 12.6719C225.972 12.6719 225.19 12.7578 224.347 12.9297C223.519 13.1016 222.761 13.3672 222.073 13.7266C221.401 14.0703 220.925 14.5312 220.644 15.1094V43H214.386Z" stroke="#D9E6E7" stroke-width="2" mask="url(#path-1-outside-1_127_2782)"/>
<path d="M239.229 43.4219C237.433 43.4219 235.948 43.1484 234.776 42.6016C233.604 42.0391 232.683 41.2344 232.011 40.1875C231.354 39.1406 230.894 37.8672 230.628 36.3672C230.362 34.8672 230.229 33.1719 230.229 31.2812V19.8906C230.229 17.2969 230.472 15.0703 230.956 13.2109C231.44 11.3516 232.331 9.92188 233.628 8.92188C234.94 7.92188 236.831 7.42188 239.3 7.42188C240.815 7.42188 242.097 7.65625 243.144 8.125C244.19 8.59375 245.034 9.27344 245.675 10.1641C246.315 11.0391 246.776 12.1016 247.058 13.3516C247.354 14.6016 247.503 16.0078 247.503 17.5703V21.4375H241.503V17.3594C241.503 16.3438 241.456 15.4766 241.362 14.7578C241.269 14.0234 241.058 13.4688 240.729 13.0938C240.401 12.7031 239.878 12.5078 239.159 12.5078C238.456 12.5078 237.909 12.7031 237.519 13.0938C237.128 13.4844 236.854 14.0547 236.698 14.8047C236.558 15.5391 236.487 16.4219 236.487 17.4531V33.2969C236.487 34.3594 236.55 35.2656 236.675 36.0156C236.815 36.7656 237.065 37.3438 237.425 37.75C237.8 38.1406 238.347 38.3359 239.065 38.3359C239.769 38.3359 240.292 38.1328 240.636 37.7266C240.995 37.3047 241.229 36.7188 241.339 35.9688C241.448 35.2188 241.503 34.3359 241.503 33.3203V29.1484H247.503V32.7109C247.503 34.3203 247.362 35.7891 247.081 37.1172C246.8 38.4297 246.339 39.5547 245.698 40.4922C245.058 41.4297 244.206 42.1562 243.144 42.6719C242.081 43.1719 240.776 43.4219 239.229 43.4219Z" stroke="#D9E6E7" stroke-width="2" mask="url(#path-1-outside-1_127_2782)"/>
<path d="M260.909 43.4219C259.144 43.4219 257.69 43.1406 256.55 42.5781C255.425 42.0156 254.542 41.2031 253.901 40.1406C253.276 39.0781 252.839 37.8047 252.589 36.3203C252.339 34.8203 252.214 33.1484 252.214 31.3047V18.2031C252.214 16.5625 252.378 15.0781 252.706 13.75C253.05 12.4219 253.573 11.2891 254.276 10.3516C254.995 9.41406 255.925 8.69531 257.065 8.19531C258.206 7.67969 259.581 7.42188 261.19 7.42188C262.831 7.42188 264.198 7.67188 265.292 8.17188C266.386 8.67188 267.245 9.39844 267.87 10.3516C268.511 11.3047 268.964 12.4531 269.229 13.7969C269.511 15.125 269.651 16.6328 269.651 18.3203V25.8438H258.472V32.7578C258.472 34.4609 258.604 35.8281 258.87 36.8594C259.136 37.8906 259.862 38.4062 261.05 38.4062C261.847 38.4062 262.409 38.1641 262.737 37.6797C263.081 37.1953 263.284 36.5312 263.347 35.6875C263.425 34.8281 263.464 33.8516 263.464 32.7578V29.6641H269.604V31.5391C269.604 33.4297 269.487 35.1094 269.253 36.5781C269.034 38.0469 268.612 39.2891 267.987 40.3047C267.378 41.3203 266.503 42.0938 265.362 42.625C264.222 43.1562 262.737 43.4219 260.909 43.4219ZM258.448 22.2109H263.464V17.7109C263.464 16.5391 263.409 15.5547 263.3 14.7578C263.19 13.9453 262.972 13.3359 262.644 12.9297C262.315 12.5234 261.815 12.3203 261.144 12.3203C260.315 12.3203 259.706 12.5625 259.315 13.0469C258.94 13.5312 258.698 14.1953 258.589 15.0391C258.495 15.8672 258.448 16.8125 258.448 17.875V22.2109Z" stroke="#D9E6E7" stroke-width="2" mask="url(#path-1-outside-1_127_2782)"/>
<path d="M282.167 43.4453C279.339 43.4453 277.237 42.6406 275.862 41.0312C274.487 39.4219 273.8 36.7891 273.8 33.1328V30.8594H279.636V33.6953C279.636 35.2266 279.823 36.3906 280.198 37.1875C280.573 37.9844 281.183 38.3828 282.026 38.3828C282.839 38.3828 283.44 38.1094 283.831 37.5625C284.222 37.0156 284.417 36.0703 284.417 34.7266C284.417 33.9453 284.3 33.1875 284.065 32.4531C283.847 31.7188 283.495 31 283.011 30.2969C282.542 29.5781 281.933 28.8828 281.183 28.2109L278.019 25.3516C276.565 24.0391 275.479 22.625 274.761 21.1094C274.042 19.5781 273.683 17.8906 273.683 16.0469C273.683 13.0625 274.378 10.8828 275.769 9.50781C277.175 8.11719 279.253 7.42188 282.003 7.42188C283.784 7.42188 285.261 7.75781 286.433 8.42969C287.604 9.08594 288.479 10.1562 289.058 11.6406C289.636 13.125 289.925 15.1172 289.925 17.6172V19.5391H284.37V17.2188C284.37 15.6719 284.19 14.5 283.831 13.7031C283.487 12.9062 282.894 12.5078 282.05 12.5078C281.222 12.5078 280.612 12.7422 280.222 13.2109C279.831 13.6641 279.62 14.4688 279.589 15.625C279.573 16.25 279.651 16.8672 279.823 17.4766C279.995 18.0703 280.261 18.6562 280.62 19.2344C280.995 19.7969 281.479 20.3516 282.073 20.8984L285.401 23.9219C287.151 25.5 288.44 27.1484 289.269 28.8672C290.112 30.5859 290.534 32.4453 290.534 34.4453C290.534 37.3984 289.862 39.6406 288.519 41.1719C287.175 42.6875 285.058 43.4453 282.167 43.4453Z" stroke="#D9E6E7" stroke-width="2" mask="url(#path-1-outside-1_127_2782)"/>
<defs>
<filter id="filter0_ii_127_2782" x="-0.0986328" y="-0.25" width="294.633" height="47.6953" filterUnits="userSpaceOnUse" color-interpolation-filters="sRGB">
<feFlood flood-opacity="0" result="BackgroundImageFix"/>
<feBlend mode="normal" in="SourceGraphic" in2="BackgroundImageFix" result="shape"/>
<feColorMatrix in="SourceAlpha" type="matrix" values="0 0 0 0 0 0 0 0 0 0 0 0 0 0 0 0 0 0 127 0" result="hardAlpha"/>
<feOffset dx="-1" dy="-1"/>
<feGaussianBlur stdDeviation="1.5"/>
<feComposite in2="hardAlpha" operator="arithmetic" k2="-1" k3="1"/>
<feColorMatrix type="matrix" values="0 0 0 0 0.984314 0 0 0 0 0.984314 0 0 0 0 0.984314 0 0 0 1 0"/>
<feBlend mode="normal" in2="shape" result="effect1_innerShadow_127_2782"/>
<feColorMatrix in="SourceAlpha" type="matrix" values="0 0 0 0 0 0 0 0 0 0 0 0 0 0 0 0 0 0 127 0" result="hardAlpha"/>
<feOffset dx="3" dy="3"/>
<feGaussianBlur stdDeviation="4.5"/>
<feComposite in2="hardAlpha" operator="arithmetic" k2="-1" k3="1"/>
<feColorMatrix type="matrix" values="0 0 0 0 0.772549 0 0 0 0 0.772549 0 0 0 0 0.772549 0 0 0 1 0"/>
<feBlend mode="normal" in2="effect1_innerShadow_127_2782" result="effect2_innerShadow_127_2782"/>
</filter>
</defs>
</svg>
