<svg width="235" height="45" viewBox="0 0 235 45" fill="none" xmlns="http://www.w3.org/2000/svg">
<mask id="path-1-outside-1_127_2787" maskUnits="userSpaceOnUse" x="0.120117" y="0.257812" width="235" height="45" fill="black">
<rect fill="white" x="0.120117" y="0.257812" width="235" height="45"/>
<path d="M1.12012 43V1.75H7.40137V43H1.12012Z"/>
<path d="M22.2139 43.4219C20.417 43.4219 18.9326 43.1484 17.7607 42.6016C16.5889 42.0391 15.667 41.2344 14.9951 40.1875C14.3389 39.1406 13.8779 37.8672 13.6123 36.3672C13.3467 34.8672 13.2139 33.1719 13.2139 31.2812V19.8906C13.2139 17.2969 13.4561 15.0703 13.9404 13.2109C14.4248 11.3516 15.3154 9.92188 16.6123 8.92188C17.9248 7.92188 19.8154 7.42188 22.2842 7.42188C23.7998 7.42188 25.0811 7.65625 26.1279 8.125C27.1748 8.59375 28.0186 9.27344 28.6592 10.1641C29.2998 11.0391 29.7607 12.1016 30.042 13.3516C30.3389 14.6016 30.4873 16.0078 30.4873 17.5703V21.4375H24.4873V17.3594C24.4873 16.3438 24.4404 15.4766 24.3467 14.7578C24.2529 14.0234 24.042 13.4688 23.7139 13.0938C23.3857 12.7031 22.8623 12.5078 22.1436 12.5078C21.4404 12.5078 20.8936 12.7031 20.5029 13.0938C20.1123 13.4844 19.8389 14.0547 19.6826 14.8047C19.542 15.5391 19.4717 16.4219 19.4717 17.4531V33.2969C19.4717 34.3594 19.5342 35.2656 19.6592 36.0156C19.7998 36.7656 20.0498 37.3438 20.4092 37.75C20.7842 38.1406 21.3311 38.3359 22.0498 38.3359C22.7529 38.3359 23.2764 38.1328 23.6201 37.7266C23.9795 37.3047 24.2139 36.7188 24.3232 35.9688C24.4326 35.2188 24.4873 34.3359 24.4873 33.3203V29.1484H30.4873V32.7109C30.4873 34.3203 30.3467 35.7891 30.0654 37.1172C29.7842 38.4297 29.3232 39.5547 28.6826 40.4922C28.042 41.4297 27.1904 42.1562 26.1279 42.6719C25.0654 43.1719 23.7607 43.4219 22.2139 43.4219Z"/>
<path d="M44.0107 43.4219C42.3232 43.4219 40.9092 43.1641 39.7686 42.6484C38.6279 42.1172 37.7217 41.3594 37.0498 40.375C36.3936 39.375 35.917 38.1641 35.6201 36.7422C35.3389 35.3047 35.1982 33.6719 35.1982 31.8438V18.6953C35.1982 16.4922 35.4795 14.5469 36.042 12.8594C36.6201 11.1562 37.5576 9.82812 38.8545 8.875C40.1514 7.90625 41.8701 7.42188 44.0107 7.42188C45.6357 7.42188 47.0029 7.69531 48.1123 8.24219C49.2373 8.78906 50.1357 9.57031 50.8076 10.5859C51.4951 11.5859 51.9951 12.7734 52.3076 14.1484C52.6201 15.5234 52.7764 17.0391 52.7764 18.6953V31.8438C52.7764 33.6406 52.6357 35.25 52.3545 36.6719C52.0889 38.0938 51.6201 39.3125 50.9482 40.3281C50.292 41.3281 49.4014 42.0938 48.2764 42.625C47.1514 43.1562 45.7295 43.4219 44.0107 43.4219ZM44.0107 38.4062C44.7139 38.4062 45.2451 38.1953 45.6045 37.7734C45.9639 37.3359 46.2061 36.7344 46.3311 35.9688C46.4561 35.2031 46.5186 34.3203 46.5186 33.3203V17.5938C46.5186 16.5312 46.4482 15.6172 46.3076 14.8516C46.167 14.0859 45.917 13.4922 45.5576 13.0703C45.1982 12.6484 44.6826 12.4375 44.0107 12.4375C43.3076 12.4375 42.7686 12.6484 42.3936 13.0703C42.0342 13.4922 41.7842 14.0859 41.6436 14.8516C41.5186 15.6172 41.4561 16.5312 41.4561 17.5938V33.3203C41.4561 34.3203 41.5186 35.2031 41.6436 35.9688C41.7842 36.7344 42.0342 37.3359 42.3936 37.7734C42.7686 38.1953 43.3076 38.4062 44.0107 38.4062Z"/>
<path d="M58.4248 43V7.84375H64.6357V11.875C64.9482 10.6719 65.6045 9.63281 66.6045 8.75781C67.6045 7.86719 68.8311 7.42188 70.2842 7.42188C72.3154 7.42188 73.8389 8.10156 74.8545 9.46094C75.8701 10.8047 76.3779 12.7578 76.3779 15.3203V43H70.167V15.6953C70.167 14.6797 69.9326 13.8828 69.4639 13.3047C69.0107 12.7266 68.3857 12.4375 67.5889 12.4375C66.9482 12.4375 66.4014 12.6172 65.9482 12.9766C65.5107 13.3203 65.1826 13.8047 64.9639 14.4297C64.7451 15.0391 64.6357 15.7578 64.6357 16.5859V43H58.4248Z"/>
<path d="M89.6201 43.4453C86.792 43.4453 84.6904 42.6406 83.3154 41.0312C81.9404 39.4219 81.2529 36.7891 81.2529 33.1328V30.8594H87.0889V33.6953C87.0889 35.2266 87.2764 36.3906 87.6514 37.1875C88.0264 37.9844 88.6357 38.3828 89.4795 38.3828C90.292 38.3828 90.8936 38.1094 91.2842 37.5625C91.6748 37.0156 91.8701 36.0703 91.8701 34.7266C91.8701 33.9453 91.7529 33.1875 91.5186 32.4531C91.2998 31.7188 90.9482 31 90.4639 30.2969C89.9951 29.5781 89.3857 28.8828 88.6357 28.2109L85.4717 25.3516C84.0186 24.0391 82.9326 22.625 82.2139 21.1094C81.4951 19.5781 81.1357 17.8906 81.1357 16.0469C81.1357 13.0625 81.8311 10.8828 83.2217 9.50781C84.6279 8.11719 86.7061 7.42188 89.4561 7.42188C91.2373 7.42188 92.7139 7.75781 93.8857 8.42969C95.0576 9.08594 95.9326 10.1562 96.5107 11.6406C97.0889 13.125 97.3779 15.1172 97.3779 17.6172V19.5391H91.8232V17.2188C91.8232 15.6719 91.6436 14.5 91.2842 13.7031C90.9404 12.9062 90.3467 12.5078 89.5029 12.5078C88.6748 12.5078 88.0654 12.7422 87.6748 13.2109C87.2842 13.6641 87.0732 14.4688 87.042 15.625C87.0264 16.25 87.1045 16.8672 87.2764 17.4766C87.4482 18.0703 87.7139 18.6562 88.0732 19.2344C88.4482 19.7969 88.9326 20.3516 89.5264 20.8984L92.8545 23.9219C94.6045 25.5 95.8936 27.1484 96.7217 28.8672C97.5654 30.5859 97.9873 32.4453 97.9873 34.4453C97.9873 37.3984 97.3154 39.6406 95.9717 41.1719C94.6279 42.6875 92.5107 43.4453 89.6201 43.4453Z"/>
<path d="M117.323 43.4688C114.995 43.4688 113.159 42.6719 111.815 41.0781C110.472 39.4688 109.8 37.1562 109.8 34.1406C109.8 32.5312 110.112 30.9922 110.737 29.5234C111.362 28.0391 112.167 26.6094 113.151 25.2344C114.151 23.8438 115.206 22.5 116.315 21.2031C115.362 18.7188 114.565 16.4297 113.925 14.3359C113.284 12.2266 112.964 10.6016 112.964 9.46094C112.964 6.80469 113.651 4.77344 115.026 3.36719C116.417 1.96094 118.253 1.25781 120.534 1.25781C122.19 1.25781 123.565 1.57812 124.659 2.21875C125.753 2.84375 126.573 3.76562 127.12 4.98438C127.667 6.1875 127.94 7.65625 127.94 9.39062C127.94 10.8438 127.683 12.2578 127.167 13.6328C126.651 14.9922 125.979 16.3203 125.151 17.6172C124.323 18.8984 123.425 20.1562 122.456 21.3906L125.479 28.9141C126.089 27.8984 126.753 26.8516 127.472 25.7734C128.206 24.6797 129.026 23.5938 129.933 22.5156L132.487 26.8281C131.519 27.9062 130.659 29.1016 129.909 30.4141C129.175 31.7266 128.464 33.0391 127.776 34.3516L131.479 43H125.667L124.331 39.9531C123.753 40.6406 123.12 41.25 122.433 41.7812C121.761 42.3125 121.003 42.7266 120.159 43.0234C119.315 43.3203 118.37 43.4688 117.323 43.4688ZM118.378 38.1016C118.847 38.1016 119.284 37.9688 119.69 37.7031C120.097 37.4375 120.495 37.0703 120.886 36.6016C121.276 36.1172 121.675 35.5469 122.081 34.8906L118.448 26.4531C117.839 27.2656 117.284 28.0703 116.784 28.8672C116.3 29.6641 115.909 30.4531 115.612 31.2344C115.315 32.0156 115.151 32.7891 115.12 33.5547C115.073 35.0391 115.315 36.1719 115.847 36.9531C116.394 37.7188 117.237 38.1016 118.378 38.1016ZM120.511 16.1875C121.417 15.0156 122.159 13.8594 122.737 12.7188C123.315 11.5781 123.604 10.4375 123.604 9.29688C123.604 7.95312 123.44 6.98438 123.112 6.39062C122.784 5.79688 122.159 5.5 121.237 5.5C120.69 5.5 120.245 5.60938 119.901 5.82812C119.558 6.04688 119.292 6.34375 119.104 6.71875C118.933 7.07812 118.815 7.47656 118.753 7.91406C118.69 8.35156 118.659 8.78906 118.659 9.22656C118.659 9.85156 118.823 10.7734 119.151 11.9922C119.495 13.1953 119.948 14.5938 120.511 16.1875Z"/>
<path d="M146.62 43V7.1875H141.792V1.75H157.519V7.1875H152.878V43H146.62Z"/>
<path d="M168.183 43.4219C166.495 43.4219 165.081 43.1641 163.94 42.6484C162.8 42.1172 161.894 41.3594 161.222 40.375C160.565 39.375 160.089 38.1641 159.792 36.7422C159.511 35.3047 159.37 33.6719 159.37 31.8438V18.6953C159.37 16.4922 159.651 14.5469 160.214 12.8594C160.792 11.1562 161.729 9.82812 163.026 8.875C164.323 7.90625 166.042 7.42188 168.183 7.42188C169.808 7.42188 171.175 7.69531 172.284 8.24219C173.409 8.78906 174.308 9.57031 174.979 10.5859C175.667 11.5859 176.167 12.7734 176.479 14.1484C176.792 15.5234 176.948 17.0391 176.948 18.6953V31.8438C176.948 33.6406 176.808 35.25 176.526 36.6719C176.261 38.0938 175.792 39.3125 175.12 40.3281C174.464 41.3281 173.573 42.0938 172.448 42.625C171.323 43.1562 169.901 43.4219 168.183 43.4219ZM168.183 38.4062C168.886 38.4062 169.417 38.1953 169.776 37.7734C170.136 37.3359 170.378 36.7344 170.503 35.9688C170.628 35.2031 170.69 34.3203 170.69 33.3203V17.5938C170.69 16.5312 170.62 15.6172 170.479 14.8516C170.339 14.0859 170.089 13.4922 169.729 13.0703C169.37 12.6484 168.854 12.4375 168.183 12.4375C167.479 12.4375 166.94 12.6484 166.565 13.0703C166.206 13.4922 165.956 14.0859 165.815 14.8516C165.69 15.6172 165.628 16.5312 165.628 17.5938V33.3203C165.628 34.3203 165.69 35.2031 165.815 35.9688C165.956 36.7344 166.206 37.3359 166.565 37.7734C166.94 38.1953 167.479 38.4062 168.183 38.4062Z"/>
<path d="M190.917 43.4219C189.229 43.4219 187.815 43.1641 186.675 42.6484C185.534 42.1172 184.628 41.3594 183.956 40.375C183.3 39.375 182.823 38.1641 182.526 36.7422C182.245 35.3047 182.104 33.6719 182.104 31.8438V18.6953C182.104 16.4922 182.386 14.5469 182.948 12.8594C183.526 11.1562 184.464 9.82812 185.761 8.875C187.058 7.90625 188.776 7.42188 190.917 7.42188C192.542 7.42188 193.909 7.69531 195.019 8.24219C196.144 8.78906 197.042 9.57031 197.714 10.5859C198.401 11.5859 198.901 12.7734 199.214 14.1484C199.526 15.5234 199.683 17.0391 199.683 18.6953V31.8438C199.683 33.6406 199.542 35.25 199.261 36.6719C198.995 38.0938 198.526 39.3125 197.854 40.3281C197.198 41.3281 196.308 42.0938 195.183 42.625C194.058 43.1562 192.636 43.4219 190.917 43.4219ZM190.917 38.4062C191.62 38.4062 192.151 38.1953 192.511 37.7734C192.87 37.3359 193.112 36.7344 193.237 35.9688C193.362 35.2031 193.425 34.3203 193.425 33.3203V17.5938C193.425 16.5312 193.354 15.6172 193.214 14.8516C193.073 14.0859 192.823 13.4922 192.464 13.0703C192.104 12.6484 191.589 12.4375 190.917 12.4375C190.214 12.4375 189.675 12.6484 189.3 13.0703C188.94 13.4922 188.69 14.0859 188.55 14.8516C188.425 15.6172 188.362 16.5312 188.362 17.5938V33.3203C188.362 34.3203 188.425 35.2031 188.55 35.9688C188.69 36.7344 188.94 37.3359 189.3 37.7734C189.675 38.1953 190.214 38.4062 190.917 38.4062Z"/>
<path d="M205.354 43V1.39844H211.542V43H205.354Z"/>
<path d="M225.089 43.4453C222.261 43.4453 220.159 42.6406 218.784 41.0312C217.409 39.4219 216.722 36.7891 216.722 33.1328V30.8594H222.558V33.6953C222.558 35.2266 222.745 36.3906 223.12 37.1875C223.495 37.9844 224.104 38.3828 224.948 38.3828C225.761 38.3828 226.362 38.1094 226.753 37.5625C227.144 37.0156 227.339 36.0703 227.339 34.7266C227.339 33.9453 227.222 33.1875 226.987 32.4531C226.769 31.7188 226.417 31 225.933 30.2969C225.464 29.5781 224.854 28.8828 224.104 28.2109L220.94 25.3516C219.487 24.0391 218.401 22.625 217.683 21.1094C216.964 19.5781 216.604 17.8906 216.604 16.0469C216.604 13.0625 217.3 10.8828 218.69 9.50781C220.097 8.11719 222.175 7.42188 224.925 7.42188C226.706 7.42188 228.183 7.75781 229.354 8.42969C230.526 9.08594 231.401 10.1562 231.979 11.6406C232.558 13.125 232.847 15.1172 232.847 17.6172V19.5391H227.292V17.2188C227.292 15.6719 227.112 14.5 226.753 13.7031C226.409 12.9062 225.815 12.5078 224.972 12.5078C224.144 12.5078 223.534 12.7422 223.144 13.2109C222.753 13.6641 222.542 14.4688 222.511 15.625C222.495 16.25 222.573 16.8672 222.745 17.4766C222.917 18.0703 223.183 18.6562 223.542 19.2344C223.917 19.7969 224.401 20.3516 224.995 20.8984L228.323 23.9219C230.073 25.5 231.362 27.1484 232.19 28.8672C233.034 30.5859 233.456 32.4453 233.456 34.4453C233.456 37.3984 232.784 39.6406 231.44 41.1719C230.097 42.6875 227.979 43.4453 225.089 43.4453Z"/>
</mask>
<g filter="url(#filter0_ii_127_2787)">
<path d="M1.12012 43V1.75H7.40137V43H1.12012Z" fill="#E0E0E0"/>
<path d="M22.2139 43.4219C20.417 43.4219 18.9326 43.1484 17.7607 42.6016C16.5889 42.0391 15.667 41.2344 14.9951 40.1875C14.3389 39.1406 13.8779 37.8672 13.6123 36.3672C13.3467 34.8672 13.2139 33.1719 13.2139 31.2812V19.8906C13.2139 17.2969 13.4561 15.0703 13.9404 13.2109C14.4248 11.3516 15.3154 9.92188 16.6123 8.92188C17.9248 7.92188 19.8154 7.42188 22.2842 7.42188C23.7998 7.42188 25.0811 7.65625 26.1279 8.125C27.1748 8.59375 28.0186 9.27344 28.6592 10.1641C29.2998 11.0391 29.7607 12.1016 30.042 13.3516C30.3389 14.6016 30.4873 16.0078 30.4873 17.5703V21.4375H24.4873V17.3594C24.4873 16.3438 24.4404 15.4766 24.3467 14.7578C24.2529 14.0234 24.042 13.4688 23.7139 13.0938C23.3857 12.7031 22.8623 12.5078 22.1436 12.5078C21.4404 12.5078 20.8936 12.7031 20.5029 13.0938C20.1123 13.4844 19.8389 14.0547 19.6826 14.8047C19.542 15.5391 19.4717 16.4219 19.4717 17.4531V33.2969C19.4717 34.3594 19.5342 35.2656 19.6592 36.0156C19.7998 36.7656 20.0498 37.3438 20.4092 37.75C20.7842 38.1406 21.3311 38.3359 22.0498 38.3359C22.7529 38.3359 23.2764 38.1328 23.6201 37.7266C23.9795 37.3047 24.2139 36.7188 24.3232 35.9688C24.4326 35.2188 24.4873 34.3359 24.4873 33.3203V29.1484H30.4873V32.7109C30.4873 34.3203 30.3467 35.7891 30.0654 37.1172C29.7842 38.4297 29.3232 39.5547 28.6826 40.4922C28.042 41.4297 27.1904 42.1562 26.1279 42.6719C25.0654 43.1719 23.7607 43.4219 22.2139 43.4219Z" fill="#E0E0E0"/>
<path d="M44.0107 43.4219C42.3232 43.4219 40.9092 43.1641 39.7686 42.6484C38.6279 42.1172 37.7217 41.3594 37.0498 40.375C36.3936 39.375 35.917 38.1641 35.6201 36.7422C35.3389 35.3047 35.1982 33.6719 35.1982 31.8438V18.6953C35.1982 16.4922 35.4795 14.5469 36.042 12.8594C36.6201 11.1562 37.5576 9.82812 38.8545 8.875C40.1514 7.90625 41.8701 7.42188 44.0107 7.42188C45.6357 7.42188 47.0029 7.69531 48.1123 8.24219C49.2373 8.78906 50.1357 9.57031 50.8076 10.5859C51.4951 11.5859 51.9951 12.7734 52.3076 14.1484C52.6201 15.5234 52.7764 17.0391 52.7764 18.6953V31.8438C52.7764 33.6406 52.6357 35.25 52.3545 36.6719C52.0889 38.0938 51.6201 39.3125 50.9482 40.3281C50.292 41.3281 49.4014 42.0938 48.2764 42.625C47.1514 43.1562 45.7295 43.4219 44.0107 43.4219ZM44.0107 38.4062C44.7139 38.4062 45.2451 38.1953 45.6045 37.7734C45.9639 37.3359 46.2061 36.7344 46.3311 35.9688C46.4561 35.2031 46.5186 34.3203 46.5186 33.3203V17.5938C46.5186 16.5312 46.4482 15.6172 46.3076 14.8516C46.167 14.0859 45.917 13.4922 45.5576 13.0703C45.1982 12.6484 44.6826 12.4375 44.0107 12.4375C43.3076 12.4375 42.7686 12.6484 42.3936 13.0703C42.0342 13.4922 41.7842 14.0859 41.6436 14.8516C41.5186 15.6172 41.4561 16.5312 41.4561 17.5938V33.3203C41.4561 34.3203 41.5186 35.2031 41.6436 35.9688C41.7842 36.7344 42.0342 37.3359 42.3936 37.7734C42.7686 38.1953 43.3076 38.4062 44.0107 38.4062Z" fill="#E0E0E0"/>
<path d="M58.4248 43V7.84375H64.6357V11.875C64.9482 10.6719 65.6045 9.63281 66.6045 8.75781C67.6045 7.86719 68.8311 7.42188 70.2842 7.42188C72.3154 7.42188 73.8389 8.10156 74.8545 9.46094C75.8701 10.8047 76.3779 12.7578 76.3779 15.3203V43H70.167V15.6953C70.167 14.6797 69.9326 13.8828 69.4639 13.3047C69.0107 12.7266 68.3857 12.4375 67.5889 12.4375C66.9482 12.4375 66.4014 12.6172 65.9482 12.9766C65.5107 13.3203 65.1826 13.8047 64.9639 14.4297C64.7451 15.0391 64.6357 15.7578 64.6357 16.5859V43H58.4248Z" fill="#E0E0E0"/>
<path d="M89.6201 43.4453C86.792 43.4453 84.6904 42.6406 83.3154 41.0312C81.9404 39.4219 81.2529 36.7891 81.2529 33.1328V30.8594H87.0889V33.6953C87.0889 35.2266 87.2764 36.3906 87.6514 37.1875C88.0264 37.9844 88.6357 38.3828 89.4795 38.3828C90.292 38.3828 90.8936 38.1094 91.2842 37.5625C91.6748 37.0156 91.8701 36.0703 91.8701 34.7266C91.8701 33.9453 91.7529 33.1875 91.5186 32.4531C91.2998 31.7188 90.9482 31 90.4639 30.2969C89.9951 29.5781 89.3857 28.8828 88.6357 28.2109L85.4717 25.3516C84.0186 24.0391 82.9326 22.625 82.2139 21.1094C81.4951 19.5781 81.1357 17.8906 81.1357 16.0469C81.1357 13.0625 81.8311 10.8828 83.2217 9.50781C84.6279 8.11719 86.7061 7.42188 89.4561 7.42188C91.2373 7.42188 92.7139 7.75781 93.8857 8.42969C95.0576 9.08594 95.9326 10.1562 96.5107 11.6406C97.0889 13.125 97.3779 15.1172 97.3779 17.6172V19.5391H91.8232V17.2188C91.8232 15.6719 91.6436 14.5 91.2842 13.7031C90.9404 12.9062 90.3467 12.5078 89.5029 12.5078C88.6748 12.5078 88.0654 12.7422 87.6748 13.2109C87.2842 13.6641 87.0732 14.4688 87.042 15.625C87.0264 16.25 87.1045 16.8672 87.2764 17.4766C87.4482 18.0703 87.7139 18.6562 88.0732 19.2344C88.4482 19.7969 88.9326 20.3516 89.5264 20.8984L92.8545 23.9219C94.6045 25.5 95.8936 27.1484 96.7217 28.8672C97.5654 30.5859 97.9873 32.4453 97.9873 34.4453C97.9873 37.3984 97.3154 39.6406 95.9717 41.1719C94.6279 42.6875 92.5107 43.4453 89.6201 43.4453Z" fill="#E0E0E0"/>
<path d="M117.323 43.4688C114.995 43.4688 113.159 42.6719 111.815 41.0781C110.472 39.4688 109.8 37.1562 109.8 34.1406C109.8 32.5312 110.112 30.9922 110.737 29.5234C111.362 28.0391 112.167 26.6094 113.151 25.2344C114.151 23.8438 115.206 22.5 116.315 21.2031C115.362 18.7188 114.565 16.4297 113.925 14.3359C113.284 12.2266 112.964 10.6016 112.964 9.46094C112.964 6.80469 113.651 4.77344 115.026 3.36719C116.417 1.96094 118.253 1.25781 120.534 1.25781C122.19 1.25781 123.565 1.57812 124.659 2.21875C125.753 2.84375 126.573 3.76562 127.12 4.98438C127.667 6.1875 127.94 7.65625 127.94 9.39062C127.94 10.8438 127.683 12.2578 127.167 13.6328C126.651 14.9922 125.979 16.3203 125.151 17.6172C124.323 18.8984 123.425 20.1562 122.456 21.3906L125.479 28.9141C126.089 27.8984 126.753 26.8516 127.472 25.7734C128.206 24.6797 129.026 23.5938 129.933 22.5156L132.487 26.8281C131.519 27.9062 130.659 29.1016 129.909 30.4141C129.175 31.7266 128.464 33.0391 127.776 34.3516L131.479 43H125.667L124.331 39.9531C123.753 40.6406 123.12 41.25 122.433 41.7812C121.761 42.3125 121.003 42.7266 120.159 43.0234C119.315 43.3203 118.37 43.4688 117.323 43.4688ZM118.378 38.1016C118.847 38.1016 119.284 37.9688 119.69 37.7031C120.097 37.4375 120.495 37.0703 120.886 36.6016C121.276 36.1172 121.675 35.5469 122.081 34.8906L118.448 26.4531C117.839 27.2656 117.284 28.0703 116.784 28.8672C116.3 29.6641 115.909 30.4531 115.612 31.2344C115.315 32.0156 115.151 32.7891 115.12 33.5547C115.073 35.0391 115.315 36.1719 115.847 36.9531C116.394 37.7188 117.237 38.1016 118.378 38.1016ZM120.511 16.1875C121.417 15.0156 122.159 13.8594 122.737 12.7188C123.315 11.5781 123.604 10.4375 123.604 9.29688C123.604 7.95312 123.44 6.98438 123.112 6.39062C122.784 5.79688 122.159 5.5 121.237 5.5C120.69 5.5 120.245 5.60938 119.901 5.82812C119.558 6.04688 119.292 6.34375 119.104 6.71875C118.933 7.07812 118.815 7.47656 118.753 7.91406C118.69 8.35156 118.659 8.78906 118.659 9.22656C118.659 9.85156 118.823 10.7734 119.151 11.9922C119.495 13.1953 119.948 14.5938 120.511 16.1875Z" fill="#E0E0E0"/>
<path d="M146.62 43V7.1875H141.792V1.75H157.519V7.1875H152.878V43H146.62Z" fill="#E0E0E0"/>
<path d="M168.183 43.4219C166.495 43.4219 165.081 43.1641 163.94 42.6484C162.8 42.1172 161.894 41.3594 161.222 40.375C160.565 39.375 160.089 38.1641 159.792 36.7422C159.511 35.3047 159.37 33.6719 159.37 31.8438V18.6953C159.37 16.4922 159.651 14.5469 160.214 12.8594C160.792 11.1562 161.729 9.82812 163.026 8.875C164.323 7.90625 166.042 7.42188 168.183 7.42188C169.808 7.42188 171.175 7.69531 172.284 8.24219C173.409 8.78906 174.308 9.57031 174.979 10.5859C175.667 11.5859 176.167 12.7734 176.479 14.1484C176.792 15.5234 176.948 17.0391 176.948 18.6953V31.8438C176.948 33.6406 176.808 35.25 176.526 36.6719C176.261 38.0938 175.792 39.3125 175.12 40.3281C174.464 41.3281 173.573 42.0938 172.448 42.625C171.323 43.1562 169.901 43.4219 168.183 43.4219ZM168.183 38.4062C168.886 38.4062 169.417 38.1953 169.776 37.7734C170.136 37.3359 170.378 36.7344 170.503 35.9688C170.628 35.2031 170.69 34.3203 170.69 33.3203V17.5938C170.69 16.5312 170.62 15.6172 170.479 14.8516C170.339 14.0859 170.089 13.4922 169.729 13.0703C169.37 12.6484 168.854 12.4375 168.183 12.4375C167.479 12.4375 166.94 12.6484 166.565 13.0703C166.206 13.4922 165.956 14.0859 165.815 14.8516C165.69 15.6172 165.628 16.5312 165.628 17.5938V33.3203C165.628 34.3203 165.69 35.2031 165.815 35.9688C165.956 36.7344 166.206 37.3359 166.565 37.7734C166.94 38.1953 167.479 38.4062 168.183 38.4062Z" fill="#E0E0E0"/>
<path d="M190.917 43.4219C189.229 43.4219 187.815 43.1641 186.675 42.6484C185.534 42.1172 184.628 41.3594 183.956 40.375C183.3 39.375 182.823 38.1641 182.526 36.7422C182.245 35.3047 182.104 33.6719 182.104 31.8438V18.6953C182.104 16.4922 182.386 14.5469 182.948 12.8594C183.526 11.1562 184.464 9.82812 185.761 8.875C187.058 7.90625 188.776 7.42188 190.917 7.42188C192.542 7.42188 193.909 7.69531 195.019 8.24219C196.144 8.78906 197.042 9.57031 197.714 10.5859C198.401 11.5859 198.901 12.7734 199.214 14.1484C199.526 15.5234 199.683 17.0391 199.683 18.6953V31.8438C199.683 33.6406 199.542 35.25 199.261 36.6719C198.995 38.0938 198.526 39.3125 197.854 40.3281C197.198 41.3281 196.308 42.0938 195.183 42.625C194.058 43.1562 192.636 43.4219 190.917 43.4219ZM190.917 38.4062C191.62 38.4062 192.151 38.1953 192.511 37.7734C192.87 37.3359 193.112 36.7344 193.237 35.9688C193.362 35.2031 193.425 34.3203 193.425 33.3203V17.5938C193.425 16.5312 193.354 15.6172 193.214 14.8516C193.073 14.0859 192.823 13.4922 192.464 13.0703C192.104 12.6484 191.589 12.4375 190.917 12.4375C190.214 12.4375 189.675 12.6484 189.3 13.0703C188.94 13.4922 188.69 14.0859 188.55 14.8516C188.425 15.6172 188.362 16.5312 188.362 17.5938V33.3203C188.362 34.3203 188.425 35.2031 188.55 35.9688C188.69 36.7344 188.94 37.3359 189.3 37.7734C189.675 38.1953 190.214 38.4062 190.917 38.4062Z" fill="#E0E0E0"/>
<path d="M205.354 43V1.39844H211.542V43H205.354Z" fill="#E0E0E0"/>
<path d="M225.089 43.4453C222.261 43.4453 220.159 42.6406 218.784 41.0312C217.409 39.4219 216.722 36.7891 216.722 33.1328V30.8594H222.558V33.6953C222.558 35.2266 222.745 36.3906 223.12 37.1875C223.495 37.9844 224.104 38.3828 224.948 38.3828C225.761 38.3828 226.362 38.1094 226.753 37.5625C227.144 37.0156 227.339 36.0703 227.339 34.7266C227.339 33.9453 227.222 33.1875 226.987 32.4531C226.769 31.7188 226.417 31 225.933 30.2969C225.464 29.5781 224.854 28.8828 224.104 28.2109L220.94 25.3516C219.487 24.0391 218.401 22.625 217.683 21.1094C216.964 19.5781 216.604 17.8906 216.604 16.0469C216.604 13.0625 217.3 10.8828 218.69 9.50781C220.097 8.11719 222.175 7.42188 224.925 7.42188C226.706 7.42188 228.183 7.75781 229.354 8.42969C230.526 9.08594 231.401 10.1562 231.979 11.6406C232.558 13.125 232.847 15.1172 232.847 17.6172V19.5391H227.292V17.2188C227.292 15.6719 227.112 14.5 226.753 13.7031C226.409 12.9062 225.815 12.5078 224.972 12.5078C224.144 12.5078 223.534 12.7422 223.144 13.2109C222.753 13.6641 222.542 14.4688 222.511 15.625C222.495 16.25 222.573 16.8672 222.745 17.4766C222.917 18.0703 223.183 18.6562 223.542 19.2344C223.917 19.7969 224.401 20.3516 224.995 20.8984L228.323 23.9219C230.073 25.5 231.362 27.1484 232.19 28.8672C233.034 30.5859 233.456 32.4453 233.456 34.4453C233.456 37.3984 232.784 39.6406 231.44 41.1719C230.097 42.6875 227.979 43.4453 225.089 43.4453Z" fill="#E0E0E0"/>
</g>
<path d="M1.12012 43V1.75H7.40137V43H1.12012Z" stroke="#EAEAEA" stroke-width="2" mask="url(#path-1-outside-1_127_2787)"/>
<path d="M22.2139 43.4219C20.417 43.4219 18.9326 43.1484 17.7607 42.6016C16.5889 42.0391 15.667 41.2344 14.9951 40.1875C14.3389 39.1406 13.8779 37.8672 13.6123 36.3672C13.3467 34.8672 13.2139 33.1719 13.2139 31.2812V19.8906C13.2139 17.2969 13.4561 15.0703 13.9404 13.2109C14.4248 11.3516 15.3154 9.92188 16.6123 8.92188C17.9248 7.92188 19.8154 7.42188 22.2842 7.42188C23.7998 7.42188 25.0811 7.65625 26.1279 8.125C27.1748 8.59375 28.0186 9.27344 28.6592 10.1641C29.2998 11.0391 29.7607 12.1016 30.042 13.3516C30.3389 14.6016 30.4873 16.0078 30.4873 17.5703V21.4375H24.4873V17.3594C24.4873 16.3438 24.4404 15.4766 24.3467 14.7578C24.2529 14.0234 24.042 13.4688 23.7139 13.0938C23.3857 12.7031 22.8623 12.5078 22.1436 12.5078C21.4404 12.5078 20.8936 12.7031 20.5029 13.0938C20.1123 13.4844 19.8389 14.0547 19.6826 14.8047C19.542 15.5391 19.4717 16.4219 19.4717 17.4531V33.2969C19.4717 34.3594 19.5342 35.2656 19.6592 36.0156C19.7998 36.7656 20.0498 37.3438 20.4092 37.75C20.7842 38.1406 21.3311 38.3359 22.0498 38.3359C22.7529 38.3359 23.2764 38.1328 23.6201 37.7266C23.9795 37.3047 24.2139 36.7188 24.3232 35.9688C24.4326 35.2188 24.4873 34.3359 24.4873 33.3203V29.1484H30.4873V32.7109C30.4873 34.3203 30.3467 35.7891 30.0654 37.1172C29.7842 38.4297 29.3232 39.5547 28.6826 40.4922C28.042 41.4297 27.1904 42.1562 26.1279 42.6719C25.0654 43.1719 23.7607 43.4219 22.2139 43.4219Z" stroke="#EAEAEA" stroke-width="2" mask="url(#path-1-outside-1_127_2787)"/>
<path d="M44.0107 43.4219C42.3232 43.4219 40.9092 43.1641 39.7686 42.6484C38.6279 42.1172 37.7217 41.3594 37.0498 40.375C36.3936 39.375 35.917 38.1641 35.6201 36.7422C35.3389 35.3047 35.1982 33.6719 35.1982 31.8438V18.6953C35.1982 16.4922 35.4795 14.5469 36.042 12.8594C36.6201 11.1562 37.5576 9.82812 38.8545 8.875C40.1514 7.90625 41.8701 7.42188 44.0107 7.42188C45.6357 7.42188 47.0029 7.69531 48.1123 8.24219C49.2373 8.78906 50.1357 9.57031 50.8076 10.5859C51.4951 11.5859 51.9951 12.7734 52.3076 14.1484C52.6201 15.5234 52.7764 17.0391 52.7764 18.6953V31.8438C52.7764 33.6406 52.6357 35.25 52.3545 36.6719C52.0889 38.0938 51.6201 39.3125 50.9482 40.3281C50.292 41.3281 49.4014 42.0938 48.2764 42.625C47.1514 43.1562 45.7295 43.4219 44.0107 43.4219ZM44.0107 38.4062C44.7139 38.4062 45.2451 38.1953 45.6045 37.7734C45.9639 37.3359 46.2061 36.7344 46.3311 35.9688C46.4561 35.2031 46.5186 34.3203 46.5186 33.3203V17.5938C46.5186 16.5312 46.4482 15.6172 46.3076 14.8516C46.167 14.0859 45.917 13.4922 45.5576 13.0703C45.1982 12.6484 44.6826 12.4375 44.0107 12.4375C43.3076 12.4375 42.7686 12.6484 42.3936 13.0703C42.0342 13.4922 41.7842 14.0859 41.6436 14.8516C41.5186 15.6172 41.4561 16.5312 41.4561 17.5938V33.3203C41.4561 34.3203 41.5186 35.2031 41.6436 35.9688C41.7842 36.7344 42.0342 37.3359 42.3936 37.7734C42.7686 38.1953 43.3076 38.4062 44.0107 38.4062Z" stroke="#EAEAEA" stroke-width="2" mask="url(#path-1-outside-1_127_2787)"/>
<path d="M58.4248 43V7.84375H64.6357V11.875C64.9482 10.6719 65.6045 9.63281 66.6045 8.75781C67.6045 7.86719 68.8311 7.42188 70.2842 7.42188C72.3154 7.42188 73.8389 8.10156 74.8545 9.46094C75.8701 10.8047 76.3779 12.7578 76.3779 15.3203V43H70.167V15.6953C70.167 14.6797 69.9326 13.8828 69.4639 13.3047C69.0107 12.7266 68.3857 12.4375 67.5889 12.4375C66.9482 12.4375 66.4014 12.6172 65.9482 12.9766C65.5107 13.3203 65.1826 13.8047 64.9639 14.4297C64.7451 15.0391 64.6357 15.7578 64.6357 16.5859V43H58.4248Z" stroke="#EAEAEA" stroke-width="2" mask="url(#path-1-outside-1_127_2787)"/>
<path d="M89.6201 43.4453C86.792 43.4453 84.6904 42.6406 83.3154 41.0312C81.9404 39.4219 81.2529 36.7891 81.2529 33.1328V30.8594H87.0889V33.6953C87.0889 35.2266 87.2764 36.3906 87.6514 37.1875C88.0264 37.9844 88.6357 38.3828 89.4795 38.3828C90.292 38.3828 90.8936 38.1094 91.2842 37.5625C91.6748 37.0156 91.8701 36.0703 91.8701 34.7266C91.8701 33.9453 91.7529 33.1875 91.5186 32.4531C91.2998 31.7188 90.9482 31 90.4639 30.2969C89.9951 29.5781 89.3857 28.8828 88.6357 28.2109L85.4717 25.3516C84.0186 24.0391 82.9326 22.625 82.2139 21.1094C81.4951 19.5781 81.1357 17.8906 81.1357 16.0469C81.1357 13.0625 81.8311 10.8828 83.2217 9.50781C84.6279 8.11719 86.7061 7.42188 89.4561 7.42188C91.2373 7.42188 92.7139 7.75781 93.8857 8.42969C95.0576 9.08594 95.9326 10.1562 96.5107 11.6406C97.0889 13.125 97.3779 15.1172 97.3779 17.6172V19.5391H91.8232V17.2188C91.8232 15.6719 91.6436 14.5 91.2842 13.7031C90.9404 12.9062 90.3467 12.5078 89.5029 12.5078C88.6748 12.5078 88.0654 12.7422 87.6748 13.2109C87.2842 13.6641 87.0732 14.4688 87.042 15.625C87.0264 16.25 87.1045 16.8672 87.2764 17.4766C87.4482 18.0703 87.7139 18.6562 88.0732 19.2344C88.4482 19.7969 88.9326 20.3516 89.5264 20.8984L92.8545 23.9219C94.6045 25.5 95.8936 27.1484 96.7217 28.8672C97.5654 30.5859 97.9873 32.4453 97.9873 34.4453C97.9873 37.3984 97.3154 39.6406 95.9717 41.1719C94.6279 42.6875 92.5107 43.4453 89.6201 43.4453Z" stroke="#EAEAEA" stroke-width="2" mask="url(#path-1-outside-1_127_2787)"/>
<path d="M117.323 43.4688C114.995 43.4688 113.159 42.6719 111.815 41.0781C110.472 39.4688 109.8 37.1562 109.8 34.1406C109.8 32.5312 110.112 30.9922 110.737 29.5234C111.362 28.0391 112.167 26.6094 113.151 25.2344C114.151 23.8438 115.206 22.5 116.315 21.2031C115.362 18.7188 114.565 16.4297 113.925 14.3359C113.284 12.2266 112.964 10.6016 112.964 9.46094C112.964 6.80469 113.651 4.77344 115.026 3.36719C116.417 1.96094 118.253 1.25781 120.534 1.25781C122.19 1.25781 123.565 1.57812 124.659 2.21875C125.753 2.84375 126.573 3.76562 127.12 4.98438C127.667 6.1875 127.94 7.65625 127.94 9.39062C127.94 10.8438 127.683 12.2578 127.167 13.6328C126.651 14.9922 125.979 16.3203 125.151 17.6172C124.323 18.8984 123.425 20.1562 122.456 21.3906L125.479 28.9141C126.089 27.8984 126.753 26.8516 127.472 25.7734C128.206 24.6797 129.026 23.5938 129.933 22.5156L132.487 26.8281C131.519 27.9062 130.659 29.1016 129.909 30.4141C129.175 31.7266 128.464 33.0391 127.776 34.3516L131.479 43H125.667L124.331 39.9531C123.753 40.6406 123.12 41.25 122.433 41.7812C121.761 42.3125 121.003 42.7266 120.159 43.0234C119.315 43.3203 118.37 43.4688 117.323 43.4688ZM118.378 38.1016C118.847 38.1016 119.284 37.9688 119.69 37.7031C120.097 37.4375 120.495 37.0703 120.886 36.6016C121.276 36.1172 121.675 35.5469 122.081 34.8906L118.448 26.4531C117.839 27.2656 117.284 28.0703 116.784 28.8672C116.3 29.6641 115.909 30.4531 115.612 31.2344C115.315 32.0156 115.151 32.7891 115.12 33.5547C115.073 35.0391 115.315 36.1719 115.847 36.9531C116.394 37.7188 117.237 38.1016 118.378 38.1016ZM120.511 16.1875C121.417 15.0156 122.159 13.8594 122.737 12.7188C123.315 11.5781 123.604 10.4375 123.604 9.29688C123.604 7.95312 123.44 6.98438 123.112 6.39062C122.784 5.79688 122.159 5.5 121.237 5.5C120.69 5.5 120.245 5.60938 119.901 5.82812C119.558 6.04688 119.292 6.34375 119.104 6.71875C118.933 7.07812 118.815 7.47656 118.753 7.91406C118.69 8.35156 118.659 8.78906 118.659 9.22656C118.659 9.85156 118.823 10.7734 119.151 11.9922C119.495 13.1953 119.948 14.5938 120.511 16.1875Z" stroke="#EAEAEA" stroke-width="2" mask="url(#path-1-outside-1_127_2787)"/>
<path d="M146.62 43V7.1875H141.792V1.75H157.519V7.1875H152.878V43H146.62Z" stroke="#EAEAEA" stroke-width="2" mask="url(#path-1-outside-1_127_2787)"/>
<path d="M168.183 43.4219C166.495 43.4219 165.081 43.1641 163.94 42.6484C162.8 42.1172 161.894 41.3594 161.222 40.375C160.565 39.375 160.089 38.1641 159.792 36.7422C159.511 35.3047 159.37 33.6719 159.37 31.8438V18.6953C159.37 16.4922 159.651 14.5469 160.214 12.8594C160.792 11.1562 161.729 9.82812 163.026 8.875C164.323 7.90625 166.042 7.42188 168.183 7.42188C169.808 7.42188 171.175 7.69531 172.284 8.24219C173.409 8.78906 174.308 9.57031 174.979 10.5859C175.667 11.5859 176.167 12.7734 176.479 14.1484C176.792 15.5234 176.948 17.0391 176.948 18.6953V31.8438C176.948 33.6406 176.808 35.25 176.526 36.6719C176.261 38.0938 175.792 39.3125 175.12 40.3281C174.464 41.3281 173.573 42.0938 172.448 42.625C171.323 43.1562 169.901 43.4219 168.183 43.4219ZM168.183 38.4062C168.886 38.4062 169.417 38.1953 169.776 37.7734C170.136 37.3359 170.378 36.7344 170.503 35.9688C170.628 35.2031 170.69 34.3203 170.69 33.3203V17.5938C170.69 16.5312 170.62 15.6172 170.479 14.8516C170.339 14.0859 170.089 13.4922 169.729 13.0703C169.37 12.6484 168.854 12.4375 168.183 12.4375C167.479 12.4375 166.94 12.6484 166.565 13.0703C166.206 13.4922 165.956 14.0859 165.815 14.8516C165.69 15.6172 165.628 16.5312 165.628 17.5938V33.3203C165.628 34.3203 165.69 35.2031 165.815 35.9688C165.956 36.7344 166.206 37.3359 166.565 37.7734C166.94 38.1953 167.479 38.4062 168.183 38.4062Z" stroke="#EAEAEA" stroke-width="2" mask="url(#path-1-outside-1_127_2787)"/>
<path d="M190.917 43.4219C189.229 43.4219 187.815 43.1641 186.675 42.6484C185.534 42.1172 184.628 41.3594 183.956 40.375C183.3 39.375 182.823 38.1641 182.526 36.7422C182.245 35.3047 182.104 33.6719 182.104 31.8438V18.6953C182.104 16.4922 182.386 14.5469 182.948 12.8594C183.526 11.1562 184.464 9.82812 185.761 8.875C187.058 7.90625 188.776 7.42188 190.917 7.42188C192.542 7.42188 193.909 7.69531 195.019 8.24219C196.144 8.78906 197.042 9.57031 197.714 10.5859C198.401 11.5859 198.901 12.7734 199.214 14.1484C199.526 15.5234 199.683 17.0391 199.683 18.6953V31.8438C199.683 33.6406 199.542 35.25 199.261 36.6719C198.995 38.0938 198.526 39.3125 197.854 40.3281C197.198 41.3281 196.308 42.0938 195.183 42.625C194.058 43.1562 192.636 43.4219 190.917 43.4219ZM190.917 38.4062C191.62 38.4062 192.151 38.1953 192.511 37.7734C192.87 37.3359 193.112 36.7344 193.237 35.9688C193.362 35.2031 193.425 34.3203 193.425 33.3203V17.5938C193.425 16.5312 193.354 15.6172 193.214 14.8516C193.073 14.0859 192.823 13.4922 192.464 13.0703C192.104 12.6484 191.589 12.4375 190.917 12.4375C190.214 12.4375 189.675 12.6484 189.3 13.0703C188.94 13.4922 188.69 14.0859 188.55 14.8516C188.425 15.6172 188.362 16.5312 188.362 17.5938V33.3203C188.362 34.3203 188.425 35.2031 188.55 35.9688C188.69 36.7344 188.94 37.3359 189.3 37.7734C189.675 38.1953 190.214 38.4062 190.917 38.4062Z" stroke="#EAEAEA" stroke-width="2" mask="url(#path-1-outside-1_127_2787)"/>
<path d="M205.354 43V1.39844H211.542V43H205.354Z" stroke="#EAEAEA" stroke-width="2" mask="url(#path-1-outside-1_127_2787)"/>
<path d="M225.089 43.4453C222.261 43.4453 220.159 42.6406 218.784 41.0312C217.409 39.4219 216.722 36.7891 216.722 33.1328V30.8594H222.558V33.6953C222.558 35.2266 222.745 36.3906 223.12 37.1875C223.495 37.9844 224.104 38.3828 224.948 38.3828C225.761 38.3828 226.362 38.1094 226.753 37.5625C227.144 37.0156 227.339 36.0703 227.339 34.7266C227.339 33.9453 227.222 33.1875 226.987 32.4531C226.769 31.7188 226.417 31 225.933 30.2969C225.464 29.5781 224.854 28.8828 224.104 28.2109L220.94 25.3516C219.487 24.0391 218.401 22.625 217.683 21.1094C216.964 19.5781 216.604 17.8906 216.604 16.0469C216.604 13.0625 217.3 10.8828 218.69 9.50781C220.097 8.11719 222.175 7.42188 224.925 7.42188C226.706 7.42188 228.183 7.75781 229.354 8.42969C230.526 9.08594 231.401 10.1562 231.979 11.6406C232.558 13.125 232.847 15.1172 232.847 17.6172V19.5391H227.292V17.2188C227.292 15.6719 227.112 14.5 226.753 13.7031C226.409 12.9062 225.815 12.5078 224.972 12.5078C224.144 12.5078 223.534 12.7422 223.144 13.2109C222.753 13.6641 222.542 14.4688 222.511 15.625C222.495 16.25 222.573 16.8672 222.745 17.4766C222.917 18.0703 223.183 18.6562 223.542 19.2344C223.917 19.7969 224.401 20.3516 224.995 20.8984L228.323 23.9219C230.073 25.5 231.362 27.1484 232.19 28.8672C233.034 30.5859 233.456 32.4453 233.456 34.4453C233.456 37.3984 232.784 39.6406 231.44 41.1719C230.097 42.6875 227.979 43.4453 225.089 43.4453Z" stroke="#EAEAEA" stroke-width="2" mask="url(#path-1-outside-1_127_2787)"/>
<defs>
<filter id="filter0_ii_127_2787" x="-0.879883" y="-0.742188" width="238.336" height="48.2109" filterUnits="userSpaceOnUse" color-interpolation-filters="sRGB">
<feFlood flood-opacity="0" result="BackgroundImageFix"/>
<feBlend mode="normal" in="SourceGraphic" in2="BackgroundImageFix" result="shape"/>
<feColorMatrix in="SourceAlpha" type="matrix" values="0 0 0 0 0 0 0 0 0 0 0 0 0 0 0 0 0 0 127 0" result="hardAlpha"/>
<feOffset dx="-1" dy="-1"/>
<feGaussianBlur stdDeviation="1.5"/>
<feComposite in2="hardAlpha" operator="arithmetic" k2="-1" k3="1"/>
<feColorMatrix type="matrix" values="0 0 0 0 0.984314 0 0 0 0 0.984314 0 0 0 0 0.984314 0 0 0 1 0"/>
<feBlend mode="normal" in2="shape" result="effect1_innerShadow_127_2787"/>
<feColorMatrix in="SourceAlpha" type="matrix" values="0 0 0 0 0 0 0 0 0 0 0 0 0 0 0 0 0 0 127 0" result="hardAlpha"/>
<feOffset dx="3" dy="3"/>
<feGaussianBlur stdDeviation="4.5"/>
<feComposite in2="hardAlpha" operator="arithmetic" k2="-1" k3="1"/>
<feColorMatrix type="matrix" values="0 0 0 0 0.772549 0 0 0 0 0.772549 0 0 0 0 0.772549 0 0 0 1 0"/>
<feBlend mode="normal" in2="effect1_innerShadow_127_2787" result="effect2_innerShadow_127_2787"/>
</filter>
</defs>
</svg>
