<svg width="85" height="84" viewBox="0 0 85 84" fill="none" xmlns="http://www.w3.org/2000/svg">
<g id="icon_icon" filter="url(#filter0_i_72_1698)">
<path d="M0.5 0V84H84.5V0H0.5ZM8.13636 7.63636H38.6818V38.1818H8.13636V7.63636ZM46.3182 7.63636H76.8636V38.1818H46.3182V7.63636ZM23.4091 15.2727L11.9545 30.5455H34.8636L23.4091 15.2727ZM53.9545 15.2727V30.5455H69.2273V15.2727H53.9545ZM8.13636 45.8182H38.6818V76.3636H8.13636V45.8182ZM46.3182 45.8182H76.8636V76.3636H46.3182V45.8182ZM61.5909 49.6364L53.9545 61.0909L61.5909 72.5455L69.2273 61.0909L61.5909 49.6364ZM23.4091 53.4545C21.3838 53.4545 19.4415 54.2591 18.0094 55.6912C16.5773 57.1233 15.7727 59.0656 15.7727 61.0909C15.7727 63.1162 16.5773 65.0585 18.0094 66.4906C19.4415 67.9227 21.3838 68.7273 23.4091 68.7273C25.4344 68.7273 27.3767 67.9227 28.8088 66.4906C30.2409 65.0585 31.0455 63.1162 31.0455 61.0909C31.0455 59.0656 30.2409 57.1233 28.8088 55.6912C27.3767 54.2591 25.4344 53.4545 23.4091 53.4545Z" fill="#D4EAEE"/>
</g>
<defs>
<filter id="filter0_i_72_1698" x="0.5" y="0" width="85" height="85" filterUnits="userSpaceOnUse" color-interpolation-filters="sRGB">
<feFlood flood-opacity="0" result="BackgroundImageFix"/>
<feBlend mode="normal" in="SourceGraphic" in2="BackgroundImageFix" result="shape"/>
<feColorMatrix in="SourceAlpha" type="matrix" values="0 0 0 0 0 0 0 0 0 0 0 0 0 0 0 0 0 0 127 0" result="hardAlpha"/>
<feOffset dx="1" dy="1"/>
<feGaussianBlur stdDeviation="1.5"/>
<feComposite in2="hardAlpha" operator="arithmetic" k2="-1" k3="1"/>
<feColorMatrix type="matrix" values="0 0 0 0 0.772549 0 0 0 0 0.772549 0 0 0 0 0.772549 0 0 0 1 0"/>
<feBlend mode="normal" in2="shape" result="effect1_innerShadow_72_1698"/>
</filter>
</defs>
</svg>
