<svg width="409" height="47" viewBox="0 0 409 47" fill="none" xmlns="http://www.w3.org/2000/svg">
<mask id="path-1-outside-1_127_2792" maskUnits="userSpaceOnUse" x="0.0498047" y="0.21875" width="409" height="47" fill="black">
<rect fill="white" x="0.0498047" y="0.21875" width="409" height="47"/>
<path d="M1.0498 45V3.75H7.33105V45H1.0498Z"/>
<path d="M13.6592 45V3.39844H19.8467V45H13.6592Z"/>
<path d="M26.1279 45V3.39844H32.3154V45H26.1279Z"/>
<path d="M44.6201 45.4453C43.2295 45.4453 42.0654 45.1328 41.1279 44.5078C40.2061 43.8828 39.5107 42.9531 39.042 41.7188C38.5889 40.4688 38.3623 38.9062 38.3623 37.0312V9.84375H44.5967V36.0703C44.5967 37.4141 44.7607 38.4609 45.0889 39.2109C45.417 39.9609 46.1045 40.3359 47.1514 40.3359C48.2451 40.3359 48.9873 39.9141 49.3779 39.0703C49.7842 38.2109 49.9873 37.2266 49.9873 36.1172L50.0107 9.84375H56.1982V45H49.9873V41.3438C49.5498 42.5312 48.917 43.5156 48.0889 44.2969C47.2607 45.0625 46.1045 45.4453 44.6201 45.4453Z"/>
<path d="M69.5342 45.4453C66.7061 45.4453 64.6045 44.6406 63.2295 43.0312C61.8545 41.4219 61.167 38.7891 61.167 35.1328V32.8594H67.0029V35.6953C67.0029 37.2266 67.1904 38.3906 67.5654 39.1875C67.9404 39.9844 68.5498 40.3828 69.3936 40.3828C70.2061 40.3828 70.8076 40.1094 71.1982 39.5625C71.5889 39.0156 71.7842 38.0703 71.7842 36.7266C71.7842 35.9453 71.667 35.1875 71.4326 34.4531C71.2139 33.7188 70.8623 33 70.3779 32.2969C69.9092 31.5781 69.2998 30.8828 68.5498 30.2109L65.3857 27.3516C63.9326 26.0391 62.8467 24.625 62.1279 23.1094C61.4092 21.5781 61.0498 19.8906 61.0498 18.0469C61.0498 15.0625 61.7451 12.8828 63.1357 11.5078C64.542 10.1172 66.6201 9.42188 69.3701 9.42188C71.1514 9.42188 72.6279 9.75781 73.7998 10.4297C74.9717 11.0859 75.8467 12.1562 76.4248 13.6406C77.0029 15.125 77.292 17.1172 77.292 19.6172V21.5391H71.7373V19.2188C71.7373 17.6719 71.5576 16.5 71.1982 15.7031C70.8545 14.9062 70.2607 14.5078 69.417 14.5078C68.5889 14.5078 67.9795 14.7422 67.5889 15.2109C67.1982 15.6641 66.9873 16.4688 66.9561 17.625C66.9404 18.25 67.0186 18.8672 67.1904 19.4766C67.3623 20.0703 67.6279 20.6562 67.9873 21.2344C68.3623 21.7969 68.8467 22.3516 69.4404 22.8984L72.7686 25.9219C74.5186 27.5 75.8076 29.1484 76.6357 30.8672C77.4795 32.5859 77.9014 34.4453 77.9014 36.4453C77.9014 39.3984 77.2295 41.6406 75.8857 43.1719C74.542 44.6875 72.4248 45.4453 69.5342 45.4453Z"/>
<path d="M88.7998 45.2344C87.2998 45.2344 86.1514 45.0469 85.3545 44.6719C84.5576 44.2812 84.0107 43.6719 83.7139 42.8438C83.417 42.0156 83.2686 40.9453 83.2686 39.6328V15.0703H80.4092V10.5703H83.2686V3.75H89.4795V10.5703H92.9014V15.0703H89.4795V38.5547C89.4795 39.1016 89.5654 39.5156 89.7373 39.7969C89.9092 40.0781 90.2451 40.2656 90.7451 40.3594C91.2607 40.4531 92.0186 40.5 93.0186 40.5V45.2344H88.7998Z"/>
<path d="M97.4248 45V9.84375H103.683V13.7578C104.089 12.3984 104.792 11.3359 105.792 10.5703C106.808 9.80469 108.097 9.42188 109.659 9.42188C109.69 9.42188 109.706 9.6875 109.706 10.2188C109.722 10.75 109.729 11.3594 109.729 12.0469C109.729 12.7344 109.729 13.3438 109.729 13.875C109.729 14.4062 109.729 14.6719 109.729 14.6719C109.011 14.6719 108.229 14.7578 107.386 14.9297C106.558 15.1016 105.8 15.3672 105.112 15.7266C104.44 16.0703 103.964 16.5312 103.683 17.1094V45H97.4248Z"/>
<path d="M119.503 45.3516C117.097 45.3516 115.425 44.4766 114.487 42.7266C113.565 40.9766 113.089 38.6562 113.058 35.7656V33.5156C113.058 31.6406 113.323 30.1172 113.854 28.9453C114.401 27.7734 115.175 26.8203 116.175 26.0859C117.175 25.3516 118.37 24.7109 119.761 24.1641C121.151 23.6172 122.698 23.0312 124.401 22.4062V19.3359C124.401 18.1484 124.354 17.2031 124.261 16.5C124.167 15.7812 123.956 15.2578 123.628 14.9297C123.3 14.6016 122.792 14.4375 122.104 14.4375C121.433 14.4375 120.917 14.6094 120.558 14.9531C120.214 15.2812 119.979 15.7969 119.854 16.5C119.729 17.1875 119.667 18.0703 119.667 19.1484V20.7188H113.526V19.6641C113.526 18.0547 113.659 16.6172 113.925 15.3516C114.206 14.0859 114.675 13.0156 115.331 12.1406C115.987 11.25 116.878 10.5781 118.003 10.125C119.144 9.65625 120.573 9.42188 122.292 9.42188C123.808 9.42188 125.104 9.64062 126.183 10.0781C127.261 10.5 128.136 11.1406 128.808 12C129.479 12.8438 129.972 13.9062 130.284 15.1875C130.597 16.4688 130.753 17.9609 130.753 19.6641V45H124.495V41.5078C124.308 42.1797 123.987 42.8125 123.534 43.4062C123.081 43.9844 122.511 44.4531 121.823 44.8125C121.151 45.1719 120.378 45.3516 119.503 45.3516ZM121.659 40.5703C122.44 40.5703 123.065 40.2891 123.534 39.7266C124.003 39.1641 124.292 38.5938 124.401 38.0156V25.9219C123.464 26.3438 122.675 26.7422 122.034 27.1172C121.394 27.4766 120.878 27.875 120.487 28.3125C120.097 28.75 119.815 29.2656 119.644 29.8594C119.472 30.4531 119.386 31.1797 119.386 32.0391V35.9766C119.386 37.5859 119.55 38.7578 119.878 39.4922C120.222 40.2109 120.815 40.5703 121.659 40.5703Z"/>
<path d="M142.847 45.2344C141.347 45.2344 140.198 45.0469 139.401 44.6719C138.604 44.2812 138.058 43.6719 137.761 42.8438C137.464 42.0156 137.315 40.9453 137.315 39.6328V15.0703H134.456V10.5703H137.315V3.75H143.526V10.5703H146.948V15.0703H143.526V38.5547C143.526 39.1016 143.612 39.5156 143.784 39.7969C143.956 40.0781 144.292 40.2656 144.792 40.3594C145.308 40.4531 146.065 40.5 147.065 40.5V45.2344H142.847Z"/>
<path d="M151.565 45V9.84375H157.776V45H151.565ZM151.542 6.60938V1.21875H157.8V6.60938H151.542Z"/>
<path d="M172.378 45.4219C170.69 45.4219 169.276 45.1641 168.136 44.6484C166.995 44.1172 166.089 43.3594 165.417 42.375C164.761 41.375 164.284 40.1641 163.987 38.7422C163.706 37.3047 163.565 35.6719 163.565 33.8438V20.6953C163.565 18.4922 163.847 16.5469 164.409 14.8594C164.987 13.1562 165.925 11.8281 167.222 10.875C168.519 9.90625 170.237 9.42188 172.378 9.42188C174.003 9.42188 175.37 9.69531 176.479 10.2422C177.604 10.7891 178.503 11.5703 179.175 12.5859C179.862 13.5859 180.362 14.7734 180.675 16.1484C180.987 17.5234 181.144 19.0391 181.144 20.6953V33.8438C181.144 35.6406 181.003 37.25 180.722 38.6719C180.456 40.0938 179.987 41.3125 179.315 42.3281C178.659 43.3281 177.769 44.0938 176.644 44.625C175.519 45.1562 174.097 45.4219 172.378 45.4219ZM172.378 40.4062C173.081 40.4062 173.612 40.1953 173.972 39.7734C174.331 39.3359 174.573 38.7344 174.698 37.9688C174.823 37.2031 174.886 36.3203 174.886 35.3203V19.5938C174.886 18.5312 174.815 17.6172 174.675 16.8516C174.534 16.0859 174.284 15.4922 173.925 15.0703C173.565 14.6484 173.05 14.4375 172.378 14.4375C171.675 14.4375 171.136 14.6484 170.761 15.0703C170.401 15.4922 170.151 16.0859 170.011 16.8516C169.886 17.6172 169.823 18.5312 169.823 19.5938V35.3203C169.823 36.3203 169.886 37.2031 170.011 37.9688C170.151 38.7344 170.401 39.3359 170.761 39.7734C171.136 40.1953 171.675 40.4062 172.378 40.4062Z"/>
<path d="M186.792 45V9.84375H193.003V13.875C193.315 12.6719 193.972 11.6328 194.972 10.7578C195.972 9.86719 197.198 9.42188 198.651 9.42188C200.683 9.42188 202.206 10.1016 203.222 11.4609C204.237 12.8047 204.745 14.7578 204.745 17.3203V45H198.534V17.6953C198.534 16.6797 198.3 15.8828 197.831 15.3047C197.378 14.7266 196.753 14.4375 195.956 14.4375C195.315 14.4375 194.769 14.6172 194.315 14.9766C193.878 15.3203 193.55 15.8047 193.331 16.4297C193.112 17.0391 193.003 17.7578 193.003 18.5859V45H186.792Z"/>
<path d="M219.347 45V3.75H229.729C231.886 3.75 233.495 4.17188 234.558 5.01562C235.62 5.85938 236.315 7.09375 236.644 8.71875C236.987 10.3438 237.159 12.3281 237.159 14.6719C237.159 17.0938 236.909 19 236.409 20.3906C235.925 21.7656 234.925 22.6875 233.409 23.1562C234.128 23.2812 234.729 23.5781 235.214 24.0469C235.698 24.5 236.089 25.1719 236.386 26.0625C236.683 26.9375 236.894 28.0703 237.019 29.4609C237.159 30.8359 237.229 32.5234 237.229 34.5234C237.229 34.6797 237.229 35.1172 237.229 35.8359C237.229 36.5547 237.229 37.4062 237.229 38.3906C237.245 39.3594 237.261 40.3281 237.276 41.2969C237.292 42.2656 237.315 43.0938 237.347 43.7812C237.378 44.4688 237.417 44.875 237.464 45H231.183C231.136 44.9219 231.097 44.5234 231.065 43.8047C231.05 43.0703 231.026 42.1406 230.995 41.0156C230.979 39.8906 230.964 38.6797 230.948 37.3828C230.948 36.0859 230.948 34.8125 230.948 33.5625C230.948 32.2969 230.948 31.1797 230.948 30.2109C230.948 28.9766 230.854 28.0469 230.667 27.4219C230.495 26.7812 230.167 26.3359 229.683 26.0859C229.214 25.8359 228.534 25.6875 227.644 25.6406L225.628 25.5234V45H219.347ZM225.651 20.6484H228.159C228.925 20.6484 229.503 20.4766 229.894 20.1328C230.3 19.7891 230.573 19.1562 230.714 18.2344C230.87 17.3125 230.948 15.9844 230.948 14.25V13.9922C230.948 12.5391 230.878 11.4219 230.737 10.6406C230.597 9.85938 230.3 9.32031 229.847 9.02344C229.409 8.72656 228.722 8.57812 227.784 8.57812H225.651V20.6484Z"/>
<path d="M250.776 45.4219C249.011 45.4219 247.558 45.1406 246.417 44.5781C245.292 44.0156 244.409 43.2031 243.769 42.1406C243.144 41.0781 242.706 39.8047 242.456 38.3203C242.206 36.8203 242.081 35.1484 242.081 33.3047V20.2031C242.081 18.5625 242.245 17.0781 242.573 15.75C242.917 14.4219 243.44 13.2891 244.144 12.3516C244.862 11.4141 245.792 10.6953 246.933 10.1953C248.073 9.67969 249.448 9.42188 251.058 9.42188C252.698 9.42188 254.065 9.67188 255.159 10.1719C256.253 10.6719 257.112 11.3984 257.737 12.3516C258.378 13.3047 258.831 14.4531 259.097 15.7969C259.378 17.125 259.519 18.6328 259.519 20.3203V27.8438H248.339V34.7578C248.339 36.4609 248.472 37.8281 248.737 38.8594C249.003 39.8906 249.729 40.4062 250.917 40.4062C251.714 40.4062 252.276 40.1641 252.604 39.6797C252.948 39.1953 253.151 38.5312 253.214 37.6875C253.292 36.8281 253.331 35.8516 253.331 34.7578V31.6641H259.472V33.5391C259.472 35.4297 259.354 37.1094 259.12 38.5781C258.901 40.0469 258.479 41.2891 257.854 42.3047C257.245 43.3203 256.37 44.0938 255.229 44.625C254.089 45.1562 252.604 45.4219 250.776 45.4219ZM248.315 24.2109H253.331V19.7109C253.331 18.5391 253.276 17.5547 253.167 16.7578C253.058 15.9453 252.839 15.3359 252.511 14.9297C252.183 14.5234 251.683 14.3203 251.011 14.3203C250.183 14.3203 249.573 14.5625 249.183 15.0469C248.808 15.5312 248.565 16.1953 248.456 17.0391C248.362 17.8672 248.315 18.8125 248.315 19.875V24.2109Z"/>
<path d="M272.034 45.4453C269.206 45.4453 267.104 44.6406 265.729 43.0312C264.354 41.4219 263.667 38.7891 263.667 35.1328V32.8594H269.503V35.6953C269.503 37.2266 269.69 38.3906 270.065 39.1875C270.44 39.9844 271.05 40.3828 271.894 40.3828C272.706 40.3828 273.308 40.1094 273.698 39.5625C274.089 39.0156 274.284 38.0703 274.284 36.7266C274.284 35.9453 274.167 35.1875 273.933 34.4531C273.714 33.7188 273.362 33 272.878 32.2969C272.409 31.5781 271.8 30.8828 271.05 30.2109L267.886 27.3516C266.433 26.0391 265.347 24.625 264.628 23.1094C263.909 21.5781 263.55 19.8906 263.55 18.0469C263.55 15.0625 264.245 12.8828 265.636 11.5078C267.042 10.1172 269.12 9.42188 271.87 9.42188C273.651 9.42188 275.128 9.75781 276.3 10.4297C277.472 11.0859 278.347 12.1562 278.925 13.6406C279.503 15.125 279.792 17.1172 279.792 19.6172V21.5391H274.237V19.2188C274.237 17.6719 274.058 16.5 273.698 15.7031C273.354 14.9062 272.761 14.5078 271.917 14.5078C271.089 14.5078 270.479 14.7422 270.089 15.2109C269.698 15.6641 269.487 16.4688 269.456 17.625C269.44 18.25 269.519 18.8672 269.69 19.4766C269.862 20.0703 270.128 20.6562 270.487 21.2344C270.862 21.7969 271.347 22.3516 271.94 22.8984L275.269 25.9219C277.019 27.5 278.308 29.1484 279.136 30.8672C279.979 32.5859 280.401 34.4453 280.401 36.4453C280.401 39.3984 279.729 41.6406 278.386 43.1719C277.042 44.6875 274.925 45.4453 272.034 45.4453Z"/>
<path d="M293.269 45.4219C291.581 45.4219 290.167 45.1641 289.026 44.6484C287.886 44.1172 286.979 43.3594 286.308 42.375C285.651 41.375 285.175 40.1641 284.878 38.7422C284.597 37.3047 284.456 35.6719 284.456 33.8438V20.6953C284.456 18.4922 284.737 16.5469 285.3 14.8594C285.878 13.1562 286.815 11.8281 288.112 10.875C289.409 9.90625 291.128 9.42188 293.269 9.42188C294.894 9.42188 296.261 9.69531 297.37 10.2422C298.495 10.7891 299.394 11.5703 300.065 12.5859C300.753 13.5859 301.253 14.7734 301.565 16.1484C301.878 17.5234 302.034 19.0391 302.034 20.6953V33.8438C302.034 35.6406 301.894 37.25 301.612 38.6719C301.347 40.0938 300.878 41.3125 300.206 42.3281C299.55 43.3281 298.659 44.0938 297.534 44.625C296.409 45.1562 294.987 45.4219 293.269 45.4219ZM293.269 40.4062C293.972 40.4062 294.503 40.1953 294.862 39.7734C295.222 39.3359 295.464 38.7344 295.589 37.9688C295.714 37.2031 295.776 36.3203 295.776 35.3203V19.5938C295.776 18.5312 295.706 17.6172 295.565 16.8516C295.425 16.0859 295.175 15.4922 294.815 15.0703C294.456 14.6484 293.94 14.4375 293.269 14.4375C292.565 14.4375 292.026 14.6484 291.651 15.0703C291.292 15.4922 291.042 16.0859 290.901 16.8516C290.776 17.6172 290.714 18.5312 290.714 19.5938V35.3203C290.714 36.3203 290.776 37.2031 290.901 37.9688C291.042 38.7344 291.292 39.3359 291.651 39.7734C292.026 40.1953 292.565 40.4062 293.269 40.4062Z"/>
<path d="M313.729 45.4453C312.339 45.4453 311.175 45.1328 310.237 44.5078C309.315 43.8828 308.62 42.9531 308.151 41.7188C307.698 40.4688 307.472 38.9062 307.472 37.0312V9.84375H313.706V36.0703C313.706 37.4141 313.87 38.4609 314.198 39.2109C314.526 39.9609 315.214 40.3359 316.261 40.3359C317.354 40.3359 318.097 39.9141 318.487 39.0703C318.894 38.2109 319.097 37.2266 319.097 36.1172L319.12 9.84375H325.308V45H319.097V41.3438C318.659 42.5312 318.026 43.5156 317.198 44.2969C316.37 45.0625 315.214 45.4453 313.729 45.4453Z"/>
<path d="M331.378 45V9.84375H337.636V13.7578C338.042 12.3984 338.745 11.3359 339.745 10.5703C340.761 9.80469 342.05 9.42188 343.612 9.42188C343.644 9.42188 343.659 9.6875 343.659 10.2188C343.675 10.75 343.683 11.3594 343.683 12.0469C343.683 12.7344 343.683 13.3438 343.683 13.875C343.683 14.4062 343.683 14.6719 343.683 14.6719C342.964 14.6719 342.183 14.7578 341.339 14.9297C340.511 15.1016 339.753 15.3672 339.065 15.7266C338.394 16.0703 337.917 16.5312 337.636 17.1094V45H331.378Z"/>
<path d="M356.222 45.4219C354.425 45.4219 352.94 45.1484 351.769 44.6016C350.597 44.0391 349.675 43.2344 349.003 42.1875C348.347 41.1406 347.886 39.8672 347.62 38.3672C347.354 36.8672 347.222 35.1719 347.222 33.2812V21.8906C347.222 19.2969 347.464 17.0703 347.948 15.2109C348.433 13.3516 349.323 11.9219 350.62 10.9219C351.933 9.92188 353.823 9.42188 356.292 9.42188C357.808 9.42188 359.089 9.65625 360.136 10.125C361.183 10.5938 362.026 11.2734 362.667 12.1641C363.308 13.0391 363.769 14.1016 364.05 15.3516C364.347 16.6016 364.495 18.0078 364.495 19.5703V23.4375H358.495V19.3594C358.495 18.3438 358.448 17.4766 358.354 16.7578C358.261 16.0234 358.05 15.4688 357.722 15.0938C357.394 14.7031 356.87 14.5078 356.151 14.5078C355.448 14.5078 354.901 14.7031 354.511 15.0938C354.12 15.4844 353.847 16.0547 353.69 16.8047C353.55 17.5391 353.479 18.4219 353.479 19.4531V35.2969C353.479 36.3594 353.542 37.2656 353.667 38.0156C353.808 38.7656 354.058 39.3438 354.417 39.75C354.792 40.1406 355.339 40.3359 356.058 40.3359C356.761 40.3359 357.284 40.1328 357.628 39.7266C357.987 39.3047 358.222 38.7188 358.331 37.9688C358.44 37.2188 358.495 36.3359 358.495 35.3203V31.1484H364.495V34.7109C364.495 36.3203 364.354 37.7891 364.073 39.1172C363.792 40.4297 363.331 41.5547 362.69 42.4922C362.05 43.4297 361.198 44.1562 360.136 44.6719C359.073 45.1719 357.769 45.4219 356.222 45.4219Z"/>
<path d="M377.901 45.4219C376.136 45.4219 374.683 45.1406 373.542 44.5781C372.417 44.0156 371.534 43.2031 370.894 42.1406C370.269 41.0781 369.831 39.8047 369.581 38.3203C369.331 36.8203 369.206 35.1484 369.206 33.3047V20.2031C369.206 18.5625 369.37 17.0781 369.698 15.75C370.042 14.4219 370.565 13.2891 371.269 12.3516C371.987 11.4141 372.917 10.6953 374.058 10.1953C375.198 9.67969 376.573 9.42188 378.183 9.42188C379.823 9.42188 381.19 9.67188 382.284 10.1719C383.378 10.6719 384.237 11.3984 384.862 12.3516C385.503 13.3047 385.956 14.4531 386.222 15.7969C386.503 17.125 386.644 18.6328 386.644 20.3203V27.8438H375.464V34.7578C375.464 36.4609 375.597 37.8281 375.862 38.8594C376.128 39.8906 376.854 40.4062 378.042 40.4062C378.839 40.4062 379.401 40.1641 379.729 39.6797C380.073 39.1953 380.276 38.5312 380.339 37.6875C380.417 36.8281 380.456 35.8516 380.456 34.7578V31.6641H386.597V33.5391C386.597 35.4297 386.479 37.1094 386.245 38.5781C386.026 40.0469 385.604 41.2891 384.979 42.3047C384.37 43.3203 383.495 44.0938 382.354 44.625C381.214 45.1562 379.729 45.4219 377.901 45.4219ZM375.44 24.2109H380.456V19.7109C380.456 18.5391 380.401 17.5547 380.292 16.7578C380.183 15.9453 379.964 15.3359 379.636 14.9297C379.308 14.5234 378.808 14.3203 378.136 14.3203C377.308 14.3203 376.698 14.5625 376.308 15.0469C375.933 15.5312 375.69 16.1953 375.581 17.0391C375.487 17.8672 375.44 18.8125 375.44 19.875V24.2109Z"/>
<path d="M399.159 45.4453C396.331 45.4453 394.229 44.6406 392.854 43.0312C391.479 41.4219 390.792 38.7891 390.792 35.1328V32.8594H396.628V35.6953C396.628 37.2266 396.815 38.3906 397.19 39.1875C397.565 39.9844 398.175 40.3828 399.019 40.3828C399.831 40.3828 400.433 40.1094 400.823 39.5625C401.214 39.0156 401.409 38.0703 401.409 36.7266C401.409 35.9453 401.292 35.1875 401.058 34.4531C400.839 33.7188 400.487 33 400.003 32.2969C399.534 31.5781 398.925 30.8828 398.175 30.2109L395.011 27.3516C393.558 26.0391 392.472 24.625 391.753 23.1094C391.034 21.5781 390.675 19.8906 390.675 18.0469C390.675 15.0625 391.37 12.8828 392.761 11.5078C394.167 10.1172 396.245 9.42188 398.995 9.42188C400.776 9.42188 402.253 9.75781 403.425 10.4297C404.597 11.0859 405.472 12.1562 406.05 13.6406C406.628 15.125 406.917 17.1172 406.917 19.6172V21.5391H401.362V19.2188C401.362 17.6719 401.183 16.5 400.823 15.7031C400.479 14.9062 399.886 14.5078 399.042 14.5078C398.214 14.5078 397.604 14.7422 397.214 15.2109C396.823 15.6641 396.612 16.4688 396.581 17.625C396.565 18.25 396.644 18.8672 396.815 19.4766C396.987 20.0703 397.253 20.6562 397.612 21.2344C397.987 21.7969 398.472 22.3516 399.065 22.8984L402.394 25.9219C404.144 27.5 405.433 29.1484 406.261 30.8672C407.104 32.5859 407.526 34.4453 407.526 36.4453C407.526 39.3984 406.854 41.6406 405.511 43.1719C404.167 44.6875 402.05 45.4453 399.159 45.4453Z"/>
</mask>
<g filter="url(#filter0_ii_127_2792)">
<path d="M1.0498 45V3.75H7.33105V45H1.0498Z" fill="#D1DADB"/>
<path d="M13.6592 45V3.39844H19.8467V45H13.6592Z" fill="#D1DADB"/>
<path d="M26.1279 45V3.39844H32.3154V45H26.1279Z" fill="#D1DADB"/>
<path d="M44.6201 45.4453C43.2295 45.4453 42.0654 45.1328 41.1279 44.5078C40.2061 43.8828 39.5107 42.9531 39.042 41.7188C38.5889 40.4688 38.3623 38.9062 38.3623 37.0312V9.84375H44.5967V36.0703C44.5967 37.4141 44.7607 38.4609 45.0889 39.2109C45.417 39.9609 46.1045 40.3359 47.1514 40.3359C48.2451 40.3359 48.9873 39.9141 49.3779 39.0703C49.7842 38.2109 49.9873 37.2266 49.9873 36.1172L50.0107 9.84375H56.1982V45H49.9873V41.3438C49.5498 42.5312 48.917 43.5156 48.0889 44.2969C47.2607 45.0625 46.1045 45.4453 44.6201 45.4453Z" fill="#D1DADB"/>
<path d="M69.5342 45.4453C66.7061 45.4453 64.6045 44.6406 63.2295 43.0312C61.8545 41.4219 61.167 38.7891 61.167 35.1328V32.8594H67.0029V35.6953C67.0029 37.2266 67.1904 38.3906 67.5654 39.1875C67.9404 39.9844 68.5498 40.3828 69.3936 40.3828C70.2061 40.3828 70.8076 40.1094 71.1982 39.5625C71.5889 39.0156 71.7842 38.0703 71.7842 36.7266C71.7842 35.9453 71.667 35.1875 71.4326 34.4531C71.2139 33.7188 70.8623 33 70.3779 32.2969C69.9092 31.5781 69.2998 30.8828 68.5498 30.2109L65.3857 27.3516C63.9326 26.0391 62.8467 24.625 62.1279 23.1094C61.4092 21.5781 61.0498 19.8906 61.0498 18.0469C61.0498 15.0625 61.7451 12.8828 63.1357 11.5078C64.542 10.1172 66.6201 9.42188 69.3701 9.42188C71.1514 9.42188 72.6279 9.75781 73.7998 10.4297C74.9717 11.0859 75.8467 12.1562 76.4248 13.6406C77.0029 15.125 77.292 17.1172 77.292 19.6172V21.5391H71.7373V19.2188C71.7373 17.6719 71.5576 16.5 71.1982 15.7031C70.8545 14.9062 70.2607 14.5078 69.417 14.5078C68.5889 14.5078 67.9795 14.7422 67.5889 15.2109C67.1982 15.6641 66.9873 16.4688 66.9561 17.625C66.9404 18.25 67.0186 18.8672 67.1904 19.4766C67.3623 20.0703 67.6279 20.6562 67.9873 21.2344C68.3623 21.7969 68.8467 22.3516 69.4404 22.8984L72.7686 25.9219C74.5186 27.5 75.8076 29.1484 76.6357 30.8672C77.4795 32.5859 77.9014 34.4453 77.9014 36.4453C77.9014 39.3984 77.2295 41.6406 75.8857 43.1719C74.542 44.6875 72.4248 45.4453 69.5342 45.4453Z" fill="#D1DADB"/>
<path d="M88.7998 45.2344C87.2998 45.2344 86.1514 45.0469 85.3545 44.6719C84.5576 44.2812 84.0107 43.6719 83.7139 42.8438C83.417 42.0156 83.2686 40.9453 83.2686 39.6328V15.0703H80.4092V10.5703H83.2686V3.75H89.4795V10.5703H92.9014V15.0703H89.4795V38.5547C89.4795 39.1016 89.5654 39.5156 89.7373 39.7969C89.9092 40.0781 90.2451 40.2656 90.7451 40.3594C91.2607 40.4531 92.0186 40.5 93.0186 40.5V45.2344H88.7998Z" fill="#D1DADB"/>
<path d="M97.4248 45V9.84375H103.683V13.7578C104.089 12.3984 104.792 11.3359 105.792 10.5703C106.808 9.80469 108.097 9.42188 109.659 9.42188C109.69 9.42188 109.706 9.6875 109.706 10.2188C109.722 10.75 109.729 11.3594 109.729 12.0469C109.729 12.7344 109.729 13.3438 109.729 13.875C109.729 14.4062 109.729 14.6719 109.729 14.6719C109.011 14.6719 108.229 14.7578 107.386 14.9297C106.558 15.1016 105.8 15.3672 105.112 15.7266C104.44 16.0703 103.964 16.5312 103.683 17.1094V45H97.4248Z" fill="#D1DADB"/>
<path d="M119.503 45.3516C117.097 45.3516 115.425 44.4766 114.487 42.7266C113.565 40.9766 113.089 38.6562 113.058 35.7656V33.5156C113.058 31.6406 113.323 30.1172 113.854 28.9453C114.401 27.7734 115.175 26.8203 116.175 26.0859C117.175 25.3516 118.37 24.7109 119.761 24.1641C121.151 23.6172 122.698 23.0312 124.401 22.4062V19.3359C124.401 18.1484 124.354 17.2031 124.261 16.5C124.167 15.7812 123.956 15.2578 123.628 14.9297C123.3 14.6016 122.792 14.4375 122.104 14.4375C121.433 14.4375 120.917 14.6094 120.558 14.9531C120.214 15.2812 119.979 15.7969 119.854 16.5C119.729 17.1875 119.667 18.0703 119.667 19.1484V20.7188H113.526V19.6641C113.526 18.0547 113.659 16.6172 113.925 15.3516C114.206 14.0859 114.675 13.0156 115.331 12.1406C115.987 11.25 116.878 10.5781 118.003 10.125C119.144 9.65625 120.573 9.42188 122.292 9.42188C123.808 9.42188 125.104 9.64062 126.183 10.0781C127.261 10.5 128.136 11.1406 128.808 12C129.479 12.8438 129.972 13.9062 130.284 15.1875C130.597 16.4688 130.753 17.9609 130.753 19.6641V45H124.495V41.5078C124.308 42.1797 123.987 42.8125 123.534 43.4062C123.081 43.9844 122.511 44.4531 121.823 44.8125C121.151 45.1719 120.378 45.3516 119.503 45.3516ZM121.659 40.5703C122.44 40.5703 123.065 40.2891 123.534 39.7266C124.003 39.1641 124.292 38.5938 124.401 38.0156V25.9219C123.464 26.3438 122.675 26.7422 122.034 27.1172C121.394 27.4766 120.878 27.875 120.487 28.3125C120.097 28.75 119.815 29.2656 119.644 29.8594C119.472 30.4531 119.386 31.1797 119.386 32.0391V35.9766C119.386 37.5859 119.55 38.7578 119.878 39.4922C120.222 40.2109 120.815 40.5703 121.659 40.5703Z" fill="#D1DADB"/>
<path d="M142.847 45.2344C141.347 45.2344 140.198 45.0469 139.401 44.6719C138.604 44.2812 138.058 43.6719 137.761 42.8438C137.464 42.0156 137.315 40.9453 137.315 39.6328V15.0703H134.456V10.5703H137.315V3.75H143.526V10.5703H146.948V15.0703H143.526V38.5547C143.526 39.1016 143.612 39.5156 143.784 39.7969C143.956 40.0781 144.292 40.2656 144.792 40.3594C145.308 40.4531 146.065 40.5 147.065 40.5V45.2344H142.847Z" fill="#D1DADB"/>
<path d="M151.565 45V9.84375H157.776V45H151.565ZM151.542 6.60938V1.21875H157.8V6.60938H151.542Z" fill="#D1DADB"/>
<path d="M172.378 45.4219C170.69 45.4219 169.276 45.1641 168.136 44.6484C166.995 44.1172 166.089 43.3594 165.417 42.375C164.761 41.375 164.284 40.1641 163.987 38.7422C163.706 37.3047 163.565 35.6719 163.565 33.8438V20.6953C163.565 18.4922 163.847 16.5469 164.409 14.8594C164.987 13.1562 165.925 11.8281 167.222 10.875C168.519 9.90625 170.237 9.42188 172.378 9.42188C174.003 9.42188 175.37 9.69531 176.479 10.2422C177.604 10.7891 178.503 11.5703 179.175 12.5859C179.862 13.5859 180.362 14.7734 180.675 16.1484C180.987 17.5234 181.144 19.0391 181.144 20.6953V33.8438C181.144 35.6406 181.003 37.25 180.722 38.6719C180.456 40.0938 179.987 41.3125 179.315 42.3281C178.659 43.3281 177.769 44.0938 176.644 44.625C175.519 45.1562 174.097 45.4219 172.378 45.4219ZM172.378 40.4062C173.081 40.4062 173.612 40.1953 173.972 39.7734C174.331 39.3359 174.573 38.7344 174.698 37.9688C174.823 37.2031 174.886 36.3203 174.886 35.3203V19.5938C174.886 18.5312 174.815 17.6172 174.675 16.8516C174.534 16.0859 174.284 15.4922 173.925 15.0703C173.565 14.6484 173.05 14.4375 172.378 14.4375C171.675 14.4375 171.136 14.6484 170.761 15.0703C170.401 15.4922 170.151 16.0859 170.011 16.8516C169.886 17.6172 169.823 18.5312 169.823 19.5938V35.3203C169.823 36.3203 169.886 37.2031 170.011 37.9688C170.151 38.7344 170.401 39.3359 170.761 39.7734C171.136 40.1953 171.675 40.4062 172.378 40.4062Z" fill="#D1DADB"/>
<path d="M186.792 45V9.84375H193.003V13.875C193.315 12.6719 193.972 11.6328 194.972 10.7578C195.972 9.86719 197.198 9.42188 198.651 9.42188C200.683 9.42188 202.206 10.1016 203.222 11.4609C204.237 12.8047 204.745 14.7578 204.745 17.3203V45H198.534V17.6953C198.534 16.6797 198.3 15.8828 197.831 15.3047C197.378 14.7266 196.753 14.4375 195.956 14.4375C195.315 14.4375 194.769 14.6172 194.315 14.9766C193.878 15.3203 193.55 15.8047 193.331 16.4297C193.112 17.0391 193.003 17.7578 193.003 18.5859V45H186.792Z" fill="#D1DADB"/>
<path d="M219.347 45V3.75H229.729C231.886 3.75 233.495 4.17188 234.558 5.01562C235.62 5.85938 236.315 7.09375 236.644 8.71875C236.987 10.3438 237.159 12.3281 237.159 14.6719C237.159 17.0938 236.909 19 236.409 20.3906C235.925 21.7656 234.925 22.6875 233.409 23.1562C234.128 23.2812 234.729 23.5781 235.214 24.0469C235.698 24.5 236.089 25.1719 236.386 26.0625C236.683 26.9375 236.894 28.0703 237.019 29.4609C237.159 30.8359 237.229 32.5234 237.229 34.5234C237.229 34.6797 237.229 35.1172 237.229 35.8359C237.229 36.5547 237.229 37.4062 237.229 38.3906C237.245 39.3594 237.261 40.3281 237.276 41.2969C237.292 42.2656 237.315 43.0938 237.347 43.7812C237.378 44.4688 237.417 44.875 237.464 45H231.183C231.136 44.9219 231.097 44.5234 231.065 43.8047C231.05 43.0703 231.026 42.1406 230.995 41.0156C230.979 39.8906 230.964 38.6797 230.948 37.3828C230.948 36.0859 230.948 34.8125 230.948 33.5625C230.948 32.2969 230.948 31.1797 230.948 30.2109C230.948 28.9766 230.854 28.0469 230.667 27.4219C230.495 26.7812 230.167 26.3359 229.683 26.0859C229.214 25.8359 228.534 25.6875 227.644 25.6406L225.628 25.5234V45H219.347ZM225.651 20.6484H228.159C228.925 20.6484 229.503 20.4766 229.894 20.1328C230.3 19.7891 230.573 19.1562 230.714 18.2344C230.87 17.3125 230.948 15.9844 230.948 14.25V13.9922C230.948 12.5391 230.878 11.4219 230.737 10.6406C230.597 9.85938 230.3 9.32031 229.847 9.02344C229.409 8.72656 228.722 8.57812 227.784 8.57812H225.651V20.6484Z" fill="#D1DADB"/>
<path d="M250.776 45.4219C249.011 45.4219 247.558 45.1406 246.417 44.5781C245.292 44.0156 244.409 43.2031 243.769 42.1406C243.144 41.0781 242.706 39.8047 242.456 38.3203C242.206 36.8203 242.081 35.1484 242.081 33.3047V20.2031C242.081 18.5625 242.245 17.0781 242.573 15.75C242.917 14.4219 243.44 13.2891 244.144 12.3516C244.862 11.4141 245.792 10.6953 246.933 10.1953C248.073 9.67969 249.448 9.42188 251.058 9.42188C252.698 9.42188 254.065 9.67188 255.159 10.1719C256.253 10.6719 257.112 11.3984 257.737 12.3516C258.378 13.3047 258.831 14.4531 259.097 15.7969C259.378 17.125 259.519 18.6328 259.519 20.3203V27.8438H248.339V34.7578C248.339 36.4609 248.472 37.8281 248.737 38.8594C249.003 39.8906 249.729 40.4062 250.917 40.4062C251.714 40.4062 252.276 40.1641 252.604 39.6797C252.948 39.1953 253.151 38.5312 253.214 37.6875C253.292 36.8281 253.331 35.8516 253.331 34.7578V31.6641H259.472V33.5391C259.472 35.4297 259.354 37.1094 259.12 38.5781C258.901 40.0469 258.479 41.2891 257.854 42.3047C257.245 43.3203 256.37 44.0938 255.229 44.625C254.089 45.1562 252.604 45.4219 250.776 45.4219ZM248.315 24.2109H253.331V19.7109C253.331 18.5391 253.276 17.5547 253.167 16.7578C253.058 15.9453 252.839 15.3359 252.511 14.9297C252.183 14.5234 251.683 14.3203 251.011 14.3203C250.183 14.3203 249.573 14.5625 249.183 15.0469C248.808 15.5312 248.565 16.1953 248.456 17.0391C248.362 17.8672 248.315 18.8125 248.315 19.875V24.2109Z" fill="#D1DADB"/>
<path d="M272.034 45.4453C269.206 45.4453 267.104 44.6406 265.729 43.0312C264.354 41.4219 263.667 38.7891 263.667 35.1328V32.8594H269.503V35.6953C269.503 37.2266 269.69 38.3906 270.065 39.1875C270.44 39.9844 271.05 40.3828 271.894 40.3828C272.706 40.3828 273.308 40.1094 273.698 39.5625C274.089 39.0156 274.284 38.0703 274.284 36.7266C274.284 35.9453 274.167 35.1875 273.933 34.4531C273.714 33.7188 273.362 33 272.878 32.2969C272.409 31.5781 271.8 30.8828 271.05 30.2109L267.886 27.3516C266.433 26.0391 265.347 24.625 264.628 23.1094C263.909 21.5781 263.55 19.8906 263.55 18.0469C263.55 15.0625 264.245 12.8828 265.636 11.5078C267.042 10.1172 269.12 9.42188 271.87 9.42188C273.651 9.42188 275.128 9.75781 276.3 10.4297C277.472 11.0859 278.347 12.1562 278.925 13.6406C279.503 15.125 279.792 17.1172 279.792 19.6172V21.5391H274.237V19.2188C274.237 17.6719 274.058 16.5 273.698 15.7031C273.354 14.9062 272.761 14.5078 271.917 14.5078C271.089 14.5078 270.479 14.7422 270.089 15.2109C269.698 15.6641 269.487 16.4688 269.456 17.625C269.44 18.25 269.519 18.8672 269.69 19.4766C269.862 20.0703 270.128 20.6562 270.487 21.2344C270.862 21.7969 271.347 22.3516 271.94 22.8984L275.269 25.9219C277.019 27.5 278.308 29.1484 279.136 30.8672C279.979 32.5859 280.401 34.4453 280.401 36.4453C280.401 39.3984 279.729 41.6406 278.386 43.1719C277.042 44.6875 274.925 45.4453 272.034 45.4453Z" fill="#D1DADB"/>
<path d="M293.269 45.4219C291.581 45.4219 290.167 45.1641 289.026 44.6484C287.886 44.1172 286.979 43.3594 286.308 42.375C285.651 41.375 285.175 40.1641 284.878 38.7422C284.597 37.3047 284.456 35.6719 284.456 33.8438V20.6953C284.456 18.4922 284.737 16.5469 285.3 14.8594C285.878 13.1562 286.815 11.8281 288.112 10.875C289.409 9.90625 291.128 9.42188 293.269 9.42188C294.894 9.42188 296.261 9.69531 297.37 10.2422C298.495 10.7891 299.394 11.5703 300.065 12.5859C300.753 13.5859 301.253 14.7734 301.565 16.1484C301.878 17.5234 302.034 19.0391 302.034 20.6953V33.8438C302.034 35.6406 301.894 37.25 301.612 38.6719C301.347 40.0938 300.878 41.3125 300.206 42.3281C299.55 43.3281 298.659 44.0938 297.534 44.625C296.409 45.1562 294.987 45.4219 293.269 45.4219ZM293.269 40.4062C293.972 40.4062 294.503 40.1953 294.862 39.7734C295.222 39.3359 295.464 38.7344 295.589 37.9688C295.714 37.2031 295.776 36.3203 295.776 35.3203V19.5938C295.776 18.5312 295.706 17.6172 295.565 16.8516C295.425 16.0859 295.175 15.4922 294.815 15.0703C294.456 14.6484 293.94 14.4375 293.269 14.4375C292.565 14.4375 292.026 14.6484 291.651 15.0703C291.292 15.4922 291.042 16.0859 290.901 16.8516C290.776 17.6172 290.714 18.5312 290.714 19.5938V35.3203C290.714 36.3203 290.776 37.2031 290.901 37.9688C291.042 38.7344 291.292 39.3359 291.651 39.7734C292.026 40.1953 292.565 40.4062 293.269 40.4062Z" fill="#D1DADB"/>
<path d="M313.729 45.4453C312.339 45.4453 311.175 45.1328 310.237 44.5078C309.315 43.8828 308.62 42.9531 308.151 41.7188C307.698 40.4688 307.472 38.9062 307.472 37.0312V9.84375H313.706V36.0703C313.706 37.4141 313.87 38.4609 314.198 39.2109C314.526 39.9609 315.214 40.3359 316.261 40.3359C317.354 40.3359 318.097 39.9141 318.487 39.0703C318.894 38.2109 319.097 37.2266 319.097 36.1172L319.12 9.84375H325.308V45H319.097V41.3438C318.659 42.5312 318.026 43.5156 317.198 44.2969C316.37 45.0625 315.214 45.4453 313.729 45.4453Z" fill="#D1DADB"/>
<path d="M331.378 45V9.84375H337.636V13.7578C338.042 12.3984 338.745 11.3359 339.745 10.5703C340.761 9.80469 342.05 9.42188 343.612 9.42188C343.644 9.42188 343.659 9.6875 343.659 10.2188C343.675 10.75 343.683 11.3594 343.683 12.0469C343.683 12.7344 343.683 13.3438 343.683 13.875C343.683 14.4062 343.683 14.6719 343.683 14.6719C342.964 14.6719 342.183 14.7578 341.339 14.9297C340.511 15.1016 339.753 15.3672 339.065 15.7266C338.394 16.0703 337.917 16.5312 337.636 17.1094V45H331.378Z" fill="#D1DADB"/>
<path d="M356.222 45.4219C354.425 45.4219 352.94 45.1484 351.769 44.6016C350.597 44.0391 349.675 43.2344 349.003 42.1875C348.347 41.1406 347.886 39.8672 347.62 38.3672C347.354 36.8672 347.222 35.1719 347.222 33.2812V21.8906C347.222 19.2969 347.464 17.0703 347.948 15.2109C348.433 13.3516 349.323 11.9219 350.62 10.9219C351.933 9.92188 353.823 9.42188 356.292 9.42188C357.808 9.42188 359.089 9.65625 360.136 10.125C361.183 10.5938 362.026 11.2734 362.667 12.1641C363.308 13.0391 363.769 14.1016 364.05 15.3516C364.347 16.6016 364.495 18.0078 364.495 19.5703V23.4375H358.495V19.3594C358.495 18.3438 358.448 17.4766 358.354 16.7578C358.261 16.0234 358.05 15.4688 357.722 15.0938C357.394 14.7031 356.87 14.5078 356.151 14.5078C355.448 14.5078 354.901 14.7031 354.511 15.0938C354.12 15.4844 353.847 16.0547 353.69 16.8047C353.55 17.5391 353.479 18.4219 353.479 19.4531V35.2969C353.479 36.3594 353.542 37.2656 353.667 38.0156C353.808 38.7656 354.058 39.3438 354.417 39.75C354.792 40.1406 355.339 40.3359 356.058 40.3359C356.761 40.3359 357.284 40.1328 357.628 39.7266C357.987 39.3047 358.222 38.7188 358.331 37.9688C358.44 37.2188 358.495 36.3359 358.495 35.3203V31.1484H364.495V34.7109C364.495 36.3203 364.354 37.7891 364.073 39.1172C363.792 40.4297 363.331 41.5547 362.69 42.4922C362.05 43.4297 361.198 44.1562 360.136 44.6719C359.073 45.1719 357.769 45.4219 356.222 45.4219Z" fill="#D1DADB"/>
<path d="M377.901 45.4219C376.136 45.4219 374.683 45.1406 373.542 44.5781C372.417 44.0156 371.534 43.2031 370.894 42.1406C370.269 41.0781 369.831 39.8047 369.581 38.3203C369.331 36.8203 369.206 35.1484 369.206 33.3047V20.2031C369.206 18.5625 369.37 17.0781 369.698 15.75C370.042 14.4219 370.565 13.2891 371.269 12.3516C371.987 11.4141 372.917 10.6953 374.058 10.1953C375.198 9.67969 376.573 9.42188 378.183 9.42188C379.823 9.42188 381.19 9.67188 382.284 10.1719C383.378 10.6719 384.237 11.3984 384.862 12.3516C385.503 13.3047 385.956 14.4531 386.222 15.7969C386.503 17.125 386.644 18.6328 386.644 20.3203V27.8438H375.464V34.7578C375.464 36.4609 375.597 37.8281 375.862 38.8594C376.128 39.8906 376.854 40.4062 378.042 40.4062C378.839 40.4062 379.401 40.1641 379.729 39.6797C380.073 39.1953 380.276 38.5312 380.339 37.6875C380.417 36.8281 380.456 35.8516 380.456 34.7578V31.6641H386.597V33.5391C386.597 35.4297 386.479 37.1094 386.245 38.5781C386.026 40.0469 385.604 41.2891 384.979 42.3047C384.37 43.3203 383.495 44.0938 382.354 44.625C381.214 45.1562 379.729 45.4219 377.901 45.4219ZM375.44 24.2109H380.456V19.7109C380.456 18.5391 380.401 17.5547 380.292 16.7578C380.183 15.9453 379.964 15.3359 379.636 14.9297C379.308 14.5234 378.808 14.3203 378.136 14.3203C377.308 14.3203 376.698 14.5625 376.308 15.0469C375.933 15.5312 375.69 16.1953 375.581 17.0391C375.487 17.8672 375.44 18.8125 375.44 19.875V24.2109Z" fill="#D1DADB"/>
<path d="M399.159 45.4453C396.331 45.4453 394.229 44.6406 392.854 43.0312C391.479 41.4219 390.792 38.7891 390.792 35.1328V32.8594H396.628V35.6953C396.628 37.2266 396.815 38.3906 397.19 39.1875C397.565 39.9844 398.175 40.3828 399.019 40.3828C399.831 40.3828 400.433 40.1094 400.823 39.5625C401.214 39.0156 401.409 38.0703 401.409 36.7266C401.409 35.9453 401.292 35.1875 401.058 34.4531C400.839 33.7188 400.487 33 400.003 32.2969C399.534 31.5781 398.925 30.8828 398.175 30.2109L395.011 27.3516C393.558 26.0391 392.472 24.625 391.753 23.1094C391.034 21.5781 390.675 19.8906 390.675 18.0469C390.675 15.0625 391.37 12.8828 392.761 11.5078C394.167 10.1172 396.245 9.42188 398.995 9.42188C400.776 9.42188 402.253 9.75781 403.425 10.4297C404.597 11.0859 405.472 12.1562 406.05 13.6406C406.628 15.125 406.917 17.1172 406.917 19.6172V21.5391H401.362V19.2188C401.362 17.6719 401.183 16.5 400.823 15.7031C400.479 14.9062 399.886 14.5078 399.042 14.5078C398.214 14.5078 397.604 14.7422 397.214 15.2109C396.823 15.6641 396.612 16.4688 396.581 17.625C396.565 18.25 396.644 18.8672 396.815 19.4766C396.987 20.0703 397.253 20.6562 397.612 21.2344C397.987 21.7969 398.472 22.3516 399.065 22.8984L402.394 25.9219C404.144 27.5 405.433 29.1484 406.261 30.8672C407.104 32.5859 407.526 34.4453 407.526 36.4453C407.526 39.3984 406.854 41.6406 405.511 43.1719C404.167 44.6875 402.05 45.4453 399.159 45.4453Z" fill="#D1DADB"/>
</g>
<path d="M1.0498 45V3.75H7.33105V45H1.0498Z" stroke="#D9E6E7" stroke-width="2" mask="url(#path-1-outside-1_127_2792)"/>
<path d="M13.6592 45V3.39844H19.8467V45H13.6592Z" stroke="#D9E6E7" stroke-width="2" mask="url(#path-1-outside-1_127_2792)"/>
<path d="M26.1279 45V3.39844H32.3154V45H26.1279Z" stroke="#D9E6E7" stroke-width="2" mask="url(#path-1-outside-1_127_2792)"/>
<path d="M44.6201 45.4453C43.2295 45.4453 42.0654 45.1328 41.1279 44.5078C40.2061 43.8828 39.5107 42.9531 39.042 41.7188C38.5889 40.4688 38.3623 38.9062 38.3623 37.0312V9.84375H44.5967V36.0703C44.5967 37.4141 44.7607 38.4609 45.0889 39.2109C45.417 39.9609 46.1045 40.3359 47.1514 40.3359C48.2451 40.3359 48.9873 39.9141 49.3779 39.0703C49.7842 38.2109 49.9873 37.2266 49.9873 36.1172L50.0107 9.84375H56.1982V45H49.9873V41.3438C49.5498 42.5312 48.917 43.5156 48.0889 44.2969C47.2607 45.0625 46.1045 45.4453 44.6201 45.4453Z" stroke="#D9E6E7" stroke-width="2" mask="url(#path-1-outside-1_127_2792)"/>
<path d="M69.5342 45.4453C66.7061 45.4453 64.6045 44.6406 63.2295 43.0312C61.8545 41.4219 61.167 38.7891 61.167 35.1328V32.8594H67.0029V35.6953C67.0029 37.2266 67.1904 38.3906 67.5654 39.1875C67.9404 39.9844 68.5498 40.3828 69.3936 40.3828C70.2061 40.3828 70.8076 40.1094 71.1982 39.5625C71.5889 39.0156 71.7842 38.0703 71.7842 36.7266C71.7842 35.9453 71.667 35.1875 71.4326 34.4531C71.2139 33.7188 70.8623 33 70.3779 32.2969C69.9092 31.5781 69.2998 30.8828 68.5498 30.2109L65.3857 27.3516C63.9326 26.0391 62.8467 24.625 62.1279 23.1094C61.4092 21.5781 61.0498 19.8906 61.0498 18.0469C61.0498 15.0625 61.7451 12.8828 63.1357 11.5078C64.542 10.1172 66.6201 9.42188 69.3701 9.42188C71.1514 9.42188 72.6279 9.75781 73.7998 10.4297C74.9717 11.0859 75.8467 12.1562 76.4248 13.6406C77.0029 15.125 77.292 17.1172 77.292 19.6172V21.5391H71.7373V19.2188C71.7373 17.6719 71.5576 16.5 71.1982 15.7031C70.8545 14.9062 70.2607 14.5078 69.417 14.5078C68.5889 14.5078 67.9795 14.7422 67.5889 15.2109C67.1982 15.6641 66.9873 16.4688 66.9561 17.625C66.9404 18.25 67.0186 18.8672 67.1904 19.4766C67.3623 20.0703 67.6279 20.6562 67.9873 21.2344C68.3623 21.7969 68.8467 22.3516 69.4404 22.8984L72.7686 25.9219C74.5186 27.5 75.8076 29.1484 76.6357 30.8672C77.4795 32.5859 77.9014 34.4453 77.9014 36.4453C77.9014 39.3984 77.2295 41.6406 75.8857 43.1719C74.542 44.6875 72.4248 45.4453 69.5342 45.4453Z" stroke="#D9E6E7" stroke-width="2" mask="url(#path-1-outside-1_127_2792)"/>
<path d="M88.7998 45.2344C87.2998 45.2344 86.1514 45.0469 85.3545 44.6719C84.5576 44.2812 84.0107 43.6719 83.7139 42.8438C83.417 42.0156 83.2686 40.9453 83.2686 39.6328V15.0703H80.4092V10.5703H83.2686V3.75H89.4795V10.5703H92.9014V15.0703H89.4795V38.5547C89.4795 39.1016 89.5654 39.5156 89.7373 39.7969C89.9092 40.0781 90.2451 40.2656 90.7451 40.3594C91.2607 40.4531 92.0186 40.5 93.0186 40.5V45.2344H88.7998Z" stroke="#D9E6E7" stroke-width="2" mask="url(#path-1-outside-1_127_2792)"/>
<path d="M97.4248 45V9.84375H103.683V13.7578C104.089 12.3984 104.792 11.3359 105.792 10.5703C106.808 9.80469 108.097 9.42188 109.659 9.42188C109.69 9.42188 109.706 9.6875 109.706 10.2188C109.722 10.75 109.729 11.3594 109.729 12.0469C109.729 12.7344 109.729 13.3438 109.729 13.875C109.729 14.4062 109.729 14.6719 109.729 14.6719C109.011 14.6719 108.229 14.7578 107.386 14.9297C106.558 15.1016 105.8 15.3672 105.112 15.7266C104.44 16.0703 103.964 16.5312 103.683 17.1094V45H97.4248Z" stroke="#D9E6E7" stroke-width="2" mask="url(#path-1-outside-1_127_2792)"/>
<path d="M119.503 45.3516C117.097 45.3516 115.425 44.4766 114.487 42.7266C113.565 40.9766 113.089 38.6562 113.058 35.7656V33.5156C113.058 31.6406 113.323 30.1172 113.854 28.9453C114.401 27.7734 115.175 26.8203 116.175 26.0859C117.175 25.3516 118.37 24.7109 119.761 24.1641C121.151 23.6172 122.698 23.0312 124.401 22.4062V19.3359C124.401 18.1484 124.354 17.2031 124.261 16.5C124.167 15.7812 123.956 15.2578 123.628 14.9297C123.3 14.6016 122.792 14.4375 122.104 14.4375C121.433 14.4375 120.917 14.6094 120.558 14.9531C120.214 15.2812 119.979 15.7969 119.854 16.5C119.729 17.1875 119.667 18.0703 119.667 19.1484V20.7188H113.526V19.6641C113.526 18.0547 113.659 16.6172 113.925 15.3516C114.206 14.0859 114.675 13.0156 115.331 12.1406C115.987 11.25 116.878 10.5781 118.003 10.125C119.144 9.65625 120.573 9.42188 122.292 9.42188C123.808 9.42188 125.104 9.64062 126.183 10.0781C127.261 10.5 128.136 11.1406 128.808 12C129.479 12.8438 129.972 13.9062 130.284 15.1875C130.597 16.4688 130.753 17.9609 130.753 19.6641V45H124.495V41.5078C124.308 42.1797 123.987 42.8125 123.534 43.4062C123.081 43.9844 122.511 44.4531 121.823 44.8125C121.151 45.1719 120.378 45.3516 119.503 45.3516ZM121.659 40.5703C122.44 40.5703 123.065 40.2891 123.534 39.7266C124.003 39.1641 124.292 38.5938 124.401 38.0156V25.9219C123.464 26.3438 122.675 26.7422 122.034 27.1172C121.394 27.4766 120.878 27.875 120.487 28.3125C120.097 28.75 119.815 29.2656 119.644 29.8594C119.472 30.4531 119.386 31.1797 119.386 32.0391V35.9766C119.386 37.5859 119.55 38.7578 119.878 39.4922C120.222 40.2109 120.815 40.5703 121.659 40.5703Z" stroke="#D9E6E7" stroke-width="2" mask="url(#path-1-outside-1_127_2792)"/>
<path d="M142.847 45.2344C141.347 45.2344 140.198 45.0469 139.401 44.6719C138.604 44.2812 138.058 43.6719 137.761 42.8438C137.464 42.0156 137.315 40.9453 137.315 39.6328V15.0703H134.456V10.5703H137.315V3.75H143.526V10.5703H146.948V15.0703H143.526V38.5547C143.526 39.1016 143.612 39.5156 143.784 39.7969C143.956 40.0781 144.292 40.2656 144.792 40.3594C145.308 40.4531 146.065 40.5 147.065 40.5V45.2344H142.847Z" stroke="#D9E6E7" stroke-width="2" mask="url(#path-1-outside-1_127_2792)"/>
<path d="M151.565 45V9.84375H157.776V45H151.565ZM151.542 6.60938V1.21875H157.8V6.60938H151.542Z" stroke="#D9E6E7" stroke-width="2" mask="url(#path-1-outside-1_127_2792)"/>
<path d="M172.378 45.4219C170.69 45.4219 169.276 45.1641 168.136 44.6484C166.995 44.1172 166.089 43.3594 165.417 42.375C164.761 41.375 164.284 40.1641 163.987 38.7422C163.706 37.3047 163.565 35.6719 163.565 33.8438V20.6953C163.565 18.4922 163.847 16.5469 164.409 14.8594C164.987 13.1562 165.925 11.8281 167.222 10.875C168.519 9.90625 170.237 9.42188 172.378 9.42188C174.003 9.42188 175.37 9.69531 176.479 10.2422C177.604 10.7891 178.503 11.5703 179.175 12.5859C179.862 13.5859 180.362 14.7734 180.675 16.1484C180.987 17.5234 181.144 19.0391 181.144 20.6953V33.8438C181.144 35.6406 181.003 37.25 180.722 38.6719C180.456 40.0938 179.987 41.3125 179.315 42.3281C178.659 43.3281 177.769 44.0938 176.644 44.625C175.519 45.1562 174.097 45.4219 172.378 45.4219ZM172.378 40.4062C173.081 40.4062 173.612 40.1953 173.972 39.7734C174.331 39.3359 174.573 38.7344 174.698 37.9688C174.823 37.2031 174.886 36.3203 174.886 35.3203V19.5938C174.886 18.5312 174.815 17.6172 174.675 16.8516C174.534 16.0859 174.284 15.4922 173.925 15.0703C173.565 14.6484 173.05 14.4375 172.378 14.4375C171.675 14.4375 171.136 14.6484 170.761 15.0703C170.401 15.4922 170.151 16.0859 170.011 16.8516C169.886 17.6172 169.823 18.5312 169.823 19.5938V35.3203C169.823 36.3203 169.886 37.2031 170.011 37.9688C170.151 38.7344 170.401 39.3359 170.761 39.7734C171.136 40.1953 171.675 40.4062 172.378 40.4062Z" stroke="#D9E6E7" stroke-width="2" mask="url(#path-1-outside-1_127_2792)"/>
<path d="M186.792 45V9.84375H193.003V13.875C193.315 12.6719 193.972 11.6328 194.972 10.7578C195.972 9.86719 197.198 9.42188 198.651 9.42188C200.683 9.42188 202.206 10.1016 203.222 11.4609C204.237 12.8047 204.745 14.7578 204.745 17.3203V45H198.534V17.6953C198.534 16.6797 198.3 15.8828 197.831 15.3047C197.378 14.7266 196.753 14.4375 195.956 14.4375C195.315 14.4375 194.769 14.6172 194.315 14.9766C193.878 15.3203 193.55 15.8047 193.331 16.4297C193.112 17.0391 193.003 17.7578 193.003 18.5859V45H186.792Z" stroke="#D9E6E7" stroke-width="2" mask="url(#path-1-outside-1_127_2792)"/>
<path d="M219.347 45V3.75H229.729C231.886 3.75 233.495 4.17188 234.558 5.01562C235.62 5.85938 236.315 7.09375 236.644 8.71875C236.987 10.3438 237.159 12.3281 237.159 14.6719C237.159 17.0938 236.909 19 236.409 20.3906C235.925 21.7656 234.925 22.6875 233.409 23.1562C234.128 23.2812 234.729 23.5781 235.214 24.0469C235.698 24.5 236.089 25.1719 236.386 26.0625C236.683 26.9375 236.894 28.0703 237.019 29.4609C237.159 30.8359 237.229 32.5234 237.229 34.5234C237.229 34.6797 237.229 35.1172 237.229 35.8359C237.229 36.5547 237.229 37.4062 237.229 38.3906C237.245 39.3594 237.261 40.3281 237.276 41.2969C237.292 42.2656 237.315 43.0938 237.347 43.7812C237.378 44.4688 237.417 44.875 237.464 45H231.183C231.136 44.9219 231.097 44.5234 231.065 43.8047C231.05 43.0703 231.026 42.1406 230.995 41.0156C230.979 39.8906 230.964 38.6797 230.948 37.3828C230.948 36.0859 230.948 34.8125 230.948 33.5625C230.948 32.2969 230.948 31.1797 230.948 30.2109C230.948 28.9766 230.854 28.0469 230.667 27.4219C230.495 26.7812 230.167 26.3359 229.683 26.0859C229.214 25.8359 228.534 25.6875 227.644 25.6406L225.628 25.5234V45H219.347ZM225.651 20.6484H228.159C228.925 20.6484 229.503 20.4766 229.894 20.1328C230.3 19.7891 230.573 19.1562 230.714 18.2344C230.87 17.3125 230.948 15.9844 230.948 14.25V13.9922C230.948 12.5391 230.878 11.4219 230.737 10.6406C230.597 9.85938 230.3 9.32031 229.847 9.02344C229.409 8.72656 228.722 8.57812 227.784 8.57812H225.651V20.6484Z" stroke="#D9E6E7" stroke-width="2" mask="url(#path-1-outside-1_127_2792)"/>
<path d="M250.776 45.4219C249.011 45.4219 247.558 45.1406 246.417 44.5781C245.292 44.0156 244.409 43.2031 243.769 42.1406C243.144 41.0781 242.706 39.8047 242.456 38.3203C242.206 36.8203 242.081 35.1484 242.081 33.3047V20.2031C242.081 18.5625 242.245 17.0781 242.573 15.75C242.917 14.4219 243.44 13.2891 244.144 12.3516C244.862 11.4141 245.792 10.6953 246.933 10.1953C248.073 9.67969 249.448 9.42188 251.058 9.42188C252.698 9.42188 254.065 9.67188 255.159 10.1719C256.253 10.6719 257.112 11.3984 257.737 12.3516C258.378 13.3047 258.831 14.4531 259.097 15.7969C259.378 17.125 259.519 18.6328 259.519 20.3203V27.8438H248.339V34.7578C248.339 36.4609 248.472 37.8281 248.737 38.8594C249.003 39.8906 249.729 40.4062 250.917 40.4062C251.714 40.4062 252.276 40.1641 252.604 39.6797C252.948 39.1953 253.151 38.5312 253.214 37.6875C253.292 36.8281 253.331 35.8516 253.331 34.7578V31.6641H259.472V33.5391C259.472 35.4297 259.354 37.1094 259.12 38.5781C258.901 40.0469 258.479 41.2891 257.854 42.3047C257.245 43.3203 256.37 44.0938 255.229 44.625C254.089 45.1562 252.604 45.4219 250.776 45.4219ZM248.315 24.2109H253.331V19.7109C253.331 18.5391 253.276 17.5547 253.167 16.7578C253.058 15.9453 252.839 15.3359 252.511 14.9297C252.183 14.5234 251.683 14.3203 251.011 14.3203C250.183 14.3203 249.573 14.5625 249.183 15.0469C248.808 15.5312 248.565 16.1953 248.456 17.0391C248.362 17.8672 248.315 18.8125 248.315 19.875V24.2109Z" stroke="#D9E6E7" stroke-width="2" mask="url(#path-1-outside-1_127_2792)"/>
<path d="M272.034 45.4453C269.206 45.4453 267.104 44.6406 265.729 43.0312C264.354 41.4219 263.667 38.7891 263.667 35.1328V32.8594H269.503V35.6953C269.503 37.2266 269.69 38.3906 270.065 39.1875C270.44 39.9844 271.05 40.3828 271.894 40.3828C272.706 40.3828 273.308 40.1094 273.698 39.5625C274.089 39.0156 274.284 38.0703 274.284 36.7266C274.284 35.9453 274.167 35.1875 273.933 34.4531C273.714 33.7188 273.362 33 272.878 32.2969C272.409 31.5781 271.8 30.8828 271.05 30.2109L267.886 27.3516C266.433 26.0391 265.347 24.625 264.628 23.1094C263.909 21.5781 263.55 19.8906 263.55 18.0469C263.55 15.0625 264.245 12.8828 265.636 11.5078C267.042 10.1172 269.12 9.42188 271.87 9.42188C273.651 9.42188 275.128 9.75781 276.3 10.4297C277.472 11.0859 278.347 12.1562 278.925 13.6406C279.503 15.125 279.792 17.1172 279.792 19.6172V21.5391H274.237V19.2188C274.237 17.6719 274.058 16.5 273.698 15.7031C273.354 14.9062 272.761 14.5078 271.917 14.5078C271.089 14.5078 270.479 14.7422 270.089 15.2109C269.698 15.6641 269.487 16.4688 269.456 17.625C269.44 18.25 269.519 18.8672 269.69 19.4766C269.862 20.0703 270.128 20.6562 270.487 21.2344C270.862 21.7969 271.347 22.3516 271.94 22.8984L275.269 25.9219C277.019 27.5 278.308 29.1484 279.136 30.8672C279.979 32.5859 280.401 34.4453 280.401 36.4453C280.401 39.3984 279.729 41.6406 278.386 43.1719C277.042 44.6875 274.925 45.4453 272.034 45.4453Z" stroke="#D9E6E7" stroke-width="2" mask="url(#path-1-outside-1_127_2792)"/>
<path d="M293.269 45.4219C291.581 45.4219 290.167 45.1641 289.026 44.6484C287.886 44.1172 286.979 43.3594 286.308 42.375C285.651 41.375 285.175 40.1641 284.878 38.7422C284.597 37.3047 284.456 35.6719 284.456 33.8438V20.6953C284.456 18.4922 284.737 16.5469 285.3 14.8594C285.878 13.1562 286.815 11.8281 288.112 10.875C289.409 9.90625 291.128 9.42188 293.269 9.42188C294.894 9.42188 296.261 9.69531 297.37 10.2422C298.495 10.7891 299.394 11.5703 300.065 12.5859C300.753 13.5859 301.253 14.7734 301.565 16.1484C301.878 17.5234 302.034 19.0391 302.034 20.6953V33.8438C302.034 35.6406 301.894 37.25 301.612 38.6719C301.347 40.0938 300.878 41.3125 300.206 42.3281C299.55 43.3281 298.659 44.0938 297.534 44.625C296.409 45.1562 294.987 45.4219 293.269 45.4219ZM293.269 40.4062C293.972 40.4062 294.503 40.1953 294.862 39.7734C295.222 39.3359 295.464 38.7344 295.589 37.9688C295.714 37.2031 295.776 36.3203 295.776 35.3203V19.5938C295.776 18.5312 295.706 17.6172 295.565 16.8516C295.425 16.0859 295.175 15.4922 294.815 15.0703C294.456 14.6484 293.94 14.4375 293.269 14.4375C292.565 14.4375 292.026 14.6484 291.651 15.0703C291.292 15.4922 291.042 16.0859 290.901 16.8516C290.776 17.6172 290.714 18.5312 290.714 19.5938V35.3203C290.714 36.3203 290.776 37.2031 290.901 37.9688C291.042 38.7344 291.292 39.3359 291.651 39.7734C292.026 40.1953 292.565 40.4062 293.269 40.4062Z" stroke="#D9E6E7" stroke-width="2" mask="url(#path-1-outside-1_127_2792)"/>
<path d="M313.729 45.4453C312.339 45.4453 311.175 45.1328 310.237 44.5078C309.315 43.8828 308.62 42.9531 308.151 41.7188C307.698 40.4688 307.472 38.9062 307.472 37.0312V9.84375H313.706V36.0703C313.706 37.4141 313.87 38.4609 314.198 39.2109C314.526 39.9609 315.214 40.3359 316.261 40.3359C317.354 40.3359 318.097 39.9141 318.487 39.0703C318.894 38.2109 319.097 37.2266 319.097 36.1172L319.12 9.84375H325.308V45H319.097V41.3438C318.659 42.5312 318.026 43.5156 317.198 44.2969C316.37 45.0625 315.214 45.4453 313.729 45.4453Z" stroke="#D9E6E7" stroke-width="2" mask="url(#path-1-outside-1_127_2792)"/>
<path d="M331.378 45V9.84375H337.636V13.7578C338.042 12.3984 338.745 11.3359 339.745 10.5703C340.761 9.80469 342.05 9.42188 343.612 9.42188C343.644 9.42188 343.659 9.6875 343.659 10.2188C343.675 10.75 343.683 11.3594 343.683 12.0469C343.683 12.7344 343.683 13.3438 343.683 13.875C343.683 14.4062 343.683 14.6719 343.683 14.6719C342.964 14.6719 342.183 14.7578 341.339 14.9297C340.511 15.1016 339.753 15.3672 339.065 15.7266C338.394 16.0703 337.917 16.5312 337.636 17.1094V45H331.378Z" stroke="#D9E6E7" stroke-width="2" mask="url(#path-1-outside-1_127_2792)"/>
<path d="M356.222 45.4219C354.425 45.4219 352.94 45.1484 351.769 44.6016C350.597 44.0391 349.675 43.2344 349.003 42.1875C348.347 41.1406 347.886 39.8672 347.62 38.3672C347.354 36.8672 347.222 35.1719 347.222 33.2812V21.8906C347.222 19.2969 347.464 17.0703 347.948 15.2109C348.433 13.3516 349.323 11.9219 350.62 10.9219C351.933 9.92188 353.823 9.42188 356.292 9.42188C357.808 9.42188 359.089 9.65625 360.136 10.125C361.183 10.5938 362.026 11.2734 362.667 12.1641C363.308 13.0391 363.769 14.1016 364.05 15.3516C364.347 16.6016 364.495 18.0078 364.495 19.5703V23.4375H358.495V19.3594C358.495 18.3438 358.448 17.4766 358.354 16.7578C358.261 16.0234 358.05 15.4688 357.722 15.0938C357.394 14.7031 356.87 14.5078 356.151 14.5078C355.448 14.5078 354.901 14.7031 354.511 15.0938C354.12 15.4844 353.847 16.0547 353.69 16.8047C353.55 17.5391 353.479 18.4219 353.479 19.4531V35.2969C353.479 36.3594 353.542 37.2656 353.667 38.0156C353.808 38.7656 354.058 39.3438 354.417 39.75C354.792 40.1406 355.339 40.3359 356.058 40.3359C356.761 40.3359 357.284 40.1328 357.628 39.7266C357.987 39.3047 358.222 38.7188 358.331 37.9688C358.44 37.2188 358.495 36.3359 358.495 35.3203V31.1484H364.495V34.7109C364.495 36.3203 364.354 37.7891 364.073 39.1172C363.792 40.4297 363.331 41.5547 362.69 42.4922C362.05 43.4297 361.198 44.1562 360.136 44.6719C359.073 45.1719 357.769 45.4219 356.222 45.4219Z" stroke="#D9E6E7" stroke-width="2" mask="url(#path-1-outside-1_127_2792)"/>
<path d="M377.901 45.4219C376.136 45.4219 374.683 45.1406 373.542 44.5781C372.417 44.0156 371.534 43.2031 370.894 42.1406C370.269 41.0781 369.831 39.8047 369.581 38.3203C369.331 36.8203 369.206 35.1484 369.206 33.3047V20.2031C369.206 18.5625 369.37 17.0781 369.698 15.75C370.042 14.4219 370.565 13.2891 371.269 12.3516C371.987 11.4141 372.917 10.6953 374.058 10.1953C375.198 9.67969 376.573 9.42188 378.183 9.42188C379.823 9.42188 381.19 9.67188 382.284 10.1719C383.378 10.6719 384.237 11.3984 384.862 12.3516C385.503 13.3047 385.956 14.4531 386.222 15.7969C386.503 17.125 386.644 18.6328 386.644 20.3203V27.8438H375.464V34.7578C375.464 36.4609 375.597 37.8281 375.862 38.8594C376.128 39.8906 376.854 40.4062 378.042 40.4062C378.839 40.4062 379.401 40.1641 379.729 39.6797C380.073 39.1953 380.276 38.5312 380.339 37.6875C380.417 36.8281 380.456 35.8516 380.456 34.7578V31.6641H386.597V33.5391C386.597 35.4297 386.479 37.1094 386.245 38.5781C386.026 40.0469 385.604 41.2891 384.979 42.3047C384.37 43.3203 383.495 44.0938 382.354 44.625C381.214 45.1562 379.729 45.4219 377.901 45.4219ZM375.44 24.2109H380.456V19.7109C380.456 18.5391 380.401 17.5547 380.292 16.7578C380.183 15.9453 379.964 15.3359 379.636 14.9297C379.308 14.5234 378.808 14.3203 378.136 14.3203C377.308 14.3203 376.698 14.5625 376.308 15.0469C375.933 15.5312 375.69 16.1953 375.581 17.0391C375.487 17.8672 375.44 18.8125 375.44 19.875V24.2109Z" stroke="#D9E6E7" stroke-width="2" mask="url(#path-1-outside-1_127_2792)"/>
<path d="M399.159 45.4453C396.331 45.4453 394.229 44.6406 392.854 43.0312C391.479 41.4219 390.792 38.7891 390.792 35.1328V32.8594H396.628V35.6953C396.628 37.2266 396.815 38.3906 397.19 39.1875C397.565 39.9844 398.175 40.3828 399.019 40.3828C399.831 40.3828 400.433 40.1094 400.823 39.5625C401.214 39.0156 401.409 38.0703 401.409 36.7266C401.409 35.9453 401.292 35.1875 401.058 34.4531C400.839 33.7188 400.487 33 400.003 32.2969C399.534 31.5781 398.925 30.8828 398.175 30.2109L395.011 27.3516C393.558 26.0391 392.472 24.625 391.753 23.1094C391.034 21.5781 390.675 19.8906 390.675 18.0469C390.675 15.0625 391.37 12.8828 392.761 11.5078C394.167 10.1172 396.245 9.42188 398.995 9.42188C400.776 9.42188 402.253 9.75781 403.425 10.4297C404.597 11.0859 405.472 12.1562 406.05 13.6406C406.628 15.125 406.917 17.1172 406.917 19.6172V21.5391H401.362V19.2188C401.362 17.6719 401.183 16.5 400.823 15.7031C400.479 14.9062 399.886 14.5078 399.042 14.5078C398.214 14.5078 397.604 14.7422 397.214 15.2109C396.823 15.6641 396.612 16.4688 396.581 17.625C396.565 18.25 396.644 18.8672 396.815 19.4766C396.987 20.0703 397.253 20.6562 397.612 21.2344C397.987 21.7969 398.472 22.3516 399.065 22.8984L402.394 25.9219C404.144 27.5 405.433 29.1484 406.261 30.8672C407.104 32.5859 407.526 34.4453 407.526 36.4453C407.526 39.3984 406.854 41.6406 405.511 43.1719C404.167 44.6875 402.05 45.4453 399.159 45.4453Z" stroke="#D9E6E7" stroke-width="2" mask="url(#path-1-outside-1_127_2792)"/>
<defs>
<filter id="filter0_ii_127_2792" x="-0.950195" y="-0.78125" width="412.477" height="50.2266" filterUnits="userSpaceOnUse" color-interpolation-filters="sRGB">
<feFlood flood-opacity="0" result="BackgroundImageFix"/>
<feBlend mode="normal" in="SourceGraphic" in2="BackgroundImageFix" result="shape"/>
<feColorMatrix in="SourceAlpha" type="matrix" values="0 0 0 0 0 0 0 0 0 0 0 0 0 0 0 0 0 0 127 0" result="hardAlpha"/>
<feOffset dx="-1" dy="-1"/>
<feGaussianBlur stdDeviation="1.5"/>
<feComposite in2="hardAlpha" operator="arithmetic" k2="-1" k3="1"/>
<feColorMatrix type="matrix" values="0 0 0 0 0.984314 0 0 0 0 0.984314 0 0 0 0 0.984314 0 0 0 1 0"/>
<feBlend mode="normal" in2="shape" result="effect1_innerShadow_127_2792"/>
<feColorMatrix in="SourceAlpha" type="matrix" values="0 0 0 0 0 0 0 0 0 0 0 0 0 0 0 0 0 0 127 0" result="hardAlpha"/>
<feOffset dx="3" dy="3"/>
<feGaussianBlur stdDeviation="4.5"/>
<feComposite in2="hardAlpha" operator="arithmetic" k2="-1" k3="1"/>
<feColorMatrix type="matrix" values="0 0 0 0 0.772549 0 0 0 0 0.772549 0 0 0 0 0.772549 0 0 0 1 0"/>
<feBlend mode="normal" in2="effect1_innerShadow_127_2792" result="effect2_innerShadow_127_2792"/>
</filter>
</defs>
</svg>
