<svg width="85" height="84" viewBox="0 0 85 84" fill="none" xmlns="http://www.w3.org/2000/svg">
<g id="illustration_icon" filter="url(#filter0_ii_72_1711)">
<path d="M35.5015 3.13998e-06C33.6449 3.13998e-06 31.8643 0.737531 30.5515 2.05034C29.2387 3.36315 28.5012 5.1437 28.5012 7.00029V7.2208L10.7799 18.3758C9.77457 17.8207 8.64856 17.5202 7.50029 17.5007C5.6437 17.5007 3.86315 18.2383 2.55034 19.5511C1.23753 20.8639 0.5 22.6444 0.5 24.501C0.5 27.0841 1.90706 29.2997 4.00015 30.5178V70.983C1.90706 72.201 0.5 74.4131 0.5 76.9997C0.5 78.8563 1.23753 80.6368 2.55034 81.9497C3.86315 83.2625 5.6437 84 7.50029 84C10.0834 84 12.299 82.5929 13.517 80.4999H57.4824C58.7004 82.5929 60.9125 84 63.4991 84C65.3557 84 67.1363 83.2625 68.4491 81.9497C69.7619 80.6368 70.4994 78.8563 70.4994 76.9997C70.4994 75.6067 70.1144 74.2661 69.4039 73.1705L77.9407 56.0023C79.6423 55.8903 81.245 55.1625 82.4491 53.955C83.6532 52.7475 84.3764 51.1428 84.4837 49.4409C84.5909 47.7389 84.0747 46.0562 83.0316 44.7071C81.9885 43.358 80.4899 42.4349 78.8158 42.1103L72.1445 22.0964C73.2505 20.8504 74.0031 19.2893 74.0031 17.5007C74.0031 15.6441 73.2655 13.8636 71.9527 12.5508C70.6399 11.238 68.8594 10.5004 67.0028 10.5004C65.2107 10.5004 63.6531 11.253 62.4071 12.359L42.3967 5.57924C42.0613 3.99968 41.1931 2.5834 39.9378 1.56767C38.6825 0.551944 37.1162 -0.00152112 35.5015 3.13998e-06ZM40.0971 12.2505L60.111 18.8133C60.6465 21.6309 62.8761 23.857 65.6902 24.3925L72.3615 44.2978C71.1744 45.5776 70.5111 47.2565 70.5029 49.002C70.5029 50.4511 70.9544 51.8197 71.707 52.9397L63.0651 70.0029C61.9184 70.0802 60.8087 70.4403 59.8351 71.0511C58.8616 71.6618 58.0545 72.5043 57.4859 73.5031H13.5205C12.9139 72.4591 12.0453 71.5916 11.0004 70.9865V30.5213C13.0935 29.3032 14.5006 27.0911 14.5006 24.5045V24.284L32.2218 13.129C33.2019 13.6471 34.3114 14.0041 35.5015 14.0041C37.2655 14.0041 38.8616 13.3321 40.0971 12.2505Z" fill="#E0E0E0"/>
</g>
<defs>
<filter id="filter0_ii_72_1711" x="-0.5" y="-1" width="85.9975" height="86" filterUnits="userSpaceOnUse" color-interpolation-filters="sRGB">
<feFlood flood-opacity="0" result="BackgroundImageFix"/>
<feBlend mode="normal" in="SourceGraphic" in2="BackgroundImageFix" result="shape"/>
<feColorMatrix in="SourceAlpha" type="matrix" values="0 0 0 0 0 0 0 0 0 0 0 0 0 0 0 0 0 0 127 0" result="hardAlpha"/>
<feOffset dx="-1" dy="-1"/>
<feGaussianBlur stdDeviation="1.5"/>
<feComposite in2="hardAlpha" operator="arithmetic" k2="-1" k3="1"/>
<feColorMatrix type="matrix" values="0 0 0 0 0.984314 0 0 0 0 0.984314 0 0 0 0 0.984314 0 0 0 1 0"/>
<feBlend mode="normal" in2="shape" result="effect1_innerShadow_72_1711"/>
<feColorMatrix in="SourceAlpha" type="matrix" values="0 0 0 0 0 0 0 0 0 0 0 0 0 0 0 0 0 0 127 0" result="hardAlpha"/>
<feOffset dx="1" dy="1"/>
<feGaussianBlur stdDeviation="1.5"/>
<feComposite in2="hardAlpha" operator="arithmetic" k2="-1" k3="1"/>
<feColorMatrix type="matrix" values="0 0 0 0 0.772549 0 0 0 0 0.772549 0 0 0 0 0.772549 0 0 0 1 0"/>
<feBlend mode="normal" in2="effect1_innerShadow_72_1711" result="effect2_innerShadow_72_1711"/>
</filter>
</defs>
</svg>
