<svg width="299" height="52" viewBox="0 0 299 52" fill="none" xmlns="http://www.w3.org/2000/svg">
<mask id="path-1-outside-1_127_2785" maskUnits="userSpaceOnUse" x="0.0810547" y="0.21875" width="299" height="52" fill="black">
<rect fill="white" x="0.0810547" y="0.21875" width="299" height="52"/>
<path d="M1.08105 45V3.75H7.3623V45H1.08105Z"/>
<path d="M13.667 45V9.84375H19.8779V13.6641C20.2217 12.4141 20.8467 11.3984 21.7529 10.6172C22.6748 9.82031 23.9248 9.42188 25.5029 9.42188C26.7061 9.42188 27.7529 9.6875 28.6436 10.2188C29.5342 10.75 30.2217 11.6641 30.7061 12.9609C31.2998 11.8672 32.0811 11.0078 33.0498 10.3828C34.0186 9.74219 35.2295 9.42188 36.6826 9.42188C38.9639 9.42188 40.5811 10.1875 41.5342 11.7188C42.4873 13.25 42.9639 15.3672 42.9639 18.0703V45H36.7764V18C36.7764 16.75 36.5654 15.8594 36.1436 15.3281C35.7217 14.7812 35.1436 14.5078 34.4092 14.5078C33.4717 14.5078 32.7373 14.8359 32.2061 15.4922C31.6904 16.1328 31.4326 17.0781 31.4326 18.3281V45H25.2217V17.9531C25.2217 16.9062 25.042 16.0703 24.6826 15.4453C24.3389 14.8203 23.7529 14.5078 22.9248 14.5078C21.8467 14.5078 21.0654 14.9219 20.5811 15.75C20.1123 16.5625 19.8779 17.5312 19.8779 18.6562V45H13.667Z"/>
<path d="M54.6592 45.3516C52.2529 45.3516 50.5811 44.4766 49.6436 42.7266C48.7217 40.9766 48.2451 38.6562 48.2139 35.7656V33.5156C48.2139 31.6406 48.4795 30.1172 49.0107 28.9453C49.5576 27.7734 50.3311 26.8203 51.3311 26.0859C52.3311 25.3516 53.5264 24.7109 54.917 24.1641C56.3076 23.6172 57.8545 23.0312 59.5576 22.4062V19.3359C59.5576 18.1484 59.5107 17.2031 59.417 16.5C59.3232 15.7812 59.1123 15.2578 58.7842 14.9297C58.4561 14.6016 57.9482 14.4375 57.2607 14.4375C56.5889 14.4375 56.0732 14.6094 55.7139 14.9531C55.3701 15.2812 55.1357 15.7969 55.0107 16.5C54.8857 17.1875 54.8232 18.0703 54.8232 19.1484V20.7188H48.6826V19.6641C48.6826 18.0547 48.8154 16.6172 49.0811 15.3516C49.3623 14.0859 49.8311 13.0156 50.4873 12.1406C51.1436 11.25 52.0342 10.5781 53.1592 10.125C54.2998 9.65625 55.7295 9.42188 57.4482 9.42188C58.9639 9.42188 60.2607 9.64062 61.3389 10.0781C62.417 10.5 63.292 11.1406 63.9639 12C64.6357 12.8438 65.1279 13.9062 65.4404 15.1875C65.7529 16.4688 65.9092 17.9609 65.9092 19.6641V45H59.6514V41.5078C59.4639 42.1797 59.1436 42.8125 58.6904 43.4062C58.2373 43.9844 57.667 44.4531 56.9795 44.8125C56.3076 45.1719 55.5342 45.3516 54.6592 45.3516ZM56.8154 40.5703C57.5967 40.5703 58.2217 40.2891 58.6904 39.7266C59.1592 39.1641 59.4482 38.5938 59.5576 38.0156V25.9219C58.6201 26.3438 57.8311 26.7422 57.1904 27.1172C56.5498 27.4766 56.0342 27.875 55.6436 28.3125C55.2529 28.75 54.9717 29.2656 54.7998 29.8594C54.6279 30.4531 54.542 31.1797 54.542 32.0391V35.9766C54.542 37.5859 54.7061 38.7578 55.0342 39.4922C55.3779 40.2109 55.9717 40.5703 56.8154 40.5703Z"/>
<path d="M79.5732 50.2734C77.6357 50.3047 75.9873 50.1172 74.6279 49.7109C73.2686 49.3203 72.0342 48.6719 70.9248 47.7656L73.1045 43.8516C73.9326 44.3828 74.8311 44.8125 75.7998 45.1406C76.7842 45.4844 77.8467 45.6484 78.9873 45.6328C80.1748 45.6172 81.0811 45.2031 81.7061 44.3906C82.3311 43.5781 82.6436 42.4922 82.6436 41.1328V38.3438C82.2373 39.5156 81.6123 40.3203 80.7686 40.7578C79.9404 41.1953 78.9326 41.4141 77.7451 41.4141C76.0889 41.4141 74.7842 40.9766 73.8311 40.1016C72.8936 39.2266 72.2295 38.0312 71.8389 36.5156C71.4482 35 71.2529 33.2812 71.2529 31.3594V20.0391C71.2529 17.9922 71.4561 16.1719 71.8623 14.5781C72.2686 12.9688 72.9639 11.7031 73.9482 10.7812C74.9326 9.85938 76.2842 9.40625 78.0029 9.42188C79.2061 9.42188 80.1982 9.72656 80.9795 10.3359C81.7764 10.9453 82.3311 11.8203 82.6436 12.9609V9.84375H88.8545V40.6641C88.8545 42.0547 88.6982 43.3359 88.3857 44.5078C88.0732 45.6641 87.5576 46.6641 86.8389 47.5078C86.1201 48.3672 85.167 49.0312 83.9795 49.5C82.792 49.9844 81.3232 50.2422 79.5732 50.2734ZM80.2061 36.7031C80.7686 36.7031 81.2295 36.5391 81.5889 36.2109C81.9482 35.8672 82.2139 35.2891 82.3857 34.4766C82.5576 33.6484 82.6436 32.5 82.6436 31.0312V19.5234C82.6436 17.9766 82.4561 16.7422 82.0811 15.8203C81.7061 14.8984 81.0264 14.4375 80.042 14.4375C79.292 14.4375 78.7373 14.6562 78.3779 15.0938C78.0186 15.5312 77.7842 16.1328 77.6748 16.8984C77.5654 17.6484 77.5107 18.5156 77.5107 19.5V31.0781C77.5107 32.8125 77.6748 34.1875 78.0029 35.2031C78.3311 36.2031 79.0654 36.7031 80.2061 36.7031Z"/>
<path d="M103.058 45.4219C101.292 45.4219 99.8389 45.1406 98.6982 44.5781C97.5732 44.0156 96.6904 43.2031 96.0498 42.1406C95.4248 41.0781 94.9873 39.8047 94.7373 38.3203C94.4873 36.8203 94.3623 35.1484 94.3623 33.3047V20.2031C94.3623 18.5625 94.5264 17.0781 94.8545 15.75C95.1982 14.4219 95.7217 13.2891 96.4248 12.3516C97.1436 11.4141 98.0732 10.6953 99.2139 10.1953C100.354 9.67969 101.729 9.42188 103.339 9.42188C104.979 9.42188 106.347 9.67188 107.44 10.1719C108.534 10.6719 109.394 11.3984 110.019 12.3516C110.659 13.3047 111.112 14.4531 111.378 15.7969C111.659 17.125 111.8 18.6328 111.8 20.3203V27.8438H100.62V34.7578C100.62 36.4609 100.753 37.8281 101.019 38.8594C101.284 39.8906 102.011 40.4062 103.198 40.4062C103.995 40.4062 104.558 40.1641 104.886 39.6797C105.229 39.1953 105.433 38.5312 105.495 37.6875C105.573 36.8281 105.612 35.8516 105.612 34.7578V31.6641H111.753V33.5391C111.753 35.4297 111.636 37.1094 111.401 38.5781C111.183 40.0469 110.761 41.2891 110.136 42.3047C109.526 43.3203 108.651 44.0938 107.511 44.625C106.37 45.1562 104.886 45.4219 103.058 45.4219ZM100.597 24.2109H105.612V19.7109C105.612 18.5391 105.558 17.5547 105.448 16.7578C105.339 15.9453 105.12 15.3359 104.792 14.9297C104.464 14.5234 103.964 14.3203 103.292 14.3203C102.464 14.3203 101.854 14.5625 101.464 15.0469C101.089 15.5312 100.847 16.1953 100.737 17.0391C100.644 17.8672 100.597 18.8125 100.597 19.875V24.2109Z"/>
<path d="M124.315 45.4453C121.487 45.4453 119.386 44.6406 118.011 43.0312C116.636 41.4219 115.948 38.7891 115.948 35.1328V32.8594H121.784V35.6953C121.784 37.2266 121.972 38.3906 122.347 39.1875C122.722 39.9844 123.331 40.3828 124.175 40.3828C124.987 40.3828 125.589 40.1094 125.979 39.5625C126.37 39.0156 126.565 38.0703 126.565 36.7266C126.565 35.9453 126.448 35.1875 126.214 34.4531C125.995 33.7188 125.644 33 125.159 32.2969C124.69 31.5781 124.081 30.8828 123.331 30.2109L120.167 27.3516C118.714 26.0391 117.628 24.625 116.909 23.1094C116.19 21.5781 115.831 19.8906 115.831 18.0469C115.831 15.0625 116.526 12.8828 117.917 11.5078C119.323 10.1172 121.401 9.42188 124.151 9.42188C125.933 9.42188 127.409 9.75781 128.581 10.4297C129.753 11.0859 130.628 12.1562 131.206 13.6406C131.784 15.125 132.073 17.1172 132.073 19.6172V21.5391H126.519V19.2188C126.519 17.6719 126.339 16.5 125.979 15.7031C125.636 14.9062 125.042 14.5078 124.198 14.5078C123.37 14.5078 122.761 14.7422 122.37 15.2109C121.979 15.6641 121.769 16.4688 121.737 17.625C121.722 18.25 121.8 18.8672 121.972 19.4766C122.144 20.0703 122.409 20.6562 122.769 21.2344C123.144 21.7969 123.628 22.3516 124.222 22.8984L127.55 25.9219C129.3 27.5 130.589 29.1484 131.417 30.8672C132.261 32.5859 132.683 34.4453 132.683 36.4453C132.683 39.3984 132.011 41.6406 130.667 43.1719C129.323 44.6875 127.206 45.4453 124.315 45.4453Z"/>
<path d="M152.019 45.4688C149.69 45.4688 147.854 44.6719 146.511 43.0781C145.167 41.4688 144.495 39.1562 144.495 36.1406C144.495 34.5312 144.808 32.9922 145.433 31.5234C146.058 30.0391 146.862 28.6094 147.847 27.2344C148.847 25.8438 149.901 24.5 151.011 23.2031C150.058 20.7188 149.261 18.4297 148.62 16.3359C147.979 14.2266 147.659 12.6016 147.659 11.4609C147.659 8.80469 148.347 6.77344 149.722 5.36719C151.112 3.96094 152.948 3.25781 155.229 3.25781C156.886 3.25781 158.261 3.57812 159.354 4.21875C160.448 4.84375 161.269 5.76562 161.815 6.98438C162.362 8.1875 162.636 9.65625 162.636 11.3906C162.636 12.8438 162.378 14.2578 161.862 15.6328C161.347 16.9922 160.675 18.3203 159.847 19.6172C159.019 20.8984 158.12 22.1562 157.151 23.3906L160.175 30.9141C160.784 29.8984 161.448 28.8516 162.167 27.7734C162.901 26.6797 163.722 25.5938 164.628 24.5156L167.183 28.8281C166.214 29.9062 165.354 31.1016 164.604 32.4141C163.87 33.7266 163.159 35.0391 162.472 36.3516L166.175 45H160.362L159.026 41.9531C158.448 42.6406 157.815 43.25 157.128 43.7812C156.456 44.3125 155.698 44.7266 154.854 45.0234C154.011 45.3203 153.065 45.4688 152.019 45.4688ZM153.073 40.1016C153.542 40.1016 153.979 39.9688 154.386 39.7031C154.792 39.4375 155.19 39.0703 155.581 38.6016C155.972 38.1172 156.37 37.5469 156.776 36.8906L153.144 28.4531C152.534 29.2656 151.979 30.0703 151.479 30.8672C150.995 31.6641 150.604 32.4531 150.308 33.2344C150.011 34.0156 149.847 34.7891 149.815 35.5547C149.769 37.0391 150.011 38.1719 150.542 38.9531C151.089 39.7188 151.933 40.1016 153.073 40.1016ZM155.206 18.1875C156.112 17.0156 156.854 15.8594 157.433 14.7188C158.011 13.5781 158.3 12.4375 158.3 11.2969C158.3 9.95312 158.136 8.98438 157.808 8.39062C157.479 7.79688 156.854 7.5 155.933 7.5C155.386 7.5 154.94 7.60938 154.597 7.82812C154.253 8.04688 153.987 8.34375 153.8 8.71875C153.628 9.07812 153.511 9.47656 153.448 9.91406C153.386 10.3516 153.354 10.7891 153.354 11.2266C153.354 11.8516 153.519 12.7734 153.847 13.9922C154.19 15.1953 154.644 16.5938 155.206 18.1875Z"/>
<path d="M183.354 45L176.956 3.75H182.933L185.628 22.3828L187.292 35.5078H187.456L188.886 22.3828L191.136 3.75H196.995L191.112 45H183.354Z"/>
<path d="M201.05 45V9.84375H207.261V45H201.05ZM201.026 6.60938V1.21875H207.284V6.60938H201.026Z"/>
<path d="M219.519 45.3516C217.612 45.3516 216.198 44.8438 215.276 43.8281C214.354 42.7969 213.753 41.4062 213.472 39.6562C213.19 37.9062 213.05 35.9453 213.05 33.7734V19.4531C213.05 17.5625 213.276 15.8672 213.729 14.3672C214.183 12.8516 214.917 11.6484 215.933 10.7578C216.964 9.86719 218.323 9.42188 220.011 9.42188C221.011 9.42188 221.909 9.66406 222.706 10.1484C223.503 10.6172 224.12 11.2422 224.558 12.0234V3.39844H230.769V45H224.558V41.7422C224.089 42.9297 223.433 43.8281 222.589 44.4375C221.745 45.0469 220.722 45.3516 219.519 45.3516ZM221.815 40.4062C222.565 40.4062 223.136 40.1875 223.526 39.75C223.933 39.2969 224.206 38.6094 224.347 37.6875C224.503 36.75 224.581 35.5703 224.581 34.1484V20.0859C224.581 18.3672 224.409 17 224.065 15.9844C223.737 14.9688 223.019 14.4609 221.909 14.4609C220.847 14.4609 220.144 14.9609 219.8 15.9609C219.472 16.9453 219.308 18.3438 219.308 20.1562V34.6172C219.308 35.8203 219.378 36.8594 219.519 37.7344C219.675 38.5938 219.933 39.2578 220.292 39.7266C220.651 40.1797 221.159 40.4062 221.815 40.4062Z"/>
<path d="M245.136 45.4219C243.37 45.4219 241.917 45.1406 240.776 44.5781C239.651 44.0156 238.769 43.2031 238.128 42.1406C237.503 41.0781 237.065 39.8047 236.815 38.3203C236.565 36.8203 236.44 35.1484 236.44 33.3047V20.2031C236.44 18.5625 236.604 17.0781 236.933 15.75C237.276 14.4219 237.8 13.2891 238.503 12.3516C239.222 11.4141 240.151 10.6953 241.292 10.1953C242.433 9.67969 243.808 9.42188 245.417 9.42188C247.058 9.42188 248.425 9.67188 249.519 10.1719C250.612 10.6719 251.472 11.3984 252.097 12.3516C252.737 13.3047 253.19 14.4531 253.456 15.7969C253.737 17.125 253.878 18.6328 253.878 20.3203V27.8438H242.698V34.7578C242.698 36.4609 242.831 37.8281 243.097 38.8594C243.362 39.8906 244.089 40.4062 245.276 40.4062C246.073 40.4062 246.636 40.1641 246.964 39.6797C247.308 39.1953 247.511 38.5312 247.573 37.6875C247.651 36.8281 247.69 35.8516 247.69 34.7578V31.6641H253.831V33.5391C253.831 35.4297 253.714 37.1094 253.479 38.5781C253.261 40.0469 252.839 41.2891 252.214 42.3047C251.604 43.3203 250.729 44.0938 249.589 44.625C248.448 45.1562 246.964 45.4219 245.136 45.4219ZM242.675 24.2109H247.69V19.7109C247.69 18.5391 247.636 17.5547 247.526 16.7578C247.417 15.9453 247.198 15.3359 246.87 14.9297C246.542 14.5234 246.042 14.3203 245.37 14.3203C244.542 14.3203 243.933 14.5625 243.542 15.0469C243.167 15.5312 242.925 16.1953 242.815 17.0391C242.722 17.8672 242.675 18.8125 242.675 19.875V24.2109Z"/>
<path d="M267.425 45.4219C265.737 45.4219 264.323 45.1641 263.183 44.6484C262.042 44.1172 261.136 43.3594 260.464 42.375C259.808 41.375 259.331 40.1641 259.034 38.7422C258.753 37.3047 258.612 35.6719 258.612 33.8438V20.6953C258.612 18.4922 258.894 16.5469 259.456 14.8594C260.034 13.1562 260.972 11.8281 262.269 10.875C263.565 9.90625 265.284 9.42188 267.425 9.42188C269.05 9.42188 270.417 9.69531 271.526 10.2422C272.651 10.7891 273.55 11.5703 274.222 12.5859C274.909 13.5859 275.409 14.7734 275.722 16.1484C276.034 17.5234 276.19 19.0391 276.19 20.6953V33.8438C276.19 35.6406 276.05 37.25 275.769 38.6719C275.503 40.0938 275.034 41.3125 274.362 42.3281C273.706 43.3281 272.815 44.0938 271.69 44.625C270.565 45.1562 269.144 45.4219 267.425 45.4219ZM267.425 40.4062C268.128 40.4062 268.659 40.1953 269.019 39.7734C269.378 39.3359 269.62 38.7344 269.745 37.9688C269.87 37.2031 269.933 36.3203 269.933 35.3203V19.5938C269.933 18.5312 269.862 17.6172 269.722 16.8516C269.581 16.0859 269.331 15.4922 268.972 15.0703C268.612 14.6484 268.097 14.4375 267.425 14.4375C266.722 14.4375 266.183 14.6484 265.808 15.0703C265.448 15.4922 265.198 16.0859 265.058 16.8516C264.933 17.6172 264.87 18.5312 264.87 19.5938V35.3203C264.87 36.3203 264.933 37.2031 265.058 37.9688C265.198 38.7344 265.448 39.3359 265.808 39.7734C266.183 40.1953 266.722 40.4062 267.425 40.4062Z"/>
<path d="M289.128 45.4453C286.3 45.4453 284.198 44.6406 282.823 43.0312C281.448 41.4219 280.761 38.7891 280.761 35.1328V32.8594H286.597V35.6953C286.597 37.2266 286.784 38.3906 287.159 39.1875C287.534 39.9844 288.144 40.3828 288.987 40.3828C289.8 40.3828 290.401 40.1094 290.792 39.5625C291.183 39.0156 291.378 38.0703 291.378 36.7266C291.378 35.9453 291.261 35.1875 291.026 34.4531C290.808 33.7188 290.456 33 289.972 32.2969C289.503 31.5781 288.894 30.8828 288.144 30.2109L284.979 27.3516C283.526 26.0391 282.44 24.625 281.722 23.1094C281.003 21.5781 280.644 19.8906 280.644 18.0469C280.644 15.0625 281.339 12.8828 282.729 11.5078C284.136 10.1172 286.214 9.42188 288.964 9.42188C290.745 9.42188 292.222 9.75781 293.394 10.4297C294.565 11.0859 295.44 12.1562 296.019 13.6406C296.597 15.125 296.886 17.1172 296.886 19.6172V21.5391H291.331V19.2188C291.331 17.6719 291.151 16.5 290.792 15.7031C290.448 14.9062 289.854 14.5078 289.011 14.5078C288.183 14.5078 287.573 14.7422 287.183 15.2109C286.792 15.6641 286.581 16.4688 286.55 17.625C286.534 18.25 286.612 18.8672 286.784 19.4766C286.956 20.0703 287.222 20.6562 287.581 21.2344C287.956 21.7969 288.44 22.3516 289.034 22.8984L292.362 25.9219C294.112 27.5 295.401 29.1484 296.229 30.8672C297.073 32.5859 297.495 34.4453 297.495 36.4453C297.495 39.3984 296.823 41.6406 295.479 43.1719C294.136 44.6875 292.019 45.4453 289.128 45.4453Z"/>
</mask>
<g filter="url(#filter0_ii_127_2785)">
<path d="M1.08105 45V3.75H7.3623V45H1.08105Z" fill="#E0E0E0"/>
<path d="M13.667 45V9.84375H19.8779V13.6641C20.2217 12.4141 20.8467 11.3984 21.7529 10.6172C22.6748 9.82031 23.9248 9.42188 25.5029 9.42188C26.7061 9.42188 27.7529 9.6875 28.6436 10.2188C29.5342 10.75 30.2217 11.6641 30.7061 12.9609C31.2998 11.8672 32.0811 11.0078 33.0498 10.3828C34.0186 9.74219 35.2295 9.42188 36.6826 9.42188C38.9639 9.42188 40.5811 10.1875 41.5342 11.7188C42.4873 13.25 42.9639 15.3672 42.9639 18.0703V45H36.7764V18C36.7764 16.75 36.5654 15.8594 36.1436 15.3281C35.7217 14.7812 35.1436 14.5078 34.4092 14.5078C33.4717 14.5078 32.7373 14.8359 32.2061 15.4922C31.6904 16.1328 31.4326 17.0781 31.4326 18.3281V45H25.2217V17.9531C25.2217 16.9062 25.042 16.0703 24.6826 15.4453C24.3389 14.8203 23.7529 14.5078 22.9248 14.5078C21.8467 14.5078 21.0654 14.9219 20.5811 15.75C20.1123 16.5625 19.8779 17.5312 19.8779 18.6562V45H13.667Z" fill="#E0E0E0"/>
<path d="M54.6592 45.3516C52.2529 45.3516 50.5811 44.4766 49.6436 42.7266C48.7217 40.9766 48.2451 38.6562 48.2139 35.7656V33.5156C48.2139 31.6406 48.4795 30.1172 49.0107 28.9453C49.5576 27.7734 50.3311 26.8203 51.3311 26.0859C52.3311 25.3516 53.5264 24.7109 54.917 24.1641C56.3076 23.6172 57.8545 23.0312 59.5576 22.4062V19.3359C59.5576 18.1484 59.5107 17.2031 59.417 16.5C59.3232 15.7812 59.1123 15.2578 58.7842 14.9297C58.4561 14.6016 57.9482 14.4375 57.2607 14.4375C56.5889 14.4375 56.0732 14.6094 55.7139 14.9531C55.3701 15.2812 55.1357 15.7969 55.0107 16.5C54.8857 17.1875 54.8232 18.0703 54.8232 19.1484V20.7188H48.6826V19.6641C48.6826 18.0547 48.8154 16.6172 49.0811 15.3516C49.3623 14.0859 49.8311 13.0156 50.4873 12.1406C51.1436 11.25 52.0342 10.5781 53.1592 10.125C54.2998 9.65625 55.7295 9.42188 57.4482 9.42188C58.9639 9.42188 60.2607 9.64062 61.3389 10.0781C62.417 10.5 63.292 11.1406 63.9639 12C64.6357 12.8438 65.1279 13.9062 65.4404 15.1875C65.7529 16.4688 65.9092 17.9609 65.9092 19.6641V45H59.6514V41.5078C59.4639 42.1797 59.1436 42.8125 58.6904 43.4062C58.2373 43.9844 57.667 44.4531 56.9795 44.8125C56.3076 45.1719 55.5342 45.3516 54.6592 45.3516ZM56.8154 40.5703C57.5967 40.5703 58.2217 40.2891 58.6904 39.7266C59.1592 39.1641 59.4482 38.5938 59.5576 38.0156V25.9219C58.6201 26.3438 57.8311 26.7422 57.1904 27.1172C56.5498 27.4766 56.0342 27.875 55.6436 28.3125C55.2529 28.75 54.9717 29.2656 54.7998 29.8594C54.6279 30.4531 54.542 31.1797 54.542 32.0391V35.9766C54.542 37.5859 54.7061 38.7578 55.0342 39.4922C55.3779 40.2109 55.9717 40.5703 56.8154 40.5703Z" fill="#E0E0E0"/>
<path d="M79.5732 50.2734C77.6357 50.3047 75.9873 50.1172 74.6279 49.7109C73.2686 49.3203 72.0342 48.6719 70.9248 47.7656L73.1045 43.8516C73.9326 44.3828 74.8311 44.8125 75.7998 45.1406C76.7842 45.4844 77.8467 45.6484 78.9873 45.6328C80.1748 45.6172 81.0811 45.2031 81.7061 44.3906C82.3311 43.5781 82.6436 42.4922 82.6436 41.1328V38.3438C82.2373 39.5156 81.6123 40.3203 80.7686 40.7578C79.9404 41.1953 78.9326 41.4141 77.7451 41.4141C76.0889 41.4141 74.7842 40.9766 73.8311 40.1016C72.8936 39.2266 72.2295 38.0312 71.8389 36.5156C71.4482 35 71.2529 33.2812 71.2529 31.3594V20.0391C71.2529 17.9922 71.4561 16.1719 71.8623 14.5781C72.2686 12.9688 72.9639 11.7031 73.9482 10.7812C74.9326 9.85938 76.2842 9.40625 78.0029 9.42188C79.2061 9.42188 80.1982 9.72656 80.9795 10.3359C81.7764 10.9453 82.3311 11.8203 82.6436 12.9609V9.84375H88.8545V40.6641C88.8545 42.0547 88.6982 43.3359 88.3857 44.5078C88.0732 45.6641 87.5576 46.6641 86.8389 47.5078C86.1201 48.3672 85.167 49.0312 83.9795 49.5C82.792 49.9844 81.3232 50.2422 79.5732 50.2734ZM80.2061 36.7031C80.7686 36.7031 81.2295 36.5391 81.5889 36.2109C81.9482 35.8672 82.2139 35.2891 82.3857 34.4766C82.5576 33.6484 82.6436 32.5 82.6436 31.0312V19.5234C82.6436 17.9766 82.4561 16.7422 82.0811 15.8203C81.7061 14.8984 81.0264 14.4375 80.042 14.4375C79.292 14.4375 78.7373 14.6562 78.3779 15.0938C78.0186 15.5312 77.7842 16.1328 77.6748 16.8984C77.5654 17.6484 77.5107 18.5156 77.5107 19.5V31.0781C77.5107 32.8125 77.6748 34.1875 78.0029 35.2031C78.3311 36.2031 79.0654 36.7031 80.2061 36.7031Z" fill="#E0E0E0"/>
<path d="M103.058 45.4219C101.292 45.4219 99.8389 45.1406 98.6982 44.5781C97.5732 44.0156 96.6904 43.2031 96.0498 42.1406C95.4248 41.0781 94.9873 39.8047 94.7373 38.3203C94.4873 36.8203 94.3623 35.1484 94.3623 33.3047V20.2031C94.3623 18.5625 94.5264 17.0781 94.8545 15.75C95.1982 14.4219 95.7217 13.2891 96.4248 12.3516C97.1436 11.4141 98.0732 10.6953 99.2139 10.1953C100.354 9.67969 101.729 9.42188 103.339 9.42188C104.979 9.42188 106.347 9.67188 107.44 10.1719C108.534 10.6719 109.394 11.3984 110.019 12.3516C110.659 13.3047 111.112 14.4531 111.378 15.7969C111.659 17.125 111.8 18.6328 111.8 20.3203V27.8438H100.62V34.7578C100.62 36.4609 100.753 37.8281 101.019 38.8594C101.284 39.8906 102.011 40.4062 103.198 40.4062C103.995 40.4062 104.558 40.1641 104.886 39.6797C105.229 39.1953 105.433 38.5312 105.495 37.6875C105.573 36.8281 105.612 35.8516 105.612 34.7578V31.6641H111.753V33.5391C111.753 35.4297 111.636 37.1094 111.401 38.5781C111.183 40.0469 110.761 41.2891 110.136 42.3047C109.526 43.3203 108.651 44.0938 107.511 44.625C106.37 45.1562 104.886 45.4219 103.058 45.4219ZM100.597 24.2109H105.612V19.7109C105.612 18.5391 105.558 17.5547 105.448 16.7578C105.339 15.9453 105.12 15.3359 104.792 14.9297C104.464 14.5234 103.964 14.3203 103.292 14.3203C102.464 14.3203 101.854 14.5625 101.464 15.0469C101.089 15.5312 100.847 16.1953 100.737 17.0391C100.644 17.8672 100.597 18.8125 100.597 19.875V24.2109Z" fill="#E0E0E0"/>
<path d="M124.315 45.4453C121.487 45.4453 119.386 44.6406 118.011 43.0312C116.636 41.4219 115.948 38.7891 115.948 35.1328V32.8594H121.784V35.6953C121.784 37.2266 121.972 38.3906 122.347 39.1875C122.722 39.9844 123.331 40.3828 124.175 40.3828C124.987 40.3828 125.589 40.1094 125.979 39.5625C126.37 39.0156 126.565 38.0703 126.565 36.7266C126.565 35.9453 126.448 35.1875 126.214 34.4531C125.995 33.7188 125.644 33 125.159 32.2969C124.69 31.5781 124.081 30.8828 123.331 30.2109L120.167 27.3516C118.714 26.0391 117.628 24.625 116.909 23.1094C116.19 21.5781 115.831 19.8906 115.831 18.0469C115.831 15.0625 116.526 12.8828 117.917 11.5078C119.323 10.1172 121.401 9.42188 124.151 9.42188C125.933 9.42188 127.409 9.75781 128.581 10.4297C129.753 11.0859 130.628 12.1562 131.206 13.6406C131.784 15.125 132.073 17.1172 132.073 19.6172V21.5391H126.519V19.2188C126.519 17.6719 126.339 16.5 125.979 15.7031C125.636 14.9062 125.042 14.5078 124.198 14.5078C123.37 14.5078 122.761 14.7422 122.37 15.2109C121.979 15.6641 121.769 16.4688 121.737 17.625C121.722 18.25 121.8 18.8672 121.972 19.4766C122.144 20.0703 122.409 20.6562 122.769 21.2344C123.144 21.7969 123.628 22.3516 124.222 22.8984L127.55 25.9219C129.3 27.5 130.589 29.1484 131.417 30.8672C132.261 32.5859 132.683 34.4453 132.683 36.4453C132.683 39.3984 132.011 41.6406 130.667 43.1719C129.323 44.6875 127.206 45.4453 124.315 45.4453Z" fill="#E0E0E0"/>
<path d="M152.019 45.4688C149.69 45.4688 147.854 44.6719 146.511 43.0781C145.167 41.4688 144.495 39.1562 144.495 36.1406C144.495 34.5312 144.808 32.9922 145.433 31.5234C146.058 30.0391 146.862 28.6094 147.847 27.2344C148.847 25.8438 149.901 24.5 151.011 23.2031C150.058 20.7188 149.261 18.4297 148.62 16.3359C147.979 14.2266 147.659 12.6016 147.659 11.4609C147.659 8.80469 148.347 6.77344 149.722 5.36719C151.112 3.96094 152.948 3.25781 155.229 3.25781C156.886 3.25781 158.261 3.57812 159.354 4.21875C160.448 4.84375 161.269 5.76562 161.815 6.98438C162.362 8.1875 162.636 9.65625 162.636 11.3906C162.636 12.8438 162.378 14.2578 161.862 15.6328C161.347 16.9922 160.675 18.3203 159.847 19.6172C159.019 20.8984 158.12 22.1562 157.151 23.3906L160.175 30.9141C160.784 29.8984 161.448 28.8516 162.167 27.7734C162.901 26.6797 163.722 25.5938 164.628 24.5156L167.183 28.8281C166.214 29.9062 165.354 31.1016 164.604 32.4141C163.87 33.7266 163.159 35.0391 162.472 36.3516L166.175 45H160.362L159.026 41.9531C158.448 42.6406 157.815 43.25 157.128 43.7812C156.456 44.3125 155.698 44.7266 154.854 45.0234C154.011 45.3203 153.065 45.4688 152.019 45.4688ZM153.073 40.1016C153.542 40.1016 153.979 39.9688 154.386 39.7031C154.792 39.4375 155.19 39.0703 155.581 38.6016C155.972 38.1172 156.37 37.5469 156.776 36.8906L153.144 28.4531C152.534 29.2656 151.979 30.0703 151.479 30.8672C150.995 31.6641 150.604 32.4531 150.308 33.2344C150.011 34.0156 149.847 34.7891 149.815 35.5547C149.769 37.0391 150.011 38.1719 150.542 38.9531C151.089 39.7188 151.933 40.1016 153.073 40.1016ZM155.206 18.1875C156.112 17.0156 156.854 15.8594 157.433 14.7188C158.011 13.5781 158.3 12.4375 158.3 11.2969C158.3 9.95312 158.136 8.98438 157.808 8.39062C157.479 7.79688 156.854 7.5 155.933 7.5C155.386 7.5 154.94 7.60938 154.597 7.82812C154.253 8.04688 153.987 8.34375 153.8 8.71875C153.628 9.07812 153.511 9.47656 153.448 9.91406C153.386 10.3516 153.354 10.7891 153.354 11.2266C153.354 11.8516 153.519 12.7734 153.847 13.9922C154.19 15.1953 154.644 16.5938 155.206 18.1875Z" fill="#E0E0E0"/>
<path d="M183.354 45L176.956 3.75H182.933L185.628 22.3828L187.292 35.5078H187.456L188.886 22.3828L191.136 3.75H196.995L191.112 45H183.354Z" fill="#E0E0E0"/>
<path d="M201.05 45V9.84375H207.261V45H201.05ZM201.026 6.60938V1.21875H207.284V6.60938H201.026Z" fill="#E0E0E0"/>
<path d="M219.519 45.3516C217.612 45.3516 216.198 44.8438 215.276 43.8281C214.354 42.7969 213.753 41.4062 213.472 39.6562C213.19 37.9062 213.05 35.9453 213.05 33.7734V19.4531C213.05 17.5625 213.276 15.8672 213.729 14.3672C214.183 12.8516 214.917 11.6484 215.933 10.7578C216.964 9.86719 218.323 9.42188 220.011 9.42188C221.011 9.42188 221.909 9.66406 222.706 10.1484C223.503 10.6172 224.12 11.2422 224.558 12.0234V3.39844H230.769V45H224.558V41.7422C224.089 42.9297 223.433 43.8281 222.589 44.4375C221.745 45.0469 220.722 45.3516 219.519 45.3516ZM221.815 40.4062C222.565 40.4062 223.136 40.1875 223.526 39.75C223.933 39.2969 224.206 38.6094 224.347 37.6875C224.503 36.75 224.581 35.5703 224.581 34.1484V20.0859C224.581 18.3672 224.409 17 224.065 15.9844C223.737 14.9688 223.019 14.4609 221.909 14.4609C220.847 14.4609 220.144 14.9609 219.8 15.9609C219.472 16.9453 219.308 18.3438 219.308 20.1562V34.6172C219.308 35.8203 219.378 36.8594 219.519 37.7344C219.675 38.5938 219.933 39.2578 220.292 39.7266C220.651 40.1797 221.159 40.4062 221.815 40.4062Z" fill="#E0E0E0"/>
<path d="M245.136 45.4219C243.37 45.4219 241.917 45.1406 240.776 44.5781C239.651 44.0156 238.769 43.2031 238.128 42.1406C237.503 41.0781 237.065 39.8047 236.815 38.3203C236.565 36.8203 236.44 35.1484 236.44 33.3047V20.2031C236.44 18.5625 236.604 17.0781 236.933 15.75C237.276 14.4219 237.8 13.2891 238.503 12.3516C239.222 11.4141 240.151 10.6953 241.292 10.1953C242.433 9.67969 243.808 9.42188 245.417 9.42188C247.058 9.42188 248.425 9.67188 249.519 10.1719C250.612 10.6719 251.472 11.3984 252.097 12.3516C252.737 13.3047 253.19 14.4531 253.456 15.7969C253.737 17.125 253.878 18.6328 253.878 20.3203V27.8438H242.698V34.7578C242.698 36.4609 242.831 37.8281 243.097 38.8594C243.362 39.8906 244.089 40.4062 245.276 40.4062C246.073 40.4062 246.636 40.1641 246.964 39.6797C247.308 39.1953 247.511 38.5312 247.573 37.6875C247.651 36.8281 247.69 35.8516 247.69 34.7578V31.6641H253.831V33.5391C253.831 35.4297 253.714 37.1094 253.479 38.5781C253.261 40.0469 252.839 41.2891 252.214 42.3047C251.604 43.3203 250.729 44.0938 249.589 44.625C248.448 45.1562 246.964 45.4219 245.136 45.4219ZM242.675 24.2109H247.69V19.7109C247.69 18.5391 247.636 17.5547 247.526 16.7578C247.417 15.9453 247.198 15.3359 246.87 14.9297C246.542 14.5234 246.042 14.3203 245.37 14.3203C244.542 14.3203 243.933 14.5625 243.542 15.0469C243.167 15.5312 242.925 16.1953 242.815 17.0391C242.722 17.8672 242.675 18.8125 242.675 19.875V24.2109Z" fill="#E0E0E0"/>
<path d="M267.425 45.4219C265.737 45.4219 264.323 45.1641 263.183 44.6484C262.042 44.1172 261.136 43.3594 260.464 42.375C259.808 41.375 259.331 40.1641 259.034 38.7422C258.753 37.3047 258.612 35.6719 258.612 33.8438V20.6953C258.612 18.4922 258.894 16.5469 259.456 14.8594C260.034 13.1562 260.972 11.8281 262.269 10.875C263.565 9.90625 265.284 9.42188 267.425 9.42188C269.05 9.42188 270.417 9.69531 271.526 10.2422C272.651 10.7891 273.55 11.5703 274.222 12.5859C274.909 13.5859 275.409 14.7734 275.722 16.1484C276.034 17.5234 276.19 19.0391 276.19 20.6953V33.8438C276.19 35.6406 276.05 37.25 275.769 38.6719C275.503 40.0938 275.034 41.3125 274.362 42.3281C273.706 43.3281 272.815 44.0938 271.69 44.625C270.565 45.1562 269.144 45.4219 267.425 45.4219ZM267.425 40.4062C268.128 40.4062 268.659 40.1953 269.019 39.7734C269.378 39.3359 269.62 38.7344 269.745 37.9688C269.87 37.2031 269.933 36.3203 269.933 35.3203V19.5938C269.933 18.5312 269.862 17.6172 269.722 16.8516C269.581 16.0859 269.331 15.4922 268.972 15.0703C268.612 14.6484 268.097 14.4375 267.425 14.4375C266.722 14.4375 266.183 14.6484 265.808 15.0703C265.448 15.4922 265.198 16.0859 265.058 16.8516C264.933 17.6172 264.87 18.5312 264.87 19.5938V35.3203C264.87 36.3203 264.933 37.2031 265.058 37.9688C265.198 38.7344 265.448 39.3359 265.808 39.7734C266.183 40.1953 266.722 40.4062 267.425 40.4062Z" fill="#E0E0E0"/>
<path d="M289.128 45.4453C286.3 45.4453 284.198 44.6406 282.823 43.0312C281.448 41.4219 280.761 38.7891 280.761 35.1328V32.8594H286.597V35.6953C286.597 37.2266 286.784 38.3906 287.159 39.1875C287.534 39.9844 288.144 40.3828 288.987 40.3828C289.8 40.3828 290.401 40.1094 290.792 39.5625C291.183 39.0156 291.378 38.0703 291.378 36.7266C291.378 35.9453 291.261 35.1875 291.026 34.4531C290.808 33.7188 290.456 33 289.972 32.2969C289.503 31.5781 288.894 30.8828 288.144 30.2109L284.979 27.3516C283.526 26.0391 282.44 24.625 281.722 23.1094C281.003 21.5781 280.644 19.8906 280.644 18.0469C280.644 15.0625 281.339 12.8828 282.729 11.5078C284.136 10.1172 286.214 9.42188 288.964 9.42188C290.745 9.42188 292.222 9.75781 293.394 10.4297C294.565 11.0859 295.44 12.1562 296.019 13.6406C296.597 15.125 296.886 17.1172 296.886 19.6172V21.5391H291.331V19.2188C291.331 17.6719 291.151 16.5 290.792 15.7031C290.448 14.9062 289.854 14.5078 289.011 14.5078C288.183 14.5078 287.573 14.7422 287.183 15.2109C286.792 15.6641 286.581 16.4688 286.55 17.625C286.534 18.25 286.612 18.8672 286.784 19.4766C286.956 20.0703 287.222 20.6562 287.581 21.2344C287.956 21.7969 288.44 22.3516 289.034 22.8984L292.362 25.9219C294.112 27.5 295.401 29.1484 296.229 30.8672C297.073 32.5859 297.495 34.4453 297.495 36.4453C297.495 39.3984 296.823 41.6406 295.479 43.1719C294.136 44.6875 292.019 45.4453 289.128 45.4453Z" fill="#E0E0E0"/>
</g>
<path d="M1.08105 45V3.75H7.3623V45H1.08105Z" stroke="#EAEAEA" stroke-width="2" mask="url(#path-1-outside-1_127_2785)"/>
<path d="M13.667 45V9.84375H19.8779V13.6641C20.2217 12.4141 20.8467 11.3984 21.7529 10.6172C22.6748 9.82031 23.9248 9.42188 25.5029 9.42188C26.7061 9.42188 27.7529 9.6875 28.6436 10.2188C29.5342 10.75 30.2217 11.6641 30.7061 12.9609C31.2998 11.8672 32.0811 11.0078 33.0498 10.3828C34.0186 9.74219 35.2295 9.42188 36.6826 9.42188C38.9639 9.42188 40.5811 10.1875 41.5342 11.7188C42.4873 13.25 42.9639 15.3672 42.9639 18.0703V45H36.7764V18C36.7764 16.75 36.5654 15.8594 36.1436 15.3281C35.7217 14.7812 35.1436 14.5078 34.4092 14.5078C33.4717 14.5078 32.7373 14.8359 32.2061 15.4922C31.6904 16.1328 31.4326 17.0781 31.4326 18.3281V45H25.2217V17.9531C25.2217 16.9062 25.042 16.0703 24.6826 15.4453C24.3389 14.8203 23.7529 14.5078 22.9248 14.5078C21.8467 14.5078 21.0654 14.9219 20.5811 15.75C20.1123 16.5625 19.8779 17.5312 19.8779 18.6562V45H13.667Z" stroke="#EAEAEA" stroke-width="2" mask="url(#path-1-outside-1_127_2785)"/>
<path d="M54.6592 45.3516C52.2529 45.3516 50.5811 44.4766 49.6436 42.7266C48.7217 40.9766 48.2451 38.6562 48.2139 35.7656V33.5156C48.2139 31.6406 48.4795 30.1172 49.0107 28.9453C49.5576 27.7734 50.3311 26.8203 51.3311 26.0859C52.3311 25.3516 53.5264 24.7109 54.917 24.1641C56.3076 23.6172 57.8545 23.0312 59.5576 22.4062V19.3359C59.5576 18.1484 59.5107 17.2031 59.417 16.5C59.3232 15.7812 59.1123 15.2578 58.7842 14.9297C58.4561 14.6016 57.9482 14.4375 57.2607 14.4375C56.5889 14.4375 56.0732 14.6094 55.7139 14.9531C55.3701 15.2812 55.1357 15.7969 55.0107 16.5C54.8857 17.1875 54.8232 18.0703 54.8232 19.1484V20.7188H48.6826V19.6641C48.6826 18.0547 48.8154 16.6172 49.0811 15.3516C49.3623 14.0859 49.8311 13.0156 50.4873 12.1406C51.1436 11.25 52.0342 10.5781 53.1592 10.125C54.2998 9.65625 55.7295 9.42188 57.4482 9.42188C58.9639 9.42188 60.2607 9.64062 61.3389 10.0781C62.417 10.5 63.292 11.1406 63.9639 12C64.6357 12.8438 65.1279 13.9062 65.4404 15.1875C65.7529 16.4688 65.9092 17.9609 65.9092 19.6641V45H59.6514V41.5078C59.4639 42.1797 59.1436 42.8125 58.6904 43.4062C58.2373 43.9844 57.667 44.4531 56.9795 44.8125C56.3076 45.1719 55.5342 45.3516 54.6592 45.3516ZM56.8154 40.5703C57.5967 40.5703 58.2217 40.2891 58.6904 39.7266C59.1592 39.1641 59.4482 38.5938 59.5576 38.0156V25.9219C58.6201 26.3438 57.8311 26.7422 57.1904 27.1172C56.5498 27.4766 56.0342 27.875 55.6436 28.3125C55.2529 28.75 54.9717 29.2656 54.7998 29.8594C54.6279 30.4531 54.542 31.1797 54.542 32.0391V35.9766C54.542 37.5859 54.7061 38.7578 55.0342 39.4922C55.3779 40.2109 55.9717 40.5703 56.8154 40.5703Z" stroke="#EAEAEA" stroke-width="2" mask="url(#path-1-outside-1_127_2785)"/>
<path d="M79.5732 50.2734C77.6357 50.3047 75.9873 50.1172 74.6279 49.7109C73.2686 49.3203 72.0342 48.6719 70.9248 47.7656L73.1045 43.8516C73.9326 44.3828 74.8311 44.8125 75.7998 45.1406C76.7842 45.4844 77.8467 45.6484 78.9873 45.6328C80.1748 45.6172 81.0811 45.2031 81.7061 44.3906C82.3311 43.5781 82.6436 42.4922 82.6436 41.1328V38.3438C82.2373 39.5156 81.6123 40.3203 80.7686 40.7578C79.9404 41.1953 78.9326 41.4141 77.7451 41.4141C76.0889 41.4141 74.7842 40.9766 73.8311 40.1016C72.8936 39.2266 72.2295 38.0312 71.8389 36.5156C71.4482 35 71.2529 33.2812 71.2529 31.3594V20.0391C71.2529 17.9922 71.4561 16.1719 71.8623 14.5781C72.2686 12.9688 72.9639 11.7031 73.9482 10.7812C74.9326 9.85938 76.2842 9.40625 78.0029 9.42188C79.2061 9.42188 80.1982 9.72656 80.9795 10.3359C81.7764 10.9453 82.3311 11.8203 82.6436 12.9609V9.84375H88.8545V40.6641C88.8545 42.0547 88.6982 43.3359 88.3857 44.5078C88.0732 45.6641 87.5576 46.6641 86.8389 47.5078C86.1201 48.3672 85.167 49.0312 83.9795 49.5C82.792 49.9844 81.3232 50.2422 79.5732 50.2734ZM80.2061 36.7031C80.7686 36.7031 81.2295 36.5391 81.5889 36.2109C81.9482 35.8672 82.2139 35.2891 82.3857 34.4766C82.5576 33.6484 82.6436 32.5 82.6436 31.0312V19.5234C82.6436 17.9766 82.4561 16.7422 82.0811 15.8203C81.7061 14.8984 81.0264 14.4375 80.042 14.4375C79.292 14.4375 78.7373 14.6562 78.3779 15.0938C78.0186 15.5312 77.7842 16.1328 77.6748 16.8984C77.5654 17.6484 77.5107 18.5156 77.5107 19.5V31.0781C77.5107 32.8125 77.6748 34.1875 78.0029 35.2031C78.3311 36.2031 79.0654 36.7031 80.2061 36.7031Z" stroke="#EAEAEA" stroke-width="2" mask="url(#path-1-outside-1_127_2785)"/>
<path d="M103.058 45.4219C101.292 45.4219 99.8389 45.1406 98.6982 44.5781C97.5732 44.0156 96.6904 43.2031 96.0498 42.1406C95.4248 41.0781 94.9873 39.8047 94.7373 38.3203C94.4873 36.8203 94.3623 35.1484 94.3623 33.3047V20.2031C94.3623 18.5625 94.5264 17.0781 94.8545 15.75C95.1982 14.4219 95.7217 13.2891 96.4248 12.3516C97.1436 11.4141 98.0732 10.6953 99.2139 10.1953C100.354 9.67969 101.729 9.42188 103.339 9.42188C104.979 9.42188 106.347 9.67188 107.44 10.1719C108.534 10.6719 109.394 11.3984 110.019 12.3516C110.659 13.3047 111.112 14.4531 111.378 15.7969C111.659 17.125 111.8 18.6328 111.8 20.3203V27.8438H100.62V34.7578C100.62 36.4609 100.753 37.8281 101.019 38.8594C101.284 39.8906 102.011 40.4062 103.198 40.4062C103.995 40.4062 104.558 40.1641 104.886 39.6797C105.229 39.1953 105.433 38.5312 105.495 37.6875C105.573 36.8281 105.612 35.8516 105.612 34.7578V31.6641H111.753V33.5391C111.753 35.4297 111.636 37.1094 111.401 38.5781C111.183 40.0469 110.761 41.2891 110.136 42.3047C109.526 43.3203 108.651 44.0938 107.511 44.625C106.37 45.1562 104.886 45.4219 103.058 45.4219ZM100.597 24.2109H105.612V19.7109C105.612 18.5391 105.558 17.5547 105.448 16.7578C105.339 15.9453 105.12 15.3359 104.792 14.9297C104.464 14.5234 103.964 14.3203 103.292 14.3203C102.464 14.3203 101.854 14.5625 101.464 15.0469C101.089 15.5312 100.847 16.1953 100.737 17.0391C100.644 17.8672 100.597 18.8125 100.597 19.875V24.2109Z" stroke="#EAEAEA" stroke-width="2" mask="url(#path-1-outside-1_127_2785)"/>
<path d="M124.315 45.4453C121.487 45.4453 119.386 44.6406 118.011 43.0312C116.636 41.4219 115.948 38.7891 115.948 35.1328V32.8594H121.784V35.6953C121.784 37.2266 121.972 38.3906 122.347 39.1875C122.722 39.9844 123.331 40.3828 124.175 40.3828C124.987 40.3828 125.589 40.1094 125.979 39.5625C126.37 39.0156 126.565 38.0703 126.565 36.7266C126.565 35.9453 126.448 35.1875 126.214 34.4531C125.995 33.7188 125.644 33 125.159 32.2969C124.69 31.5781 124.081 30.8828 123.331 30.2109L120.167 27.3516C118.714 26.0391 117.628 24.625 116.909 23.1094C116.19 21.5781 115.831 19.8906 115.831 18.0469C115.831 15.0625 116.526 12.8828 117.917 11.5078C119.323 10.1172 121.401 9.42188 124.151 9.42188C125.933 9.42188 127.409 9.75781 128.581 10.4297C129.753 11.0859 130.628 12.1562 131.206 13.6406C131.784 15.125 132.073 17.1172 132.073 19.6172V21.5391H126.519V19.2188C126.519 17.6719 126.339 16.5 125.979 15.7031C125.636 14.9062 125.042 14.5078 124.198 14.5078C123.37 14.5078 122.761 14.7422 122.37 15.2109C121.979 15.6641 121.769 16.4688 121.737 17.625C121.722 18.25 121.8 18.8672 121.972 19.4766C122.144 20.0703 122.409 20.6562 122.769 21.2344C123.144 21.7969 123.628 22.3516 124.222 22.8984L127.55 25.9219C129.3 27.5 130.589 29.1484 131.417 30.8672C132.261 32.5859 132.683 34.4453 132.683 36.4453C132.683 39.3984 132.011 41.6406 130.667 43.1719C129.323 44.6875 127.206 45.4453 124.315 45.4453Z" stroke="#EAEAEA" stroke-width="2" mask="url(#path-1-outside-1_127_2785)"/>
<path d="M152.019 45.4688C149.69 45.4688 147.854 44.6719 146.511 43.0781C145.167 41.4688 144.495 39.1562 144.495 36.1406C144.495 34.5312 144.808 32.9922 145.433 31.5234C146.058 30.0391 146.862 28.6094 147.847 27.2344C148.847 25.8438 149.901 24.5 151.011 23.2031C150.058 20.7188 149.261 18.4297 148.62 16.3359C147.979 14.2266 147.659 12.6016 147.659 11.4609C147.659 8.80469 148.347 6.77344 149.722 5.36719C151.112 3.96094 152.948 3.25781 155.229 3.25781C156.886 3.25781 158.261 3.57812 159.354 4.21875C160.448 4.84375 161.269 5.76562 161.815 6.98438C162.362 8.1875 162.636 9.65625 162.636 11.3906C162.636 12.8438 162.378 14.2578 161.862 15.6328C161.347 16.9922 160.675 18.3203 159.847 19.6172C159.019 20.8984 158.12 22.1562 157.151 23.3906L160.175 30.9141C160.784 29.8984 161.448 28.8516 162.167 27.7734C162.901 26.6797 163.722 25.5938 164.628 24.5156L167.183 28.8281C166.214 29.9062 165.354 31.1016 164.604 32.4141C163.87 33.7266 163.159 35.0391 162.472 36.3516L166.175 45H160.362L159.026 41.9531C158.448 42.6406 157.815 43.25 157.128 43.7812C156.456 44.3125 155.698 44.7266 154.854 45.0234C154.011 45.3203 153.065 45.4688 152.019 45.4688ZM153.073 40.1016C153.542 40.1016 153.979 39.9688 154.386 39.7031C154.792 39.4375 155.19 39.0703 155.581 38.6016C155.972 38.1172 156.37 37.5469 156.776 36.8906L153.144 28.4531C152.534 29.2656 151.979 30.0703 151.479 30.8672C150.995 31.6641 150.604 32.4531 150.308 33.2344C150.011 34.0156 149.847 34.7891 149.815 35.5547C149.769 37.0391 150.011 38.1719 150.542 38.9531C151.089 39.7188 151.933 40.1016 153.073 40.1016ZM155.206 18.1875C156.112 17.0156 156.854 15.8594 157.433 14.7188C158.011 13.5781 158.3 12.4375 158.3 11.2969C158.3 9.95312 158.136 8.98438 157.808 8.39062C157.479 7.79688 156.854 7.5 155.933 7.5C155.386 7.5 154.94 7.60938 154.597 7.82812C154.253 8.04688 153.987 8.34375 153.8 8.71875C153.628 9.07812 153.511 9.47656 153.448 9.91406C153.386 10.3516 153.354 10.7891 153.354 11.2266C153.354 11.8516 153.519 12.7734 153.847 13.9922C154.19 15.1953 154.644 16.5938 155.206 18.1875Z" stroke="#EAEAEA" stroke-width="2" mask="url(#path-1-outside-1_127_2785)"/>
<path d="M183.354 45L176.956 3.75H182.933L185.628 22.3828L187.292 35.5078H187.456L188.886 22.3828L191.136 3.75H196.995L191.112 45H183.354Z" stroke="#EAEAEA" stroke-width="2" mask="url(#path-1-outside-1_127_2785)"/>
<path d="M201.05 45V9.84375H207.261V45H201.05ZM201.026 6.60938V1.21875H207.284V6.60938H201.026Z" stroke="#EAEAEA" stroke-width="2" mask="url(#path-1-outside-1_127_2785)"/>
<path d="M219.519 45.3516C217.612 45.3516 216.198 44.8438 215.276 43.8281C214.354 42.7969 213.753 41.4062 213.472 39.6562C213.19 37.9062 213.05 35.9453 213.05 33.7734V19.4531C213.05 17.5625 213.276 15.8672 213.729 14.3672C214.183 12.8516 214.917 11.6484 215.933 10.7578C216.964 9.86719 218.323 9.42188 220.011 9.42188C221.011 9.42188 221.909 9.66406 222.706 10.1484C223.503 10.6172 224.12 11.2422 224.558 12.0234V3.39844H230.769V45H224.558V41.7422C224.089 42.9297 223.433 43.8281 222.589 44.4375C221.745 45.0469 220.722 45.3516 219.519 45.3516ZM221.815 40.4062C222.565 40.4062 223.136 40.1875 223.526 39.75C223.933 39.2969 224.206 38.6094 224.347 37.6875C224.503 36.75 224.581 35.5703 224.581 34.1484V20.0859C224.581 18.3672 224.409 17 224.065 15.9844C223.737 14.9688 223.019 14.4609 221.909 14.4609C220.847 14.4609 220.144 14.9609 219.8 15.9609C219.472 16.9453 219.308 18.3438 219.308 20.1562V34.6172C219.308 35.8203 219.378 36.8594 219.519 37.7344C219.675 38.5938 219.933 39.2578 220.292 39.7266C220.651 40.1797 221.159 40.4062 221.815 40.4062Z" stroke="#EAEAEA" stroke-width="2" mask="url(#path-1-outside-1_127_2785)"/>
<path d="M245.136 45.4219C243.37 45.4219 241.917 45.1406 240.776 44.5781C239.651 44.0156 238.769 43.2031 238.128 42.1406C237.503 41.0781 237.065 39.8047 236.815 38.3203C236.565 36.8203 236.44 35.1484 236.44 33.3047V20.2031C236.44 18.5625 236.604 17.0781 236.933 15.75C237.276 14.4219 237.8 13.2891 238.503 12.3516C239.222 11.4141 240.151 10.6953 241.292 10.1953C242.433 9.67969 243.808 9.42188 245.417 9.42188C247.058 9.42188 248.425 9.67188 249.519 10.1719C250.612 10.6719 251.472 11.3984 252.097 12.3516C252.737 13.3047 253.19 14.4531 253.456 15.7969C253.737 17.125 253.878 18.6328 253.878 20.3203V27.8438H242.698V34.7578C242.698 36.4609 242.831 37.8281 243.097 38.8594C243.362 39.8906 244.089 40.4062 245.276 40.4062C246.073 40.4062 246.636 40.1641 246.964 39.6797C247.308 39.1953 247.511 38.5312 247.573 37.6875C247.651 36.8281 247.69 35.8516 247.69 34.7578V31.6641H253.831V33.5391C253.831 35.4297 253.714 37.1094 253.479 38.5781C253.261 40.0469 252.839 41.2891 252.214 42.3047C251.604 43.3203 250.729 44.0938 249.589 44.625C248.448 45.1562 246.964 45.4219 245.136 45.4219ZM242.675 24.2109H247.69V19.7109C247.69 18.5391 247.636 17.5547 247.526 16.7578C247.417 15.9453 247.198 15.3359 246.87 14.9297C246.542 14.5234 246.042 14.3203 245.37 14.3203C244.542 14.3203 243.933 14.5625 243.542 15.0469C243.167 15.5312 242.925 16.1953 242.815 17.0391C242.722 17.8672 242.675 18.8125 242.675 19.875V24.2109Z" stroke="#EAEAEA" stroke-width="2" mask="url(#path-1-outside-1_127_2785)"/>
<path d="M267.425 45.4219C265.737 45.4219 264.323 45.1641 263.183 44.6484C262.042 44.1172 261.136 43.3594 260.464 42.375C259.808 41.375 259.331 40.1641 259.034 38.7422C258.753 37.3047 258.612 35.6719 258.612 33.8438V20.6953C258.612 18.4922 258.894 16.5469 259.456 14.8594C260.034 13.1562 260.972 11.8281 262.269 10.875C263.565 9.90625 265.284 9.42188 267.425 9.42188C269.05 9.42188 270.417 9.69531 271.526 10.2422C272.651 10.7891 273.55 11.5703 274.222 12.5859C274.909 13.5859 275.409 14.7734 275.722 16.1484C276.034 17.5234 276.19 19.0391 276.19 20.6953V33.8438C276.19 35.6406 276.05 37.25 275.769 38.6719C275.503 40.0938 275.034 41.3125 274.362 42.3281C273.706 43.3281 272.815 44.0938 271.69 44.625C270.565 45.1562 269.144 45.4219 267.425 45.4219ZM267.425 40.4062C268.128 40.4062 268.659 40.1953 269.019 39.7734C269.378 39.3359 269.62 38.7344 269.745 37.9688C269.87 37.2031 269.933 36.3203 269.933 35.3203V19.5938C269.933 18.5312 269.862 17.6172 269.722 16.8516C269.581 16.0859 269.331 15.4922 268.972 15.0703C268.612 14.6484 268.097 14.4375 267.425 14.4375C266.722 14.4375 266.183 14.6484 265.808 15.0703C265.448 15.4922 265.198 16.0859 265.058 16.8516C264.933 17.6172 264.87 18.5312 264.87 19.5938V35.3203C264.87 36.3203 264.933 37.2031 265.058 37.9688C265.198 38.7344 265.448 39.3359 265.808 39.7734C266.183 40.1953 266.722 40.4062 267.425 40.4062Z" stroke="#EAEAEA" stroke-width="2" mask="url(#path-1-outside-1_127_2785)"/>
<path d="M289.128 45.4453C286.3 45.4453 284.198 44.6406 282.823 43.0312C281.448 41.4219 280.761 38.7891 280.761 35.1328V32.8594H286.597V35.6953C286.597 37.2266 286.784 38.3906 287.159 39.1875C287.534 39.9844 288.144 40.3828 288.987 40.3828C289.8 40.3828 290.401 40.1094 290.792 39.5625C291.183 39.0156 291.378 38.0703 291.378 36.7266C291.378 35.9453 291.261 35.1875 291.026 34.4531C290.808 33.7188 290.456 33 289.972 32.2969C289.503 31.5781 288.894 30.8828 288.144 30.2109L284.979 27.3516C283.526 26.0391 282.44 24.625 281.722 23.1094C281.003 21.5781 280.644 19.8906 280.644 18.0469C280.644 15.0625 281.339 12.8828 282.729 11.5078C284.136 10.1172 286.214 9.42188 288.964 9.42188C290.745 9.42188 292.222 9.75781 293.394 10.4297C294.565 11.0859 295.44 12.1562 296.019 13.6406C296.597 15.125 296.886 17.1172 296.886 19.6172V21.5391H291.331V19.2188C291.331 17.6719 291.151 16.5 290.792 15.7031C290.448 14.9062 289.854 14.5078 289.011 14.5078C288.183 14.5078 287.573 14.7422 287.183 15.2109C286.792 15.6641 286.581 16.4688 286.55 17.625C286.534 18.25 286.612 18.8672 286.784 19.4766C286.956 20.0703 287.222 20.6562 287.581 21.2344C287.956 21.7969 288.44 22.3516 289.034 22.8984L292.362 25.9219C294.112 27.5 295.401 29.1484 296.229 30.8672C297.073 32.5859 297.495 34.4453 297.495 36.4453C297.495 39.3984 296.823 41.6406 295.479 43.1719C294.136 44.6875 292.019 45.4453 289.128 45.4453Z" stroke="#EAEAEA" stroke-width="2" mask="url(#path-1-outside-1_127_2785)"/>
<defs>
<filter id="filter0_ii_127_2785" x="-0.918945" y="-0.78125" width="302.414" height="55.058" filterUnits="userSpaceOnUse" color-interpolation-filters="sRGB">
<feFlood flood-opacity="0" result="BackgroundImageFix"/>
<feBlend mode="normal" in="SourceGraphic" in2="BackgroundImageFix" result="shape"/>
<feColorMatrix in="SourceAlpha" type="matrix" values="0 0 0 0 0 0 0 0 0 0 0 0 0 0 0 0 0 0 127 0" result="hardAlpha"/>
<feOffset dx="-1" dy="-1"/>
<feGaussianBlur stdDeviation="1.5"/>
<feComposite in2="hardAlpha" operator="arithmetic" k2="-1" k3="1"/>
<feColorMatrix type="matrix" values="0 0 0 0 0.984314 0 0 0 0 0.984314 0 0 0 0 0.984314 0 0 0 1 0"/>
<feBlend mode="normal" in2="shape" result="effect1_innerShadow_127_2785"/>
<feColorMatrix in="SourceAlpha" type="matrix" values="0 0 0 0 0 0 0 0 0 0 0 0 0 0 0 0 0 0 127 0" result="hardAlpha"/>
<feOffset dx="3" dy="3"/>
<feGaussianBlur stdDeviation="4.5"/>
<feComposite in2="hardAlpha" operator="arithmetic" k2="-1" k3="1"/>
<feColorMatrix type="matrix" values="0 0 0 0 0.772549 0 0 0 0 0.772549 0 0 0 0 0.772549 0 0 0 1 0"/>
<feBlend mode="normal" in2="effect1_innerShadow_127_2785" result="effect2_innerShadow_127_2785"/>
</filter>
</defs>
</svg>
