<svg width="543" height="52" viewBox="0 0 543 52" fill="none" xmlns="http://www.w3.org/2000/svg">
<mask id="path-1-outside-1_127_2790" maskUnits="userSpaceOnUse" x="0.25293" y="0.21875" width="543" height="52" fill="black">
<rect fill="white" x="0.25293" y="0.21875" width="543" height="52"/>
<path d="M1.25293 45V3.75H7.53418V45H1.25293Z"/>
<path d="M13.8389 45V9.84375H20.0498V13.875C20.3623 12.6719 21.0186 11.6328 22.0186 10.7578C23.0186 9.86719 24.2451 9.42188 25.6982 9.42188C27.7295 9.42188 29.2529 10.1016 30.2686 11.4609C31.2842 12.8047 31.792 14.7578 31.792 17.3203V45H25.5811V17.6953C25.5811 16.6797 25.3467 15.8828 24.8779 15.3047C24.4248 14.7266 23.7998 14.4375 23.0029 14.4375C22.3623 14.4375 21.8154 14.6172 21.3623 14.9766C20.9248 15.3203 20.5967 15.8047 20.3779 16.4297C20.1592 17.0391 20.0498 17.7578 20.0498 18.5859V45H13.8389Z"/>
<path d="M44.0967 45.2344C42.5967 45.2344 41.4482 45.0469 40.6514 44.6719C39.8545 44.2812 39.3076 43.6719 39.0107 42.8438C38.7139 42.0156 38.5654 40.9453 38.5654 39.6328V15.0703H35.7061V10.5703H38.5654V3.75H44.7764V10.5703H48.1982V15.0703H44.7764V38.5547C44.7764 39.1016 44.8623 39.5156 45.0342 39.7969C45.2061 40.0781 45.542 40.2656 46.042 40.3594C46.5576 40.4531 47.3154 40.5 48.3154 40.5V45.2344H44.0967Z"/>
<path d="M60.9014 45.4219C59.1357 45.4219 57.6826 45.1406 56.542 44.5781C55.417 44.0156 54.5342 43.2031 53.8936 42.1406C53.2686 41.0781 52.8311 39.8047 52.5811 38.3203C52.3311 36.8203 52.2061 35.1484 52.2061 33.3047V20.2031C52.2061 18.5625 52.3701 17.0781 52.6982 15.75C53.042 14.4219 53.5654 13.2891 54.2686 12.3516C54.9873 11.4141 55.917 10.6953 57.0576 10.1953C58.1982 9.67969 59.5732 9.42188 61.1826 9.42188C62.8232 9.42188 64.1904 9.67188 65.2842 10.1719C66.3779 10.6719 67.2373 11.3984 67.8623 12.3516C68.5029 13.3047 68.9561 14.4531 69.2217 15.7969C69.5029 17.125 69.6436 18.6328 69.6436 20.3203V27.8438H58.4639V34.7578C58.4639 36.4609 58.5967 37.8281 58.8623 38.8594C59.1279 39.8906 59.8545 40.4062 61.042 40.4062C61.8389 40.4062 62.4014 40.1641 62.7295 39.6797C63.0732 39.1953 63.2764 38.5312 63.3389 37.6875C63.417 36.8281 63.4561 35.8516 63.4561 34.7578V31.6641H69.5967V33.5391C69.5967 35.4297 69.4795 37.1094 69.2451 38.5781C69.0264 40.0469 68.6045 41.2891 67.9795 42.3047C67.3701 43.3203 66.4951 44.0938 65.3545 44.625C64.2139 45.1562 62.7295 45.4219 60.9014 45.4219ZM58.4404 24.2109H63.4561V19.7109C63.4561 18.5391 63.4014 17.5547 63.292 16.7578C63.1826 15.9453 62.9639 15.3359 62.6357 14.9297C62.3076 14.5234 61.8076 14.3203 61.1357 14.3203C60.3076 14.3203 59.6982 14.5625 59.3076 15.0469C58.9326 15.5312 58.6904 16.1953 58.5811 17.0391C58.4873 17.8672 58.4404 18.8125 58.4404 19.875V24.2109Z"/>
<path d="M74.8936 45V9.84375H81.1514V13.7578C81.5576 12.3984 82.2607 11.3359 83.2607 10.5703C84.2764 9.80469 85.5654 9.42188 87.1279 9.42188C87.1592 9.42188 87.1748 9.6875 87.1748 10.2188C87.1904 10.75 87.1982 11.3594 87.1982 12.0469C87.1982 12.7344 87.1982 13.3438 87.1982 13.875C87.1982 14.4062 87.1982 14.6719 87.1982 14.6719C86.4795 14.6719 85.6982 14.7578 84.8545 14.9297C84.0264 15.1016 83.2686 15.3672 82.5811 15.7266C81.9092 16.0703 81.4326 16.5312 81.1514 17.1094V45H74.8936Z"/>
<path d="M96.9717 45.3516C94.5654 45.3516 92.8936 44.4766 91.9561 42.7266C91.0342 40.9766 90.5576 38.6562 90.5264 35.7656V33.5156C90.5264 31.6406 90.792 30.1172 91.3232 28.9453C91.8701 27.7734 92.6436 26.8203 93.6436 26.0859C94.6436 25.3516 95.8389 24.7109 97.2295 24.1641C98.6201 23.6172 100.167 23.0312 101.87 22.4062V19.3359C101.87 18.1484 101.823 17.2031 101.729 16.5C101.636 15.7812 101.425 15.2578 101.097 14.9297C100.769 14.6016 100.261 14.4375 99.5732 14.4375C98.9014 14.4375 98.3857 14.6094 98.0264 14.9531C97.6826 15.2812 97.4482 15.7969 97.3232 16.5C97.1982 17.1875 97.1357 18.0703 97.1357 19.1484V20.7188H90.9951V19.6641C90.9951 18.0547 91.1279 16.6172 91.3936 15.3516C91.6748 14.0859 92.1436 13.0156 92.7998 12.1406C93.4561 11.25 94.3467 10.5781 95.4717 10.125C96.6123 9.65625 98.042 9.42188 99.7607 9.42188C101.276 9.42188 102.573 9.64062 103.651 10.0781C104.729 10.5 105.604 11.1406 106.276 12C106.948 12.8438 107.44 13.9062 107.753 15.1875C108.065 16.4688 108.222 17.9609 108.222 19.6641V45H101.964V41.5078C101.776 42.1797 101.456 42.8125 101.003 43.4062C100.55 43.9844 99.9795 44.4531 99.292 44.8125C98.6201 45.1719 97.8467 45.3516 96.9717 45.3516ZM99.1279 40.5703C99.9092 40.5703 100.534 40.2891 101.003 39.7266C101.472 39.1641 101.761 38.5938 101.87 38.0156V25.9219C100.933 26.3438 100.144 26.7422 99.5029 27.1172C98.8623 27.4766 98.3467 27.875 97.9561 28.3125C97.5654 28.75 97.2842 29.2656 97.1123 29.8594C96.9404 30.4531 96.8545 31.1797 96.8545 32.0391V35.9766C96.8545 37.5859 97.0186 38.7578 97.3467 39.4922C97.6904 40.2109 98.2842 40.5703 99.1279 40.5703Z"/>
<path d="M122.472 45.4219C120.675 45.4219 119.19 45.1484 118.019 44.6016C116.847 44.0391 115.925 43.2344 115.253 42.1875C114.597 41.1406 114.136 39.8672 113.87 38.3672C113.604 36.8672 113.472 35.1719 113.472 33.2812V21.8906C113.472 19.2969 113.714 17.0703 114.198 15.2109C114.683 13.3516 115.573 11.9219 116.87 10.9219C118.183 9.92188 120.073 9.42188 122.542 9.42188C124.058 9.42188 125.339 9.65625 126.386 10.125C127.433 10.5938 128.276 11.2734 128.917 12.1641C129.558 13.0391 130.019 14.1016 130.3 15.3516C130.597 16.6016 130.745 18.0078 130.745 19.5703V23.4375H124.745V19.3594C124.745 18.3438 124.698 17.4766 124.604 16.7578C124.511 16.0234 124.3 15.4688 123.972 15.0938C123.644 14.7031 123.12 14.5078 122.401 14.5078C121.698 14.5078 121.151 14.7031 120.761 15.0938C120.37 15.4844 120.097 16.0547 119.94 16.8047C119.8 17.5391 119.729 18.4219 119.729 19.4531V35.2969C119.729 36.3594 119.792 37.2656 119.917 38.0156C120.058 38.7656 120.308 39.3438 120.667 39.75C121.042 40.1406 121.589 40.3359 122.308 40.3359C123.011 40.3359 123.534 40.1328 123.878 39.7266C124.237 39.3047 124.472 38.7188 124.581 37.9688C124.69 37.2188 124.745 36.3359 124.745 35.3203V31.1484H130.745V34.7109C130.745 36.3203 130.604 37.7891 130.323 39.1172C130.042 40.4297 129.581 41.5547 128.94 42.4922C128.3 43.4297 127.448 44.1562 126.386 44.6719C125.323 45.1719 124.019 45.4219 122.472 45.4219Z"/>
<path d="M142.3 45.2344C140.8 45.2344 139.651 45.0469 138.854 44.6719C138.058 44.2812 137.511 43.6719 137.214 42.8438C136.917 42.0156 136.769 40.9453 136.769 39.6328V15.0703H133.909V10.5703H136.769V3.75H142.979V10.5703H146.401V15.0703H142.979V38.5547C142.979 39.1016 143.065 39.5156 143.237 39.7969C143.409 40.0781 143.745 40.2656 144.245 40.3594C144.761 40.4531 145.519 40.5 146.519 40.5V45.2344H142.3Z"/>
<path d="M151.019 45V9.84375H157.229V45H151.019ZM150.995 6.60938V1.21875H157.253V6.60938H150.995Z"/>
<path d="M171.831 45.4219C170.144 45.4219 168.729 45.1641 167.589 44.6484C166.448 44.1172 165.542 43.3594 164.87 42.375C164.214 41.375 163.737 40.1641 163.44 38.7422C163.159 37.3047 163.019 35.6719 163.019 33.8438V20.6953C163.019 18.4922 163.3 16.5469 163.862 14.8594C164.44 13.1562 165.378 11.8281 166.675 10.875C167.972 9.90625 169.69 9.42188 171.831 9.42188C173.456 9.42188 174.823 9.69531 175.933 10.2422C177.058 10.7891 177.956 11.5703 178.628 12.5859C179.315 13.5859 179.815 14.7734 180.128 16.1484C180.44 17.5234 180.597 19.0391 180.597 20.6953V33.8438C180.597 35.6406 180.456 37.25 180.175 38.6719C179.909 40.0938 179.44 41.3125 178.769 42.3281C178.112 43.3281 177.222 44.0938 176.097 44.625C174.972 45.1562 173.55 45.4219 171.831 45.4219ZM171.831 40.4062C172.534 40.4062 173.065 40.1953 173.425 39.7734C173.784 39.3359 174.026 38.7344 174.151 37.9688C174.276 37.2031 174.339 36.3203 174.339 35.3203V19.5938C174.339 18.5312 174.269 17.6172 174.128 16.8516C173.987 16.0859 173.737 15.4922 173.378 15.0703C173.019 14.6484 172.503 14.4375 171.831 14.4375C171.128 14.4375 170.589 14.6484 170.214 15.0703C169.854 15.4922 169.604 16.0859 169.464 16.8516C169.339 17.6172 169.276 18.5312 169.276 19.5938V35.3203C169.276 36.3203 169.339 37.2031 169.464 37.9688C169.604 38.7344 169.854 39.3359 170.214 39.7734C170.589 40.1953 171.128 40.4062 171.831 40.4062Z"/>
<path d="M186.245 45V9.84375H192.456V13.875C192.769 12.6719 193.425 11.6328 194.425 10.7578C195.425 9.86719 196.651 9.42188 198.104 9.42188C200.136 9.42188 201.659 10.1016 202.675 11.4609C203.69 12.8047 204.198 14.7578 204.198 17.3203V45H197.987V17.6953C197.987 16.6797 197.753 15.8828 197.284 15.3047C196.831 14.7266 196.206 14.4375 195.409 14.4375C194.769 14.4375 194.222 14.6172 193.769 14.9766C193.331 15.3203 193.003 15.8047 192.784 16.4297C192.565 17.0391 192.456 17.7578 192.456 18.5859V45H186.245Z"/>
<path d="M218.8 45V3.75H228.058C230.151 3.75 231.831 4.17188 233.097 5.01562C234.362 5.84375 235.276 7.04688 235.839 8.625C236.417 10.2031 236.706 12.1094 236.706 14.3438L236.729 32.9531C236.729 35.6562 236.433 37.9062 235.839 39.7031C235.261 41.4844 234.323 42.8125 233.026 43.6875C231.729 44.5625 230.003 45 227.847 45H218.8ZM225.081 40.125H227.144C227.878 40.125 228.487 39.9766 228.972 39.6797C229.472 39.3828 229.839 38.8594 230.073 38.1094C230.323 37.3438 230.448 36.2656 230.448 34.875L230.425 14.5078C230.425 12.3984 230.167 10.8828 229.651 9.96094C229.136 9.03906 228.229 8.57812 226.933 8.57812H225.081V40.125Z"/>
<path d="M250.604 45.4219C248.839 45.4219 247.386 45.1406 246.245 44.5781C245.12 44.0156 244.237 43.2031 243.597 42.1406C242.972 41.0781 242.534 39.8047 242.284 38.3203C242.034 36.8203 241.909 35.1484 241.909 33.3047V20.2031C241.909 18.5625 242.073 17.0781 242.401 15.75C242.745 14.4219 243.269 13.2891 243.972 12.3516C244.69 11.4141 245.62 10.6953 246.761 10.1953C247.901 9.67969 249.276 9.42188 250.886 9.42188C252.526 9.42188 253.894 9.67188 254.987 10.1719C256.081 10.6719 256.94 11.3984 257.565 12.3516C258.206 13.3047 258.659 14.4531 258.925 15.7969C259.206 17.125 259.347 18.6328 259.347 20.3203V27.8438H248.167V34.7578C248.167 36.4609 248.3 37.8281 248.565 38.8594C248.831 39.8906 249.558 40.4062 250.745 40.4062C251.542 40.4062 252.104 40.1641 252.433 39.6797C252.776 39.1953 252.979 38.5312 253.042 37.6875C253.12 36.8281 253.159 35.8516 253.159 34.7578V31.6641H259.3V33.5391C259.3 35.4297 259.183 37.1094 258.948 38.5781C258.729 40.0469 258.308 41.2891 257.683 42.3047C257.073 43.3203 256.198 44.0938 255.058 44.625C253.917 45.1562 252.433 45.4219 250.604 45.4219ZM248.144 24.2109H253.159V19.7109C253.159 18.5391 253.104 17.5547 252.995 16.7578C252.886 15.9453 252.667 15.3359 252.339 14.9297C252.011 14.5234 251.511 14.3203 250.839 14.3203C250.011 14.3203 249.401 14.5625 249.011 15.0469C248.636 15.5312 248.394 16.1953 248.284 17.0391C248.19 17.8672 248.144 18.8125 248.144 19.875V24.2109Z"/>
<path d="M271.862 45.4453C269.034 45.4453 266.933 44.6406 265.558 43.0312C264.183 41.4219 263.495 38.7891 263.495 35.1328V32.8594H269.331V35.6953C269.331 37.2266 269.519 38.3906 269.894 39.1875C270.269 39.9844 270.878 40.3828 271.722 40.3828C272.534 40.3828 273.136 40.1094 273.526 39.5625C273.917 39.0156 274.112 38.0703 274.112 36.7266C274.112 35.9453 273.995 35.1875 273.761 34.4531C273.542 33.7188 273.19 33 272.706 32.2969C272.237 31.5781 271.628 30.8828 270.878 30.2109L267.714 27.3516C266.261 26.0391 265.175 24.625 264.456 23.1094C263.737 21.5781 263.378 19.8906 263.378 18.0469C263.378 15.0625 264.073 12.8828 265.464 11.5078C266.87 10.1172 268.948 9.42188 271.698 9.42188C273.479 9.42188 274.956 9.75781 276.128 10.4297C277.3 11.0859 278.175 12.1562 278.753 13.6406C279.331 15.125 279.62 17.1172 279.62 19.6172V21.5391H274.065V19.2188C274.065 17.6719 273.886 16.5 273.526 15.7031C273.183 14.9062 272.589 14.5078 271.745 14.5078C270.917 14.5078 270.308 14.7422 269.917 15.2109C269.526 15.6641 269.315 16.4688 269.284 17.625C269.269 18.25 269.347 18.8672 269.519 19.4766C269.69 20.0703 269.956 20.6562 270.315 21.2344C270.69 21.7969 271.175 22.3516 271.769 22.8984L275.097 25.9219C276.847 27.5 278.136 29.1484 278.964 30.8672C279.808 32.5859 280.229 34.4453 280.229 36.4453C280.229 39.3984 279.558 41.6406 278.214 43.1719C276.87 44.6875 274.753 45.4453 271.862 45.4453Z"/>
<path d="M284.894 45V9.84375H291.104V45H284.894ZM284.87 6.60938V1.21875H291.128V6.60938H284.87Z"/>
<path d="M305.308 50.2734C303.37 50.3047 301.722 50.1172 300.362 49.7109C299.003 49.3203 297.769 48.6719 296.659 47.7656L298.839 43.8516C299.667 44.3828 300.565 44.8125 301.534 45.1406C302.519 45.4844 303.581 45.6484 304.722 45.6328C305.909 45.6172 306.815 45.2031 307.44 44.3906C308.065 43.5781 308.378 42.4922 308.378 41.1328V38.3438C307.972 39.5156 307.347 40.3203 306.503 40.7578C305.675 41.1953 304.667 41.4141 303.479 41.4141C301.823 41.4141 300.519 40.9766 299.565 40.1016C298.628 39.2266 297.964 38.0312 297.573 36.5156C297.183 35 296.987 33.2812 296.987 31.3594V20.0391C296.987 17.9922 297.19 16.1719 297.597 14.5781C298.003 12.9688 298.698 11.7031 299.683 10.7812C300.667 9.85938 302.019 9.40625 303.737 9.42188C304.94 9.42188 305.933 9.72656 306.714 10.3359C307.511 10.9453 308.065 11.8203 308.378 12.9609V9.84375H314.589V40.6641C314.589 42.0547 314.433 43.3359 314.12 44.5078C313.808 45.6641 313.292 46.6641 312.573 47.5078C311.854 48.3672 310.901 49.0312 309.714 49.5C308.526 49.9844 307.058 50.2422 305.308 50.2734ZM305.94 36.7031C306.503 36.7031 306.964 36.5391 307.323 36.2109C307.683 35.8672 307.948 35.2891 308.12 34.4766C308.292 33.6484 308.378 32.5 308.378 31.0312V19.5234C308.378 17.9766 308.19 16.7422 307.815 15.8203C307.44 14.8984 306.761 14.4375 305.776 14.4375C305.026 14.4375 304.472 14.6562 304.112 15.0938C303.753 15.5312 303.519 16.1328 303.409 16.8984C303.3 17.6484 303.245 18.5156 303.245 19.5V31.0781C303.245 32.8125 303.409 34.1875 303.737 35.2031C304.065 36.2031 304.8 36.7031 305.94 36.7031Z"/>
<path d="M320.589 45V9.84375H326.8V13.875C327.112 12.6719 327.769 11.6328 328.769 10.7578C329.769 9.86719 330.995 9.42188 332.448 9.42188C334.479 9.42188 336.003 10.1016 337.019 11.4609C338.034 12.8047 338.542 14.7578 338.542 17.3203V45H332.331V17.6953C332.331 16.6797 332.097 15.8828 331.628 15.3047C331.175 14.7266 330.55 14.4375 329.753 14.4375C329.112 14.4375 328.565 14.6172 328.112 14.9766C327.675 15.3203 327.347 15.8047 327.128 16.4297C326.909 17.0391 326.8 17.7578 326.8 18.5859V45H320.589Z"/>
<path d="M353.144 45V3.75H363.526C365.683 3.75 367.292 4.17188 368.354 5.01562C369.417 5.85938 370.112 7.09375 370.44 8.71875C370.784 10.3438 370.956 12.3281 370.956 14.6719C370.956 17.0938 370.706 19 370.206 20.3906C369.722 21.7656 368.722 22.6875 367.206 23.1562C367.925 23.2812 368.526 23.5781 369.011 24.0469C369.495 24.5 369.886 25.1719 370.183 26.0625C370.479 26.9375 370.69 28.0703 370.815 29.4609C370.956 30.8359 371.026 32.5234 371.026 34.5234C371.026 34.6797 371.026 35.1172 371.026 35.8359C371.026 36.5547 371.026 37.4062 371.026 38.3906C371.042 39.3594 371.058 40.3281 371.073 41.2969C371.089 42.2656 371.112 43.0938 371.144 43.7812C371.175 44.4688 371.214 44.875 371.261 45H364.979C364.933 44.9219 364.894 44.5234 364.862 43.8047C364.847 43.0703 364.823 42.1406 364.792 41.0156C364.776 39.8906 364.761 38.6797 364.745 37.3828C364.745 36.0859 364.745 34.8125 364.745 33.5625C364.745 32.2969 364.745 31.1797 364.745 30.2109C364.745 28.9766 364.651 28.0469 364.464 27.4219C364.292 26.7812 363.964 26.3359 363.479 26.0859C363.011 25.8359 362.331 25.6875 361.44 25.6406L359.425 25.5234V45H353.144ZM359.448 20.6484H361.956C362.722 20.6484 363.3 20.4766 363.69 20.1328C364.097 19.7891 364.37 19.1562 364.511 18.2344C364.667 17.3125 364.745 15.9844 364.745 14.25V13.9922C364.745 12.5391 364.675 11.4219 364.534 10.6406C364.394 9.85938 364.097 9.32031 363.644 9.02344C363.206 8.72656 362.519 8.57812 361.581 8.57812H359.448V20.6484Z"/>
<path d="M384.573 45.4219C382.808 45.4219 381.354 45.1406 380.214 44.5781C379.089 44.0156 378.206 43.2031 377.565 42.1406C376.94 41.0781 376.503 39.8047 376.253 38.3203C376.003 36.8203 375.878 35.1484 375.878 33.3047V20.2031C375.878 18.5625 376.042 17.0781 376.37 15.75C376.714 14.4219 377.237 13.2891 377.94 12.3516C378.659 11.4141 379.589 10.6953 380.729 10.1953C381.87 9.67969 383.245 9.42188 384.854 9.42188C386.495 9.42188 387.862 9.67188 388.956 10.1719C390.05 10.6719 390.909 11.3984 391.534 12.3516C392.175 13.3047 392.628 14.4531 392.894 15.7969C393.175 17.125 393.315 18.6328 393.315 20.3203V27.8438H382.136V34.7578C382.136 36.4609 382.269 37.8281 382.534 38.8594C382.8 39.8906 383.526 40.4062 384.714 40.4062C385.511 40.4062 386.073 40.1641 386.401 39.6797C386.745 39.1953 386.948 38.5312 387.011 37.6875C387.089 36.8281 387.128 35.8516 387.128 34.7578V31.6641H393.269V33.5391C393.269 35.4297 393.151 37.1094 392.917 38.5781C392.698 40.0469 392.276 41.2891 391.651 42.3047C391.042 43.3203 390.167 44.0938 389.026 44.625C387.886 45.1562 386.401 45.4219 384.573 45.4219ZM382.112 24.2109H387.128V19.7109C387.128 18.5391 387.073 17.5547 386.964 16.7578C386.854 15.9453 386.636 15.3359 386.308 14.9297C385.979 14.5234 385.479 14.3203 384.808 14.3203C383.979 14.3203 383.37 14.5625 382.979 15.0469C382.604 15.5312 382.362 16.1953 382.253 17.0391C382.159 17.8672 382.112 18.8125 382.112 19.875V24.2109Z"/>
<path d="M405.831 45.4453C403.003 45.4453 400.901 44.6406 399.526 43.0312C398.151 41.4219 397.464 38.7891 397.464 35.1328V32.8594H403.3V35.6953C403.3 37.2266 403.487 38.3906 403.862 39.1875C404.237 39.9844 404.847 40.3828 405.69 40.3828C406.503 40.3828 407.104 40.1094 407.495 39.5625C407.886 39.0156 408.081 38.0703 408.081 36.7266C408.081 35.9453 407.964 35.1875 407.729 34.4531C407.511 33.7188 407.159 33 406.675 32.2969C406.206 31.5781 405.597 30.8828 404.847 30.2109L401.683 27.3516C400.229 26.0391 399.144 24.625 398.425 23.1094C397.706 21.5781 397.347 19.8906 397.347 18.0469C397.347 15.0625 398.042 12.8828 399.433 11.5078C400.839 10.1172 402.917 9.42188 405.667 9.42188C407.448 9.42188 408.925 9.75781 410.097 10.4297C411.269 11.0859 412.144 12.1562 412.722 13.6406C413.3 15.125 413.589 17.1172 413.589 19.6172V21.5391H408.034V19.2188C408.034 17.6719 407.854 16.5 407.495 15.7031C407.151 14.9062 406.558 14.5078 405.714 14.5078C404.886 14.5078 404.276 14.7422 403.886 15.2109C403.495 15.6641 403.284 16.4688 403.253 17.625C403.237 18.25 403.315 18.8672 403.487 19.4766C403.659 20.0703 403.925 20.6562 404.284 21.2344C404.659 21.7969 405.144 22.3516 405.737 22.8984L409.065 25.9219C410.815 27.5 412.104 29.1484 412.933 30.8672C413.776 32.5859 414.198 34.4453 414.198 36.4453C414.198 39.3984 413.526 41.6406 412.183 43.1719C410.839 44.6875 408.722 45.4453 405.831 45.4453Z"/>
<path d="M427.065 45.4219C425.378 45.4219 423.964 45.1641 422.823 44.6484C421.683 44.1172 420.776 43.3594 420.104 42.375C419.448 41.375 418.972 40.1641 418.675 38.7422C418.394 37.3047 418.253 35.6719 418.253 33.8438V20.6953C418.253 18.4922 418.534 16.5469 419.097 14.8594C419.675 13.1562 420.612 11.8281 421.909 10.875C423.206 9.90625 424.925 9.42188 427.065 9.42188C428.69 9.42188 430.058 9.69531 431.167 10.2422C432.292 10.7891 433.19 11.5703 433.862 12.5859C434.55 13.5859 435.05 14.7734 435.362 16.1484C435.675 17.5234 435.831 19.0391 435.831 20.6953V33.8438C435.831 35.6406 435.69 37.25 435.409 38.6719C435.144 40.0938 434.675 41.3125 434.003 42.3281C433.347 43.3281 432.456 44.0938 431.331 44.625C430.206 45.1562 428.784 45.4219 427.065 45.4219ZM427.065 40.4062C427.769 40.4062 428.3 40.1953 428.659 39.7734C429.019 39.3359 429.261 38.7344 429.386 37.9688C429.511 37.2031 429.573 36.3203 429.573 35.3203V19.5938C429.573 18.5312 429.503 17.6172 429.362 16.8516C429.222 16.0859 428.972 15.4922 428.612 15.0703C428.253 14.6484 427.737 14.4375 427.065 14.4375C426.362 14.4375 425.823 14.6484 425.448 15.0703C425.089 15.4922 424.839 16.0859 424.698 16.8516C424.573 17.6172 424.511 18.5312 424.511 19.5938V35.3203C424.511 36.3203 424.573 37.2031 424.698 37.9688C424.839 38.7344 425.089 39.3359 425.448 39.7734C425.823 40.1953 426.362 40.4062 427.065 40.4062Z"/>
<path d="M447.526 45.4453C446.136 45.4453 444.972 45.1328 444.034 44.5078C443.112 43.8828 442.417 42.9531 441.948 41.7188C441.495 40.4688 441.269 38.9062 441.269 37.0312V9.84375H447.503V36.0703C447.503 37.4141 447.667 38.4609 447.995 39.2109C448.323 39.9609 449.011 40.3359 450.058 40.3359C451.151 40.3359 451.894 39.9141 452.284 39.0703C452.69 38.2109 452.894 37.2266 452.894 36.1172L452.917 9.84375H459.104V45H452.894V41.3438C452.456 42.5312 451.823 43.5156 450.995 44.2969C450.167 45.0625 449.011 45.4453 447.526 45.4453Z"/>
<path d="M465.175 45V9.84375H471.433V13.7578C471.839 12.3984 472.542 11.3359 473.542 10.5703C474.558 9.80469 475.847 9.42188 477.409 9.42188C477.44 9.42188 477.456 9.6875 477.456 10.2188C477.472 10.75 477.479 11.3594 477.479 12.0469C477.479 12.7344 477.479 13.3438 477.479 13.875C477.479 14.4062 477.479 14.6719 477.479 14.6719C476.761 14.6719 475.979 14.7578 475.136 14.9297C474.308 15.1016 473.55 15.3672 472.862 15.7266C472.19 16.0703 471.714 16.5312 471.433 17.1094V45H465.175Z"/>
<path d="M490.019 45.4219C488.222 45.4219 486.737 45.1484 485.565 44.6016C484.394 44.0391 483.472 43.2344 482.8 42.1875C482.144 41.1406 481.683 39.8672 481.417 38.3672C481.151 36.8672 481.019 35.1719 481.019 33.2812V21.8906C481.019 19.2969 481.261 17.0703 481.745 15.2109C482.229 13.3516 483.12 11.9219 484.417 10.9219C485.729 9.92188 487.62 9.42188 490.089 9.42188C491.604 9.42188 492.886 9.65625 493.933 10.125C494.979 10.5938 495.823 11.2734 496.464 12.1641C497.104 13.0391 497.565 14.1016 497.847 15.3516C498.144 16.6016 498.292 18.0078 498.292 19.5703V23.4375H492.292V19.3594C492.292 18.3438 492.245 17.4766 492.151 16.7578C492.058 16.0234 491.847 15.4688 491.519 15.0938C491.19 14.7031 490.667 14.5078 489.948 14.5078C489.245 14.5078 488.698 14.7031 488.308 15.0938C487.917 15.4844 487.644 16.0547 487.487 16.8047C487.347 17.5391 487.276 18.4219 487.276 19.4531V35.2969C487.276 36.3594 487.339 37.2656 487.464 38.0156C487.604 38.7656 487.854 39.3438 488.214 39.75C488.589 40.1406 489.136 40.3359 489.854 40.3359C490.558 40.3359 491.081 40.1328 491.425 39.7266C491.784 39.3047 492.019 38.7188 492.128 37.9688C492.237 37.2188 492.292 36.3359 492.292 35.3203V31.1484H498.292V34.7109C498.292 36.3203 498.151 37.7891 497.87 39.1172C497.589 40.4297 497.128 41.5547 496.487 42.4922C495.847 43.4297 494.995 44.1562 493.933 44.6719C492.87 45.1719 491.565 45.4219 490.019 45.4219Z"/>
<path d="M511.698 45.4219C509.933 45.4219 508.479 45.1406 507.339 44.5781C506.214 44.0156 505.331 43.2031 504.69 42.1406C504.065 41.0781 503.628 39.8047 503.378 38.3203C503.128 36.8203 503.003 35.1484 503.003 33.3047V20.2031C503.003 18.5625 503.167 17.0781 503.495 15.75C503.839 14.4219 504.362 13.2891 505.065 12.3516C505.784 11.4141 506.714 10.6953 507.854 10.1953C508.995 9.67969 510.37 9.42188 511.979 9.42188C513.62 9.42188 514.987 9.67188 516.081 10.1719C517.175 10.6719 518.034 11.3984 518.659 12.3516C519.3 13.3047 519.753 14.4531 520.019 15.7969C520.3 17.125 520.44 18.6328 520.44 20.3203V27.8438H509.261V34.7578C509.261 36.4609 509.394 37.8281 509.659 38.8594C509.925 39.8906 510.651 40.4062 511.839 40.4062C512.636 40.4062 513.198 40.1641 513.526 39.6797C513.87 39.1953 514.073 38.5312 514.136 37.6875C514.214 36.8281 514.253 35.8516 514.253 34.7578V31.6641H520.394V33.5391C520.394 35.4297 520.276 37.1094 520.042 38.5781C519.823 40.0469 519.401 41.2891 518.776 42.3047C518.167 43.3203 517.292 44.0938 516.151 44.625C515.011 45.1562 513.526 45.4219 511.698 45.4219ZM509.237 24.2109H514.253V19.7109C514.253 18.5391 514.198 17.5547 514.089 16.7578C513.979 15.9453 513.761 15.3359 513.433 14.9297C513.104 14.5234 512.604 14.3203 511.933 14.3203C511.104 14.3203 510.495 14.5625 510.104 15.0469C509.729 15.5312 509.487 16.1953 509.378 17.0391C509.284 17.8672 509.237 18.8125 509.237 19.875V24.2109Z"/>
<path d="M532.956 45.4453C530.128 45.4453 528.026 44.6406 526.651 43.0312C525.276 41.4219 524.589 38.7891 524.589 35.1328V32.8594H530.425V35.6953C530.425 37.2266 530.612 38.3906 530.987 39.1875C531.362 39.9844 531.972 40.3828 532.815 40.3828C533.628 40.3828 534.229 40.1094 534.62 39.5625C535.011 39.0156 535.206 38.0703 535.206 36.7266C535.206 35.9453 535.089 35.1875 534.854 34.4531C534.636 33.7188 534.284 33 533.8 32.2969C533.331 31.5781 532.722 30.8828 531.972 30.2109L528.808 27.3516C527.354 26.0391 526.269 24.625 525.55 23.1094C524.831 21.5781 524.472 19.8906 524.472 18.0469C524.472 15.0625 525.167 12.8828 526.558 11.5078C527.964 10.1172 530.042 9.42188 532.792 9.42188C534.573 9.42188 536.05 9.75781 537.222 10.4297C538.394 11.0859 539.269 12.1562 539.847 13.6406C540.425 15.125 540.714 17.1172 540.714 19.6172V21.5391H535.159V19.2188C535.159 17.6719 534.979 16.5 534.62 15.7031C534.276 14.9062 533.683 14.5078 532.839 14.5078C532.011 14.5078 531.401 14.7422 531.011 15.2109C530.62 15.6641 530.409 16.4688 530.378 17.625C530.362 18.25 530.44 18.8672 530.612 19.4766C530.784 20.0703 531.05 20.6562 531.409 21.2344C531.784 21.7969 532.269 22.3516 532.862 22.8984L536.19 25.9219C537.94 27.5 539.229 29.1484 540.058 30.8672C540.901 32.5859 541.323 34.4453 541.323 36.4453C541.323 39.3984 540.651 41.6406 539.308 43.1719C537.964 44.6875 535.847 45.4453 532.956 45.4453Z"/>
</mask>
<g filter="url(#filter0_ii_127_2790)">
<path d="M1.25293 45V3.75H7.53418V45H1.25293Z" fill="#D1DADB"/>
<path d="M13.8389 45V9.84375H20.0498V13.875C20.3623 12.6719 21.0186 11.6328 22.0186 10.7578C23.0186 9.86719 24.2451 9.42188 25.6982 9.42188C27.7295 9.42188 29.2529 10.1016 30.2686 11.4609C31.2842 12.8047 31.792 14.7578 31.792 17.3203V45H25.5811V17.6953C25.5811 16.6797 25.3467 15.8828 24.8779 15.3047C24.4248 14.7266 23.7998 14.4375 23.0029 14.4375C22.3623 14.4375 21.8154 14.6172 21.3623 14.9766C20.9248 15.3203 20.5967 15.8047 20.3779 16.4297C20.1592 17.0391 20.0498 17.7578 20.0498 18.5859V45H13.8389Z" fill="#D1DADB"/>
<path d="M44.0967 45.2344C42.5967 45.2344 41.4482 45.0469 40.6514 44.6719C39.8545 44.2812 39.3076 43.6719 39.0107 42.8438C38.7139 42.0156 38.5654 40.9453 38.5654 39.6328V15.0703H35.7061V10.5703H38.5654V3.75H44.7764V10.5703H48.1982V15.0703H44.7764V38.5547C44.7764 39.1016 44.8623 39.5156 45.0342 39.7969C45.2061 40.0781 45.542 40.2656 46.042 40.3594C46.5576 40.4531 47.3154 40.5 48.3154 40.5V45.2344H44.0967Z" fill="#D1DADB"/>
<path d="M60.9014 45.4219C59.1357 45.4219 57.6826 45.1406 56.542 44.5781C55.417 44.0156 54.5342 43.2031 53.8936 42.1406C53.2686 41.0781 52.8311 39.8047 52.5811 38.3203C52.3311 36.8203 52.2061 35.1484 52.2061 33.3047V20.2031C52.2061 18.5625 52.3701 17.0781 52.6982 15.75C53.042 14.4219 53.5654 13.2891 54.2686 12.3516C54.9873 11.4141 55.917 10.6953 57.0576 10.1953C58.1982 9.67969 59.5732 9.42188 61.1826 9.42188C62.8232 9.42188 64.1904 9.67188 65.2842 10.1719C66.3779 10.6719 67.2373 11.3984 67.8623 12.3516C68.5029 13.3047 68.9561 14.4531 69.2217 15.7969C69.5029 17.125 69.6436 18.6328 69.6436 20.3203V27.8438H58.4639V34.7578C58.4639 36.4609 58.5967 37.8281 58.8623 38.8594C59.1279 39.8906 59.8545 40.4062 61.042 40.4062C61.8389 40.4062 62.4014 40.1641 62.7295 39.6797C63.0732 39.1953 63.2764 38.5312 63.3389 37.6875C63.417 36.8281 63.4561 35.8516 63.4561 34.7578V31.6641H69.5967V33.5391C69.5967 35.4297 69.4795 37.1094 69.2451 38.5781C69.0264 40.0469 68.6045 41.2891 67.9795 42.3047C67.3701 43.3203 66.4951 44.0938 65.3545 44.625C64.2139 45.1562 62.7295 45.4219 60.9014 45.4219ZM58.4404 24.2109H63.4561V19.7109C63.4561 18.5391 63.4014 17.5547 63.292 16.7578C63.1826 15.9453 62.9639 15.3359 62.6357 14.9297C62.3076 14.5234 61.8076 14.3203 61.1357 14.3203C60.3076 14.3203 59.6982 14.5625 59.3076 15.0469C58.9326 15.5312 58.6904 16.1953 58.5811 17.0391C58.4873 17.8672 58.4404 18.8125 58.4404 19.875V24.2109Z" fill="#D1DADB"/>
<path d="M74.8936 45V9.84375H81.1514V13.7578C81.5576 12.3984 82.2607 11.3359 83.2607 10.5703C84.2764 9.80469 85.5654 9.42188 87.1279 9.42188C87.1592 9.42188 87.1748 9.6875 87.1748 10.2188C87.1904 10.75 87.1982 11.3594 87.1982 12.0469C87.1982 12.7344 87.1982 13.3438 87.1982 13.875C87.1982 14.4062 87.1982 14.6719 87.1982 14.6719C86.4795 14.6719 85.6982 14.7578 84.8545 14.9297C84.0264 15.1016 83.2686 15.3672 82.5811 15.7266C81.9092 16.0703 81.4326 16.5312 81.1514 17.1094V45H74.8936Z" fill="#D1DADB"/>
<path d="M96.9717 45.3516C94.5654 45.3516 92.8936 44.4766 91.9561 42.7266C91.0342 40.9766 90.5576 38.6562 90.5264 35.7656V33.5156C90.5264 31.6406 90.792 30.1172 91.3232 28.9453C91.8701 27.7734 92.6436 26.8203 93.6436 26.0859C94.6436 25.3516 95.8389 24.7109 97.2295 24.1641C98.6201 23.6172 100.167 23.0312 101.87 22.4062V19.3359C101.87 18.1484 101.823 17.2031 101.729 16.5C101.636 15.7812 101.425 15.2578 101.097 14.9297C100.769 14.6016 100.261 14.4375 99.5732 14.4375C98.9014 14.4375 98.3857 14.6094 98.0264 14.9531C97.6826 15.2812 97.4482 15.7969 97.3232 16.5C97.1982 17.1875 97.1357 18.0703 97.1357 19.1484V20.7188H90.9951V19.6641C90.9951 18.0547 91.1279 16.6172 91.3936 15.3516C91.6748 14.0859 92.1436 13.0156 92.7998 12.1406C93.4561 11.25 94.3467 10.5781 95.4717 10.125C96.6123 9.65625 98.042 9.42188 99.7607 9.42188C101.276 9.42188 102.573 9.64062 103.651 10.0781C104.729 10.5 105.604 11.1406 106.276 12C106.948 12.8438 107.44 13.9062 107.753 15.1875C108.065 16.4688 108.222 17.9609 108.222 19.6641V45H101.964V41.5078C101.776 42.1797 101.456 42.8125 101.003 43.4062C100.55 43.9844 99.9795 44.4531 99.292 44.8125C98.6201 45.1719 97.8467 45.3516 96.9717 45.3516ZM99.1279 40.5703C99.9092 40.5703 100.534 40.2891 101.003 39.7266C101.472 39.1641 101.761 38.5938 101.87 38.0156V25.9219C100.933 26.3438 100.144 26.7422 99.5029 27.1172C98.8623 27.4766 98.3467 27.875 97.9561 28.3125C97.5654 28.75 97.2842 29.2656 97.1123 29.8594C96.9404 30.4531 96.8545 31.1797 96.8545 32.0391V35.9766C96.8545 37.5859 97.0186 38.7578 97.3467 39.4922C97.6904 40.2109 98.2842 40.5703 99.1279 40.5703Z" fill="#D1DADB"/>
<path d="M122.472 45.4219C120.675 45.4219 119.19 45.1484 118.019 44.6016C116.847 44.0391 115.925 43.2344 115.253 42.1875C114.597 41.1406 114.136 39.8672 113.87 38.3672C113.604 36.8672 113.472 35.1719 113.472 33.2812V21.8906C113.472 19.2969 113.714 17.0703 114.198 15.2109C114.683 13.3516 115.573 11.9219 116.87 10.9219C118.183 9.92188 120.073 9.42188 122.542 9.42188C124.058 9.42188 125.339 9.65625 126.386 10.125C127.433 10.5938 128.276 11.2734 128.917 12.1641C129.558 13.0391 130.019 14.1016 130.3 15.3516C130.597 16.6016 130.745 18.0078 130.745 19.5703V23.4375H124.745V19.3594C124.745 18.3438 124.698 17.4766 124.604 16.7578C124.511 16.0234 124.3 15.4688 123.972 15.0938C123.644 14.7031 123.12 14.5078 122.401 14.5078C121.698 14.5078 121.151 14.7031 120.761 15.0938C120.37 15.4844 120.097 16.0547 119.94 16.8047C119.8 17.5391 119.729 18.4219 119.729 19.4531V35.2969C119.729 36.3594 119.792 37.2656 119.917 38.0156C120.058 38.7656 120.308 39.3438 120.667 39.75C121.042 40.1406 121.589 40.3359 122.308 40.3359C123.011 40.3359 123.534 40.1328 123.878 39.7266C124.237 39.3047 124.472 38.7188 124.581 37.9688C124.69 37.2188 124.745 36.3359 124.745 35.3203V31.1484H130.745V34.7109C130.745 36.3203 130.604 37.7891 130.323 39.1172C130.042 40.4297 129.581 41.5547 128.94 42.4922C128.3 43.4297 127.448 44.1562 126.386 44.6719C125.323 45.1719 124.019 45.4219 122.472 45.4219Z" fill="#D1DADB"/>
<path d="M142.3 45.2344C140.8 45.2344 139.651 45.0469 138.854 44.6719C138.058 44.2812 137.511 43.6719 137.214 42.8438C136.917 42.0156 136.769 40.9453 136.769 39.6328V15.0703H133.909V10.5703H136.769V3.75H142.979V10.5703H146.401V15.0703H142.979V38.5547C142.979 39.1016 143.065 39.5156 143.237 39.7969C143.409 40.0781 143.745 40.2656 144.245 40.3594C144.761 40.4531 145.519 40.5 146.519 40.5V45.2344H142.3Z" fill="#D1DADB"/>
<path d="M151.019 45V9.84375H157.229V45H151.019ZM150.995 6.60938V1.21875H157.253V6.60938H150.995Z" fill="#D1DADB"/>
<path d="M171.831 45.4219C170.144 45.4219 168.729 45.1641 167.589 44.6484C166.448 44.1172 165.542 43.3594 164.87 42.375C164.214 41.375 163.737 40.1641 163.44 38.7422C163.159 37.3047 163.019 35.6719 163.019 33.8438V20.6953C163.019 18.4922 163.3 16.5469 163.862 14.8594C164.44 13.1562 165.378 11.8281 166.675 10.875C167.972 9.90625 169.69 9.42188 171.831 9.42188C173.456 9.42188 174.823 9.69531 175.933 10.2422C177.058 10.7891 177.956 11.5703 178.628 12.5859C179.315 13.5859 179.815 14.7734 180.128 16.1484C180.44 17.5234 180.597 19.0391 180.597 20.6953V33.8438C180.597 35.6406 180.456 37.25 180.175 38.6719C179.909 40.0938 179.44 41.3125 178.769 42.3281C178.112 43.3281 177.222 44.0938 176.097 44.625C174.972 45.1562 173.55 45.4219 171.831 45.4219ZM171.831 40.4062C172.534 40.4062 173.065 40.1953 173.425 39.7734C173.784 39.3359 174.026 38.7344 174.151 37.9688C174.276 37.2031 174.339 36.3203 174.339 35.3203V19.5938C174.339 18.5312 174.269 17.6172 174.128 16.8516C173.987 16.0859 173.737 15.4922 173.378 15.0703C173.019 14.6484 172.503 14.4375 171.831 14.4375C171.128 14.4375 170.589 14.6484 170.214 15.0703C169.854 15.4922 169.604 16.0859 169.464 16.8516C169.339 17.6172 169.276 18.5312 169.276 19.5938V35.3203C169.276 36.3203 169.339 37.2031 169.464 37.9688C169.604 38.7344 169.854 39.3359 170.214 39.7734C170.589 40.1953 171.128 40.4062 171.831 40.4062Z" fill="#D1DADB"/>
<path d="M186.245 45V9.84375H192.456V13.875C192.769 12.6719 193.425 11.6328 194.425 10.7578C195.425 9.86719 196.651 9.42188 198.104 9.42188C200.136 9.42188 201.659 10.1016 202.675 11.4609C203.69 12.8047 204.198 14.7578 204.198 17.3203V45H197.987V17.6953C197.987 16.6797 197.753 15.8828 197.284 15.3047C196.831 14.7266 196.206 14.4375 195.409 14.4375C194.769 14.4375 194.222 14.6172 193.769 14.9766C193.331 15.3203 193.003 15.8047 192.784 16.4297C192.565 17.0391 192.456 17.7578 192.456 18.5859V45H186.245Z" fill="#D1DADB"/>
<path d="M218.8 45V3.75H228.058C230.151 3.75 231.831 4.17188 233.097 5.01562C234.362 5.84375 235.276 7.04688 235.839 8.625C236.417 10.2031 236.706 12.1094 236.706 14.3438L236.729 32.9531C236.729 35.6562 236.433 37.9062 235.839 39.7031C235.261 41.4844 234.323 42.8125 233.026 43.6875C231.729 44.5625 230.003 45 227.847 45H218.8ZM225.081 40.125H227.144C227.878 40.125 228.487 39.9766 228.972 39.6797C229.472 39.3828 229.839 38.8594 230.073 38.1094C230.323 37.3438 230.448 36.2656 230.448 34.875L230.425 14.5078C230.425 12.3984 230.167 10.8828 229.651 9.96094C229.136 9.03906 228.229 8.57812 226.933 8.57812H225.081V40.125Z" fill="#D1DADB"/>
<path d="M250.604 45.4219C248.839 45.4219 247.386 45.1406 246.245 44.5781C245.12 44.0156 244.237 43.2031 243.597 42.1406C242.972 41.0781 242.534 39.8047 242.284 38.3203C242.034 36.8203 241.909 35.1484 241.909 33.3047V20.2031C241.909 18.5625 242.073 17.0781 242.401 15.75C242.745 14.4219 243.269 13.2891 243.972 12.3516C244.69 11.4141 245.62 10.6953 246.761 10.1953C247.901 9.67969 249.276 9.42188 250.886 9.42188C252.526 9.42188 253.894 9.67188 254.987 10.1719C256.081 10.6719 256.94 11.3984 257.565 12.3516C258.206 13.3047 258.659 14.4531 258.925 15.7969C259.206 17.125 259.347 18.6328 259.347 20.3203V27.8438H248.167V34.7578C248.167 36.4609 248.3 37.8281 248.565 38.8594C248.831 39.8906 249.558 40.4062 250.745 40.4062C251.542 40.4062 252.104 40.1641 252.433 39.6797C252.776 39.1953 252.979 38.5312 253.042 37.6875C253.12 36.8281 253.159 35.8516 253.159 34.7578V31.6641H259.3V33.5391C259.3 35.4297 259.183 37.1094 258.948 38.5781C258.729 40.0469 258.308 41.2891 257.683 42.3047C257.073 43.3203 256.198 44.0938 255.058 44.625C253.917 45.1562 252.433 45.4219 250.604 45.4219ZM248.144 24.2109H253.159V19.7109C253.159 18.5391 253.104 17.5547 252.995 16.7578C252.886 15.9453 252.667 15.3359 252.339 14.9297C252.011 14.5234 251.511 14.3203 250.839 14.3203C250.011 14.3203 249.401 14.5625 249.011 15.0469C248.636 15.5312 248.394 16.1953 248.284 17.0391C248.19 17.8672 248.144 18.8125 248.144 19.875V24.2109Z" fill="#D1DADB"/>
<path d="M271.862 45.4453C269.034 45.4453 266.933 44.6406 265.558 43.0312C264.183 41.4219 263.495 38.7891 263.495 35.1328V32.8594H269.331V35.6953C269.331 37.2266 269.519 38.3906 269.894 39.1875C270.269 39.9844 270.878 40.3828 271.722 40.3828C272.534 40.3828 273.136 40.1094 273.526 39.5625C273.917 39.0156 274.112 38.0703 274.112 36.7266C274.112 35.9453 273.995 35.1875 273.761 34.4531C273.542 33.7188 273.19 33 272.706 32.2969C272.237 31.5781 271.628 30.8828 270.878 30.2109L267.714 27.3516C266.261 26.0391 265.175 24.625 264.456 23.1094C263.737 21.5781 263.378 19.8906 263.378 18.0469C263.378 15.0625 264.073 12.8828 265.464 11.5078C266.87 10.1172 268.948 9.42188 271.698 9.42188C273.479 9.42188 274.956 9.75781 276.128 10.4297C277.3 11.0859 278.175 12.1562 278.753 13.6406C279.331 15.125 279.62 17.1172 279.62 19.6172V21.5391H274.065V19.2188C274.065 17.6719 273.886 16.5 273.526 15.7031C273.183 14.9062 272.589 14.5078 271.745 14.5078C270.917 14.5078 270.308 14.7422 269.917 15.2109C269.526 15.6641 269.315 16.4688 269.284 17.625C269.269 18.25 269.347 18.8672 269.519 19.4766C269.69 20.0703 269.956 20.6562 270.315 21.2344C270.69 21.7969 271.175 22.3516 271.769 22.8984L275.097 25.9219C276.847 27.5 278.136 29.1484 278.964 30.8672C279.808 32.5859 280.229 34.4453 280.229 36.4453C280.229 39.3984 279.558 41.6406 278.214 43.1719C276.87 44.6875 274.753 45.4453 271.862 45.4453Z" fill="#D1DADB"/>
<path d="M284.894 45V9.84375H291.104V45H284.894ZM284.87 6.60938V1.21875H291.128V6.60938H284.87Z" fill="#D1DADB"/>
<path d="M305.308 50.2734C303.37 50.3047 301.722 50.1172 300.362 49.7109C299.003 49.3203 297.769 48.6719 296.659 47.7656L298.839 43.8516C299.667 44.3828 300.565 44.8125 301.534 45.1406C302.519 45.4844 303.581 45.6484 304.722 45.6328C305.909 45.6172 306.815 45.2031 307.44 44.3906C308.065 43.5781 308.378 42.4922 308.378 41.1328V38.3438C307.972 39.5156 307.347 40.3203 306.503 40.7578C305.675 41.1953 304.667 41.4141 303.479 41.4141C301.823 41.4141 300.519 40.9766 299.565 40.1016C298.628 39.2266 297.964 38.0312 297.573 36.5156C297.183 35 296.987 33.2812 296.987 31.3594V20.0391C296.987 17.9922 297.19 16.1719 297.597 14.5781C298.003 12.9688 298.698 11.7031 299.683 10.7812C300.667 9.85938 302.019 9.40625 303.737 9.42188C304.94 9.42188 305.933 9.72656 306.714 10.3359C307.511 10.9453 308.065 11.8203 308.378 12.9609V9.84375H314.589V40.6641C314.589 42.0547 314.433 43.3359 314.12 44.5078C313.808 45.6641 313.292 46.6641 312.573 47.5078C311.854 48.3672 310.901 49.0312 309.714 49.5C308.526 49.9844 307.058 50.2422 305.308 50.2734ZM305.94 36.7031C306.503 36.7031 306.964 36.5391 307.323 36.2109C307.683 35.8672 307.948 35.2891 308.12 34.4766C308.292 33.6484 308.378 32.5 308.378 31.0312V19.5234C308.378 17.9766 308.19 16.7422 307.815 15.8203C307.44 14.8984 306.761 14.4375 305.776 14.4375C305.026 14.4375 304.472 14.6562 304.112 15.0938C303.753 15.5312 303.519 16.1328 303.409 16.8984C303.3 17.6484 303.245 18.5156 303.245 19.5V31.0781C303.245 32.8125 303.409 34.1875 303.737 35.2031C304.065 36.2031 304.8 36.7031 305.94 36.7031Z" fill="#D1DADB"/>
<path d="M320.589 45V9.84375H326.8V13.875C327.112 12.6719 327.769 11.6328 328.769 10.7578C329.769 9.86719 330.995 9.42188 332.448 9.42188C334.479 9.42188 336.003 10.1016 337.019 11.4609C338.034 12.8047 338.542 14.7578 338.542 17.3203V45H332.331V17.6953C332.331 16.6797 332.097 15.8828 331.628 15.3047C331.175 14.7266 330.55 14.4375 329.753 14.4375C329.112 14.4375 328.565 14.6172 328.112 14.9766C327.675 15.3203 327.347 15.8047 327.128 16.4297C326.909 17.0391 326.8 17.7578 326.8 18.5859V45H320.589Z" fill="#D1DADB"/>
<path d="M353.144 45V3.75H363.526C365.683 3.75 367.292 4.17188 368.354 5.01562C369.417 5.85938 370.112 7.09375 370.44 8.71875C370.784 10.3438 370.956 12.3281 370.956 14.6719C370.956 17.0938 370.706 19 370.206 20.3906C369.722 21.7656 368.722 22.6875 367.206 23.1562C367.925 23.2812 368.526 23.5781 369.011 24.0469C369.495 24.5 369.886 25.1719 370.183 26.0625C370.479 26.9375 370.69 28.0703 370.815 29.4609C370.956 30.8359 371.026 32.5234 371.026 34.5234C371.026 34.6797 371.026 35.1172 371.026 35.8359C371.026 36.5547 371.026 37.4062 371.026 38.3906C371.042 39.3594 371.058 40.3281 371.073 41.2969C371.089 42.2656 371.112 43.0938 371.144 43.7812C371.175 44.4688 371.214 44.875 371.261 45H364.979C364.933 44.9219 364.894 44.5234 364.862 43.8047C364.847 43.0703 364.823 42.1406 364.792 41.0156C364.776 39.8906 364.761 38.6797 364.745 37.3828C364.745 36.0859 364.745 34.8125 364.745 33.5625C364.745 32.2969 364.745 31.1797 364.745 30.2109C364.745 28.9766 364.651 28.0469 364.464 27.4219C364.292 26.7812 363.964 26.3359 363.479 26.0859C363.011 25.8359 362.331 25.6875 361.44 25.6406L359.425 25.5234V45H353.144ZM359.448 20.6484H361.956C362.722 20.6484 363.3 20.4766 363.69 20.1328C364.097 19.7891 364.37 19.1562 364.511 18.2344C364.667 17.3125 364.745 15.9844 364.745 14.25V13.9922C364.745 12.5391 364.675 11.4219 364.534 10.6406C364.394 9.85938 364.097 9.32031 363.644 9.02344C363.206 8.72656 362.519 8.57812 361.581 8.57812H359.448V20.6484Z" fill="#D1DADB"/>
<path d="M384.573 45.4219C382.808 45.4219 381.354 45.1406 380.214 44.5781C379.089 44.0156 378.206 43.2031 377.565 42.1406C376.94 41.0781 376.503 39.8047 376.253 38.3203C376.003 36.8203 375.878 35.1484 375.878 33.3047V20.2031C375.878 18.5625 376.042 17.0781 376.37 15.75C376.714 14.4219 377.237 13.2891 377.94 12.3516C378.659 11.4141 379.589 10.6953 380.729 10.1953C381.87 9.67969 383.245 9.42188 384.854 9.42188C386.495 9.42188 387.862 9.67188 388.956 10.1719C390.05 10.6719 390.909 11.3984 391.534 12.3516C392.175 13.3047 392.628 14.4531 392.894 15.7969C393.175 17.125 393.315 18.6328 393.315 20.3203V27.8438H382.136V34.7578C382.136 36.4609 382.269 37.8281 382.534 38.8594C382.8 39.8906 383.526 40.4062 384.714 40.4062C385.511 40.4062 386.073 40.1641 386.401 39.6797C386.745 39.1953 386.948 38.5312 387.011 37.6875C387.089 36.8281 387.128 35.8516 387.128 34.7578V31.6641H393.269V33.5391C393.269 35.4297 393.151 37.1094 392.917 38.5781C392.698 40.0469 392.276 41.2891 391.651 42.3047C391.042 43.3203 390.167 44.0938 389.026 44.625C387.886 45.1562 386.401 45.4219 384.573 45.4219ZM382.112 24.2109H387.128V19.7109C387.128 18.5391 387.073 17.5547 386.964 16.7578C386.854 15.9453 386.636 15.3359 386.308 14.9297C385.979 14.5234 385.479 14.3203 384.808 14.3203C383.979 14.3203 383.37 14.5625 382.979 15.0469C382.604 15.5312 382.362 16.1953 382.253 17.0391C382.159 17.8672 382.112 18.8125 382.112 19.875V24.2109Z" fill="#D1DADB"/>
<path d="M405.831 45.4453C403.003 45.4453 400.901 44.6406 399.526 43.0312C398.151 41.4219 397.464 38.7891 397.464 35.1328V32.8594H403.3V35.6953C403.3 37.2266 403.487 38.3906 403.862 39.1875C404.237 39.9844 404.847 40.3828 405.69 40.3828C406.503 40.3828 407.104 40.1094 407.495 39.5625C407.886 39.0156 408.081 38.0703 408.081 36.7266C408.081 35.9453 407.964 35.1875 407.729 34.4531C407.511 33.7188 407.159 33 406.675 32.2969C406.206 31.5781 405.597 30.8828 404.847 30.2109L401.683 27.3516C400.229 26.0391 399.144 24.625 398.425 23.1094C397.706 21.5781 397.347 19.8906 397.347 18.0469C397.347 15.0625 398.042 12.8828 399.433 11.5078C400.839 10.1172 402.917 9.42188 405.667 9.42188C407.448 9.42188 408.925 9.75781 410.097 10.4297C411.269 11.0859 412.144 12.1562 412.722 13.6406C413.3 15.125 413.589 17.1172 413.589 19.6172V21.5391H408.034V19.2188C408.034 17.6719 407.854 16.5 407.495 15.7031C407.151 14.9062 406.558 14.5078 405.714 14.5078C404.886 14.5078 404.276 14.7422 403.886 15.2109C403.495 15.6641 403.284 16.4688 403.253 17.625C403.237 18.25 403.315 18.8672 403.487 19.4766C403.659 20.0703 403.925 20.6562 404.284 21.2344C404.659 21.7969 405.144 22.3516 405.737 22.8984L409.065 25.9219C410.815 27.5 412.104 29.1484 412.933 30.8672C413.776 32.5859 414.198 34.4453 414.198 36.4453C414.198 39.3984 413.526 41.6406 412.183 43.1719C410.839 44.6875 408.722 45.4453 405.831 45.4453Z" fill="#D1DADB"/>
<path d="M427.065 45.4219C425.378 45.4219 423.964 45.1641 422.823 44.6484C421.683 44.1172 420.776 43.3594 420.104 42.375C419.448 41.375 418.972 40.1641 418.675 38.7422C418.394 37.3047 418.253 35.6719 418.253 33.8438V20.6953C418.253 18.4922 418.534 16.5469 419.097 14.8594C419.675 13.1562 420.612 11.8281 421.909 10.875C423.206 9.90625 424.925 9.42188 427.065 9.42188C428.69 9.42188 430.058 9.69531 431.167 10.2422C432.292 10.7891 433.19 11.5703 433.862 12.5859C434.55 13.5859 435.05 14.7734 435.362 16.1484C435.675 17.5234 435.831 19.0391 435.831 20.6953V33.8438C435.831 35.6406 435.69 37.25 435.409 38.6719C435.144 40.0938 434.675 41.3125 434.003 42.3281C433.347 43.3281 432.456 44.0938 431.331 44.625C430.206 45.1562 428.784 45.4219 427.065 45.4219ZM427.065 40.4062C427.769 40.4062 428.3 40.1953 428.659 39.7734C429.019 39.3359 429.261 38.7344 429.386 37.9688C429.511 37.2031 429.573 36.3203 429.573 35.3203V19.5938C429.573 18.5312 429.503 17.6172 429.362 16.8516C429.222 16.0859 428.972 15.4922 428.612 15.0703C428.253 14.6484 427.737 14.4375 427.065 14.4375C426.362 14.4375 425.823 14.6484 425.448 15.0703C425.089 15.4922 424.839 16.0859 424.698 16.8516C424.573 17.6172 424.511 18.5312 424.511 19.5938V35.3203C424.511 36.3203 424.573 37.2031 424.698 37.9688C424.839 38.7344 425.089 39.3359 425.448 39.7734C425.823 40.1953 426.362 40.4062 427.065 40.4062Z" fill="#D1DADB"/>
<path d="M447.526 45.4453C446.136 45.4453 444.972 45.1328 444.034 44.5078C443.112 43.8828 442.417 42.9531 441.948 41.7188C441.495 40.4688 441.269 38.9062 441.269 37.0312V9.84375H447.503V36.0703C447.503 37.4141 447.667 38.4609 447.995 39.2109C448.323 39.9609 449.011 40.3359 450.058 40.3359C451.151 40.3359 451.894 39.9141 452.284 39.0703C452.69 38.2109 452.894 37.2266 452.894 36.1172L452.917 9.84375H459.104V45H452.894V41.3438C452.456 42.5312 451.823 43.5156 450.995 44.2969C450.167 45.0625 449.011 45.4453 447.526 45.4453Z" fill="#D1DADB"/>
<path d="M465.175 45V9.84375H471.433V13.7578C471.839 12.3984 472.542 11.3359 473.542 10.5703C474.558 9.80469 475.847 9.42188 477.409 9.42188C477.44 9.42188 477.456 9.6875 477.456 10.2188C477.472 10.75 477.479 11.3594 477.479 12.0469C477.479 12.7344 477.479 13.3438 477.479 13.875C477.479 14.4062 477.479 14.6719 477.479 14.6719C476.761 14.6719 475.979 14.7578 475.136 14.9297C474.308 15.1016 473.55 15.3672 472.862 15.7266C472.19 16.0703 471.714 16.5312 471.433 17.1094V45H465.175Z" fill="#D1DADB"/>
<path d="M490.019 45.4219C488.222 45.4219 486.737 45.1484 485.565 44.6016C484.394 44.0391 483.472 43.2344 482.8 42.1875C482.144 41.1406 481.683 39.8672 481.417 38.3672C481.151 36.8672 481.019 35.1719 481.019 33.2812V21.8906C481.019 19.2969 481.261 17.0703 481.745 15.2109C482.229 13.3516 483.12 11.9219 484.417 10.9219C485.729 9.92188 487.62 9.42188 490.089 9.42188C491.604 9.42188 492.886 9.65625 493.933 10.125C494.979 10.5938 495.823 11.2734 496.464 12.1641C497.104 13.0391 497.565 14.1016 497.847 15.3516C498.144 16.6016 498.292 18.0078 498.292 19.5703V23.4375H492.292V19.3594C492.292 18.3438 492.245 17.4766 492.151 16.7578C492.058 16.0234 491.847 15.4688 491.519 15.0938C491.19 14.7031 490.667 14.5078 489.948 14.5078C489.245 14.5078 488.698 14.7031 488.308 15.0938C487.917 15.4844 487.644 16.0547 487.487 16.8047C487.347 17.5391 487.276 18.4219 487.276 19.4531V35.2969C487.276 36.3594 487.339 37.2656 487.464 38.0156C487.604 38.7656 487.854 39.3438 488.214 39.75C488.589 40.1406 489.136 40.3359 489.854 40.3359C490.558 40.3359 491.081 40.1328 491.425 39.7266C491.784 39.3047 492.019 38.7188 492.128 37.9688C492.237 37.2188 492.292 36.3359 492.292 35.3203V31.1484H498.292V34.7109C498.292 36.3203 498.151 37.7891 497.87 39.1172C497.589 40.4297 497.128 41.5547 496.487 42.4922C495.847 43.4297 494.995 44.1562 493.933 44.6719C492.87 45.1719 491.565 45.4219 490.019 45.4219Z" fill="#D1DADB"/>
<path d="M511.698 45.4219C509.933 45.4219 508.479 45.1406 507.339 44.5781C506.214 44.0156 505.331 43.2031 504.69 42.1406C504.065 41.0781 503.628 39.8047 503.378 38.3203C503.128 36.8203 503.003 35.1484 503.003 33.3047V20.2031C503.003 18.5625 503.167 17.0781 503.495 15.75C503.839 14.4219 504.362 13.2891 505.065 12.3516C505.784 11.4141 506.714 10.6953 507.854 10.1953C508.995 9.67969 510.37 9.42188 511.979 9.42188C513.62 9.42188 514.987 9.67188 516.081 10.1719C517.175 10.6719 518.034 11.3984 518.659 12.3516C519.3 13.3047 519.753 14.4531 520.019 15.7969C520.3 17.125 520.44 18.6328 520.44 20.3203V27.8438H509.261V34.7578C509.261 36.4609 509.394 37.8281 509.659 38.8594C509.925 39.8906 510.651 40.4062 511.839 40.4062C512.636 40.4062 513.198 40.1641 513.526 39.6797C513.87 39.1953 514.073 38.5312 514.136 37.6875C514.214 36.8281 514.253 35.8516 514.253 34.7578V31.6641H520.394V33.5391C520.394 35.4297 520.276 37.1094 520.042 38.5781C519.823 40.0469 519.401 41.2891 518.776 42.3047C518.167 43.3203 517.292 44.0938 516.151 44.625C515.011 45.1562 513.526 45.4219 511.698 45.4219ZM509.237 24.2109H514.253V19.7109C514.253 18.5391 514.198 17.5547 514.089 16.7578C513.979 15.9453 513.761 15.3359 513.433 14.9297C513.104 14.5234 512.604 14.3203 511.933 14.3203C511.104 14.3203 510.495 14.5625 510.104 15.0469C509.729 15.5312 509.487 16.1953 509.378 17.0391C509.284 17.8672 509.237 18.8125 509.237 19.875V24.2109Z" fill="#D1DADB"/>
<path d="M532.956 45.4453C530.128 45.4453 528.026 44.6406 526.651 43.0312C525.276 41.4219 524.589 38.7891 524.589 35.1328V32.8594H530.425V35.6953C530.425 37.2266 530.612 38.3906 530.987 39.1875C531.362 39.9844 531.972 40.3828 532.815 40.3828C533.628 40.3828 534.229 40.1094 534.62 39.5625C535.011 39.0156 535.206 38.0703 535.206 36.7266C535.206 35.9453 535.089 35.1875 534.854 34.4531C534.636 33.7188 534.284 33 533.8 32.2969C533.331 31.5781 532.722 30.8828 531.972 30.2109L528.808 27.3516C527.354 26.0391 526.269 24.625 525.55 23.1094C524.831 21.5781 524.472 19.8906 524.472 18.0469C524.472 15.0625 525.167 12.8828 526.558 11.5078C527.964 10.1172 530.042 9.42188 532.792 9.42188C534.573 9.42188 536.05 9.75781 537.222 10.4297C538.394 11.0859 539.269 12.1562 539.847 13.6406C540.425 15.125 540.714 17.1172 540.714 19.6172V21.5391H535.159V19.2188C535.159 17.6719 534.979 16.5 534.62 15.7031C534.276 14.9062 533.683 14.5078 532.839 14.5078C532.011 14.5078 531.401 14.7422 531.011 15.2109C530.62 15.6641 530.409 16.4688 530.378 17.625C530.362 18.25 530.44 18.8672 530.612 19.4766C530.784 20.0703 531.05 20.6562 531.409 21.2344C531.784 21.7969 532.269 22.3516 532.862 22.8984L536.19 25.9219C537.94 27.5 539.229 29.1484 540.058 30.8672C540.901 32.5859 541.323 34.4453 541.323 36.4453C541.323 39.3984 540.651 41.6406 539.308 43.1719C537.964 44.6875 535.847 45.4453 532.956 45.4453Z" fill="#D1DADB"/>
</g>
<path d="M1.25293 45V3.75H7.53418V45H1.25293Z" stroke="#D9E6E7" stroke-width="2" mask="url(#path-1-outside-1_127_2790)"/>
<path d="M13.8389 45V9.84375H20.0498V13.875C20.3623 12.6719 21.0186 11.6328 22.0186 10.7578C23.0186 9.86719 24.2451 9.42188 25.6982 9.42188C27.7295 9.42188 29.2529 10.1016 30.2686 11.4609C31.2842 12.8047 31.792 14.7578 31.792 17.3203V45H25.5811V17.6953C25.5811 16.6797 25.3467 15.8828 24.8779 15.3047C24.4248 14.7266 23.7998 14.4375 23.0029 14.4375C22.3623 14.4375 21.8154 14.6172 21.3623 14.9766C20.9248 15.3203 20.5967 15.8047 20.3779 16.4297C20.1592 17.0391 20.0498 17.7578 20.0498 18.5859V45H13.8389Z" stroke="#D9E6E7" stroke-width="2" mask="url(#path-1-outside-1_127_2790)"/>
<path d="M44.0967 45.2344C42.5967 45.2344 41.4482 45.0469 40.6514 44.6719C39.8545 44.2812 39.3076 43.6719 39.0107 42.8438C38.7139 42.0156 38.5654 40.9453 38.5654 39.6328V15.0703H35.7061V10.5703H38.5654V3.75H44.7764V10.5703H48.1982V15.0703H44.7764V38.5547C44.7764 39.1016 44.8623 39.5156 45.0342 39.7969C45.2061 40.0781 45.542 40.2656 46.042 40.3594C46.5576 40.4531 47.3154 40.5 48.3154 40.5V45.2344H44.0967Z" stroke="#D9E6E7" stroke-width="2" mask="url(#path-1-outside-1_127_2790)"/>
<path d="M60.9014 45.4219C59.1357 45.4219 57.6826 45.1406 56.542 44.5781C55.417 44.0156 54.5342 43.2031 53.8936 42.1406C53.2686 41.0781 52.8311 39.8047 52.5811 38.3203C52.3311 36.8203 52.2061 35.1484 52.2061 33.3047V20.2031C52.2061 18.5625 52.3701 17.0781 52.6982 15.75C53.042 14.4219 53.5654 13.2891 54.2686 12.3516C54.9873 11.4141 55.917 10.6953 57.0576 10.1953C58.1982 9.67969 59.5732 9.42188 61.1826 9.42188C62.8232 9.42188 64.1904 9.67188 65.2842 10.1719C66.3779 10.6719 67.2373 11.3984 67.8623 12.3516C68.5029 13.3047 68.9561 14.4531 69.2217 15.7969C69.5029 17.125 69.6436 18.6328 69.6436 20.3203V27.8438H58.4639V34.7578C58.4639 36.4609 58.5967 37.8281 58.8623 38.8594C59.1279 39.8906 59.8545 40.4062 61.042 40.4062C61.8389 40.4062 62.4014 40.1641 62.7295 39.6797C63.0732 39.1953 63.2764 38.5312 63.3389 37.6875C63.417 36.8281 63.4561 35.8516 63.4561 34.7578V31.6641H69.5967V33.5391C69.5967 35.4297 69.4795 37.1094 69.2451 38.5781C69.0264 40.0469 68.6045 41.2891 67.9795 42.3047C67.3701 43.3203 66.4951 44.0938 65.3545 44.625C64.2139 45.1562 62.7295 45.4219 60.9014 45.4219ZM58.4404 24.2109H63.4561V19.7109C63.4561 18.5391 63.4014 17.5547 63.292 16.7578C63.1826 15.9453 62.9639 15.3359 62.6357 14.9297C62.3076 14.5234 61.8076 14.3203 61.1357 14.3203C60.3076 14.3203 59.6982 14.5625 59.3076 15.0469C58.9326 15.5312 58.6904 16.1953 58.5811 17.0391C58.4873 17.8672 58.4404 18.8125 58.4404 19.875V24.2109Z" stroke="#D9E6E7" stroke-width="2" mask="url(#path-1-outside-1_127_2790)"/>
<path d="M74.8936 45V9.84375H81.1514V13.7578C81.5576 12.3984 82.2607 11.3359 83.2607 10.5703C84.2764 9.80469 85.5654 9.42188 87.1279 9.42188C87.1592 9.42188 87.1748 9.6875 87.1748 10.2188C87.1904 10.75 87.1982 11.3594 87.1982 12.0469C87.1982 12.7344 87.1982 13.3438 87.1982 13.875C87.1982 14.4062 87.1982 14.6719 87.1982 14.6719C86.4795 14.6719 85.6982 14.7578 84.8545 14.9297C84.0264 15.1016 83.2686 15.3672 82.5811 15.7266C81.9092 16.0703 81.4326 16.5312 81.1514 17.1094V45H74.8936Z" stroke="#D9E6E7" stroke-width="2" mask="url(#path-1-outside-1_127_2790)"/>
<path d="M96.9717 45.3516C94.5654 45.3516 92.8936 44.4766 91.9561 42.7266C91.0342 40.9766 90.5576 38.6562 90.5264 35.7656V33.5156C90.5264 31.6406 90.792 30.1172 91.3232 28.9453C91.8701 27.7734 92.6436 26.8203 93.6436 26.0859C94.6436 25.3516 95.8389 24.7109 97.2295 24.1641C98.6201 23.6172 100.167 23.0312 101.87 22.4062V19.3359C101.87 18.1484 101.823 17.2031 101.729 16.5C101.636 15.7812 101.425 15.2578 101.097 14.9297C100.769 14.6016 100.261 14.4375 99.5732 14.4375C98.9014 14.4375 98.3857 14.6094 98.0264 14.9531C97.6826 15.2812 97.4482 15.7969 97.3232 16.5C97.1982 17.1875 97.1357 18.0703 97.1357 19.1484V20.7188H90.9951V19.6641C90.9951 18.0547 91.1279 16.6172 91.3936 15.3516C91.6748 14.0859 92.1436 13.0156 92.7998 12.1406C93.4561 11.25 94.3467 10.5781 95.4717 10.125C96.6123 9.65625 98.042 9.42188 99.7607 9.42188C101.276 9.42188 102.573 9.64062 103.651 10.0781C104.729 10.5 105.604 11.1406 106.276 12C106.948 12.8438 107.44 13.9062 107.753 15.1875C108.065 16.4688 108.222 17.9609 108.222 19.6641V45H101.964V41.5078C101.776 42.1797 101.456 42.8125 101.003 43.4062C100.55 43.9844 99.9795 44.4531 99.292 44.8125C98.6201 45.1719 97.8467 45.3516 96.9717 45.3516ZM99.1279 40.5703C99.9092 40.5703 100.534 40.2891 101.003 39.7266C101.472 39.1641 101.761 38.5938 101.87 38.0156V25.9219C100.933 26.3438 100.144 26.7422 99.5029 27.1172C98.8623 27.4766 98.3467 27.875 97.9561 28.3125C97.5654 28.75 97.2842 29.2656 97.1123 29.8594C96.9404 30.4531 96.8545 31.1797 96.8545 32.0391V35.9766C96.8545 37.5859 97.0186 38.7578 97.3467 39.4922C97.6904 40.2109 98.2842 40.5703 99.1279 40.5703Z" stroke="#D9E6E7" stroke-width="2" mask="url(#path-1-outside-1_127_2790)"/>
<path d="M122.472 45.4219C120.675 45.4219 119.19 45.1484 118.019 44.6016C116.847 44.0391 115.925 43.2344 115.253 42.1875C114.597 41.1406 114.136 39.8672 113.87 38.3672C113.604 36.8672 113.472 35.1719 113.472 33.2812V21.8906C113.472 19.2969 113.714 17.0703 114.198 15.2109C114.683 13.3516 115.573 11.9219 116.87 10.9219C118.183 9.92188 120.073 9.42188 122.542 9.42188C124.058 9.42188 125.339 9.65625 126.386 10.125C127.433 10.5938 128.276 11.2734 128.917 12.1641C129.558 13.0391 130.019 14.1016 130.3 15.3516C130.597 16.6016 130.745 18.0078 130.745 19.5703V23.4375H124.745V19.3594C124.745 18.3438 124.698 17.4766 124.604 16.7578C124.511 16.0234 124.3 15.4688 123.972 15.0938C123.644 14.7031 123.12 14.5078 122.401 14.5078C121.698 14.5078 121.151 14.7031 120.761 15.0938C120.37 15.4844 120.097 16.0547 119.94 16.8047C119.8 17.5391 119.729 18.4219 119.729 19.4531V35.2969C119.729 36.3594 119.792 37.2656 119.917 38.0156C120.058 38.7656 120.308 39.3438 120.667 39.75C121.042 40.1406 121.589 40.3359 122.308 40.3359C123.011 40.3359 123.534 40.1328 123.878 39.7266C124.237 39.3047 124.472 38.7188 124.581 37.9688C124.69 37.2188 124.745 36.3359 124.745 35.3203V31.1484H130.745V34.7109C130.745 36.3203 130.604 37.7891 130.323 39.1172C130.042 40.4297 129.581 41.5547 128.94 42.4922C128.3 43.4297 127.448 44.1562 126.386 44.6719C125.323 45.1719 124.019 45.4219 122.472 45.4219Z" stroke="#D9E6E7" stroke-width="2" mask="url(#path-1-outside-1_127_2790)"/>
<path d="M142.3 45.2344C140.8 45.2344 139.651 45.0469 138.854 44.6719C138.058 44.2812 137.511 43.6719 137.214 42.8438C136.917 42.0156 136.769 40.9453 136.769 39.6328V15.0703H133.909V10.5703H136.769V3.75H142.979V10.5703H146.401V15.0703H142.979V38.5547C142.979 39.1016 143.065 39.5156 143.237 39.7969C143.409 40.0781 143.745 40.2656 144.245 40.3594C144.761 40.4531 145.519 40.5 146.519 40.5V45.2344H142.3Z" stroke="#D9E6E7" stroke-width="2" mask="url(#path-1-outside-1_127_2790)"/>
<path d="M151.019 45V9.84375H157.229V45H151.019ZM150.995 6.60938V1.21875H157.253V6.60938H150.995Z" stroke="#D9E6E7" stroke-width="2" mask="url(#path-1-outside-1_127_2790)"/>
<path d="M171.831 45.4219C170.144 45.4219 168.729 45.1641 167.589 44.6484C166.448 44.1172 165.542 43.3594 164.87 42.375C164.214 41.375 163.737 40.1641 163.44 38.7422C163.159 37.3047 163.019 35.6719 163.019 33.8438V20.6953C163.019 18.4922 163.3 16.5469 163.862 14.8594C164.44 13.1562 165.378 11.8281 166.675 10.875C167.972 9.90625 169.69 9.42188 171.831 9.42188C173.456 9.42188 174.823 9.69531 175.933 10.2422C177.058 10.7891 177.956 11.5703 178.628 12.5859C179.315 13.5859 179.815 14.7734 180.128 16.1484C180.44 17.5234 180.597 19.0391 180.597 20.6953V33.8438C180.597 35.6406 180.456 37.25 180.175 38.6719C179.909 40.0938 179.44 41.3125 178.769 42.3281C178.112 43.3281 177.222 44.0938 176.097 44.625C174.972 45.1562 173.55 45.4219 171.831 45.4219ZM171.831 40.4062C172.534 40.4062 173.065 40.1953 173.425 39.7734C173.784 39.3359 174.026 38.7344 174.151 37.9688C174.276 37.2031 174.339 36.3203 174.339 35.3203V19.5938C174.339 18.5312 174.269 17.6172 174.128 16.8516C173.987 16.0859 173.737 15.4922 173.378 15.0703C173.019 14.6484 172.503 14.4375 171.831 14.4375C171.128 14.4375 170.589 14.6484 170.214 15.0703C169.854 15.4922 169.604 16.0859 169.464 16.8516C169.339 17.6172 169.276 18.5312 169.276 19.5938V35.3203C169.276 36.3203 169.339 37.2031 169.464 37.9688C169.604 38.7344 169.854 39.3359 170.214 39.7734C170.589 40.1953 171.128 40.4062 171.831 40.4062Z" stroke="#D9E6E7" stroke-width="2" mask="url(#path-1-outside-1_127_2790)"/>
<path d="M186.245 45V9.84375H192.456V13.875C192.769 12.6719 193.425 11.6328 194.425 10.7578C195.425 9.86719 196.651 9.42188 198.104 9.42188C200.136 9.42188 201.659 10.1016 202.675 11.4609C203.69 12.8047 204.198 14.7578 204.198 17.3203V45H197.987V17.6953C197.987 16.6797 197.753 15.8828 197.284 15.3047C196.831 14.7266 196.206 14.4375 195.409 14.4375C194.769 14.4375 194.222 14.6172 193.769 14.9766C193.331 15.3203 193.003 15.8047 192.784 16.4297C192.565 17.0391 192.456 17.7578 192.456 18.5859V45H186.245Z" stroke="#D9E6E7" stroke-width="2" mask="url(#path-1-outside-1_127_2790)"/>
<path d="M218.8 45V3.75H228.058C230.151 3.75 231.831 4.17188 233.097 5.01562C234.362 5.84375 235.276 7.04688 235.839 8.625C236.417 10.2031 236.706 12.1094 236.706 14.3438L236.729 32.9531C236.729 35.6562 236.433 37.9062 235.839 39.7031C235.261 41.4844 234.323 42.8125 233.026 43.6875C231.729 44.5625 230.003 45 227.847 45H218.8ZM225.081 40.125H227.144C227.878 40.125 228.487 39.9766 228.972 39.6797C229.472 39.3828 229.839 38.8594 230.073 38.1094C230.323 37.3438 230.448 36.2656 230.448 34.875L230.425 14.5078C230.425 12.3984 230.167 10.8828 229.651 9.96094C229.136 9.03906 228.229 8.57812 226.933 8.57812H225.081V40.125Z" stroke="#D9E6E7" stroke-width="2" mask="url(#path-1-outside-1_127_2790)"/>
<path d="M250.604 45.4219C248.839 45.4219 247.386 45.1406 246.245 44.5781C245.12 44.0156 244.237 43.2031 243.597 42.1406C242.972 41.0781 242.534 39.8047 242.284 38.3203C242.034 36.8203 241.909 35.1484 241.909 33.3047V20.2031C241.909 18.5625 242.073 17.0781 242.401 15.75C242.745 14.4219 243.269 13.2891 243.972 12.3516C244.69 11.4141 245.62 10.6953 246.761 10.1953C247.901 9.67969 249.276 9.42188 250.886 9.42188C252.526 9.42188 253.894 9.67188 254.987 10.1719C256.081 10.6719 256.94 11.3984 257.565 12.3516C258.206 13.3047 258.659 14.4531 258.925 15.7969C259.206 17.125 259.347 18.6328 259.347 20.3203V27.8438H248.167V34.7578C248.167 36.4609 248.3 37.8281 248.565 38.8594C248.831 39.8906 249.558 40.4062 250.745 40.4062C251.542 40.4062 252.104 40.1641 252.433 39.6797C252.776 39.1953 252.979 38.5312 253.042 37.6875C253.12 36.8281 253.159 35.8516 253.159 34.7578V31.6641H259.3V33.5391C259.3 35.4297 259.183 37.1094 258.948 38.5781C258.729 40.0469 258.308 41.2891 257.683 42.3047C257.073 43.3203 256.198 44.0938 255.058 44.625C253.917 45.1562 252.433 45.4219 250.604 45.4219ZM248.144 24.2109H253.159V19.7109C253.159 18.5391 253.104 17.5547 252.995 16.7578C252.886 15.9453 252.667 15.3359 252.339 14.9297C252.011 14.5234 251.511 14.3203 250.839 14.3203C250.011 14.3203 249.401 14.5625 249.011 15.0469C248.636 15.5312 248.394 16.1953 248.284 17.0391C248.19 17.8672 248.144 18.8125 248.144 19.875V24.2109Z" stroke="#D9E6E7" stroke-width="2" mask="url(#path-1-outside-1_127_2790)"/>
<path d="M271.862 45.4453C269.034 45.4453 266.933 44.6406 265.558 43.0312C264.183 41.4219 263.495 38.7891 263.495 35.1328V32.8594H269.331V35.6953C269.331 37.2266 269.519 38.3906 269.894 39.1875C270.269 39.9844 270.878 40.3828 271.722 40.3828C272.534 40.3828 273.136 40.1094 273.526 39.5625C273.917 39.0156 274.112 38.0703 274.112 36.7266C274.112 35.9453 273.995 35.1875 273.761 34.4531C273.542 33.7188 273.19 33 272.706 32.2969C272.237 31.5781 271.628 30.8828 270.878 30.2109L267.714 27.3516C266.261 26.0391 265.175 24.625 264.456 23.1094C263.737 21.5781 263.378 19.8906 263.378 18.0469C263.378 15.0625 264.073 12.8828 265.464 11.5078C266.87 10.1172 268.948 9.42188 271.698 9.42188C273.479 9.42188 274.956 9.75781 276.128 10.4297C277.3 11.0859 278.175 12.1562 278.753 13.6406C279.331 15.125 279.62 17.1172 279.62 19.6172V21.5391H274.065V19.2188C274.065 17.6719 273.886 16.5 273.526 15.7031C273.183 14.9062 272.589 14.5078 271.745 14.5078C270.917 14.5078 270.308 14.7422 269.917 15.2109C269.526 15.6641 269.315 16.4688 269.284 17.625C269.269 18.25 269.347 18.8672 269.519 19.4766C269.69 20.0703 269.956 20.6562 270.315 21.2344C270.69 21.7969 271.175 22.3516 271.769 22.8984L275.097 25.9219C276.847 27.5 278.136 29.1484 278.964 30.8672C279.808 32.5859 280.229 34.4453 280.229 36.4453C280.229 39.3984 279.558 41.6406 278.214 43.1719C276.87 44.6875 274.753 45.4453 271.862 45.4453Z" stroke="#D9E6E7" stroke-width="2" mask="url(#path-1-outside-1_127_2790)"/>
<path d="M284.894 45V9.84375H291.104V45H284.894ZM284.87 6.60938V1.21875H291.128V6.60938H284.87Z" stroke="#D9E6E7" stroke-width="2" mask="url(#path-1-outside-1_127_2790)"/>
<path d="M305.308 50.2734C303.37 50.3047 301.722 50.1172 300.362 49.7109C299.003 49.3203 297.769 48.6719 296.659 47.7656L298.839 43.8516C299.667 44.3828 300.565 44.8125 301.534 45.1406C302.519 45.4844 303.581 45.6484 304.722 45.6328C305.909 45.6172 306.815 45.2031 307.44 44.3906C308.065 43.5781 308.378 42.4922 308.378 41.1328V38.3438C307.972 39.5156 307.347 40.3203 306.503 40.7578C305.675 41.1953 304.667 41.4141 303.479 41.4141C301.823 41.4141 300.519 40.9766 299.565 40.1016C298.628 39.2266 297.964 38.0312 297.573 36.5156C297.183 35 296.987 33.2812 296.987 31.3594V20.0391C296.987 17.9922 297.19 16.1719 297.597 14.5781C298.003 12.9688 298.698 11.7031 299.683 10.7812C300.667 9.85938 302.019 9.40625 303.737 9.42188C304.94 9.42188 305.933 9.72656 306.714 10.3359C307.511 10.9453 308.065 11.8203 308.378 12.9609V9.84375H314.589V40.6641C314.589 42.0547 314.433 43.3359 314.12 44.5078C313.808 45.6641 313.292 46.6641 312.573 47.5078C311.854 48.3672 310.901 49.0312 309.714 49.5C308.526 49.9844 307.058 50.2422 305.308 50.2734ZM305.94 36.7031C306.503 36.7031 306.964 36.5391 307.323 36.2109C307.683 35.8672 307.948 35.2891 308.12 34.4766C308.292 33.6484 308.378 32.5 308.378 31.0312V19.5234C308.378 17.9766 308.19 16.7422 307.815 15.8203C307.44 14.8984 306.761 14.4375 305.776 14.4375C305.026 14.4375 304.472 14.6562 304.112 15.0938C303.753 15.5312 303.519 16.1328 303.409 16.8984C303.3 17.6484 303.245 18.5156 303.245 19.5V31.0781C303.245 32.8125 303.409 34.1875 303.737 35.2031C304.065 36.2031 304.8 36.7031 305.94 36.7031Z" stroke="#D9E6E7" stroke-width="2" mask="url(#path-1-outside-1_127_2790)"/>
<path d="M320.589 45V9.84375H326.8V13.875C327.112 12.6719 327.769 11.6328 328.769 10.7578C329.769 9.86719 330.995 9.42188 332.448 9.42188C334.479 9.42188 336.003 10.1016 337.019 11.4609C338.034 12.8047 338.542 14.7578 338.542 17.3203V45H332.331V17.6953C332.331 16.6797 332.097 15.8828 331.628 15.3047C331.175 14.7266 330.55 14.4375 329.753 14.4375C329.112 14.4375 328.565 14.6172 328.112 14.9766C327.675 15.3203 327.347 15.8047 327.128 16.4297C326.909 17.0391 326.8 17.7578 326.8 18.5859V45H320.589Z" stroke="#D9E6E7" stroke-width="2" mask="url(#path-1-outside-1_127_2790)"/>
<path d="M353.144 45V3.75H363.526C365.683 3.75 367.292 4.17188 368.354 5.01562C369.417 5.85938 370.112 7.09375 370.44 8.71875C370.784 10.3438 370.956 12.3281 370.956 14.6719C370.956 17.0938 370.706 19 370.206 20.3906C369.722 21.7656 368.722 22.6875 367.206 23.1562C367.925 23.2812 368.526 23.5781 369.011 24.0469C369.495 24.5 369.886 25.1719 370.183 26.0625C370.479 26.9375 370.69 28.0703 370.815 29.4609C370.956 30.8359 371.026 32.5234 371.026 34.5234C371.026 34.6797 371.026 35.1172 371.026 35.8359C371.026 36.5547 371.026 37.4062 371.026 38.3906C371.042 39.3594 371.058 40.3281 371.073 41.2969C371.089 42.2656 371.112 43.0938 371.144 43.7812C371.175 44.4688 371.214 44.875 371.261 45H364.979C364.933 44.9219 364.894 44.5234 364.862 43.8047C364.847 43.0703 364.823 42.1406 364.792 41.0156C364.776 39.8906 364.761 38.6797 364.745 37.3828C364.745 36.0859 364.745 34.8125 364.745 33.5625C364.745 32.2969 364.745 31.1797 364.745 30.2109C364.745 28.9766 364.651 28.0469 364.464 27.4219C364.292 26.7812 363.964 26.3359 363.479 26.0859C363.011 25.8359 362.331 25.6875 361.44 25.6406L359.425 25.5234V45H353.144ZM359.448 20.6484H361.956C362.722 20.6484 363.3 20.4766 363.69 20.1328C364.097 19.7891 364.37 19.1562 364.511 18.2344C364.667 17.3125 364.745 15.9844 364.745 14.25V13.9922C364.745 12.5391 364.675 11.4219 364.534 10.6406C364.394 9.85938 364.097 9.32031 363.644 9.02344C363.206 8.72656 362.519 8.57812 361.581 8.57812H359.448V20.6484Z" stroke="#D9E6E7" stroke-width="2" mask="url(#path-1-outside-1_127_2790)"/>
<path d="M384.573 45.4219C382.808 45.4219 381.354 45.1406 380.214 44.5781C379.089 44.0156 378.206 43.2031 377.565 42.1406C376.94 41.0781 376.503 39.8047 376.253 38.3203C376.003 36.8203 375.878 35.1484 375.878 33.3047V20.2031C375.878 18.5625 376.042 17.0781 376.37 15.75C376.714 14.4219 377.237 13.2891 377.94 12.3516C378.659 11.4141 379.589 10.6953 380.729 10.1953C381.87 9.67969 383.245 9.42188 384.854 9.42188C386.495 9.42188 387.862 9.67188 388.956 10.1719C390.05 10.6719 390.909 11.3984 391.534 12.3516C392.175 13.3047 392.628 14.4531 392.894 15.7969C393.175 17.125 393.315 18.6328 393.315 20.3203V27.8438H382.136V34.7578C382.136 36.4609 382.269 37.8281 382.534 38.8594C382.8 39.8906 383.526 40.4062 384.714 40.4062C385.511 40.4062 386.073 40.1641 386.401 39.6797C386.745 39.1953 386.948 38.5312 387.011 37.6875C387.089 36.8281 387.128 35.8516 387.128 34.7578V31.6641H393.269V33.5391C393.269 35.4297 393.151 37.1094 392.917 38.5781C392.698 40.0469 392.276 41.2891 391.651 42.3047C391.042 43.3203 390.167 44.0938 389.026 44.625C387.886 45.1562 386.401 45.4219 384.573 45.4219ZM382.112 24.2109H387.128V19.7109C387.128 18.5391 387.073 17.5547 386.964 16.7578C386.854 15.9453 386.636 15.3359 386.308 14.9297C385.979 14.5234 385.479 14.3203 384.808 14.3203C383.979 14.3203 383.37 14.5625 382.979 15.0469C382.604 15.5312 382.362 16.1953 382.253 17.0391C382.159 17.8672 382.112 18.8125 382.112 19.875V24.2109Z" stroke="#D9E6E7" stroke-width="2" mask="url(#path-1-outside-1_127_2790)"/>
<path d="M405.831 45.4453C403.003 45.4453 400.901 44.6406 399.526 43.0312C398.151 41.4219 397.464 38.7891 397.464 35.1328V32.8594H403.3V35.6953C403.3 37.2266 403.487 38.3906 403.862 39.1875C404.237 39.9844 404.847 40.3828 405.69 40.3828C406.503 40.3828 407.104 40.1094 407.495 39.5625C407.886 39.0156 408.081 38.0703 408.081 36.7266C408.081 35.9453 407.964 35.1875 407.729 34.4531C407.511 33.7188 407.159 33 406.675 32.2969C406.206 31.5781 405.597 30.8828 404.847 30.2109L401.683 27.3516C400.229 26.0391 399.144 24.625 398.425 23.1094C397.706 21.5781 397.347 19.8906 397.347 18.0469C397.347 15.0625 398.042 12.8828 399.433 11.5078C400.839 10.1172 402.917 9.42188 405.667 9.42188C407.448 9.42188 408.925 9.75781 410.097 10.4297C411.269 11.0859 412.144 12.1562 412.722 13.6406C413.3 15.125 413.589 17.1172 413.589 19.6172V21.5391H408.034V19.2188C408.034 17.6719 407.854 16.5 407.495 15.7031C407.151 14.9062 406.558 14.5078 405.714 14.5078C404.886 14.5078 404.276 14.7422 403.886 15.2109C403.495 15.6641 403.284 16.4688 403.253 17.625C403.237 18.25 403.315 18.8672 403.487 19.4766C403.659 20.0703 403.925 20.6562 404.284 21.2344C404.659 21.7969 405.144 22.3516 405.737 22.8984L409.065 25.9219C410.815 27.5 412.104 29.1484 412.933 30.8672C413.776 32.5859 414.198 34.4453 414.198 36.4453C414.198 39.3984 413.526 41.6406 412.183 43.1719C410.839 44.6875 408.722 45.4453 405.831 45.4453Z" stroke="#D9E6E7" stroke-width="2" mask="url(#path-1-outside-1_127_2790)"/>
<path d="M427.065 45.4219C425.378 45.4219 423.964 45.1641 422.823 44.6484C421.683 44.1172 420.776 43.3594 420.104 42.375C419.448 41.375 418.972 40.1641 418.675 38.7422C418.394 37.3047 418.253 35.6719 418.253 33.8438V20.6953C418.253 18.4922 418.534 16.5469 419.097 14.8594C419.675 13.1562 420.612 11.8281 421.909 10.875C423.206 9.90625 424.925 9.42188 427.065 9.42188C428.69 9.42188 430.058 9.69531 431.167 10.2422C432.292 10.7891 433.19 11.5703 433.862 12.5859C434.55 13.5859 435.05 14.7734 435.362 16.1484C435.675 17.5234 435.831 19.0391 435.831 20.6953V33.8438C435.831 35.6406 435.69 37.25 435.409 38.6719C435.144 40.0938 434.675 41.3125 434.003 42.3281C433.347 43.3281 432.456 44.0938 431.331 44.625C430.206 45.1562 428.784 45.4219 427.065 45.4219ZM427.065 40.4062C427.769 40.4062 428.3 40.1953 428.659 39.7734C429.019 39.3359 429.261 38.7344 429.386 37.9688C429.511 37.2031 429.573 36.3203 429.573 35.3203V19.5938C429.573 18.5312 429.503 17.6172 429.362 16.8516C429.222 16.0859 428.972 15.4922 428.612 15.0703C428.253 14.6484 427.737 14.4375 427.065 14.4375C426.362 14.4375 425.823 14.6484 425.448 15.0703C425.089 15.4922 424.839 16.0859 424.698 16.8516C424.573 17.6172 424.511 18.5312 424.511 19.5938V35.3203C424.511 36.3203 424.573 37.2031 424.698 37.9688C424.839 38.7344 425.089 39.3359 425.448 39.7734C425.823 40.1953 426.362 40.4062 427.065 40.4062Z" stroke="#D9E6E7" stroke-width="2" mask="url(#path-1-outside-1_127_2790)"/>
<path d="M447.526 45.4453C446.136 45.4453 444.972 45.1328 444.034 44.5078C443.112 43.8828 442.417 42.9531 441.948 41.7188C441.495 40.4688 441.269 38.9062 441.269 37.0312V9.84375H447.503V36.0703C447.503 37.4141 447.667 38.4609 447.995 39.2109C448.323 39.9609 449.011 40.3359 450.058 40.3359C451.151 40.3359 451.894 39.9141 452.284 39.0703C452.69 38.2109 452.894 37.2266 452.894 36.1172L452.917 9.84375H459.104V45H452.894V41.3438C452.456 42.5312 451.823 43.5156 450.995 44.2969C450.167 45.0625 449.011 45.4453 447.526 45.4453Z" stroke="#D9E6E7" stroke-width="2" mask="url(#path-1-outside-1_127_2790)"/>
<path d="M465.175 45V9.84375H471.433V13.7578C471.839 12.3984 472.542 11.3359 473.542 10.5703C474.558 9.80469 475.847 9.42188 477.409 9.42188C477.44 9.42188 477.456 9.6875 477.456 10.2188C477.472 10.75 477.479 11.3594 477.479 12.0469C477.479 12.7344 477.479 13.3438 477.479 13.875C477.479 14.4062 477.479 14.6719 477.479 14.6719C476.761 14.6719 475.979 14.7578 475.136 14.9297C474.308 15.1016 473.55 15.3672 472.862 15.7266C472.19 16.0703 471.714 16.5312 471.433 17.1094V45H465.175Z" stroke="#D9E6E7" stroke-width="2" mask="url(#path-1-outside-1_127_2790)"/>
<path d="M490.019 45.4219C488.222 45.4219 486.737 45.1484 485.565 44.6016C484.394 44.0391 483.472 43.2344 482.8 42.1875C482.144 41.1406 481.683 39.8672 481.417 38.3672C481.151 36.8672 481.019 35.1719 481.019 33.2812V21.8906C481.019 19.2969 481.261 17.0703 481.745 15.2109C482.229 13.3516 483.12 11.9219 484.417 10.9219C485.729 9.92188 487.62 9.42188 490.089 9.42188C491.604 9.42188 492.886 9.65625 493.933 10.125C494.979 10.5938 495.823 11.2734 496.464 12.1641C497.104 13.0391 497.565 14.1016 497.847 15.3516C498.144 16.6016 498.292 18.0078 498.292 19.5703V23.4375H492.292V19.3594C492.292 18.3438 492.245 17.4766 492.151 16.7578C492.058 16.0234 491.847 15.4688 491.519 15.0938C491.19 14.7031 490.667 14.5078 489.948 14.5078C489.245 14.5078 488.698 14.7031 488.308 15.0938C487.917 15.4844 487.644 16.0547 487.487 16.8047C487.347 17.5391 487.276 18.4219 487.276 19.4531V35.2969C487.276 36.3594 487.339 37.2656 487.464 38.0156C487.604 38.7656 487.854 39.3438 488.214 39.75C488.589 40.1406 489.136 40.3359 489.854 40.3359C490.558 40.3359 491.081 40.1328 491.425 39.7266C491.784 39.3047 492.019 38.7188 492.128 37.9688C492.237 37.2188 492.292 36.3359 492.292 35.3203V31.1484H498.292V34.7109C498.292 36.3203 498.151 37.7891 497.87 39.1172C497.589 40.4297 497.128 41.5547 496.487 42.4922C495.847 43.4297 494.995 44.1562 493.933 44.6719C492.87 45.1719 491.565 45.4219 490.019 45.4219Z" stroke="#D9E6E7" stroke-width="2" mask="url(#path-1-outside-1_127_2790)"/>
<path d="M511.698 45.4219C509.933 45.4219 508.479 45.1406 507.339 44.5781C506.214 44.0156 505.331 43.2031 504.69 42.1406C504.065 41.0781 503.628 39.8047 503.378 38.3203C503.128 36.8203 503.003 35.1484 503.003 33.3047V20.2031C503.003 18.5625 503.167 17.0781 503.495 15.75C503.839 14.4219 504.362 13.2891 505.065 12.3516C505.784 11.4141 506.714 10.6953 507.854 10.1953C508.995 9.67969 510.37 9.42188 511.979 9.42188C513.62 9.42188 514.987 9.67188 516.081 10.1719C517.175 10.6719 518.034 11.3984 518.659 12.3516C519.3 13.3047 519.753 14.4531 520.019 15.7969C520.3 17.125 520.44 18.6328 520.44 20.3203V27.8438H509.261V34.7578C509.261 36.4609 509.394 37.8281 509.659 38.8594C509.925 39.8906 510.651 40.4062 511.839 40.4062C512.636 40.4062 513.198 40.1641 513.526 39.6797C513.87 39.1953 514.073 38.5312 514.136 37.6875C514.214 36.8281 514.253 35.8516 514.253 34.7578V31.6641H520.394V33.5391C520.394 35.4297 520.276 37.1094 520.042 38.5781C519.823 40.0469 519.401 41.2891 518.776 42.3047C518.167 43.3203 517.292 44.0938 516.151 44.625C515.011 45.1562 513.526 45.4219 511.698 45.4219ZM509.237 24.2109H514.253V19.7109C514.253 18.5391 514.198 17.5547 514.089 16.7578C513.979 15.9453 513.761 15.3359 513.433 14.9297C513.104 14.5234 512.604 14.3203 511.933 14.3203C511.104 14.3203 510.495 14.5625 510.104 15.0469C509.729 15.5312 509.487 16.1953 509.378 17.0391C509.284 17.8672 509.237 18.8125 509.237 19.875V24.2109Z" stroke="#D9E6E7" stroke-width="2" mask="url(#path-1-outside-1_127_2790)"/>
<path d="M532.956 45.4453C530.128 45.4453 528.026 44.6406 526.651 43.0312C525.276 41.4219 524.589 38.7891 524.589 35.1328V32.8594H530.425V35.6953C530.425 37.2266 530.612 38.3906 530.987 39.1875C531.362 39.9844 531.972 40.3828 532.815 40.3828C533.628 40.3828 534.229 40.1094 534.62 39.5625C535.011 39.0156 535.206 38.0703 535.206 36.7266C535.206 35.9453 535.089 35.1875 534.854 34.4531C534.636 33.7188 534.284 33 533.8 32.2969C533.331 31.5781 532.722 30.8828 531.972 30.2109L528.808 27.3516C527.354 26.0391 526.269 24.625 525.55 23.1094C524.831 21.5781 524.472 19.8906 524.472 18.0469C524.472 15.0625 525.167 12.8828 526.558 11.5078C527.964 10.1172 530.042 9.42188 532.792 9.42188C534.573 9.42188 536.05 9.75781 537.222 10.4297C538.394 11.0859 539.269 12.1562 539.847 13.6406C540.425 15.125 540.714 17.1172 540.714 19.6172V21.5391H535.159V19.2188C535.159 17.6719 534.979 16.5 534.62 15.7031C534.276 14.9062 533.683 14.5078 532.839 14.5078C532.011 14.5078 531.401 14.7422 531.011 15.2109C530.62 15.6641 530.409 16.4688 530.378 17.625C530.362 18.25 530.44 18.8672 530.612 19.4766C530.784 20.0703 531.05 20.6562 531.409 21.2344C531.784 21.7969 532.269 22.3516 532.862 22.8984L536.19 25.9219C537.94 27.5 539.229 29.1484 540.058 30.8672C540.901 32.5859 541.323 34.4453 541.323 36.4453C541.323 39.3984 540.651 41.6406 539.308 43.1719C537.964 44.6875 535.847 45.4453 532.956 45.4453Z" stroke="#D9E6E7" stroke-width="2" mask="url(#path-1-outside-1_127_2790)"/>
<defs>
<filter id="filter0_ii_127_2790" x="-0.74707" y="-0.78125" width="546.07" height="55.058" filterUnits="userSpaceOnUse" color-interpolation-filters="sRGB">
<feFlood flood-opacity="0" result="BackgroundImageFix"/>
<feBlend mode="normal" in="SourceGraphic" in2="BackgroundImageFix" result="shape"/>
<feColorMatrix in="SourceAlpha" type="matrix" values="0 0 0 0 0 0 0 0 0 0 0 0 0 0 0 0 0 0 127 0" result="hardAlpha"/>
<feOffset dx="-1" dy="-1"/>
<feGaussianBlur stdDeviation="1.5"/>
<feComposite in2="hardAlpha" operator="arithmetic" k2="-1" k3="1"/>
<feColorMatrix type="matrix" values="0 0 0 0 0.984314 0 0 0 0 0.984314 0 0 0 0 0.984314 0 0 0 1 0"/>
<feBlend mode="normal" in2="shape" result="effect1_innerShadow_127_2790"/>
<feColorMatrix in="SourceAlpha" type="matrix" values="0 0 0 0 0 0 0 0 0 0 0 0 0 0 0 0 0 0 127 0" result="hardAlpha"/>
<feOffset dx="3" dy="3"/>
<feGaussianBlur stdDeviation="4.5"/>
<feComposite in2="hardAlpha" operator="arithmetic" k2="-1" k3="1"/>
<feColorMatrix type="matrix" values="0 0 0 0 0.772549 0 0 0 0 0.772549 0 0 0 0 0.772549 0 0 0 1 0"/>
<feBlend mode="normal" in2="effect1_innerShadow_127_2790" result="effect2_innerShadow_127_2790"/>
</filter>
</defs>
</svg>
