<svg width="125" height="84" viewBox="0 0 125 84" fill="none" xmlns="http://www.w3.org/2000/svg">
<g id="interaction_icon" filter="url(#filter0_ii_72_1722)">
<path d="M62.4092 0C34.2053 0 9.52307 9.11555 9.52307 9.11555L6.90284 10.0788L6.62447 12.7034L0.68589 57.994C-0.918058 70.5251 8.03842 82.2078 20.5695 83.8162C32.2346 85.3185 42.6978 77.4446 45.4241 66.2788H79.3942C82.1337 77.4446 92.5793 85.3185 104.249 83.8162C116.78 82.2078 125.736 70.5251 124.132 57.994L118.194 12.7034L117.915 10.0788L115.295 9.11113C115.295 9.11113 90.613 0 62.4092 0ZM62.4092 8.83718C86.6407 8.83718 106.63 15.5667 109.909 16.7067L115.295 59.2356C115.545 61.0692 115.428 62.9343 114.951 64.7223C114.474 66.5103 113.646 68.1856 112.515 69.6506C111.384 71.1156 109.973 72.3411 108.365 73.2559C106.756 74.1707 104.981 74.7564 103.144 74.979C95.3586 75.9776 88.2667 70.609 87.2637 62.8279L87.1267 61.3079L86.5744 57.4417H38.2395L37.6872 61.3079L37.5502 62.8279C36.5472 70.609 29.4553 75.9776 21.6698 74.979C19.8326 74.7564 18.058 74.1707 16.4493 73.2559C14.8405 72.3411 13.4298 71.1156 12.2991 69.6506C11.1683 68.1856 10.3402 66.5103 9.86288 64.7223C9.38555 62.9343 9.26854 61.0692 9.51865 59.2356L14.9049 16.7067C18.1879 15.5667 38.1776 8.83718 62.4092 8.83718ZM31.479 22.0929V30.9301H22.6419V39.7673H31.479V48.6045H40.3162V39.7673H49.1534V30.9301H40.3162V22.0929H31.479ZM88.9207 22.0929C86.4905 22.0929 84.5021 24.0813 84.5021 26.5115C84.5021 28.9418 86.4905 30.9301 88.9207 30.9301C91.3509 30.9301 93.3393 28.9418 93.3393 26.5115C93.3393 24.0813 91.3509 22.0929 88.9207 22.0929ZM80.0835 30.9301C77.6533 30.9301 75.6649 32.9185 75.6649 35.3487C75.6649 37.7789 77.6533 39.7673 80.0835 39.7673C82.5137 39.7673 84.5021 37.7789 84.5021 35.3487C84.5021 32.9185 82.5137 30.9301 80.0835 30.9301ZM97.7579 30.9301C95.3276 30.9301 93.3393 32.9185 93.3393 35.3487C93.3393 37.7789 95.3276 39.7673 97.7579 39.7673C100.188 39.7673 102.176 37.7789 102.176 35.3487C102.176 32.9185 100.188 30.9301 97.7579 30.9301ZM88.9207 39.7673C86.4905 39.7673 84.5021 41.7557 84.5021 44.1859C84.5021 46.6161 86.4905 48.6045 88.9207 48.6045C91.3509 48.6045 93.3393 46.6161 93.3393 44.1859C93.3393 41.7557 91.3509 39.7673 88.9207 39.7673Z" fill="#E0E0E0"/>
</g>
<defs>
<filter id="filter0_ii_72_1722" x="-0.5" y="-1" width="125.818" height="86" filterUnits="userSpaceOnUse" color-interpolation-filters="sRGB">
<feFlood flood-opacity="0" result="BackgroundImageFix"/>
<feBlend mode="normal" in="SourceGraphic" in2="BackgroundImageFix" result="shape"/>
<feColorMatrix in="SourceAlpha" type="matrix" values="0 0 0 0 0 0 0 0 0 0 0 0 0 0 0 0 0 0 127 0" result="hardAlpha"/>
<feOffset dx="1" dy="1"/>
<feGaussianBlur stdDeviation="1.5"/>
<feComposite in2="hardAlpha" operator="arithmetic" k2="-1" k3="1"/>
<feColorMatrix type="matrix" values="0 0 0 0 0.772549 0 0 0 0 0.772549 0 0 0 0 0.772549 0 0 0 1 0"/>
<feBlend mode="normal" in2="shape" result="effect1_innerShadow_72_1722"/>
<feColorMatrix in="SourceAlpha" type="matrix" values="0 0 0 0 0 0 0 0 0 0 0 0 0 0 0 0 0 0 127 0" result="hardAlpha"/>
<feOffset dx="-1" dy="-1"/>
<feGaussianBlur stdDeviation="1.5"/>
<feComposite in2="hardAlpha" operator="arithmetic" k2="-1" k3="1"/>
<feColorMatrix type="matrix" values="0 0 0 0 0.984314 0 0 0 0 0.984314 0 0 0 0 0.984314 0 0 0 1 0"/>
<feBlend mode="normal" in2="effect1_innerShadow_72_1722" result="effect2_innerShadow_72_1722"/>
</filter>
</defs>
</svg>
