<svg width="398" height="53" viewBox="0 0 398 53" fill="none" xmlns="http://www.w3.org/2000/svg">
<mask id="path-1-outside-1_127_2784" maskUnits="userSpaceOnUse" x="0.112305" y="0.21875" width="398" height="53" fill="black">
<rect fill="white" x="0.112305" y="0.21875" width="398" height="53"/>
<path d="M9.69043 45.4688C6.9873 45.4688 4.87793 44.6641 3.3623 43.0547C1.8623 41.4297 1.1123 39.0391 1.1123 35.8828V28.5234H7.18262V35.5781C7.18262 36.3906 7.22949 37.1406 7.32324 37.8281C7.43262 38.5156 7.65137 39.0625 7.97949 39.4688C8.30762 39.875 8.81543 40.0781 9.50293 40.0781C10.1904 40.0781 10.6982 39.8828 11.0264 39.4922C11.3545 39.0859 11.5732 38.5234 11.6826 37.8047C11.792 37.0703 11.8467 36.2031 11.8467 35.2031V3.75H18.1279V34.8984C18.1279 38.2891 17.3779 40.8984 15.8779 42.7266C14.3936 44.5547 12.3311 45.4688 9.69043 45.4688Z"/>
<path d="M30.1514 45.3516C27.7451 45.3516 26.0732 44.4766 25.1357 42.7266C24.2139 40.9766 23.7373 38.6562 23.7061 35.7656V33.5156C23.7061 31.6406 23.9717 30.1172 24.5029 28.9453C25.0498 27.7734 25.8232 26.8203 26.8232 26.0859C27.8232 25.3516 29.0186 24.7109 30.4092 24.1641C31.7998 23.6172 33.3467 23.0312 35.0498 22.4062V19.3359C35.0498 18.1484 35.0029 17.2031 34.9092 16.5C34.8154 15.7812 34.6045 15.2578 34.2764 14.9297C33.9482 14.6016 33.4404 14.4375 32.7529 14.4375C32.0811 14.4375 31.5654 14.6094 31.2061 14.9531C30.8623 15.2812 30.6279 15.7969 30.5029 16.5C30.3779 17.1875 30.3154 18.0703 30.3154 19.1484V20.7188H24.1748V19.6641C24.1748 18.0547 24.3076 16.6172 24.5732 15.3516C24.8545 14.0859 25.3232 13.0156 25.9795 12.1406C26.6357 11.25 27.5264 10.5781 28.6514 10.125C29.792 9.65625 31.2217 9.42188 32.9404 9.42188C34.4561 9.42188 35.7529 9.64062 36.8311 10.0781C37.9092 10.5 38.7842 11.1406 39.4561 12C40.1279 12.8438 40.6201 13.9062 40.9326 15.1875C41.2451 16.4688 41.4014 17.9609 41.4014 19.6641V45H35.1436V41.5078C34.9561 42.1797 34.6357 42.8125 34.1826 43.4062C33.7295 43.9844 33.1592 44.4531 32.4717 44.8125C31.7998 45.1719 31.0264 45.3516 30.1514 45.3516ZM32.3076 40.5703C33.0889 40.5703 33.7139 40.2891 34.1826 39.7266C34.6514 39.1641 34.9404 38.5938 35.0498 38.0156V25.9219C34.1123 26.3438 33.3232 26.7422 32.6826 27.1172C32.042 27.4766 31.5264 27.875 31.1357 28.3125C30.7451 28.75 30.4639 29.2656 30.292 29.8594C30.1201 30.4531 30.0342 31.1797 30.0342 32.0391V35.9766C30.0342 37.5859 30.1982 38.7578 30.5264 39.4922C30.8701 40.2109 31.4639 40.5703 32.3076 40.5703Z"/>
<path d="M50.2607 45L45.1748 9.84375H51.0342L53.3076 28.5469L54.0811 36.9609H54.5498L55.2061 28.5234L57.1514 9.84375H62.9639L57.8779 45H50.2607Z"/>
<path d="M72.8545 45.3516C70.4482 45.3516 68.7764 44.4766 67.8389 42.7266C66.917 40.9766 66.4404 38.6562 66.4092 35.7656V33.5156C66.4092 31.6406 66.6748 30.1172 67.2061 28.9453C67.7529 27.7734 68.5264 26.8203 69.5264 26.0859C70.5264 25.3516 71.7217 24.7109 73.1123 24.1641C74.5029 23.6172 76.0498 23.0312 77.7529 22.4062V19.3359C77.7529 18.1484 77.7061 17.2031 77.6123 16.5C77.5186 15.7812 77.3076 15.2578 76.9795 14.9297C76.6514 14.6016 76.1436 14.4375 75.4561 14.4375C74.7842 14.4375 74.2686 14.6094 73.9092 14.9531C73.5654 15.2812 73.3311 15.7969 73.2061 16.5C73.0811 17.1875 73.0186 18.0703 73.0186 19.1484V20.7188H66.8779V19.6641C66.8779 18.0547 67.0107 16.6172 67.2764 15.3516C67.5576 14.0859 68.0264 13.0156 68.6826 12.1406C69.3389 11.25 70.2295 10.5781 71.3545 10.125C72.4951 9.65625 73.9248 9.42188 75.6436 9.42188C77.1592 9.42188 78.4561 9.64062 79.5342 10.0781C80.6123 10.5 81.4873 11.1406 82.1592 12C82.8311 12.8438 83.3232 13.9062 83.6357 15.1875C83.9482 16.4688 84.1045 17.9609 84.1045 19.6641V45H77.8467V41.5078C77.6592 42.1797 77.3389 42.8125 76.8857 43.4062C76.4326 43.9844 75.8623 44.4531 75.1748 44.8125C74.5029 45.1719 73.7295 45.3516 72.8545 45.3516ZM75.0107 40.5703C75.792 40.5703 76.417 40.2891 76.8857 39.7266C77.3545 39.1641 77.6436 38.5938 77.7529 38.0156V25.9219C76.8154 26.3438 76.0264 26.7422 75.3857 27.1172C74.7451 27.4766 74.2295 27.875 73.8389 28.3125C73.4482 28.75 73.167 29.2656 72.9951 29.8594C72.8232 30.4531 72.7373 31.1797 72.7373 32.0391V35.9766C72.7373 37.5859 72.9014 38.7578 73.2295 39.4922C73.5732 40.2109 74.167 40.5703 75.0107 40.5703Z"/>
<path d="M97.1357 45.4453C94.3076 45.4453 92.2061 44.6406 90.8311 43.0312C89.4561 41.4219 88.7686 38.7891 88.7686 35.1328V32.8594H94.6045V35.6953C94.6045 37.2266 94.792 38.3906 95.167 39.1875C95.542 39.9844 96.1514 40.3828 96.9951 40.3828C97.8076 40.3828 98.4092 40.1094 98.7998 39.5625C99.1904 39.0156 99.3857 38.0703 99.3857 36.7266C99.3857 35.9453 99.2686 35.1875 99.0342 34.4531C98.8154 33.7188 98.4639 33 97.9795 32.2969C97.5107 31.5781 96.9014 30.8828 96.1514 30.2109L92.9873 27.3516C91.5342 26.0391 90.4482 24.625 89.7295 23.1094C89.0107 21.5781 88.6514 19.8906 88.6514 18.0469C88.6514 15.0625 89.3467 12.8828 90.7373 11.5078C92.1436 10.1172 94.2217 9.42188 96.9717 9.42188C98.7529 9.42188 100.229 9.75781 101.401 10.4297C102.573 11.0859 103.448 12.1562 104.026 13.6406C104.604 15.125 104.894 17.1172 104.894 19.6172V21.5391H99.3389V19.2188C99.3389 17.6719 99.1592 16.5 98.7998 15.7031C98.4561 14.9062 97.8623 14.5078 97.0186 14.5078C96.1904 14.5078 95.5811 14.7422 95.1904 15.2109C94.7998 15.6641 94.5889 16.4688 94.5576 17.625C94.542 18.25 94.6201 18.8672 94.792 19.4766C94.9639 20.0703 95.2295 20.6562 95.5889 21.2344C95.9639 21.7969 96.4482 22.3516 97.042 22.8984L100.37 25.9219C102.12 27.5 103.409 29.1484 104.237 30.8672C105.081 32.5859 105.503 34.4453 105.503 36.4453C105.503 39.3984 104.831 41.6406 103.487 43.1719C102.144 44.6875 100.026 45.4453 97.1357 45.4453Z"/>
<path d="M118.558 45.4219C116.761 45.4219 115.276 45.1484 114.104 44.6016C112.933 44.0391 112.011 43.2344 111.339 42.1875C110.683 41.1406 110.222 39.8672 109.956 38.3672C109.69 36.8672 109.558 35.1719 109.558 33.2812V21.8906C109.558 19.2969 109.8 17.0703 110.284 15.2109C110.769 13.3516 111.659 11.9219 112.956 10.9219C114.269 9.92188 116.159 9.42188 118.628 9.42188C120.144 9.42188 121.425 9.65625 122.472 10.125C123.519 10.5938 124.362 11.2734 125.003 12.1641C125.644 13.0391 126.104 14.1016 126.386 15.3516C126.683 16.6016 126.831 18.0078 126.831 19.5703V23.4375H120.831V19.3594C120.831 18.3438 120.784 17.4766 120.69 16.7578C120.597 16.0234 120.386 15.4688 120.058 15.0938C119.729 14.7031 119.206 14.5078 118.487 14.5078C117.784 14.5078 117.237 14.7031 116.847 15.0938C116.456 15.4844 116.183 16.0547 116.026 16.8047C115.886 17.5391 115.815 18.4219 115.815 19.4531V35.2969C115.815 36.3594 115.878 37.2656 116.003 38.0156C116.144 38.7656 116.394 39.3438 116.753 39.75C117.128 40.1406 117.675 40.3359 118.394 40.3359C119.097 40.3359 119.62 40.1328 119.964 39.7266C120.323 39.3047 120.558 38.7188 120.667 37.9688C120.776 37.2188 120.831 36.3359 120.831 35.3203V31.1484H126.831V34.7109C126.831 36.3203 126.69 37.7891 126.409 39.1172C126.128 40.4297 125.667 41.5547 125.026 42.4922C124.386 43.4297 123.534 44.1562 122.472 44.6719C121.409 45.1719 120.104 45.4219 118.558 45.4219Z"/>
<path d="M132.058 45V9.84375H138.315V13.7578C138.722 12.3984 139.425 11.3359 140.425 10.5703C141.44 9.80469 142.729 9.42188 144.292 9.42188C144.323 9.42188 144.339 9.6875 144.339 10.2188C144.354 10.75 144.362 11.3594 144.362 12.0469C144.362 12.7344 144.362 13.3438 144.362 13.875C144.362 14.4062 144.362 14.6719 144.362 14.6719C143.644 14.6719 142.862 14.7578 142.019 14.9297C141.19 15.1016 140.433 15.3672 139.745 15.7266C139.073 16.0703 138.597 16.5312 138.315 17.1094V45H132.058Z"/>
<path d="M148.511 45V9.84375H154.722V45H148.511ZM148.487 6.60938V1.21875H154.745V6.60938H148.487Z"/>
<path d="M161.026 51.6797V9.84375H167.237V13.0078C167.69 11.8516 168.401 10.9766 169.37 10.3828C170.339 9.78906 171.315 9.49219 172.3 9.49219C174.097 9.49219 175.456 9.97656 176.378 10.9453C177.3 11.8984 177.925 13.2031 178.253 14.8594C178.581 16.5156 178.745 18.375 178.745 20.4375V33.2578C178.745 35.5078 178.589 37.5547 178.276 39.3984C177.964 41.2422 177.3 42.7109 176.284 43.8047C175.284 44.8828 173.753 45.4219 171.69 45.4219C170.737 45.4219 169.87 45.1641 169.089 44.6484C168.308 44.1328 167.69 43.5391 167.237 42.8672V51.6797H161.026ZM169.979 40.3828C171.026 40.3828 171.706 39.875 172.019 38.8594C172.331 37.8281 172.487 36.3594 172.487 34.4531V19.875C172.487 18.8594 172.433 17.9453 172.323 17.1328C172.229 16.3047 172.011 15.6484 171.667 15.1641C171.323 14.6797 170.776 14.4375 170.026 14.4375C169.448 14.4375 168.948 14.5859 168.526 14.8828C168.12 15.1797 167.8 15.7188 167.565 16.5C167.347 17.2812 167.237 18.3984 167.237 19.8516V34.7109C167.237 36.5078 167.409 37.9062 167.753 38.9062C168.097 39.8906 168.839 40.3828 169.979 40.3828Z"/>
<path d="M190.745 45.2344C189.245 45.2344 188.097 45.0469 187.3 44.6719C186.503 44.2812 185.956 43.6719 185.659 42.8438C185.362 42.0156 185.214 40.9453 185.214 39.6328V15.0703H182.354V10.5703H185.214V3.75H191.425V10.5703H194.847V15.0703H191.425V38.5547C191.425 39.1016 191.511 39.5156 191.683 39.7969C191.854 40.0781 192.19 40.2656 192.69 40.3594C193.206 40.4531 193.964 40.5 194.964 40.5V45.2344H190.745Z"/>
<path d="M207.995 45V3.75H218.378C220.534 3.75 222.144 4.17188 223.206 5.01562C224.269 5.85938 224.964 7.09375 225.292 8.71875C225.636 10.3438 225.808 12.3281 225.808 14.6719C225.808 17.0938 225.558 19 225.058 20.3906C224.573 21.7656 223.573 22.6875 222.058 23.1562C222.776 23.2812 223.378 23.5781 223.862 24.0469C224.347 24.5 224.737 25.1719 225.034 26.0625C225.331 26.9375 225.542 28.0703 225.667 29.4609C225.808 30.8359 225.878 32.5234 225.878 34.5234C225.878 34.6797 225.878 35.1172 225.878 35.8359C225.878 36.5547 225.878 37.4062 225.878 38.3906C225.894 39.3594 225.909 40.3281 225.925 41.2969C225.94 42.2656 225.964 43.0938 225.995 43.7812C226.026 44.4688 226.065 44.875 226.112 45H219.831C219.784 44.9219 219.745 44.5234 219.714 43.8047C219.698 43.0703 219.675 42.1406 219.644 41.0156C219.628 39.8906 219.612 38.6797 219.597 37.3828C219.597 36.0859 219.597 34.8125 219.597 33.5625C219.597 32.2969 219.597 31.1797 219.597 30.2109C219.597 28.9766 219.503 28.0469 219.315 27.4219C219.144 26.7812 218.815 26.3359 218.331 26.0859C217.862 25.8359 217.183 25.6875 216.292 25.6406L214.276 25.5234V45H207.995ZM214.3 20.6484H216.808C217.573 20.6484 218.151 20.4766 218.542 20.1328C218.948 19.7891 219.222 19.1562 219.362 18.2344C219.519 17.3125 219.597 15.9844 219.597 14.25V13.9922C219.597 12.5391 219.526 11.4219 219.386 10.6406C219.245 9.85938 218.948 9.32031 218.495 9.02344C218.058 8.72656 217.37 8.57812 216.433 8.57812H214.3V20.6484Z"/>
<path d="M239.425 45.4219C237.659 45.4219 236.206 45.1406 235.065 44.5781C233.94 44.0156 233.058 43.2031 232.417 42.1406C231.792 41.0781 231.354 39.8047 231.104 38.3203C230.854 36.8203 230.729 35.1484 230.729 33.3047V20.2031C230.729 18.5625 230.894 17.0781 231.222 15.75C231.565 14.4219 232.089 13.2891 232.792 12.3516C233.511 11.4141 234.44 10.6953 235.581 10.1953C236.722 9.67969 238.097 9.42188 239.706 9.42188C241.347 9.42188 242.714 9.67188 243.808 10.1719C244.901 10.6719 245.761 11.3984 246.386 12.3516C247.026 13.3047 247.479 14.4531 247.745 15.7969C248.026 17.125 248.167 18.6328 248.167 20.3203V27.8438H236.987V34.7578C236.987 36.4609 237.12 37.8281 237.386 38.8594C237.651 39.8906 238.378 40.4062 239.565 40.4062C240.362 40.4062 240.925 40.1641 241.253 39.6797C241.597 39.1953 241.8 38.5312 241.862 37.6875C241.94 36.8281 241.979 35.8516 241.979 34.7578V31.6641H248.12V33.5391C248.12 35.4297 248.003 37.1094 247.769 38.5781C247.55 40.0469 247.128 41.2891 246.503 42.3047C245.894 43.3203 245.019 44.0938 243.878 44.625C242.737 45.1562 241.253 45.4219 239.425 45.4219ZM236.964 24.2109H241.979V19.7109C241.979 18.5391 241.925 17.5547 241.815 16.7578C241.706 15.9453 241.487 15.3359 241.159 14.9297C240.831 14.5234 240.331 14.3203 239.659 14.3203C238.831 14.3203 238.222 14.5625 237.831 15.0469C237.456 15.5312 237.214 16.1953 237.104 17.0391C237.011 17.8672 236.964 18.8125 236.964 19.875V24.2109Z"/>
<path d="M260.683 45.4453C257.854 45.4453 255.753 44.6406 254.378 43.0312C253.003 41.4219 252.315 38.7891 252.315 35.1328V32.8594H258.151V35.6953C258.151 37.2266 258.339 38.3906 258.714 39.1875C259.089 39.9844 259.698 40.3828 260.542 40.3828C261.354 40.3828 261.956 40.1094 262.347 39.5625C262.737 39.0156 262.933 38.0703 262.933 36.7266C262.933 35.9453 262.815 35.1875 262.581 34.4531C262.362 33.7188 262.011 33 261.526 32.2969C261.058 31.5781 260.448 30.8828 259.698 30.2109L256.534 27.3516C255.081 26.0391 253.995 24.625 253.276 23.1094C252.558 21.5781 252.198 19.8906 252.198 18.0469C252.198 15.0625 252.894 12.8828 254.284 11.5078C255.69 10.1172 257.769 9.42188 260.519 9.42188C262.3 9.42188 263.776 9.75781 264.948 10.4297C266.12 11.0859 266.995 12.1562 267.573 13.6406C268.151 15.125 268.44 17.1172 268.44 19.6172V21.5391H262.886V19.2188C262.886 17.6719 262.706 16.5 262.347 15.7031C262.003 14.9062 261.409 14.5078 260.565 14.5078C259.737 14.5078 259.128 14.7422 258.737 15.2109C258.347 15.6641 258.136 16.4688 258.104 17.625C258.089 18.25 258.167 18.8672 258.339 19.4766C258.511 20.0703 258.776 20.6562 259.136 21.2344C259.511 21.7969 259.995 22.3516 260.589 22.8984L263.917 25.9219C265.667 27.5 266.956 29.1484 267.784 30.8672C268.628 32.5859 269.05 34.4453 269.05 36.4453C269.05 39.3984 268.378 41.6406 267.034 43.1719C265.69 44.6875 263.573 45.4453 260.683 45.4453Z"/>
<path d="M281.917 45.4219C280.229 45.4219 278.815 45.1641 277.675 44.6484C276.534 44.1172 275.628 43.3594 274.956 42.375C274.3 41.375 273.823 40.1641 273.526 38.7422C273.245 37.3047 273.104 35.6719 273.104 33.8438V20.6953C273.104 18.4922 273.386 16.5469 273.948 14.8594C274.526 13.1562 275.464 11.8281 276.761 10.875C278.058 9.90625 279.776 9.42188 281.917 9.42188C283.542 9.42188 284.909 9.69531 286.019 10.2422C287.144 10.7891 288.042 11.5703 288.714 12.5859C289.401 13.5859 289.901 14.7734 290.214 16.1484C290.526 17.5234 290.683 19.0391 290.683 20.6953V33.8438C290.683 35.6406 290.542 37.25 290.261 38.6719C289.995 40.0938 289.526 41.3125 288.854 42.3281C288.198 43.3281 287.308 44.0938 286.183 44.625C285.058 45.1562 283.636 45.4219 281.917 45.4219ZM281.917 40.4062C282.62 40.4062 283.151 40.1953 283.511 39.7734C283.87 39.3359 284.112 38.7344 284.237 37.9688C284.362 37.2031 284.425 36.3203 284.425 35.3203V19.5938C284.425 18.5312 284.354 17.6172 284.214 16.8516C284.073 16.0859 283.823 15.4922 283.464 15.0703C283.104 14.6484 282.589 14.4375 281.917 14.4375C281.214 14.4375 280.675 14.6484 280.3 15.0703C279.94 15.4922 279.69 16.0859 279.55 16.8516C279.425 17.6172 279.362 18.5312 279.362 19.5938V35.3203C279.362 36.3203 279.425 37.2031 279.55 37.9688C279.69 38.7344 279.94 39.3359 280.3 39.7734C280.675 40.1953 281.214 40.4062 281.917 40.4062Z"/>
<path d="M302.378 45.4453C300.987 45.4453 299.823 45.1328 298.886 44.5078C297.964 43.8828 297.269 42.9531 296.8 41.7188C296.347 40.4688 296.12 38.9062 296.12 37.0312V9.84375H302.354V36.0703C302.354 37.4141 302.519 38.4609 302.847 39.2109C303.175 39.9609 303.862 40.3359 304.909 40.3359C306.003 40.3359 306.745 39.9141 307.136 39.0703C307.542 38.2109 307.745 37.2266 307.745 36.1172L307.769 9.84375H313.956V45H307.745V41.3438C307.308 42.5312 306.675 43.5156 305.847 44.2969C305.019 45.0625 303.862 45.4453 302.378 45.4453Z"/>
<path d="M320.026 45V9.84375H326.284V13.7578C326.69 12.3984 327.394 11.3359 328.394 10.5703C329.409 9.80469 330.698 9.42188 332.261 9.42188C332.292 9.42188 332.308 9.6875 332.308 10.2188C332.323 10.75 332.331 11.3594 332.331 12.0469C332.331 12.7344 332.331 13.3438 332.331 13.875C332.331 14.4062 332.331 14.6719 332.331 14.6719C331.612 14.6719 330.831 14.7578 329.987 14.9297C329.159 15.1016 328.401 15.3672 327.714 15.7266C327.042 16.0703 326.565 16.5312 326.284 17.1094V45H320.026Z"/>
<path d="M344.87 45.4219C343.073 45.4219 341.589 45.1484 340.417 44.6016C339.245 44.0391 338.323 43.2344 337.651 42.1875C336.995 41.1406 336.534 39.8672 336.269 38.3672C336.003 36.8672 335.87 35.1719 335.87 33.2812V21.8906C335.87 19.2969 336.112 17.0703 336.597 15.2109C337.081 13.3516 337.972 11.9219 339.269 10.9219C340.581 9.92188 342.472 9.42188 344.94 9.42188C346.456 9.42188 347.737 9.65625 348.784 10.125C349.831 10.5938 350.675 11.2734 351.315 12.1641C351.956 13.0391 352.417 14.1016 352.698 15.3516C352.995 16.6016 353.144 18.0078 353.144 19.5703V23.4375H347.144V19.3594C347.144 18.3438 347.097 17.4766 347.003 16.7578C346.909 16.0234 346.698 15.4688 346.37 15.0938C346.042 14.7031 345.519 14.5078 344.8 14.5078C344.097 14.5078 343.55 14.7031 343.159 15.0938C342.769 15.4844 342.495 16.0547 342.339 16.8047C342.198 17.5391 342.128 18.4219 342.128 19.4531V35.2969C342.128 36.3594 342.19 37.2656 342.315 38.0156C342.456 38.7656 342.706 39.3438 343.065 39.75C343.44 40.1406 343.987 40.3359 344.706 40.3359C345.409 40.3359 345.933 40.1328 346.276 39.7266C346.636 39.3047 346.87 38.7188 346.979 37.9688C347.089 37.2188 347.144 36.3359 347.144 35.3203V31.1484H353.144V34.7109C353.144 36.3203 353.003 37.7891 352.722 39.1172C352.44 40.4297 351.979 41.5547 351.339 42.4922C350.698 43.4297 349.847 44.1562 348.784 44.6719C347.722 45.1719 346.417 45.4219 344.87 45.4219Z"/>
<path d="M366.55 45.4219C364.784 45.4219 363.331 45.1406 362.19 44.5781C361.065 44.0156 360.183 43.2031 359.542 42.1406C358.917 41.0781 358.479 39.8047 358.229 38.3203C357.979 36.8203 357.854 35.1484 357.854 33.3047V20.2031C357.854 18.5625 358.019 17.0781 358.347 15.75C358.69 14.4219 359.214 13.2891 359.917 12.3516C360.636 11.4141 361.565 10.6953 362.706 10.1953C363.847 9.67969 365.222 9.42188 366.831 9.42188C368.472 9.42188 369.839 9.67188 370.933 10.1719C372.026 10.6719 372.886 11.3984 373.511 12.3516C374.151 13.3047 374.604 14.4531 374.87 15.7969C375.151 17.125 375.292 18.6328 375.292 20.3203V27.8438H364.112V34.7578C364.112 36.4609 364.245 37.8281 364.511 38.8594C364.776 39.8906 365.503 40.4062 366.69 40.4062C367.487 40.4062 368.05 40.1641 368.378 39.6797C368.722 39.1953 368.925 38.5312 368.987 37.6875C369.065 36.8281 369.104 35.8516 369.104 34.7578V31.6641H375.245V33.5391C375.245 35.4297 375.128 37.1094 374.894 38.5781C374.675 40.0469 374.253 41.2891 373.628 42.3047C373.019 43.3203 372.144 44.0938 371.003 44.625C369.862 45.1562 368.378 45.4219 366.55 45.4219ZM364.089 24.2109H369.104V19.7109C369.104 18.5391 369.05 17.5547 368.94 16.7578C368.831 15.9453 368.612 15.3359 368.284 14.9297C367.956 14.5234 367.456 14.3203 366.784 14.3203C365.956 14.3203 365.347 14.5625 364.956 15.0469C364.581 15.5312 364.339 16.1953 364.229 17.0391C364.136 17.8672 364.089 18.8125 364.089 19.875V24.2109Z"/>
<path d="M387.808 45.4453C384.979 45.4453 382.878 44.6406 381.503 43.0312C380.128 41.4219 379.44 38.7891 379.44 35.1328V32.8594H385.276V35.6953C385.276 37.2266 385.464 38.3906 385.839 39.1875C386.214 39.9844 386.823 40.3828 387.667 40.3828C388.479 40.3828 389.081 40.1094 389.472 39.5625C389.862 39.0156 390.058 38.0703 390.058 36.7266C390.058 35.9453 389.94 35.1875 389.706 34.4531C389.487 33.7188 389.136 33 388.651 32.2969C388.183 31.5781 387.573 30.8828 386.823 30.2109L383.659 27.3516C382.206 26.0391 381.12 24.625 380.401 23.1094C379.683 21.5781 379.323 19.8906 379.323 18.0469C379.323 15.0625 380.019 12.8828 381.409 11.5078C382.815 10.1172 384.894 9.42188 387.644 9.42188C389.425 9.42188 390.901 9.75781 392.073 10.4297C393.245 11.0859 394.12 12.1562 394.698 13.6406C395.276 15.125 395.565 17.1172 395.565 19.6172V21.5391H390.011V19.2188C390.011 17.6719 389.831 16.5 389.472 15.7031C389.128 14.9062 388.534 14.5078 387.69 14.5078C386.862 14.5078 386.253 14.7422 385.862 15.2109C385.472 15.6641 385.261 16.4688 385.229 17.625C385.214 18.25 385.292 18.8672 385.464 19.4766C385.636 20.0703 385.901 20.6562 386.261 21.2344C386.636 21.7969 387.12 22.3516 387.714 22.8984L391.042 25.9219C392.792 27.5 394.081 29.1484 394.909 30.8672C395.753 32.5859 396.175 34.4453 396.175 36.4453C396.175 39.3984 395.503 41.6406 394.159 43.1719C392.815 44.6875 390.698 45.4453 387.808 45.4453Z"/>
</mask>
<g filter="url(#filter0_ii_127_2784)">
<path d="M9.69043 45.4688C6.9873 45.4688 4.87793 44.6641 3.3623 43.0547C1.8623 41.4297 1.1123 39.0391 1.1123 35.8828V28.5234H7.18262V35.5781C7.18262 36.3906 7.22949 37.1406 7.32324 37.8281C7.43262 38.5156 7.65137 39.0625 7.97949 39.4688C8.30762 39.875 8.81543 40.0781 9.50293 40.0781C10.1904 40.0781 10.6982 39.8828 11.0264 39.4922C11.3545 39.0859 11.5732 38.5234 11.6826 37.8047C11.792 37.0703 11.8467 36.2031 11.8467 35.2031V3.75H18.1279V34.8984C18.1279 38.2891 17.3779 40.8984 15.8779 42.7266C14.3936 44.5547 12.3311 45.4688 9.69043 45.4688Z" fill="#D1DADB"/>
<path d="M30.1514 45.3516C27.7451 45.3516 26.0732 44.4766 25.1357 42.7266C24.2139 40.9766 23.7373 38.6562 23.7061 35.7656V33.5156C23.7061 31.6406 23.9717 30.1172 24.5029 28.9453C25.0498 27.7734 25.8232 26.8203 26.8232 26.0859C27.8232 25.3516 29.0186 24.7109 30.4092 24.1641C31.7998 23.6172 33.3467 23.0312 35.0498 22.4062V19.3359C35.0498 18.1484 35.0029 17.2031 34.9092 16.5C34.8154 15.7812 34.6045 15.2578 34.2764 14.9297C33.9482 14.6016 33.4404 14.4375 32.7529 14.4375C32.0811 14.4375 31.5654 14.6094 31.2061 14.9531C30.8623 15.2812 30.6279 15.7969 30.5029 16.5C30.3779 17.1875 30.3154 18.0703 30.3154 19.1484V20.7188H24.1748V19.6641C24.1748 18.0547 24.3076 16.6172 24.5732 15.3516C24.8545 14.0859 25.3232 13.0156 25.9795 12.1406C26.6357 11.25 27.5264 10.5781 28.6514 10.125C29.792 9.65625 31.2217 9.42188 32.9404 9.42188C34.4561 9.42188 35.7529 9.64062 36.8311 10.0781C37.9092 10.5 38.7842 11.1406 39.4561 12C40.1279 12.8438 40.6201 13.9062 40.9326 15.1875C41.2451 16.4688 41.4014 17.9609 41.4014 19.6641V45H35.1436V41.5078C34.9561 42.1797 34.6357 42.8125 34.1826 43.4062C33.7295 43.9844 33.1592 44.4531 32.4717 44.8125C31.7998 45.1719 31.0264 45.3516 30.1514 45.3516ZM32.3076 40.5703C33.0889 40.5703 33.7139 40.2891 34.1826 39.7266C34.6514 39.1641 34.9404 38.5938 35.0498 38.0156V25.9219C34.1123 26.3438 33.3232 26.7422 32.6826 27.1172C32.042 27.4766 31.5264 27.875 31.1357 28.3125C30.7451 28.75 30.4639 29.2656 30.292 29.8594C30.1201 30.4531 30.0342 31.1797 30.0342 32.0391V35.9766C30.0342 37.5859 30.1982 38.7578 30.5264 39.4922C30.8701 40.2109 31.4639 40.5703 32.3076 40.5703Z" fill="#D1DADB"/>
<path d="M50.2607 45L45.1748 9.84375H51.0342L53.3076 28.5469L54.0811 36.9609H54.5498L55.2061 28.5234L57.1514 9.84375H62.9639L57.8779 45H50.2607Z" fill="#D1DADB"/>
<path d="M72.8545 45.3516C70.4482 45.3516 68.7764 44.4766 67.8389 42.7266C66.917 40.9766 66.4404 38.6562 66.4092 35.7656V33.5156C66.4092 31.6406 66.6748 30.1172 67.2061 28.9453C67.7529 27.7734 68.5264 26.8203 69.5264 26.0859C70.5264 25.3516 71.7217 24.7109 73.1123 24.1641C74.5029 23.6172 76.0498 23.0312 77.7529 22.4062V19.3359C77.7529 18.1484 77.7061 17.2031 77.6123 16.5C77.5186 15.7812 77.3076 15.2578 76.9795 14.9297C76.6514 14.6016 76.1436 14.4375 75.4561 14.4375C74.7842 14.4375 74.2686 14.6094 73.9092 14.9531C73.5654 15.2812 73.3311 15.7969 73.2061 16.5C73.0811 17.1875 73.0186 18.0703 73.0186 19.1484V20.7188H66.8779V19.6641C66.8779 18.0547 67.0107 16.6172 67.2764 15.3516C67.5576 14.0859 68.0264 13.0156 68.6826 12.1406C69.3389 11.25 70.2295 10.5781 71.3545 10.125C72.4951 9.65625 73.9248 9.42188 75.6436 9.42188C77.1592 9.42188 78.4561 9.64062 79.5342 10.0781C80.6123 10.5 81.4873 11.1406 82.1592 12C82.8311 12.8438 83.3232 13.9062 83.6357 15.1875C83.9482 16.4688 84.1045 17.9609 84.1045 19.6641V45H77.8467V41.5078C77.6592 42.1797 77.3389 42.8125 76.8857 43.4062C76.4326 43.9844 75.8623 44.4531 75.1748 44.8125C74.5029 45.1719 73.7295 45.3516 72.8545 45.3516ZM75.0107 40.5703C75.792 40.5703 76.417 40.2891 76.8857 39.7266C77.3545 39.1641 77.6436 38.5938 77.7529 38.0156V25.9219C76.8154 26.3438 76.0264 26.7422 75.3857 27.1172C74.7451 27.4766 74.2295 27.875 73.8389 28.3125C73.4482 28.75 73.167 29.2656 72.9951 29.8594C72.8232 30.4531 72.7373 31.1797 72.7373 32.0391V35.9766C72.7373 37.5859 72.9014 38.7578 73.2295 39.4922C73.5732 40.2109 74.167 40.5703 75.0107 40.5703Z" fill="#D1DADB"/>
<path d="M97.1357 45.4453C94.3076 45.4453 92.2061 44.6406 90.8311 43.0312C89.4561 41.4219 88.7686 38.7891 88.7686 35.1328V32.8594H94.6045V35.6953C94.6045 37.2266 94.792 38.3906 95.167 39.1875C95.542 39.9844 96.1514 40.3828 96.9951 40.3828C97.8076 40.3828 98.4092 40.1094 98.7998 39.5625C99.1904 39.0156 99.3857 38.0703 99.3857 36.7266C99.3857 35.9453 99.2686 35.1875 99.0342 34.4531C98.8154 33.7188 98.4639 33 97.9795 32.2969C97.5107 31.5781 96.9014 30.8828 96.1514 30.2109L92.9873 27.3516C91.5342 26.0391 90.4482 24.625 89.7295 23.1094C89.0107 21.5781 88.6514 19.8906 88.6514 18.0469C88.6514 15.0625 89.3467 12.8828 90.7373 11.5078C92.1436 10.1172 94.2217 9.42188 96.9717 9.42188C98.7529 9.42188 100.229 9.75781 101.401 10.4297C102.573 11.0859 103.448 12.1562 104.026 13.6406C104.604 15.125 104.894 17.1172 104.894 19.6172V21.5391H99.3389V19.2188C99.3389 17.6719 99.1592 16.5 98.7998 15.7031C98.4561 14.9062 97.8623 14.5078 97.0186 14.5078C96.1904 14.5078 95.5811 14.7422 95.1904 15.2109C94.7998 15.6641 94.5889 16.4688 94.5576 17.625C94.542 18.25 94.6201 18.8672 94.792 19.4766C94.9639 20.0703 95.2295 20.6562 95.5889 21.2344C95.9639 21.7969 96.4482 22.3516 97.042 22.8984L100.37 25.9219C102.12 27.5 103.409 29.1484 104.237 30.8672C105.081 32.5859 105.503 34.4453 105.503 36.4453C105.503 39.3984 104.831 41.6406 103.487 43.1719C102.144 44.6875 100.026 45.4453 97.1357 45.4453Z" fill="#D1DADB"/>
<path d="M118.558 45.4219C116.761 45.4219 115.276 45.1484 114.104 44.6016C112.933 44.0391 112.011 43.2344 111.339 42.1875C110.683 41.1406 110.222 39.8672 109.956 38.3672C109.69 36.8672 109.558 35.1719 109.558 33.2812V21.8906C109.558 19.2969 109.8 17.0703 110.284 15.2109C110.769 13.3516 111.659 11.9219 112.956 10.9219C114.269 9.92188 116.159 9.42188 118.628 9.42188C120.144 9.42188 121.425 9.65625 122.472 10.125C123.519 10.5938 124.362 11.2734 125.003 12.1641C125.644 13.0391 126.104 14.1016 126.386 15.3516C126.683 16.6016 126.831 18.0078 126.831 19.5703V23.4375H120.831V19.3594C120.831 18.3438 120.784 17.4766 120.69 16.7578C120.597 16.0234 120.386 15.4688 120.058 15.0938C119.729 14.7031 119.206 14.5078 118.487 14.5078C117.784 14.5078 117.237 14.7031 116.847 15.0938C116.456 15.4844 116.183 16.0547 116.026 16.8047C115.886 17.5391 115.815 18.4219 115.815 19.4531V35.2969C115.815 36.3594 115.878 37.2656 116.003 38.0156C116.144 38.7656 116.394 39.3438 116.753 39.75C117.128 40.1406 117.675 40.3359 118.394 40.3359C119.097 40.3359 119.62 40.1328 119.964 39.7266C120.323 39.3047 120.558 38.7188 120.667 37.9688C120.776 37.2188 120.831 36.3359 120.831 35.3203V31.1484H126.831V34.7109C126.831 36.3203 126.69 37.7891 126.409 39.1172C126.128 40.4297 125.667 41.5547 125.026 42.4922C124.386 43.4297 123.534 44.1562 122.472 44.6719C121.409 45.1719 120.104 45.4219 118.558 45.4219Z" fill="#D1DADB"/>
<path d="M132.058 45V9.84375H138.315V13.7578C138.722 12.3984 139.425 11.3359 140.425 10.5703C141.44 9.80469 142.729 9.42188 144.292 9.42188C144.323 9.42188 144.339 9.6875 144.339 10.2188C144.354 10.75 144.362 11.3594 144.362 12.0469C144.362 12.7344 144.362 13.3438 144.362 13.875C144.362 14.4062 144.362 14.6719 144.362 14.6719C143.644 14.6719 142.862 14.7578 142.019 14.9297C141.19 15.1016 140.433 15.3672 139.745 15.7266C139.073 16.0703 138.597 16.5312 138.315 17.1094V45H132.058Z" fill="#D1DADB"/>
<path d="M148.511 45V9.84375H154.722V45H148.511ZM148.487 6.60938V1.21875H154.745V6.60938H148.487Z" fill="#D1DADB"/>
<path d="M161.026 51.6797V9.84375H167.237V13.0078C167.69 11.8516 168.401 10.9766 169.37 10.3828C170.339 9.78906 171.315 9.49219 172.3 9.49219C174.097 9.49219 175.456 9.97656 176.378 10.9453C177.3 11.8984 177.925 13.2031 178.253 14.8594C178.581 16.5156 178.745 18.375 178.745 20.4375V33.2578C178.745 35.5078 178.589 37.5547 178.276 39.3984C177.964 41.2422 177.3 42.7109 176.284 43.8047C175.284 44.8828 173.753 45.4219 171.69 45.4219C170.737 45.4219 169.87 45.1641 169.089 44.6484C168.308 44.1328 167.69 43.5391 167.237 42.8672V51.6797H161.026ZM169.979 40.3828C171.026 40.3828 171.706 39.875 172.019 38.8594C172.331 37.8281 172.487 36.3594 172.487 34.4531V19.875C172.487 18.8594 172.433 17.9453 172.323 17.1328C172.229 16.3047 172.011 15.6484 171.667 15.1641C171.323 14.6797 170.776 14.4375 170.026 14.4375C169.448 14.4375 168.948 14.5859 168.526 14.8828C168.12 15.1797 167.8 15.7188 167.565 16.5C167.347 17.2812 167.237 18.3984 167.237 19.8516V34.7109C167.237 36.5078 167.409 37.9062 167.753 38.9062C168.097 39.8906 168.839 40.3828 169.979 40.3828Z" fill="#D1DADB"/>
<path d="M190.745 45.2344C189.245 45.2344 188.097 45.0469 187.3 44.6719C186.503 44.2812 185.956 43.6719 185.659 42.8438C185.362 42.0156 185.214 40.9453 185.214 39.6328V15.0703H182.354V10.5703H185.214V3.75H191.425V10.5703H194.847V15.0703H191.425V38.5547C191.425 39.1016 191.511 39.5156 191.683 39.7969C191.854 40.0781 192.19 40.2656 192.69 40.3594C193.206 40.4531 193.964 40.5 194.964 40.5V45.2344H190.745Z" fill="#D1DADB"/>
<path d="M207.995 45V3.75H218.378C220.534 3.75 222.144 4.17188 223.206 5.01562C224.269 5.85938 224.964 7.09375 225.292 8.71875C225.636 10.3438 225.808 12.3281 225.808 14.6719C225.808 17.0938 225.558 19 225.058 20.3906C224.573 21.7656 223.573 22.6875 222.058 23.1562C222.776 23.2812 223.378 23.5781 223.862 24.0469C224.347 24.5 224.737 25.1719 225.034 26.0625C225.331 26.9375 225.542 28.0703 225.667 29.4609C225.808 30.8359 225.878 32.5234 225.878 34.5234C225.878 34.6797 225.878 35.1172 225.878 35.8359C225.878 36.5547 225.878 37.4062 225.878 38.3906C225.894 39.3594 225.909 40.3281 225.925 41.2969C225.94 42.2656 225.964 43.0938 225.995 43.7812C226.026 44.4688 226.065 44.875 226.112 45H219.831C219.784 44.9219 219.745 44.5234 219.714 43.8047C219.698 43.0703 219.675 42.1406 219.644 41.0156C219.628 39.8906 219.612 38.6797 219.597 37.3828C219.597 36.0859 219.597 34.8125 219.597 33.5625C219.597 32.2969 219.597 31.1797 219.597 30.2109C219.597 28.9766 219.503 28.0469 219.315 27.4219C219.144 26.7812 218.815 26.3359 218.331 26.0859C217.862 25.8359 217.183 25.6875 216.292 25.6406L214.276 25.5234V45H207.995ZM214.3 20.6484H216.808C217.573 20.6484 218.151 20.4766 218.542 20.1328C218.948 19.7891 219.222 19.1562 219.362 18.2344C219.519 17.3125 219.597 15.9844 219.597 14.25V13.9922C219.597 12.5391 219.526 11.4219 219.386 10.6406C219.245 9.85938 218.948 9.32031 218.495 9.02344C218.058 8.72656 217.37 8.57812 216.433 8.57812H214.3V20.6484Z" fill="#D1DADB"/>
<path d="M239.425 45.4219C237.659 45.4219 236.206 45.1406 235.065 44.5781C233.94 44.0156 233.058 43.2031 232.417 42.1406C231.792 41.0781 231.354 39.8047 231.104 38.3203C230.854 36.8203 230.729 35.1484 230.729 33.3047V20.2031C230.729 18.5625 230.894 17.0781 231.222 15.75C231.565 14.4219 232.089 13.2891 232.792 12.3516C233.511 11.4141 234.44 10.6953 235.581 10.1953C236.722 9.67969 238.097 9.42188 239.706 9.42188C241.347 9.42188 242.714 9.67188 243.808 10.1719C244.901 10.6719 245.761 11.3984 246.386 12.3516C247.026 13.3047 247.479 14.4531 247.745 15.7969C248.026 17.125 248.167 18.6328 248.167 20.3203V27.8438H236.987V34.7578C236.987 36.4609 237.12 37.8281 237.386 38.8594C237.651 39.8906 238.378 40.4062 239.565 40.4062C240.362 40.4062 240.925 40.1641 241.253 39.6797C241.597 39.1953 241.8 38.5312 241.862 37.6875C241.94 36.8281 241.979 35.8516 241.979 34.7578V31.6641H248.12V33.5391C248.12 35.4297 248.003 37.1094 247.769 38.5781C247.55 40.0469 247.128 41.2891 246.503 42.3047C245.894 43.3203 245.019 44.0938 243.878 44.625C242.737 45.1562 241.253 45.4219 239.425 45.4219ZM236.964 24.2109H241.979V19.7109C241.979 18.5391 241.925 17.5547 241.815 16.7578C241.706 15.9453 241.487 15.3359 241.159 14.9297C240.831 14.5234 240.331 14.3203 239.659 14.3203C238.831 14.3203 238.222 14.5625 237.831 15.0469C237.456 15.5312 237.214 16.1953 237.104 17.0391C237.011 17.8672 236.964 18.8125 236.964 19.875V24.2109Z" fill="#D1DADB"/>
<path d="M260.683 45.4453C257.854 45.4453 255.753 44.6406 254.378 43.0312C253.003 41.4219 252.315 38.7891 252.315 35.1328V32.8594H258.151V35.6953C258.151 37.2266 258.339 38.3906 258.714 39.1875C259.089 39.9844 259.698 40.3828 260.542 40.3828C261.354 40.3828 261.956 40.1094 262.347 39.5625C262.737 39.0156 262.933 38.0703 262.933 36.7266C262.933 35.9453 262.815 35.1875 262.581 34.4531C262.362 33.7188 262.011 33 261.526 32.2969C261.058 31.5781 260.448 30.8828 259.698 30.2109L256.534 27.3516C255.081 26.0391 253.995 24.625 253.276 23.1094C252.558 21.5781 252.198 19.8906 252.198 18.0469C252.198 15.0625 252.894 12.8828 254.284 11.5078C255.69 10.1172 257.769 9.42188 260.519 9.42188C262.3 9.42188 263.776 9.75781 264.948 10.4297C266.12 11.0859 266.995 12.1562 267.573 13.6406C268.151 15.125 268.44 17.1172 268.44 19.6172V21.5391H262.886V19.2188C262.886 17.6719 262.706 16.5 262.347 15.7031C262.003 14.9062 261.409 14.5078 260.565 14.5078C259.737 14.5078 259.128 14.7422 258.737 15.2109C258.347 15.6641 258.136 16.4688 258.104 17.625C258.089 18.25 258.167 18.8672 258.339 19.4766C258.511 20.0703 258.776 20.6562 259.136 21.2344C259.511 21.7969 259.995 22.3516 260.589 22.8984L263.917 25.9219C265.667 27.5 266.956 29.1484 267.784 30.8672C268.628 32.5859 269.05 34.4453 269.05 36.4453C269.05 39.3984 268.378 41.6406 267.034 43.1719C265.69 44.6875 263.573 45.4453 260.683 45.4453Z" fill="#D1DADB"/>
<path d="M281.917 45.4219C280.229 45.4219 278.815 45.1641 277.675 44.6484C276.534 44.1172 275.628 43.3594 274.956 42.375C274.3 41.375 273.823 40.1641 273.526 38.7422C273.245 37.3047 273.104 35.6719 273.104 33.8438V20.6953C273.104 18.4922 273.386 16.5469 273.948 14.8594C274.526 13.1562 275.464 11.8281 276.761 10.875C278.058 9.90625 279.776 9.42188 281.917 9.42188C283.542 9.42188 284.909 9.69531 286.019 10.2422C287.144 10.7891 288.042 11.5703 288.714 12.5859C289.401 13.5859 289.901 14.7734 290.214 16.1484C290.526 17.5234 290.683 19.0391 290.683 20.6953V33.8438C290.683 35.6406 290.542 37.25 290.261 38.6719C289.995 40.0938 289.526 41.3125 288.854 42.3281C288.198 43.3281 287.308 44.0938 286.183 44.625C285.058 45.1562 283.636 45.4219 281.917 45.4219ZM281.917 40.4062C282.62 40.4062 283.151 40.1953 283.511 39.7734C283.87 39.3359 284.112 38.7344 284.237 37.9688C284.362 37.2031 284.425 36.3203 284.425 35.3203V19.5938C284.425 18.5312 284.354 17.6172 284.214 16.8516C284.073 16.0859 283.823 15.4922 283.464 15.0703C283.104 14.6484 282.589 14.4375 281.917 14.4375C281.214 14.4375 280.675 14.6484 280.3 15.0703C279.94 15.4922 279.69 16.0859 279.55 16.8516C279.425 17.6172 279.362 18.5312 279.362 19.5938V35.3203C279.362 36.3203 279.425 37.2031 279.55 37.9688C279.69 38.7344 279.94 39.3359 280.3 39.7734C280.675 40.1953 281.214 40.4062 281.917 40.4062Z" fill="#D1DADB"/>
<path d="M302.378 45.4453C300.987 45.4453 299.823 45.1328 298.886 44.5078C297.964 43.8828 297.269 42.9531 296.8 41.7188C296.347 40.4688 296.12 38.9062 296.12 37.0312V9.84375H302.354V36.0703C302.354 37.4141 302.519 38.4609 302.847 39.2109C303.175 39.9609 303.862 40.3359 304.909 40.3359C306.003 40.3359 306.745 39.9141 307.136 39.0703C307.542 38.2109 307.745 37.2266 307.745 36.1172L307.769 9.84375H313.956V45H307.745V41.3438C307.308 42.5312 306.675 43.5156 305.847 44.2969C305.019 45.0625 303.862 45.4453 302.378 45.4453Z" fill="#D1DADB"/>
<path d="M320.026 45V9.84375H326.284V13.7578C326.69 12.3984 327.394 11.3359 328.394 10.5703C329.409 9.80469 330.698 9.42188 332.261 9.42188C332.292 9.42188 332.308 9.6875 332.308 10.2188C332.323 10.75 332.331 11.3594 332.331 12.0469C332.331 12.7344 332.331 13.3438 332.331 13.875C332.331 14.4062 332.331 14.6719 332.331 14.6719C331.612 14.6719 330.831 14.7578 329.987 14.9297C329.159 15.1016 328.401 15.3672 327.714 15.7266C327.042 16.0703 326.565 16.5312 326.284 17.1094V45H320.026Z" fill="#D1DADB"/>
<path d="M344.87 45.4219C343.073 45.4219 341.589 45.1484 340.417 44.6016C339.245 44.0391 338.323 43.2344 337.651 42.1875C336.995 41.1406 336.534 39.8672 336.269 38.3672C336.003 36.8672 335.87 35.1719 335.87 33.2812V21.8906C335.87 19.2969 336.112 17.0703 336.597 15.2109C337.081 13.3516 337.972 11.9219 339.269 10.9219C340.581 9.92188 342.472 9.42188 344.94 9.42188C346.456 9.42188 347.737 9.65625 348.784 10.125C349.831 10.5938 350.675 11.2734 351.315 12.1641C351.956 13.0391 352.417 14.1016 352.698 15.3516C352.995 16.6016 353.144 18.0078 353.144 19.5703V23.4375H347.144V19.3594C347.144 18.3438 347.097 17.4766 347.003 16.7578C346.909 16.0234 346.698 15.4688 346.37 15.0938C346.042 14.7031 345.519 14.5078 344.8 14.5078C344.097 14.5078 343.55 14.7031 343.159 15.0938C342.769 15.4844 342.495 16.0547 342.339 16.8047C342.198 17.5391 342.128 18.4219 342.128 19.4531V35.2969C342.128 36.3594 342.19 37.2656 342.315 38.0156C342.456 38.7656 342.706 39.3438 343.065 39.75C343.44 40.1406 343.987 40.3359 344.706 40.3359C345.409 40.3359 345.933 40.1328 346.276 39.7266C346.636 39.3047 346.87 38.7188 346.979 37.9688C347.089 37.2188 347.144 36.3359 347.144 35.3203V31.1484H353.144V34.7109C353.144 36.3203 353.003 37.7891 352.722 39.1172C352.44 40.4297 351.979 41.5547 351.339 42.4922C350.698 43.4297 349.847 44.1562 348.784 44.6719C347.722 45.1719 346.417 45.4219 344.87 45.4219Z" fill="#D1DADB"/>
<path d="M366.55 45.4219C364.784 45.4219 363.331 45.1406 362.19 44.5781C361.065 44.0156 360.183 43.2031 359.542 42.1406C358.917 41.0781 358.479 39.8047 358.229 38.3203C357.979 36.8203 357.854 35.1484 357.854 33.3047V20.2031C357.854 18.5625 358.019 17.0781 358.347 15.75C358.69 14.4219 359.214 13.2891 359.917 12.3516C360.636 11.4141 361.565 10.6953 362.706 10.1953C363.847 9.67969 365.222 9.42188 366.831 9.42188C368.472 9.42188 369.839 9.67188 370.933 10.1719C372.026 10.6719 372.886 11.3984 373.511 12.3516C374.151 13.3047 374.604 14.4531 374.87 15.7969C375.151 17.125 375.292 18.6328 375.292 20.3203V27.8438H364.112V34.7578C364.112 36.4609 364.245 37.8281 364.511 38.8594C364.776 39.8906 365.503 40.4062 366.69 40.4062C367.487 40.4062 368.05 40.1641 368.378 39.6797C368.722 39.1953 368.925 38.5312 368.987 37.6875C369.065 36.8281 369.104 35.8516 369.104 34.7578V31.6641H375.245V33.5391C375.245 35.4297 375.128 37.1094 374.894 38.5781C374.675 40.0469 374.253 41.2891 373.628 42.3047C373.019 43.3203 372.144 44.0938 371.003 44.625C369.862 45.1562 368.378 45.4219 366.55 45.4219ZM364.089 24.2109H369.104V19.7109C369.104 18.5391 369.05 17.5547 368.94 16.7578C368.831 15.9453 368.612 15.3359 368.284 14.9297C367.956 14.5234 367.456 14.3203 366.784 14.3203C365.956 14.3203 365.347 14.5625 364.956 15.0469C364.581 15.5312 364.339 16.1953 364.229 17.0391C364.136 17.8672 364.089 18.8125 364.089 19.875V24.2109Z" fill="#D1DADB"/>
<path d="M387.808 45.4453C384.979 45.4453 382.878 44.6406 381.503 43.0312C380.128 41.4219 379.44 38.7891 379.44 35.1328V32.8594H385.276V35.6953C385.276 37.2266 385.464 38.3906 385.839 39.1875C386.214 39.9844 386.823 40.3828 387.667 40.3828C388.479 40.3828 389.081 40.1094 389.472 39.5625C389.862 39.0156 390.058 38.0703 390.058 36.7266C390.058 35.9453 389.94 35.1875 389.706 34.4531C389.487 33.7188 389.136 33 388.651 32.2969C388.183 31.5781 387.573 30.8828 386.823 30.2109L383.659 27.3516C382.206 26.0391 381.12 24.625 380.401 23.1094C379.683 21.5781 379.323 19.8906 379.323 18.0469C379.323 15.0625 380.019 12.8828 381.409 11.5078C382.815 10.1172 384.894 9.42188 387.644 9.42188C389.425 9.42188 390.901 9.75781 392.073 10.4297C393.245 11.0859 394.12 12.1562 394.698 13.6406C395.276 15.125 395.565 17.1172 395.565 19.6172V21.5391H390.011V19.2188C390.011 17.6719 389.831 16.5 389.472 15.7031C389.128 14.9062 388.534 14.5078 387.69 14.5078C386.862 14.5078 386.253 14.7422 385.862 15.2109C385.472 15.6641 385.261 16.4688 385.229 17.625C385.214 18.25 385.292 18.8672 385.464 19.4766C385.636 20.0703 385.901 20.6562 386.261 21.2344C386.636 21.7969 387.12 22.3516 387.714 22.8984L391.042 25.9219C392.792 27.5 394.081 29.1484 394.909 30.8672C395.753 32.5859 396.175 34.4453 396.175 36.4453C396.175 39.3984 395.503 41.6406 394.159 43.1719C392.815 44.6875 390.698 45.4453 387.808 45.4453Z" fill="#D1DADB"/>
</g>
<path d="M9.69043 45.4688C6.9873 45.4688 4.87793 44.6641 3.3623 43.0547C1.8623 41.4297 1.1123 39.0391 1.1123 35.8828V28.5234H7.18262V35.5781C7.18262 36.3906 7.22949 37.1406 7.32324 37.8281C7.43262 38.5156 7.65137 39.0625 7.97949 39.4688C8.30762 39.875 8.81543 40.0781 9.50293 40.0781C10.1904 40.0781 10.6982 39.8828 11.0264 39.4922C11.3545 39.0859 11.5732 38.5234 11.6826 37.8047C11.792 37.0703 11.8467 36.2031 11.8467 35.2031V3.75H18.1279V34.8984C18.1279 38.2891 17.3779 40.8984 15.8779 42.7266C14.3936 44.5547 12.3311 45.4688 9.69043 45.4688Z" stroke="#D9E6E7" stroke-width="2" mask="url(#path-1-outside-1_127_2784)"/>
<path d="M30.1514 45.3516C27.7451 45.3516 26.0732 44.4766 25.1357 42.7266C24.2139 40.9766 23.7373 38.6562 23.7061 35.7656V33.5156C23.7061 31.6406 23.9717 30.1172 24.5029 28.9453C25.0498 27.7734 25.8232 26.8203 26.8232 26.0859C27.8232 25.3516 29.0186 24.7109 30.4092 24.1641C31.7998 23.6172 33.3467 23.0312 35.0498 22.4062V19.3359C35.0498 18.1484 35.0029 17.2031 34.9092 16.5C34.8154 15.7812 34.6045 15.2578 34.2764 14.9297C33.9482 14.6016 33.4404 14.4375 32.7529 14.4375C32.0811 14.4375 31.5654 14.6094 31.2061 14.9531C30.8623 15.2812 30.6279 15.7969 30.5029 16.5C30.3779 17.1875 30.3154 18.0703 30.3154 19.1484V20.7188H24.1748V19.6641C24.1748 18.0547 24.3076 16.6172 24.5732 15.3516C24.8545 14.0859 25.3232 13.0156 25.9795 12.1406C26.6357 11.25 27.5264 10.5781 28.6514 10.125C29.792 9.65625 31.2217 9.42188 32.9404 9.42188C34.4561 9.42188 35.7529 9.64062 36.8311 10.0781C37.9092 10.5 38.7842 11.1406 39.4561 12C40.1279 12.8438 40.6201 13.9062 40.9326 15.1875C41.2451 16.4688 41.4014 17.9609 41.4014 19.6641V45H35.1436V41.5078C34.9561 42.1797 34.6357 42.8125 34.1826 43.4062C33.7295 43.9844 33.1592 44.4531 32.4717 44.8125C31.7998 45.1719 31.0264 45.3516 30.1514 45.3516ZM32.3076 40.5703C33.0889 40.5703 33.7139 40.2891 34.1826 39.7266C34.6514 39.1641 34.9404 38.5938 35.0498 38.0156V25.9219C34.1123 26.3438 33.3232 26.7422 32.6826 27.1172C32.042 27.4766 31.5264 27.875 31.1357 28.3125C30.7451 28.75 30.4639 29.2656 30.292 29.8594C30.1201 30.4531 30.0342 31.1797 30.0342 32.0391V35.9766C30.0342 37.5859 30.1982 38.7578 30.5264 39.4922C30.8701 40.2109 31.4639 40.5703 32.3076 40.5703Z" stroke="#D9E6E7" stroke-width="2" mask="url(#path-1-outside-1_127_2784)"/>
<path d="M50.2607 45L45.1748 9.84375H51.0342L53.3076 28.5469L54.0811 36.9609H54.5498L55.2061 28.5234L57.1514 9.84375H62.9639L57.8779 45H50.2607Z" stroke="#D9E6E7" stroke-width="2" mask="url(#path-1-outside-1_127_2784)"/>
<path d="M72.8545 45.3516C70.4482 45.3516 68.7764 44.4766 67.8389 42.7266C66.917 40.9766 66.4404 38.6562 66.4092 35.7656V33.5156C66.4092 31.6406 66.6748 30.1172 67.2061 28.9453C67.7529 27.7734 68.5264 26.8203 69.5264 26.0859C70.5264 25.3516 71.7217 24.7109 73.1123 24.1641C74.5029 23.6172 76.0498 23.0312 77.7529 22.4062V19.3359C77.7529 18.1484 77.7061 17.2031 77.6123 16.5C77.5186 15.7812 77.3076 15.2578 76.9795 14.9297C76.6514 14.6016 76.1436 14.4375 75.4561 14.4375C74.7842 14.4375 74.2686 14.6094 73.9092 14.9531C73.5654 15.2812 73.3311 15.7969 73.2061 16.5C73.0811 17.1875 73.0186 18.0703 73.0186 19.1484V20.7188H66.8779V19.6641C66.8779 18.0547 67.0107 16.6172 67.2764 15.3516C67.5576 14.0859 68.0264 13.0156 68.6826 12.1406C69.3389 11.25 70.2295 10.5781 71.3545 10.125C72.4951 9.65625 73.9248 9.42188 75.6436 9.42188C77.1592 9.42188 78.4561 9.64062 79.5342 10.0781C80.6123 10.5 81.4873 11.1406 82.1592 12C82.8311 12.8438 83.3232 13.9062 83.6357 15.1875C83.9482 16.4688 84.1045 17.9609 84.1045 19.6641V45H77.8467V41.5078C77.6592 42.1797 77.3389 42.8125 76.8857 43.4062C76.4326 43.9844 75.8623 44.4531 75.1748 44.8125C74.5029 45.1719 73.7295 45.3516 72.8545 45.3516ZM75.0107 40.5703C75.792 40.5703 76.417 40.2891 76.8857 39.7266C77.3545 39.1641 77.6436 38.5938 77.7529 38.0156V25.9219C76.8154 26.3438 76.0264 26.7422 75.3857 27.1172C74.7451 27.4766 74.2295 27.875 73.8389 28.3125C73.4482 28.75 73.167 29.2656 72.9951 29.8594C72.8232 30.4531 72.7373 31.1797 72.7373 32.0391V35.9766C72.7373 37.5859 72.9014 38.7578 73.2295 39.4922C73.5732 40.2109 74.167 40.5703 75.0107 40.5703Z" stroke="#D9E6E7" stroke-width="2" mask="url(#path-1-outside-1_127_2784)"/>
<path d="M97.1357 45.4453C94.3076 45.4453 92.2061 44.6406 90.8311 43.0312C89.4561 41.4219 88.7686 38.7891 88.7686 35.1328V32.8594H94.6045V35.6953C94.6045 37.2266 94.792 38.3906 95.167 39.1875C95.542 39.9844 96.1514 40.3828 96.9951 40.3828C97.8076 40.3828 98.4092 40.1094 98.7998 39.5625C99.1904 39.0156 99.3857 38.0703 99.3857 36.7266C99.3857 35.9453 99.2686 35.1875 99.0342 34.4531C98.8154 33.7188 98.4639 33 97.9795 32.2969C97.5107 31.5781 96.9014 30.8828 96.1514 30.2109L92.9873 27.3516C91.5342 26.0391 90.4482 24.625 89.7295 23.1094C89.0107 21.5781 88.6514 19.8906 88.6514 18.0469C88.6514 15.0625 89.3467 12.8828 90.7373 11.5078C92.1436 10.1172 94.2217 9.42188 96.9717 9.42188C98.7529 9.42188 100.229 9.75781 101.401 10.4297C102.573 11.0859 103.448 12.1562 104.026 13.6406C104.604 15.125 104.894 17.1172 104.894 19.6172V21.5391H99.3389V19.2188C99.3389 17.6719 99.1592 16.5 98.7998 15.7031C98.4561 14.9062 97.8623 14.5078 97.0186 14.5078C96.1904 14.5078 95.5811 14.7422 95.1904 15.2109C94.7998 15.6641 94.5889 16.4688 94.5576 17.625C94.542 18.25 94.6201 18.8672 94.792 19.4766C94.9639 20.0703 95.2295 20.6562 95.5889 21.2344C95.9639 21.7969 96.4482 22.3516 97.042 22.8984L100.37 25.9219C102.12 27.5 103.409 29.1484 104.237 30.8672C105.081 32.5859 105.503 34.4453 105.503 36.4453C105.503 39.3984 104.831 41.6406 103.487 43.1719C102.144 44.6875 100.026 45.4453 97.1357 45.4453Z" stroke="#D9E6E7" stroke-width="2" mask="url(#path-1-outside-1_127_2784)"/>
<path d="M118.558 45.4219C116.761 45.4219 115.276 45.1484 114.104 44.6016C112.933 44.0391 112.011 43.2344 111.339 42.1875C110.683 41.1406 110.222 39.8672 109.956 38.3672C109.69 36.8672 109.558 35.1719 109.558 33.2812V21.8906C109.558 19.2969 109.8 17.0703 110.284 15.2109C110.769 13.3516 111.659 11.9219 112.956 10.9219C114.269 9.92188 116.159 9.42188 118.628 9.42188C120.144 9.42188 121.425 9.65625 122.472 10.125C123.519 10.5938 124.362 11.2734 125.003 12.1641C125.644 13.0391 126.104 14.1016 126.386 15.3516C126.683 16.6016 126.831 18.0078 126.831 19.5703V23.4375H120.831V19.3594C120.831 18.3438 120.784 17.4766 120.69 16.7578C120.597 16.0234 120.386 15.4688 120.058 15.0938C119.729 14.7031 119.206 14.5078 118.487 14.5078C117.784 14.5078 117.237 14.7031 116.847 15.0938C116.456 15.4844 116.183 16.0547 116.026 16.8047C115.886 17.5391 115.815 18.4219 115.815 19.4531V35.2969C115.815 36.3594 115.878 37.2656 116.003 38.0156C116.144 38.7656 116.394 39.3438 116.753 39.75C117.128 40.1406 117.675 40.3359 118.394 40.3359C119.097 40.3359 119.62 40.1328 119.964 39.7266C120.323 39.3047 120.558 38.7188 120.667 37.9688C120.776 37.2188 120.831 36.3359 120.831 35.3203V31.1484H126.831V34.7109C126.831 36.3203 126.69 37.7891 126.409 39.1172C126.128 40.4297 125.667 41.5547 125.026 42.4922C124.386 43.4297 123.534 44.1562 122.472 44.6719C121.409 45.1719 120.104 45.4219 118.558 45.4219Z" stroke="#D9E6E7" stroke-width="2" mask="url(#path-1-outside-1_127_2784)"/>
<path d="M132.058 45V9.84375H138.315V13.7578C138.722 12.3984 139.425 11.3359 140.425 10.5703C141.44 9.80469 142.729 9.42188 144.292 9.42188C144.323 9.42188 144.339 9.6875 144.339 10.2188C144.354 10.75 144.362 11.3594 144.362 12.0469C144.362 12.7344 144.362 13.3438 144.362 13.875C144.362 14.4062 144.362 14.6719 144.362 14.6719C143.644 14.6719 142.862 14.7578 142.019 14.9297C141.19 15.1016 140.433 15.3672 139.745 15.7266C139.073 16.0703 138.597 16.5312 138.315 17.1094V45H132.058Z" stroke="#D9E6E7" stroke-width="2" mask="url(#path-1-outside-1_127_2784)"/>
<path d="M148.511 45V9.84375H154.722V45H148.511ZM148.487 6.60938V1.21875H154.745V6.60938H148.487Z" stroke="#D9E6E7" stroke-width="2" mask="url(#path-1-outside-1_127_2784)"/>
<path d="M161.026 51.6797V9.84375H167.237V13.0078C167.69 11.8516 168.401 10.9766 169.37 10.3828C170.339 9.78906 171.315 9.49219 172.3 9.49219C174.097 9.49219 175.456 9.97656 176.378 10.9453C177.3 11.8984 177.925 13.2031 178.253 14.8594C178.581 16.5156 178.745 18.375 178.745 20.4375V33.2578C178.745 35.5078 178.589 37.5547 178.276 39.3984C177.964 41.2422 177.3 42.7109 176.284 43.8047C175.284 44.8828 173.753 45.4219 171.69 45.4219C170.737 45.4219 169.87 45.1641 169.089 44.6484C168.308 44.1328 167.69 43.5391 167.237 42.8672V51.6797H161.026ZM169.979 40.3828C171.026 40.3828 171.706 39.875 172.019 38.8594C172.331 37.8281 172.487 36.3594 172.487 34.4531V19.875C172.487 18.8594 172.433 17.9453 172.323 17.1328C172.229 16.3047 172.011 15.6484 171.667 15.1641C171.323 14.6797 170.776 14.4375 170.026 14.4375C169.448 14.4375 168.948 14.5859 168.526 14.8828C168.12 15.1797 167.8 15.7188 167.565 16.5C167.347 17.2812 167.237 18.3984 167.237 19.8516V34.7109C167.237 36.5078 167.409 37.9062 167.753 38.9062C168.097 39.8906 168.839 40.3828 169.979 40.3828Z" stroke="#D9E6E7" stroke-width="2" mask="url(#path-1-outside-1_127_2784)"/>
<path d="M190.745 45.2344C189.245 45.2344 188.097 45.0469 187.3 44.6719C186.503 44.2812 185.956 43.6719 185.659 42.8438C185.362 42.0156 185.214 40.9453 185.214 39.6328V15.0703H182.354V10.5703H185.214V3.75H191.425V10.5703H194.847V15.0703H191.425V38.5547C191.425 39.1016 191.511 39.5156 191.683 39.7969C191.854 40.0781 192.19 40.2656 192.69 40.3594C193.206 40.4531 193.964 40.5 194.964 40.5V45.2344H190.745Z" stroke="#D9E6E7" stroke-width="2" mask="url(#path-1-outside-1_127_2784)"/>
<path d="M207.995 45V3.75H218.378C220.534 3.75 222.144 4.17188 223.206 5.01562C224.269 5.85938 224.964 7.09375 225.292 8.71875C225.636 10.3438 225.808 12.3281 225.808 14.6719C225.808 17.0938 225.558 19 225.058 20.3906C224.573 21.7656 223.573 22.6875 222.058 23.1562C222.776 23.2812 223.378 23.5781 223.862 24.0469C224.347 24.5 224.737 25.1719 225.034 26.0625C225.331 26.9375 225.542 28.0703 225.667 29.4609C225.808 30.8359 225.878 32.5234 225.878 34.5234C225.878 34.6797 225.878 35.1172 225.878 35.8359C225.878 36.5547 225.878 37.4062 225.878 38.3906C225.894 39.3594 225.909 40.3281 225.925 41.2969C225.94 42.2656 225.964 43.0938 225.995 43.7812C226.026 44.4688 226.065 44.875 226.112 45H219.831C219.784 44.9219 219.745 44.5234 219.714 43.8047C219.698 43.0703 219.675 42.1406 219.644 41.0156C219.628 39.8906 219.612 38.6797 219.597 37.3828C219.597 36.0859 219.597 34.8125 219.597 33.5625C219.597 32.2969 219.597 31.1797 219.597 30.2109C219.597 28.9766 219.503 28.0469 219.315 27.4219C219.144 26.7812 218.815 26.3359 218.331 26.0859C217.862 25.8359 217.183 25.6875 216.292 25.6406L214.276 25.5234V45H207.995ZM214.3 20.6484H216.808C217.573 20.6484 218.151 20.4766 218.542 20.1328C218.948 19.7891 219.222 19.1562 219.362 18.2344C219.519 17.3125 219.597 15.9844 219.597 14.25V13.9922C219.597 12.5391 219.526 11.4219 219.386 10.6406C219.245 9.85938 218.948 9.32031 218.495 9.02344C218.058 8.72656 217.37 8.57812 216.433 8.57812H214.3V20.6484Z" stroke="#D9E6E7" stroke-width="2" mask="url(#path-1-outside-1_127_2784)"/>
<path d="M239.425 45.4219C237.659 45.4219 236.206 45.1406 235.065 44.5781C233.94 44.0156 233.058 43.2031 232.417 42.1406C231.792 41.0781 231.354 39.8047 231.104 38.3203C230.854 36.8203 230.729 35.1484 230.729 33.3047V20.2031C230.729 18.5625 230.894 17.0781 231.222 15.75C231.565 14.4219 232.089 13.2891 232.792 12.3516C233.511 11.4141 234.44 10.6953 235.581 10.1953C236.722 9.67969 238.097 9.42188 239.706 9.42188C241.347 9.42188 242.714 9.67188 243.808 10.1719C244.901 10.6719 245.761 11.3984 246.386 12.3516C247.026 13.3047 247.479 14.4531 247.745 15.7969C248.026 17.125 248.167 18.6328 248.167 20.3203V27.8438H236.987V34.7578C236.987 36.4609 237.12 37.8281 237.386 38.8594C237.651 39.8906 238.378 40.4062 239.565 40.4062C240.362 40.4062 240.925 40.1641 241.253 39.6797C241.597 39.1953 241.8 38.5312 241.862 37.6875C241.94 36.8281 241.979 35.8516 241.979 34.7578V31.6641H248.12V33.5391C248.12 35.4297 248.003 37.1094 247.769 38.5781C247.55 40.0469 247.128 41.2891 246.503 42.3047C245.894 43.3203 245.019 44.0938 243.878 44.625C242.737 45.1562 241.253 45.4219 239.425 45.4219ZM236.964 24.2109H241.979V19.7109C241.979 18.5391 241.925 17.5547 241.815 16.7578C241.706 15.9453 241.487 15.3359 241.159 14.9297C240.831 14.5234 240.331 14.3203 239.659 14.3203C238.831 14.3203 238.222 14.5625 237.831 15.0469C237.456 15.5312 237.214 16.1953 237.104 17.0391C237.011 17.8672 236.964 18.8125 236.964 19.875V24.2109Z" stroke="#D9E6E7" stroke-width="2" mask="url(#path-1-outside-1_127_2784)"/>
<path d="M260.683 45.4453C257.854 45.4453 255.753 44.6406 254.378 43.0312C253.003 41.4219 252.315 38.7891 252.315 35.1328V32.8594H258.151V35.6953C258.151 37.2266 258.339 38.3906 258.714 39.1875C259.089 39.9844 259.698 40.3828 260.542 40.3828C261.354 40.3828 261.956 40.1094 262.347 39.5625C262.737 39.0156 262.933 38.0703 262.933 36.7266C262.933 35.9453 262.815 35.1875 262.581 34.4531C262.362 33.7188 262.011 33 261.526 32.2969C261.058 31.5781 260.448 30.8828 259.698 30.2109L256.534 27.3516C255.081 26.0391 253.995 24.625 253.276 23.1094C252.558 21.5781 252.198 19.8906 252.198 18.0469C252.198 15.0625 252.894 12.8828 254.284 11.5078C255.69 10.1172 257.769 9.42188 260.519 9.42188C262.3 9.42188 263.776 9.75781 264.948 10.4297C266.12 11.0859 266.995 12.1562 267.573 13.6406C268.151 15.125 268.44 17.1172 268.44 19.6172V21.5391H262.886V19.2188C262.886 17.6719 262.706 16.5 262.347 15.7031C262.003 14.9062 261.409 14.5078 260.565 14.5078C259.737 14.5078 259.128 14.7422 258.737 15.2109C258.347 15.6641 258.136 16.4688 258.104 17.625C258.089 18.25 258.167 18.8672 258.339 19.4766C258.511 20.0703 258.776 20.6562 259.136 21.2344C259.511 21.7969 259.995 22.3516 260.589 22.8984L263.917 25.9219C265.667 27.5 266.956 29.1484 267.784 30.8672C268.628 32.5859 269.05 34.4453 269.05 36.4453C269.05 39.3984 268.378 41.6406 267.034 43.1719C265.69 44.6875 263.573 45.4453 260.683 45.4453Z" stroke="#D9E6E7" stroke-width="2" mask="url(#path-1-outside-1_127_2784)"/>
<path d="M281.917 45.4219C280.229 45.4219 278.815 45.1641 277.675 44.6484C276.534 44.1172 275.628 43.3594 274.956 42.375C274.3 41.375 273.823 40.1641 273.526 38.7422C273.245 37.3047 273.104 35.6719 273.104 33.8438V20.6953C273.104 18.4922 273.386 16.5469 273.948 14.8594C274.526 13.1562 275.464 11.8281 276.761 10.875C278.058 9.90625 279.776 9.42188 281.917 9.42188C283.542 9.42188 284.909 9.69531 286.019 10.2422C287.144 10.7891 288.042 11.5703 288.714 12.5859C289.401 13.5859 289.901 14.7734 290.214 16.1484C290.526 17.5234 290.683 19.0391 290.683 20.6953V33.8438C290.683 35.6406 290.542 37.25 290.261 38.6719C289.995 40.0938 289.526 41.3125 288.854 42.3281C288.198 43.3281 287.308 44.0938 286.183 44.625C285.058 45.1562 283.636 45.4219 281.917 45.4219ZM281.917 40.4062C282.62 40.4062 283.151 40.1953 283.511 39.7734C283.87 39.3359 284.112 38.7344 284.237 37.9688C284.362 37.2031 284.425 36.3203 284.425 35.3203V19.5938C284.425 18.5312 284.354 17.6172 284.214 16.8516C284.073 16.0859 283.823 15.4922 283.464 15.0703C283.104 14.6484 282.589 14.4375 281.917 14.4375C281.214 14.4375 280.675 14.6484 280.3 15.0703C279.94 15.4922 279.69 16.0859 279.55 16.8516C279.425 17.6172 279.362 18.5312 279.362 19.5938V35.3203C279.362 36.3203 279.425 37.2031 279.55 37.9688C279.69 38.7344 279.94 39.3359 280.3 39.7734C280.675 40.1953 281.214 40.4062 281.917 40.4062Z" stroke="#D9E6E7" stroke-width="2" mask="url(#path-1-outside-1_127_2784)"/>
<path d="M302.378 45.4453C300.987 45.4453 299.823 45.1328 298.886 44.5078C297.964 43.8828 297.269 42.9531 296.8 41.7188C296.347 40.4688 296.12 38.9062 296.12 37.0312V9.84375H302.354V36.0703C302.354 37.4141 302.519 38.4609 302.847 39.2109C303.175 39.9609 303.862 40.3359 304.909 40.3359C306.003 40.3359 306.745 39.9141 307.136 39.0703C307.542 38.2109 307.745 37.2266 307.745 36.1172L307.769 9.84375H313.956V45H307.745V41.3438C307.308 42.5312 306.675 43.5156 305.847 44.2969C305.019 45.0625 303.862 45.4453 302.378 45.4453Z" stroke="#D9E6E7" stroke-width="2" mask="url(#path-1-outside-1_127_2784)"/>
<path d="M320.026 45V9.84375H326.284V13.7578C326.69 12.3984 327.394 11.3359 328.394 10.5703C329.409 9.80469 330.698 9.42188 332.261 9.42188C332.292 9.42188 332.308 9.6875 332.308 10.2188C332.323 10.75 332.331 11.3594 332.331 12.0469C332.331 12.7344 332.331 13.3438 332.331 13.875C332.331 14.4062 332.331 14.6719 332.331 14.6719C331.612 14.6719 330.831 14.7578 329.987 14.9297C329.159 15.1016 328.401 15.3672 327.714 15.7266C327.042 16.0703 326.565 16.5312 326.284 17.1094V45H320.026Z" stroke="#D9E6E7" stroke-width="2" mask="url(#path-1-outside-1_127_2784)"/>
<path d="M344.87 45.4219C343.073 45.4219 341.589 45.1484 340.417 44.6016C339.245 44.0391 338.323 43.2344 337.651 42.1875C336.995 41.1406 336.534 39.8672 336.269 38.3672C336.003 36.8672 335.87 35.1719 335.87 33.2812V21.8906C335.87 19.2969 336.112 17.0703 336.597 15.2109C337.081 13.3516 337.972 11.9219 339.269 10.9219C340.581 9.92188 342.472 9.42188 344.94 9.42188C346.456 9.42188 347.737 9.65625 348.784 10.125C349.831 10.5938 350.675 11.2734 351.315 12.1641C351.956 13.0391 352.417 14.1016 352.698 15.3516C352.995 16.6016 353.144 18.0078 353.144 19.5703V23.4375H347.144V19.3594C347.144 18.3438 347.097 17.4766 347.003 16.7578C346.909 16.0234 346.698 15.4688 346.37 15.0938C346.042 14.7031 345.519 14.5078 344.8 14.5078C344.097 14.5078 343.55 14.7031 343.159 15.0938C342.769 15.4844 342.495 16.0547 342.339 16.8047C342.198 17.5391 342.128 18.4219 342.128 19.4531V35.2969C342.128 36.3594 342.19 37.2656 342.315 38.0156C342.456 38.7656 342.706 39.3438 343.065 39.75C343.44 40.1406 343.987 40.3359 344.706 40.3359C345.409 40.3359 345.933 40.1328 346.276 39.7266C346.636 39.3047 346.87 38.7188 346.979 37.9688C347.089 37.2188 347.144 36.3359 347.144 35.3203V31.1484H353.144V34.7109C353.144 36.3203 353.003 37.7891 352.722 39.1172C352.44 40.4297 351.979 41.5547 351.339 42.4922C350.698 43.4297 349.847 44.1562 348.784 44.6719C347.722 45.1719 346.417 45.4219 344.87 45.4219Z" stroke="#D9E6E7" stroke-width="2" mask="url(#path-1-outside-1_127_2784)"/>
<path d="M366.55 45.4219C364.784 45.4219 363.331 45.1406 362.19 44.5781C361.065 44.0156 360.183 43.2031 359.542 42.1406C358.917 41.0781 358.479 39.8047 358.229 38.3203C357.979 36.8203 357.854 35.1484 357.854 33.3047V20.2031C357.854 18.5625 358.019 17.0781 358.347 15.75C358.69 14.4219 359.214 13.2891 359.917 12.3516C360.636 11.4141 361.565 10.6953 362.706 10.1953C363.847 9.67969 365.222 9.42188 366.831 9.42188C368.472 9.42188 369.839 9.67188 370.933 10.1719C372.026 10.6719 372.886 11.3984 373.511 12.3516C374.151 13.3047 374.604 14.4531 374.87 15.7969C375.151 17.125 375.292 18.6328 375.292 20.3203V27.8438H364.112V34.7578C364.112 36.4609 364.245 37.8281 364.511 38.8594C364.776 39.8906 365.503 40.4062 366.69 40.4062C367.487 40.4062 368.05 40.1641 368.378 39.6797C368.722 39.1953 368.925 38.5312 368.987 37.6875C369.065 36.8281 369.104 35.8516 369.104 34.7578V31.6641H375.245V33.5391C375.245 35.4297 375.128 37.1094 374.894 38.5781C374.675 40.0469 374.253 41.2891 373.628 42.3047C373.019 43.3203 372.144 44.0938 371.003 44.625C369.862 45.1562 368.378 45.4219 366.55 45.4219ZM364.089 24.2109H369.104V19.7109C369.104 18.5391 369.05 17.5547 368.94 16.7578C368.831 15.9453 368.612 15.3359 368.284 14.9297C367.956 14.5234 367.456 14.3203 366.784 14.3203C365.956 14.3203 365.347 14.5625 364.956 15.0469C364.581 15.5312 364.339 16.1953 364.229 17.0391C364.136 17.8672 364.089 18.8125 364.089 19.875V24.2109Z" stroke="#D9E6E7" stroke-width="2" mask="url(#path-1-outside-1_127_2784)"/>
<path d="M387.808 45.4453C384.979 45.4453 382.878 44.6406 381.503 43.0312C380.128 41.4219 379.44 38.7891 379.44 35.1328V32.8594H385.276V35.6953C385.276 37.2266 385.464 38.3906 385.839 39.1875C386.214 39.9844 386.823 40.3828 387.667 40.3828C388.479 40.3828 389.081 40.1094 389.472 39.5625C389.862 39.0156 390.058 38.0703 390.058 36.7266C390.058 35.9453 389.94 35.1875 389.706 34.4531C389.487 33.7188 389.136 33 388.651 32.2969C388.183 31.5781 387.573 30.8828 386.823 30.2109L383.659 27.3516C382.206 26.0391 381.12 24.625 380.401 23.1094C379.683 21.5781 379.323 19.8906 379.323 18.0469C379.323 15.0625 380.019 12.8828 381.409 11.5078C382.815 10.1172 384.894 9.42188 387.644 9.42188C389.425 9.42188 390.901 9.75781 392.073 10.4297C393.245 11.0859 394.12 12.1562 394.698 13.6406C395.276 15.125 395.565 17.1172 395.565 19.6172V21.5391H390.011V19.2188C390.011 17.6719 389.831 16.5 389.472 15.7031C389.128 14.9062 388.534 14.5078 387.69 14.5078C386.862 14.5078 386.253 14.7422 385.862 15.2109C385.472 15.6641 385.261 16.4688 385.229 17.625C385.214 18.25 385.292 18.8672 385.464 19.4766C385.636 20.0703 385.901 20.6562 386.261 21.2344C386.636 21.7969 387.12 22.3516 387.714 22.8984L391.042 25.9219C392.792 27.5 394.081 29.1484 394.909 30.8672C395.753 32.5859 396.175 34.4453 396.175 36.4453C396.175 39.3984 395.503 41.6406 394.159 43.1719C392.815 44.6875 390.698 45.4453 387.808 45.4453Z" stroke="#D9E6E7" stroke-width="2" mask="url(#path-1-outside-1_127_2784)"/>
<defs>
<filter id="filter0_ii_127_2784" x="-0.887695" y="-0.78125" width="401.062" height="56.4609" filterUnits="userSpaceOnUse" color-interpolation-filters="sRGB">
<feFlood flood-opacity="0" result="BackgroundImageFix"/>
<feBlend mode="normal" in="SourceGraphic" in2="BackgroundImageFix" result="shape"/>
<feColorMatrix in="SourceAlpha" type="matrix" values="0 0 0 0 0 0 0 0 0 0 0 0 0 0 0 0 0 0 127 0" result="hardAlpha"/>
<feOffset dx="-1" dy="-1"/>
<feGaussianBlur stdDeviation="1.5"/>
<feComposite in2="hardAlpha" operator="arithmetic" k2="-1" k3="1"/>
<feColorMatrix type="matrix" values="0 0 0 0 0.984314 0 0 0 0 0.984314 0 0 0 0 0.984314 0 0 0 1 0"/>
<feBlend mode="normal" in2="shape" result="effect1_innerShadow_127_2784"/>
<feColorMatrix in="SourceAlpha" type="matrix" values="0 0 0 0 0 0 0 0 0 0 0 0 0 0 0 0 0 0 127 0" result="hardAlpha"/>
<feOffset dx="3" dy="3"/>
<feGaussianBlur stdDeviation="4.5"/>
<feComposite in2="hardAlpha" operator="arithmetic" k2="-1" k3="1"/>
<feColorMatrix type="matrix" values="0 0 0 0 0.772549 0 0 0 0 0.772549 0 0 0 0 0.772549 0 0 0 1 0"/>
<feBlend mode="normal" in2="effect1_innerShadow_127_2784" result="effect2_innerShadow_127_2784"/>
</filter>
</defs>
</svg>
