<svg width="85" height="84" viewBox="0 0 85 84" fill="none" xmlns="http://www.w3.org/2000/svg">
<g id="js_icon" filter="url(#filter0_ii_64_2143)">
<path d="M0.5 0V84H84.5V0H0.5ZM8.13636 7.63636H76.8636V76.3636H8.13636V7.63636ZM58.7044 38.1818C53.2635 38.1818 49.7469 41.664 49.7469 46.2764C49.7469 51.2782 52.6869 53.6722 57.1084 55.5545L58.6356 56.2151C61.4344 57.4484 63.0991 58.1662 63.0991 60.27C63.0991 62.0455 61.4687 63.3207 58.9296 63.3207C55.9209 63.3207 54.2104 61.7247 52.9045 59.5827L47.9027 62.4464C49.6744 66.0011 53.3742 68.7273 59.0709 68.7273C64.8745 68.7273 69.2273 65.7185 69.2273 60.2051C69.2273 55.0505 66.2873 52.7635 61.0602 50.5527L59.5405 49.896C56.8945 48.7353 55.7682 47.9755 55.7682 46.1618C55.7682 44.6727 56.8907 43.512 58.7082 43.512C60.4836 43.512 61.6024 44.2756 62.6562 46.1618L67.4518 43.0805C65.4205 39.5296 62.6218 38.1818 58.7082 38.1818H58.7044ZM36.368 38.5484V59.4071C36.368 62.454 35.0622 63.2444 33.0653 63.2444C30.9653 63.2444 30.0565 61.7973 29.1135 60.0905L24.1116 63.1069C25.5625 66.1882 28.4224 68.7273 33.3211 68.7273C38.7582 68.7273 42.5 65.8255 42.5 59.472V38.5484H36.3718H36.368Z" fill="#E0E0E0"/>
</g>
<defs>
<filter id="filter0_ii_64_2143" x="-0.5" y="0" width="86" height="85" filterUnits="userSpaceOnUse" color-interpolation-filters="sRGB">
<feFlood flood-opacity="0" result="BackgroundImageFix"/>
<feBlend mode="normal" in="SourceGraphic" in2="BackgroundImageFix" result="shape"/>
<feColorMatrix in="SourceAlpha" type="matrix" values="0 0 0 0 0 0 0 0 0 0 0 0 0 0 0 0 0 0 127 0" result="hardAlpha"/>
<feOffset dx="-1" dy="1"/>
<feGaussianBlur stdDeviation="1.5"/>
<feComposite in2="hardAlpha" operator="arithmetic" k2="-1" k3="1"/>
<feColorMatrix type="matrix" values="0 0 0 0 0.984314 0 0 0 0 0.984314 0 0 0 0 0.984314 0 0 0 1 0"/>
<feBlend mode="normal" in2="shape" result="effect1_innerShadow_64_2143"/>
<feColorMatrix in="SourceAlpha" type="matrix" values="0 0 0 0 0 0 0 0 0 0 0 0 0 0 0 0 0 0 127 0" result="hardAlpha"/>
<feOffset dx="1" dy="1"/>
<feGaussianBlur stdDeviation="1.5"/>
<feComposite in2="hardAlpha" operator="arithmetic" k2="-1" k3="1"/>
<feColorMatrix type="matrix" values="0 0 0 0 0.772549 0 0 0 0 0.772549 0 0 0 0 0.772549 0 0 0 1 0"/>
<feBlend mode="normal" in2="effect1_innerShadow_64_2143" result="effect2_innerShadow_64_2143"/>
</filter>
</defs>
</svg>
